<svg xmlns="http://www.w3.org/2000/svg" viewBox="0 0 88.78 46.55"><g id="Layer_2" data-name="Layer 2"><g id="Layer_1-2" data-name="Layer 1"><path d="M60.08,0a13,13,0,0,0,3.37.2c1.86.13,3.9.09,5.82.18l.58-.11v0a1.74,1.74,0,0,1,.8.08V.29a19.5,19.5,0,0,1,5.18.25v.1L76.06.5l.67.23v0c.57.14,3.36,1.33,2,1.85l-.11-.19-.35.08a7.31,7.31,0,0,0-3-1.37A12.65,12.65,0,0,0,72,.84H70.65V.78l-.19.16c-1.79-.14-3.56,0-5.34,0h0l-1-.08-.38.28c-1.67,0-5.06-1.82-5.4.75.12,1.82,2.33,1.85,3.45,2.93,3,.81,6-1.15,8.79-1.75l0-.08c1.43-.29,2.52-1.38,4-1.34v.46l-.46.11c-2,1.57-4.62,2.47-7,3.48l-.23.18,0,0a11.93,11.93,0,0,0-2.11,1l0,.1c3.31,2.13,8-.77,10.84-2.76l.23.07L76.3,4l.1,0c-1.12,2.55-4.67,3.15-7,4.5l.34.24.29-.13.26.2c2.56,0,5.07,1,7.56,1a5.23,5.23,0,0,0,2.27.48c.37.35.95.24,1.46.29,2.41.79,5.44,1.54,7.17,3.56,0,.09-.14.12-.19.17-2.36-.5-4.21-2.3-6.59-2.9-6.11-.7-13.2-4.2-18.85-.37A1.68,1.68,0,0,0,61,9.89a18.43,18.43,0,0,0-7.36.81c1.69,3.18,2.57,6.63,4.34,9.61.76,2.05.78,6.16,3.86,5.75l.52.42V27l-1.07-.31L61,27A4.41,4.41,0,0,1,57.88,24l-.08,0a2.9,2.9,0,0,0-.56-1.4,3.65,3.65,0,0,0-1-3c-.43.37,0,1.06-.5,1.28a37,37,0,0,0-2.07-7.45c-.22-5.92-5.5,2-7.64,3.07,1.06,1.61,1.6,4.06,3.47,4.92v0c1.11.63,2.47.28,3.63-.07l0,.33.57.15.14.87.36-.07a.94.94,0,0,0,.94.43c.12.49.72.37.93.81,1.4,3.66,4.36,7.14,4.22,11.35l.67.59,0,.06.19,0c.13.49.71.74,1.75.77l.4.43v.33l-.51.4-.62-.4-.54.12c-1.1-.6-1.33-1.32-2.11-1.93-.71-1.33.15-2.95-.94-4l-.34.13-.28-.13c-.34-2.22-2-4.16-2.15-6.5l.08,0c-2.39-1.21-5.13-1.12-7.64-1.91a6,6,0,0,1-2.89-2.3c-.74-.81-2.08-1.25-2-2.56-2-.52-.92-3.83-1.49-5.46-2,2.06-2.31,6-5.57,6.71l-.11.3c.22,1,1.44,2.12.67,3,1.8,1.92,1.27,5.24,3.75,6.81-.42,2.54,2.16,4.87,3,7.22.55,1.2.9,2.76,2.07,3.49.72.66,1,1.39,1.92,1.79l0,.31.26-.05c.56.88,1.67.54,2.4,1a1.07,1.07,0,0,1,.06.78l.13.2-.09.33-.25.1-.4-.13-.35.11-.22-.55-.39-.19-.21.25-.73.06a1.8,1.8,0,0,0-1.22-.79c-.1-.62-.58-1-.9-1.45l.07-.16A8.4,8.4,0,0,0,44.27,40l-.06,0,0-.3-.2-.05c0-.37-.79-1.11-1.23-1.35l-.06-.56-.39,0,.14-.45a31.35,31.35,0,0,1-2.82-6.5,1,1,0,0,1-.76-.86c-.31-1.13-1.44-1.78-1.69-2.94a8.34,8.34,0,0,0-.77-3.44,2.41,2.41,0,0,1-2.69-2.2,1,1,0,0,0-1,.48c1,1.52-1.29,4.56-2.93,4.13A1.54,1.54,0,0,1,28,25.88H26.81l0-.18,0,.06L25,24.63l0,.14-1.4-1.21c-1.22.44-1.35,2.24-2.5,2.91-1,.48-2.13.85-3.13,1.34-.69,1.75-.66,4-2.1,5.26l-.33,1.23-.05,0-1.62,8.44c-.69-.35-.83.86-1.07,1.28a10,10,0,0,0-1.67,2.17l-.36-.07-.38.27L10,45.9c-.8-.07-1.44,1.06-2.15.5l0-.62c3.68-.29,5.71-3.44,6.24-6.94h0c.4-1.76.73-3.48,1.16-5.22h0l.08-.82h0a2.91,2.91,0,0,1,.34-1.42h0l.79-2.25c-2.78,1.26-5,3.18-7.85,4.35l-.43,0-.2-.79-.21-.17,0-.36L7.51,32c-1.18-1.82-.17-3.63.1-5.42,1.56-2.69,4-5.3,7.38-5a4.44,4.44,0,0,1,3.79-1.85c.65-1.64,2.39,0,3.36.58v0l.63.41.09,0c-.25-1.11.68-1.67,1.5-2-2.09-2.69-4.08-5.43-7.2-7a31.14,31.14,0,0,1-6,4.38L11,15.9c-2,.66-3.19,2.73-4.95,3.93l.1.08c-.25,0-.45.07-.74-.12l-.33.3-.43,0-.18.38-.54-.09v0a29,29,0,0,1-3.05-.65l.24-.25c-.2-.25-.4-.25-.55-.15L0,19.17a1.45,1.45,0,0,1,.2-.81L.66,18a7.43,7.43,0,0,0,5,1,62.19,62.19,0,0,1,10.19-7.37l0,.07a6.1,6.1,0,0,1,2.29-1.19C22,13,24.55,17.76,28.61,19.36c-.46-2.18.6-4,2.3-5.27,2.15-2,4.2-5.16,7.23-5.66C40,6,43.33,5.35,46.21,5.67,47.84,1,53.6,1.24,57.7,1.41l-.09-.18A3.47,3.47,0,0,1,60.08,0ZM45.68,13.79c1.51-1.44,3.54-2.18,5.18-3.34-1.15-.51-2.93-.53-3.22-2a4.9,4.9,0,0,0-1.23.62A17.16,17.16,0,0,0,45.54,12,1.13,1.13,0,0,0,45.68,13.79Zm-20.39,8.9v.13a17.67,17.67,0,0,0,3.89,2.23l.51-2.11-.86-.62h-.47C27.5,21.08,26.29,22.26,25.29,22.69Zm40-14.51c-.73-.94-1.88-1.47-2.47-.09A7.28,7.28,0,0,0,65.33,8.18Z"/></g></g></svg>