<svg xmlns="http://www.w3.org/2000/svg" viewBox="0 0 2105.5 270.54"><defs><style>.cls-1,.cls-2,.cls-3,.cls-4{stroke:#fff;stroke-miterlimit:10;}.cls-2{stroke-width:0.91px;}.cls-3{stroke-width:0.87px;}.cls-4{stroke-width:0.92px;}</style></defs><g id="Layer_2" data-name="Layer 2"><g id="Layer_1-2" data-name="Layer 1"><path class="cls-1" d="M624.55,61.7c4.24,1.15,8.2.69,12.62.76,7,.49,14.66.35,21.84.66l2.19-.39v.07c.91.09,2-.27,3,.3v-.34c6.54,0,13-.8,19.41.94l0,.35.91-.5,2.52.84,0,.1c2.14.5,12.57,5,7.35,6.92l-.41-.7-1.31.31c-3.17-2.28-7.43-4.67-11.24-5.15-4.08-1.13-8.09-1-12.17-1h-5l0-.24-.72.58c-6.71-.52-13.34-.07-20,0v0l-3.68-.3-1.42,1c-6.26,0-19-6.82-20.26,2.84.46,6.8,8.74,6.94,12.95,11,11.16,3,22.3-4.35,33-6.58l-.1-.31c5.35-1.09,9.41-5.16,15.06-5v1.73l-1.72.41c-7.6,5.88-17.34,9.26-26.21,13.07l-.88.65-.08-.18c-2.67,1.16-5.48,2-7.91,3.67l.09.39c12.4,8,29.94-2.91,40.65-10.34l.84.25,1.62-.8.38.19c-4.2,9.59-17.52,11.81-26.13,16.89l1.26.9,1.1-.5,1,.75c9.57-.13,19,3.65,28.34,3.81,1.65,1.1,4.93,1.65,8.5,1.83,1.37,1.28,3.56.87,5.48,1.08,9,2.94,20.4,5.77,26.88,13.36-.09.34-.54.45-.71.62-8.88-1.89-15.79-8.64-24.7-10.87-22.92-2.61-49.52-15.76-70.67-1.38-.65-3.68-4.52-5.54-8.08-4.62-9-1.32-18.57.56-27.58,3,6.32,11.93,9.62,24.85,16.26,36,2.85,7.69,2.93,23.11,14.48,21.55l2,1.6v1.9l-4-1.17-1.17,1.05c-5.66-1-9.58-5.88-11.61-11l-.29.14a11.22,11.22,0,0,0-2.11-5.26c-.12-3.89-.3-8-3.88-11.11-1.61,1.39,0,4-1.86,4.82a137.79,137.79,0,0,0-7.75-27.94c-.83-22.17-20.64,7.52-28.63,11.5,4,6.06,6,15.23,13,18.46l0-.09c4.17,2.37,9.25,1,13.6-.25l.17,1.22,2.15.56.5,3.28,1.37-.24a3.58,3.58,0,0,0,3.52,1.61c.44,1.82,2.7,1.38,3.49,3,5.24,13.72,16.32,26.8,15.79,42.55l2.53,2.25-.16.2.73.18c.49,1.84,2.66,2.8,6.54,2.9l1.52,1.6v1.24l-1.92,1.49-2.31-1.49-2,.46c-4.13-2.24-5-5-7.93-7.23-2.65-5,.57-11.06-3.52-15.2l-1.28.5-1.05-.5c-1.27-8.3-7.34-15.58-8-24.36l.32-.07c-9-4.54-19.25-4.2-28.64-7.15-4.75-1.27-7.85-5-10.86-8.62-2.75-3-7.78-4.69-7.39-9.63-7.47-1.93-3.43-14.36-5.56-20.45-7.46,7.72-8.68,22.59-20.88,25.15l-.43,1.11c.83,3.82,5.4,7.95,2.51,11.4,6.74,7.22,4.78,19.66,14.08,25.54-1.6,9.54,8.09,18.25,11.27,27.09,2,4.48,3.38,10.31,7.74,13.06,2.72,2.46,3.87,5.22,7.23,6.72l.14,1.15,1-.17c2.07,3.3,6.26,2,9,3.73a4.05,4.05,0,0,1,.23,3l.47.73-.33,1.25-.94.35-1.51-.48-1.31.4-.8-2-1.46-.73-.79.92-2.74.25a6.86,6.86,0,0,0-4.58-3c-.37-2.31-2.16-3.69-3.38-5.44l.28-.6a32.59,32.59,0,0,0-5.81-7.88l-.22.17-.1-1.14-.74-.18c.2-1.39-3-4.17-4.6-5.07l-.26-2.09-1.44-.11.51-1.69c-4.58-7.6-7.86-16.1-10.56-24.38-1.82-.28-2.5-1.75-2.85-3.2-1.14-4.26-5.38-6.68-6.33-11,.11-4.67-1.17-8.6-2.87-12.89a9,9,0,0,1-10.09-8.25c-1-.44-3.12.62-3.68,1.81,3.77,5.68-4.86,17.09-11,15.46-1.41,1.41-4.83,1.3-6.83-.31h-4.41l-.12-.68-.14.22L493,154l-.16.5L487.58,150c-4.57,1.67-5.09,8.4-9.37,10.92-3.69,1.79-8,3.21-11.74,5-2.61,6.55-2.49,14.92-7.87,19.72l-1.25,4.6-.18-.06c-2,10.49-4,21-6.08,31.63-2.6-1.33-3.12,3.22-4,4.8a37.86,37.86,0,0,0-6.23,8.13l-1.37-.25-1.43,1-1.13-1.74c-3-.26-5.4,4-8,1.84l-.21-2.3c13.82-1.1,21.43-12.88,23.42-26H452c1.48-6.61,2.71-13.08,4.35-19.57h-.06l.33-3.06-.06,0c-.24-1.87.6-3.51,1.3-5.32l0,0,3-8.44c-10.42,4.73-18.68,11.91-29.45,16.3l-1.62-.15-.72-3-.79-.64-.07-1.35-.66-.38c-4.41-6.85-.63-13.64.39-20.34,5.83-10.08,15-19.85,27.66-18.94,3.77-4.54,8.09-7.2,14.2-6.93,2.45-6.14,9,.12,12.6,2.17l-.05.07,2.39,1.54.31-.13c-.92-4.16,2.55-6.27,5.65-7.59-7.83-10.06-15.3-20.34-27-26.1-6.88,6-14.37,12.18-22.55,16.42l-.7-.56c-7.66,2.47-12,10.25-18.56,14.76l.36.31c-.93-.06-1.68.23-2.75-.46L418.18,137l-1.62-.13-.68,1.43-2-.35,0-.11a98.44,98.44,0,0,1-11.42-2.45l.89-.93c-.74-.94-1.5-.92-2-.56l-2-.37a5.73,5.73,0,0,1,.78-3l1.68-1.23a28,28,0,0,0,18.84,3.88c12.3-10.13,24-20.06,38.2-27.64l.16.25c2.62-1.74,5.07-3.77,8.57-4.45,14.09,9.13,23.8,27,39,33-1.71-8.19,2.26-14.86,8.64-19.77,8-7.46,15.73-19.34,27.09-21.24,7-9.16,19.46-11.55,30.25-10.32,6.11-17.49,27.69-16.63,43.07-16l-.34-.66C617.87,64,620.86,61.36,624.55,61.7Zm-54,51.65c5.69-5.39,13.27-8.17,19.45-12.52-4.32-1.89-11-2-12.09-7.35a19.57,19.57,0,0,0-4.61,2.33c-1.75,3.23-2.11,7.41-3.26,11C567.83,108.75,568.64,111.62,570.56,113.35Zm-76.45,33.37v.52c4.84,3,9.06,6.56,14.59,8.32.72-2.92,1.34-5.49,1.92-7.87-1.19-.88-2.13-1.55-3.23-2.36h-1.77C502.42,140.69,497.87,145.11,494.11,146.72ZM644.25,92.34c-2.75-3.53-7.06-5.52-9.27-.34A27.86,27.86,0,0,0,644.25,92.34Z"/><path class="cls-1" d="M639.63,54.9l-.21.71c15-3.31,36.13-7.9,45.19,8.26,10.41-3.09,23.1-2.9,31.57,4.91C727.7,68.68,737.34,79,746.56,85c7.13,3.72,12.2,9.6,11.93,18,13.94-8.57,20.41-27.8,32.7-39.24,3.56.07,6.33,1.64,9.21,2.89l.12-.27c15.3,5,28.54,12.75,42.42,20.59a28,28,0,0,0,17.88-7.1l1.86.92a5.64,5.64,0,0,1,1.3,2.86l-1.88.72c-.6-.27-1.35-.15-1.92.9l1,.76a99.62,99.62,0,0,1-10.82,4.39l.05.11-1.93.69-.92-1.29-1.57.42-1.43-.91c-.94.87-1.72.72-2.63.93l.3-.36C835,86.68,829.4,79.76,821.43,78.66l-.59.66c-8.8-2.74-17.24-7.51-25.06-12.25-10.51,7.7-16.08,19.13-22,30.4,3.28.76,7.06,2.23,6.89,6.49l.32.07L783,102.1,783,102c3.23-2.65,8.55-9.94,12-4.32,6-1.33,10.69.54,15.18,4.35,12.33-3.1,23,4.94,30.54,13.86,2.16,6.42,7.07,12.44,3.91,20l-.58.49.16,1.34-.66.76-.2,3.06-1.56.43C830.42,139.51,821,133.87,810,131l4.38,7.8,0,0c1,1.66,2.12,3.13,2.19,5l0,0,.86,3,0,0c2.73,6.11,5.07,12.26,7.68,18.52h-.08c4.23,12.58,13.78,22.87,27.58,21.55l.2,2.3c-2.24,2.55-5.37-1.19-8.24-.42l-.82,1.91L842,190l-1.3.48a37.89,37.89,0,0,0-7.55-6.92c-1.16-1.4-2.46-5.79-4.79-4l-11.49-30.09-.16.09-2-4.31c-6.13-3.79-7.47-12-11.17-18.06-4-1.14-8.5-1.79-12.44-2.91-4.66-1.73-6.34-8.27-11.12-9.13l-4.39,5.39-.24-.46-5.76,5.29-.18-.19v.69l-4.34.76c-1.7,1.94-5,2.65-6.68,1.51-5.75,2.65-16.23-7.08-13.51-13.33-.76-1.07-3-1.75-3.93-1.14a9,9,0,0,1-8.51,9.88c-.92,4.51-1.51,8.61-.58,13.19-.19,4.46-3.94,7.57-4.33,12-.09,1.49-.5,3.06-2.25,3.65-1.22,8.62-3,17.56-6.16,25.84l.79,1.57-1.4.36.11,2.1c-1.47,1.18-4.08,4.47-3.65,5.8l-.7.3.11,1.15-.26-.13a32.8,32.8,0,0,0-4.35,8.77l.38.54c-.89,1.93-2.41,3.6-2.38,5.94a6.9,6.9,0,0,0-4,3.72l-2.73.23-.94-.77-1.32,1-.43,2.14-1.36-.17-1.4.73-1-.18-.54-1.17.33-.81a4.05,4.05,0,0,1-.28-2.94c2.38-2.17,6.74-1.62,8.2-5.23h1l0-1.15c3-2.07,3.7-5,5.95-7.88,3.81-3.46,4.12-9.44,5.35-14.2,1.6-9.26,9.63-19.52,6.4-28.63,8.14-7.42,4.05-19.33,9.43-27.6-3.44-2.9.34-7.76.49-11.67l-.61-1c-12.47-.39-16.25-14.83-24.93-21.14-1,6.37,5.09,17.91-1.93,21.11,1.24,4.79-3.42,7.29-5.6,10.76-2.34,4.07-4.74,8.3-9.2,10.38-8.74,4.53-18.9,6-27,12h.32c.83,8.76-3.89,17-3.69,25.38l-1,.68-1.34-.27c-3.31,4.79.92,10.22-.83,15.58-2.5,2.74-2.87,5.58-6.55,8.49l-2.08-.1c-.54.51-1.3,1.21-2,1.87l-2.14-1.13-.22-1.22,1.22-1.85c3.81-.77,5.78-2.08,5.94-4l.69-.3-.2-.18,2.1-2.65c-3.26-15.42,5.38-30.22,8.16-44.64.5-1.73,2.8-1.7,2.92-3.57a3.54,3.54,0,0,0,3.18-2.2h1.4l-.08-3.31,2-.93-.05-1.23c4.51.52,9.75.94,13.45-2.11l0,.08c6.36-4.4,6.76-13.78,9.6-20.44-8.57-2.53-33.23-28.33-30.2-6.35a138.66,138.66,0,0,0-2.78,28.86c-1.94-.49-.84-3.33-2.67-4.43-3,3.68-2.45,7.77-1.89,11.62a11.19,11.19,0,0,0-1.16,5.55l-.32-.09c-1.1,5.4-4.12,10.89-9.51,12.85l-1.34-.82-3.75,1.85-.33-1.88,1.63-1.91c11.65-.47,9.05-15.68,10.52-23.74,4.61-12.17,5.6-25.46,9.76-38.3-9.31-.88-19.09-1.06-27.69,1.8-3.66-.29-7.16,2.21-7.15,6-23.33-10.49-47.24,7.08-69.36,13.64-8.38,3.73-14,11.59-22.44,15-.19-.15-.66-.18-.8-.5,5.06-8.59,15.78-13.35,24.15-17.82,1.86-.53,4.08-.51,5.2-2,3.5-.8,6.63-1.91,8.06-3.28,9.19-1.78,17.8-7.14,27.25-8.67l.85-.91,1.16.3,1.09-1.1c-9.37-3.51-22.87-3.39-28.67-12.1l.35-.26,1.73.51.78-.39c11.84,5.46,31,13.12,41.83,3.12l0-.39c-2.67-1.21-5.59-1.57-8.43-2.25l0,.19-1-.48c-9.39-2.22-19.57-3.85-28.08-8.32l-1.76-.11-.3-1.7c5.54-1.11,10.25,2.19,15.7,2.34l0,.31c10.87.36,23.12,5.68,33.6.76,3.44-4.71,11.56-6.29,10.83-13.07-2.92-9.29-14.27-.31-20.44.73l-1.57-.77-3.58.94v0c-6.57,1.1-13.17,1.81-19.69,3.49l-.8-.45V62l-4.92.86c-4,.77-8,1.31-11.81,3.14-3.66,1.13-7.44,4.22-10.17,7L563,72.9l-.29.76c-5.48-1,4-7.22,6-8.09l0-.09L571,64.21l1,.34-.09-.34c6-2.83,12.51-3.17,19-4.3l0,.34c.93-.74,2-.58,2.9-.83v-.06H596c7-1.55,14.59-2.74,21.39-4.44,4.34-.84,8.32-1.07,12.3-2.94C633.29,51,636.69,53.08,639.63,54.9Zm51.59,32c-1.76-3.32-2.83-7.38-5.11-10.25a19.72,19.72,0,0,0-5-1.5c-.15,5.5-6.71,6.73-10.63,9.34,6.84,3.21,14.79,4.63,21.33,9C693.45,91.44,693.75,88.46,691.22,86.93Zm70.13,26.76-1.74.31-2.77,2.88,3.25,7.43c5.15-2.7,8.68-7,12.93-10.74l-.08-.51C769,112.13,763.71,108.56,761.35,113.69ZM624.71,83.63c-3.07-4.72-7-2-9.07,2A27.68,27.68,0,0,0,624.71,83.63Z"/><path class="cls-2" d="M799.29,122c3.71,1.46,7.33,1.44,11.3,1.94,6.25,1.14,13.18,1.78,19.61,2.77l2-.13v.06c.81.17,1.79,0,2.68.58l0-.31c5.89.65,11.82.58,17.39,2.79l-.06.31.87-.36,2.18,1,0,.09c1.88.66,10.83,5.73,5.93,7l-.3-.67-1.21.15c-2.63-2.37-6.23-4.95-9.61-5.76-3.57-1.43-7.19-1.69-10.87-2.15l-4.5-.5v-.22l-.7.46c-6-1.14-12-1.4-18-2v0l-3.29-.64-1.38.79c-5.65-.59-16.43-8-18.54.53-.26,6.18,7.18,7.13,10.57,11.19,9.76,3.84,20.53-1.68,30.34-2.63l-.05-.29c4.92-.45,9-3.71,14.06-3l-.17,1.55-1.59.2c-7.43,4.54-16.55,6.61-24.91,9.16l-.86.49,0-.17c-2.53.78-5.15,1.28-7.5,2.52l0,.36c10.37,8.41,27.27.37,37.66-5.25l.73.3,1.54-.56.32.22c-4.73,8.21-17,8.89-25.23,12.6l1.05.94,1-.34.82.77c8.63.84,16.74,5.19,25.15,6.27,1.37,1.15,4.27,2,7.48,2.49,1.1,1.3,3.11,1.15,4.83,1.52,7.83,3.56,17.8,7.24,22.88,14.72-.11.3-.53.35-.7.49-7.81-2.58-13.37-9.36-21.17-12.25-20.39-4.65-43-19.15-63.54-8.31-.21-3.38-3.52-5.45-6.81-5-8-2.1-16.79-1.36-25.15,0,4.5,11.38,6.17,23.35,11.05,34.09,1.79,7.2.33,21.11,10.89,20.86l1.59,1.63L796.9,214l-3.5-1.46-1.16.83c-5-1.46-8-6.26-9.36-11.07l-.28.1a10,10,0,0,0-1.37-4.95c.28-3.52.53-7.25-2.39-10.41-1.58,1.1-.43,3.6-2.15,4.17a125.84,125.84,0,0,0-4.19-25.95c1.46-20.06-19.35,4.71-27,7.5,3,5.85,3.85,14.32,9.86,17.93l0-.08c3.53,2.55,8.24,1.87,12.29,1.13l0,1.12,1.87.72.13,3,1.26-.08a3.22,3.22,0,0,0,3,1.8c.22,1.69,2.29,1.52,2.84,3.06,3.36,12.88,12,25.77,10,39.91l2.06,2.28-.17.17.64.23c.26,1.71,2.12,2.79,5.6,3.26l1.21,1.61-.12,1.1-1.88,1.16-1.93-1.58-1.88.22c-3.49-2.43-4-5-6.41-7.31-1.9-4.75,1.61-9.91-1.66-14l-1.2.32-.9-.56c-.31-7.6-5.06-14.77-4.82-22.75l.29,0c-7.64-5-16.92-5.71-25.09-9.3-4.15-1.62-6.57-5.31-8.92-8.86-2.17-3-6.54-5-5.7-9.41-6.53-2.48-1.65-13.28-3-19-7.48,6.22-10.07,19.49-21.32,20.57l-.5,1c.36,3.53,4.07,7.71,1.12,10.53,5.35,7.17,2.35,18.18,10.14,24.42-2.39,8.43,5.47,17.24,7.45,25.52,1.39,4.24,2,9.64,5.67,12.55,2.2,2.49,3,5.08,5.84,6.78l0,1,.9,0c1.53,3.18,5.44,2.43,7.72,4.26A3.61,3.61,0,0,1,750,268l.35.71-.42,1.09-.88.23-1.31-.58-1.22.23-.52-1.92-1.25-.8-.8.75-2.49-.05a6.25,6.25,0,0,0-3.83-3.13c-.11-2.12-1.58-3.54-2.5-5.24l.31-.51a29.7,29.7,0,0,0-4.44-7.68l-.22.13,0-1-.65-.24c.32-1.23-2.24-4-3.64-5l0-1.9-1.29-.25.63-1.47a106.68,106.68,0,0,1-7.08-23c-1.61-.43-2.07-1.82-2.24-3.17-.61-3.95-4.19-6.55-4.61-10.57.57-4.2-.2-7.87-1.3-11.9a8.17,8.17,0,0,1-8.27-8.45c-.9-.49-2.87.25-3.49,1.27,2.83,5.49-6.09,14.91-11.44,12.83-1.42,1.13-4.49.69-6.13-1l-4-.44,0-.62-.15.18L671.54,192l-.19.43-4.28-4.62c-4.28,1-5.42,7.07-9.53,8.91-3.5,1.24-7.53,2.09-11.08,3.35-3,5.65-3.74,13.21-9.06,17l-1.59,4-.15-.07c-2.87,9.25-5.73,18.5-8.64,27.89-2.21-1.46-3.14,2.59-4.1,3.93a34.14,34.14,0,0,0-6.43,6.7l-1.2-.37-1.39.76-.85-1.68c-2.65-.53-5.26,3-7.43.86l0-2.1c12.56.4,20.59-9.47,23.69-21.09h-.07c2-5.81,3.75-11.51,5.87-17.2h0l.61-2.73-.05,0c0-1.71.89-3.1,1.69-4.66l0,0,3.51-7.31c-9.86,3.22-18,8.87-28.16,11.75l-1.44-.3-.36-2.75-.65-.65.07-1.22-.55-.41c-3.29-6.62.8-12.35,2.38-18.29,6.26-8.5,15.48-16.39,26.82-14.3,3.84-3.72,8-5.68,13.48-4.82,2.82-5.29,8.06,1,11.13,3.21l0,.05,2,1.63.3-.08c-.41-3.85,2.92-5.4,5.85-6.28-6.06-9.85-11.76-19.86-21.71-26.21-6.8,4.74-14.17,9.54-22,12.54l-.58-.57c-7.14,1.46-11.8,8-18.19,11.44l.29.31c-.83-.14-1.53.05-2.43-.69l-1.24.9-1.45-.28-.76,1.22-1.78-.52,0-.1a88.81,88.81,0,0,1-10-3.34l.89-.75c-.57-.92-1.26-1-1.79-.7l-1.74-.54a5.21,5.21,0,0,1,1-2.66l1.64-.94A25.37,25.37,0,0,0,608.44,166c12.09-7.9,23.63-15.68,37.18-21.1l.12.25c2.53-1.3,5-2.89,8.16-3.15,11.79,9.63,18.75,26.65,31.86,33.6-.72-7.55,3.52-13.16,9.75-17,8-5.92,16.12-15.86,26.54-16.44,7.21-7.55,18.68-8.46,28.28-6.27,7.25-15.15,26.61-12.22,40.4-10.1l-.23-.63C793.05,123.38,796,121.3,799.29,122Zm-53.8,41.14c5.67-4.29,12.77-6,18.77-9.34-3.69-2.13-9.69-2.87-10.15-7.83a18.21,18.21,0,0,0-4.39,1.64c-1.9,2.74-2.64,6.47-4,9.58C743.49,158.7,743.93,161.37,745.49,163.12Zm-72.21,22.43,0,.47c4.06,3.18,7.5,6.82,12.32,9l2.51-6.91-2.68-2.45-1.59-.17C681.37,181,676.83,184.48,673.28,185.55Zm140.71-34c-2.13-3.46-5.82-5.68-8.32-1.23A25.45,25.45,0,0,0,814,151.55Z"/><path class="cls-2" d="M830.37,83.37l-.27.62c13.88-1.48,33.35-3.51,39.9,12,9.69-1.74,21.1-.3,28,7.58,10.38,1.06,18,11.36,25.74,17.65,6.06,4.07,10,9.87,9,17.37,13.42-6.33,21.16-23,33.38-32.08,3.2.41,5.54,2.1,8,3.52l.14-.24c13.28,6,24.44,14.35,36.16,22.79a25.33,25.33,0,0,0,16.81-4.6l1.6,1a5.13,5.13,0,0,1,.87,2.71l-1.76.45c-.51-.3-1.2-.27-1.82.62l.86.79a88.24,88.24,0,0,1-10.18,2.88l0,.1-1.81.43-.69-1.25-1.46.21-1.2-.95c-.93.69-1.63.47-2.47.57l.31-.3c-6.23-3.69-10.57-10.47-17.64-12.27l-.6.54c-7.65-3.35-14.79-8.49-21.36-13.54-10.24,5.89-16.4,15.63-22.9,25.19,2.88,1,6.14,2.72,5.56,6.54l.28.09,2.07-1.53,0-.06c3.17-2.06,8.7-8.1,11.27-2.69,5.51-.61,9.57,1.55,13.24,5.44,11.42-1.56,20.27,6.74,26.14,15.53,1.3,6,5.12,11.92,1.53,18.37l-.58.39,0,1.22-.68.63-.48,2.72-1.45.24c-10-3.35-17.89-9.37-27.6-13l3.17,7.46,0,0c.73,1.59,1.59,3,1.48,4.73l-.05,0,.48,2.75h-.06c1.86,5.78,3.35,11.56,5.08,17.45h-.08c2.56,11.76,10.13,22,22.7,22.17l0,2.09c-2.27,2.07-4.72-1.61-7.39-1.2l-.92,1.64-1.35-.82-1.22.31a34.36,34.36,0,0,0-6.11-7c-.91-1.38-1.64-5.46-3.92-4.12-2.47-9.51-4.9-18.88-7.34-28.26l-.16.07-1.4-4.09c-5.14-4-5.52-11.61-8.26-17.39-3.49-1.42-7.47-2.46-10.92-3.86-4-2-4.88-8.09-9.1-9.34l-4.49,4.41-.17-.43-5.72,4.19-.14-.19-.07.62-4,.26c-1.72,1.57-4.81,1.88-6.17.68-5.45,1.83-13.92-8-10.84-13.35-.58-1-2.51-1.88-3.43-1.42a8.17,8.17,0,0,1-8.65,8.05c-1.29,4-2.22,7.61-1.85,11.83-.61,4-4.3,6.43-5.09,10.35-.23,1.33-.75,2.7-2.39,3.06a107.16,107.16,0,0,1-8.13,22.67l.56,1.5-1.3.18L888.8,206c-1.44.91-4.13,3.61-3.87,4.85l-.66.21,0,1-.22-.15a29.92,29.92,0,0,0-4.79,7.47l.29.53c-1,1.65-2.54,3-2.75,5.12a6.23,6.23,0,0,0-4,3l-2.48-.06-.77-.79-1.29.74-.6,1.89-1.21-.29-1.33.52-.88-.27-.37-1.1.38-.7a3.63,3.63,0,0,1,0-2.67c2.37-1.72,6.23-.79,7.91-3.9l.9.09.06-1c3-1.56,3.84-4.11,6.15-6.5,3.78-2.74,4.66-8.1,6.24-12.27,2.37-8.18,10.63-16.62,8.63-25.15,8.07-5.87,5.58-17,11.25-23.93-2.81-2.95,1.09-6.95,1.61-10.46l-.45-1c-11.19-1.6-13.16-15-20.35-21.54-1.58,5.64,2.8,16.65-3.85,18.83.64,4.44-3.81,6.22-6.12,9.14-2.51,3.43-5.1,7-9.32,8.42-8.33,3.22-17.63,3.51-25.5,8.14l.29,0c-.13,8-5.2,14.92-5.86,22.5l-.93.51-1.18-.37c-3.46,4-.2,9.29-2.3,13.95-2.53,2.22-3.15,4.74-6.75,7l-1.87-.3-2,1.48c-.59-.39-1.2-.81-1.82-1.24l-.07-1.11,1.28-1.55c3.5-.31,5.41-1.3,5.75-3l.64-.21-.15-.17,2.15-2.18c-1.39-14.22,7.87-26.7,11.82-39.41.62-1.51,2.68-1.25,3-2.92a3.25,3.25,0,0,0,3.09-1.66l1.25.13.27-3L850,152l.08-1.12c4,.92,8.69,1.82,12.32-.56l0,.08c6.17-3.33,7.46-11.74,10.68-17.46-7.46-3.13-27.1-28.84-26.57-8.74a126,126,0,0,0-5.39,25.73c-1.7-.64-.42-3.09-2-4.25-3.06,3-3,6.75-2.86,10.28a10,10,0,0,0-1.6,4.88l-.28-.11c-1.54,4.75-4.8,9.4-9.86,10.62l-1.12-.88-3.57,1.3-.11-1.73,1.67-1.56c10.54.75,9.72-13.21,11.84-20.33,5.37-10.5,7.6-22.38,12.62-33.54-8.29-1.72-17.09-2.86-25.12-1.14-3.27-.63-6.67,1.28-7,4.65-20-11.78-43.27,1.66-63.85,5.36-7.93,2.53-13.8,9-21.72,11.26-.16-.15-.57-.22-.67-.52C732.89,127,743,123.76,751,120.57c1.72-.29,3.72,0,4.89-1.29,3.22-.38,6.16-1.06,7.58-2.15,8.46-.69,16.76-4.65,25.42-5.09l.86-.74,1,.39,1.1-.89c-8.09-4.09-20.27-5.33-24.63-13.76l.34-.19,1.51.62.74-.27c10.12,6.1,26.63,14.92,37.38,7l.06-.35c-2.29-1.36-4.89-2-7.38-2.87l0,.17-.84-.53c-8.24-2.94-17.25-5.43-24.47-10.3L773,90l-.11-1.56c5.1-.45,9,3,13.92,3.67l-.07.29c9.76,1.4,20.26,7.42,30.19,4C820.47,92.56,828,92,828,85.77c-1.71-8.67-12.83-1.71-18.49-1.39l-1.34-.85-3.32.49v0c-6,.33-12.05.31-18.09,1.17l-.68-.48v.21l-4.52.29c-3.7.29-7.32.38-10.95,1.65-3.42.66-7.13,3.06-9.87,5.3l-1.2-.2-.33.66c-4.84-1.46,4.34-6.11,6.24-6.68l0-.1,2.23-.9.85.4,0-.32c5.66-1.94,11.58-1.6,17.5-2v.31c.92-.57,1.89-.31,2.71-.45v-.06l2,.23c6.47-.7,13.42-1,19.71-1.87,4-.32,7.61-.13,11.38-1.42C825,79.23,827.9,81.44,830.37,83.37Zm43.28,34c-1.25-3.16-1.82-6.93-3.58-9.75a18.18,18.18,0,0,0-4.31-1.84c-.69,4.94-6.72,5.39-10.51,7.35,5.84,3.58,12.86,5.66,18.32,10.2C875.21,121.67,875.77,119,873.65,117.38Zm60.51,31.12-1.59.1-2.79,2.32,2.19,7c4.91-1.91,8.52-5.39,12.72-8.38l0-.47C941.17,147.85,936.8,144.11,934.16,148.5ZM814.05,107.77c-2.29-4.56-6.08-2.51-8.36.84A25,25,0,0,0,814.05,107.77Z"/><path class="cls-1" d="M958.17,64.71c4.24,1.15,8.2.69,12.62.76,7,.49,14.66.34,21.84.66l2.19-.4v.07c.91.09,2-.26,3,.31v-.34c6.54,0,13-.8,19.41.94l0,.35.91-.5,2.51.84v.1c2.14.5,12.57,5,7.35,6.92l-.41-.7-1.31.3c-3.17-2.27-7.43-4.66-11.24-5.14-4.08-1.13-8.09-1-12.17-1h-5l0-.23-.72.58c-6.71-.52-13.34-.07-20,0v0l-3.68-.3-1.42,1c-6.26,0-19-6.83-20.26,2.84.46,6.8,8.74,6.94,12.95,11,11.16,3,22.3-4.34,33-6.58l-.1-.3c5.35-1.1,9.41-5.16,15.06-5v1.73l-1.72.41c-7.6,5.88-17.35,9.26-26.21,13.07l-.88.65-.08-.19c-2.67,1.17-5.49,2-7.91,3.68l.09.39c12.4,8,29.94-2.91,40.65-10.34l.84.25,1.62-.8.38.19c-4.2,9.58-17.52,11.81-26.13,16.89l1.26.9,1.1-.5,1,.75c9.57-.13,19,3.65,28.34,3.81,1.65,1.1,4.93,1.64,8.5,1.83,1.37,1.28,3.56.87,5.48,1.08,9,2.94,20.4,5.77,26.88,13.35-.09.34-.54.46-.71.63-8.88-1.89-15.8-8.64-24.7-10.87-22.92-2.62-49.52-15.76-70.67-1.38-.65-3.69-4.52-5.55-8.08-4.62-9-1.32-18.57.55-27.58,3,6.32,11.93,9.62,24.85,16.26,36,2.85,7.68,2.93,23.11,14.48,21.55l2,1.6v1.9l-4-1.17-1.17,1.05c-5.66-1-9.58-5.88-11.61-11l-.3.14a11.1,11.1,0,0,0-2.1-5.26c-.12-3.9-.3-8-3.88-11.12-1.61,1.39,0,4-1.86,4.83A137.79,137.79,0,0,0,934,115.4c-.83-22.18-20.64,7.51-28.63,11.5,4,6.06,6,15.23,13,18.46l0-.09c4.17,2.36,9.25,1,13.6-.25l.17,1.22,2.15.56.5,3.28,1.37-.25a3.59,3.59,0,0,0,3.52,1.62c.44,1.82,2.7,1.38,3.49,3,5.24,13.72,16.32,26.79,15.79,42.55l2.53,2.25-.16.2.73.18c.49,1.84,2.66,2.79,6.54,2.89.47.5,1,1,1.52,1.61v1.23l-1.92,1.5-2.31-1.5-2,.47c-4.13-2.24-5-5-7.93-7.23-2.65-5,.57-11.06-3.52-15.2l-1.28.5-1.05-.5c-1.27-8.3-7.34-15.58-8-24.36l.32-.07c-9-4.54-19.25-4.21-28.64-7.15-4.75-1.27-7.85-5-10.86-8.62-2.75-3-7.78-4.69-7.39-9.63-7.47-1.93-3.43-14.36-5.56-20.46-7.46,7.73-8.68,22.6-20.88,25.15l-.43,1.12c.83,3.82,5.4,8,2.51,11.4,6.73,7.22,4.78,19.65,14.08,25.54-1.6,9.54,8.09,18.25,11.27,27.08,2,4.49,3.38,10.32,7.74,13.07,2.72,2.46,3.87,5.21,7.23,6.72l.14,1.15,1-.17c2.07,3.3,6.26,2,9,3.73a4,4,0,0,1,.23,2.94l.47.74-.33,1.24-.94.36-1.51-.48-1.31.4-.8-2-1.46-.73-.8.92-2.73.25a6.86,6.86,0,0,0-4.58-3c-.38-2.31-2.16-3.69-3.38-5.44l.28-.6a32.59,32.59,0,0,0-5.81-7.88l-.22.17-.1-1.14-.74-.18c.2-1.39-3-4.17-4.6-5.08l-.26-2.08-1.44-.12.51-1.68c-4.58-7.6-7.86-16.1-10.56-24.38-1.82-.28-2.5-1.75-2.85-3.21-1.14-4.25-5.38-6.67-6.33-11,.11-4.67-1.17-8.6-2.87-12.89a9,9,0,0,1-10.09-8.25c-1-.44-3.12.62-3.68,1.81,3.77,5.68-4.86,17.08-11,15.46-1.41,1.41-4.83,1.3-6.83-.32h-4.41l-.12-.67-.14.22L826.61,157l-.16.49L821.2,153c-4.57,1.67-5.09,8.4-9.37,10.92-3.69,1.78-8,3.21-11.74,5-2.61,6.56-2.49,14.93-7.87,19.73L791,193.25l-.18-.06c-2,10.5-4,21-6.08,31.63-2.6-1.32-3.12,3.23-4,4.81a37.86,37.86,0,0,0-6.23,8.13l-1.37-.25-1.43,1-1.13-1.75c-3-.25-5.4,4-8,1.85l-.21-2.3c13.82-1.1,21.43-12.89,23.42-26h-.08c1.48-6.61,2.71-13.08,4.35-19.57h-.06l.33-3.06-.06,0c-.24-1.87.6-3.51,1.3-5.32l0,0,3-8.44C784,178.57,775.72,185.76,765,190.15l-1.62-.15-.72-3-.79-.64-.07-1.35-.66-.38c-4.41-6.86-.63-13.64.38-20.34,5.84-10.08,15-19.85,27.67-18.94,3.77-4.54,8.09-7.2,14.2-6.93,2.45-6.14,9,.12,12.59,2.17l0,.07,2.39,1.54.31-.13c-.92-4.16,2.55-6.27,5.65-7.59-7.83-10.06-15.3-20.34-27-26.1-6.88,6-14.37,12.18-22.55,16.41l-.7-.55c-7.66,2.47-12,10.25-18.56,14.76l.36.3c-.93-.05-1.68.24-2.75-.46L751.8,140l-1.62-.14-.68,1.44-2-.35,0-.12a96.63,96.63,0,0,1-11.41-2.44l.89-.93c-.74-.94-1.5-.92-2.05-.56l-2-.37a5.76,5.76,0,0,1,.78-3l1.68-1.22a28,28,0,0,0,18.84,3.88c12.3-10.13,24-20.06,38.2-27.65l.16.26c2.62-1.74,5.07-3.77,8.57-4.45,14.09,9.13,23.8,26.94,39,33-1.71-8.18,2.26-14.85,8.64-19.76,8-7.47,15.73-19.34,27.09-21.25,7-9.15,19.45-11.54,30.25-10.31,6.11-17.49,27.69-16.63,43.07-16l-.34-.66C951.49,67,954.48,64.36,958.17,64.71Zm-54,51.65c5.69-5.39,13.27-8.17,19.44-12.52-4.31-1.89-11-2-12.08-7.35a19.57,19.57,0,0,0-4.61,2.33c-1.75,3.23-2.11,7.41-3.26,11C901.45,111.75,902.26,114.63,904.18,116.36Zm-76.45,33.37v.51c4.84,3,9.06,6.57,14.59,8.33.72-2.92,1.34-5.49,1.92-7.88L841,148.34h-1.77C836,143.7,831.49,148.12,827.73,149.73ZM977.87,95.35c-2.75-3.53-7.06-5.52-9.27-.34A27.86,27.86,0,0,0,977.87,95.35Z"/><path class="cls-1" d="M1063,60.07l-.21.71c15-3.31,36.13-7.9,45.19,8.26,10.41-3.09,23.1-2.9,31.57,4.9,11.52-.1,21.16,10.27,30.38,16.22,7.13,3.73,12.2,9.61,11.93,18,13.94-8.57,20.41-27.8,32.7-39.24,3.56.06,6.33,1.64,9.21,2.89l.12-.28c15.3,5,28.54,12.76,42.42,20.59A28,28,0,0,0,1284.14,85l1.86.92a5.69,5.69,0,0,1,1.3,2.86l-1.88.71c-.6-.27-1.35-.15-1.92.9l1,.77a99.62,99.62,0,0,1-10.82,4.39l0,.1-1.93.7-.92-1.3-1.57.42-1.43-.9c-.94.87-1.72.72-2.63.93l.3-.37c-7.28-3.29-12.87-10.2-20.84-11.31l-.59.67c-8.8-2.75-17.24-7.51-25.06-12.25-10.51,7.7-16.08,19.12-22,30.39,3.28.77,7.06,2.24,6.89,6.5l.32.07,2.09-1.93-.06-.06c3.23-2.65,8.55-9.95,12-4.33,6-1.33,10.69.54,15.18,4.36,12.33-3.1,23,4.93,30.54,13.85,2.16,6.42,7.07,12.45,3.91,20l-.58.49.16,1.34-.66.77-.2,3-1.56.43c-11.37-2.45-20.76-8.1-31.84-10.94l4.38,7.8,0,0c1,1.66,2.12,3.13,2.19,5l0,0,.86,3h0c2.73,6.12,5.07,12.27,7.68,18.52l-.08,0c4.23,12.58,13.78,22.87,27.58,21.55l.19,2.3c-2.23,2.54-5.36-1.19-8.23-.43l-.82,1.92-1.58-.74-1.3.49a37.59,37.59,0,0,0-7.55-6.92c-1.16-1.41-2.46-5.79-4.79-4l-11.49-30.09-.16.09-2-4.31c-6.13-3.79-7.47-12.06-11.17-18.06-4-1.14-8.5-1.79-12.44-2.91-4.66-1.74-6.34-8.28-11.12-9.13l-4.39,5.38-.24-.46-5.76,5.3-.18-.19V131l-4.34.77c-1.7,1.94-5,2.64-6.68,1.5-5.75,2.66-16.23-7.08-13.51-13.32-.76-1.08-3-1.76-3.93-1.14a9,9,0,0,1-8.51,9.87c-.93,4.52-1.51,8.62-.58,13.2-.19,4.45-3.94,7.57-4.33,12-.09,1.5-.5,3.06-2.25,3.65-1.22,8.63-3,17.56-6.16,25.84l.79,1.58-1.4.36.11,2.1c-1.47,1.18-4.08,4.46-3.65,5.79l-.7.31.11,1.14-.26-.13a32.8,32.8,0,0,0-4.35,8.77l.38.54c-.89,1.94-2.41,3.61-2.38,5.95a6.9,6.9,0,0,0-4,3.72l-2.73.23-.94-.77-1.32,1-.43,2.14-1.36-.16-1.4.73-1-.19-.54-1.17.33-.8a4.05,4.05,0,0,1-.28-2.94c2.38-2.18,6.74-1.63,8.2-5.23h1l0-1.15c3-2.07,3.7-5,6-7.88,3.81-3.46,4.12-9.44,5.35-14.21,1.6-9.26,9.63-19.51,6.4-28.63,8.14-7.41,4-19.32,9.43-27.6-3.45-2.89.34-7.76.49-11.66l-.61-1c-12.47-.4-16.25-14.83-24.93-21.15-1,6.38,5.09,17.91-1.93,21.11,1.24,4.8-3.42,7.29-5.6,10.77-2.34,4.06-4.74,8.3-9.2,10.37-8.74,4.53-18.9,6-27,12l.32,0c.83,8.76-3.89,17-3.69,25.38l-1,.68-1.34-.27c-3.31,4.78.92,10.21-.83,15.57-2.5,2.75-2.87,5.58-6.55,8.5l-2.08-.1-2,1.87-2.14-1.14-.22-1.21,1.22-1.85c3.81-.77,5.78-2.09,5.94-4l.69-.3-.2-.17,2.1-2.65c-3.26-15.43,5.38-30.23,8.16-44.65.5-1.73,2.8-1.69,2.92-3.56a3.58,3.58,0,0,0,3.18-2.2h1.39l-.07-3.32,2-.92,0-1.23c4.51.52,9.75.94,13.45-2.12l0,.08c6.36-4.39,6.76-13.78,9.6-20.43-8.57-2.53-33.23-28.33-30.2-6.35a138.66,138.66,0,0,0-2.78,28.86c-1.94-.5-.84-3.34-2.67-4.43-3,3.68-2.45,7.77-1.89,11.62a11.15,11.15,0,0,0-1.16,5.55l-.32-.09c-1.1,5.39-4.12,10.89-9.51,12.85l-1.34-.83-3.75,1.85-.33-1.87,1.63-1.92c11.65-.47,9-15.67,10.52-23.73,4.61-12.17,5.6-25.46,9.76-38.31-9.31-.87-19.09-1.06-27.69,1.81-3.66-.3-7.16,2.21-7.15,5.94-23.33-10.48-47.24,7.08-69.36,13.64-8.38,3.74-14,11.59-22.44,15-.19-.14-.66-.17-.8-.49,5.06-8.6,15.78-13.36,24.15-17.82,1.86-.54,4.08-.51,5.2-2,3.5-.8,6.63-1.91,8.06-3.27,9.19-1.79,17.8-7.14,27.25-8.68l.85-.91,1.16.3,1.09-1.1c-9.37-3.51-22.87-3.39-28.67-12.1l.35-.25,1.73.5.78-.39c11.84,5.46,31,13.12,41.83,3.13l0-.4c-2.67-1.21-5.59-1.57-8.43-2.25l0,.2-1-.49c-9.39-2.21-19.57-3.85-28.08-8.31l-1.76-.11-.3-1.7c5.54-1.12,10.25,2.18,15.7,2.33l0,.32c10.87.35,23.12,5.67,33.59.76,3.45-4.72,11.57-6.29,10.84-13.07-2.92-9.3-14.27-.32-20.44.72l-1.57-.77-3.58.94v0c-6.57,1.09-13.17,1.81-19.69,3.49l-.8-.46v.24l-4.92.87c-4,.76-8,1.31-11.81,3.13-3.66,1.14-7.44,4.23-10.17,7l-1.34-.07-.29.76c-5.48-1,4-7.23,6-8.09l0-.1,2.33-1.26,1,.33-.09-.34c6-2.82,12.51-3.16,19-4.29l0,.33c.93-.74,2-.58,2.9-.82v-.07h2.22c7-1.56,14.59-2.74,21.39-4.44,4.34-.84,8.32-1.07,12.3-2.94C1056.61,56.17,1060,58.25,1063,60.07Zm51.59,32c-1.76-3.32-2.83-7.38-5.12-10.26a19.5,19.5,0,0,0-4.94-1.49c-.15,5.49-6.71,6.73-10.63,9.33,6.84,3.21,14.79,4.64,21.33,9C1116.77,96.6,1117.07,93.63,1114.54,92.1Zm70.13,26.76-1.74.3-2.78,2.88,3.26,7.43c5.15-2.7,8.68-6.94,12.93-10.74l-.08-.51C1192.27,117.29,1187,113.73,1184.67,118.86ZM1048,88.8c-3.08-4.72-7-2-9.07,1.94A27.93,27.93,0,0,0,1048,88.8Z"/><path class="cls-3" d="M1281.61,71.92c3.58,1.38,7.07,1.33,10.91,1.79,6,1.05,12.72,1.6,18.94,2.51l1.93-.15v.06c.79.16,1.73,0,2.59.54l0-.3c5.7.58,11.42.46,16.8,2.54l0,.31.83-.36,2.12,1,0,.09c1.81.63,10.49,5.44,5.77,6.67l-.29-.64-1.17.15c-2.56-2.27-6-4.72-9.32-5.48-3.45-1.35-6.94-1.57-10.49-2l-4.35-.45V78l-.67.44c-5.79-1-11.6-1.25-17.4-1.79v0l-3.18-.59-1.32.77c-5.45-.51-15.92-7.62-17.88.67-.2,6,7,6.81,10.28,10.71,9.45,3.62,19.79-1.8,29.25-2.8l-.05-.27c4.74-.48,8.64-3.66,13.54-3l-.15,1.51-1.53.2c-7.14,4.44-15.91,6.51-24,9l-.83.48-.05-.16c-2.43.77-4.95,1.27-7.21,2.49l0,.35c10.07,8,26.3.13,36.27-5.38l.71.29,1.48-.55.32.2c-4.51,8-16.29,8.71-24.24,12.37l1,.89,1-.34.8.74c8.33.74,16.19,4.87,24.31,5.84,1.33,1.1,4.14,1.87,7.23,2.34,1.08,1.24,3,1.08,4.67,1.43,7.59,3.36,17.24,6.83,22.19,14-.1.28-.51.34-.67.48-7.55-2.43-13-8.92-20.52-11.65-19.7-4.31-41.67-18.11-61.35-7.49-.23-3.26-3.44-5.22-6.61-4.73-7.68-1.95-16.2-1.17-24.26.19,4.44,10.93,6.15,22.46,10.94,32.78,1.79,6.94.49,20.36,10.68,20l1.55,1.57-.17,1.65-3.39-1.37-1.11.8c-4.84-1.36-7.81-6-9.12-10.6l-.27.1a9.76,9.76,0,0,0-1.36-4.76c.24-3.4.45-7-2.39-10-1.52,1.07-.39,3.48-2.05,4a121,121,0,0,0-4.25-25c1.24-19.36-18.63,4.7-25.94,7.46,2.91,5.62,3.84,13.78,9.67,17.21l0-.08c3.42,2.43,7.95,1.74,11.86,1l0,1.07,1.82.68.15,2.9L1255,144a3.12,3.12,0,0,0,2.91,1.71c.23,1.63,2.23,1.45,2.78,2.93,3.34,12.4,11.81,24.75,9.95,38.41l2,2.18-.16.16.62.22c.26,1.65,2.06,2.67,5.43,3.1l1.18,1.54-.11,1.07-1.8,1.13-1.88-1.5-1.8.22c-3.4-2.31-3.9-4.76-6.25-7-1.87-4.56,1.47-9.57-1.72-13.53L1265,175l-.88-.53c-.36-7.33-5-14.2-4.83-21.9l.28,0c-7.41-4.75-16.37-5.37-24.28-8.77-4-1.53-6.38-5.07-8.68-8.47-2.12-2.89-6.34-4.77-5.57-9-6.32-2.34-1.7-12.79-3-18.29-7.17,6.07-9.55,18.89-20.39,20l-.48.93c.38,3.39,4,7.39,1.17,10.14,5.22,6.87,2.41,17.52,10,23.47-2.24,8.15,5.42,16.59,7.4,24.56,1.37,4.08,2,9.27,5.57,12,2.14,2.38,2.9,4.88,5.69,6.49l0,1,.87-.06c1.5,3.06,5.27,2.3,7.48,4a3.48,3.48,0,0,1-.06,2.58l.34.68-.39,1.05-.85.23-1.27-.55-1.17.23-.52-1.84-1.21-.77-.77.74-2.4,0a6,6,0,0,0-3.72-3c-.12-2.05-1.55-3.41-2.46-5l.3-.5a28.35,28.35,0,0,0-4.35-7.37l-.21.13,0-1-.63-.22c.29-1.19-2.2-3.88-3.56-4.82l0-1.84-1.25-.23.59-1.42a103.2,103.2,0,0,1-7-22.14c-1.56-.41-2-1.75-2.19-3-.62-3.81-4.09-6.29-4.54-10.16.52-4.05-.25-7.59-1.35-11.47a7.88,7.88,0,0,1-8-8.08c-.87-.47-2.76.27-3.36,1.25,2.78,5.28-5.75,14.43-10.93,12.48-1.35,1.1-4.32.69-5.92-.89l-3.83-.39,0-.6-.15.18-5.36-4.26-.17.42-4.17-4.41c-4.12,1-5.17,6.85-9.12,8.67-3.37,1.22-7.25,2.07-10.67,3.32-2.84,5.47-3.49,12.77-8.59,16.46l-1.5,3.89-.15-.07c-2.68,8.95-5.37,17.89-8.1,27-2.14-1.38-3,2.53-3.92,3.83a32.84,32.84,0,0,0-6.14,6.51l-1.17-.34-1.33.74-.84-1.61c-2.55-.49-5,3-7.15.89l0-2c12.12.27,19.79-9.3,22.69-20.55h-.08c1.88-5.62,3.53-11.14,5.53-16.64h0l.56-2.63,0,0c0-1.64.83-3,1.6-4.51l0,0,3.32-7.08c-9.48,3.19-17.31,8.7-27.07,11.56l-1.39-.27-.36-2.65-.63-.63,0-1.18-.54-.39c-3.22-6.35.67-11.92,2.15-17.65,6-8.25,14.8-15.94,25.75-14,3.68-3.62,7.67-5.55,13-4.76,2.68-5.13,7.78.9,10.77,3l-.05.06,1.94,1.55.28-.08c-.42-3.71,2.78-5.23,5.6-6.1-5.92-9.45-11.51-19.06-21.16-25.11-6.52,4.63-13.58,9.32-21.08,12.28l-.56-.55c-6.88,1.47-11.31,7.86-17.45,11.19l.29.3c-.81-.13-1.48.05-2.36-.65l-1.19.88-1.4-.26-.71,1.19-1.73-.49,0-.09a90,90,0,0,1-9.71-3.14l.86-.74c-.56-.88-1.22-.93-1.73-.66l-1.68-.5a4.94,4.94,0,0,1,.94-2.58l1.57-.92a24.53,24.53,0,0,0,16.05,5c11.6-7.72,22.66-15.32,35.68-20.65l.12.23c2.43-1.27,4.75-2.82,7.85-3.1,11.45,9.19,18.3,25.55,31,32.14-.77-7.27,3.28-12.72,9.26-16.43,7.66-5.77,15.41-15.42,25.46-16.07,6.89-7.34,18-8.31,27.23-6.28,6.86-14.67,25.56-12,38.88-10.08l-.23-.6C1275.6,73.33,1278.43,71.3,1281.61,71.92Zm-51.56,40.13c5.43-4.18,12.27-5.93,18-9.16-3.58-2-9.38-2.69-9.86-7.47A17.32,17.32,0,0,0,1234,97c-1.8,2.65-2.49,6.26-3.8,9.27C1228.09,107.8,1228.53,110.38,1230.05,112.05Zm-69.46,22.23,0,.45c3.94,3,7.3,6.52,12,8.54.88-2.48,1.65-4.66,2.36-6.68l-2.6-2.34-1.53-.15C1168.35,129.78,1164,133.22,1160.59,134.28Zm135.43-34c-2.08-3.31-5.65-5.42-8-1.12A24,24,0,0,0,1296,100.32Z"/><path class="cls-3" d="M1004.46,105.7l-.25.59c13.37-1.54,32.13-3.66,38.57,11.2,9.34-1.76,20.36-.46,27,7.08,10,.94,17.49,10.81,25,16.81,5.87,3.87,9.76,9.44,8.79,16.68,12.89-6.21,20.22-22.36,31.93-31.22,3.09.37,5.36,2,7.75,3.33l.13-.23c12.86,5.71,23.7,13.63,35.07,21.68a24.46,24.46,0,0,0,16.18-4.58l1.54,1a4.86,4.86,0,0,1,.87,2.6l-1.69.45c-.5-.28-1.17-.25-1.75.62l.83.76a87.57,87.57,0,0,1-9.8,2.85l0,.1-1.75.43-.68-1.21-1.41.23-1.15-.92a3.77,3.77,0,0,1-2.38.58l.3-.29c-6-3.51-10.29-10-17.12-11.69l-.58.53c-7.41-3.18-14.33-8.07-20.71-12.89-9.83,5.77-15.69,15.21-21.88,24.48,2.79,1,6,2.57,5.41,6.26l.28.09,2-1.49,0-.06c3-2,8.32-7.89,10.85-2.69,5.31-.63,9.25,1.42,12.82,5.14,11-1.6,19.6,6.34,25.33,14.76,1.31,5.78,5,11.46,1.63,17.71l-.55.38,0,1.18-.64.61-.45,2.63-1.4.24c-9.67-3.15-17.33-8.89-26.72-12.35l3.12,7.17,0,0c.72,1.53,1.56,2.91,1.46,4.55l0,0,.48,2.65h0c1.84,5.56,3.33,11.12,5,16.79h-.08c2.57,11.33,10,21.12,22.08,21.2l0,2c-2.17,2-4.56-1.51-7.13-1.1l-.88,1.59-1.31-.78-1.18.31a32.71,32.71,0,0,0-6-6.69c-.88-1.33-1.63-5.26-3.81-3.94-2.46-9.16-4.89-18.18-7.31-27.2l-.15.07-1.39-3.93c-5-3.84-5.42-11.15-8.11-16.7-3.37-1.35-7.23-2.32-10.56-3.64-3.89-1.93-4.77-7.76-8.86-8.93l-4.3,4.29-.16-.42-5.48,4.09-.14-.18-.06.6-3.84.28c-1.65,1.53-4.63,1.85-6,.71-5.23,1.81-13.49-7.59-10.56-12.78-.57-1-2.44-1.8-3.32-1.35a7.89,7.89,0,0,1-8.28,7.84c-1.21,3.84-2.08,7.36-1.68,11.42-.55,3.86-4.09,6.24-4.83,10-.21,1.3-.7,2.62-2.28,3a103,103,0,0,1-7.65,21.93l.55,1.44-1.25.19-.1,1.84c-1.38.89-3.94,3.52-3.69,4.71l-.63.2v1l-.21-.14a28.92,28.92,0,0,0-4.57,7.25l.29.5c-1,1.6-2.42,2.92-2.61,5a6,6,0,0,0-3.8,2.88l-2.4,0-.75-.76-1.23.73-.57,1.83-1.16-.27-1.29.52-.84-.26-.37-1.06.36-.67a3.54,3.54,0,0,1,0-2.58c2.26-1.68,6-.82,7.6-3.83l.86.08.06-1c2.83-1.53,3.66-4,5.87-6.32,3.63-2.68,4.43-7.85,5.92-11.89,2.21-7.91,10.11-16.12,8.11-24.33,7.74-5.73,5.24-16.45,10.66-23.17-2.74-2.83,1-6.72,1.46-10.1l-.44-1c-10.81-1.45-12.82-14.34-19.81-20.61-1.47,5.46,2.84,16-3.55,18.2.65,4.28-3.63,6-5.83,8.86-2.4,3.33-4.86,6.8-8.92,8.21-8,3.16-17,3.53-24.53,8.06l.29,0c-.07,7.69-4.9,14.43-5.48,21.75l-.88.51-1.15-.36c-3.31,3.87-.11,9-2.11,13.48-2.41,2.16-3,4.59-6.45,6.8l-1.8-.27-1.92,1.45-1.77-1.18-.07-1.08,1.22-1.5c3.38-.33,5.21-1.3,5.52-2.94l.62-.2-.15-.16,2.06-2.13c-1.46-13.7,7.37-25.81,11.07-38.1.59-1.46,2.58-1.23,2.86-2.85a3.11,3.11,0,0,0,3-1.62l1.21.12.23-2.89,1.84-.63.07-1.07c3.87.85,8.39,1.68,11.88-.65l0,.08c5.93-3.26,7.1-11.39,10.17-16.92-7.23-3-26.39-27.6-25.71-8.22a121.33,121.33,0,0,0-5,24.86c-1.65-.6-.44-3-1.93-4.08-2.92,2.93-2.82,6.53-2.68,9.93a9.77,9.77,0,0,0-1.5,4.73l-.27-.11c-1.44,4.59-4.55,9.11-9.42,10.33l-1.09-.84L995.06,191l-.13-1.66,1.6-1.52c10.17.63,9.26-12.83,11.26-19.71,5.08-10.18,7.13-21.65,11.89-32.45-8-1.59-16.51-2.62-24.24-.89-3.16-.59-6.43,1.28-6.76,4.53-19.36-11.19-41.72,2-61.54,5.7-7.62,2.5-13.23,8.84-20.85,11-.15-.14-.56-.2-.65-.49,5.16-7,14.91-10.22,22.59-13.36,1.66-.3,3.59-.08,4.7-1.29,3.11-.39,5.94-1.07,7.3-2.13,8.15-.74,16.12-4.63,24.47-5.13l.82-.71,1,.36,1-.86c-7.84-3.88-19.6-5-23.87-13.07l.33-.19,1.46.59.71-.27C956,125.33,972,133.7,982.3,126l.06-.34a40.21,40.21,0,0,0-7.14-2.71l-.06.16-.81-.5c-8-2.77-16.68-5.09-23.68-9.74l-1.52-.25-.11-1.5c4.91-.48,8.71,2.81,13.45,3.43l-.07.27c9.43,1.27,19.61,7,29.15,3.64,3.42-3.79,10.62-4.44,10.59-10.4-1.71-8.35-12.38-1.55-17.84-1.19L983,106l-3.2.5v0c-5.81.37-11.62.4-17.44,1.28l-.66-.46v.21l-4.36.31c-3.56.31-7.05.43-10.54,1.68-3.3.66-6.86,3-9.48,5.2l-1.16-.18-.31.63c-4.68-1.36,4.13-5.92,6-6.49l0-.09,2.14-.9.82.38,0-.3c5.45-1.93,11.16-1.64,16.87-2l0,.29c.88-.56,1.81-.32,2.6-.45v-.07l1.93.21c6.24-.73,12.94-1.09,19-2,3.86-.34,7.34-.19,11-1.47C999.29,101.74,1002.06,103.85,1004.46,105.7Zm42,32.44c-1.23-3-1.81-6.67-3.53-9.37a17.25,17.25,0,0,0-4.17-1.74c-.62,4.76-6.44,5.25-10.08,7.17,5.67,3.4,12.45,5.35,17.76,9.69C1048,142.26,1048.55,139.7,1046.48,138.14Zm58.63,29.51-1.54.11L1100.9,170c.66,2,1.36,4.25,2.17,6.75,4.72-1.89,8.17-5.27,12.2-8.19l0-.45C1111.86,167,1107.62,163.4,1105.11,167.65ZM988.92,129.36c-2.25-4.38-5.89-2.37-8.06.88A24,24,0,0,0,988.92,129.36Z"/><path class="cls-1" d="M1315.17,77.71c4.24,1.15,8.2.69,12.62.76,7,.49,14.66.34,21.84.66l2.19-.4v.07c.91.09,2-.26,3,.31v-.34c6.54,0,13-.8,19.41.94l0,.35.91-.5,2.51.84v.1c2.14.5,12.57,5,7.35,6.92l-.41-.7-1.31.3c-3.17-2.27-7.43-4.66-11.24-5.14-4.08-1.13-8.09-1-12.17-1h-5l0-.23-.72.58c-6.71-.52-13.34-.07-20,0v0l-3.68-.3-1.42,1c-6.26,0-19-6.83-20.26,2.84.46,6.8,8.74,6.94,13,11,11.16,3,22.3-4.34,32.95-6.58l-.1-.3c5.35-1.1,9.41-5.16,15.06-5v1.73l-1.72.41c-7.6,5.88-17.35,9.26-26.21,13.07l-.88.65-.08-.19c-2.67,1.17-5.49,2-7.91,3.68l.09.39c12.4,8,29.94-2.91,40.65-10.34l.84.25,1.62-.8.38.19c-4.2,9.58-17.52,11.81-26.13,16.89l1.26.9,1.1-.5,1,.75c9.57-.13,19,3.65,28.34,3.81,1.65,1.1,4.93,1.64,8.5,1.83,1.37,1.28,3.56.87,5.48,1.08,9,2.94,20.4,5.77,26.88,13.35-.09.34-.54.46-.71.63-8.88-1.89-15.8-8.64-24.7-10.87-22.92-2.62-49.52-15.76-70.67-1.38-.65-3.69-4.52-5.55-8.08-4.62-9-1.32-18.57.55-27.58,3,6.32,11.93,9.62,24.85,16.26,36,2.85,7.68,2.93,23.11,14.48,21.55l2,1.6v1.9l-4-1.17-1.17,1.05c-5.66-1-9.58-5.88-11.61-11l-.3.14a11.1,11.1,0,0,0-2.1-5.26c-.12-3.9-.3-8-3.88-11.12-1.61,1.39,0,4-1.86,4.83A137.79,137.79,0,0,0,1291,128.4c-.83-22.18-20.64,7.51-28.63,11.5,3.95,6.06,6,15.23,13,18.46l0-.09c4.17,2.36,9.25,1,13.6-.25l.17,1.22,2.15.56.5,3.28,1.37-.25a3.59,3.59,0,0,0,3.52,1.62c.44,1.82,2.7,1.38,3.49,3,5.24,13.72,16.32,26.79,15.79,42.55l2.53,2.25-.16.2.73.18c.49,1.84,2.66,2.79,6.54,2.89.47.5.95,1,1.52,1.61v1.23l-1.92,1.5-2.31-1.5-2,.47c-4.13-2.24-5-5-7.93-7.23-2.65-5,.57-11.06-3.52-15.2l-1.28.5-1-.5c-1.27-8.3-7.34-15.58-8.05-24.36l.32-.07c-9-4.54-19.25-4.21-28.64-7.15-4.75-1.27-7.85-5-10.86-8.62-2.75-3-7.78-4.69-7.39-9.63-7.47-1.93-3.43-14.36-5.56-20.46-7.46,7.73-8.68,22.6-20.88,25.15l-.43,1.12c.83,3.82,5.4,8,2.51,11.4,6.73,7.22,4.78,19.65,14.08,25.54-1.6,9.54,8.09,18.25,11.27,27.08,2,4.49,3.38,10.32,7.74,13.07,2.72,2.46,3.87,5.21,7.23,6.72l.14,1.15,1-.17c2.07,3.3,6.26,2,9,3.73a4,4,0,0,1,.23,2.94l.47.74-.33,1.24-.94.36-1.51-.48-1.31.4-.8-2-1.46-.73-.8.92-2.73.25a6.86,6.86,0,0,0-4.58-3c-.38-2.31-2.16-3.69-3.38-5.44l.28-.6a32.59,32.59,0,0,0-5.81-7.88l-.22.17-.1-1.14-.74-.18c.2-1.39-2.95-4.17-4.6-5.08l-.26-2.08-1.44-.12.51-1.68c-4.58-7.6-7.86-16.1-10.56-24.38-1.82-.28-2.5-1.75-2.85-3.21-1.14-4.25-5.38-6.67-6.33-11,.11-4.67-1.17-8.6-2.87-12.89a9,9,0,0,1-10.09-8.25c-1-.44-3.12.62-3.68,1.81,3.77,5.68-4.86,17.08-11,15.46-1.41,1.41-4.83,1.3-6.83-.32h-4.41l-.12-.67-.14.22-6.59-4.22-.16.49L1178.2,166c-4.57,1.67-5.09,8.4-9.37,10.92-3.69,1.78-8,3.21-11.74,5-2.61,6.56-2.49,14.93-7.87,19.73l-1.25,4.59-.18-.06c-2,10.5-4,21-6.08,31.63-2.6-1.32-3.12,3.23-4,4.81a37.86,37.86,0,0,0-6.23,8.13l-1.37-.25-1.43,1-1.13-1.75c-3-.25-5.4,4-8,1.85l-.21-2.3c13.82-1.1,21.43-12.89,23.42-26h-.08c1.48-6.61,2.71-13.08,4.35-19.57h-.06l.33-3.06-.06,0c-.24-1.87.6-3.51,1.3-5.32l0,0,3-8.44c-10.42,4.73-18.68,11.92-29.45,16.31l-1.62-.15-.72-3-.79-.64-.07-1.35-.66-.38c-4.41-6.86-.63-13.64.38-20.34,5.84-10.08,15-19.85,27.67-18.94,3.77-4.54,8.09-7.2,14.2-6.93,2.45-6.14,9,.12,12.59,2.17l0,.07,2.39,1.54.31-.13c-.92-4.16,2.55-6.27,5.65-7.59-7.83-10.06-15.3-20.34-27-26.1-6.88,6-14.37,12.18-22.55,16.41l-.7-.55c-7.66,2.47-12,10.25-18.56,14.76l.36.3c-.93-.05-1.68.24-2.75-.46L1108.8,153l-1.62-.14-.68,1.44-2-.35,0-.12a96.63,96.63,0,0,1-11.41-2.44l.89-.93c-.74-.94-1.5-.92-2-.56l-2-.37a5.76,5.76,0,0,1,.78-3l1.68-1.22a28,28,0,0,0,18.84,3.88c12.3-10.13,24-20.06,38.2-27.65l.16.26c2.62-1.74,5.07-3.77,8.57-4.45,14.09,9.13,23.8,26.94,39,33-1.71-8.18,2.26-14.85,8.64-19.76,8-7.47,15.73-19.34,27.09-21.25,7-9.15,19.45-11.54,30.25-10.31,6.11-17.49,27.69-16.63,43.07-16l-.34-.66C1308.49,80,1311.48,77.36,1315.17,77.71Zm-54,51.65c5.69-5.39,13.27-8.17,19.44-12.52-4.31-1.89-11-2-12.08-7.35a19.57,19.57,0,0,0-4.61,2.33c-1.75,3.23-2.11,7.41-3.26,11C1258.45,124.75,1259.26,127.63,1261.18,129.36Zm-76.45,33.37v.51c4.84,3,9.06,6.57,14.59,8.33.72-2.92,1.34-5.49,1.92-7.88l-3.23-2.35h-1.77C1193,156.7,1188.49,161.12,1184.73,162.73Zm150.14-54.38c-2.75-3.53-7.06-5.52-9.27-.34A27.86,27.86,0,0,0,1334.87,108.35Z"/><path class="cls-1" d="M1325.62,25.07l-.38.63c15.39.45,37,1.13,41.82,19,10.86-.46,23.12,2.82,29.44,12.45,11.19,2.7,18,15.1,25.51,23.12,6,5.35,9.5,12.28,7.21,20.33,15.61-4.93,26.55-22,41.26-30.11,3.44.93,5.74,3.13,8.23,5l.18-.23c13.62,8.57,24.59,19.31,36.14,30.29a28,28,0,0,0,19.06-2.53l1.59,1.34a5.62,5.62,0,0,1,.56,3.09l-2,.24c-.52-.41-1.28-.48-2.08.4l.81,1a99,99,0,0,1-11.55,1.62l0,.12-2,.2-.58-1.48-1.63,0-1.16-1.23c-1.12.62-1.85.28-2.78.26l.38-.28c-6.26-5-10-13-17.46-16l-.74.5c-7.86-4.81-14.89-11.49-21.32-18-12.07,4.91-20.25,14.63-28.78,24.11,3,1.54,6.3,3.89,5.09,8l.31.15,2.49-1.37,0-.07c3.77-1.79,10.71-7.56,12.72-1.27,6.11.17,10.23,3.13,13.66,7.92,12.72,0,21.15,10.39,26.25,20.87.54,6.75,3.83,13.79-1.06,20.31l-.68.33-.17,1.34-.83.58-.94,2.91-1.62,0c-10.43-5.14-18.16-12.9-28.22-18.36l2.36,8.63,0,0c.56,1.85,1.29,3.55.91,5.39l-.06,0,.11,3.07h-.06c1.17,6.59,1.94,13.13,3,19.83h-.08c1,13.24,7.8,25.54,21.5,27.61l-.36,2.29c-2.79,1.92-4.91-2.46-7.89-2.42l-1.26,1.66-1.35-1.1-1.38.15A38.18,38.18,0,0,0,1482,197c-.78-1.64-1-6.21-3.67-5.08-1.28-10.76-2.55-21.37-3.81-32l-.19.05-.92-4.68c-5-5.16-4.31-13.51-6.44-20.23-3.6-2.08-7.8-3.8-11.36-5.85-4.09-2.82-4.13-9.57-8.56-11.56l-5.57,4.15-.12-.5L1434.5,125l-.13-.23-.16.67-4.4-.31c-2.11,1.47-5.53,1.34-6.84-.17-6.22,1.18-14-10.81-9.86-16.2-.48-1.23-2.46-2.43-3.54-2.07a9,9,0,0,1-10.65,7.51c-2,4.15-3.56,8-3.78,12.65-1.26,4.28-5.66,6.39-7.11,10.56-.45,1.42-1.22,2.84-3.07,3-3.27,8.07-7.15,16.31-12.26,23.57l.39,1.72h-1.45l-.4,2.06c-1.72.79-5,3.34-5,4.73l-.75.13-.17,1.13-.22-.19a32.83,32.83,0,0,0-6.35,7.45l.24.62c-1.34,1.66-3.22,2.91-3.76,5.19a6.87,6.87,0,0,0-4.78,2.63l-2.71-.44-.73-1-1.51.62-.94,2-1.28-.49-1.53.37-.92-.42-.24-1.27.52-.7a4,4,0,0,1,.44-2.92c2.84-1.53,6.93.07,9.23-3.08l1,.23.23-1.13c3.46-1.26,4.8-3.92,7.69-6.19,4.54-2.43,6.29-8.15,8.65-12.48,3.8-8.59,14.08-16.58,13.17-26.21,9.69-5.21,8.63-17.76,15.86-24.47-2.64-3.65,2.22-7.45,3.31-11.2l-.35-1.14c-12-3.42-12.15-18.33-19-26.57-2.57,5.92.58,18.61-7,20,0,5-5.09,6.24-8,9.08-3.26,3.38-6.61,6.9-11.44,7.83-9.58,2.27-19.8,1.21-29.08,5.1l.31.09c-1.33,8.7-7.91,15.53-9.76,23.72l-1.09.43-1.24-.59c-4.37,3.83-1.59,10.13-4.59,14.9-3.09,2.06-4.15,4.72-8.42,6.65l-2-.6-2.41,1.32-1.8-1.63.09-1.22,1.63-1.5c3.88.18,6.11-.62,6.73-2.42l.74-.13-.15-.21,2.68-2.07c.59-15.75,12.58-28,18.78-41.31.9-1.56,3.12-1,3.7-2.75a3.58,3.58,0,0,0,3.62-1.36l1.35.34.74-3.23,2.18-.41.25-1.21c4.25,1.61,9.23,3.29,13.56,1.22v.09c7.24-2.71,9.9-11.72,14.28-17.48-7.69-4.55-25.34-35.57-27.75-13.51a138.12,138.12,0,0,0-9.71,27.32c-1.77-1,0-3.45-1.51-5-3.79,2.84-4.27,6.94-4.67,10.81a11.12,11.12,0,0,0-2.47,5.1l-.29-.16c-2.38,5-6.64,9.56-12.35,10.14l-1.1-1.12-4.09.88.14-1.9,2.05-1.46c11.41,2.38,12.59-13,16-20.46,7.43-10.68,11.63-23.33,18.79-34.78-8.81-3.11-18.26-5.67-27.3-5-3.48-1.17-7.48.4-8.38,4-20.08-15.84-47.55-4.63-70.59-3.64-9,1.58-16.42,7.83-25.41,9.08-.16-.19-.6-.33-.66-.68,7-7.1,18.55-9.11,27.76-11.41,1.93-.06,4.08.5,5.54-.68,3.58.07,6.89-.24,8.61-1.22,9.34.5,19-2.6,28.54-1.79l1-.67,1.06.57,1.33-.8c-8.24-5.69-21.37-8.85-24.87-18.71l.4-.16,1.55.91.85-.19c10.16,8.17,26.89,20.27,39.81,13.21l.13-.38c-2.31-1.83-5-2.89-7.64-4.24l-.09.18-.83-.71c-8.57-4.43-18-8.49-25.21-14.9l-1.69-.53.13-1.72c5.64.26,9.4,4.61,14.66,6.08l-.12.3c10.46,3,21,11.13,32.4,8.91,4.49-3.74,12.75-3.29,13.69-10-.57-9.73-13.76-3.78-20-4.27l-1.34-1.13-3.7,0v0c-6.64-.53-13.22-1.45-19.95-1.4l-.67-.64,0,.24-5-.36c-4.08-.24-8.06-.67-12.22.17-3.83.21-8.25,2.28-11.58,4.33l-1.28-.4-.46.67c-5.07-2.31,5.65-6,7.82-6.38v-.1l2.57-.66.87.57v-.35c6.48-1.29,12.9,0,19.43.44l0,.34c1.09-.49,2.11-.07,3-.09v-.08l2.15.55c7.19.2,14.82.9,21.83.9,4.42.24,8.33,1,12.65.14C1320.42,19.74,1323.21,22.58,1325.62,25.07Zm42.24,43.61c-.89-3.65-.95-7.84-2.46-11.19a19.49,19.49,0,0,0-4.43-2.65c-1.49,5.29-8.15,4.89-12.58,6.47,5.85,4.78,13.21,8.09,18.5,13.87C1368.93,73.6,1369.94,70.78,1367.86,68.68Zm61.52,43-1.76-.13-3.4,2.12c.41,2.42.85,5,1.36,8,5.64-1.37,10.11-4.63,15.15-7.27l0-.52C1437.13,112,1432.91,107.3,1429.38,111.7ZM1304.16,49.3c-1.84-5.32-6.28-3.65-9.28-.32A28,28,0,0,0,1304.16,49.3Z"/><path class="cls-1" d="M1480.17,62.71c4.24,1.15,8.2.69,12.62.76,7,.49,14.66.34,21.84.66l2.19-.4v.07c.91.09,2-.26,3,.31v-.34c6.54,0,13-.8,19.41.94l0,.35.91-.5,2.51.84v.1c2.14.5,12.57,5,7.35,6.92l-.41-.7-1.31.3c-3.17-2.27-7.43-4.66-11.24-5.14-4.08-1.13-8.09-1-12.17-1h-5l0-.23-.72.58c-6.71-.52-13.34-.07-20,0v0l-3.68-.3-1.42,1c-6.26,0-19-6.83-20.26,2.84.46,6.8,8.74,6.94,13,11,11.16,3,22.3-4.34,32.95-6.58l-.1-.3c5.35-1.1,9.41-5.16,15.06-5v1.73l-1.72.41c-7.6,5.88-17.35,9.26-26.21,13.07l-.88.65-.08-.19c-2.67,1.17-5.49,2-7.91,3.68l.09.39c12.4,8,29.94-2.91,40.65-10.34l.84.25,1.62-.8.38.19c-4.2,9.58-17.52,11.81-26.13,16.89l1.26.9,1.1-.5,1,.75c9.57-.13,19,3.65,28.34,3.81,1.65,1.1,4.93,1.64,8.5,1.83,1.37,1.28,3.56.87,5.48,1.08,9,2.94,20.4,5.77,26.88,13.35-.09.34-.54.46-.71.63-8.88-1.89-15.8-8.64-24.7-10.87-22.92-2.62-49.52-15.76-70.67-1.38-.65-3.69-4.52-5.55-8.08-4.62-9-1.32-18.57.55-27.58,3,6.32,11.93,9.62,24.85,16.26,36,2.85,7.68,2.93,23.11,14.48,21.55l2,1.6v1.9l-4-1.17-1.17,1.05c-5.66-1-9.58-5.88-11.61-11l-.3.14a11.1,11.1,0,0,0-2.1-5.26c-.12-3.9-.3-8-3.88-11.12-1.61,1.39,0,4-1.86,4.83A137.79,137.79,0,0,0,1456,113.4c-.83-22.18-20.64,7.51-28.63,11.5,3.95,6.06,6,15.23,13,18.46l0-.09c4.17,2.36,9.25,1,13.6-.25l.17,1.22,2.15.56.5,3.28,1.37-.25a3.59,3.59,0,0,0,3.52,1.62c.44,1.82,2.7,1.38,3.49,3,5.24,13.72,16.32,26.79,15.79,42.55l2.53,2.25-.16.2.73.18c.49,1.84,2.66,2.79,6.54,2.89.47.5.95,1,1.52,1.61v1.23l-1.92,1.5-2.31-1.5-2,.47c-4.13-2.24-5-5-7.93-7.23-2.65-5,.57-11.06-3.52-15.2l-1.28.5-1-.5c-1.27-8.3-7.34-15.58-8.05-24.36l.32-.07c-9-4.54-19.25-4.21-28.64-7.15-4.75-1.27-7.85-5-10.86-8.62-2.75-3-7.78-4.69-7.39-9.63-7.47-1.93-3.43-14.36-5.56-20.46-7.46,7.73-8.68,22.6-20.88,25.15l-.43,1.12c.83,3.82,5.4,8,2.51,11.4,6.73,7.22,4.78,19.65,14.08,25.54-1.6,9.54,8.09,18.25,11.27,27.08,2,4.49,3.38,10.32,7.74,13.07,2.72,2.46,3.87,5.21,7.23,6.72l.14,1.15,1-.17c2.07,3.3,6.26,2,9,3.73a4,4,0,0,1,.23,2.94l.47.74-.33,1.24-.94.36-1.51-.48-1.31.4-.8-2-1.46-.73-.8.92-2.73.25a6.86,6.86,0,0,0-4.58-3c-.38-2.31-2.16-3.69-3.38-5.44l.28-.6a32.59,32.59,0,0,0-5.81-7.88l-.22.17-.1-1.14-.74-.18c.2-1.39-2.95-4.17-4.6-5.08l-.26-2.08-1.44-.12.51-1.68c-4.58-7.6-7.86-16.1-10.56-24.38-1.82-.28-2.5-1.75-2.85-3.21-1.14-4.25-5.38-6.67-6.33-11,.11-4.67-1.17-8.6-2.87-12.89a9,9,0,0,1-10.09-8.25c-1-.44-3.12.62-3.68,1.81,3.77,5.68-4.86,17.08-11,15.46-1.41,1.41-4.83,1.3-6.83-.32h-4.41l-.12-.67-.14.22-6.59-4.22-.16.49L1343.2,151c-4.57,1.67-5.09,8.4-9.37,10.92-3.69,1.78-8,3.21-11.74,5-2.61,6.56-2.49,14.93-7.87,19.73l-1.25,4.59-.18-.06c-2,10.5-4,21-6.08,31.63-2.6-1.32-3.12,3.23-4,4.81a37.86,37.86,0,0,0-6.23,8.13l-1.37-.25-1.43,1-1.13-1.75c-3-.25-5.4,4-8,1.85l-.21-2.3c13.82-1.1,21.43-12.89,23.42-26h-.08c1.48-6.61,2.71-13.08,4.35-19.57h-.06l.33-3.06-.06,0c-.24-1.87.6-3.51,1.3-5.32l0,0,3-8.44c-10.42,4.73-18.68,11.92-29.45,16.31l-1.62-.15-.72-3-.79-.64-.07-1.35-.66-.38c-4.41-6.86-.63-13.64.38-20.34,5.84-10.08,15-19.85,27.67-18.94,3.77-4.54,8.09-7.2,14.2-6.93,2.45-6.14,9,.12,12.59,2.17l0,.07,2.39,1.54.31-.13c-.92-4.16,2.55-6.27,5.65-7.59-7.83-10.06-15.3-20.34-27-26.1-6.88,6-14.37,12.18-22.55,16.41l-.7-.55c-7.66,2.47-12,10.25-18.56,14.76l.36.3c-.93-.05-1.68.24-2.75-.46L1273.8,138l-1.62-.14-.68,1.44-2-.35,0-.12a96.63,96.63,0,0,1-11.41-2.44l.89-.93c-.74-.94-1.5-.92-2-.56l-2-.37a5.76,5.76,0,0,1,.78-3l1.68-1.22a28,28,0,0,0,18.84,3.88c12.3-10.13,24-20.06,38.2-27.65l.16.26c2.62-1.74,5.07-3.77,8.57-4.45,14.09,9.13,23.8,26.94,39,33-1.71-8.18,2.26-14.85,8.64-19.76,8-7.47,15.73-19.34,27.09-21.25,7-9.15,19.45-11.54,30.25-10.31,6.11-17.49,27.69-16.63,43.07-16l-.34-.66C1473.49,65,1476.48,62.36,1480.17,62.71Zm-54,51.65c5.69-5.39,13.27-8.17,19.44-12.52-4.31-1.89-11-2-12.08-7.35a19.57,19.57,0,0,0-4.61,2.33c-1.75,3.23-2.11,7.41-3.26,11C1423.45,109.75,1424.26,112.63,1426.18,114.36Zm-76.45,33.37v.51c4.84,3,9.06,6.57,14.59,8.33.72-2.92,1.34-5.49,1.92-7.88l-3.23-2.35h-1.77C1358,141.7,1353.49,146.12,1349.73,147.73Zm150.14-54.38c-2.75-3.53-7.06-5.52-9.27-.34A27.86,27.86,0,0,0,1499.87,93.35Z"/><path class="cls-1" d="M1470.2,22.08l-.22.71c15-3.31,36.14-7.9,45.19,8.26,10.42-3.09,23.11-2.9,31.58,4.91,11.52-.1,21.16,10.26,30.37,16.21,7.13,3.73,12.2,9.61,11.94,18,13.94-8.57,20.4-27.8,32.69-39.24,3.56.06,6.33,1.64,9.21,2.89l.12-.28c15.3,5,28.55,12.76,42.42,20.59A28,28,0,0,0,1691.38,47l1.87.92a5.67,5.67,0,0,1,1.29,2.86l-1.88.71c-.6-.26-1.35-.15-1.91.9l1,.77A100.29,100.29,0,0,1,1681,57.56l0,.1-1.93.7-.91-1.29-1.58.41-1.42-.9c-.94.87-1.73.72-2.64.93l.3-.37c-7.28-3.29-12.86-10.2-20.83-11.3l-.6.66c-8.79-2.75-17.24-7.51-25.06-12.25-10.51,7.7-16.08,19.12-22,30.39,3.28.77,7.06,2.24,6.88,6.5l.33.07,2.08-1.93,0-.06c3.23-2.65,8.55-9.94,12-4.32,6-1.34,10.68.53,15.18,4.35,12.33-3.1,23,4.94,30.54,13.85,2.16,6.42,7.06,12.45,3.91,20l-.58.49.16,1.34-.67.77-.2,3-1.56.43c-11.37-2.45-20.75-8.09-31.84-10.94l4.39,7.8,0,0c1,1.66,2.12,3.13,2.2,5l0,0,.86,3-.06,0c2.74,6.11,5.08,12.26,7.68,18.51l-.08,0c4.24,12.58,13.78,22.87,27.58,21.55l.2,2.3c-2.23,2.54-5.36-1.19-8.24-.42l-.81,1.91-1.59-.74-1.3.49a37.89,37.89,0,0,0-7.55-6.92c-1.15-1.41-2.46-5.79-4.79-4-3.86-10.13-7.67-20.11-11.48-30.09l-.17.09-2-4.31c-6.13-3.79-7.47-12.06-11.17-18.06-4-1.14-8.49-1.79-12.44-2.91-4.65-1.74-6.33-8.28-11.12-9.13l-4.39,5.38-.23-.46c-2,1.81-3.87,3.55-5.76,5.3l-.18-.19V93l-4.34.77c-1.69,1.94-5,2.64-6.68,1.5-5.75,2.66-16.23-7.07-13.5-13.32-.76-1.07-3-1.75-3.94-1.14a9,9,0,0,1-8.5,9.87c-.93,4.52-1.52,8.62-.59,13.2-.18,4.45-3.93,7.57-4.32,12-.1,1.5-.5,3.06-2.25,3.65-1.22,8.63-3,17.57-6.17,25.85l.8,1.57-1.4.36.11,2.1c-1.47,1.18-4.09,4.46-3.66,5.8l-.69.3.1,1.15-.25-.14a32.8,32.8,0,0,0-4.35,8.77l.38.55c-.9,1.93-2.42,3.6-2.39,5.94a6.88,6.88,0,0,0-4,3.72l-2.74.23-.94-.77-1.31,1-.44,2.14-1.35-.16-1.4.73-1-.19-.53-1.17.33-.8a4,4,0,0,1-.28-2.94c2.38-2.18,6.73-1.62,8.2-5.23h1l-.06-1.15c3-2.07,3.71-5,6-7.88,3.81-3.46,4.12-9.44,5.35-14.21,1.59-9.26,9.62-19.51,6.4-28.63,8.13-7.41,4-19.32,9.43-27.6-3.45-2.89.34-7.75.49-11.66l-.62-1c-12.46-.4-16.25-14.83-24.93-21.15-1,6.38,5.1,17.92-1.92,21.11,1.24,4.8-3.43,7.3-5.6,10.77-2.35,4.07-4.74,8.3-9.2,10.37-8.74,4.54-18.91,6-27,12l.33,0c.82,8.76-3.89,17-3.7,25.38l-1,.68-1.35-.27c-3.31,4.78.92,10.21-.83,15.58-2.49,2.74-2.87,5.57-6.55,8.49L1477,159l-2,1.87-2.15-1.14-.21-1.21,1.22-1.85c3.8-.77,5.77-2.09,5.93-4l.69-.3-.19-.17,2.09-2.65c-3.25-15.43,5.39-30.23,8.17-44.65.5-1.73,2.79-1.69,2.92-3.56a3.59,3.59,0,0,0,3.18-2.2h1.39l-.07-3.31,2-.93,0-1.23c4.51.52,9.74.94,13.44-2.12l0,.09c6.36-4.4,6.75-13.78,9.59-20.44-8.56-2.53-33.22-28.33-30.2-6.35a138.65,138.65,0,0,0-2.77,28.86c-2-.5-.85-3.34-2.67-4.43-3,3.68-2.46,7.77-1.89,11.62a11,11,0,0,0-1.16,5.55l-.32-.09c-1.11,5.39-4.12,10.89-9.52,12.85l-1.34-.83-3.75,1.85-.33-1.87,1.64-1.92c11.65-.46,9-15.67,10.51-23.73,4.61-12.17,5.61-25.46,9.76-38.31-9.3-.87-19.08-1-27.68,1.81-3.67-.3-7.16,2.21-7.16,6-23.33-10.49-47.24,7.07-69.35,13.63-8.39,3.74-14,11.59-22.44,15-.2-.14-.66-.17-.81-.49,5.06-8.6,15.78-13.35,24.15-17.82,1.86-.54,4.09-.51,5.21-2,3.49-.8,6.63-1.91,8-3.27,9.19-1.78,17.81-7.14,27.25-8.68l.85-.91,1.17.3,1.09-1.1c-9.37-3.51-22.88-3.39-28.67-12.09l.34-.26,1.74.51.78-.39c11.83,5.46,31,13.11,41.82,3.12l0-.4c-2.68-1.21-5.6-1.57-8.44-2.24l0,.19-1-.49c-9.39-2.21-19.58-3.84-28.08-8.31l-1.76-.11-.3-1.7c5.53-1.12,10.24,2.18,15.7,2.33l0,.32c10.87.36,23.12,5.67,33.59.76,3.44-4.72,11.57-6.29,10.84-13.07-2.93-9.3-14.27-.32-20.44.72l-1.58-.77-3.58.94v0c-6.57,1.1-13.18,1.81-19.7,3.49l-.8-.46,0,.24-4.92.87c-4,.76-8,1.31-11.81,3.14-3.67,1.13-7.45,4.22-10.18,7l-1.34-.07-.28.76c-5.49-1,4-7.22,6-8.09l0-.1,2.34-1.26,1,.34-.09-.35c6-2.82,12.5-3.16,19-4.29l0,.33c.94-.74,2-.57,2.91-.82l0-.07h2.22c7-1.56,14.59-2.74,21.39-4.44,4.35-.84,8.33-1.07,12.3-2.94C1463.85,18.18,1467.25,20.26,1470.2,22.08Zm51.58,32c-1.75-3.32-2.83-7.38-5.11-10.25a19.65,19.65,0,0,0-4.94-1.5c-.16,5.49-6.72,6.73-10.63,9.33,6.83,3.22,14.78,4.64,21.32,9C1524,58.62,1524.31,55.64,1521.78,54.11Zm70.13,26.76-1.73.3-2.78,2.89,3.26,7.42c5.14-2.69,8.68-6.94,12.93-10.73l-.09-.51C1599.52,79.31,1594.27,75.74,1591.91,80.87ZM1455.27,50.81c-3.07-4.72-7-2-9.07,1.94A27.82,27.82,0,0,0,1455.27,50.81Z"/><path class="cls-4" d="M1578,107.4c3.63,1.77,7.29,2,11.27,2.88,6.23,1.66,13.18,2.86,19.61,4.38l2,0v.06c.8.24,1.81.11,2.66.8l.05-.31c5.92,1.14,11.92,1.54,17.37,4.23l-.09.31.91-.3,2.13,1.2,0,.09c1.84.82,10.49,6.67,5.43,7.52l-.24-.7-1.24,0c-2.47-2.61-5.9-5.5-9.26-6.6-3.49-1.74-7.13-2.29-10.81-3.05l-4.52-.87,0-.22-.74.41c-6-1.64-12-2.39-18.07-3.5v0l-3.28-.92-1.46.69c-5.66-1.05-16-9.47-18.79-1-.77,6.23,6.68,7.79,9.78,12.17,9.56,4.67,20.91,0,30.91-.21l0-.29c5-.06,9.4-3,14.48-1.93l-.3,1.56-1.62.08c-7.89,4-17.28,5.34-26,7.24l-.91.44,0-.18c-2.62.58-5.31.87-7.79,1.94l0,.37c9.81,9.35,27.54,2.58,38.51-2.28l.71.37,1.6-.44.32.24c-5.46,7.93-17.88,7.63-26.55,10.72l1,1,1.08-.26.77.85c8.66,1.54,16.51,6.59,24.93,8.37,1.3,1.27,4.16,2.34,7.36,3.12,1,1.4,3.06,1.41,4.76,1.93,7.64,4.23,17.43,8.76,22,16.74-.14.29-.57.31-.75.44-7.69-3.25-12.77-10.55-20.42-14.11-20.25-6.35-42-22.84-63.59-13.53,0-3.44-3.13-5.8-6.5-5.58-7.87-2.75-16.87-2.72-25.43-2.05,3.63,11.87,4.36,24.11,8.42,35.37,1.23,7.43-1.37,21.38,9.33,22l1.48,1.79-.33,1.72-3.42-1.76-1.25.74c-4.93-1.87-7.62-7-8.56-12l-.3.08a10.15,10.15,0,0,0-1-5.12c.58-3.54,1.12-7.29-1.57-10.71-1.69,1-.72,3.6-2.52,4a126.67,126.67,0,0,0-2.14-26.58c3.1-20.18-20,3.2-27.86,5.41,2.52,6.16,2.74,14.8,8.53,18.93l0-.08c3.36,2.87,8.18,2.56,12.34,2.14l-.06,1.13,1.84.88-.11,3,1.28,0a3.28,3.28,0,0,0,2.89,2.07c.09,1.72,2.2,1.72,2.63,3.32,2.35,13.3,10.09,27,6.87,41.17l1.89,2.47-.18.16.63.29c.12,1.75,1.92,3,5.4,3.75l1.1,1.72-.22,1.11-2,1-1.82-1.75-1.92.06c-3.34-2.74-3.64-5.35-5.9-7.91-1.53-5,2.44-9.89-.54-14.34l-1.24.23-.87-.63c.3-7.72-3.92-15.35-3-23.4h.3c-7.33-5.66-16.66-7.15-24.63-11.44-4.07-2-6.22-5.9-8.31-9.67-2-3.23-6.21-5.59-5-10-6.41-3.05-.6-13.57-1.47-19.45-8.08,5.69-11.76,18.91-23.23,19.09l-.58.93c.08,3.6,3.49,8.12.28,10.74,4.83,7.69.91,18.58,8.28,25.52-3.1,8.33,4.14,17.88,5.48,26.42,1.06,4.4,1.26,9.9,4.72,13.14,2,2.7,2.58,5.39,5.36,7.33l-.07,1.06.91,0c1.3,3.34,5.31,2.9,7.47,4.93a3.67,3.67,0,0,1-.3,2.7l.29.74-.51,1.07-.91.16-1.28-.69-1.25.13-.37-2-1.2-.92-.87.7-2.51-.26a6.34,6.34,0,0,0-3.63-3.47c.06-2.16-1.31-3.71-2.1-5.5l.35-.5a29.93,29.93,0,0,0-3.87-8.13l-.24.12.12-1.05-.64-.29c.41-1.22-1.94-4.27-3.28-5.38l.13-1.93-1.28-.35.75-1.44a108.51,108.51,0,0,1-5.3-23.85c-1.6-.57-2-2-2-3.39-.3-4.05-3.7-7-3.81-11.07.92-4.2.44-8-.35-12.14a8.3,8.3,0,0,1-7.68-9.21c-.87-.57-2.92,0-3.64,1,2.42,5.78-7.36,14.58-12.61,12.06-1.52,1-4.59.32-6.12-1.48l-4-.77v-.63l-.16.17-5.22-5-.23.42-4-5c-4.41.71-6,6.7-10.35,8.24-3.65,1-7.79,1.5-11.49,2.49-3.49,5.47-4.84,13.05-10.53,16.45l-1.93,3.94-.15-.09-11,27.51c-2.12-1.64-3.38,2.37-4.47,3.65a34.57,34.57,0,0,0-7,6.26l-1.19-.47-1.46.66-.73-1.78c-2.63-.74-5.56,2.65-7.58.28l.22-2.12c12.67,1.41,21.59-7.91,25.67-19.42l-.08,0c2.49-5.71,4.73-11.34,7.33-16.92l0,0,.84-2.7,0,0c.1-1.73,1.15-3.07,2.09-4.58l0,0,4.14-7.11c-10.23,2.46-18.94,7.52-29.44,9.61l-1.43-.42-.14-2.81-.6-.71.17-1.23-.53-.46c-2.79-7,1.81-12.43,3.89-18.3,7-8.1,17-15.33,28.28-12.31,4.19-3.44,8.55-5.09,14-3.78,3.29-5.12,8.08,1.66,11,4.15l-.05.05,1.88,1.8.31-.06c-.11-3.92,3.39-5.22,6.42-5.87-5.32-10.45-10.28-21-19.84-28.27-7.26,4.25-15.09,8.51-23.22,10.91l-.54-.62c-7.34.9-12.58,7.18-19.33,10.1l.28.34c-.83-.21-1.56-.08-2.41-.89l-1.33.81-1.44-.41-.86,1.18-1.77-.67,0-.1a89.73,89.73,0,0,1-9.88-4.19l1-.68c-.51-1-1.19-1.1-1.75-.86l-1.72-.68a5.25,5.25,0,0,1,1.23-2.62l1.73-.81a25.75,25.75,0,0,0,16.35,6.77c12.87-7,25.16-13.94,39.3-18.33l.11.26c2.66-1.11,5.23-2.52,8.51-2.53,11.14,10.7,16.81,28.48,29.51,36.56-.13-7.69,4.62-13,11.23-16.35,8.56-5.35,17.58-14.74,28.17-14.48,7.9-7.06,19.58-7,29.11-4.07,8.56-14.73,27.9-10.2,41.68-7l-.19-.65C1571.61,108.31,1574.77,106.44,1578,107.4Zm-57.74,37.26c6.07-3.87,13.41-5.07,19.74-7.93-3.57-2.45-9.58-3.68-9.64-8.73a17.92,17.92,0,0,0-4.57,1.3c-2.14,2.61-3.19,6.33-4.85,9.36C1518.63,140,1518.86,142.77,1520.3,144.66Zm-74.85,16.86-.08.47c3.85,3.55,7,7.5,11.73,10.06,1.16-2.52,2.17-4.73,3.1-6.79l-2.51-2.69-1.59-.3C1454,157.52,1449.13,160.72,1445.45,161.52Zm145.06-23c-1.87-3.66-5.42-6.21-8.31-1.92A25.23,25.23,0,0,0,1590.51,138.49Z"/><path class="cls-1" d="M1663.73,64.3c4.24,1.15,8.2.69,12.62.76,7,.49,14.66.35,21.84.66l2.19-.39v.07c.91.09,2-.27,3,.3v-.34c6.54,0,13-.8,19.41.94l0,.35.91-.5,2.52.84,0,.1c2.14.5,12.57,5,7.35,6.92l-.41-.7-1.31.31c-3.17-2.28-7.43-4.67-11.24-5.15-4.08-1.13-8.09-1-12.17-1h-5l0-.24-.72.58c-6.71-.52-13.34-.07-20,0v0l-3.68-.3-1.42,1c-6.26,0-19-6.82-20.26,2.84.46,6.8,8.74,6.94,13,11,11.16,3,22.3-4.35,33-6.58l-.1-.31c5.35-1.09,9.41-5.16,15.06-5v1.73l-1.72.41c-7.6,5.88-17.34,9.26-26.21,13.07l-.88.65-.08-.18c-2.67,1.16-5.48,2-7.91,3.67l.09.39c12.4,8,29.94-2.91,40.65-10.34l.84.25,1.62-.8.38.19c-4.2,9.59-17.52,11.81-26.13,16.89l1.26.9,1.1-.5,1,.75c9.57-.13,19,3.65,28.34,3.81,1.65,1.1,4.93,1.65,8.5,1.83,1.37,1.28,3.56.87,5.48,1.08,9,2.94,20.4,5.77,26.88,13.36-.09.34-.54.45-.71.62-8.88-1.89-15.79-8.64-24.7-10.87-22.92-2.61-49.52-15.76-70.67-1.38-.65-3.68-4.52-5.54-8.08-4.62-9-1.32-18.57.56-27.58,3,6.32,11.93,9.62,24.85,16.26,36,2.85,7.69,2.93,23.11,14.48,21.55l2,1.6v1.9l-4-1.17-1.17,1.05c-5.66-1-9.58-5.88-11.61-11l-.29.14a11.12,11.12,0,0,0-2.11-5.26c-.12-3.89-.3-8-3.88-11.11-1.61,1.39,0,4-1.86,4.82A137.79,137.79,0,0,0,1639.6,115c-.83-22.17-20.64,7.52-28.63,11.5,4,6.06,6,15.23,13,18.46l0-.09c4.17,2.37,9.25,1,13.6-.25l.17,1.22,2.15.56.5,3.28,1.37-.24a3.58,3.58,0,0,0,3.52,1.61c.44,1.82,2.7,1.38,3.49,3,5.24,13.72,16.32,26.8,15.79,42.55l2.53,2.25-.16.2.73.18c.49,1.84,2.66,2.8,6.54,2.9l1.52,1.6V205l-1.92,1.49-2.31-1.49-2,.46c-4.13-2.24-5-5-7.93-7.23-2.65-5,.57-11.06-3.52-15.2l-1.28.5-1-.5c-1.27-8.3-7.34-15.58-8-24.36l.32-.07c-9-4.54-19.25-4.2-28.64-7.15-4.75-1.27-7.85-5-10.86-8.62-2.75-3-7.78-4.69-7.39-9.63-7.47-1.93-3.43-14.36-5.56-20.45-7.46,7.72-8.68,22.59-20.88,25.15l-.43,1.11c.83,3.82,5.4,7.95,2.51,11.4,6.74,7.22,4.78,19.66,14.08,25.54-1.6,9.54,8.09,18.25,11.27,27.09,2,4.48,3.38,10.31,7.74,13.06,2.72,2.46,3.87,5.22,7.23,6.72l.14,1.15,1-.17c2.07,3.3,6.26,2,9,3.73a4.05,4.05,0,0,1,.23,2.95l.47.73-.33,1.25-.94.35-1.51-.48-1.31.4-.8-2-1.46-.73-.79.92-2.74.25a6.86,6.86,0,0,0-4.58-3c-.37-2.31-2.16-3.69-3.38-5.44l.28-.6a32.59,32.59,0,0,0-5.81-7.88l-.22.17-.1-1.14-.74-.18c.2-1.39-3-4.17-4.6-5.07l-.26-2.09-1.44-.11.51-1.69c-4.58-7.6-7.86-16.1-10.56-24.38-1.82-.28-2.5-1.75-2.85-3.2-1.14-4.26-5.38-6.68-6.33-11,.11-4.67-1.17-8.6-2.87-12.89a9,9,0,0,1-10.09-8.25c-1-.44-3.12.62-3.68,1.81,3.77,5.68-4.86,17.09-11,15.46-1.41,1.41-4.83,1.3-6.83-.31H1539l-.12-.68-.14.22-6.59-4.22-.16.5-5.25-4.54c-4.57,1.67-5.09,8.4-9.37,10.92-3.69,1.79-8,3.21-11.74,5-2.61,6.55-2.49,14.92-7.87,19.72l-1.25,4.6-.18-.06c-2,10.49-4,21-6.08,31.63-2.6-1.33-3.12,3.22-4,4.8a37.86,37.86,0,0,0-6.23,8.13l-1.37-.25-1.43,1-1.13-1.74c-3-.26-5.4,4-8,1.84l-.21-2.3c13.82-1.1,21.43-12.88,23.42-26h-.08c1.48-6.61,2.71-13.08,4.35-19.57h-.06l.33-3.06-.06,0c-.24-1.87.6-3.51,1.3-5.32l0,0,3-8.44c-10.42,4.73-18.68,11.91-29.45,16.3l-1.62-.15-.72-3-.79-.64-.07-1.35-.66-.38c-4.41-6.85-.63-13.64.39-20.34,5.83-10.08,15-19.85,27.66-18.94,3.77-4.54,8.09-7.2,14.2-6.93,2.45-6.14,9,.12,12.6,2.17l0,.07,2.39,1.54.31-.13c-.92-4.16,2.55-6.27,5.65-7.59-7.83-10.06-15.3-20.34-27-26.1-6.88,6-14.37,12.18-22.55,16.42l-.7-.56c-7.66,2.47-12,10.25-18.56,14.76l.36.31c-.93-.06-1.68.23-2.75-.46l-1.25,1.13-1.62-.13-.68,1.43-2-.35,0-.11a98.44,98.44,0,0,1-11.42-2.45l.89-.93c-.74-.94-1.5-.92-2-.56l-2-.37a5.73,5.73,0,0,1,.78-3l1.68-1.23a28,28,0,0,0,18.84,3.88c12.3-10.13,24-20.06,38.2-27.64l.16.25c2.62-1.74,5.07-3.77,8.57-4.45,14.09,9.13,23.8,26.95,39,33-1.71-8.19,2.26-14.86,8.64-19.77,8-7.46,15.73-19.34,27.09-21.24,7-9.16,19.46-11.55,30.25-10.32,6.11-17.49,27.69-16.63,43.07-16l-.34-.66C1657.05,66.6,1660,64,1663.73,64.3Zm-54,51.65c5.69-5.39,13.27-8.17,19.45-12.52-4.32-1.89-11-2-12.09-7.35a19.57,19.57,0,0,0-4.61,2.33c-1.75,3.23-2.11,7.41-3.26,11C1607,111.35,1607.82,114.22,1609.74,116Zm-76.45,33.37v.52c4.84,3,9.06,6.56,14.59,8.32.72-2.92,1.34-5.49,1.92-7.87-1.19-.88-2.13-1.55-3.23-2.36h-1.77C1541.6,143.29,1537.05,147.71,1533.29,149.32Zm150.14-54.38c-2.75-3.53-7.06-5.52-9.27-.34A27.86,27.86,0,0,0,1683.43,94.94Z"/><path class="cls-1" d="M1704.61,53.76l-.22.71c15-3.31,36.14-7.9,45.19,8.26,10.41-3.09,23.11-2.9,31.57,4.91,11.52-.1,21.16,10.26,30.38,16.21,7.13,3.73,12.2,9.61,11.93,18,14-8.57,20.41-27.8,32.7-39.24,3.56.06,6.33,1.64,9.21,2.89l.12-.28c15.3,5,28.55,12.76,42.42,20.59a28,28,0,0,0,17.88-7.09l1.87.92a5.67,5.67,0,0,1,1.29,2.86l-1.88.71c-.6-.26-1.35-.15-1.92.9l1,.77a99.62,99.62,0,0,1-10.82,4.39l.05.1-1.93.7-.92-1.3-1.57.42-1.43-.9c-.94.87-1.72.72-2.63.93l.3-.37c-7.28-3.29-12.87-10.2-20.84-11.31l-.59.67c-8.8-2.75-17.24-7.51-25.06-12.25-10.51,7.7-16.08,19.12-22,30.39,3.28.77,7.07,2.24,6.89,6.5l.33.07L1848,101l-.06-.06c3.23-2.65,8.56-10,12-4.32,6-1.34,10.68.53,15.18,4.35,12.33-3.1,23,4.93,30.53,13.85,2.16,6.42,7.07,12.45,3.92,20l-.59.49.17,1.34-.67.77-.2,3-1.56.43c-11.37-2.45-20.75-8.09-31.84-10.94l4.38,7.8,0,0c1,1.66,2.12,3.13,2.2,5l0,0,.85,3,0,0c2.74,6.11,5.08,12.26,7.68,18.51l-.08,0c4.24,12.58,13.78,22.87,27.58,21.55l.2,2.3c-2.24,2.54-5.37-1.19-8.24-.42l-.82,1.91-1.58-.74-1.3.49a37.59,37.59,0,0,0-7.55-6.92c-1.16-1.41-2.46-5.79-4.79-4l-11.49-30.09-.16.09-2-4.31c-6.13-3.79-7.47-12.06-11.17-18.06-4-1.14-8.49-1.79-12.44-2.91-4.65-1.74-6.34-8.28-11.12-9.13l-4.39,5.38-.24-.46-5.76,5.3-.17-.19v.68l-4.34.77c-1.7,1.94-5,2.64-6.68,1.5-5.75,2.66-16.23-7.07-13.5-13.32-.77-1.08-3-1.76-3.94-1.14a9,9,0,0,1-8.5,9.87c-.93,4.52-1.52,8.62-.59,13.2-.18,4.45-3.94,7.57-4.33,12-.09,1.5-.5,3.06-2.25,3.65-1.21,8.63-3,17.57-6.16,25.85l.79,1.57-1.4.36.11,2.1c-1.46,1.18-4.08,4.46-3.65,5.8l-.7.3.11,1.15-.25-.14a33.13,33.13,0,0,0-4.36,8.77l.39.55c-.9,1.93-2.42,3.6-2.39,5.94a6.93,6.93,0,0,0-4,3.72l-2.73.23-.94-.77-1.32,1-.43,2.14-1.36-.16-1.4.73-1-.19-.54-1.17.33-.8a4.05,4.05,0,0,1-.28-2.94c2.38-2.18,6.74-1.62,8.2-5.23h1l-.06-1.15c3-2.07,3.7-5,6-7.88,3.81-3.46,4.12-9.44,5.35-14.21,1.6-9.26,9.63-19.51,6.41-28.63,8.13-7.41,4-19.32,9.43-27.6-3.45-2.89.34-7.75.48-11.66l-.61-1c-12.46-.4-16.25-14.83-24.93-21.15-1,6.38,5.1,17.91-1.93,21.11,1.24,4.8-3.42,7.29-5.6,10.77-2.34,4.07-4.74,8.3-9.2,10.37-8.74,4.54-18.9,6-27,12l.32,0c.83,8.76-3.89,17-3.69,25.38l-1,.68-1.35-.27c-3.31,4.78.92,10.21-.83,15.57-2.49,2.75-2.87,5.58-6.55,8.5l-2.08-.1-2,1.87-2.14-1.14-.22-1.21c.46-.68.85-1.28,1.22-1.85,3.81-.77,5.78-2.09,5.94-4l.69-.3-.2-.17,2.1-2.65c-3.26-15.43,5.38-30.23,8.16-44.65.5-1.73,2.8-1.69,2.92-3.56a3.56,3.56,0,0,0,3.18-2.2h1.4l-.07-3.31,2-.93-.05-1.23c4.52.52,9.75.94,13.45-2.12l0,.09c6.37-4.4,6.76-13.79,9.6-20.44-8.56-2.53-33.23-28.33-30.2-6.35a139.34,139.34,0,0,0-2.78,28.86c-1.94-.5-.84-3.34-2.67-4.43-3,3.68-2.45,7.77-1.89,11.62a11.15,11.15,0,0,0-1.16,5.55l-.32-.09c-1.1,5.39-4.11,10.89-9.51,12.85l-1.34-.83-3.75,1.85-.33-1.87,1.64-1.92c11.64-.46,9-15.67,10.51-23.73,4.61-12.17,5.61-25.46,9.76-38.31-9.3-.87-19.09-1.05-27.69,1.81-3.66-.3-7.15,2.21-7.15,5.94-23.33-10.48-47.24,7.08-69.36,13.64-8.38,3.74-14,11.59-22.43,15-.2-.14-.66-.17-.81-.49,5.06-8.6,15.78-13.35,24.15-17.82,1.86-.54,4.08-.51,5.21-2,3.49-.8,6.62-1.91,8.05-3.27,9.19-1.78,17.81-7.14,27.25-8.68l.85-.91,1.16.3,1.09-1.1c-9.37-3.51-22.87-3.39-28.67-12.09l.35-.26,1.73.51.78-.39c11.84,5.45,31,13.11,41.83,3.12l0-.4c-2.67-1.21-5.59-1.57-8.43-2.24l0,.19-1-.49c-9.39-2.21-19.58-3.84-28.08-8.31l-1.76-.11-.31-1.7c5.54-1.12,10.25,2.18,15.71,2.33l-.05.32c10.88.36,23.12,5.67,33.6.76,3.44-4.72,11.56-6.29,10.84-13.07-2.93-9.3-14.27-.32-20.45.72l-1.57-.77-3.58.94v0c-6.57,1.1-13.18,1.81-19.7,3.49l-.8-.46,0,.24-4.93.87c-4,.76-8,1.31-11.8,3.13-3.67,1.14-7.45,4.23-10.18,7l-1.34-.07-.28.76c-5.49-1,4-7.22,6-8.09l0-.1,2.33-1.26,1,.34-.09-.35c6-2.82,12.5-3.16,18.95-4.29l.05.33c.93-.74,2-.57,2.91-.82l0-.07H1661c7-1.56,14.59-2.74,21.39-4.44,4.34-.84,8.32-1.07,12.3-2.94C1698.26,49.86,1701.66,51.94,1704.61,53.76Zm51.58,32c-1.75-3.32-2.83-7.38-5.11-10.25a19.72,19.72,0,0,0-4.95-1.5c-.15,5.49-6.71,6.73-10.63,9.33,6.84,3.22,14.79,4.64,21.33,9C1758.42,90.29,1758.72,87.32,1756.19,85.79Zm70.13,26.76-1.74.3-2.77,2.89,3.25,7.42c5.15-2.7,8.68-6.94,12.93-10.74l-.08-.51C1833.92,111,1828.68,107.42,1826.32,112.55ZM1689.68,82.49c-3.07-4.72-7-2-9.07,1.94A27.82,27.82,0,0,0,1689.68,82.49Z"/><path class="cls-2" d="M1798.79,105.18c3.71,1.47,7.32,1.44,11.3,1.95,6.25,1.14,13.17,1.77,19.61,2.77l2-.13v.06c.81.17,1.79,0,2.67.58l0-.31c5.9.65,11.83.58,17.4,2.78l-.07.32.87-.36,2.19,1,0,.09c1.88.67,10.84,5.74,5.93,7l-.29-.67-1.22.14c-2.63-2.37-6.22-4.94-9.61-5.75-3.57-1.43-7.19-1.7-10.86-2.15l-4.51-.5v-.22l-.7.46c-6-1.14-12-1.4-18-2v0l-3.29-.65-1.38.79c-5.64-.58-16.43-8-18.53.54-.27,6.17,7.17,7.12,10.56,11.19,9.76,3.84,20.53-1.69,30.35-2.64l-.06-.28c4.93-.46,9-3.71,14.07-3l-.17,1.56-1.59.2c-7.43,4.54-16.55,6.6-24.92,9.15l-.86.5-.05-.17c-2.53.78-5.15,1.27-7.5,2.52l.05.36c10.37,8.41,27.26.37,37.66-5.26l.72.31,1.54-.56.33.21c-4.74,8.22-17,8.89-25.23,12.61l1,.93,1-.33.82.77c8.64.84,16.74,5.18,25.16,6.26,1.37,1.16,4.27,2,7.48,2.5,1.1,1.29,3.11,1.14,4.82,1.52,7.84,3.55,17.81,7.24,22.88,14.72-.11.3-.53.35-.7.49-7.8-2.59-13.36-9.36-21.17-12.26-20.38-4.65-43-19.15-63.53-8.3-.21-3.39-3.52-5.45-6.82-5-7.94-2.09-16.78-1.35-25.15,0,4.51,11.38,6.18,23.34,11.06,34.08,1.79,7.21.32,21.12,10.89,20.86l1.59,1.64-.19,1.72-3.5-1.46-1.16.82c-5-1.45-8-6.25-9.36-11.06l-.28.09a10.17,10.17,0,0,0-1.37-5c.28-3.52.52-7.25-2.39-10.4-1.59,1.09-.43,3.6-2.16,4.16a125.28,125.28,0,0,0-4.19-25.95c1.46-20.06-19.35,4.71-27,7.5,3,5.86,3.86,14.33,9.87,17.93l0-.07c3.52,2.54,8.23,1.86,12.28,1.13l0,1.12,1.88.72.13,3,1.26-.08a3.23,3.23,0,0,0,3,1.8c.22,1.69,2.3,1.52,2.85,3.06,3.35,12.88,12,25.77,10,39.91l2.05,2.28-.16.17.63.23c.26,1.71,2.12,2.78,5.61,3.26l1.21,1.6-.13,1.11-1.87,1.16-1.93-1.58-1.88.21c-3.5-2.42-4-5-6.42-7.3-1.89-4.75,1.62-9.91-1.65-14l-1.21.33-.9-.56c-.31-7.61-5-14.77-4.82-22.75l.3,0c-7.64-5-16.92-5.72-25.09-9.31-4.16-1.61-6.57-5.31-8.93-8.85-2.17-3-6.53-5-5.69-9.41-6.54-2.49-1.65-13.28-3-19-7.49,6.22-10.07,19.5-21.32,20.58l-.5,1c.36,3.52,4.07,7.7,1.12,10.52,5.35,7.18,2.35,18.19,10.13,24.42-2.38,8.43,5.48,17.25,7.46,25.53,1.39,4.24,2,9.63,5.66,12.54,2.21,2.49,3,5.09,5.85,6.78v1.05l.9-.05c1.54,3.18,5.44,2.42,7.73,4.26a3.66,3.66,0,0,1-.09,2.67l.35.71-.42,1.09-.89.23-1.31-.59-1.21.23-.52-1.91-1.25-.8-.81.75-2.48,0a6.21,6.21,0,0,0-3.83-3.13c-.11-2.12-1.58-3.55-2.51-5.24l.32-.51a29.67,29.67,0,0,0-4.45-7.69l-.22.14,0-1.05-.65-.23c.31-1.23-2.24-4.05-3.64-5l0-1.91-1.29-.24.62-1.47a106.82,106.82,0,0,1-7.07-23c-1.62-.43-2.08-1.83-2.25-3.17-.61-3.95-4.18-6.56-4.61-10.58.58-4.19-.19-7.87-1.29-11.9a8.17,8.17,0,0,1-8.27-8.44c-.9-.5-2.87.25-3.5,1.26,2.83,5.5-6.08,14.91-11.44,12.84-1.41,1.13-4.48.68-6.13-1l-4-.44,0-.62-.14.18-5.53-4.46-.18.43-4.28-4.61c-4.28,1.05-5.42,7.06-9.53,8.91-3.51,1.24-7.54,2.09-11.09,3.35-3,5.65-3.73,13.2-9,17l-1.59,4-.16-.07c-2.86,9.25-5.73,18.5-8.64,27.89-2.2-1.45-3.13,2.6-4.1,3.93a34.39,34.39,0,0,0-6.42,6.7l-1.21-.36-1.39.76-.85-1.69c-2.64-.52-5.26,3-7.42.87l0-2.1c12.56.39,20.6-9.47,23.7-21.1h-.08c2-5.81,3.76-11.51,5.88-17.2l-.05,0,.6-2.72,0,0c0-1.7.89-3.1,1.7-4.65l0,0,3.51-7.31c-9.86,3.22-18,8.87-28.17,11.75l-1.44-.3-.35-2.75-.65-.65.07-1.23-.56-.41c-3.29-6.61.8-12.35,2.38-18.28,6.27-8.5,15.49-16.39,26.82-14.31,3.85-3.71,8-5.68,13.48-4.82,2.83-5.29,8.06,1,11.14,3.21l0,.06,2,1.63.29-.09c-.41-3.84,2.93-5.39,5.85-6.27-6.05-9.85-11.75-19.86-21.71-26.22-6.8,4.74-14.16,9.54-22,12.54l-.57-.57c-7.15,1.47-11.8,8-18.2,11.45l.3.31c-.84-.14-1.54,0-2.44-.69l-1.24.9-1.44-.29-.76,1.23-1.79-.52,0-.1a89.48,89.48,0,0,1-10-3.34l.9-.75c-.58-.92-1.26-1-1.79-.71l-1.74-.53a5.16,5.16,0,0,1,1-2.67l1.64-.93a25.35,25.35,0,0,0,16.59,5.37c12.09-7.89,23.62-15.67,37.17-21.09l.13.25c2.53-1.31,4.94-2.89,8.16-3.16,11.78,9.64,18.75,26.66,31.86,33.6-.73-7.54,3.52-13.16,9.75-16.94,8-5.93,16.11-15.86,26.54-16.44,7.21-7.55,18.68-8.46,28.28-6.27,7.25-15.15,26.6-12.22,40.4-10.1l-.24-.63C1792.55,106.58,1795.51,104.5,1798.79,105.18ZM1745,146.33c5.66-4.29,12.77-6,18.77-9.34-3.7-2.13-9.7-2.87-10.16-7.83a17.58,17.58,0,0,0-4.38,1.64c-1.9,2.73-2.64,6.47-4,9.57C1743,141.91,1743.43,144.58,1745,146.33Zm-72.21,22.43,0,.46c4.07,3.19,7.51,6.82,12.32,9,.94-2.56,1.76-4.81,2.52-6.9l-2.68-2.45-1.59-.17C1680.87,164.15,1676.33,167.68,1672.78,168.76Zm140.7-34c-2.12-3.45-5.81-5.67-8.32-1.23A25,25,0,0,0,1813.48,134.75Z"/><path class="cls-2" d="M1869.55,86l-.27.62c13.88-1.48,33.35-3.51,39.9,12,9.69-1.74,21.1-.3,28,7.58,10.38,1.06,18,11.36,25.74,17.65,6.06,4.07,10,9.87,9,17.37,13.42-6.33,21.16-23,33.38-32.08,3.2.41,5.54,2.1,8,3.52l.14-.24c13.28,6,24.44,14.35,36.16,22.79a25.33,25.33,0,0,0,16.81-4.6l1.6,1a5.13,5.13,0,0,1,.87,2.71l-1.76.45c-.51-.3-1.2-.27-1.82.62l.86.79a88.24,88.24,0,0,1-10.18,2.88l0,.1-1.81.43-.69-1.25-1.46.21-1.2-.95c-.93.69-1.63.47-2.47.57l.31-.3c-6.23-3.69-10.57-10.47-17.64-12.27l-.6.54c-7.65-3.35-14.79-8.49-21.36-13.54-10.24,5.89-16.4,15.63-22.9,25.19,2.88,1,6.14,2.72,5.56,6.54l.28.09,2.07-1.53,0-.06c3.17-2.06,8.7-8.1,11.27-2.69,5.51-.61,9.57,1.55,13.24,5.44,11.42-1.56,20.27,6.74,26.14,15.53,1.3,6,5.12,11.92,1.53,18.37l-.58.39,0,1.22-.68.63-.48,2.72-1.45.24c-10-3.35-17.89-9.37-27.6-13l3.17,7.46,0,0c.73,1.59,1.59,3,1.48,4.73l0,0,.48,2.75h-.06c1.86,5.78,3.35,11.56,5.08,17.45h-.08c2.56,11.76,10.13,22,22.7,22.17l-.05,2.09c-2.27,2.07-4.72-1.61-7.39-1.2l-.92,1.64-1.35-.82-1.22.31a34.36,34.36,0,0,0-6.11-7c-.91-1.38-1.64-5.46-3.92-4.12-2.47-9.51-4.9-18.88-7.34-28.26l-.16.07-1.4-4.09c-5.14-4-5.52-11.61-8.26-17.39-3.49-1.42-7.47-2.46-10.92-3.86-4-2-4.88-8.09-9.1-9.34l-4.49,4.41-.17-.43-5.72,4.19-.14-.19-.07.62-4,.26c-1.72,1.57-4.81,1.88-6.17.68-5.45,1.83-13.92-8-10.84-13.35-.58-1-2.51-1.88-3.43-1.42a8.17,8.17,0,0,1-8.65,8c-1.29,4-2.22,7.61-1.85,11.83-.61,4-4.3,6.43-5.09,10.35-.23,1.33-.75,2.7-2.39,3.06a107.16,107.16,0,0,1-8.13,22.67l.56,1.5-1.3.18-.11,1.91c-1.44.91-4.13,3.61-3.87,4.85l-.66.21,0,1-.22-.15a29.92,29.92,0,0,0-4.79,7.47l.29.53c-1,1.65-2.54,3-2.75,5.12a6.23,6.23,0,0,0-4,3l-2.48-.07-.77-.78-1.29.74-.6,1.89-1.21-.29-1.33.52-.88-.27-.37-1.1.38-.7a3.63,3.63,0,0,1,0-2.67c2.37-1.72,6.23-.79,7.91-3.9l.9.09.06-1c3-1.56,3.84-4.11,6.15-6.5,3.78-2.74,4.66-8.1,6.24-12.27,2.37-8.18,10.63-16.62,8.63-25.15,8.07-5.87,5.58-17,11.25-23.93-2.81-2.95,1.09-6.95,1.61-10.46l-.45-1c-11.19-1.6-13.16-15-20.35-21.54-1.58,5.64,2.8,16.65-3.85,18.83.64,4.44-3.81,6.22-6.12,9.14-2.51,3.43-5.1,7-9.32,8.42-8.33,3.22-17.63,3.51-25.5,8.14l.29,0c-.13,8-5.2,14.92-5.86,22.5l-.93.51-1.18-.37c-3.46,4-.2,9.29-2.3,13.95-2.53,2.22-3.15,4.74-6.75,7l-1.87-.3-2,1.48c-.59-.39-1.2-.81-1.82-1.24l-.07-1.11,1.28-1.55c3.5-.31,5.41-1.3,5.75-3l.64-.21-.15-.17,2.15-2.18c-1.39-14.22,7.87-26.7,11.82-39.41.62-1.51,2.68-1.25,3-2.92a3.25,3.25,0,0,0,3.09-1.66l1.25.13.27-3,1.91-.63.08-1.12c4,.92,8.69,1.82,12.32-.56l0,.08c6.17-3.33,7.46-11.74,10.68-17.46-7.46-3.13-27.1-28.84-26.57-8.74a126,126,0,0,0-5.39,25.73c-1.7-.64-.42-3.09-2-4.25-3.06,3-3,6.75-2.86,10.28a10,10,0,0,0-1.6,4.88l-.28-.11c-1.54,4.75-4.8,9.4-9.86,10.62l-1.12-.88-3.57,1.3-.11-1.73,1.67-1.56c10.54.75,9.72-13.21,11.84-20.33,5.37-10.5,7.6-22.38,12.62-33.54-8.29-1.72-17.09-2.86-25.12-1.14-3.27-.63-6.67,1.28-7,4.65-20-11.78-43.27,1.66-63.85,5.36-7.93,2.53-13.8,9-21.72,11.26-.16-.15-.57-.22-.67-.52,5.41-7.24,15.55-10.46,23.54-13.65,1.72-.29,3.72,0,4.89-1.29,3.22-.38,6.16-1.06,7.58-2.15,8.46-.69,16.76-4.65,25.42-5.09l.86-.74,1,.39,1.1-.89c-8.09-4.09-20.27-5.33-24.63-13.76l.34-.19,1.51.62.74-.27c10.12,6.1,26.63,14.92,37.38,7l.06-.35c-2.29-1.36-4.89-2-7.38-2.87l0,.17-.84-.53c-8.24-2.94-17.25-5.43-24.47-10.3l-1.57-.28-.11-1.56c5.1-.45,9,3,13.92,3.67l-.07.29c9.76,1.4,20.26,7.42,30.19,4,3.57-3.9,11.05-4.51,11.07-10.69-1.71-8.67-12.83-1.71-18.49-1.39l-1.34-.85-3.32.49v0c-6,.33-12,.31-18.09,1.17l-.68-.48v.21l-4.52.29c-3.7.29-7.32.38-11,1.65-3.42.66-7.13,3.06-9.87,5.3l-1.2-.2-.33.66c-4.84-1.46,4.34-6.11,6.24-6.68l0-.1,2.23-.9.85.4,0-.32c5.66-1.94,11.58-1.6,17.5-2v.31c.92-.57,1.89-.31,2.71-.45v-.06l2,.23c6.47-.7,13.42-1,19.71-1.87,4-.32,7.61-.13,11.38-1.42C1864.22,81.83,1867.08,84,1869.55,86Zm43.28,34c-1.25-3.16-1.82-6.93-3.58-9.75a18.18,18.18,0,0,0-4.31-1.84c-.69,4.94-6.72,5.39-10.51,7.35,5.84,3.58,12.86,5.66,18.32,10.2C1914.39,124.27,1915,121.62,1912.83,120Zm60.51,31.12-1.59.1-2.79,2.32,2.19,7c4.91-1.91,8.52-5.39,12.72-8.38l0-.47C1980.35,150.45,1976,146.71,1973.34,151.1Zm-120.11-40.73c-2.29-4.56-6.08-2.51-8.36.84A25,25,0,0,0,1853.23,110.37Z"/><path class="cls-1" d="M1997.35,67.31c4.24,1.15,8.2.69,12.62.76,7,.49,14.66.34,21.84.66l2.19-.4v.07c.91.09,2-.26,3,.31v-.34c6.54,0,13-.8,19.41.94l0,.35.91-.5,2.51.84v.1c2.14.5,12.57,5,7.35,6.92l-.41-.7-1.31.3c-3.17-2.27-7.43-4.66-11.24-5.14-4.08-1.13-8.09-1-12.17-1h-5l0-.23-.72.58c-6.71-.52-13.34-.07-20,0v0l-3.68-.3-1.42,1c-6.26,0-19-6.83-20.26,2.84.46,6.8,8.74,6.94,12.95,11,11.16,3,22.3-4.34,33-6.58l-.1-.3c5.35-1.1,9.41-5.16,15.06-5v1.73l-1.72.41c-7.6,5.88-17.35,9.26-26.21,13.07l-.88.65-.08-.19c-2.67,1.17-5.49,2-7.91,3.68l.09.39c12.4,8,29.94-2.91,40.65-10.34l.84.25,1.62-.8.38.19c-4.2,9.58-17.52,11.81-26.13,16.89l1.26.9,1.1-.5,1,.75c9.57-.13,19,3.65,28.34,3.81,1.65,1.1,4.93,1.64,8.5,1.83,1.37,1.28,3.56.87,5.48,1.08,9,2.94,20.4,5.77,26.88,13.35-.09.34-.54.46-.71.63-8.88-1.89-15.8-8.64-24.7-10.87-22.92-2.62-49.52-15.76-70.67-1.38-.65-3.69-4.52-5.55-8.08-4.62-9-1.32-18.57.55-27.58,3,6.32,11.93,9.62,24.85,16.26,36,2.85,7.68,2.93,23.11,14.48,21.55l2,1.6v1.9l-4-1.17-1.17,1c-5.66-1-9.58-5.88-11.61-11l-.3.14a11.1,11.1,0,0,0-2.1-5.26c-.12-3.9-.3-8-3.88-11.12-1.61,1.39,0,4-1.86,4.83a137.79,137.79,0,0,0-7.75-27.94c-.83-22.18-20.64,7.51-28.63,11.5,4,6.06,6,15.23,13,18.46l0-.09c4.17,2.36,9.25,1,13.6-.25l.17,1.22,2.15.56.5,3.28,1.37-.25a3.59,3.59,0,0,0,3.52,1.62c.44,1.82,2.7,1.38,3.49,3,5.24,13.72,16.32,26.79,15.79,42.55l2.53,2.25-.16.2.73.18c.49,1.84,2.66,2.79,6.54,2.89.47.5,1,1,1.52,1.61V208l-1.92,1.5-2.31-1.5-2,.47c-4.13-2.24-5-5-7.93-7.23-2.65-5,.57-11.06-3.52-15.2l-1.28.5-1-.5c-1.27-8.3-7.34-15.58-8-24.36l.32-.07c-9-4.54-19.25-4.21-28.64-7.15-4.75-1.27-7.85-5-10.86-8.62-2.75-3.05-7.78-4.69-7.39-9.63-7.47-1.93-3.43-14.36-5.56-20.46-7.46,7.73-8.68,22.6-20.88,25.15l-.43,1.12c.83,3.82,5.4,8,2.51,11.4,6.73,7.22,4.78,19.65,14.08,25.54-1.6,9.54,8.09,18.25,11.27,27.08,2,4.49,3.38,10.32,7.74,13.07,2.72,2.46,3.87,5.21,7.23,6.72l.14,1.15,1-.17c2.07,3.3,6.26,2,9,3.73a4,4,0,0,1,.23,2.94l.47.74-.33,1.24-.94.36-1.51-.48-1.31.4-.8-2-1.46-.73-.8.92-2.73.25a6.86,6.86,0,0,0-4.58-3c-.38-2.31-2.16-3.69-3.38-5.44l.28-.6a32.59,32.59,0,0,0-5.81-7.88l-.22.17-.1-1.15-.74-.17c.2-1.39-3-4.17-4.6-5.08l-.26-2.08-1.44-.12.51-1.68c-4.58-7.6-7.86-16.1-10.56-24.38-1.82-.28-2.5-1.75-2.85-3.21-1.14-4.25-5.38-6.67-6.33-11,.11-4.67-1.17-8.6-2.87-12.89a9,9,0,0,1-10.09-8.25c-1-.44-3.12.62-3.68,1.81,3.77,5.68-4.86,17.08-11,15.46-1.41,1.41-4.83,1.3-6.83-.32h-4.41l-.12-.67-.14.22-6.59-4.22-.16.49-5.25-4.53c-4.57,1.67-5.09,8.4-9.37,10.92-3.69,1.78-8,3.21-11.74,5-2.61,6.56-2.49,14.93-7.87,19.73l-1.25,4.59-.18-.06c-2,10.5-4,21-6.08,31.63-2.6-1.32-3.12,3.23-4,4.81a37.86,37.86,0,0,0-6.23,8.13l-1.37-.25-1.43,1-1.13-1.75c-3-.25-5.4,4-8,1.85l-.21-2.3c13.82-1.1,21.43-12.89,23.42-26h-.08c1.48-6.61,2.71-13.08,4.35-19.57h-.06l.33-3.06-.06,0c-.24-1.87.6-3.51,1.3-5.32l0,0,3-8.44c-10.42,4.73-18.68,11.92-29.45,16.31l-1.62-.15-.72-3L1801,189l-.07-1.35-.66-.38c-4.41-6.86-.63-13.64.38-20.34,5.84-10.08,15-19.85,27.67-18.94,3.77-4.54,8.09-7.2,14.2-6.93,2.45-6.14,9,.12,12.59,2.17l0,.07,2.39,1.54.31-.13c-.92-4.16,2.55-6.27,5.65-7.59-7.83-10.06-15.3-20.34-27-26.1-6.88,6-14.37,12.18-22.55,16.41l-.7-.55c-7.66,2.47-12,10.25-18.56,14.76l.36.3c-.93-.05-1.68.24-2.75-.46l-1.25,1.14-1.62-.14-.68,1.44-2-.35,0-.12a96.63,96.63,0,0,1-11.41-2.44l.89-.93c-.74-.94-1.5-.92-2.05-.56l-2-.37a5.76,5.76,0,0,1,.78-3l1.68-1.22a28,28,0,0,0,18.84,3.88c12.3-10.13,24-20.06,38.2-27.65l.16.26c2.62-1.74,5.07-3.77,8.57-4.45,14.09,9.13,23.8,26.94,39,33-1.71-8.18,2.26-14.85,8.64-19.76,8-7.47,15.73-19.34,27.09-21.25,7-9.15,19.45-11.54,30.25-10.31,6.11-17.49,27.69-16.63,43.07-16l-.34-.66C1990.67,69.6,1993.66,67,1997.35,67.31Zm-54,51.65c5.69-5.39,13.27-8.17,19.44-12.52-4.31-1.89-11-2-12.08-7.35a19.57,19.57,0,0,0-4.61,2.33c-1.75,3.23-2.11,7.41-3.26,11C1940.63,114.35,1941.44,117.23,1943.36,119Zm-76.45,33.37v.51c4.84,3,9.06,6.57,14.59,8.33.72-2.92,1.34-5.49,1.92-7.88l-3.23-2.35h-1.77C1875.22,146.3,1870.67,150.72,1866.91,152.33ZM2017.05,98c-2.75-3.53-7.06-5.52-9.27-.34A27.86,27.86,0,0,0,2017.05,98Z"/><path class="cls-1" d="M225.73,44.3c4.24,1.15,8.2.69,12.62.76,7,.49,14.66.35,21.84.66l2.19-.39v.07c.91.09,2-.27,3,.3v-.34c6.54,0,13-.8,19.41.94l0,.35.91-.5,2.52.84,0,.1c2.14.5,12.57,5,7.35,6.92l-.41-.7-1.31.31c-3.17-2.28-7.43-4.67-11.24-5.15-4.08-1.13-8.09-1-12.17-1h-5l0-.24-.72.58c-6.71-.52-13.34-.07-20,0v0L241,47.5l-1.42,1c-6.26,0-19-6.82-20.26,2.84.46,6.8,8.74,6.94,12.95,11,11.16,3,22.3-4.35,33-6.58l-.1-.31c5.35-1.09,9.41-5.16,15.06-5v1.73l-1.72.41c-7.6,5.88-17.34,9.26-26.21,13.07l-.88.65-.08-.18c-2.67,1.16-5.48,2-7.91,3.67l.09.39c12.4,8,29.94-2.91,40.65-10.34l.84.25,1.62-.8.38.19c-4.2,9.59-17.52,11.81-26.13,16.89l1.26.9,1.1-.5,1,.75c9.57-.13,19,3.65,28.34,3.81,1.65,1.1,4.93,1.65,8.5,1.83,1.37,1.28,3.56.87,5.48,1.08,9,2.94,20.4,5.77,26.88,13.36-.09.34-.54.45-.71.62-8.88-1.89-15.79-8.64-24.7-10.87C285,84.74,258.41,71.59,237.26,86c-.65-3.68-4.52-5.54-8.08-4.62-9-1.32-18.57.56-27.58,3,6.32,11.93,9.62,24.85,16.26,36,2.85,7.69,2.93,23.11,14.48,21.55l1.95,1.6v1.9l-4-1.17-1.17,1.05c-5.66-1-9.58-5.88-11.61-11l-.29.14a11.12,11.12,0,0,0-2.11-5.26c-.12-3.89-.3-8-3.88-11.11-1.61,1.39,0,4-1.86,4.82A137.79,137.79,0,0,0,201.6,95c-.83-22.17-20.64,7.52-28.63,11.5,3.95,6.06,6,15.23,13,18.46l0-.09c4.17,2.37,9.25,1,13.6-.25l.17,1.22,2.15.56.5,3.28,1.37-.24A3.58,3.58,0,0,0,207.3,131c.44,1.82,2.7,1.38,3.49,3,5.24,13.72,16.32,26.8,15.79,42.55l2.53,2.25-.16.2.73.18c.49,1.84,2.66,2.8,6.54,2.9.47.49.95,1,1.52,1.6V185l-1.92,1.49L233.51,185l-2,.46c-4.13-2.24-5-5-7.93-7.23-2.65-5,.57-11.06-3.52-15.2l-1.28.5-1.05-.5c-1.27-8.3-7.34-15.58-8-24.36l.32-.07c-9-4.54-19.25-4.2-28.64-7.15-4.75-1.27-7.85-5-10.86-8.62-2.75-3-7.78-4.69-7.39-9.63-7.47-1.93-3.43-14.36-5.56-20.45-7.46,7.72-8.68,22.59-20.88,25.15l-.43,1.11c.83,3.82,5.4,8,2.51,11.4,6.74,7.22,4.78,19.66,14.08,25.54-1.6,9.54,8.09,18.25,11.27,27.09,2,4.48,3.38,10.31,7.74,13.06,2.72,2.46,3.87,5.22,7.23,6.72l.14,1.15,1-.17c2.07,3.3,6.26,2,9,3.73a4.05,4.05,0,0,1,.23,2.95l.47.73-.33,1.25-.94.35-1.51-.48-1.31.4-.8-2-1.46-.73-.79.92-2.74.25a6.86,6.86,0,0,0-4.58-3c-.37-2.31-2.16-3.69-3.38-5.44l.28-.6a32.59,32.59,0,0,0-5.81-7.88l-.22.17-.1-1.14-.74-.18c.2-1.39-2.95-4.17-4.6-5.07l-.26-2.09-1.44-.11.51-1.69c-4.58-7.6-7.86-16.1-10.56-24.38-1.82-.28-2.5-1.75-2.85-3.2-1.14-4.26-5.38-6.68-6.33-11,.11-4.67-1.17-8.6-2.87-12.89a9,9,0,0,1-10.09-8.25c-1.05-.44-3.12.62-3.68,1.81,3.77,5.68-4.86,17.09-11,15.46-1.41,1.41-4.83,1.3-6.83-.31H101l-.12-.68-.14.22-6.59-4.22-.16.5-5.25-4.54c-4.57,1.67-5.09,8.4-9.37,10.92-3.69,1.79-8,3.21-11.74,5-2.61,6.55-2.49,14.92-7.87,19.72l-1.25,4.6-.18-.06c-2,10.49-4,21-6.08,31.63-2.6-1.33-3.12,3.22-4,4.8A37.86,37.86,0,0,0,42,217.35l-1.37-.25-1.43,1-1.13-1.74c-3-.26-5.4,4-8,1.84l-.21-2.3c13.82-1.1,21.43-12.88,23.42-26h-.08c1.48-6.61,2.71-13.08,4.35-19.57h-.06l.33-3.06-.06,0c-.24-1.87.6-3.51,1.3-5.32l0,0,3-8.44c-10.42,4.73-18.68,11.91-29.45,16.3l-1.62-.15-.72-3-.79-.64-.07-1.35-.66-.38c-4.41-6.85-.63-13.64.39-20.34C34.87,133.83,44,124.06,56.7,125c3.77-4.54,8.09-7.2,14.2-6.93,2.45-6.14,9,.12,12.6,2.17l0,.07,2.39,1.54.31-.13c-.92-4.16,2.55-6.27,5.65-7.59C84,104,76.5,93.76,64.81,88c-6.88,6-14.37,12.18-22.55,16.42l-.7-.56c-7.66,2.47-12,10.25-18.56,14.76l.36.31c-.93-.06-1.68.23-2.75-.46l-1.25,1.13-1.62-.13-.68,1.43-2-.35,0-.11A98.44,98.44,0,0,1,3.65,118l.89-.93c-.74-.94-1.5-.92-2-.56l-2-.37a5.73,5.73,0,0,1,.78-3L3,111.86a28,28,0,0,0,18.84,3.88c12.3-10.13,24-20.06,38.2-27.64l.16.25c2.62-1.74,5.07-3.77,8.57-4.45,14.09,9.13,23.8,26.95,39,33C106.05,108.68,110,102,116.4,97.1c8-7.46,15.73-19.34,27.09-21.24,7-9.16,19.46-11.55,30.25-10.32,6.11-17.49,27.69-16.63,43.07-16l-.34-.66C219.05,46.6,222,44,225.73,44.3ZM171.74,96c5.69-5.39,13.27-8.17,19.45-12.52-4.32-1.89-11-2-12.09-7.35a19.57,19.57,0,0,0-4.61,2.33c-1.75,3.23-2.11,7.41-3.26,11C169,91.35,169.82,94.22,171.74,96ZM95.29,129.32v.52c4.84,3,9.06,6.56,14.59,8.32.72-2.92,1.34-5.49,1.92-7.87-1.19-.88-2.13-1.55-3.23-2.36h-1.77C103.6,123.29,99.05,127.71,95.29,129.32ZM245.43,74.94c-2.75-3.53-7.06-5.52-9.27-.34A27.86,27.86,0,0,0,245.43,74.94Z"/><path class="cls-1" d="M215.76,3.67l-.22.71c15-3.31,36.14-7.9,45.19,8.26,10.42-3.09,23.11-2.9,31.58,4.91,11.52-.1,21.16,10.26,30.37,16.21,7.13,3.73,12.2,9.61,11.94,18,13.94-8.57,20.4-27.8,32.69-39.24,3.56.06,6.33,1.64,9.21,2.89l.12-.28c15.3,5,28.55,12.76,42.42,20.59a28,28,0,0,0,17.88-7.09l1.87.92a5.71,5.71,0,0,1,1.29,2.86l-1.88.71c-.6-.26-1.35-.14-1.91.91l1,.76a100.29,100.29,0,0,1-10.81,4.39l0,.1-1.93.7-.91-1.29-1.58.42-1.42-.91c-.94.87-1.73.72-2.64.93l.31-.36c-7.29-3.3-12.87-10.21-20.84-11.31l-.6.66c-8.79-2.75-17.24-7.51-25.06-12.25-10.51,7.7-16.08,19.13-22,30.4,3.28.76,7.06,2.23,6.88,6.49l.33.07,2.08-1.93,0-.06c3.23-2.65,8.55-9.94,12-4.32,6-1.33,10.68.54,15.18,4.35,12.33-3.1,23,4.94,30.54,13.85,2.16,6.43,7.06,12.45,3.91,20l-.58.48.16,1.35-.67.76-.19,3-1.57.43c-11.37-2.45-20.75-8.09-31.84-10.94l4.39,7.8,0,0c1,1.66,2.12,3.13,2.2,5l-.05,0,.86,3-.06,0c2.74,6.11,5.08,12.26,7.68,18.52H401c4.24,12.58,13.78,22.87,27.58,21.55l.2,2.3c-2.23,2.55-5.36-1.19-8.24-.42l-.81,1.91-1.59-.74-1.3.49a37.89,37.89,0,0,0-7.55-6.92c-1.15-1.4-2.46-5.79-4.79-4-3.86-10.13-7.67-20.11-11.48-30.09l-.17.09-2-4.31c-6.12-3.79-7.47-12-11.17-18.06-4-1.14-8.49-1.79-12.44-2.91-4.65-1.74-6.33-8.27-11.12-9.13l-4.39,5.38-.23-.46-5.76,5.3-.18-.19v.69l-4.34.76c-1.69,1.94-5,2.65-6.68,1.5-5.75,2.66-16.23-7.07-13.5-13.32-.76-1.07-3-1.75-3.94-1.14a9,9,0,0,1-8.5,9.88c-.93,4.51-1.52,8.61-.59,13.19-.18,4.46-3.93,7.57-4.32,12-.1,1.49-.5,3.06-2.25,3.65-1.22,8.62-3,17.56-6.17,25.84l.8,1.57-1.4.36.11,2.1c-1.47,1.18-4.09,4.47-3.66,5.8l-.69.3.1,1.15-.25-.14a32.71,32.71,0,0,0-4.35,8.78l.38.54c-.9,1.93-2.42,3.6-2.39,5.94a6.88,6.88,0,0,0-4,3.72l-2.74.23-.94-.77-1.31,1-.44,2.14-1.35-.17-1.4.73-1-.18-.53-1.18.33-.8a4,4,0,0,1-.28-2.94c2.38-2.17,6.73-1.62,8.2-5.23h1l-.06-1.15c3.05-2.07,3.71-5,6-7.88,3.81-3.46,4.12-9.44,5.35-14.21,1.59-9.25,9.62-19.51,6.4-28.63,8.13-7.41,4.05-19.32,9.43-27.59-3.45-2.9.34-7.76.49-11.67l-.62-1c-12.46-.4-16.24-14.83-24.93-21.14-1,6.37,5.1,17.91-1.92,21.11,1.24,4.79-3.43,7.29-5.6,10.76-2.35,4.07-4.74,8.3-9.2,10.38-8.74,4.53-18.91,6-27,12h.33c.82,8.76-3.89,17-3.7,25.38l-1,.68-1.35-.27c-3.31,4.78.92,10.21-.83,15.58-2.49,2.74-2.87,5.58-6.55,8.49l-2.08-.1-2,1.87-2.15-1.14-.21-1.21,1.22-1.85c3.8-.77,5.77-2.08,5.93-4l.69-.31-.19-.17,2.1-2.65c-3.26-15.42,5.38-30.22,8.16-44.64.5-1.74,2.79-1.7,2.92-3.57a3.57,3.57,0,0,0,3.18-2.2h1.39l-.07-3.31,2-.93,0-1.23c4.51.52,9.74.94,13.44-2.12l0,.09c6.36-4.4,6.75-13.78,9.59-20.44C260,50.3,235.38,24.5,238.4,46.48a138.65,138.65,0,0,0-2.77,28.86c-1.95-.5-.85-3.34-2.67-4.43-3,3.68-2.46,7.77-1.89,11.62a11.08,11.08,0,0,0-1.16,5.55l-.32-.09c-1.11,5.4-4.12,10.89-9.52,12.85l-1.34-.83c-1.22.61-2.43,1.21-3.75,1.85l-.33-1.87,1.64-1.92c11.65-.46,9.05-15.67,10.51-23.73,4.61-12.17,5.61-25.46,9.76-38.3-9.3-.88-19.08-1.06-27.68,1.8-3.67-.3-7.16,2.21-7.16,5.95-23.33-10.49-47.24,7.08-69.35,13.64-8.39,3.73-14,11.59-22.44,15-.19-.14-.66-.17-.81-.49,5.06-8.59,15.78-13.35,24.15-17.82,1.86-.53,4.09-.51,5.21-2,3.49-.81,6.63-1.91,8.05-3.28,9.19-1.78,17.81-7.14,27.25-8.67l.85-.91,1.17.3,1.09-1.11C167.52,34.92,154,35,148.22,26.33l.34-.26,1.74.51.78-.39c11.83,5.46,31,13.12,41.82,3.12l0-.39c-2.68-1.21-5.6-1.57-8.44-2.25l0,.19-1-.48c-9.39-2.22-19.58-3.85-28.08-8.32L153.63,18l-.3-1.7c5.53-1.11,10.24,2.19,15.7,2.34l0,.31c10.87.36,23.12,5.68,33.59.76,3.44-4.72,11.57-6.29,10.84-13.07-2.92-9.29-14.27-.32-20.44.72l-1.58-.77-3.58,1v0c-6.57,1.1-13.18,1.81-19.7,3.49l-.8-.45,0,.23-4.92.87c-4,.76-8,1.31-11.81,3.14-3.67,1.13-7.45,4.22-10.18,7l-1.34-.07-.28.76c-5.49-1,4-7.22,6-8.09l0-.1L147.15,13l1,.34L148,13c6-2.83,12.5-3.17,19-4.3L167,9c.94-.74,2-.58,2.91-.83l0-.07h2.22c7-1.55,14.59-2.74,21.39-4.44,4.35-.84,8.33-1.07,12.3-2.94C209.41-.23,212.81,1.85,215.76,3.67Zm51.58,32c-1.75-3.32-2.83-7.38-5.11-10.25a19.52,19.52,0,0,0-4.94-1.5c-.16,5.49-6.72,6.73-10.63,9.34,6.83,3.21,14.78,4.63,21.32,9C269.58,40.21,269.87,37.23,267.34,35.7Zm70.13,26.76-1.73.31L333,65.65l3.26,7.42c5.14-2.69,8.68-6.94,12.93-10.73l-.09-.51C345.08,60.9,339.83,57.33,337.47,62.46ZM200.83,32.4c-3.07-4.72-7-2-9.07,1.94A27.57,27.57,0,0,0,200.83,32.4Z"/><path class="cls-2" d="M400.47,104.58c3.71,1.46,7.33,1.44,11.3,1.94,6.25,1.14,13.18,1.78,19.61,2.77l2-.13v.06c.81.17,1.79,0,2.68.58l0-.31c5.89.65,11.82.58,17.39,2.79l-.06.31.87-.36,2.18,1,0,.09c1.88.66,10.83,5.73,5.93,7l-.3-.67-1.21.15c-2.63-2.37-6.23-5-9.61-5.76-3.57-1.43-7.19-1.69-10.87-2.15l-4.5-.5v-.22l-.7.46c-6-1.14-12-1.4-18-2v0l-3.29-.64-1.38.79c-5.65-.59-16.43-8-18.54.53-.26,6.18,7.18,7.13,10.57,11.19,9.76,3.84,20.53-1.68,30.34-2.63l-.05-.29c4.92-.45,9-3.71,14.06-3l-.17,1.55-1.59.2c-7.43,4.54-16.55,6.61-24.91,9.16l-.86.49-.05-.17c-2.53.78-5.15,1.28-7.5,2.52l0,.36c10.37,8.41,27.27.37,37.66-5.25l.73.3,1.54-.56.32.22c-4.73,8.21-17,8.89-25.23,12.6l1.05.94,1-.34.82.77c8.63.84,16.74,5.19,25.15,6.27,1.37,1.15,4.27,2,7.48,2.49,1.1,1.3,3.11,1.15,4.83,1.52,7.83,3.56,17.8,7.24,22.88,14.72-.11.3-.53.35-.7.49-7.81-2.58-13.37-9.36-21.17-12.25-20.39-4.65-43-19.15-63.54-8.31-.21-3.38-3.52-5.45-6.81-5-7.95-2.1-16.79-1.36-25.15,0,4.5,11.38,6.17,23.35,11.05,34.09,1.79,7.2.33,21.11,10.89,20.86l1.59,1.63-.19,1.72-3.5-1.46-1.16.83c-5-1.46-8-6.26-9.36-11.07l-.28.1a10,10,0,0,0-1.37-4.95c.28-3.52.53-7.25-2.39-10.41-1.58,1.1-.43,3.6-2.15,4.17a126,126,0,0,0-4.19-26c1.46-20.05-19.35,4.72-26.95,7.51,2.95,5.85,3.85,14.32,9.86,17.93l0-.08c3.53,2.55,8.24,1.87,12.29,1.13l0,1.12,1.87.72.13,3,1.26-.08a3.22,3.22,0,0,0,3,1.8c.22,1.69,2.29,1.52,2.84,3.06,3.36,12.88,12,25.77,10,39.91l2.06,2.28-.17.17.64.23c.26,1.71,2.12,2.79,5.6,3.26l1.21,1.61-.12,1.1-1.88,1.16-1.93-1.58-1.88.22c-3.49-2.43-4-5-6.41-7.31-1.9-4.75,1.61-9.91-1.66-14l-1.2.32-.9-.56c-.31-7.6-5.06-14.77-4.82-22.75l.29,0c-7.64-5-16.92-5.71-25.09-9.3-4.15-1.62-6.57-5.31-8.92-8.86-2.17-3-6.54-5-5.7-9.41-6.53-2.48-1.65-13.28-3-19-7.48,6.22-10.07,19.49-21.32,20.57l-.5,1c.36,3.53,4.07,7.71,1.12,10.53,5.35,7.17,2.35,18.18,10.14,24.42-2.39,8.43,5.47,17.24,7.45,25.52,1.39,4.24,2,9.64,5.67,12.55,2.2,2.49,3,5.08,5.84,6.78l0,1,.9-.05c1.53,3.18,5.44,2.43,7.72,4.26a3.61,3.61,0,0,1-.09,2.67l.35.71-.42,1.09-.88.23-1.31-.58-1.22.23-.52-1.92-1.25-.8-.8.75-2.49-.05a6.21,6.21,0,0,0-3.83-3.13c-.11-2.12-1.58-3.54-2.5-5.24l.31-.51a29.7,29.7,0,0,0-4.44-7.68l-.22.13,0-1-.65-.24c.32-1.23-2.24-4-3.64-5l0-1.9-1.29-.25.63-1.47a106.68,106.68,0,0,1-7.08-23c-1.61-.43-2.07-1.82-2.24-3.17-.61-4-4.19-6.55-4.61-10.57.57-4.2-.2-7.87-1.3-11.9a8.17,8.17,0,0,1-8.27-8.45c-.9-.49-2.87.25-3.49,1.27,2.83,5.49-6.09,14.91-11.44,12.83-1.42,1.13-4.49.69-6.13-1l-4-.44,0-.62-.15.18-5.52-4.45-.19.43-4.28-4.62c-4.28,1-5.42,7.07-9.53,8.91-3.5,1.24-7.53,2.09-11.08,3.35-3,5.65-3.74,13.21-9.06,17l-1.59,4-.15-.07c-2.87,9.25-5.73,18.5-8.64,27.89-2.21-1.46-3.14,2.59-4.1,3.93a34.14,34.14,0,0,0-6.43,6.7l-1.2-.37-1.39.76-.85-1.68c-2.65-.53-5.26,3-7.43.86l0-2.1c12.56.4,20.59-9.47,23.69-21.09h-.07c2-5.81,3.75-11.51,5.87-17.2h-.05l.61-2.73-.05,0c0-1.71.89-3.1,1.69-4.66l0,0,3.51-7.31c-9.86,3.22-18,8.87-28.16,11.75l-1.44-.3-.36-2.75-.65-.65.07-1.22-.55-.41c-3.29-6.62.8-12.35,2.38-18.29,6.26-8.5,15.48-16.39,26.82-14.3,3.84-3.72,8-5.68,13.48-4.83,2.82-5.28,8.06,1,11.13,3.22l0,0,2,1.63.3-.08c-.41-3.85,2.92-5.4,5.85-6.28-6.06-9.85-11.76-19.86-21.71-26.21-6.8,4.74-14.17,9.54-22,12.54l-.58-.57c-7.14,1.46-11.8,8-18.19,11.44l.29.31c-.83-.14-1.53.05-2.43-.69l-1.24.9-1.45-.28-.76,1.22-1.78-.52,0-.1a88.81,88.81,0,0,1-10-3.34l.89-.75c-.57-.92-1.26-1-1.79-.7l-1.74-.54a5.21,5.21,0,0,1,1-2.66l1.64-.94a25.37,25.37,0,0,0,16.59,5.38c12.09-7.9,23.63-15.68,37.18-21.1l.12.25c2.53-1.3,5-2.89,8.16-3.15,11.79,9.63,18.75,26.65,31.86,33.6-.72-7.55,3.52-13.16,9.75-17,8-5.92,16.12-15.86,26.54-16.44,7.21-7.55,18.68-8.46,28.28-6.27,7.25-15.15,26.61-12.22,40.4-10.1l-.23-.63C394.23,106,397.19,103.9,400.47,104.58Zm-53.8,41.14c5.67-4.29,12.77-6,18.77-9.34-3.69-2.13-9.69-2.87-10.15-7.83a18.21,18.21,0,0,0-4.39,1.64c-1.9,2.74-2.64,6.47-4,9.58C344.67,141.3,345.11,144,346.67,145.72Zm-72.21,22.43,0,.47c4.06,3.18,7.5,6.82,12.32,9l2.51-6.91-2.68-2.45-1.59-.17C282.55,163.55,278,167.08,274.46,168.15Zm140.71-34c-2.13-3.46-5.82-5.68-8.32-1.23A25.45,25.45,0,0,0,415.17,134.15Z"/><path class="cls-2" d="M431.55,66l-.27.62c13.88-1.48,33.35-3.51,39.9,12,9.69-1.74,21.1-.3,28,7.58,10.38,1.06,18,11.36,25.74,17.65,6.06,4.07,10,9.87,9,17.37,13.42-6.33,21.16-23,33.38-32.08,3.2.41,5.54,2.1,8,3.52l.14-.24c13.28,6,24.44,14.35,36.16,22.79a25.33,25.33,0,0,0,16.81-4.6l1.6,1a5.13,5.13,0,0,1,.87,2.71l-1.76.45c-.51-.3-1.2-.27-1.82.62l.86.79A88.24,88.24,0,0,1,617.91,119l0,.1-1.81.43-.69-1.25-1.46.21-1.2-1c-.93.69-1.63.47-2.47.57l.31-.3c-6.23-3.69-10.57-10.47-17.64-12.27l-.6.54c-7.65-3.35-14.79-8.49-21.36-13.54-10.24,5.89-16.4,15.63-22.9,25.19,2.88,1,6.14,2.72,5.56,6.54l.28.09,2.07-1.53,0-.06c3.17-2.06,8.7-8.1,11.27-2.69,5.51-.61,9.57,1.55,13.24,5.44,11.42-1.56,20.27,6.74,26.14,15.53,1.3,6,5.12,11.92,1.53,18.37l-.58.39,0,1.22-.68.63-.48,2.72-1.45.24c-10-3.35-17.89-9.37-27.6-13l3.17,7.46,0,0c.73,1.59,1.59,3,1.48,4.73l0,0,.48,2.75h-.06c1.86,5.78,3.35,11.56,5.08,17.45h-.08c2.56,11.76,10.13,22,22.7,22.17L610,208.3c-2.27,2.07-4.72-1.61-7.39-1.2l-.92,1.64-1.35-.82-1.22.31a34.36,34.36,0,0,0-6.11-7c-.91-1.38-1.64-5.46-3.92-4.12-2.47-9.51-4.9-18.88-7.34-28.26l-.16.07-1.4-4.09c-5.14-4-5.52-11.61-8.26-17.39-3.49-1.42-7.47-2.46-10.92-3.86-4-2-4.88-8.09-9.1-9.34l-4.49,4.41-.17-.43-5.72,4.19-.14-.19-.07.62-4,.26c-1.72,1.57-4.81,1.88-6.17.68-5.45,1.83-13.92-8-10.84-13.35-.58-1-2.51-1.88-3.43-1.42a8.17,8.17,0,0,1-8.65,8c-1.29,4-2.22,7.61-1.85,11.83-.61,4-4.3,6.43-5.09,10.35-.23,1.33-.75,2.7-2.39,3.06A107.16,107.16,0,0,1,490.83,185l.56,1.5-1.3.18-.11,1.91c-1.44.91-4.13,3.61-3.87,4.85l-.66.21,0,1-.22-.15a29.92,29.92,0,0,0-4.79,7.47l.29.53c-1,1.65-2.54,3-2.75,5.12a6.23,6.23,0,0,0-4,3l-2.48-.07-.77-.78-1.29.74-.6,1.89-1.21-.29-1.33.52-.88-.27-.37-1.1.38-.7a3.63,3.63,0,0,1,0-2.67c2.37-1.72,6.23-.79,7.91-3.9l.9.09.06-1c3-1.56,3.84-4.11,6.15-6.5,3.78-2.74,4.66-8.1,6.24-12.27,2.37-8.18,10.63-16.62,8.63-25.15,8.07-5.87,5.58-17,11.25-23.93-2.81-2.95,1.09-6.95,1.61-10.46l-.45-1c-11.19-1.6-13.16-15-20.35-21.54-1.58,5.64,2.8,16.65-3.85,18.83.64,4.44-3.81,6.22-6.12,9.14-2.51,3.43-5.1,7-9.32,8.42-8.33,3.22-17.63,3.51-25.5,8.14l.29,0c-.13,8-5.2,14.92-5.86,22.5l-.93.51L435,169.4c-3.46,4-.2,9.29-2.3,13.95-2.53,2.22-3.15,4.74-6.75,7l-1.87-.3-2,1.48c-.59-.39-1.2-.81-1.82-1.24l-.07-1.11,1.28-1.55c3.5-.31,5.41-1.3,5.75-3l.64-.21-.15-.17,2.15-2.18c-1.39-14.22,7.87-26.7,11.82-39.41.62-1.51,2.68-1.25,3-2.92a3.25,3.25,0,0,0,3.09-1.66l1.25.13.27-3,1.91-.63.08-1.12c4,.92,8.69,1.82,12.32-.56l0,.08c6.17-3.33,7.46-11.74,10.68-17.46-7.46-3.13-27.1-28.84-26.57-8.74a126,126,0,0,0-5.39,25.73c-1.7-.64-.42-3.09-2-4.25-3.06,3-3,6.75-2.86,10.28a10,10,0,0,0-1.6,4.88l-.28-.11c-1.54,4.75-4.8,9.4-9.86,10.62l-1.12-.88-3.57,1.3-.11-1.73,1.67-1.56c10.54.75,9.72-13.21,11.84-20.33,5.37-10.5,7.6-22.38,12.62-33.54-8.29-1.72-17.09-2.86-25.12-1.14-3.27-.63-6.67,1.28-7,4.65-20-11.78-43.27,1.66-63.85,5.36-7.93,2.53-13.8,9-21.72,11.26-.16-.15-.57-.22-.67-.52,5.41-7.24,15.55-10.46,23.54-13.65,1.72-.29,3.72,0,4.89-1.29,3.22-.38,6.16-1.06,7.58-2.15,8.46-.69,16.76-4.65,25.42-5.09l.86-.74,1,.39,1.1-.89c-8.09-4.09-20.27-5.33-24.63-13.76l.34-.19,1.51.62.74-.27c10.12,6.1,26.63,14.92,37.38,7l.06-.35c-2.29-1.36-4.89-2-7.38-2.87l-.05.17-.84-.53c-8.24-2.94-17.25-5.43-24.47-10.3l-1.57-.28L374,71.07c5.1-.45,9,3,13.92,3.67l-.07.29c9.76,1.4,20.26,7.42,30.19,4,3.57-3.9,11.05-4.51,11.07-10.69-1.71-8.67-12.83-1.71-18.49-1.39l-1.34-.85-3.32.49v0c-6,.33-12.05.31-18.09,1.17l-.68-.48v.21l-4.52.29c-3.7.29-7.32.38-10.95,1.65-3.42.66-7.13,3.06-9.87,5.3l-1.2-.2-.33.66c-4.84-1.46,4.34-6.11,6.24-6.68l0-.1,2.23-.9.85.4,0-.32c5.66-1.94,11.58-1.6,17.5-2v.31c.92-.57,1.89-.31,2.71-.45v-.06l2,.23c6.47-.7,13.42-1,19.71-1.87,4-.32,7.61-.13,11.38-1.42C426.22,61.83,429.08,64,431.55,66Zm43.28,34c-1.25-3.16-1.82-6.93-3.58-9.75a18.18,18.18,0,0,0-4.31-1.84c-.69,4.94-6.72,5.39-10.51,7.35,5.84,3.58,12.86,5.66,18.32,10.2C476.39,104.27,477,101.62,474.83,100Zm60.51,31.12-1.59.1L531,133.52l2.19,7c4.91-1.91,8.52-5.39,12.72-8.38l0-.47C542.35,130.45,538,126.71,535.34,131.1ZM415.23,90.37c-2.29-4.56-6.08-2.51-8.36.84A25,25,0,0,0,415.23,90.37Z"/><path class="cls-1" d="M559.35,47.31c4.24,1.15,8.2.69,12.62.76,7,.49,14.66.34,21.84.66l2.19-.4v.07c.91.09,2-.26,3,.31v-.34c6.54,0,13-.8,19.41.94l0,.35.91-.5,2.51.84v.1c2.14.5,12.57,5,7.35,6.92l-.41-.7-1.31.3c-3.17-2.27-7.43-4.66-11.24-5.14-4.08-1.13-8.09-1-12.17-1h-5l0-.23-.72.58c-6.71-.52-13.34-.07-20,0v0l-3.68-.3-1.42,1c-6.26.05-19-6.83-20.26,2.84.46,6.8,8.74,6.94,13,11,11.16,3,22.3-4.34,32.95-6.58l-.1-.3c5.35-1.1,9.41-5.16,15.06-5v1.73l-1.72.41c-7.6,5.88-17.35,9.26-26.21,13.07l-.88.65-.08-.19c-2.67,1.17-5.49,2-7.91,3.68l.09.39c12.4,8,29.94-2.91,40.65-10.34l.84.25,1.62-.8.38.19c-4.2,9.58-17.52,11.81-26.13,16.89l1.26.9,1.1-.5,1,.75c9.57-.13,19,3.65,28.34,3.81,1.65,1.1,4.93,1.64,8.5,1.83,1.37,1.28,3.56.87,5.48,1.08,9,2.94,20.4,5.77,26.88,13.35-.09.34-.54.46-.71.63-8.88-1.89-15.8-8.64-24.7-10.87C618.63,87.74,592,74.6,570.88,89c-.65-3.69-4.52-5.55-8.08-4.62-9-1.32-18.57.55-27.58,3,6.32,11.93,9.62,24.85,16.26,36,2.85,7.68,2.93,23.11,14.48,21.55l1.95,1.6v1.9l-4-1.17-1.17,1c-5.66-1-9.58-5.88-11.61-11l-.3.14a11.1,11.1,0,0,0-2.1-5.26c-.12-3.9-.3-8-3.88-11.12-1.61,1.39,0,4-1.86,4.83A137.79,137.79,0,0,0,535.22,98c-.83-22.18-20.64,7.51-28.63,11.5,4,6.06,6,15.23,13,18.46l0-.09c4.17,2.36,9.25,1,13.6-.25l.17,1.22,2.15.56.5,3.28,1.37-.25a3.59,3.59,0,0,0,3.52,1.62c.44,1.82,2.7,1.38,3.49,3,5.24,13.72,16.32,26.79,15.79,42.55l2.53,2.25-.16.2.73.18c.49,1.84,2.66,2.79,6.54,2.89.47.5.95,1,1.52,1.61V188l-1.92,1.5-2.31-1.5-2,.47c-4.13-2.24-5-5-7.93-7.23-2.65-5,.57-11.06-3.52-15.2l-1.28.5-1-.5c-1.27-8.3-7.34-15.58-8.05-24.36l.32-.07c-9-4.54-19.25-4.21-28.64-7.15-4.75-1.27-7.85-5-10.86-8.62-2.75-3-7.78-4.69-7.39-9.63-7.47-1.93-3.43-14.36-5.56-20.46-7.46,7.73-8.68,22.6-20.88,25.15l-.43,1.12c.83,3.82,5.4,8,2.51,11.4,6.73,7.22,4.78,19.65,14.08,25.54-1.6,9.54,8.09,18.25,11.27,27.08,2,4.49,3.38,10.32,7.74,13.07,2.72,2.46,3.87,5.21,7.23,6.72l.14,1.15,1-.17c2.07,3.3,6.26,2,9,3.73a4,4,0,0,1,.23,2.94l.47.74-.33,1.24-.94.36-1.51-.48-1.31.4-.8-2-1.46-.73-.8.92-2.73.25a6.86,6.86,0,0,0-4.58-3c-.38-2.31-2.16-3.69-3.38-5.44l.28-.6a32.59,32.59,0,0,0-5.81-7.88l-.22.17-.1-1.15-.74-.17c.2-1.39-3-4.17-4.6-5.08l-.26-2.08-1.44-.12.51-1.68c-4.58-7.6-7.86-16.1-10.56-24.38-1.82-.28-2.5-1.75-2.85-3.21-1.14-4.25-5.38-6.67-6.33-11,.11-4.67-1.17-8.6-2.87-12.89a9,9,0,0,1-10.09-8.25c-1.05-.44-3.12.62-3.68,1.81,3.77,5.68-4.86,17.08-11,15.46-1.41,1.41-4.83,1.3-6.83-.32h-4.41l-.12-.67-.14.22-6.59-4.22-.16.49-5.25-4.53c-4.57,1.67-5.09,8.4-9.37,10.92-3.69,1.78-8,3.21-11.74,5-2.61,6.56-2.49,14.93-7.87,19.73l-1.25,4.59-.18-.06c-2,10.5-4,21-6.08,31.63-2.6-1.32-3.12,3.23-4,4.81a37.86,37.86,0,0,0-6.23,8.13l-1.37-.25-1.43,1-1.13-1.75c-3-.25-5.4,4-8,1.85l-.21-2.3c13.82-1.1,21.43-12.89,23.42-26h-.08c1.48-6.61,2.71-13.08,4.35-19.57h-.06l.33-3.06-.06,0c-.24-1.87.6-3.51,1.3-5.32l0,0,3-8.44c-10.42,4.73-18.68,11.92-29.45,16.31l-1.62-.15-.72-3L363,169l-.07-1.35-.66-.38c-4.41-6.86-.63-13.64.38-20.34,5.84-10.08,15-19.85,27.67-18.94,3.77-4.54,8.09-7.2,14.2-6.93,2.45-6.14,9,.12,12.59,2.17l0,.07,2.39,1.54.31-.13c-.92-4.16,2.55-6.27,5.65-7.59-7.83-10.06-15.3-20.34-27-26.1-6.88,6-14.37,12.18-22.55,16.41l-.7-.55c-7.66,2.47-12,10.25-18.56,14.76l.36.3c-.93-.05-1.68.24-2.75-.46L353,122.61l-1.62-.14-.68,1.44-2-.35,0-.12A96.63,96.63,0,0,1,337.27,121l.89-.93c-.74-.94-1.5-.92-2.05-.56l-2-.37a5.76,5.76,0,0,1,.78-3l1.68-1.22a28,28,0,0,0,18.84,3.88c12.3-10.13,24-20.06,38.2-27.65l.16.26c2.62-1.74,5.07-3.77,8.57-4.45,14.09,9.13,23.8,26.94,39,33-1.71-8.18,2.26-14.85,8.64-19.76,8-7.47,15.73-19.34,27.09-21.25,7-9.15,19.45-11.54,30.25-10.31,6.11-17.49,27.69-16.63,43.07-16l-.34-.66C552.67,49.6,555.66,47,559.35,47.31ZM505.36,99c5.69-5.39,13.27-8.17,19.44-12.52-4.31-1.89-11-2-12.08-7.35a19.57,19.57,0,0,0-4.61,2.33c-1.75,3.23-2.11,7.41-3.26,11C502.63,94.35,503.44,97.23,505.36,99Zm-76.45,33.37v.51c4.84,3,9.06,6.57,14.59,8.33.72-2.92,1.34-5.49,1.92-7.88l-3.23-2.35h-1.77C437.22,126.3,432.67,130.72,428.91,132.33ZM579.05,78c-2.75-3.53-7.06-5.52-9.27-.34A27.86,27.86,0,0,0,579.05,78Z"/></g></g></svg>