<svg xmlns="http://www.w3.org/2000/svg" xmlns:xlink="http://www.w3.org/1999/xlink" viewBox="0 0 44 60" version="1.1" x="0px" y="0px"><title>7 -Fire Ant- (Outline)</title><desc>Created with Sketch.</desc><g stroke="none" stroke-width="1" fill="none" fill-rule="evenodd"><g transform="translate(-845.000000, -352.000000)" fill="#000000"><g transform="translate(844.000000, 352.000000)"><path d="M21.916,13 C19.757,13 18,14.757 18,16.917 L18,19.083 C18,21.243 19.757,23 21.916,23 L24.084,23 C26.243,23 28,21.243 28,19.083 L28,16.917 C28,14.757 26.243,13 24.084,13 L21.916,13 Z M24.084,25 L21.916,25 C18.654,25 16,22.346 16,19.083 L16,16.917 C16,13.654 18.654,11 21.916,11 L24.084,11 C27.346,11 30,13.654 30,16.917 L30,19.083 C30,22.346 27.346,25 24.084,25 L24.084,25 Z"></path><path d="M23,25 C20.794,25 19,26.346 19,28 C19,29.654 20.794,31 23,31 C25.206,31 27,29.654 27,28 C27,26.346 25.206,25 23,25 M23,33 C19.691,33 17,30.757 17,28 C17,25.243 19.691,23 23,23 C26.309,23 29,25.243 29,28 C29,30.757 26.309,33 23,33"></path><path d="M23,42 C19.691,42 17,44.691 17,48 L17,52 C17,55.309 19.691,58 23,58 C26.309,58 29,55.309 29,52 L29,48 C29,44.691 26.309,42 23,42 M23,60 C18.589,60 15,56.411 15,52 L15,48 C15,43.589 18.589,40 23,40 C27.411,40 31,43.589 31,48 L31,52 C31,56.411 27.411,60 23,60"></path><path d="M4,60 C3.744,60 3.488,59.902 3.293,59.707 C2.902,59.316 2.902,58.684 3.293,58.293 L6.079,55.507 L9.02,40.804 C9.08,40.501 9.276,40.244 9.553,40.105 L19.553,35.105 C20.046,34.858 20.647,35.059 20.895,35.553 C21.142,36.047 20.941,36.647 20.447,36.895 L10.885,41.676 L7.98,56.196 C7.941,56.39 7.847,56.567 7.707,56.707 L4.707,59.707 C4.512,59.902 4.256,60 4,60"></path><path d="M6,34 L2,34 C1.447,34 1,33.552 1,33 C1,32.448 1.447,32 2,32 L5.723,32 L10.485,29.143 C10.641,29.049 10.818,29 11,29 L18,29 C18.553,29 19,29.448 19,30 C19,30.552 18.553,31 18,31 L11.277,31 L6.515,33.857 C6.359,33.951 6.182,34 6,34"></path><path d="M18.001,27 C17.936,27 17.87,26.994 17.804,26.98 L12.804,25.98 C12.544,25.929 12.315,25.775 12.168,25.555 L8.397,19.899 L3.804,18.98 C3.544,18.929 3.315,18.775 3.168,18.555 L1.168,15.555 C0.861,15.095 0.985,14.474 1.445,14.168 C1.905,13.86 2.526,13.986 2.832,14.445 L4.603,17.101 L9.196,18.02 C9.456,18.071 9.685,18.225 9.832,18.445 L13.603,24.101 L18.196,25.02 C18.737,25.128 19.089,25.655 18.98,26.196 C18.886,26.671 18.468,27 18.001,27"></path><path d="M27.999,27 C27.532,27 27.114,26.671 27.02,26.196 C26.911,25.655 27.263,25.128 27.804,25.02 L32.397,24.101 L36.168,18.445 C36.315,18.225 36.544,18.071 36.804,18.02 L41.397,17.101 L43.168,14.445 C43.474,13.986 44.094,13.86 44.555,14.168 C45.015,14.474 45.139,15.095 44.832,15.555 L42.832,18.555 C42.685,18.775 42.456,18.929 42.196,18.98 L37.603,19.899 L33.832,25.555 C33.685,25.775 33.456,25.929 33.196,25.98 L28.196,26.98 C28.13,26.994 28.063,27 27.999,27"></path><path d="M22,13 C19.794,13 18,11.206 18,9 C17.986,8.875 17.865,7.022 18.928,5.868 C19.45,5.3 20.167,5 21,5 C21.553,5 22,5.448 22,6 C22,6.552 21.553,7 21,7 C20.648,7 20.494,7.119 20.399,7.222 C20.026,7.628 19.967,8.556 19.996,8.917 C20,10.103 20.897,11 22,11 C22.553,11 23,11.448 23,12 C23,12.552 22.553,13 22,13"></path><path d="M42,60 C41.744,60 41.488,59.902 41.293,59.707 L38.293,56.707 C38.153,56.567 38.059,56.39 38.02,56.196 L35.115,41.676 L25.553,36.895 C25.059,36.647 24.858,36.047 25.105,35.553 C25.354,35.059 25.953,34.858 26.447,35.105 L36.447,40.105 C36.724,40.244 36.92,40.501 36.98,40.804 L39.921,55.507 L42.707,58.293 C43.098,58.684 43.098,59.316 42.707,59.707 C42.512,59.902 42.256,60 42,60"></path><path d="M44,34 L40,34 C39.818,34 39.641,33.951 39.485,33.857 L34.723,31 L28,31 C27.447,31 27,30.552 27,30 C27,29.448 27.447,29 28,29 L35,29 C35.182,29 35.359,29.049 35.515,29.143 L40.277,32 L44,32 C44.553,32 45,32.448 45,33 C45,33.552 44.553,34 44,34"></path><path d="M23,33 C21.897,33 21,33.897 21,35 L21,38 C21,39.103 21.897,40 23,40 C24.103,40 25,39.103 25,38 L25,35 C25,33.897 24.103,33 23,33 M23,42 C20.794,42 19,40.206 19,38 L19,35 C19,32.794 20.794,31 23,31 C25.206,31 27,32.794 27,35 L27,38 C27,40.206 25.206,42 23,42"></path><path d="M16.999,16.9995 C16.482,16.9995 16.044,16.6015 16.003,16.0765 C15.998,16.0165 15.486,9.9995 12,9.9995 C6.622,9.9995 6.024,1.4275 6.002,1.0625 C5.968,0.5115 6.386,0.0375 6.936,0.0025 C7.476,-0.0375 7.963,0.3855 7.998,0.9375 C8.003,1.0075 8.548,7.9995 12,7.9995 C17.334,7.9995 17.973,15.6005 17.997,15.9245 C18.039,16.4745 17.627,16.9545 17.077,16.9965 C17.051,16.9985 17.024,16.9995 16.999,16.9995"></path><path d="M24,13 C23.447,13 23,12.552 23,12 C23,11.448 23.447,11 24,11 C25.103,11 26,10.103 26,9 C26.025,8.617 26,7.653 25.599,7.22 C25.504,7.118 25.35,7 25,7 C24.447,7 24,6.552 24,6 C24,5.448 24.447,5 25,5 C25.833,5 26.55,5.3 27.072,5.868 C28.135,7.022 28.014,8.875 27.996,9.083 C28,11.206 26.206,13 24,13"></path><path d="M29.001,17 C28.976,17 28.95,16.999 28.925,16.997 C28.374,16.956 27.961,16.475 28.003,15.924 C28.027,15.601 28.666,8 34,8 C37.464,8 37.997,1.008 38.002,0.938 C38.036,0.386 38.513,-0.036 39.063,0.002 C39.613,0.037 40.032,0.511 39.998,1.062 C39.976,1.427 39.378,10 34,10 C30.499,10 30.002,16.015 29.997,16.076 C29.957,16.601 29.519,17 29.001,17"></path></g></g></g></svg>