<svg xmlns="http://www.w3.org/2000/svg" xmlns:xlink="http://www.w3.org/1999/xlink" version="1.1" x="0px" y="0px" viewBox="0 0 100 100" enable-background="new 0 0 100 100" xml:space="preserve"><g><path fill="#000000" d="M30.1167,47.80957l3,0.6665C33.18896,48.49219,33.26172,48.5,33.3335,48.5   c0.32422,0,0.63428-0.1582,0.82324-0.43213l3.03467-4.40137h3.78516c-0.38928,0.76257-0.63916,1.61145-0.70947,2.5166   l-1.25043,16.10248l-3.2359,1.56403C35.46973,64,35.2583,64.30029,35.22168,64.64404l-0.94287,8.83691l-2.33057,1.19092   c-0.4917,0.25146-0.68652,0.854-0.43555,1.3457c0.17725,0.34619,0.52783,0.54492,0.8916,0.54492   c0.15283,0,0.30859-0.03516,0.4541-0.10938l2.8125-1.4375c0.30078-0.15381,0.50342-0.44873,0.53906-0.78467l0.94141-8.82227   l1.68604-0.815l-0.77441,9.97272c-0.1377,1.76807,0.37402,4.41553,1.27246,6.58838   c1.16602,2.81885,2.78809,4.44727,4.56689,4.58545c0.08643,0.00684,0.17236,0.00977,0.25781,0.00977   c1.43671,0,2.75012-0.93622,3.85535-2.26965c1.03644,1.40503,2.31696,2.39465,3.79699,2.39465   c4.09181,0,6.68751-7.51514,6.68751-10.6875V64.38068l2.12695,1.02802l0.94141,8.82227   c0.03516,0.33594,0.23828,0.63086,0.53906,0.78467l2.8125,1.4375c0.14551,0.07422,0.30078,0.10938,0.4541,0.10938   c0.36426,0,0.71484-0.19873,0.8916-0.54492c0.25098-0.4917,0.05664-1.09424-0.43555-1.3457l-2.33105-1.19092l-0.94238-8.83691   C62.52051,64.30029,62.30859,64,61.99805,63.84961L58.5,62.15887V46.71875c0-1.09991-0.27173-2.13599-0.7442-3.05225h3.05182   l3.03613,4.40137C64.0332,48.34229,64.34277,48.5,64.66699,48.5c0.07227,0,0.14453-0.00781,0.2168-0.02393l3-0.6665   c0.53906-0.11963,0.87891-0.65381,0.75977-1.19287c-0.12012-0.54004-0.65625-0.87646-1.19336-0.75928l-2.34277,0.52051   l-2.95117-4.2793c-0.18652-0.27051-0.49414-0.43213-0.82324-0.43213h-5.15204c-0.20862-0.1806-0.42542-0.35168-0.65533-0.5058   c0.00598-0.04425,0.02612-0.08356,0.02612-0.12946V39.0835c0-0.1358-0.01147-0.26874-0.02039-0.40234l5.27332-1.07617   c0.26953-0.05518,0.50391-0.21875,0.64941-0.45215c0.14453-0.2334,0.1875-0.5166,0.11719-0.78223l-1.76367-6.70264l3.26562-5.13086   c0.29688-0.46631,0.15918-1.08447-0.30664-1.38086c-0.4668-0.29541-1.08398-0.1582-1.38086,0.30664l-3.5,5.5   c-0.14941,0.23535-0.19434,0.52197-0.12305,0.7915l1.60547,6.10205l-4.29675,0.87689   c-0.43671-1.02191-1.15161-1.89502-2.04572-2.53296c0.09357-0.15222,0.16179-0.32111,0.16179-0.51288v-2.125   c0-1.79987-1.14757-3.32465-2.74437-3.91553c0.97266-2.5799,3.83142-9.27856,8.02368-11.51465   c0.4873-0.25977,0.67188-0.86572,0.41211-1.35303c-0.26074-0.48682-0.86426-0.67285-1.35352-0.41162   c-4.33649,2.31287-7.26782,8.36609-8.57855,11.60217c-1.31067-3.23608-4.24182-9.28931-8.57867-11.60217   c-0.48828-0.26172-1.09424-0.07568-1.35303,0.41162c-0.25977,0.4873-0.07568,1.09326,0.41162,1.35303   c4.19995,2.23999,7.06964,8.98346,8.03436,11.54437c-1.54797,0.61542-2.64863,2.12109-2.64863,3.8858v2.125   c0,0.19165,0.06831,0.36047,0.16182,0.51263c-0.89429,0.63794-1.60938,1.51105-2.04614,2.53302l-4.29584-0.87671l1.60596-6.10205   c0.0708-0.26953,0.02588-0.55615-0.12354-0.7915l-3.5-5.5c-0.29688-0.46582-0.91504-0.60303-1.38086-0.30664   s-0.60303,0.91455-0.30664,1.38086l3.26562,5.13086l-1.76416,6.70264c-0.06982,0.26562-0.02734,0.54883,0.11816,0.78223   c0.14502,0.2334,0.37988,0.39697,0.64893,0.45215l5.27234,1.07599c-0.00891,0.13367-0.02039,0.26666-0.02039,0.40253v1.94775   c0,0.20868,0.07886,0.39148,0.18817,0.55176c-0.05579,0.04688-0.10852,0.0968-0.16278,0.14545   c-0.09802-0.0321-0.19788-0.06195-0.30664-0.06195h-5.5c-0.32861,0-0.63672,0.16162-0.82324,0.43213l-2.95068,4.27881   l-2.34229-0.52002c-0.53857-0.12109-1.07373,0.21973-1.19287,0.75928C29.2373,47.15576,29.57764,47.68994,30.1167,47.80957z    M56.5,46.71875V75.1875c0,3.02002-2.4834,8.6875-4.68751,8.6875c-2.20409,0-4.68749-5.66748-4.68749-8.6875v-28.479   c-0.00049-0.02344-0.01025-2.17188,0.73047-4.69189l3.95312,0.01465c0.00098,0,0.00293,0,0.00389,0   C54.39746,42.03125,56.5,44.13428,56.5,46.71875z M46.81249,31.5625c0-1.20605,0.98146-2.1875,2.18751-2.1875   s2.18749,0.98145,2.18749,2.1875v1.75336c-0.52068-0.14789-1.0678-0.23236-1.63524-0.23236h-1.10449   c-0.56744,0-1.11456,0.08441-1.63527,0.2323V31.5625z M44.44775,39.0835c0-2.20557,1.79443-4,4-4h1.10449   c2.20557,0,3.99951,1.79443,3.99951,4v1.18518c-0.55536-0.14996-1.13617-0.23737-1.73828-0.23743l-4.68457-0.01758   c-0.00146,0-0.00244,0-0.00391,0c-0.02002,0-0.03802,0.008-0.05786,0.00916c-0.922-0.01984-1.80737,0.14935-2.61938,0.47638   V39.0835z M42.26123,46.33838c0.15771-2.03564,1.60742-3.65607,3.47668-4.15234c-0.62549,2.47925-0.61414,4.44446-0.61292,4.53271   V75.1875c0,1.56732,0.63556,4.19342,1.77008,6.45081c-0.91687,1.28668-1.94482,2.18579-2.83746,2.10779   c-0.96143-0.07471-2.03564-1.3291-2.87402-3.35596c-0.77686-1.87793-1.24023-4.20898-1.12646-5.66846L42.26123,46.33838z"></path></g></svg>