<svg xmlns="http://www.w3.org/2000/svg" viewBox="0 0 717.18 198"><defs><style>.cls-1{fill:#c70804;stroke:#c70804;}.cls-1,.cls-3{stroke-miterlimit:10;stroke-width:1px;}.cls-2{fill:none;stroke-linecap:round;stroke-linejoin:round;stroke-width:3.52px;}.cls-2,.cls-3{stroke:#000;}</style></defs><g id="Layer_2" data-name="Layer 2"><g id="Layer_1-2" data-name="Layer 1"><rect class="cls-1" x="0.68" y="0.5" width="716" height="98"/><path d="M278.25,78.38c3.42,5,2.56,9.47,2.6,15.55L282,95.12c3-1.46,2.13-6.06,3.66-9.32l2.17,1.62V98.2l2.47.51c1.65-11.29-2-23.43,1.85-34.16v10c5.18,7.42,2.49,15.79,4,24.86.84-1.27,1.44-1.76,1.44-2.25-.53-4.51,1.9-8.41,1.74-12.81.3-11.45.3-23.31,1.56-34.46v29.3l.66-.12c1.1,3.5,2.19,7,3.3,10.5,4.66-3.17-1.59-21.14,3.12-24.3,0,9.49-1.35,18,4.69,25.7l2.29-6.47.42,0V44.32c3.55-.71.65,22.23,1.54,26.23l1.75,2.31V90.33l2.25,1.9c1.7-1,1.26-2.56,1.26-4,0-13.52,0-26.93,0-40.47C326,50,323,59.43,323.92,63.73c.2,7.05,3,12.2,1.93,20.17a3.77,3.77,0,0,0,1.59-3.78c.63-9.21.54-18.83,1.4-27.84.67,6.24.24,12.32.36,18.64l2.47,1.83c1.23,7.36-.3,14.17,2.49,21.39,3.18-9.08-.7-17.26,1.2-26.18,4.07,2-.25,6.71,3.45,9.55A17,17,0,0,0,344,69.94l2.51,2.83,1-3.17c1.85,7.87,3.31,14.13,4.84,22.21,3.12-4.82,1-9.46,1.57-14.66.65-.71,1.34-1.44,2.19-2.35,2.73,4,.65,9.51,1.26,14.23l1.75,2.25v4.14l1.52,1.43c5.08-7.93,1.14-20.32,3.6-29.19V85l5.22,7.41c.44-8,.87-15.8,1.32-23.83,1.5,2,1.5,2,1.73,5l2.31,2.51c.35,5.73-.3,11.43,1.06,17.25,2.73-9.81-.89-20.91,1.68-30.95,1.72,2,.67,4.77.93,7.26l1.54,2c1.79,6.92.23,13.92,1.9,20.72,2.79-1.08,1.19-3.53,2.26-5.11l1.78-.16c1.16,2.5-.58,5.69,2.08,7.9l2.17-.94c.55-1.07,1.1-2.18,1.69-3.35l2.36,3c6.33-5.72,3.62-13,4.82-21.07,3.9,6.81,1.48,14.57,4.82,21.42,2.54-9.14-.72-19,1.9-28,1.77,4.25.33,9.28.77,14.15,4.17,5.63,2.23,12.15,4,19.27,2.58-4,.49-7.9,2.27-12.23l2.19,1.2c.51,2.5,1,5,1.63,8,4.23-6.16,1.42-15.5,3.41-22.73,1.42,1.15,1.42,1.15,1.46,5.71,2.67,4,4.57,8.33.73,13.39.37,3.34.8,7.16,1.22,11H424v-6l.39,0q1.49-4.23,3-8.46l.54.07V59.17c3.82,6.88,1.47,16.46,2.42,24.43l3.82,5.12c4.52-4.26.18-21.39,3.37-26.23,1.75,9.76.24,19.44.74,29.56l2.77-2.4,1.23,1.77h2.57c1.67-4.07-1-9.24,1.53-13.07l3,8.55,3.49-.74c.21,1.51.39,2.88.6,4.36l1.91.17c3.46-5.14,3.24-10.28,3.91-15.94,3,1.6,1.09,4.32,2.46,6.31l2.18-1.91,1.59,1.33V91.06l4.38,3.38V101l-4.94,3.49-1.32,5-2.48,1.8c-.74,12.49,1.63,25.26-1.17,37.49-1.34-14.19,0-27.91-4.66-42-.93,1.73-1.54,2.85-2.27,4.19-.71-1.32-1.32-2.43-2.08-3.83l-2.07,1.53v9.89l-2.5.49V107.32l-1.36-1.9c-3.57,1.82-2,7.87-5,10.45v-4c-4.1,2.89-.7,22.19-1.76,28.36l-1.43.6c-1.08-11.37,1-22.17-2.59-33.23l-2.52-.33c-2.81,9.89-.08,21-1.95,30.73l-1-.18c-.79-9.75.89-19.68-1.57-30.44-.65,4.44-1.15,7.89-1.81,12.4-2.86-4,.72-7.94-2.79-11.35-.46,12.93-.1,25.88-.27,38.81,0,1.39.52,3-1.69,4-1.62-12.1-.56-24.18-.83-36.35l-1.38-1.45-3.34,4.71c-.7,5.59,1.56,12.59-1.16,18-1.68-10.44,1.94-21.63-1.5-31.2l-1.48.71L409,103.16c-2.47,10.75-.9,22.69-1.82,34.08-4.73-8.85,2.74-22.48-5.52-30.09-1.91,9.52,2.16,20.27-2.12,29,.89-7.5-2.36-14.34-1.75-21.81-.77-1.14-1.49-2.19-2.2-3.25-1.73.84-1.3,2.46-1.31,3.86-.64,11.9,1.51,25.17-1.33,36.18-.61-11.21-.38-22.38-.48-33.63l-2.4-2.59c-.43-2.34-.87-4.73-1.35-7.32l-2.5-2.69V98.7c-3.09,0-2.1,2.45-2.77,4l-2.16.61c-3.58,12.08-1.11,25-2.24,37.42l-1.48-.24c-1.11-6.9,2.52-16.22-2-21.84-.58-.35-.67-1.49-1-2.26-4.24,3.8,1.18,21.53-2.61,25.92-3.51-4.09-.4-21-1.4-27.73h-4.43c0,10,0,19.93,0,30,0,1.39.51,3-1.46,4.06-.73-13.08,0-24.87-.27-38.19L361,112.66c-.11,2.86-.39,5.62-2.81,7.49,0,10.51,0,20.91,0,31.3,0,1.39.51,3-1.43,4.16-1-15.78-.27-31.68-1.47-47.44l-3.63-1.57c-1.23-2,.46-4.45-1.76-6.17-2.14,1.42-1.45,3.67-1.19,5.4,1.4,6.64.06,13.12-.13,19.85-.79,10.94,1.59,22.53-1,33-2.44-21.59.91-43.61-2.82-65.41-2.63,3.08-1.22,5.8-1.59,9.31.13,20.53-.59,41.32-1.19,61.67-4.93-18.05,2.53-38-3.37-56-2,13,.85,25.7-1.47,38.69-4.71-7.82.42-18.09-2.74-26.62-2.48-5,1.68-11.17-3.14-15.1-1.8,8.87,1.91,18.33-2.1,26.58,0-8.12,0-16.23-.05-25l-4.35,3.6c.05,19-.56,38-1.34,56.8-3.41-15.54-.21-33.06-1.32-49.27,0-1.52.62-3.32-1.46-4.34-5.38,11.85-1.79,27.43-4.22,40.13-1.77-.85-1.23-2.49-1.23-3.87-1.5-14.15,3.3-30.32-2.73-43.26h-2.16c-1.68,19.65.72,39.77-1.46,59.63-2.86-10.57-1.25-22.89-1.52-34.05-.05-4.34,2.35-9-1.1-12.81-1.53,3.61-1.49,7.66-4.31,10.37-.05,12.94.65,25.36-1.64,38.18-4.23-20.91,2.88-44.22-1.5-64.73-3,2.4.47,4.91-4.83,7.81-.06,21.32.43,42.61-.84,63.82h-.85c-.05-22.06-1-43.42-1.13-65.68-4.21-1-4.38-4.3-4.33-8.72l-3,.35c-.23,1.52-.4,2.65-.59,3.94l-3,1.32c-2.22,21.16-.06,42.19-1.21,63.39-5.48-18.36-1.13-38.78-2.5-57.93,0-1.64.69-3.6-1.33-4.88l-2.82,2.48h-4.93l-2.47,4c-1.41-3-.06-5.9-1.37-8.91-1.51,1.86-1.28,2.8-1.48,5.09l-5.92-4.93-3.05,3.91-2.21-3.22-4.17.7-3.06,4c-1.93-.6-2.37-2.4-2.92-4.81-1.67,2-1.2,2.69-1.37,5-3.19,0-3.16-4.28-6.18-4.21-1.8,1-3.29,3.8-5.58,3.33-.38-1.38-.75-2.71-1.08-3.87l-9.21,1.15-1.67,3.79c-.58-.76-.93-1.23-1.34-1.79l-2.61.92c-.2-1.57-.38-3-.58-4.56-2.47.44-4.67.84-6.41,2.67l-3.3-1-1.29,3.46-1.85-3.69-1.46,2.12-2.32-.84-2.53,2-6.45-4.85c-.34,1.39-.62,2.54-1,4.12l-3.76-3.06-2.41,4c-2.4-2.47-6.21-2.24-9.16-3.86-2.93.81-1,3.69-2.4,5.32l-5.36-6.31-6.87,3.4L153,105.87l-4.79-1.11V111l-2.77-.92-2,.83c-2.12-1.73-1.37-3.08-1.76-6.27-2,2.48-1.7,3.53-2.54,6.24-6.57-.38-4.29-6.11-5.52-10.61-3.66,1-3.06,4.54-4.31,6.91l-.79-.45c-4.71,20.36-.81,44.86-2.63,66.49l-1.5-.21q0-32.86,0-65.75c0-1.46.68-3.28-1.57-4.18-3.92,5.54-3.19,10.69-4.9,17.31-.63-4.07-1.11-7.16-1.73-11.18l-2.37,3.62-2.09-4-2.9,2h-3.4l-2-2.72-1.94,3c-1.5-1.66.14-3.92-1.84-5.12-2.81,0-3.76,3.2-6.22,4.17-1.64-2.84.76-6.33-2-9-3.71,2.73-2.67,7.73-6.29,11-.69,23.19-1.91,46.49-.35,69.75h-2.3V109l-1.59-1.68-2.27,1-1.75-2.5-2.84-.15-1.77,3.3-2.9.42c-.71,4.63.34,9.28-1.39,13.88-2.27-4.67,1.47-11.65-1.86-15.64l-1.72.81-2.57-3.54H57.6c-1.81,5.41-5,10.31-4.33,17-2.76-4.06-1.14-8.14-2.4-12.48-1.49,2.31-1.41,2.74-2.18,5.39l-2.18-4.5c-.58,4.49-1.06,8.13-1.53,11.76-1.5-1.5-1.5-1.5-1.49-10.24-.37-1.08-1.67-3.43-2.6-3.85-3.41-1.81-2,2-4,2.15l-.63-4.2L35,104.7l-2.64,1-.4-4-2.5-3.3-1.73,1.31v16.94l-2.11.42-1-1.65c-3.51,18.48-.25,38.86-1.38,58,0,1.93.5,3.87-1.74,4.91-.41-23.17.83-46.48-.61-69.58l-5.95.54-2,1.58L9.34,106.6H4.62c-3.09-2.79-4.32-15-3.25-19.06,3.28,4.19,1.93,8.74,3,12.75,3.35-.71,3-4.3,6.38-5.05l2.77,3.6,3.6-3,1.88,2c2.28-12.31,1.29-26.32,1.84-39.18,2.07,4.29,0,13.21.73,19,2.89,2.82,2.89,2.82,4,9.86,1.23-1.37,1.51-1.69,2.77-3.14,2.25,4.48,3,9,6.82,12.72l7-3.46,1.34-4.49c1.36,3.17.45,7,4.89,7.89l2.26-7.64,3.21-1.4c1.31.58,1.88,2.2,2.36,6,2.13,1.18,3.45-.62,5.17-1.75l3.32,4a16.7,16.7,0,0,1,5.66-7.7L71.73,95h3l1.4-4.63c2.56,2.58,3.37,5.34,4.52,8.27,2.82-13.8-1.73-29.47,2-42.92.48,7.57.42,15.09.46,22.81l2.66,2v7.22l1.35,1.23,3-1.07L92.58,90l.33,4.34,5.3,1.48L99.86,95l2,1.59,1.52-.63c2.07,1.27,3.82,3.32,6.82,2.29.33-2-.28-4.35,2.14-5.89l1.14,2.72c4.7-1.85,1.17-7,4.68-9.8v9.66l3,.15c4.69-7.51,1-16.35,3.1-24.73-.72-2.17-1.35-4.91.85-7.58a12.31,12.31,0,0,0,2.9,8.4c-.15,8.1.56,15.59.92,23.92,2.59-1.52,1.11-3.88,2-5.89L134,87.83c2.88,2.83,1.29,6.27,2,9.43,1.23,2.65,4.47.18,6,2.37l2.28-2.91,3.45.94,1.85-6.82a5.7,5.7,0,0,1,1.18,4.61l2.61,1.33L157.07,95l2.38.78c2.16-.79,4.48-1.37,6.82-.09l1.78-1.5L170,96.94c4.07-3.91,3.94.06,6.46-1.39l4.32,1.53L184.08,94c.76,1,1.43,1.82,2.17,2.78l4.07-2.56a15.09,15.09,0,0,1,6.61.87c.26-1.44.53-2.87.9-4.9l2.38,3,1.09-.39,3.64,3.35,3.72-2.18,3.83,3.21c.71-1.73,1.29-3.13,2.06-5l.76,4.13,5.87-3.85c2.12,1.08,2.06,4.17,5,4.5L228.1,95c2.53.71,5.59.35,8.32-.09L239,98.47c4.18.39,4-3.7,6.11-6.48.84,2,1.43,3.38,2,4.66,1.91.76,2.6-1.15,4.26-1.7l4.82,1.14c.91-.65,1.81-1.31,2.91-2.12l2.35,3,6.84-2.07,5.36,3.65,3-4.14V46.83C280.47,56.63,277.25,67.88,278.25,78.38Z"/><path d="M633,106.27l-2.82-.92-2.12-5c-4.75,2.82-4.33,7.25-4.32,11.49-2,1.86-2,1.86-4.14.44-.77-2.43.28-5.11-.76-7.68-2.85,1.38-1.71,4.12-2.66,6.91-1.33-3-2.36-5.24-3.48-7.72-1.1,3.56.68,7.41-1.6,10.94l-2.24-1.5v-4.39l-2.35-2.47c-.57,3.38-1.1,6.53-1.62,9.67-2.29-3.26-.41-7.15-2-10.7-2.42,1.7.2,5-2.55,6.15-1.18-1.7.68-4.21-1.71-5.77-.27.79-.5,1.5-.73,2.16-1.87,1.12-2.58-.75-3.88-1.41l-2,.87-2.07-2.17c-1.11,3.84.19,7.51-1.24,11.71-1.77-3.15-.51-5.84-1.28-8.43l-2.79-.41-1.42-2.29h-3.87c-2,2.41-3.22,5.6-5.08,8.5L572,111.44l-2.52,2.64c-1.79-.78-.81-2.63-1.6-4.13l-1.79-.9c-2.49.64-2.87,2.58-3.62,5a28.66,28.66,0,0,1-4.87-15.33l-.66-.16c-1.55,1.38-.58,3.86-2.05,5.07l-2-.64c-1,14.4-.27,29.18-1.66,43.69-1.38-10.44-2.8-20.89-2.24-31.55l-4.28-3.85c-.46.6-1.1,1.45-1.95,2.55-1.66-3.54-3.19-6.82-4.74-10.14l-2.66-.88-1.83-2.66-2.22,3.74c-.18,12.14.61,25-1.81,36.38-1.93-5.14-.32-10.08-.82-15.47-.73-1.23-1.55-2.58-2.55-4.25v-3.84c-4.29-1.87-3.29-6.39-4.66-9.72h-3l0-.43-2.3.93c-2.24-1.64-2.06-5-5.11-6.24l-4.26,5.67c0,16.25,0,32.07-.13,47.88l-1.16.11C503.58,139.3,507.2,123.2,503,108l-5.74,3.34c-.54,1.61-1.2,3.59-2,5.9l-2.16-2c-.51-2-1-4-1.53-6l-3.54-3.35c-.42,2-.72,3.45-1.08,5.19l-2.11-1.24v-5.48l-4.18-1.49-3.77,1.94c0,12.93,0,25.79-.08,38.71,0,1.38.55,3-1.37,4.19-1.32-12.31.83-25.12-2.51-37.13l-2.8-.94c-.31-1.75-.6-3.43-.93-5.31,1.3-2.22,1.84-5.1,4-7.22C476.15,89,472.49,79,475,70.65c.3,4.57,3.3,9.76,2.87,15.08,3.78,2.82,6.44,4,7,10.5.23,1.72.23,1.72,1.9,3.37L488,97.79h2.43l1.41,1.92,1.67-1.46c.11-2,.2-3.84.31-5.87l6.06,2.78,4.23-4.67V68.32l1.58-.61c.38,4.7-.28,9,2.89,12.88v9.19l2.88-.75,3.21,4.54,3.74-2.07a19.14,19.14,0,0,0,5.54,5.75c1-3.85.07-7.49.87-11.75C526,87.06,526,87.26,527.15,88c1.77-6.42.18-14.41.81-21.35,0-1.4-.47-3,1.2-4,3.39,5.62.34,18.42,1.33,25.7,2.44,1.35,3.16-.73,4.24-1.68.58-1.6-.48-3.47,1.58-4.73,2.4,4.88-.36,13.93,6.59,15.26,3.16-4.76.81-10.84,1.72-16.09,4,2.83.72,14.59,1.74,19.65,1.42.67,1.51-.07,2.61-.85.12-9-.27-16.85.26-26.1,2.74,3.08.24,6.34,2.57,8.62l1.61-.6,3.76,2.47c1,3.63,1.9,6.92,2.81,10.25l3.55.64,2.91,2.56,4.92-.77,1.67.77a7.7,7.7,0,0,1,4.78-3.61c.52-4.5-.24-8.86.61-14.14,3.8,4.79-1.13,11.33,2.68,15.7a3.36,3.36,0,0,0,2.1-.73l2.39,1c.73-2.46,1.43-4.81,2.36-7.92,1.51,2.75,2.6,4.76,3.81,6.95l2.14-.9,2.52,1.8c1.79-1,.17-3.3,3.14-3.53.27,1.13.54,2.27.8,3.42,1.29-2.27,3.85-3.71,3.57-6.67.6,2,1.19,3.93,2,6.58,2-2.82.44-5.5,1.68-7.91l1.9,1.3c.32,3.23-.16,6.29.32,9.57,3-1.63,2.18-5.15,6.53-4.76.54-.69,1.21-1.58,1.95-2.54,2.16,1,2.15,3.41,3.59,5.73.59-1.19,1-2.1,1.54-3.11a10.33,10.33,0,0,0,6.11-5.53l5,7.73c1.41-4.33,0-8.57,1.11-13.17,2.88,3.62.14,7.83,2,12,2.23-1.52,4.08-1,5.81.1,2.12-1,4.14-1.78,6.22-.35,2.09-1.07.78-3.23,1.64-4.92,3,1.81-.06,5.46,2.26,7.29,6.28-2.18,5.25-5.36,12.59-.31,1.3-3,.3-6,.58-9.18L669,85.4c2.14,2.41,2.26,5.22,2.22,8.26l2,1.73,2.72-5.3c.87.21,1.17.45,1,1.66-.12,1,.89,2.21,1.54,3.64l2.24-1.52c.4-3.53-.24-6.88.6-11.15,2.44,3.18.39,5.54,2.25,8.75l1.53-.68,2.34,4,2.72,1.32,4.09-2,5.54.65,1.67-1.9.9,3.94c1.48,1.29,2.6,1.16,3.88-.28.11-2,.23-4.3.37-7.18,2.59,1.9.77,4.28,4.21,5.89,1.65-1.85,1.93-2.47,3.07-5.34.49,7.57,4.44,14.38.77,21-.54-1.75-1-3.37-1.56-5-2.48-1-3.06,1.72-4.75,2.35-2.85.11-1.07-4.29-4.27-4.22-.3,2.71-2.41,4.21-4.25,5.85-2.28-1.1-.81-3.32-1.89-5.11l-10.56,3.33c-2.13-1.51-.74-3.69-1.51-5.71l-2.34-.19c.88,3.09,1.62,5.84-.3,8.78a3.89,3.89,0,0,0-1.27-1.69c-2.1,1-2.37,4.06-4,6.5-2.53-4.3-1.93-8.67-2.71-13.17-4.73,2.29-1.48,4.91-4.34,7.21l-1.05-.37c-.44,1.91-.89,3.82-1.57,6.77-1.09-2.73-1.78-4.49-2.62-6.59l-3.12,2.25c-2.46-1-2.13-3.6-3.51-5.62l-2.47,4.29L652,105.27l-1.91,2.25-4.58-2.25c-1.09,2.28-.55,5-3.13,6.5l-2.8-.56-1.49,3.14c-2.08-.2-2-1.88-2.13-3.28l-1.34.47C632.58,110.42,633.78,108.31,633,106.27Z"/><path class="cls-2" d="M84.39,109.13c-2.52,23.56-1.34,47.9-.88,71.64"/><path class="cls-2" d="M126.81,104.73c-3.09,22.2-.75,45.57-1.54,68.13"/><path class="cls-2" d="M302.63,122.31c-3.24,14.75-2,30.29-2,45.28"/><path class="cls-2" d="M24.17,113.08c-5,20.53.37,43.73-2.19,65.06"/><path class="cls-2" d="M349.44,96.38l-2.77,4.43c3.21,19.09,0,37.91,1,57.11"/><path class="cls-2" d="M339.77,106.05C342,108.28,342,111.13,342,114c-.4,16.7-.85,33.42,0,50.11"/><path class="cls-2" d="M321.31,110c6,17.61-.26,38.21,2.19,56.7"/><path class="cls-2" d="M316,44.52c-1.09,14.59,2.06,29.6,0,43.95"/><path class="cls-2" d="M317.57,114.4c-1.75,12.91-1.42,26.19-1.1,39.12"/><path class="cls-2" d="M276.91,48c.51,15.73.85,31.43,1.76,47"/><path class="cls-2" d="M358,116.16c-2.54,12.68.85,26.21-1.1,39.12"/><path class="cls-2" d="M503.28,103.85c5.5,16,1.51,33.84,2.64,50.55"/><path class="cls-2" d="M458.88,110.45c1.49,12.56,1.39,25.18,1.32,37.8"/><path class="cls-2" d="M293.62,108.69c-2.86,21.56.68,44.09-.88,65.93"/><path class="cls-2" d="M307.24,117.48c3.35,3.93,1,9.43,1.35,14.06-.08,11.43.89,22.89,0,34.29"/><path class="cls-2" d="M392.07,112.2c2.65,12.21.83,25.2,1.32,37.81"/><path class="cls-2" d="M336,108.25c.31,12.76.92,25.46.66,38.24"/><path class="cls-2" d="M300.65,50.67c.21,12.52-1.24,25,.88,37.36"/><path class="cls-2" d="M328.78,52.43c-.12,9.5-.15,18.75,1.32,28.13"/><path class="cls-2" d="M277.35,102.54c1.45,21.68-.73,44,1.32,65.93"/><path class="cls-2" d="M474.71,70.89c.88,5.8.15,12.09,2.2,17.58"/><path class="cls-2" d="M474.71,109.13c1.56,12.56,1.44,25.61.88,38.24"/><path class="cls-2" d="M418.89,110.45c5.3,12,.74,27.32,2.19,40.43"/><path class="cls-2" d="M436.91,110.89q.21,14.72.44,29.45"/><path class="cls-2" d="M536.24,82.32c-.68,2.78.7,5.39-1.31,7.91"/><path class="cls-2" d="M550.31,112.64c1,11.24.17,22.58.88,33.85"/><path class="cls-2" d="M322.63,48c2.29,12.43-1.74,27.15,3.07,38.68"/><path class="cls-2" d="M428.56,60.34c.92,8.94-1.29,18.78,1.75,27.25"/><path class="cls-2" d="M82.63,55.94c-1.47,11.32,0,22.28,1.32,33.41"/><path class="cls-2" d="M291.86,64.73c-1.46,8.25,1.2,16.33,1.32,24.62"/><path class="cls-2" d="M505,68.25c-.3,7.7,1.58,15.11,1.75,22.86"/><path class="cls-2" d="M529.21,120.56c.74,6.27.37,12.59.44,18.9"/><path class="cls-2" d="M366.14,113.08c-2.64,11.09.46,23.65-1.32,35.17"/><path class="cls-2" d="M124.83,63c-.47,2.3-1.13,4.54.81,6.65,1.67,5.53-.94,12.42.51,18"/><path class="cls-2" d="M405.92,108.25c1.29,9.15.42,18.47.66,27.69"/><path class="cls-2" d="M377.57,63c.4,9.94,1.07,19.93,1.76,29.89"/><path class="cls-2" d="M21.1,58.58c0,8.33-.56,16.64,1.32,24.62"/><path class="cls-2" d="M428.56,104.73c2.14,10.79.25,22,.87,33"/><path class="cls-2" d="M371,69.13c.22,3.91,2.29,7.47,1.31,11.43"/><path class="cls-2" d="M405.7,66.49c-.61,8.77,1.19,17.2,1.32,25.94"/><path class="cls-2" d="M363.94,68.25c.7,7.21-1.58,15.24,1.32,22"/><path class="cls-2" d="M307.68,65.61c-.82,7.68-.95,15.75.88,23.3"/><path class="cls-2" d="M529.21,63c-.15,9.08.43,18.2-.44,27.25"/><path class="cls-2" d="M399.11,111.77c.52,7.89,1.8,16.16.88,24.17"/><path class="cls-2" d="M415.81,112.64c-2.23,7.26-1,15-1.76,22.42"/><path class="cls-2" d="M437.35,63c-1,9.88,2.57,21.16-2.64,29.45"/><path class="cls-2" d="M374.93,112.2c6.05,8,2.74,18.85,3.52,28.14"/><path class="cls-2" d="M399.11,73.53c.47,6.14,2.32,12.25.44,18.46"/><path class="cls-2" d="M329.22,105.61c1.75,8.35,1,17.42.44,25.93"/><path class="cls-2" d="M356,75.28V91.55"/><path class="cls-2" d="M68.57,107.37q-.22,7.69-.44,15.38"/><path class="cls-2" d="M1.76,88.47C3.09,93,1.08,100.06,5.27,103"/><path class="cls-2" d="M446.14,78.8a23.71,23.71,0,0,0,1.76,9.67"/><path class="cls-2" d="M578.88,81.44q-.23,7.68-.44,15.38"/><path class="cls-2" d="M545.47,82.76c-.34,6.19,1.32,13.1-2.63,18.46"/><path class="cls-2" d="M448.34,106.05c-1.36,3.68-.81,7.58-.88,11.43"/><path class="cls-2" d="M636,84.07c0,5.38-.33,10.77,1.76,15.83"/><path class="cls-2" d="M46.15,106.05c-2.07,4.92-1.76,10.59-1.32,15.82"/><path class="cls-2" d="M51.87,105.17c3.43,4.69-.56,10.56.88,15.83"/><path class="cls-2" d="M286.14,86.71c0,3.25.4,6.54-.88,9.67"/><path class="cls-2" d="M117.8,85.83c-.31,3.52-.91,7-1.32,10.55"/><path class="cls-2" d="M413.17,87.59c1.5,4.27-.06,9.37,3.08,13.19"/><path class="cls-2" d="M420.2,73.53c.51,3.49.28,7.18,1.32,10.54"/><path class="cls-2" d="M421.52,84.51c-.42,5.59-.62,11.22-3.51,16.27"/><path class="cls-2" d="M669,85.83c-.38,4.67-.23,9.27,1.75,13.63"/><path class="cls-2" d="M606.13,102.1c-1.63,4.4-1.79,9-1.76,13.62"/><path class="cls-2" d="M681.73,84.07c0,3.75-.51,7.87,2.23,10.71l-.47,2.48"/><path class="cls-2" d="M116.48,106.49c2.32,4.07,1.71,8.35,1.32,12.75"/><path class="cls-2" d="M70.33,88.47l-1.76,5.27"/><path class="cls-2" d="M335.81,68.25c.06,4-.6,8.19,2.2,11.43"/><path class="cls-2" d="M44,89.35l-.87,6.59"/><path class="cls-2" d="M425,107.37a41.69,41.69,0,0,1,0,11"/><path class="cls-2" d="M603.93,89.35v7.47"/><path class="cls-2" d="M621.08,101.66c1.61,3.29.42,7,.44,10.54"/><path class="cls-2" d="M707.23,90.23c-.42,2.37.68,4.43,1.32,6.59"/><path class="cls-2" d="M600.42,104.29v7"/><path class="cls-2" d="M47.91,109.13c0,1.63,1.66,3.1.44,4.83"/><path class="cls-2" d="M549.87,75.28c.27,3.26-1,7.18,1.76,9.67"/><path class="cls-2" d="M615.36,104.29c0,2.1-.07,4.2.88,6.16"/><path class="cls-2" d="M165.71,105.61c.29,1.61.58,3.23.88,4.84"/><path class="cls-2" d="M607.89,88.47c.44,3,1.42,6.06-.88,8.79"/><path class="cls-2" d="M587.67,106.93c1.9,2.36.45,5.94.88,8.79"/><path class="cls-2" d="M76.48,91.11c0,3.14,1.2,5.87-1.32,8.35"/><path class="cls-2" d="M149.88,92c-.7,2.91.06,5.58.88,8.35"/><path class="cls-2" d="M651.4,90.23c1.29,2.92-.22,5.38-1.31,7.91"/><path class="cls-2" d="M392.07,91.11c-.35,2.49.63,4.73,1.32,7"/><path class="cls-2" d="M459.76,75.28c.34,2.68-1,5.81,1.32,7.92"/><path class="cls-2" d="M676,91.55v7"/><path class="cls-2" d="M713.82,91.11c-.65,2.44,0,5.26-2.2,7"/><path class="cls-2" d="M713.38,103.41c1.84,2.09,1.58,4.56,1.32,7"/><path class="cls-2" d="M259.77,101.66a25.19,25.19,0,0,0,1.76,7"/><path class="cls-2" d="M385,88.47c.54,2.31-.94,4.35-.88,6.59"/><path class="cls-2" d="M17.14,96.38v6.16"/><path class="cls-2" d="M518.22,92q-.44,3.08-.88,6.15"/><path class="cls-2" d="M487.45,103.85a6.6,6.6,0,0,0-.87,6.6"/><path class="cls-2" d="M544.6,106.49a15.63,15.63,0,0,0-1.76,6.59"/><path class="cls-2" d="M14.5,104.29c-1.7,1.78-1.26,4-1.31,6.16"/><path class="cls-2" d="M61.1,92.87,60.22,99"/><path class="cls-2" d="M214.5,92.87c-1.06,2.13.07,4.11.44,6.15"/><path class="cls-2" d="M10.55,95.5c-.73,2-.4,4.1-.44,6.16"/><path class="cls-2" d="M424.6,106.49l-5.71-1.32"/><path class="cls-2" d="M440,110c1.43,1.8.3,3.81.44,5.71"/><path class="cls-2" d="M571,108.69c-1.15,2.41-1.52,3.89-1.32,5.27"/><path class="cls-2" d="M266.8,106.93c-1.64,1.41-1.46,3.42-1.75,5.27"/><path class="cls-2" d="M659.54,96.38l.66,3.52"/><path class="cls-2" d="M267.46,97.26c-.07,1.17-.14,2.34-.22,3.52"/><path class="cls-2" d="M347.24,70.89c-.13,1.17.93,2.5-.44,3.51"/><rect class="cls-3" x="0.68" y="99.5" width="716" height="98"/></g></g></svg>