<svg xmlns="http://www.w3.org/2000/svg" xmlns:xlink="http://www.w3.org/1999/xlink" viewBox="0 0 42 59" version="1.1" x="0px" y="0px"><title>37 -Bed Bug- (Outline)</title><desc>Created with Sketch.</desc><g stroke="none" stroke-width="1" fill="none" fill-rule="evenodd"><g transform="translate(-846.000000, -713.000000)" fill="#000000"><g transform="translate(846.000000, 712.000000)"><path d="M16.4316,20 C14.7826,21.87 14.9916,23.864 14.9936,23.884 C14.9976,23.923 14.9996,23.961 14.9996,24 L14.9996,39 C14.9996,47.76 18.4056,54.487 19.9996,57.155 L19.9996,20 L16.4316,20 Z M20.9996,60 L19.9996,60 C19.6826,60 19.3836,59.849 19.1956,59.594 C18.9426,59.251 12.9996,51.065 12.9996,39 L12.9996,24.045 C12.9606,23.553 12.8546,20.731 15.2926,18.293 C15.4806,18.105 15.7346,18 15.9996,18 L20.9996,18 C21.5526,18 21.9996,18.448 21.9996,19 L21.9996,59 C21.9996,59.552 21.5526,60 20.9996,60 L20.9996,60 Z"></path><path d="M22,20 L22,57.155 C23.595,54.487 27,47.76 27,39 L27,24 C27,23.961 27.002,23.923 27.007,23.884 C27.015,23.804 27.191,21.84 25.568,20 L22,20 Z M22,60 L21,60 C20.447,60 20,59.552 20,59 L20,19 C20,18.448 20.447,18 21,18 L26,18 C26.266,18 26.52,18.105 26.707,18.293 C29.146,20.731 29.039,23.553 29,24.045 L29,39 C29,51.065 23.058,59.251 22.805,59.594 C22.616,59.849 22.317,60 22,60 L22,60 Z"></path><path d="M17.1328,18 L24.8668,18 L24.4888,14.977 C24.2768,13.28 22.8268,12 21.1168,12 L20.8828,12 C19.1728,12 17.7238,13.28 17.5108,14.977 L17.1328,18 Z M25.9998,20 L15.9998,20 C15.7128,20 15.4408,19.877 15.2498,19.662 C15.0608,19.447 14.9718,19.161 15.0078,18.876 L15.5268,14.729 C15.8628,12.033 18.1658,10 20.8828,10 L21.1168,10 C23.8338,10 26.1368,12.033 26.4738,14.729 L26.9918,18.876 C27.0288,19.161 26.9398,19.447 26.7498,19.662 C26.5598,19.877 26.2868,20 25.9998,20 L25.9998,20 Z"></path><path d="M18.999,12 C18.5,12 18.069,11.627 18.007,11.121 C17.997,11.038 16.91,2.993 13.228,2.993 C13.174,2.993 13.119,2.994 13.064,2.998 C12.484,3.029 12.037,2.615 12.002,2.064 C11.967,1.513 12.385,1.038 12.936,1.002 C13.042,0.995 13.146,0.992 13.249,0.992 C18.734,0.992 19.943,10.469 19.993,10.88 C20.059,11.428 19.669,11.926 19.12,11.992 C19.08,11.998 19.039,12 18.999,12"></path><path d="M23.001,12 C22.961,12 22.921,11.998 22.88,11.993 C22.332,11.927 21.941,11.428 22.007,10.88 C22.057,10.469 23.267,0.992 28.751,0.992 C28.854,0.992 28.958,0.995 29.064,1.002 C29.615,1.038 30.033,1.513 29.998,2.064 C29.962,2.615 29.503,3.031 28.936,2.998 C28.881,2.995 28.825,2.993 28.771,2.993 C25.079,2.993 24.003,11.038 23.993,11.12 C23.932,11.627 23.5,12 23.001,12"></path><path d="M4.999,59 C4.831,59 4.66,58.958 4.504,58.868 C4.024,58.594 3.857,57.983 4.132,57.504 L7.97,50.787 L7.006,42.11 C6.969,41.777 7.102,41.447 7.359,41.232 L13.359,36.232 C13.786,35.878 14.414,35.936 14.769,36.36 C15.122,36.784 15.064,37.415 14.641,37.768 L9.054,42.424 L9.994,50.89 C10.018,51.1 9.974,51.313 9.868,51.496 L5.868,58.496 C5.684,58.819 5.347,59 4.999,59"></path><path d="M14,25.0005 C13.883,25.0005 13.765,24.9795 13.648,24.9365 L5.648,21.9365 C5.314,21.8115 5.072,21.5165 5.014,21.1645 L4.153,16.0005 L1,16.0005 C0.447,16.0005 0,15.5525 0,15.0005 C0,14.4475 0.447,14.0005 1,14.0005 L5,14.0005 C5.489,14.0005 5.906,14.3535 5.986,14.8355 L6.892,20.2665 L14.352,23.0635 C14.868,23.2575 15.13,23.8335 14.937,24.3515 C14.786,24.7525 14.404,25.0005 14,25.0005"></path><path d="M2.001,38 C1.714,38 1.43,37.877 1.231,37.64 C0.878,37.216 0.936,36.585 1.359,36.232 L7.359,31.232 C7.539,31.082 7.766,31 8,31 L14,31 C14.553,31 15,31.448 15,32 C15,32.552 14.553,33 14,33 L8.362,33 L2.641,37.768 C2.453,37.924 2.227,38 2.001,38"></path><path d="M37.001,59 C36.653,59 36.316,58.819 36.132,58.496 L32.132,51.496 C32.026,51.313 31.982,51.1 32.006,50.89 L32.946,42.424 L27.359,37.768 C26.936,37.415 26.878,36.784 27.231,36.36 C27.586,35.936 28.215,35.878 28.641,36.232 L34.641,41.232 C34.898,41.447 35.031,41.777 34.994,42.11 L34.03,50.787 L37.868,57.504 C38.143,57.983 37.976,58.594 37.496,58.868 C37.34,58.958 37.169,59 37.001,59"></path><path d="M28,25.0005 C27.596,25.0005 27.214,24.7525 27.063,24.3515 C26.87,23.8335 27.132,23.2575 27.648,23.0635 L35.108,20.2665 L36.014,14.8355 C36.094,14.3535 36.511,14.0005 37,14.0005 L41,14.0005 C41.553,14.0005 42,14.4475 42,15.0005 C42,15.5525 41.553,16.0005 41,16.0005 L37.847,16.0005 L36.986,21.1645 C36.928,21.5165 36.686,21.8115 36.352,21.9365 L28.352,24.9365 C28.235,24.9795 28.117,25.0005 28,25.0005"></path><path d="M39.999,38 C39.773,38 39.547,37.924 39.359,37.768 L33.638,33 L28,33 C27.447,33 27,32.552 27,32 C27,31.448 27.447,31 28,31 L34,31 C34.234,31 34.461,31.082 34.641,31.232 L40.641,36.232 C41.064,36.585 41.122,37.216 40.769,37.64 C40.57,37.877 40.286,38 39.999,38"></path></g></g></g></svg>