<svg xmlns="http://www.w3.org/2000/svg" viewBox="0 0 1122.02 94.96"><defs><style>.cls-1{fill:#5e5e5e;}.cls-2{fill:#6c6c6c;}.cls-3{fill:#787878;}.cls-4{fill:#4c4c4c;}.cls-5{fill:#353535;}.cls-6{fill:#515151;}.cls-7{fill:#999;}.cls-8{fill:#666;}</style></defs><g id="Layer_2" data-name="Layer 2"><g id="Layer_1-2" data-name="Layer 1"><path class="cls-1" d="M362.19.27c15,.31,30.67-.58,45.27.32V.91H356.9a16.74,16.74,0,0,0-.44,5.51c0,7.29,0,14.59,0,21.88a11.65,11.65,0,0,1-.3,1.3h-1c-15.05-.89-31.19,0-46.61-.3-.09,0-.17.19-.25.3-.74-.1-1.69.29-2.23-.32.05-7.32-.09-14.66,0-22,.11-1.79-.41-3.51-.34-5.28,0-.25,0-.51,0-.64l-.45-.46H255.93l-.53.43V29.6c-.1.14-.3.27-.3.41,0,10.13,0,20.25,0,30.4l.64.43v.59c6,.23,48.6.13,50-.11v-.48a2.8,2.8,0,0,1,1.94-.31H457.83v.32c-16.09.9-33.27,0-49.73.32-33.74.91-67.72,0-101.53.32l-.5.5V93.53c-.33.36-.76.58-.62,1.1h-.64a.79.79,0,0,0-1.27,0H255.72c.17-.6-.43-.77-.65-1.2V61.76L254,60.52c-16.61.58-33.61-1.14-49.9.64a6.74,6.74,0,0,1-.9,0c-.14,0-.25-.2-.38-.31.15-.66,1.08,0,1.24-.72V30.39l-.75-.79c-16.73.29-33.59-.57-50.22.32V29c16.68,0,33.36,0,50,0a1.48,1.48,0,0,1,.7.22c16.44,1.16,33.51,0,50.11.41l.85-.79V1.07l.79-.8h52.12c15.45.59,32.63.62,48.14,0Z"/><rect class="cls-2" x="305.42" y="61.16" width="102.71" height="33.47"/><path d="M509.47,29.6V60.2a.78.78,0,0,0-1,.64H459.11l-.64-.87V30.16a.25.25,0,0,0-.06-.13.38.38,0,0,0-.11-.11H408.1l-.64-.64V.59c.24,0,.61.16.64-.32C424.91,0,442,.77,458.67,0l.12.27V.91c-.09.86.24,1.77-.28,2.51a5.74,5.74,0,0,1,.26,1c0,8.22,0,16.46,0,24.66C475.41,30.46,492.65,29.16,509.47,29.6Z"/><rect class="cls-2" x="919.02" y="60.2" width="100.22" height="34.75"/><rect class="cls-3" x="560.16" y="0.18" width="51.34" height="29.42"/><rect class="cls-3" x="0.05" y="0.27" width="50.78" height="29.38"/><path class="cls-2" d="M768,61.48h-2.55c-.48-.1-.74.17-1,.54q0,15.54,0,31.09c0,.38.39,1-.3,1.2a2.47,2.47,0,0,1-1.78.32H713.81V94H763.3a.24.24,0,0,0,.14,0,1.28,1.28,0,0,0,.17-.19c-.34-.78.25-1.54.23-2.34-.05-1.5.3-3-.27-4.5-.43-1,.51-1.82.28-2.72,0-6.72.07-13.54,0-20.22-.52-.68-.2-1.39-.3-2,.35-.39.79-.6.64-1.13,7.6,0,15.19,0,22.78,0s15.21.3,22.81-.29c1.69-.13,3.4,0,5.1,0l.32.32v.64Z"/><path class="cls-1" d="M509.47,29.6h-.63V29c.62-.11.38-.69.28-.87a4.79,4.79,0,0,1-.28-2.27c0-8.32,0-16.59,0-24.91-16.66-.29-33.48.57-50-.32V.27H509l.79.81q0,13.06,0,26.18c0,.74.12,1.48.19,2.34Z"/><path class="cls-2" d="M303.54,94.63a.79.79,0,0,1,1.27,0V95a6.59,6.59,0,0,1-.89,0C303.78,94.91,303.66,94.74,303.54,94.63Z"/><path class="cls-4" d="M407.46.91V29.28l-.62.45a5,5,0,0,0,.76.47c.23.09.49.09.5-.28h48.77c.11.91,1.22,1,1,2.12q0,13.18,0,26.36a5.08,5.08,0,0,1-.25,1.18l.26.94H307.71a2.8,2.8,0,0,0-1.94.31h-.32c0-.62.47-1.11.34-1.78a2.39,2.39,0,0,1,.29-1.78.48.48,0,0,0,0-.45c-.48-.43-.26-1-.26-1.48q0-10.18,0-20.38c0-.6-.17-1.22.28-1.79a.93.93,0,0,0,0-.9c-.49-.5-.08-1.12-.47-1.48l-.55-.88H258.89c-1.07.42-1.94-.89-3-.07-.17.18-.5.17-.53-.24V29c15.16-.53,30.36-.25,45.54-.33a16,16,0,0,1,5.15.65c.54.61,1.49.22,2.23.32,15.05.89,31.19,0,46.61.3.09,0,.17-.19.25-.3h2.07l.76-.76a8,8,0,0,1,.16-1.72,3.12,3.12,0,0,0-.07-2.19,5.75,5.75,0,0,1-.39-2.23c.17-7.26-.29-14.53.34-21.79h4.78c0,.87.55,1.22,1.44,1.3.21-.44.94-.57.79-1.3Z"/><path class="cls-5" d="M202.8,60.84H158.49c-1.26-.85-3.74-.06-5.42-.32V29.92c16.63-.89,33.49,0,50.22-.32l.75.79V60.12C203.88,60.81,203,60.18,202.8,60.84Z"/><path class="cls-5" d="M255.4,29.6c0,.41.36.42.53.24,1-.82,1.89.49,3,.07H305l.55.88c.39.36,0,1,.47,1.48a.93.93,0,0,1,0,.9c-.45.57-.28,1.19-.28,1.79q0,10.19,0,20.38c0,.49-.22,1,.26,1.48a.48.48,0,0,1,0,.45,2.39,2.39,0,0,0-.29,1.78c.13.67-.38,1.16-.34,1.78H261.14v-.65l-1.28.07v.58h-4.14l-.64-.43c0-10.15,0-20.27,0-30.4C255.1,29.87,255.3,29.74,255.4,29.6Z"/><path class="cls-6" d="M306.09,29.28a16,16,0,0,0-5.15-.65c-15.18.08-30.38-.2-45.54.33V1.36l.53-.43h49.39l.45.46c0,.13,0,.39,0,.64-.07,1.77.45,3.49.34,5.28C306,14.62,306.14,22,306.09,29.28Z"/><path class="cls-2" d="M255.72,94.63h-.64l-.6-.86V62l-.51-.51c-16.26,0-32.57,0-48.84,0-.35,0-.86.32-1-.3,16.29-1.78,33.28-.06,49.9-.64l1.09,1.24V93.43C255.29,93.86,255.89,94,255.72,94.63Z"/><path class="cls-6" d="M358.05.91c-.63,7.26-.17,14.53-.34,21.79a5.75,5.75,0,0,0,.39,2.23,3.12,3.12,0,0,1,.07,2.19,8,8,0,0,0-.16,1.72l-.76.76h-1.11a11.65,11.65,0,0,0,.3-1.3c.05-7.29,0-14.59,0-21.88A16.74,16.74,0,0,1,356.9.91Z"/><path class="cls-6" d="M255.72,60.84h50v.48c-1.45.24-44,.34-50,.11Z"/><path class="cls-6" d="M355.18,29.6c-.08.11-.16.29-.25.3-15.41-.26-31.56.59-46.61-.3.08-.11.16-.3.25-.3C324,29.56,340.13,28.71,355.18,29.6Z"/><path class="cls-5" d="M457.83,60.52l-.26-.94a5.08,5.08,0,0,0,.25-1.18q0-13.18,0-26.36c.26-1.1-.85-1.21-1-2.12h1.43a.38.38,0,0,1,.11.11.25.25,0,0,1,.06.13V60l.64.87c0,.48-.4.27-.64.32,0-.48-.4-.27-.64-.32Z"/><path class="cls-6" d="M365.06.91c.15.73-.58.86-.79,1.3-.89-.08-1.41-.43-1.44-1.3Z"/><rect class="cls-1" x="458.3" y="60.84" width="51.26" height="33.46"/><path class="cls-5" d="M509.15,61.16h-.63v-.32a.78.78,0,0,1,1-.64C509.37,60.52,509.26,60.84,509.15,61.16Z"/><path class="cls-4" d="M.05,54.78V34.38H.69a113.93,113.93,0,0,1,0,20.4Z"/><path class="cls-1" d="M.05,33.74c.18-1.23-.4-2.81.32-3.82.48,0,.27.39.32.64v3.82H.05Z"/><path class="cls-1" d="M1,60.84h-1V58H.69v1.6l.32,1Z"/><path class="cls-4" d="M.69,58H.05V56.38H.69A1.09,1.09,0,0,1,.69,58Z"/><ellipse class="cls-1" cx="0.37" cy="55.58" rx="0.45" ry="1.13"/><rect class="cls-6" x="916.85" y="29.28" width="102.04" height="32.18"/><rect class="cls-5" x="967.92" y="29.89" width="50.97" height="30.96"/><path class="cls-1" d="M153.07,60.52c1.68.26,4.16-.53,5.42.32-.08.11-.16.3-.24.31-1.71-.13-3.59.37-5.18-.31Z"/><rect class="cls-6" x="458.79" y="0.59" width="50.46" height="28.4"/><path class="cls-5" d="M458.79.91l.65.44V28.54a12.68,12.68,0,0,0,1.61.41c14.84.05,29.7,0,44.55,0a4,4,0,0,0,2.27-.27c.2-.12.64.18,1,.28v.64c-16.62-.44-33.64.86-50-.47,0-8.2,0-16.44,0-24.66a5.74,5.74,0,0,0-.26-1C459,2.68,458.7,1.77,458.79.91Z"/><path class="cls-4" d="M462,60.84v.9l-1.59.07v-1Z"/><path class="cls-4" d="M508.52,60.84v.88h-1.6v-.88Z"/><path class="cls-5" d="M408.1,29.92c0,.37-.27.37-.5.28a5,5,0,0,1-.76-.47l.62-.45Z"/><rect class="cls-1" x="814.87" y="23.26" width="51.15" height="37.58"/><path class="cls-4" d="M866.51,60.84l-.32-.64h49.89l.48-.48c0-9.59,0-19.21,0-28.79a2.14,2.14,0,0,0-.34-.6c-15.25-.26-30.64,0-45.94-.09a.39.39,0,0,1-.14,0l-.11-.11V29.6h46.86c-.14.52.29.74.64,1.12,0,9.11,0,18.25,0,27.37a4.21,4.21,0,0,1-.65,2.43v.32Z"/><rect class="cls-6" x="51.66" y="60.84" width="50.41" height="33.12"/><rect class="cls-4" x="50.74" y="29.51" width="51.32" height="31.33"/><rect class="cls-5" x="0.69" y="29.28" width="50.65" height="31.56"/><rect class="cls-1" x="50.71" y="0.62" width="51.35" height="28.98"/><rect class="cls-1" x="50.74" y="60.84" width="51.32" height="33.79"/><path class="cls-6" d="M98.88,29.6V29c.81.06,1.63-.35,2.43.25.16.13.5,0,.76,0v.64A9.82,9.82,0,0,0,98.88,29.6Z"/><path class="cls-1" d="M101.75,60.84h.32q.65.48,0,1C101.45,61.65,101.87,61.15,101.75,60.84Z"/><rect class="cls-4" x="662.81" y="29.28" width="152.06" height="31.88"/><rect class="cls-5" x="662.49" y="29.92" width="50.69" height="31.24"/><rect class="cls-5" x="865.87" y="29.6" width="50.7" height="30.6"/><path class="cls-6" d="M814.87,29.92c-.08-.11-.16-.3-.25-.31-16.81,0-33.63,0-50.44,0A2.16,2.16,0,0,0,764.5,28V1.37l.57-.46h50.44c0,.64,0,1.27,0,1.91s-.36,1.12-.35,1.78c0,7.53,0,15.07,0,22.6a2.13,2.13,0,0,0,.6,1.76c.59-.1,1.31-.47,1.75-.25,14.93.7,30.09,0,45.11.27a3.8,3.8,0,0,0,2.21-.66h1V29.6C848.9,29.89,831.76,29,814.87,29.92Z"/><rect class="cls-4" x="815.18" y="0.81" width="50.7" height="28.22"/><rect class="cls-1" x="662.8" y="0.96" width="49.74" height="28.32"/><rect class="cls-1" x="662.53" y="60.81" width="101.68" height="33.82"/><rect class="cls-3" x="612.48" y="60.38" width="50.37" height="34.52"/><path class="cls-4" d="M261.14,60.84h-1.28v-.58l1.28-.07Z"/><path class="cls-4" d="M1.65,29.6v1h-1c0-.25.16-.61-.32-.64C.68,29.47,1.17,29.6,1.65,29.6Z"/><path class="cls-4" d="M.69,59.57c.6,0,.93.22,1,1H1Z"/><rect class="cls-6" x="51.7" y="29.27" width="2.23" height="0.66"/><rect class="cls-6" x="57.12" y="29.26" width="1.59" height="0.69"/><rect class="cls-7" x="1070.02" y="30.9" width="52" height="64"/><rect class="cls-7" x="1019.02" y="60.9" width="52" height="34"/><rect class="cls-8" x="917.02" y="0.9" width="51" height="29"/><rect class="cls-8" x="917.02" y="61.9" width="51" height="33"/></g></g></svg>