<svg xmlns="http://www.w3.org/2000/svg" viewBox="0 0 496 434.24"><defs><style>.cls-1{fill:none;}</style></defs><g id="Layer_2" data-name="Layer 2"><g id="Layer_1-2" data-name="Layer 1"><path class="cls-1" d="M177.35,259.4a13.29,13.29,0,0,1-6.22,6,14.22,14.22,0,0,1,6.22,5.23,14.14,14.14,0,0,1,6.21-5.23A13.23,13.23,0,0,1,177.35,259.4Z"/><path class="cls-1" d="M177.35,232a12.33,12.33,0,0,1-9.11,8.54,13.26,13.26,0,0,1,9.11,7,13.22,13.22,0,0,1,9.1-7A12.3,12.3,0,0,1,177.35,232Z"/><path class="cls-1" d="M177.35,312.65a15.16,15.16,0,0,1-2.64,2.61,16.69,16.69,0,0,1,2.64,2.33,16.19,16.19,0,0,1,2.63-2.33A14.77,14.77,0,0,1,177.35,312.65Z"/><path class="cls-1" d="M177.35,286.17a14.1,14.1,0,0,1-4.28,4.18,15.23,15.23,0,0,1,4.28,3.71,15.05,15.05,0,0,1,4.27-3.71A14,14,0,0,1,177.35,286.17Z"/><path class="cls-1" d="M201,286.17a14,14,0,0,1-4.27,4.18,15.05,15.05,0,0,1,4.27,3.71,15.33,15.33,0,0,1,4.27-3.71A14.18,14.18,0,0,1,201,286.17Z"/><path class="cls-1" d="M201,312.65a14.77,14.77,0,0,1-2.63,2.61,16.19,16.19,0,0,1,2.63,2.33,15.85,15.85,0,0,1,2.64-2.33A15.16,15.16,0,0,1,201,312.65Z"/><path class="cls-1" d="M153.74,259.4a13.25,13.25,0,0,1-6.22,6,14.16,14.16,0,0,1,6.22,5.23,14.14,14.14,0,0,1,6.21-5.23A13.23,13.23,0,0,1,153.74,259.4Z"/><path class="cls-1" d="M153.74,312.65a15.16,15.16,0,0,1-2.64,2.61,15.85,15.85,0,0,1,2.64,2.33,16.19,16.19,0,0,1,2.63-2.33A14.77,14.77,0,0,1,153.74,312.65Z"/><path class="cls-1" d="M130.13,232a12.33,12.33,0,0,1-9.11,8.54,13.22,13.22,0,0,1,9.11,7,13.22,13.22,0,0,1,9.11-7A12.33,12.33,0,0,1,130.13,232Z"/><path class="cls-1" d="M201,259.4a13.23,13.23,0,0,1-6.21,6,14.14,14.14,0,0,1,6.21,5.23,14.16,14.16,0,0,1,6.22-5.23A13.25,13.25,0,0,1,201,259.4Z"/><path class="cls-1" d="M153.74,232a12.33,12.33,0,0,1-9.11,8.54,13.24,13.24,0,0,1,9.11,7,13.22,13.22,0,0,1,9.11-7A12.3,12.3,0,0,1,153.74,232Z"/><path class="cls-1" d="M153.74,286.17a14.18,14.18,0,0,1-4.27,4.18,15.33,15.33,0,0,1,4.27,3.71,15.05,15.05,0,0,1,4.27-3.71A14,14,0,0,1,153.74,286.17Z"/><path class="cls-1" d="M271.78,286.17a14.18,14.18,0,0,1-4.27,4.18,15.33,15.33,0,0,1,4.27,3.71,15.05,15.05,0,0,1,4.27-3.71A14,14,0,0,1,271.78,286.17Z"/><path class="cls-1" d="M248.17,232a12.33,12.33,0,0,1-9.11,8.54,13.24,13.24,0,0,1,9.11,7,13.22,13.22,0,0,1,9.11-7A12.3,12.3,0,0,1,248.17,232Z"/><path class="cls-1" d="M248.17,259.4a13.25,13.25,0,0,1-6.22,6,14.16,14.16,0,0,1,6.22,5.23,14.16,14.16,0,0,1,6.22-5.23A13.2,13.2,0,0,1,248.17,259.4Z"/><path class="cls-1" d="M248.17,286.17a14.18,14.18,0,0,1-4.27,4.18,15.19,15.19,0,0,1,4.27,3.71,15.05,15.05,0,0,1,4.27-3.71A14.18,14.18,0,0,1,248.17,286.17Z"/><path class="cls-1" d="M130.13,259.4a13.25,13.25,0,0,1-6.22,6,14.16,14.16,0,0,1,6.22,5.23,14.16,14.16,0,0,1,6.22-5.23A13.2,13.2,0,0,1,130.13,259.4Z"/><path class="cls-1" d="M271.78,312.65a15.16,15.16,0,0,1-2.64,2.61,15.85,15.85,0,0,1,2.64,2.33,16.19,16.19,0,0,1,2.63-2.33A14.77,14.77,0,0,1,271.78,312.65Z"/><path class="cls-1" d="M224.56,259.4a13.2,13.2,0,0,1-6.22,6,14.16,14.16,0,0,1,6.22,5.23,14.16,14.16,0,0,1,6.22-5.23A13.25,13.25,0,0,1,224.56,259.4Z"/><path class="cls-1" d="M248.17,312.65a14.82,14.82,0,0,1-2.64,2.61,15.85,15.85,0,0,1,2.64,2.33,16.19,16.19,0,0,1,2.63-2.33A15.11,15.11,0,0,1,248.17,312.65Z"/><path class="cls-1" d="M224.56,286.17a14.18,14.18,0,0,1-4.27,4.18,15.05,15.05,0,0,1,4.27,3.71,15.19,15.19,0,0,1,4.27-3.71A14.18,14.18,0,0,1,224.56,286.17Z"/><path class="cls-1" d="M224.56,312.65a15.11,15.11,0,0,1-2.63,2.61,16.19,16.19,0,0,1,2.63,2.33,15.85,15.85,0,0,1,2.64-2.33A14.82,14.82,0,0,1,224.56,312.65Z"/><path class="cls-1" d="M201,232a12.3,12.3,0,0,1-9.11,8.54,13.22,13.22,0,0,1,9.11,7,13.24,13.24,0,0,1,9.11-7A12.33,12.33,0,0,1,201,232Z"/><path class="cls-1" d="M224.56,232a12.33,12.33,0,0,1-9.11,8.54,13.22,13.22,0,0,1,9.11,7,13.22,13.22,0,0,1,9.11-7A12.33,12.33,0,0,1,224.56,232Z"/><path class="cls-1" d="M130.13,312.65a14.82,14.82,0,0,1-2.64,2.61,15.85,15.85,0,0,1,2.64,2.33,16.19,16.19,0,0,1,2.63-2.33A15.11,15.11,0,0,1,130.13,312.65Z"/><path class="cls-1" d="M59.31,286.17A14.1,14.1,0,0,1,55,290.35a15.23,15.23,0,0,1,4.28,3.71,15.05,15.05,0,0,1,4.27-3.71A14,14,0,0,1,59.31,286.17Z"/><path class="cls-1" d="M35.7,312.65a14.82,14.82,0,0,1-2.64,2.61,15.85,15.85,0,0,1,2.64,2.33,16.19,16.19,0,0,1,2.63-2.33A15.11,15.11,0,0,1,35.7,312.65Z"/><path class="cls-1" d="M35.7,286.17a14.18,14.18,0,0,1-4.27,4.18,15.19,15.19,0,0,1,4.27,3.71A15.05,15.05,0,0,1,40,290.35,14.18,14.18,0,0,1,35.7,286.17Z"/><path class="cls-1" d="M130.13,286.17a14.18,14.18,0,0,1-4.27,4.18,15.05,15.05,0,0,1,4.27,3.71,15.05,15.05,0,0,1,4.27-3.71A14.18,14.18,0,0,1,130.13,286.17Z"/><path class="cls-1" d="M35.7,232a12.33,12.33,0,0,1-9.11,8.54,13.24,13.24,0,0,1,9.11,7,13.22,13.22,0,0,1,9.11-7A12.3,12.3,0,0,1,35.7,232Z"/><path class="cls-1" d="M35.7,259.4a13.25,13.25,0,0,1-6.22,6,14.16,14.16,0,0,1,6.22,5.23,14.16,14.16,0,0,1,6.22-5.23A13.2,13.2,0,0,1,35.7,259.4Z"/><path class="cls-1" d="M12.09,312.65a15.11,15.11,0,0,1-2.63,2.61,16.19,16.19,0,0,1,2.63,2.33,15.85,15.85,0,0,1,2.64-2.33A14.82,14.82,0,0,1,12.09,312.65Z"/><path class="cls-1" d="M12.09,232A12.33,12.33,0,0,1,3,240.54a13.22,13.22,0,0,1,9.11,7,13.22,13.22,0,0,1,9.11-7A12.33,12.33,0,0,1,12.09,232Z"/><path class="cls-1" d="M12.09,259.4a13.2,13.2,0,0,1-6.22,6,14.16,14.16,0,0,1,6.22,5.23,14.16,14.16,0,0,1,6.22-5.23A13.25,13.25,0,0,1,12.09,259.4Z"/><path class="cls-1" d="M12.09,286.17a14.18,14.18,0,0,1-4.27,4.18,15.05,15.05,0,0,1,4.27,3.71,15.05,15.05,0,0,1,4.27-3.71A14.18,14.18,0,0,1,12.09,286.17Z"/><path class="cls-1" d="M59.31,312.65a15.16,15.16,0,0,1-2.64,2.61,15.85,15.85,0,0,1,2.64,2.33,16.19,16.19,0,0,1,2.63-2.33A14.77,14.77,0,0,1,59.31,312.65Z"/><path class="cls-1" d="M106.52,259.4a13.2,13.2,0,0,1-6.22,6,14.16,14.16,0,0,1,6.22,5.23,14.16,14.16,0,0,1,6.22-5.23A13.25,13.25,0,0,1,106.52,259.4Z"/><path class="cls-1" d="M106.52,286.17a14.18,14.18,0,0,1-4.27,4.18,15.05,15.05,0,0,1,4.27,3.71,15.19,15.19,0,0,1,4.27-3.71A14.18,14.18,0,0,1,106.52,286.17Z"/><path class="cls-1" d="M106.52,232a12.3,12.3,0,0,1-9.11,8.54,13.22,13.22,0,0,1,9.11,7,13.24,13.24,0,0,1,9.11-7A12.33,12.33,0,0,1,106.52,232Z"/><path class="cls-1" d="M271.78,259.4a13.29,13.29,0,0,1-6.22,6,14.16,14.16,0,0,1,6.22,5.23,14.14,14.14,0,0,1,6.21-5.23A13.23,13.23,0,0,1,271.78,259.4Z"/><path class="cls-1" d="M106.52,312.65a15.11,15.11,0,0,1-2.63,2.61,16.19,16.19,0,0,1,2.63,2.33,15.85,15.85,0,0,1,2.64-2.33A14.82,14.82,0,0,1,106.52,312.65Z"/><path class="cls-1" d="M82.91,259.4a13.23,13.23,0,0,1-6.21,6,14.14,14.14,0,0,1,6.21,5.23,14.16,14.16,0,0,1,6.22-5.23A13.29,13.29,0,0,1,82.91,259.4Z"/><path class="cls-1" d="M59.31,232a12.33,12.33,0,0,1-9.11,8.54,13.24,13.24,0,0,1,9.11,7,13.22,13.22,0,0,1,9.11-7A12.3,12.3,0,0,1,59.31,232Z"/><path class="cls-1" d="M82.91,232a12.3,12.3,0,0,1-9.11,8.54,13.22,13.22,0,0,1,9.11,7,13.24,13.24,0,0,1,9.11-7A12.33,12.33,0,0,1,82.91,232Z"/><path class="cls-1" d="M82.91,312.65a14.77,14.77,0,0,1-2.63,2.61,16.19,16.19,0,0,1,2.63,2.33,15.85,15.85,0,0,1,2.64-2.33A15.16,15.16,0,0,1,82.91,312.65Z"/><path class="cls-1" d="M59.31,259.4a13.29,13.29,0,0,1-6.22,6,14.16,14.16,0,0,1,6.22,5.23,14.14,14.14,0,0,1,6.21-5.23A13.23,13.23,0,0,1,59.31,259.4Z"/><path class="cls-1" d="M82.91,286.17a14,14,0,0,1-4.27,4.18,15.05,15.05,0,0,1,4.27,3.71,15.33,15.33,0,0,1,4.27-3.71A14.18,14.18,0,0,1,82.91,286.17Z"/><path class="cls-1" d="M413.42,259.4a13.23,13.23,0,0,1-6.21,6,14.14,14.14,0,0,1,6.21,5.23,14.16,14.16,0,0,1,6.22-5.23A13.29,13.29,0,0,1,413.42,259.4Z"/><path class="cls-1" d="M460.64,286.17a14.18,14.18,0,0,1-4.27,4.18,15.19,15.19,0,0,1,4.27,3.71,15.05,15.05,0,0,1,4.27-3.71A14.18,14.18,0,0,1,460.64,286.17Z"/><path class="cls-1" d="M437,286.17a14.18,14.18,0,0,1-4.27,4.18,15.05,15.05,0,0,1,4.27,3.71,15.19,15.19,0,0,1,4.27-3.71A14.18,14.18,0,0,1,437,286.17Z"/><path class="cls-1" d="M437,312.65a15.11,15.11,0,0,1-2.63,2.61,16.19,16.19,0,0,1,2.63,2.33,15.85,15.85,0,0,1,2.64-2.33A14.82,14.82,0,0,1,437,312.65Z"/><path class="cls-1" d="M437,232a12.31,12.31,0,0,1-9.11,8.54,13.22,13.22,0,0,1,9.11,7,13.24,13.24,0,0,1,9.11-7A12.33,12.33,0,0,1,437,232Z"/><path class="cls-1" d="M437,259.4a13.2,13.2,0,0,1-6.22,6,14.16,14.16,0,0,1,6.22,5.23,14.16,14.16,0,0,1,6.22-5.23A13.25,13.25,0,0,1,437,259.4Z"/><path class="cls-1" d="M413.42,312.65a14.77,14.77,0,0,1-2.63,2.61,16.19,16.19,0,0,1,2.63,2.33,15.85,15.85,0,0,1,2.64-2.33A15.16,15.16,0,0,1,413.42,312.65Z"/><path class="cls-1" d="M389.82,232a12.33,12.33,0,0,1-9.11,8.54,13.26,13.26,0,0,1,9.11,7,13.22,13.22,0,0,1,9.1-7A12.3,12.3,0,0,1,389.82,232Z"/><path class="cls-1" d="M413.42,286.17a14,14,0,0,1-4.27,4.18,15.05,15.05,0,0,1,4.27,3.71,15.33,15.33,0,0,1,4.27-3.71A14.18,14.18,0,0,1,413.42,286.17Z"/><path class="cls-1" d="M413.42,232a12.3,12.3,0,0,1-9.11,8.54,13.22,13.22,0,0,1,9.11,7,13.24,13.24,0,0,1,9.11-7A12.33,12.33,0,0,1,413.42,232Z"/><path class="cls-1" d="M484.25,312.65a15.16,15.16,0,0,1-2.64,2.61,15.85,15.85,0,0,1,2.64,2.33,16.19,16.19,0,0,1,2.63-2.33A14.77,14.77,0,0,1,484.25,312.65Z"/><path class="cls-1" d="M484.25,259.4a13.29,13.29,0,0,1-6.22,6,14.16,14.16,0,0,1,6.22,5.23,14.14,14.14,0,0,1,6.21-5.23A13.23,13.23,0,0,1,484.25,259.4Z"/><path class="cls-1" d="M271.78,232a12.33,12.33,0,0,1-9.11,8.54,13.24,13.24,0,0,1,9.11,7,13.22,13.22,0,0,1,9.11-7A12.3,12.3,0,0,1,271.78,232Z"/><path class="cls-1" d="M475.14,240.54a13.24,13.24,0,0,1,9.11,7,13.22,13.22,0,0,1,9.11-7,12.3,12.3,0,0,1-9.11-8.54A12.33,12.33,0,0,1,475.14,240.54Z"/><path class="cls-1" d="M460.64,259.4a13.25,13.25,0,0,1-6.22,6,14.16,14.16,0,0,1,6.22,5.23,14.16,14.16,0,0,1,6.22-5.23A13.2,13.2,0,0,1,460.64,259.4Z"/><path class="cls-1" d="M460.64,232a12.33,12.33,0,0,1-9.11,8.54,13.24,13.24,0,0,1,9.11,7,13.22,13.22,0,0,1,9.11-7A12.3,12.3,0,0,1,460.64,232Z"/><path class="cls-1" d="M484.25,286.17a14.18,14.18,0,0,1-4.27,4.18,15.33,15.33,0,0,1,4.27,3.71,15.05,15.05,0,0,1,4.27-3.71A14,14,0,0,1,484.25,286.17Z"/><path class="cls-1" d="M389.82,259.4a13.29,13.29,0,0,1-6.22,6,14.16,14.16,0,0,1,6.22,5.23,14.14,14.14,0,0,1,6.21-5.23A13.23,13.23,0,0,1,389.82,259.4Z"/><path class="cls-1" d="M460.64,312.65a14.82,14.82,0,0,1-2.64,2.61,15.85,15.85,0,0,1,2.64,2.33,16.19,16.19,0,0,1,2.63-2.33A15.11,15.11,0,0,1,460.64,312.65Z"/><path class="cls-1" d="M319,259.4a13.2,13.2,0,0,1-6.22,6,14.16,14.16,0,0,1,6.22,5.23,14.16,14.16,0,0,1,6.22-5.23A13.25,13.25,0,0,1,319,259.4Z"/><path class="cls-1" d="M319,286.17a14.18,14.18,0,0,1-4.27,4.18,15.05,15.05,0,0,1,4.27,3.71,15.19,15.19,0,0,1,4.27-3.71A14.18,14.18,0,0,1,319,286.17Z"/><path class="cls-1" d="M342.6,286.17a14.18,14.18,0,0,1-4.27,4.18,15.05,15.05,0,0,1,4.27,3.71,15.05,15.05,0,0,1,4.27-3.71A14.18,14.18,0,0,1,342.6,286.17Z"/><path class="cls-1" d="M342.6,312.65a15.11,15.11,0,0,1-2.63,2.61,16.19,16.19,0,0,1,2.63,2.33,16.19,16.19,0,0,1,2.63-2.33A15.11,15.11,0,0,1,342.6,312.65Z"/><path class="cls-1" d="M319,312.65a15.11,15.11,0,0,1-2.63,2.61,16.19,16.19,0,0,1,2.63,2.33,15.85,15.85,0,0,1,2.64-2.33A15.16,15.16,0,0,1,319,312.65Z"/><path class="cls-1" d="M389.82,286.17a14.1,14.1,0,0,1-4.28,4.18,15.23,15.23,0,0,1,4.28,3.71,15.05,15.05,0,0,1,4.27-3.71A14,14,0,0,1,389.82,286.17Z"/><path class="cls-1" d="M295.38,286.17a14,14,0,0,1-4.27,4.18,15.05,15.05,0,0,1,4.27,3.71,15.23,15.23,0,0,1,4.28-3.71A14.1,14.1,0,0,1,295.38,286.17Z"/><path class="cls-1" d="M295.38,232a12.3,12.3,0,0,1-9.11,8.54,13.22,13.22,0,0,1,9.11,7,13.24,13.24,0,0,1,9.11-7A12.33,12.33,0,0,1,295.38,232Z"/><path class="cls-1" d="M295.38,259.4a13.23,13.23,0,0,1-6.21,6,14.14,14.14,0,0,1,6.21,5.23,14.16,14.16,0,0,1,6.22-5.23A13.29,13.29,0,0,1,295.38,259.4Z"/><path class="cls-1" d="M319,232a12.3,12.3,0,0,1-9.11,8.54,13.22,13.22,0,0,1,9.11,7,13.24,13.24,0,0,1,9.11-7A12.33,12.33,0,0,1,319,232Z"/><path class="cls-1" d="M366.21,259.4a13.25,13.25,0,0,1-6.22,6,14.16,14.16,0,0,1,6.22,5.23,14.19,14.19,0,0,1,6.21-5.23A13.23,13.23,0,0,1,366.21,259.4Z"/><path class="cls-1" d="M366.21,232a12.33,12.33,0,0,1-9.11,8.54,13.24,13.24,0,0,1,9.11,7,13.22,13.22,0,0,1,9.11-7A12.3,12.3,0,0,1,366.21,232Z"/><path class="cls-1" d="M366.21,286.17a14.18,14.18,0,0,1-4.27,4.18,15.33,15.33,0,0,1,4.27,3.71,15.05,15.05,0,0,1,4.27-3.71A14.07,14.07,0,0,1,366.21,286.17Z"/><path class="cls-1" d="M389.82,312.65a15.16,15.16,0,0,1-2.64,2.61,16.26,16.26,0,0,1,2.64,2.33,16.19,16.19,0,0,1,2.63-2.33A14.77,14.77,0,0,1,389.82,312.65Z"/><path class="cls-1" d="M295.38,312.65a14.77,14.77,0,0,1-2.63,2.61,16.19,16.19,0,0,1,2.63,2.33,15.85,15.85,0,0,1,2.64-2.33A15.16,15.16,0,0,1,295.38,312.65Z"/><path class="cls-1" d="M342.6,259.4a13.25,13.25,0,0,1-6.22,6,14.16,14.16,0,0,1,6.22,5.23,14.16,14.16,0,0,1,6.22-5.23A13.2,13.2,0,0,1,342.6,259.4Z"/><path class="cls-1" d="M342.6,232a12.33,12.33,0,0,1-9.11,8.54,13.22,13.22,0,0,1,9.11,7,13.22,13.22,0,0,1,9.11-7A12.33,12.33,0,0,1,342.6,232Z"/><path class="cls-1" d="M366.21,312.65a15.16,15.16,0,0,1-2.64,2.61,15.85,15.85,0,0,1,2.64,2.33,16.19,16.19,0,0,1,2.63-2.33A15.11,15.11,0,0,1,366.21,312.65Z"/><path d="M484.25,225.09a12.3,12.3,0,0,0-23.61,0,12.3,12.3,0,0,0-23.61,0,12.3,12.3,0,0,0-23.61,0,12.29,12.29,0,0,0-23.6,0,12.3,12.3,0,0,0-23.61,0,12.3,12.3,0,0,0-23.61,0,12.3,12.3,0,0,0-23.61,0,12.3,12.3,0,0,0-23.61,0,12.29,12.29,0,0,0-23.6,0,12.3,12.3,0,0,0-23.61,0,12.3,12.3,0,0,0-23.61,0,12.3,12.3,0,0,0-23.61,0,12.29,12.29,0,0,0-23.6,0,12.3,12.3,0,0,0-23.61,0,12.3,12.3,0,0,0-23.61,0,12.3,12.3,0,0,0-23.61,0,12.3,12.3,0,0,0-23.61,0,12.29,12.29,0,0,0-23.6,0,12.3,12.3,0,0,0-23.61,0,12.3,12.3,0,0,0-23.61,0,12.3,12.3,0,0,0-11.8-8.85H0v218H496v-218A12.3,12.3,0,0,0,484.25,225.09ZM12.09,317.59a16.19,16.19,0,0,0-2.63-2.33,15.11,15.11,0,0,0,2.63-2.61,14.82,14.82,0,0,0,2.64,2.61A15.85,15.85,0,0,0,12.09,317.59Zm0-23.53a15.05,15.05,0,0,0-4.27-3.71,14.18,14.18,0,0,0,4.27-4.18,14.18,14.18,0,0,0,4.27,4.18A15.05,15.05,0,0,0,12.09,294.06Zm0-23.39a14.16,14.16,0,0,0-6.22-5.23,13.2,13.2,0,0,0,6.22-6,13.25,13.25,0,0,0,6.22,6A14.16,14.16,0,0,0,12.09,270.67Zm0-23.11a13.22,13.22,0,0,0-9.11-7A12.33,12.33,0,0,0,12.09,232a12.33,12.33,0,0,0,9.11,8.54A13.22,13.22,0,0,0,12.09,247.56Zm23.61,70a15.85,15.85,0,0,0-2.64-2.33,14.82,14.82,0,0,0,2.64-2.61,15.11,15.11,0,0,0,2.63,2.61A16.19,16.19,0,0,0,35.7,317.59Zm0-23.53a15.19,15.19,0,0,0-4.27-3.71,14.18,14.18,0,0,0,4.27-4.18A14.18,14.18,0,0,0,40,290.35,15.05,15.05,0,0,0,35.7,294.06Zm0-23.39a14.16,14.16,0,0,0-6.22-5.23,13.25,13.25,0,0,0,6.22-6,13.2,13.2,0,0,0,6.22,6A14.16,14.16,0,0,0,35.7,270.67Zm0-23.11a13.24,13.24,0,0,0-9.11-7A12.33,12.33,0,0,0,35.7,232a12.3,12.3,0,0,0,9.11,8.54A13.22,13.22,0,0,0,35.7,247.56Zm23.61,70a15.85,15.85,0,0,0-2.64-2.33,15.16,15.16,0,0,0,2.64-2.61,14.77,14.77,0,0,0,2.63,2.61A16.19,16.19,0,0,0,59.31,317.59Zm0-23.53A15.23,15.23,0,0,0,55,290.35a14.1,14.1,0,0,0,4.28-4.18,14,14,0,0,0,4.27,4.18A15.05,15.05,0,0,0,59.31,294.06Zm0-23.39a14.16,14.16,0,0,0-6.22-5.23,13.29,13.29,0,0,0,6.22-6,13.23,13.23,0,0,0,6.21,6A14.14,14.14,0,0,0,59.31,270.67Zm0-23.11a13.24,13.24,0,0,0-9.11-7A12.33,12.33,0,0,0,59.31,232a12.3,12.3,0,0,0,9.11,8.54A13.22,13.22,0,0,0,59.31,247.56Zm23.6,70a16.19,16.19,0,0,0-2.63-2.33,14.77,14.77,0,0,0,2.63-2.61,15.16,15.16,0,0,0,2.64,2.61A15.85,15.85,0,0,0,82.91,317.59Zm0-23.53a15.05,15.05,0,0,0-4.27-3.71,14,14,0,0,0,4.27-4.18,14.18,14.18,0,0,0,4.27,4.18A15.33,15.33,0,0,0,82.91,294.06Zm0-23.39a14.14,14.14,0,0,0-6.21-5.23,13.23,13.23,0,0,0,6.21-6,13.29,13.29,0,0,0,6.22,6A14.16,14.16,0,0,0,82.91,270.67Zm0-23.11a13.22,13.22,0,0,0-9.11-7A12.3,12.3,0,0,0,82.91,232,12.33,12.33,0,0,0,92,240.54,13.24,13.24,0,0,0,82.91,247.56Zm23.61,70a16.19,16.19,0,0,0-2.63-2.33,15.11,15.11,0,0,0,2.63-2.61,14.82,14.82,0,0,0,2.64,2.61A15.85,15.85,0,0,0,106.52,317.59Zm0-23.53a15.05,15.05,0,0,0-4.27-3.71,14.18,14.18,0,0,0,4.27-4.18,14.18,14.18,0,0,0,4.27,4.18A15.19,15.19,0,0,0,106.52,294.06Zm0-23.39a14.16,14.16,0,0,0-6.22-5.23,13.2,13.2,0,0,0,6.22-6,13.25,13.25,0,0,0,6.22,6A14.16,14.16,0,0,0,106.52,270.67Zm0-23.11a13.22,13.22,0,0,0-9.11-7,12.3,12.3,0,0,0,9.11-8.54,12.33,12.33,0,0,0,9.11,8.54A13.24,13.24,0,0,0,106.52,247.56Zm23.61,70a15.85,15.85,0,0,0-2.64-2.33,14.82,14.82,0,0,0,2.64-2.61,15.11,15.11,0,0,0,2.63,2.61A16.19,16.19,0,0,0,130.13,317.59Zm0-23.53a15.05,15.05,0,0,0-4.27-3.71,14.18,14.18,0,0,0,4.27-4.18,14.18,14.18,0,0,0,4.27,4.18A15.05,15.05,0,0,0,130.13,294.06Zm0-23.39a14.16,14.16,0,0,0-6.22-5.23,13.25,13.25,0,0,0,6.22-6,13.2,13.2,0,0,0,6.22,6A14.16,14.16,0,0,0,130.13,270.67Zm0-23.11a13.22,13.22,0,0,0-9.11-7,12.33,12.33,0,0,0,9.11-8.54,12.33,12.33,0,0,0,9.11,8.54A13.22,13.22,0,0,0,130.13,247.56Zm23.61,70a15.85,15.85,0,0,0-2.64-2.33,15.16,15.16,0,0,0,2.64-2.61,14.77,14.77,0,0,0,2.63,2.61A16.19,16.19,0,0,0,153.74,317.59Zm0-23.53a15.33,15.33,0,0,0-4.27-3.71,14.18,14.18,0,0,0,4.27-4.18,14,14,0,0,0,4.27,4.18A15.05,15.05,0,0,0,153.74,294.06Zm0-23.39a14.16,14.16,0,0,0-6.22-5.23,13.25,13.25,0,0,0,6.22-6,13.23,13.23,0,0,0,6.21,6A14.14,14.14,0,0,0,153.74,270.67Zm0-23.11a13.24,13.24,0,0,0-9.11-7,12.33,12.33,0,0,0,9.11-8.54,12.3,12.3,0,0,0,9.11,8.54A13.22,13.22,0,0,0,153.74,247.56Zm23.61,70a16.69,16.69,0,0,0-2.64-2.33,15.16,15.16,0,0,0,2.64-2.61,14.77,14.77,0,0,0,2.63,2.61A16.19,16.19,0,0,0,177.35,317.59Zm0-23.53a15.23,15.23,0,0,0-4.28-3.71,14.1,14.1,0,0,0,4.28-4.18,14,14,0,0,0,4.27,4.18A15.05,15.05,0,0,0,177.35,294.06Zm0-23.39a14.22,14.22,0,0,0-6.22-5.23,13.29,13.29,0,0,0,6.22-6,13.23,13.23,0,0,0,6.21,6A14.14,14.14,0,0,0,177.35,270.67Zm0-23.11a13.26,13.26,0,0,0-9.11-7,12.33,12.33,0,0,0,9.11-8.54,12.3,12.3,0,0,0,9.1,8.54A13.22,13.22,0,0,0,177.35,247.56Zm23.6,70a16.19,16.19,0,0,0-2.63-2.33,14.77,14.77,0,0,0,2.63-2.61,15.16,15.16,0,0,0,2.64,2.61A15.85,15.85,0,0,0,201,317.59Zm0-23.53a15.05,15.05,0,0,0-4.27-3.71,14,14,0,0,0,4.27-4.18,14.18,14.18,0,0,0,4.27,4.18A15.33,15.33,0,0,0,201,294.06Zm0-23.39a14.14,14.14,0,0,0-6.21-5.23,13.23,13.23,0,0,0,6.21-6,13.25,13.25,0,0,0,6.22,6A14.16,14.16,0,0,0,201,270.67Zm0-23.11a13.22,13.22,0,0,0-9.11-7A12.3,12.3,0,0,0,201,232a12.33,12.33,0,0,0,9.11,8.54A13.24,13.24,0,0,0,201,247.56Zm23.61,70a16.19,16.19,0,0,0-2.63-2.33,15.11,15.11,0,0,0,2.63-2.61,14.82,14.82,0,0,0,2.64,2.61A15.85,15.85,0,0,0,224.56,317.59Zm0-23.53a15.05,15.05,0,0,0-4.27-3.71,14.18,14.18,0,0,0,4.27-4.18,14.18,14.18,0,0,0,4.27,4.18A15.19,15.19,0,0,0,224.56,294.06Zm0-23.39a14.16,14.16,0,0,0-6.22-5.23,13.2,13.2,0,0,0,6.22-6,13.25,13.25,0,0,0,6.22,6A14.16,14.16,0,0,0,224.56,270.67Zm0-23.11a13.22,13.22,0,0,0-9.11-7,12.33,12.33,0,0,0,9.11-8.54,12.33,12.33,0,0,0,9.11,8.54A13.22,13.22,0,0,0,224.56,247.56Zm23.61,70a15.85,15.85,0,0,0-2.64-2.33,14.82,14.82,0,0,0,2.64-2.61,15.11,15.11,0,0,0,2.63,2.61A16.19,16.19,0,0,0,248.17,317.59Zm0-23.53a15.19,15.19,0,0,0-4.27-3.71,14.18,14.18,0,0,0,4.27-4.18,14.18,14.18,0,0,0,4.27,4.18A15.05,15.05,0,0,0,248.17,294.06Zm0-23.39a14.16,14.16,0,0,0-6.22-5.23,13.25,13.25,0,0,0,6.22-6,13.2,13.2,0,0,0,6.22,6A14.16,14.16,0,0,0,248.17,270.67Zm0-23.11a13.24,13.24,0,0,0-9.11-7,12.33,12.33,0,0,0,9.11-8.54,12.3,12.3,0,0,0,9.11,8.54A13.22,13.22,0,0,0,248.17,247.56Zm23.61,70a15.85,15.85,0,0,0-2.64-2.33,15.16,15.16,0,0,0,2.64-2.61,14.77,14.77,0,0,0,2.63,2.61A16.19,16.19,0,0,0,271.78,317.59Zm0-23.53a15.33,15.33,0,0,0-4.27-3.71,14.18,14.18,0,0,0,4.27-4.18,14,14,0,0,0,4.27,4.18A15.05,15.05,0,0,0,271.78,294.06Zm0-23.39a14.16,14.16,0,0,0-6.22-5.23,13.29,13.29,0,0,0,6.22-6,13.23,13.23,0,0,0,6.21,6A14.14,14.14,0,0,0,271.78,270.67Zm0-23.11a13.24,13.24,0,0,0-9.11-7,12.33,12.33,0,0,0,9.11-8.54,12.3,12.3,0,0,0,9.11,8.54A13.22,13.22,0,0,0,271.78,247.56Zm23.6,70a16.19,16.19,0,0,0-2.63-2.33,14.77,14.77,0,0,0,2.63-2.61,15.16,15.16,0,0,0,2.64,2.61A15.85,15.85,0,0,0,295.38,317.59Zm0-23.53a15.05,15.05,0,0,0-4.27-3.71,14,14,0,0,0,4.27-4.18,14.1,14.1,0,0,0,4.28,4.18A15.23,15.23,0,0,0,295.38,294.06Zm0-23.39a14.14,14.14,0,0,0-6.21-5.23,13.23,13.23,0,0,0,6.21-6,13.29,13.29,0,0,0,6.22,6A14.16,14.16,0,0,0,295.38,270.67Zm0-23.11a13.22,13.22,0,0,0-9.11-7,12.3,12.3,0,0,0,9.11-8.54,12.33,12.33,0,0,0,9.11,8.54A13.24,13.24,0,0,0,295.38,247.56Zm23.61,70a16.19,16.19,0,0,0-2.63-2.33,15.11,15.11,0,0,0,2.63-2.61,15.16,15.16,0,0,0,2.64,2.61A15.85,15.85,0,0,0,319,317.59Zm0-23.53a15.05,15.05,0,0,0-4.27-3.71,14.18,14.18,0,0,0,4.27-4.18,14.18,14.18,0,0,0,4.27,4.18A15.19,15.19,0,0,0,319,294.06Zm0-23.39a14.16,14.16,0,0,0-6.22-5.23,13.2,13.2,0,0,0,6.22-6,13.25,13.25,0,0,0,6.22,6A14.16,14.16,0,0,0,319,270.67Zm0-23.11a13.22,13.22,0,0,0-9.11-7A12.3,12.3,0,0,0,319,232a12.33,12.33,0,0,0,9.11,8.54A13.24,13.24,0,0,0,319,247.56Zm23.61,70a16.19,16.19,0,0,0-2.63-2.33,15.11,15.11,0,0,0,2.63-2.61,15.11,15.11,0,0,0,2.63,2.61A16.19,16.19,0,0,0,342.6,317.59Zm0-23.53a15.05,15.05,0,0,0-4.27-3.71,14.18,14.18,0,0,0,4.27-4.18,14.18,14.18,0,0,0,4.27,4.18A15.05,15.05,0,0,0,342.6,294.06Zm0-23.39a14.16,14.16,0,0,0-6.22-5.23,13.25,13.25,0,0,0,6.22-6,13.2,13.2,0,0,0,6.22,6A14.16,14.16,0,0,0,342.6,270.67Zm0-23.11a13.22,13.22,0,0,0-9.11-7A12.33,12.33,0,0,0,342.6,232a12.33,12.33,0,0,0,9.11,8.54A13.22,13.22,0,0,0,342.6,247.56Zm23.61,70a15.85,15.85,0,0,0-2.64-2.33,15.16,15.16,0,0,0,2.64-2.61,15.11,15.11,0,0,0,2.63,2.61A16.19,16.19,0,0,0,366.21,317.59Zm0-23.53a15.33,15.33,0,0,0-4.27-3.71,14.18,14.18,0,0,0,4.27-4.18,14.07,14.07,0,0,0,4.27,4.18A15.05,15.05,0,0,0,366.21,294.06Zm0-23.39a14.16,14.16,0,0,0-6.22-5.23,13.25,13.25,0,0,0,6.22-6,13.23,13.23,0,0,0,6.21,6A14.19,14.19,0,0,0,366.21,270.67Zm0-23.11a13.24,13.24,0,0,0-9.11-7,12.33,12.33,0,0,0,9.11-8.54,12.3,12.3,0,0,0,9.11,8.54A13.22,13.22,0,0,0,366.21,247.56Zm23.61,70a16.26,16.26,0,0,0-2.64-2.33,15.16,15.16,0,0,0,2.64-2.61,14.77,14.77,0,0,0,2.63,2.61A16.19,16.19,0,0,0,389.82,317.59Zm0-23.53a15.23,15.23,0,0,0-4.28-3.71,14.1,14.1,0,0,0,4.28-4.18,14,14,0,0,0,4.27,4.18A15.05,15.05,0,0,0,389.82,294.06Zm0-23.39a14.16,14.16,0,0,0-6.22-5.23,13.29,13.29,0,0,0,6.22-6,13.23,13.23,0,0,0,6.21,6A14.14,14.14,0,0,0,389.82,270.67Zm0-23.11a13.26,13.26,0,0,0-9.11-7,12.33,12.33,0,0,0,9.11-8.54,12.3,12.3,0,0,0,9.1,8.54A13.22,13.22,0,0,0,389.82,247.56Zm23.6,70a16.19,16.19,0,0,0-2.63-2.33,14.77,14.77,0,0,0,2.63-2.61,15.16,15.16,0,0,0,2.64,2.61A15.85,15.85,0,0,0,413.42,317.59Zm0-23.53a15.05,15.05,0,0,0-4.27-3.71,14,14,0,0,0,4.27-4.18,14.18,14.18,0,0,0,4.27,4.18A15.33,15.33,0,0,0,413.42,294.06Zm0-23.39a14.14,14.14,0,0,0-6.21-5.23,13.23,13.23,0,0,0,6.21-6,13.29,13.29,0,0,0,6.22,6A14.16,14.16,0,0,0,413.42,270.67Zm0-23.11a13.22,13.22,0,0,0-9.11-7,12.3,12.3,0,0,0,9.11-8.54,12.33,12.33,0,0,0,9.11,8.54A13.24,13.24,0,0,0,413.42,247.56Zm23.61,70a16.19,16.19,0,0,0-2.63-2.33,15.11,15.11,0,0,0,2.63-2.61,14.82,14.82,0,0,0,2.64,2.61A15.85,15.85,0,0,0,437,317.59Zm0-23.53a15.05,15.05,0,0,0-4.27-3.71,14.18,14.18,0,0,0,4.27-4.18,14.18,14.18,0,0,0,4.27,4.18A15.19,15.19,0,0,0,437,294.06Zm0-23.39a14.16,14.16,0,0,0-6.22-5.23,13.2,13.2,0,0,0,6.22-6,13.25,13.25,0,0,0,6.22,6A14.16,14.16,0,0,0,437,270.67Zm0-23.11a13.22,13.22,0,0,0-9.11-7A12.31,12.31,0,0,0,437,232a12.33,12.33,0,0,0,9.11,8.54A13.24,13.24,0,0,0,437,247.56Zm23.61,70a15.85,15.85,0,0,0-2.64-2.33,14.82,14.82,0,0,0,2.64-2.61,15.11,15.11,0,0,0,2.63,2.61A16.19,16.19,0,0,0,460.64,317.59Zm0-23.53a15.19,15.19,0,0,0-4.27-3.71,14.18,14.18,0,0,0,4.27-4.18,14.18,14.18,0,0,0,4.27,4.18A15.05,15.05,0,0,0,460.64,294.06Zm0-23.39a14.16,14.16,0,0,0-6.22-5.23,13.25,13.25,0,0,0,6.22-6,13.2,13.2,0,0,0,6.22,6A14.16,14.16,0,0,0,460.64,270.67Zm0-23.11a13.24,13.24,0,0,0-9.11-7,12.33,12.33,0,0,0,9.11-8.54,12.3,12.3,0,0,0,9.11,8.54A13.22,13.22,0,0,0,460.64,247.56Zm23.61,70a15.85,15.85,0,0,0-2.64-2.33,15.16,15.16,0,0,0,2.64-2.61,14.77,14.77,0,0,0,2.63,2.61A16.19,16.19,0,0,0,484.25,317.59Zm0-23.53a15.33,15.33,0,0,0-4.27-3.71,14.18,14.18,0,0,0,4.27-4.18,14,14,0,0,0,4.27,4.18A15.05,15.05,0,0,0,484.25,294.06Zm0-23.39a14.16,14.16,0,0,0-6.22-5.23,13.29,13.29,0,0,0,6.22-6,13.23,13.23,0,0,0,6.21,6A14.14,14.14,0,0,0,484.25,270.67Zm9.11-30.13a13.22,13.22,0,0,0-9.11,7,13.24,13.24,0,0,0-9.11-7,12.33,12.33,0,0,0,9.11-8.54A12.3,12.3,0,0,0,493.36,240.54Z"/><path d="M11.68,203.6A11.39,11.39,0,0,0,.29,192.21l-.29,0V215l.29,0A11.39,11.39,0,0,0,11.68,203.6Z"/><path d="M10.77,178.67A10.48,10.48,0,0,0,.29,168.19H0v20.93l.29,0A10.48,10.48,0,0,0,10.77,178.67Z"/><path d="M9.86,153.73a9.57,9.57,0,0,0-9.57-9.57H0v19.11l.29,0A9.58,9.58,0,0,0,9.86,153.73Z"/><path d="M9,128.79a8.66,8.66,0,0,0-8.66-8.66l-.29,0v17.29H.29A8.66,8.66,0,0,0,9,128.79Z"/><path d="M8,103.85A7.73,7.73,0,0,0,.29,96.11H0v15.47H.29A7.74,7.74,0,0,0,8,103.85Z"/><path d="M7.12,78.92A6.83,6.83,0,0,0,.29,72.08H0V85.74H.29A6.83,6.83,0,0,0,7.12,78.92Z"/><path d="M6.21,54A5.93,5.93,0,0,0,.29,48.05l-.29,0V59.89H.29A5.92,5.92,0,0,0,6.21,54Z"/><path d="M5.3,29a5,5,0,0,0-5-5,2.85,2.85,0,0,0-.29,0V34a2.85,2.85,0,0,0,.29,0A5,5,0,0,0,5.3,29Z"/><path d="M4.39,4.1A4.11,4.11,0,0,0,.29,0,2.85,2.85,0,0,0,0,0V8.17a2.85,2.85,0,0,0,.29,0A4.1,4.1,0,0,0,4.39,4.1Z"/><circle cx="23.89" cy="203.6" r="11.39" transform="translate(-136.97 76.53) rotate(-45)"/><circle cx="23.89" cy="178.67" r="10.48" transform="translate(-28.31 6.13) rotate(-9.22)"/><circle cx="23.89" cy="153.73" r="9.57" transform="translate(-127.28 116.97) rotate(-67.5)"/><circle cx="23.89" cy="128.79" r="8.66" transform="translate(-84.07 54.62) rotate(-45)"/><circle cx="23.89" cy="103.85" r="7.75" transform="translate(-66.44 47.31) rotate(-45)"/><circle cx="23.89" cy="78.92" r="6.84" transform="translate(-48.8 40.01) rotate(-45)"/><circle cx="23.89" cy="53.98" r="5.92" transform="translate(-31.17 32.71) rotate(-45)"/><circle cx="23.89" cy="29.04" r="5.01" transform="translate(-6.03 6.27) rotate(-13.28)"/><path d="M23.89,8.2a4.1,4.1,0,1,0-4.1-4.1A4.1,4.1,0,0,0,23.89,8.2Z"/><circle cx="47.5" cy="203.6" r="11.39" transform="translate(-130.06 93.22) rotate(-45)"/><circle cx="47.5" cy="178.67" r="10.48"/><circle cx="47.5" cy="153.73" r="9.57"/><circle cx="47.5" cy="128.79" r="8.66" transform="translate(-77.16 71.31) rotate(-45)"/><circle cx="47.5" cy="103.85" r="7.75"/><circle cx="47.5" cy="78.92" r="6.84"/><circle cx="47.5" cy="53.98" r="5.92" transform="translate(-24.25 49.4) rotate(-45)"/><circle cx="47.5" cy="29.04" r="5.01"/><circle cx="47.5" cy="4.1" r="4.1"/><circle cx="71.11" cy="203.6" r="11.39" transform="translate(-44.88 21.78) rotate(-13.28)"/><circle cx="71.11" cy="178.67" r="10.48"/><circle cx="71.11" cy="153.73" r="9.57"/><circle cx="71.11" cy="128.79" r="8.66" transform="translate(-27.69 19.78) rotate(-13.28)"/><circle cx="71.11" cy="103.85" r="7.75"/><circle cx="71.11" cy="78.92" r="6.84"/><circle cx="71.11" cy="53.98" r="5.92" transform="translate(-10.5 17.78) rotate(-13.28)"/><circle cx="71.11" cy="29.04" r="5.01"/><path d="M71.11,8.2A4.1,4.1,0,1,0,67,4.1,4.09,4.09,0,0,0,71.11,8.2Z"/><circle cx="94.72" cy="203.6" r="11.39" transform="translate(-116.23 126.61) rotate(-45)"/><circle cx="94.72" cy="178.67" r="10.48" transform="translate(-27.4 17.48) rotate(-9.22)"/><circle cx="94.72" cy="153.73" r="9.57" transform="translate(-83.56 182.41) rotate(-67.5)"/><circle cx="94.72" cy="128.79" r="8.66" transform="translate(-63.33 104.7) rotate(-45)"/><circle cx="94.72" cy="103.85" r="7.75" transform="translate(-45.69 97.39) rotate(-45)"/><circle cx="94.72" cy="78.92" r="6.84" transform="translate(-28.06 90.09) rotate(-45)"/><circle cx="94.72" cy="53.98" r="5.92" transform="translate(-10.43 82.79) rotate(-45)"/><circle cx="94.72" cy="29.04" r="5.01" transform="translate(-4.14 22.54) rotate(-13.28)"/><path d="M94.72,8.2a4.1,4.1,0,1,0-4.1-4.1A4.1,4.1,0,0,0,94.72,8.2Z"/><circle cx="118.33" cy="203.6" r="11.39" transform="translate(-109.31 143.3) rotate(-45)"/><circle cx="118.33" cy="178.67" r="10.48"/><circle cx="118.33" cy="153.73" r="9.57"/><circle cx="118.33" cy="128.79" r="8.66" transform="translate(-56.41 121.39) rotate(-45)"/><circle cx="118.33" cy="103.85" r="7.75"/><circle cx="118.33" cy="78.92" r="6.84"/><circle cx="118.33" cy="53.98" r="5.92" transform="translate(-3.51 99.48) rotate(-45)"/><circle cx="118.33" cy="29.04" r="5.01"/><circle cx="118.33" cy="4.1" r="4.1"/><circle cx="141.93" cy="203.6" r="11.39" transform="translate(-42.98 38.06) rotate(-13.28)"/><circle cx="141.93" cy="178.67" r="10.48"/><circle cx="141.93" cy="153.73" r="9.57"/><circle cx="141.93" cy="128.79" r="8.66" transform="translate(-25.79 36.05) rotate(-13.28)"/><circle cx="141.93" cy="103.85" r="7.75"/><circle cx="141.93" cy="78.92" r="6.84"/><circle cx="141.93" cy="53.98" r="5.92" transform="translate(-8.6 34.05) rotate(-13.28)"/><circle cx="141.93" cy="29.04" r="5.01"/><circle cx="141.93" cy="4.1" r="4.1"/><circle cx="165.54" cy="203.6" r="11.39" transform="translate(-95.48 176.69) rotate(-45)"/><circle cx="165.54" cy="178.67" r="10.48" transform="translate(-26.48 28.82) rotate(-9.22)"/><circle cx="165.54" cy="153.73" r="9.57" transform="translate(-39.84 247.84) rotate(-67.5)"/><circle cx="165.54" cy="128.79" r="8.66" transform="translate(-42.58 154.78) rotate(-45)"/><circle cx="165.54" cy="103.85" r="7.75" transform="translate(-24.95 147.47) rotate(-45)"/><circle cx="165.54" cy="78.92" r="6.84" transform="translate(-7.32 140.17) rotate(-45)"/><circle cx="165.54" cy="53.98" r="5.92" transform="translate(10.32 132.86) rotate(-45)"/><circle cx="165.54" cy="29.04" r="5.01" transform="translate(-2.24 38.81) rotate(-13.28)"/><path d="M165.54,8.2a4.1,4.1,0,1,0-4.1-4.1A4.09,4.09,0,0,0,165.54,8.2Z"/><circle cx="189.15" cy="203.6" r="11.39" transform="translate(-88.57 193.38) rotate(-45)"/><circle cx="189.15" cy="178.67" r="10.48"/><circle cx="189.15" cy="153.73" r="9.57"/><circle cx="189.15" cy="128.79" r="8.66" transform="translate(-35.67 171.47) rotate(-45)"/><circle cx="189.15" cy="103.85" r="7.75"/><circle cx="189.15" cy="78.92" r="6.84"/><circle cx="189.15" cy="53.98" r="5.92" transform="translate(17.23 149.56) rotate(-45)"/><circle cx="189.15" cy="29.04" r="5.01"/><circle cx="189.15" cy="4.1" r="4.1"/><circle cx="212.76" cy="203.6" r="11.39" transform="translate(-41.09 54.33) rotate(-13.28)"/><circle cx="212.76" cy="178.67" r="10.48"/><circle cx="212.76" cy="153.73" r="9.57"/><circle cx="212.76" cy="128.79" r="8.66" transform="translate(-23.9 52.33) rotate(-13.28)"/><circle cx="212.76" cy="103.85" r="7.75"/><circle cx="212.76" cy="78.92" r="6.84"/><circle cx="212.76" cy="53.98" r="5.92" transform="translate(-6.71 50.33) rotate(-13.28)"/><circle cx="212.76" cy="29.04" r="5.01"/><circle cx="212.76" cy="4.1" r="4.1"/><circle cx="236.36" cy="203.6" r="11.39" transform="translate(-74.74 226.77) rotate(-45)"/><circle cx="236.36" cy="178.67" r="10.48" transform="translate(-25.57 40.17) rotate(-9.22)"/><circle cx="236.36" cy="153.73" r="9.57" transform="translate(3.88 313.27) rotate(-67.5)"/><circle cx="236.36" cy="128.79" r="8.66" transform="translate(-21.84 204.86) rotate(-45)"/><circle cx="236.36" cy="103.85" r="7.75" transform="translate(-4.21 197.55) rotate(-45)"/><circle cx="236.36" cy="78.92" r="6.84" transform="translate(13.43 190.25) rotate(-45)"/><circle cx="236.36" cy="53.98" r="5.92" transform="translate(31.06 182.94) rotate(-45)"/><circle cx="236.36" cy="29.04" r="5.01" transform="translate(-0.35 55.08) rotate(-13.28)"/><path d="M236.36,8.2a4.1,4.1,0,1,0-4.1-4.1A4.1,4.1,0,0,0,236.36,8.2Z"/><circle cx="259.97" cy="203.6" r="11.39" transform="translate(-67.83 243.46) rotate(-45)"/><circle cx="259.97" cy="178.67" r="10.48"/><circle cx="259.97" cy="153.73" r="9.57"/><circle cx="259.97" cy="128.79" r="8.66" transform="translate(-14.92 221.55) rotate(-45)"/><circle cx="259.97" cy="103.85" r="7.75"/><circle cx="259.97" cy="78.92" r="6.84"/><circle cx="259.97" cy="53.98" r="5.92" transform="translate(37.98 199.64) rotate(-45)"/><circle cx="259.97" cy="29.04" r="5.01"/><circle cx="259.97" cy="4.1" r="4.1"/><circle cx="283.58" cy="203.6" r="11.39" transform="translate(-39.19 70.6) rotate(-13.28)"/><circle cx="283.58" cy="178.67" r="10.48"/><circle cx="283.58" cy="153.73" r="9.57"/><circle cx="283.58" cy="128.79" r="8.66" transform="translate(-22 68.6) rotate(-13.28)"/><circle cx="283.58" cy="103.85" r="7.75"/><circle cx="283.58" cy="78.92" r="6.84"/><circle cx="283.58" cy="53.98" r="5.92" transform="translate(-4.82 66.6) rotate(-13.28)"/><circle cx="283.58" cy="29.04" r="5.01"/><circle cx="283.58" cy="4.1" r="4.1"/><circle cx="307.19" cy="203.6" r="11.39" transform="translate(-54 276.85) rotate(-45)"/><circle cx="307.19" cy="178.67" r="10.48" transform="translate(-24.65 51.51) rotate(-9.22)"/><circle cx="307.19" cy="153.73" r="9.57" transform="translate(47.61 378.7) rotate(-67.5)"/><circle cx="307.19" cy="128.79" r="8.66" transform="translate(-1.1 254.94) rotate(-45)"/><circle cx="307.19" cy="103.85" r="7.75" transform="translate(16.54 247.63) rotate(-45)"/><circle cx="307.19" cy="78.92" r="6.84" transform="translate(34.17 240.33) rotate(-45)"/><circle cx="307.19" cy="53.98" r="5.92" transform="translate(51.81 233.02) rotate(-45)"/><circle cx="307.19" cy="29.04" r="5.01" transform="translate(1.55 71.35) rotate(-13.28)"/><path d="M307.19,8.2a4.1,4.1,0,1,0-4.1-4.1A4.1,4.1,0,0,0,307.19,8.2Z"/><circle cx="330.8" cy="203.6" r="11.39" transform="translate(-47.08 293.54) rotate(-45)"/><circle cx="330.8" cy="178.67" r="10.48"/><circle cx="330.8" cy="153.73" r="9.57"/><circle cx="330.8" cy="128.79" r="8.66" transform="translate(5.82 271.63) rotate(-45)"/><circle cx="330.8" cy="103.85" r="7.75"/><circle cx="330.8" cy="78.92" r="6.84"/><circle cx="330.8" cy="53.98" r="5.92" transform="translate(58.72 249.72) rotate(-45)"/><circle cx="330.8" cy="29.04" r="5.01"/><circle cx="330.8" cy="4.1" r="4.1"/><circle cx="354.4" cy="203.6" r="11.39" transform="translate(-37.3 86.87) rotate(-13.28)"/><circle cx="354.4" cy="178.67" r="10.48"/><circle cx="354.4" cy="153.73" r="9.57"/><circle cx="354.4" cy="128.79" r="8.66" transform="translate(-20.11 84.87) rotate(-13.28)"/><circle cx="354.4" cy="103.85" r="7.75"/><circle cx="354.4" cy="78.92" r="6.84"/><circle cx="354.4" cy="53.98" r="5.92" transform="translate(-2.92 82.87) rotate(-13.28)"/><circle cx="354.4" cy="29.04" r="5.01"/><circle cx="354.4" cy="4.1" r="4.1"/><circle cx="378.01" cy="203.6" r="11.39" transform="translate(-33.25 326.93) rotate(-45)"/><circle cx="378.01" cy="178.67" r="10.48" transform="translate(-23.74 62.86) rotate(-9.22)"/><circle cx="378.01" cy="153.73" r="9.57" transform="translate(91.33 444.14) rotate(-67.5)"/><circle cx="378.01" cy="128.79" r="8.66" transform="translate(19.65 305.02) rotate(-45)"/><circle cx="378.01" cy="103.85" r="7.75" transform="translate(37.28 297.71) rotate(-45)"/><circle cx="378.01" cy="78.92" r="6.84" transform="translate(54.92 290.41) rotate(-45)"/><circle cx="378.01" cy="53.98" r="5.92" transform="translate(72.55 283.1) rotate(-45)"/><circle cx="378.01" cy="29.04" r="5.01" transform="translate(3.44 87.63) rotate(-13.28)"/><path d="M378,8.2a4.1,4.1,0,1,0-4.1-4.1A4.09,4.09,0,0,0,378,8.2Z"/><circle cx="401.62" cy="203.6" r="11.39" transform="translate(-26.34 343.62) rotate(-45)"/><circle cx="401.62" cy="178.67" r="10.48"/><circle cx="401.62" cy="153.73" r="9.57"/><circle cx="401.62" cy="128.79" r="8.66" transform="translate(26.56 321.71) rotate(-45)"/><circle cx="401.62" cy="103.85" r="7.75"/><circle cx="401.62" cy="78.92" r="6.84"/><circle cx="401.62" cy="53.98" r="5.92" transform="translate(79.46 299.8) rotate(-45)"/><circle cx="401.62" cy="29.04" r="5.01"/><circle cx="401.62" cy="4.1" r="4.1"/><circle cx="425.23" cy="203.6" r="11.39" transform="translate(-35.4 103.14) rotate(-13.28)"/><circle cx="425.23" cy="178.67" r="10.48"/><circle cx="425.23" cy="153.73" r="9.57"/><circle cx="425.23" cy="128.79" r="8.66" transform="translate(-18.21 101.14) rotate(-13.28)"/><circle cx="425.23" cy="103.85" r="7.75"/><circle cx="425.23" cy="78.92" r="6.84"/><circle cx="425.23" cy="53.98" r="5.92" transform="translate(-1.03 99.14) rotate(-13.28)"/><circle cx="425.23" cy="29.04" r="5.01"/><circle cx="425.23" cy="4.1" r="4.1"/><circle cx="448.83" cy="203.6" r="11.39" transform="translate(-12.51 377.01) rotate(-45)"/><circle cx="448.83" cy="178.67" r="10.48" transform="translate(-22.82 74.2) rotate(-9.22)"/><circle cx="448.83" cy="153.73" r="9.57" transform="translate(135.05 509.57) rotate(-67.5)"/><circle cx="448.83" cy="128.79" r="8.66" transform="translate(40.39 355.1) rotate(-45)"/><circle cx="448.83" cy="103.85" r="7.75" transform="translate(58.03 347.79) rotate(-45)"/><circle cx="448.83" cy="78.92" r="6.84" transform="translate(75.66 340.49) rotate(-45)"/><circle cx="448.83" cy="53.98" r="5.92" transform="translate(93.29 333.18) rotate(-45)"/><circle cx="448.83" cy="29.04" r="5.01" transform="translate(5.33 103.9) rotate(-13.28)"/><path d="M448.83,8.2a4.1,4.1,0,1,0-4.1-4.1A4.1,4.1,0,0,0,448.83,8.2Z"/><circle cx="472.44" cy="203.6" r="11.39" transform="translate(-5.6 393.7) rotate(-45)"/><circle cx="472.44" cy="178.67" r="10.48"/><circle cx="472.44" cy="153.73" r="9.57"/><circle cx="472.44" cy="128.79" r="8.66" transform="translate(47.31 371.79) rotate(-45)"/><circle cx="472.44" cy="103.85" r="7.75"/><circle cx="472.44" cy="78.92" r="6.84"/><circle cx="472.44" cy="53.98" r="5.92" transform="translate(100.21 349.88) rotate(-45)"/><circle cx="472.44" cy="29.04" r="5.01"/><circle cx="472.44" cy="4.1" r="4.1"/><path d="M484.66,203.6A11.38,11.38,0,0,0,496,215V192.21A11.39,11.39,0,0,0,484.66,203.6Z"/><path d="M485.57,178.67A10.48,10.48,0,0,0,496,189.15v-21A10.48,10.48,0,0,0,485.57,178.67Z"/><path d="M486.48,153.73A9.57,9.57,0,0,0,496,163.3V144.16A9.57,9.57,0,0,0,486.48,153.73Z"/><path d="M487.39,128.79a8.66,8.66,0,0,0,8.61,8.66V120.14A8.65,8.65,0,0,0,487.39,128.79Z"/><path d="M488.3,103.85a7.75,7.75,0,0,0,7.7,7.75V96.11A7.74,7.74,0,0,0,488.3,103.85Z"/><path d="M489.21,78.92A6.84,6.84,0,0,0,496,85.75V72.08A6.85,6.85,0,0,0,489.21,78.92Z"/><path d="M490.13,54A5.92,5.92,0,0,0,496,59.9V48.06A5.91,5.91,0,0,0,490.13,54Z"/><path d="M491,29a5,5,0,0,0,5,5V24A5,5,0,0,0,491,29Z"/><path d="M492,4.1A4.1,4.1,0,0,0,496,8.2V0A4.09,4.09,0,0,0,492,4.1Z"/></g></g></svg>