<svg xmlns="http://www.w3.org/2000/svg" viewBox="0 0 1448.44 231.31"><g id="Layer_2" data-name="Layer 2"><g id="Layer_1-2" data-name="Layer 1"><polygon points="623.98 33.96 623.1 6.17 623.1 68.95 622.65 77.84 623.98 73.34 623.98 33.96"/><polygon points="622.65 77.84 622.2 86.89 623.98 77.7 623.98 73.34 622.65 77.84"/><polygon points="580.95 193.63 581.85 205.3 581.85 157.75 582.74 139.82 582.74 68.95 583.64 59.98 583.64 31.28 584.54 32.18 584.54 49.21 585.43 53.7 585.43 71.64 586.34 75.24 586.34 90.48 587.23 89.58 587.23 92.28 588.12 89.58 588.12 87.78 589.02 86.89 589.02 82.41 589.93 77.02 589.93 90.48 590.82 44.74 590.82 0 580.64 0 580.95 6.17 580.95 193.63"/><polygon points="623.98 73.34 623.98 77.7 626.44 65 623.98 73.34"/><polygon points="1313.5 0 1314.32 104.82 1314.32 202.6 1315.22 175.69 1315.22 117.38 1316.12 106.63 1316.12 74.34 1317.03 69.85 1317.03 53.71 1317.91 50.11 1317.91 67.16 1318.81 69.85 1318.81 81.51 1319.7 81.51 1319.7 86.89 1320.6 84.2 1320.6 81.51 1321.5 81.51 1321.5 86.89 1322.4 87.78 1322.4 89.58 1323.29 89.58 1323.29 84.2 1324.2 81.51 1324.2 89.58 1325.08 79.72 1325.08 62.67 1325.98 62.67 1325.98 56.4 1326.87 59.08 1326.87 71.64 1327.77 69.85 1327.77 66.25 1328.66 72.54 1328.66 59.98 1329.57 75.22 1329.57 84.2 1330.47 84.2 1330.47 72.54 1331.37 72.54 1331.37 75.22 1332.25 77.02 1332.25 86.89 1333.15 85.09 1333.15 79.72 1334.04 79.72 1334.04 85.09 1334.95 81.51 1334.95 92.28 1335.85 94.07 1335.85 100.34 1336.74 99.44 1336.74 94.07 1337.64 89.58 1337.64 103.04 1338.54 86.89 1338.54 85.09 1339.42 79.72 1339.42 71.64 1340.33 75.22 1340.33 79.72 1341.22 79.72 1341.22 82.41 1342.12 77.02 1342.12 92.28 1343.02 94.96 1343.02 100.34 1343.91 100.34 1343.91 86.89 1344.81 86.89 1344.81 87.78 1345.7 84.2 1345.7 81.51 1346.59 81.51 1346.59 82.41 1347.5 82.41 1347.5 75.22 1348.39 77.02 1348.39 87.78 1349.29 89.58 1349.29 92.28 1350.18 94.07 1350.18 90.48 1351.08 89.58 1351.08 96.76 1351.98 85.09 1351.98 82.41 1352.87 82.41 1352.87 78.81 1353.77 78.81 1353.77 81.51 1354.67 81.51 1354.67 74.34 1355.56 75.22 1355.56 85.09 1356.46 87.78 1356.46 99.44 1357.37 92.28 1357.37 81.51 1358.26 81.51 1358.26 86.89 1359.15 85.09 1359.15 90.48 1360.04 86.89 1360.04 79.72 1360.94 75.22 1360.94 74.34 1361.85 75.22 1361.85 84.2 1362.74 86.89 1363.64 84.2 1363.64 90.48 1364.54 89.58 1364.54 92.28 1365.42 86.89 1365.42 81.51 1366.32 78.81 1366.32 75.22 1367.22 82.41 1367.22 89.58 1368.11 92.28 1368.11 79.72 1369.02 79.72 1369.02 89.58 1369.91 92.28 1369.91 94.96 1370.81 94.96 1370.81 81.51 1371.71 82.41 1371.71 87.78 1372.59 89.58 1372.59 85.09 1373.5 86.89 1373.5 81.51 1374.39 81.51 1374.39 78.81 1375.29 77.02 1375.29 86.89 1376.19 86.89 1376.19 94.07 1377.08 92.28 1377.08 100.34 1377.98 100.34 1377.98 90.48 1378.88 85.09 1378.88 79.72 1379.77 77.02 1379.77 71.64 1380.67 71.64 1380.67 74.34 1381.56 74.34 1381.56 82.41 1382.46 86.89 1382.46 77.02 1383.37 90.48 1383.37 97.65 1384.27 94.07 1384.27 85.09 1385.16 84.2 1385.16 89.58 1386.05 89.58 1386.05 82.41 1386.94 79.72 1386.94 74.34 1387.85 74.34 1387.85 78.81 1388.73 81.51 1388.73 85.09 1389.63 59.08 1389.63 11.54 1390.54 96.76 1390.54 221.44 1391.43 217.84 1391.43 127.25 1392.33 109.32 1392.33 54.6 1393.21 49.21 1393.21 44.74 1394.11 47.42 1394.11 54.6 1395.02 59.98 1395.02 66.25 1395.9 67.16 1395.9 87.78 1396.81 90.48 1396.81 99.44 1397.71 97.65 1397.71 84.2 1398.6 85.09 1398.6 82.41 1399.5 85.09 1399.5 74.34 1400.38 75.22 1400.38 66.25 1401.29 62.67 1401.29 56.4 1402.19 57.3 1402.19 64.47 1403.08 59.98 1403.08 49.21 1403.98 59.08 1403.98 103.04 1404.88 103.04 1404.88 89.58 1405.77 85.09 1405.77 77.02 1406.67 72.54 1406.67 67.16 1407.57 75.22 1407.57 85.09 1408.46 81.51 1408.46 89.58 1409.36 85.09 1409.36 96.76 1410.24 97.65 1410.24 102.14 1411.16 94.96 1411.16 89.58 1412.05 89.58 1412.05 86.89 1412.94 85.09 1412.94 89.58 1413.84 86.89 1413.84 85.09 1414.73 84.2 1414.73 71.64 1415.63 67.16 1415.63 81.51 1416.54 92.28 1416.54 59.08 1417.42 96.76 1417.42 109.32 1418.33 106.63 1418.33 94.07 1419.21 90.48 1419.21 77.02 1420.11 75.22 1420.11 68.95 1421.01 69.85 1421.01 75.22 1421.9 72.54 1421.9 78.81 1422.81 75.22 1422.81 92.28 1423.71 94.07 1423.71 97.65 1424.6 86.89 1424.6 82.41 1425.5 87.78 1425.5 90.48 1426.38 90.48 1426.38 85.09 1427.29 85.09 1427.29 75.22 1428.19 74.34 1428.19 68.95 1429.08 72.54 1429.08 78.81 1429.97 79.72 1429.97 77.02 1430.88 79.72 1430.88 89.58 1431.77 89.58 1431.77 75.22 1432.67 71.64 1432.67 64.47 1433.57 64.47 1433.57 69.85 1434.46 71.64 1434.46 77.02 1435.36 78.81 1435.36 69.85 1436.26 71.64 1436.26 92.28 1437.15 92.28 1437.15 94.07 1438.05 85.09 1438.05 78.81 1438.95 82.41 1438.95 87.78 1439.84 86.89 1439.84 90.48 1440.73 86.89 1440.73 81.51 1441.63 78.81 1441.63 86.89 1442.53 86.89 1442.53 89.58 1443.44 89.58 1443.44 90.48 1444.33 89.58 1444.33 97.65 1445.22 94.96 1445.22 86.89 1446.11 87.78 1446.11 84.2 1447.01 86.89 1447.01 81.51 1447.9 74.34 1447.9 61.77 1448.44 75.61 1448.44 0 1313.5 0"/><polygon points="501.16 187.35 502.05 168.52 502.05 225.92 502.96 152.38 502.96 84.2 503.85 72.54 503.85 53.7 504.75 57.29 504.75 50.11 505.64 59.98 505.64 74.34 506.55 79.72 506.55 86.89 507.44 84.2 507.44 82.41 508.34 84.2 508.34 79.72 509.23 81.51 509.23 87.78 510.13 89.58 510.13 85.09 511.01 79.72 511.01 74.34 511.91 74.34 511.91 81.51 512.81 81.51 512.81 67.16 513.72 66.26 513.72 62.68 514.61 62.68 514.61 66.26 515.51 64.47 515.51 59.98 516.4 59.98 516.4 64.47 517.3 61.78 517.3 77.02 518.18 79.72 518.18 86.89 519.09 87.78 519.09 90.48 520 87.78 520 94.07 520.88 92.28 520.88 89.58 521.78 89.58 521.78 86.89 522.68 89.58 522.68 90.48 523.57 90.48 523.57 94.07 524.47 85.09 524.47 78.82 525.35 92.28 525.35 28.59 526.26 11.54 526.26 147.88 527.17 182.87 527.17 216.06 528.05 172.11 528.05 107.52 528.96 92.28 528.96 59.98 529.85 57.29 529.85 43.84 530.75 44.74 530.75 61.78 531.64 66.26 531.64 78.82 532.55 81.51 532.55 89.58 533.43 96.76 533.43 100.34 534.33 90.48 534.33 86.89 535.22 85.09 535.22 84.2 536.13 84.2 536.13 81.51 537.03 81.51 537.03 87.78 537.92 77.02 537.92 69.85 538.81 72.54 538.81 84.2 539.72 84.2 539.72 32.18 540.61 53.7 540.61 0 501 0 501.16 0.78 501.16 187.35"/><polygon points="0.89 187.35 0.89 221.44 1.78 178.38 1.78 102.15 2.68 96.76 2.68 75.24 3.58 71.64 3.58 51.91 4.47 50.12 4.47 59.98 5.38 64.47 5.38 74.33 6.27 72.54 6.27 78.82 7.16 78.82 7.16 81.51 8.05 78.82 8.05 89.58 8.96 89.58 8.96 85.09 9.86 86.89 9.86 79.72 10.75 84.2 10.75 74.33 11.65 71.64 11.65 68.95 12.55 71.64 12.55 61.78 13.44 61.78 13.44 64.47 14.33 62.68 14.33 68.95 15.24 64.47 15.24 57.29 16.14 67.16 16.14 82.41 17.03 81.51 17.03 85.09 17.92 86.89 17.92 81.51 18.83 86.89 18.83 92.28 19.72 89.58 19.72 85.09 20.61 84.2 21.51 84.2 21.51 90.48 22.41 89.58 22.41 87.78 23.31 86.89 23.31 90.48 24.2 89.58 24.2 94.06 25.1 86.89 25.1 79.72 26 78.82 26 74.33 26.89 78.82 26.89 84.2 27.78 85.09 27.78 89.58 28.68 84.2 28.68 77.02 29.58 87.78 29.58 96.76 30.48 94.06 30.48 84.2 31.38 82.41 31.38 86.89 32.27 82.41 32.27 78.82 33.16 82.41 33.16 85.09 34.06 84.2 34.06 82.41 34.96 81.51 34.96 92.28 35.85 90.48 35.85 97.65 36.75 94.96 36.75 89.58 37.65 94.96 37.65 96.76 38.55 92.28 38.55 87.78 39.45 90.48 39.45 79.72 40.33 77.02 40.33 75.24 41.23 78.82 41.23 81.51 42.13 77.02 42.13 87.78 43.02 89.58 43.02 94.96 43.92 99.44 43.92 86.89 44.83 89.58 44.83 94.06 45.72 92.28 45.72 86.89 46.61 84.2 46.61 82.41 47.5 84.2 47.5 77.02 48.41 78.82 48.41 53.7 49.31 47.42 49.31 4.37 50.2 87.78 50.2 227.72 51.09 215.17 51.09 143.41 52 124.57 52 67.16 52.88 61.78 52.88 46.53 53.78 46.53 53.78 56.39 54.69 59.98 54.69 66.26 55.58 68.95 55.58 87.78 56.48 94.06 56.48 79.72 57.37 81.51 57.37 106.62 58.27 109.32 58.27 115.59 59.17 104.83 59.17 92.28 60.06 86.89 60.06 64.47 60.96 64.47 60.96 53.7 61.85 54.6 61.85 59.98 62.75 59.98 62.75 62.68 63.65 64.47 63.65 72.54 64.56 74.33 64.56 78.82 65.45 74.33 65.45 68.95 66.33 67.16 66.33 74.33 67.23 74.33 67.23 77.02 68.13 75.24 68.13 79.72 69.04 84.2 69.04 74.33 69.92 87.78 69.92 92.28 70.82 90.48 70.82 81.51 71.72 81.51 71.72 82.41 72.61 82.41 72.61 79.72 73.5 79.72 73.5 85.09 74.4 84.2 74.4 75.24 75.3 77.02 75.3 81.51 76.2 77.02 76.2 86.89 77.1 86.89 77.1 96.76 78 100.34 78 92.28 78.89 89.58 78.89 79.72 79.78 78.82 79.78 77.02 80.68 75.24 80.68 79.72 81.57 82.41 81.57 77.02 82.48 75.24 82.48 82.41 83.38 87.78 83.38 94.06 84.27 94.06 84.27 85.09 85.17 85.09 85.17 92.28 86.05 94.06 86.05 86.89 86.96 85.09 86.96 75.24 87.86 72.54 87.86 78.82 88.75 66.26 88.75 57.29 89.65 77.02 89.65 119.18 90.54 120.08 90.54 109.32 91.44 106.62 91.44 90.48 92.32 87.78 92.32 84.2 93.23 82.41 93.23 78.82 94.13 79.72 94.13 85.09 95.03 85.09 95.03 77.02 95.92 75.24 95.92 99.44 96.82 99.44 96.82 104.83 97.72 100.34 97.72 89.58 98.61 87.78 98.61 92.28 99.51 94.06 99.51 87.78 100.41 85.09 100.41 72.54 101.3 72.54 101.3 69.86 102.21 72.54 102.21 82.41 103.09 81.51 103.09 62.68 104 62.68 104 112.01 104.89 106.62 104.89 121.87 105.78 102.15 105.78 86.89 106.68 82.41 106.68 72.54 107.58 72.54 107.58 68.95 108.48 71.64 108.48 64.47 109.38 67.16 109.38 81.51 110.27 85.09 110.27 94.96 111.17 92.28 111.17 87.78 112.05 87.78 112.05 84.2 112.95 84.2 112.95 82.41 113.86 84.2 113.86 77.02 114.75 77.02 114.75 71.64 115.65 78.82 115.65 82.41 116.55 81.51 116.55 78.82 117.44 81.51 117.44 89.58 118.33 89.58 118.33 84.2 119.22 79.72 119.22 72.54 120.14 74.33 120.14 78.82 121.03 79.72 121.03 85.09 121.92 85.09 121.92 72.54 122.82 74.33 122.82 92.28 123.72 94.96 123.72 97.65 124.61 89.58 124.61 84.2 125.51 86.89 125.51 81.51 126.4 84.2 126.4 89.58 127.31 81.51 127.31 79.72 128.2 78.82 128.2 82.41 129.09 84.2 129.09 77.02 130 66.26 130 89.58 130.89 97.65 130.89 121.87 131.78 120.08 131.78 99.44 132.68 92.28 132.68 74.33 133.58 75.24 133.58 68.95 134.48 66.26 134.48 72.54 135.37 69.86 135.37 78.82 136.27 71.64 136.27 92.28 137.17 96.76 137.17 99.44 138.06 90.48 138.06 81.51 138.95 82.41 138.95 87.78 139.85 90.48 139.85 85.09 140.75 82.41 140.75 74.33 141.65 75.24 141.65 77.02 142.55 78.82 142.55 82.41 143.45 81.51 143.45 84.2 144.34 84.2 144.34 89.58 145.23 90.48 145.23 82.41 146.12 79.72 146.12 71.64 147.03 74.33 147.03 77.02 147.92 75.24 147.92 81.51 148.82 84.2 148.82 72.54 149.72 75.24 149.72 94.96 150.62 97.65 150.62 92.28 151.5 85.09 151.5 84.2 152.41 84.2 152.41 85.09 153.31 87.78 153.31 82.41 154.2 81.51 154.2 84.2 155.09 84.2 155.09 77.02 155.99 79.72 155.99 81.51 156.89 69.86 156.89 0.78 157.79 66.26 157.79 225.93 158.68 231.31 158.68 143.41 159.58 124.57 159.58 68.95 160.48 62.68 160.48 49.21 161.37 47.42 161.37 66.26 162.26 66.26 162.26 59.98 163.18 68.95 163.18 94.06 164.06 94.96 164.06 100.34 164.96 99.44 164.96 94.06 165.85 92.28 165.85 85.09 166.75 84.2 166.75 71.64 167.65 71.64 167.65 64.47 168.54 66.26 168.54 62.68 169.45 69.86 169.45 74.33 170.35 69.86 170.35 67.16 171.23 69.86 171.23 78.82 172.13 75.24 172.13 72.54 173.02 72.54 173.02 64.47 173.92 66.26 173.92 72.54 174.82 74.33 174.82 82.41 175.72 82.41 175.72 72.54 176.62 78.82 176.62 94.06 177.5 90.48 177.5 99.44 178.4 87.78 178.4 84.2 179.3 87.78 179.3 90.48 180.19 92.28 180.19 84.2 181.1 84.2 181.1 77.02 181.99 78.82 181.99 72.54 182.89 81.51 182.89 84.2 183.79 86.89 183.79 81.51 184.67 84.2 184.67 89.58 185.58 87.78 185.58 81.51 186.48 82.41 186.48 77.02 187.37 77.02 187.37 75.24 188.27 79.72 188.27 85.09 189.17 82.41 189.17 75.24 190.06 78.82 190.06 100.34 190.96 100.34 190.96 94.96 191.85 92.28 191.85 86.89 192.75 86.89 192.75 90.48 193.65 90.48 193.65 84.2 194.54 82.41 194.54 78.82 195.44 77.02 195.44 86.89 196.35 87.78 196.35 92.28 197.23 90.48 197.23 96.76 198.13 99.44 198.13 94.06 199.02 94.06 199.02 79.72 199.92 79.72 199.92 82.41 200.83 81.51 200.83 79.72 201.72 84.2 201.72 89.58 202.62 86.89 202.62 82.41 203.52 84.2 203.52 99.44 204.4 102.15 204.4 92.28 205.3 90.48 205.3 87.78 206.19 87.78 206.19 86.89 207.1 89.58 207.1 75.24 208 72.54 208 78.82 208.89 84.2 208.89 72.54 209.79 85.09 209.79 87.78 210.67 89.58 210.67 97.65 211.57 100.34 211.57 94.96 212.48 94.96 212.48 82.41 213.36 84.2 213.36 79.72 214.27 79.72 214.27 71.64 215.17 71.64 215.17 81.51 216.06 77.02 216.06 72.54 216.96 77.02 216.96 94.96 217.84 92.28 217.84 62.68 218.75 59.98 218.75 97.65 219.65 109.32 219.65 119.18 220.54 110.2 220.54 96.76 221.44 90.48 221.44 78.82 222.34 79.72 222.34 74.33 223.23 82.41 223.23 86.89 224.13 85.09 224.13 84.2 225.03 87.78 225.03 90.48 225.92 87.78 225.92 85.09 226.82 84.2 226.82 72.54 227.71 71.64 227.71 78.82 228.62 78.82 228.62 79.72 229.51 78.82 229.51 68.95 230.4 57.29 230.4 85.09 231.3 47.42 231.3 4.37 232.19 90.48 232.19 213.36 233.09 198.11 233.09 129.95 233.99 112.01 233.99 56.39 234.9 51.91 234.9 36.67 235.79 33.96 235.79 53.7 236.68 59.08 236.68 74.33 237.57 78.82 237.57 84.2 238.48 86.89 238.48 97.65 239.36 89.58 239.36 85.09 240.27 85.09 240.27 82.41 241.17 81.51 241.17 84.2 242.06 84.2 242.06 75.24 242.96 69.86 242.96 62.68 243.84 67.16 243.84 75.24 244.74 75.24 244.74 64.47 245.65 62.68 245.65 67.16 246.54 68.95 246.54 74.33 247.44 72.54 247.44 69.86 248.34 68.95 248.34 72.54 249.23 68.95 249.23 85.09 250.12 85.09 250.12 89.58 251.01 86.89 251.01 94.96 251.92 97.65 251.92 99.44 252.82 97.65 252.82 86.89 253.72 86.89 253.72 85.09 254.61 84.2 254.61 87.78 255.51 87.78 255.51 82.41 256.4 84.2 256.4 79.72 257.3 85.09 257.3 96.76 258.2 99.44 258.2 87.78 259.09 84.2 259.99 84.2 259.99 86.89 260.88 85.09 260.88 82.41 261.79 82.41 261.79 74.33 262.68 74.33 262.68 82.41 263.57 86.89 263.57 97.65 264.48 99.44 264.48 100.34 265.37 99.44 265.37 94.96 266.27 92.28 266.27 84.2 267.16 84.2 267.16 79.72 268.06 79.72 268.06 75.24 268.95 81.51 268.95 90.48 269.86 87.78 269.86 79.72 270.74 90.48 270.74 100.34 271.65 99.44 271.65 82.41 272.54 81.51 272.54 84.2 273.44 84.2 273.44 85.09 274.34 82.41 274.34 79.72 275.24 78.82 275.24 69.86 276.12 67.16 276.12 81.51 277.03 82.41 277.03 87.78 277.94 87.78 277.94 82.41 278.82 89.58 278.82 92.28 279.72 87.78 279.72 82.41 280.61 84.2 280.61 77.02 281.51 77.02 281.51 81.51 282.39 81.51 282.39 87.78 283.29 79.72 283.29 75.24 284.2 84.2 284.2 92.28 285.11 94.06 285.11 84.2 285.99 82.41 285.99 90.48 286.88 89.58 286.88 85.09 287.78 82.41 287.78 77.02 288.69 78.82 288.69 81.51 289.57 78.82 289.57 87.78 290.48 85.09 290.48 82.41 291.37 82.41 291.37 87.78 292.26 87.78 292.26 89.58 293.16 86.89 293.16 79.72 294.05 77.02 294.05 74.33 294.96 75.24 294.96 82.41 295.86 81.51 295.86 87.78 296.74 82.41 296.74 75.24 297.65 85.09 297.65 94.06 298.54 92.28 298.54 84.2 299.44 82.41 299.44 86.89 300.33 82.41 300.33 77.02 301.24 78.82 301.24 74.34 302.12 77.02 302.12 79.72 303.03 79.72 303.03 94.96 303.91 94.07 303.91 85.09 304.82 84.2 304.82 94.07 305.72 97.65 305.72 90.48 306.61 86.89 306.61 82.41 307.51 82.41 307.51 77.02 308.39 79.72 308.39 82.41 309.3 78.82 309.3 86.89 310.2 81.51 310.2 77.02 311.11 84.2 311.11 90.48 311.99 92.28 311.99 82.41 312.89 82.41 313.78 81.51 313.78 85.09 314.68 84.2 314.68 78.82 315.57 78.82 315.57 72.54 316.47 75.24 316.47 86.89 317.37 86.89 317.37 92.28 318.27 96.76 318.27 86.89 319.16 87.78 319.16 94.07 320.06 87.78 320.06 78.82 320.95 77.02 320.95 82.41 321.85 82.41 321.85 86.89 322.75 89.58 322.75 81.51 323.65 84.2 323.65 74.34 324.54 87.78 324.54 94.96 325.44 97.65 325.44 90.48 326.33 89.58 326.33 82.41 327.24 82.41 327.24 89.58 328.12 82.41 328.12 77.02 329.03 77.02 329.03 78.82 329.91 78.82 329.91 87.78 330.82 86.89 330.82 89.58 331.72 92.28 331.72 84.2 332.61 89.58 332.61 90.48 333.51 89.58 333.51 82.41 334.41 79.72 334.41 75.24 335.3 74.34 335.3 78.82 336.2 82.41 336.2 72.54 337.08 74.34 337.08 85.09 337.99 89.58 337.99 92.28 338.89 89.58 338.89 78.82 339.79 78.82 339.79 81.51 340.68 82.41 340.68 78.82 341.58 78.82 341.58 81.51 342.47 78.82 342.47 72.54 343.37 79.72 343.37 87.78 344.28 86.89 344.28 92.28 345.16 96.76 345.16 87.78 346.06 90.48 346.06 97.65 346.95 87.78 346.95 77.02 347.84 77.02 347.84 72.54 348.76 77.02 348.76 85.09 349.64 81.51 349.64 89.58 350.54 92.28 350.54 79.72 351.45 94.96 351.45 99.44 352.33 94.07 352.33 84.2 353.24 85.09 353.24 81.51 354.12 84.2 354.12 75.24 355.02 72.54 355.02 81.51 355.93 82.41 355.93 75.24 356.82 75.24 356.82 82.41 357.71 81.51 357.71 89.58 358.62 86.89 358.62 94.96 359.5 94.07 359.5 87.78 360.41 86.89 360.41 78.82 361.3 79.72 361.3 75.24 362.2 78.82 362.2 79.72 363.08 78.82 363.08 69.85 363.99 71.64 363.99 90.48 364.9 94.07 364.9 97.65 365.79 96.76 365.79 84.2 366.68 84.2 366.68 85.09 367.57 84.2 367.57 79.72 368.47 78.82 368.47 82.41 369.37 78.82 369.37 74.34 370.25 77.02 370.25 82.41 371.16 79.72 371.16 90.48 372.07 90.48 372.07 96.76 372.95 99.44 372.95 92.28 373.85 89.58 373.85 79.72 374.75 78.82 374.75 82.41 375.64 82.41 375.64 81.51 376.54 81.51 376.54 69.85 377.42 72.54 377.42 87.78 378.33 89.58 378.33 92.28 379.24 86.89 379.24 82.41 380.12 82.41 380.12 86.89 381.03 85.09 381.03 89.58 381.92 85.09 381.92 81.51 382.81 81.51 382.81 77.02 383.71 79.72 383.71 85.09 384.62 85.09 384.62 81.51 385.5 85.09 385.5 94.96 386.41 96.76 386.41 84.2 387.29 82.41 387.29 87.78 388.2 85.09 388.2 78.82 389.1 79.72 389.1 82.41 389.99 82.41 389.99 71.64 390.88 74.34 390.88 92.28 391.79 92.28 391.79 96.76 392.67 94.07 392.67 86.89 393.58 85.09 393.58 89.58 394.48 90.48 394.48 82.41 395.37 82.41 395.37 78.82 396.27 75.24 396.27 71.64 397.16 78.82 397.16 84.2 398.07 85.09 398.07 87.78 398.96 86.89 398.96 90.48 399.85 87.78 399.85 78.82 400.75 78.82 400.75 69.85 401.64 71.64 401.64 75.24 402.54 77.02 402.54 82.41 403.44 82.41 403.44 74.34 404.33 77.02 404.33 90.48 405.24 92.28 405.24 94.96 406.13 85.09 406.13 78.82 407.01 81.51 407.01 85.09 407.92 84.2 407.92 79.72 408.82 79.72 408.82 81.51 409.71 81.51 409.71 77.02 410.61 82.41 410.61 85.09 411.5 85.09 411.5 90.48 412.41 90.48 412.41 97.65 413.3 96.76 413.3 86.89 414.19 85.09 414.19 74.34 415.09 75.24 415.09 79.72 416 79.72 416 84.2 416.88 84.2 416.88 75.24 417.79 75.24 417.79 94.07 418.67 92.28 418.67 96.76 419.58 89.58 419.58 82.41 420.48 84.2 420.48 85.09 421.37 85.09 421.37 81.51 422.26 82.41 422.26 75.24 423.16 75.24 423.16 72.54 424.05 81.51 424.05 86.89 424.96 85.09 424.96 89.58 425.85 89.58 425.85 85.09 426.73 86.89 426.73 90.48 427.64 86.89 427.64 75.24 428.54 74.34 428.54 78.82 429.44 81.51 429.44 82.41 430.33 82.41 430.33 78.82 431.22 81.51 431.22 97.65 432.13 100.34 432.13 89.58 433.01 84.2 433.01 81.51 433.92 82.41 433.92 87.78 434.81 86.89 434.81 85.09 435.71 85.09 435.71 82.41 436.61 81.51 436.61 84.2 437.5 84.2 437.5 87.78 438.41 90.48 438.41 84.2 439.3 89.58 439.3 99.44 440.19 99.44 440.19 84.2 441.09 86.89 441.09 78.82 441.98 79.72 441.98 77.02 442.89 79.72 442.89 81.51 443.79 81.51 443.79 71.64 444.67 75.24 444.67 90.48 445.58 92.28 445.58 81.51 446.46 81.51 446.46 84.2 447.37 84.2 447.37 81.51 448.27 81.51 448.27 84.2 449.17 81.51 449.17 77.02 450.06 77.02 450.06 79.72 450.96 81.51 450.96 84.2 451.84 82.41 451.84 90.48 452.75 90.48 452.75 85.09 453.63 87.78 453.63 75.24 454.54 78.82 454.54 81.51 455.44 79.72 455.44 77.02 456.33 81.51 457.23 82.41 457.23 78.82 458.13 81.51 458.13 94.96 459.04 92.28 459.04 82.41 459.92 81.51 459.92 78.82 460.82 81.51 460.82 84.2 461.71 84.2 461.71 87.78 462.61 81.51 462.61 78.82 463.5 78.82 463.5 74.34 464.4 79.72 464.4 82.41 465.3 82.41 465.3 86.89 466.2 86.89 466.2 94.07 467.09 89.58 467.09 79.72 467.99 81.51 467.99 74.34 468.88 77.02 468.88 81.51 469.78 81.51 469.78 78.82 470.67 81.51 470.67 74.34 471.58 82.41 471.58 96.76 472.47 97.65 472.47 85.09 473.37 84.2 473.37 87.78 474.26 85.09 474.26 84.2 475.17 84.2 475.17 79.72 476.05 78.82 476.05 81.51 476.96 81.51 476.96 74.34 477.84 82.41 477.84 84.2 478.75 85.09 478.75 92.28 479.65 96.76 479.65 100.34 480.54 97.65 480.54 81.51 481.43 81.51 481.43 75.24 482.34 74.34 482.34 77.02 483.23 77.02 483.23 82.41 484.13 78.82 484.13 72.54 485.01 78.82 485.01 96.76 485.9 94.96 485.9 85.09 486.82 82.41 486.82 89.58 487.71 90.48 487.71 97.65 488.61 87.78 488.61 78.82 489.51 79.72 489.51 77.02 490.4 81.51 490.4 89.58 491.3 89.58 491.3 94.07 492.18 92.28 492.18 89.58 493.09 90.48 493.09 97.65 493.99 92.28 493.99 84.2 494.88 84.2 494.88 78.82 495.78 78.82 495.78 81.51 496.69 82.41 496.69 84.2 497.57 82.41 497.57 75.24 498.47 81.51 498.47 92.28 499.38 94.96 499.38 82.41 500.26 75.24 500.26 0 0 0 0 146.99 0.89 187.35"/><polygon points="569.3 149.68 569.3 178.39 570.2 149.68 570.2 79.72 571.09 75.24 571.09 61.78 571.98 57.29 571.98 32.18 572.89 39.35 572.89 102.13 573.78 107.52 573.78 115.59 574.68 104.83 574.68 99.44 575.58 97.65 575.58 94.07 576.47 92.28 576.47 84.2 577.36 84.2 577.36 72.54 578.26 74.34 578.26 68.95 579.15 77.02 579.15 81.51 580.06 68.95 580.06 0 568.39 0 568.39 114.7 569.3 149.68"/><polygon points="541.51 202.61 542.4 180.18 542.4 112 543.3 99.44 543.3 53.7 544.2 57.29 544.2 49.21 545.09 56.39 545.09 64.47 546 54.6 546 117.39 546.88 124.57 546.88 131.74 547.78 122.77 547.78 107.52 548.68 102.13 548.68 86.89 549.57 84.2 549.57 74.34 550.47 72.54 550.47 79.72 551.37 68.95 551.37 62.68 552.26 68.95 552.26 81.51 553.17 82.41 553.17 34.86 554.03 0 540.69 0 541.51 97.65 541.51 202.61"/><polygon points="591.72 207.99 592.6 205.3 592.6 137.13 593.51 121.87 593.51 59.98 594.39 51.91 594.39 36.67 595.3 34.86 595.3 46.53 596.19 47.42 596.19 57.29 597.08 56.39 597.08 66.26 597.99 69.85 597.99 86.89 598.89 89.58 598.89 90.48 599.77 94.96 599.77 84.2 600.68 86.89 600.68 112 601.58 114.7 601.58 97.65 602.47 94.96 602.47 82.41 603.37 81.51 603.37 25.01 604.26 28.59 604.26 160.44 605.15 149.68 605.15 175.7 606.06 142.51 606.06 97.65 606.97 89.58 606.97 61.78 607.85 59.98 607.85 51.91 608.75 56.39 608.75 71.64 609.64 74.34 609.64 78.82 610.53 77.02 610.53 82.41 611.43 87.78 611.43 97.65 612.32 84.2 612.32 37.55 613.23 90.48 613.23 190.04 614.13 193.63 614.13 138.02 615.02 121.87 615.02 64.47 615.91 61.78 615.91 44.74 616.8 43.84 616.8 39.35 617.72 42.04 617.72 32.18 618.6 33.96 618.6 59.08 619.51 64.47 619.51 72.54 620.39 72.54 620.39 69.85 621.3 75.24 621.3 82.41 622.65 77.84 623.1 68.95 623.1 6.17 623.98 33.96 623.98 73.34 626.44 65 623.98 77.7 623.98 172.11 624.89 185.56 624.89 131.74 625.77 117.39 625.77 71.64 626.68 64.47 626.68 51.91 627.57 49.21 627.57 57.29 628.47 53.7 628.47 50.11 629.37 54.6 629.37 64.47 630.25 64.47 630.25 72.54 631.16 74.34 631.16 79.72 632.06 78.82 632.06 90.48 632.94 94.07 632.94 96.76 633.85 87.78 633.85 77.02 634.75 79.72 634.75 85.09 635.64 81.51 635.64 74.34 636.53 71.64 636.53 56.39 637.43 56.39 637.43 37.55 638.33 67.16 638.33 94.07 639.23 96.76 639.23 72.54 640.13 37.55 640.13 121.87 641.02 152.38 641.02 182.87 641.92 163.13 641.92 94.96 642.81 85.09 642.81 67.16 643.72 66.26 643.72 74.34 644.61 75.24 644.61 78.82 645.51 78.82 645.51 96.76 646.4 99.44 646.4 106.63 647.31 103.04 647.31 96.76 648.19 96.76 648.19 103.04 649.09 96.76 649.09 89.58 649.98 87.78 649.98 77.02 650.89 74.34 650.89 66.26 651.77 69.85 651.77 78.82 652.68 75.24 652.68 62.68 653.57 92.28 653.57 24.09 654.48 129.95 654.48 187.35 655.36 160.44 655.36 110.21 656.25 102.13 656.25 67.16 657.16 67.16 657.16 61.78 658.06 61.78 658.06 66.26 658.94 67.16 658.94 86.89 659.85 94.96 659.85 104.83 660.74 104.83 660.74 97.65 661.64 106.63 661.64 86.89 662.53 82.41 662.53 97.65 663.44 99.44 663.44 92.28 664.33 90.48 664.33 78.82 665.23 66.26 665.23 21.41 666.11 36.67 666.11 155.97 667.02 155.07 667.02 112 667.92 99.44 667.92 71.64 668.81 66.26 668.81 49.21 669.71 49.21 669.71 43.84 670.61 37.55 670.61 66.26 671.5 77.02 671.5 86.89 672.4 89.58 672.4 114.7 673.28 114.7 673.28 103.04 674.19 99.44 674.19 87.78 675.09 87.78 675.09 90.48 675.98 92.28 675.98 81.51 676.89 64.47 676.89 14.24 677.77 56.39 677.77 150.57 678.68 155.07 678.68 110.21 679.57 99.44 679.57 62.68 680.48 56.39 680.48 51.91 681.36 50.11 681.36 29.48 682.26 43.84 682.26 69.85 683.15 71.64 683.15 75.24 684.06 78.82 684.06 82.41 684.96 81.51 684.96 75.24 685.85 77.02 685.85 86.89 686.74 85.09 686.74 81.51 687.64 78.82 687.64 71.64 688.54 71.64 688.54 68.95 689.44 68.95 689.44 62.68 690.33 64.47 690.33 59.98 691.23 59.08 691.23 66.26 692.13 69.85 692.13 75.24 693.02 74.34 693.02 77.02 693.93 78.82 693.93 89.58 694.82 86.89 694.82 78.82 695.71 81.51 695.71 85.09 696.61 82.41 696.61 79.72 697.5 81.51 697.5 89.58 698.4 90.48 698.4 81.51 699.3 85.09 699.3 102.13 700.19 97.65 700.19 109.32 701.1 96.76 701.1 78.82 701.98 81.51 701.98 69.85 702.88 67.16 702.88 34.86 703.78 97.65 703.78 174.8 704.68 157.75 704.68 109.32 705.57 103.04 705.57 86.89 706.47 85.09 706.47 77.02 707.36 74.34 707.36 85.09 708.27 84.2 708.27 90.48 709.15 85.09 709.15 84.2 710.05 86.89 710.05 81.51 710.95 87.78 710.95 96.76 711.86 94.07 711.86 69.85 712.74 67.16 712.74 103.04 713.65 110.21 713.65 122.77 714.53 114.7 714.53 59.98 715.41 78.82 715.41 32.18 716.34 110.21 716.34 159.55 717.23 129.95 717.23 78.82 718.13 71.64 718.13 53.7 719.02 57.29 719.02 50.11 719.91 59.08 719.91 69.85 720.82 72.54 720.82 87.78 721.7 86.89 721.7 90.48 722.61 92.28 722.61 87.78 723.5 86.89 723.5 90.48 724.4 90.48 724.4 96.76 725.3 94.96 725.3 81.51 726.19 81.51 726.19 41.15 727.08 19.62 727.08 106.63 727.99 132.64 727.99 147.88 728.88 132.64 728.88 81.51 729.78 74.34 729.78 56.39 730.67 54.6 730.67 50.11 731.57 50.11 731.57 67.16 732.47 71.64 732.47 78.82 733.36 79.72 733.36 81.51 734.27 84.2 734.27 94.07 735.15 90.48 735.15 85.09 736.05 85.09 736.05 82.41 736.95 82.41 736.95 84.2 737.86 84.2 737.86 86.89 738.75 79.72 738.75 69.85 739.65 61.78 739.65 86.89 740.53 66.26 740.53 31.28 741.42 97.65 741.42 152.38 742.32 138.02 742.32 75.24 743.23 69.85 743.23 62.68 744.13 72.54 744.13 77.02 745.02 77.02 745.02 86.89 745.91 85.09 745.91 90.48 746.82 92.28 746.82 97.65 747.7 96.76 747.7 104.83 748.61 102.13 748.61 94.07 749.5 90.48 749.5 79.72 750.4 78.82 750.4 54.6 751.3 53.7 751.3 78.82 752.19 75.24 752.19 25.01 753.08 61.78 753.08 168.52 753.99 170.31 753.99 112 754.87 100.34 754.87 64.47 755.78 59.08 755.78 49.21 756.67 54.6 756.67 59.98 757.57 57.3 757.57 53.71 758.47 53.71 758.47 56.4 759.36 57.3 759.36 90.47 760.27 99.44 760.27 110.21 761.16 106.61 761.16 114.7 762.07 102.14 762.07 94.07 762.95 92.28 762.95 79.72 763.85 77.02 763.85 72.54 764.74 72.54 764.74 68.96 765.64 69.85 765.64 59.98 766.53 72.54 766.53 84.2 767.42 77.02 767.42 9.75 768.33 41.14 768.33 145.2 769.23 153.26 769.23 112.9 770.12 100.34 770.12 67.15 771.03 62.67 771.03 56.4 771.92 56.4 771.92 72.54 772.82 75.22 772.82 81.51 773.73 81.51 773.73 87.78 774.61 94.07 774.61 67.15 775.51 59.98 775.51 85.09 776.39 90.47 777.3 89.58 777.3 94.97 778.2 87.78 779.09 85.09 779.09 77.02 779.99 82.41 779.99 99.44 780.88 96.76 780.88 50.11 781.78 14.24 781.78 97.65 782.68 127.25 782.68 155.95 783.57 145.2 783.57 94.07 784.47 86.89 784.47 71.64 785.37 69.85 785.37 75.22 786.26 78.81 786.26 84.2 787.16 87.78 787.16 62.67 788.05 67.15 788.05 99.44 788.95 100.34 788.95 104.82 789.85 100.34 789.85 89.58 790.74 87.78 790.74 84.2 791.65 86.89 791.65 78.81 792.55 74.33 792.55 66.26 793.44 78.81 793.44 92.28 794.33 87.78 794.33 74.33 795.22 72.54 795.22 78.81 796.12 77.02 796.12 81.51 797.01 75.22 797.01 72.54 797.91 74.33 797.91 44.74 798.82 47.42 798.82 100.34 799.72 109.32 799.72 115.6 800.61 115.6 800.61 104.82 801.5 109.32 801.5 97.65 802.39 94.97 802.39 78.81 803.29 75.22 803.29 62.67 804.2 66.26 804.2 72.54 805.08 74.33 805.08 67.15 805.99 64.46 805.99 79.72 806.88 82.41 806.88 94.07 807.78 94.07 807.78 59.08 808.67 53.71 808.67 81.51 809.56 89.58 809.56 97.65 810.47 94.97 810.47 79.72 811.37 79.72 811.37 72.54 812.26 69.85 812.26 77.02 813.16 78.81 813.16 82.41 814.05 82.41 814.05 90.47 814.95 90.47 814.95 97.65 815.85 92.28 815.85 86.89 816.74 82.41 816.74 59.98 817.64 64.46 817.64 100.34 818.53 106.61 818.53 114.7 819.44 102.14 819.44 99.44 820.34 109.32 820.34 64.46 821.22 33.97 821.22 107.52 822.12 138.02 822.12 168.51 823.02 153.26 823.02 94.97 823.91 86.89 823.91 61.77 824.82 57.3 824.82 50.11 825.7 53.71 825.7 74.33 826.61 77.02 826.61 87.78 827.51 90.47 827.51 97.65 828.39 99.44 828.39 94.97 829.29 92.28 829.29 75.22 830.19 66.26 830.19 43.84 831.09 51.91 831.09 79.72 831.99 77.02 831.99 86.89 832.89 74.33 832.89 69.85 833.78 75.22 833.78 81.51 834.68 78.81 834.68 71.64 835.56 72.54 835.56 77.02 836.47 75.22 836.47 81.51 837.37 81.51 837.37 77.02 838.26 77.02 838.26 72.54 839.16 74.33 839.16 89.58 840.06 92.28 840.06 96.76 840.95 96.76 840.95 90.47 841.85 94.97 841.85 102.14 842.74 94.97 842.74 89.58 843.64 87.78 843.64 84.2 844.54 86.89 844.54 92.28 845.43 94.07 845.43 82.41 846.33 81.51 846.33 86.89 847.24 89.58 847.24 103.03 848.12 104.82 848.12 31.28 849.02 33.97 849.02 155.95 849.91 167.63 849.91 138.02 850.81 122.77 850.81 71.64 851.71 62.67 851.71 47.42 852.62 47.42 852.62 62.67 853.51 62.67 853.51 74.33 854.41 78.81 854.41 87.78 855.29 87.78 855.29 81.51 856.19 78.81 856.19 74.33 857.08 69.85 857.08 68.96 857.98 67.15 857.98 72.54 858.89 74.33 858.89 59.98 859.78 59.98 859.78 74.33 860.68 78.81 860.68 85.09 861.58 81.51 861.58 71.64 862.46 72.54 862.46 74.33 863.36 72.54 863.36 69.85 864.26 72.54 864.26 75.22 865.16 75.22 865.16 79.72 866.06 82.41 866.06 87.78 866.95 87.78 866.95 100.34 867.85 100.34 867.85 94.97 868.75 97.65 868.75 86.89 869.64 87.78 869.64 82.41 870.54 81.51 870.54 90.47 871.43 90.47 871.43 85.09 872.34 87.78 872.34 79.72 873.23 78.81 873.23 86.89 874.12 92.28 874.12 96.76 875.02 92.28 875.02 85.09 875.91 84.2 875.91 86.89 876.81 87.78 876.81 85.09 877.71 86.89 877.71 82.41 878.62 84.2 878.62 86.89 879.5 89.58 879.5 97.65 880.4 96.76 880.4 99.44 881.29 97.65 881.29 109.32 882.19 109.32 882.19 106.61 883.08 102.14 883.08 69.85 883.98 64.46 883.98 94.97 884.88 99.44 884.88 109.32 885.78 107.52 885.78 85.09 886.68 85.09 886.68 96.76 887.58 100.34 887.58 102.14 888.46 94.07 888.46 74.33 889.36 74.33 889.36 77.02 890.25 77.02 890.25 74.33 891.16 75.22 891.16 72.54 892.05 72.54 892.05 78.81 892.95 79.72 892.95 92.28 893.85 90.47 893.85 96.76 894.75 94.97 894.75 90.47 895.63 90.47 895.63 79.72 896.53 78.81 896.53 74.33 897.43 74.33 897.43 68.96 898.34 68.96 898.34 82.41 899.23 78.81 899.23 86.89 900.12 84.2 900.12 99.44 901.02 103.03 901.02 25 901.92 25 901.92 146.99 902.81 145.2 902.81 180.17 903.71 131.74 903.71 86.89 904.61 77.02 904.61 54.59 905.5 56.4 905.5 44.74 906.4 62.67 906.4 71.64 907.29 72.54 907.29 84.2 908.19 82.41 908.19 87.78 909.09 86.89 909.09 81.51 909.98 81.51 909.98 77.02 910.88 75.22 910.88 71.64 911.79 74.33 911.79 66.26 912.67 64.46 912.67 75.22 913.58 77.02 913.58 64.46 914.47 79.72 914.47 84.2 915.36 77.02 915.36 68.96 916.25 69.85 916.25 78.81 917.15 78.81 917.15 81.51 918.07 78.81 918.07 75.22 918.96 72.54 918.96 68.96 919.84 81.51 919.84 90.47 920.75 90.47 920.75 94.97 921.64 94.97 921.64 90.47 922.53 92.28 922.53 81.51 923.44 79.72 923.44 71.64 924.32 75.22 924.32 85.09 925.23 84.2 925.23 81.51 926.13 84.2 926.13 71.64 927.02 74.33 927.02 89.58 927.92 92.28 927.92 86.89 928.81 82.41 928.81 77.02 929.7 78.81 929.7 84.2 930.61 81.51 930.61 87.78 931.5 79.72 931.5 78.81 932.4 81.51 932.4 75.22 933.29 84.2 933.29 90.47 934.19 87.78 934.19 99.44 935.09 97.65 935.09 107.52 935.98 107.52 935.98 99.44 936.88 102.14 936.88 90.47 937.77 89.58 937.77 59.98 938.67 61.77 938.67 103.03 939.57 102.14 939.57 109.32 940.48 102.14 940.48 120.07 941.37 119.19 941.37 107.52 942.26 102.14 942.26 92.28 943.15 94.07 943.15 89.58 944.05 90.47 944.05 22.31 944.95 14.24 944.95 146.99 945.85 164.93 945.85 125.46 946.75 117.38 946.75 94.97 947.65 96.76 947.65 87.78 948.54 81.51 948.54 75.22 949.43 77.02 949.43 64.46 950.32 62.67 950.32 67.15 951.21 68.96 951.21 62.67 952.13 62.67 952.13 71.64 953.02 72.54 953.02 66.26 953.92 72.54 953.92 84.2 954.81 85.09 954.81 75.22 955.71 69.85 955.71 51.91 956.6 50.11 956.6 36.66 957.5 59.08 957.5 78.81 958.4 79.72 958.4 81.51 959.29 78.81 959.29 71.64 960.19 75.22 960.19 78.81 961.09 78.81 961.09 85.09 961.98 84.2 961.98 87.78 962.88 85.09 962.88 79.72 963.78 82.41 963.78 77.02 964.67 77.02 964.67 82.41 965.57 85.09 965.57 94.07 966.46 92.28 966.46 87.78 967.36 92.28 967.36 106.61 968.27 103.03 968.27 92.28 969.15 85.09 969.15 82.41 970.05 84.2 970.05 85.09 970.95 84.2 970.95 86.89 971.84 84.2 971.84 74.33 972.75 67.15 972.75 47.42 973.63 57.3 973.63 97.65 974.54 102.14 974.54 106.61 975.44 104.82 975.44 100.34 976.32 99.44 976.32 94.07 977.23 92.28 977.23 87.78 978.12 87.78 978.12 84.2 979.01 90.47 979.01 99.44 979.92 103.03 979.92 41.14 980.82 34.87 980.82 134.43 981.71 146.99 981.71 167.63 982.6 139.81 982.6 96.76 983.49 86.89 983.49 68.96 984.4 66.26 984.4 56.4 985.3 54.59 985.3 59.98 986.19 57.3 986.19 72.54 987.09 75.22 987.09 78.81 987.99 82.41 987.99 75.22 988.88 84.2 988.88 89.58 989.78 82.41 989.78 68.96 990.67 66.26 990.67 54.59 991.57 56.4 991.57 57.3 992.47 59.08 992.47 62.67 993.38 59.98 993.38 54.59 994.26 59.08 994.26 78.81 995.15 79.72 995.15 69.85 996.05 68.96 996.05 78.81 996.96 81.51 996.96 89.58 997.84 87.78 997.84 78.81 998.74 79.72 998.74 75.22 999.64 74.33 999.64 79.72 1000.54 81.51 1000.54 94.07 1001.44 96.76 1001.44 103.03 1002.34 103.03 1002.34 106.61 1003.22 99.44 1003.22 79.72 1004.12 79.72 1004.12 74.33 1005.01 74.33 1005.01 87.78 1005.91 89.58 1005.91 94.07 1006.8 87.78 1006.8 77.02 1007.71 81.51 1007.71 97.65 1008.61 97.65 1008.61 82.41 1009.5 82.41 1009.5 81.51 1010.39 81.51 1010.39 84.2 1011.28 84.2 1011.28 78.81 1012.19 78.81 1012.19 81.51 1013.09 77.02 1013.09 94.97 1013.99 94.97 1013.99 103.03 1014.88 104.82 1014.88 99.44 1015.78 97.65 1015.78 106.61 1016.67 94.07 1016.67 86.89 1017.57 85.09 1017.57 81.51 1018.46 85.09 1018.46 92.28 1019.36 94.07 1019.36 100.34 1020.26 92.28 1020.26 87.78 1021.16 79.72 1021.16 96.76 1022.05 100.34 1022.05 78.81 1022.95 103.03 1022.95 109.32 1023.84 104.82 1023.84 94.97 1024.74 96.76 1024.74 81.51 1025.64 82.41 1025.64 77.02 1026.53 79.72 1026.53 74.33 1027.43 82.41 1027.43 84.2 1028.34 85.09 1028.34 92.28 1029.22 96.76 1029.22 100.34 1030.12 92.28 1030.12 78.81 1031.01 79.72 1031.01 74.33 1031.91 74.33 1031.91 49.22 1032.81 50.11 1032.81 82.41 1033.7 84.2 1033.7 79.72 1034.61 85.09 1034.61 92.28 1035.51 92.28 1035.51 82.41 1036.39 84.2 1036.39 78.81 1037.29 78.81 1037.29 81.51 1038.18 81.51 1038.18 75.22 1039.09 75.22 1039.09 72.54 1039.99 72.54 1039.99 79.72 1040.88 82.41 1040.88 86.89 1041.78 85.09 1041.78 89.58 1042.68 86.89 1042.68 94.97 1043.56 94.07 1043.56 86.89 1044.47 85.09 1044.47 78.81 1045.37 78.81 1045.37 86.89 1046.26 86.89 1046.26 77.02 1047.16 64.46 1047.16 44.74 1048.05 79.72 1048.05 109.32 1048.95 109.32 1048.95 96.76 1049.85 94.97 1049.85 87.78 1050.74 87.78 1050.74 79.72 1051.64 78.81 1051.64 72.54 1052.53 75.22 1052.53 77.02 1053.43 81.51 1053.43 72.54 1054.33 82.41 1054.33 84.2 1055.22 82.41 1055.22 89.58 1056.13 92.28 1056.13 96.76 1057.01 89.58 1057.01 84.2 1057.91 79.72 1057.91 74.33 1058.81 74.33 1058.81 77.02 1059.7 77.02 1059.7 72.54 1060.6 71.64 1060.6 84.2 1061.51 86.89 1061.51 92.28 1062.4 94.07 1062.4 85.09 1063.29 85.09 1063.29 79.72 1064.18 79.72 1064.18 85.09 1065.08 81.51 1065.98 79.72 1065.98 71.64 1066.88 69.85 1066.88 79.72 1067.78 82.41 1067.78 90.47 1068.68 90.47 1068.68 96.76 1069.57 94.97 1069.57 103.03 1070.46 92.28 1070.46 78.81 1071.37 79.72 1071.37 77.02 1072.25 77.02 1072.25 81.51 1073.16 82.41 1073.16 74.33 1074.05 78.81 1074.05 69.85 1074.95 82.41 1074.95 90.47 1075.83 75.22 1075.83 59.08 1076.74 84.2 1076.74 109.32 1077.63 109.32 1077.63 102.14 1078.54 99.44 1078.54 85.09 1079.43 82.41 1079.43 78.81 1080.33 77.02 1080.33 84.2 1081.22 85.09 1081.22 79.72 1082.13 79.72 1082.13 86.89 1083.02 87.78 1083.02 89.58 1083.91 85.09 1083.91 61.77 1084.81 62.67 1084.81 94.07 1085.7 96.76 1085.7 104.82 1086.6 104.82 1086.6 89.58 1087.51 86.89 1087.51 94.07 1088.4 97.65 1088.4 107.52 1089.3 103.03 1089.3 84.2 1090.19 82.41 1090.19 81.51 1091.08 81.51 1091.08 75.22 1091.99 74.33 1091.99 79.72 1092.87 79.72 1092.87 71.64 1093.77 71.64 1093.77 81.51 1094.68 82.41 1094.68 90.47 1095.57 89.58 1095.57 99.44 1096.47 100.34 1096.47 94.07 1097.36 89.58 1097.36 82.41 1098.25 82.41 1098.25 75.22 1099.16 72.54 1099.16 78.81 1100.06 78.81 1100.06 74.33 1100.95 69.85 1100.95 81.51 1101.86 87.78 1101.86 67.15 1102.74 67.15 1102.74 87.78 1103.64 92.28 1103.64 102.14 1104.53 99.44 1104.53 96.76 1105.42 94.97 1105.42 81.51 1106.33 78.81 1106.33 77.02 1107.22 78.81 1107.22 86.89 1108.12 86.89 1108.12 90.47 1109.02 90.47 1109.02 104.82 1109.91 104.82 1109.91 90.47 1110.81 89.58 1110.81 86.89 1111.71 84.2 1111.71 78.81 1112.6 81.51 1112.6 82.41 1113.5 82.41 1113.5 69.85 1114.39 69.85 1114.39 75.22 1115.29 79.72 1115.29 82.41 1116.19 82.41 1116.19 77.02 1117.08 75.22 1117.08 81.51 1117.98 79.72 1117.98 74.33 1118.88 75.22 1118.88 66.26 1119.77 64.46 1119.77 68.96 1120.68 67.15 1120.68 78.81 1121.56 81.51 1121.56 82.41 1122.47 79.72 1122.47 89.58 1123.36 87.78 1123.36 79.72 1124.25 77.02 1124.25 69.85 1125.15 68.96 1125.15 72.54 1126.04 75.22 1126.04 87.78 1126.95 90.47 1126.95 79.72 1127.85 79.72 1127.85 87.78 1128.74 94.97 1128.74 102.14 1129.64 97.65 1129.64 86.89 1130.53 85.09 1130.53 84.2 1131.43 84.2 1131.43 79.72 1132.33 82.41 1132.33 53.71 1133.23 53.71 1133.23 94.97 1134.12 103.03 1134.12 104.82 1135.02 103.03 1135.02 94.07 1135.91 92.28 1135.91 102.14 1136.81 99.44 1136.81 82.41 1137.71 82.41 1137.71 78.81 1138.6 79.72 1138.6 77.02 1139.5 78.81 1139.5 84.2 1140.4 86.89 1140.4 75.22 1141.29 77.02 1141.29 92.28 1142.19 96.76 1142.19 100.34 1143.08 97.65 1143.08 82.41 1143.98 75.22 1143.98 61.77 1144.88 68.96 1144.88 99.44 1145.77 99.44 1145.77 90.47 1146.67 89.58 1146.67 82.41 1147.57 85.09 1147.57 89.58 1148.46 85.09 1148.46 82.41 1149.37 78.81 1149.37 87.78 1150.27 86.89 1150.27 81.51 1151.15 84.2 1151.15 78.81 1152.05 75.22 1152.05 69.85 1152.94 75.22 1152.94 77.02 1153.84 77.02 1153.84 79.72 1154.73 79.72 1154.73 89.58 1155.64 92.28 1155.64 97.65 1156.54 89.58 1156.54 81.51 1157.43 81.51 1157.43 77.02 1158.32 72.54 1158.32 82.41 1159.22 69.85 1159.22 66.26 1160.12 68.96 1160.12 79.72 1161.03 84.2 1161.03 89.58 1161.92 90.47 1161.92 86.89 1162.81 89.58 1162.81 84.2 1163.71 84.2 1163.71 87.78 1164.6 85.09 1164.6 82.41 1165.5 81.51 1165.5 78.81 1166.4 79.72 1166.4 87.78 1167.29 87.78 1167.29 75.22 1168.19 81.51 1168.19 100.34 1169.09 100.34 1169.09 96.76 1169.98 94.07 1169.98 86.89 1170.88 85.09 1170.88 79.72 1171.77 81.51 1171.77 75.22 1172.67 74.33 1172.67 71.64 1173.57 72.54 1173.57 75.22 1174.47 78.81 1174.47 86.89 1175.36 86.89 1175.36 94.07 1176.26 96.76 1176.26 90.47 1177.15 94.07 1177.15 86.89 1178.05 86.89 1178.05 81.51 1178.94 81.51 1178.94 77.02 1179.84 79.72 1179.84 84.2 1180.75 85.09 1180.75 77.02 1181.64 79.72 1181.64 97.65 1182.54 94.97 1182.54 102.14 1183.44 90.47 1183.44 89.58 1184.32 87.78 1184.32 94.07 1185.22 94.97 1185.22 86.89 1186.13 87.78 1186.13 81.51 1187.02 69.85 1187.02 56.4 1187.9 78.81 1187.9 103.03 1188.81 104.82 1188.81 109.32 1189.71 103.03 1189.71 96.76 1190.61 92.28 1190.61 77.02 1191.49 75.22 1191.49 67.15 1192.39 64.46 1192.39 59.98 1193.29 62.67 1193.29 82.41 1194.19 84.2 1194.19 75.22 1195.09 79.72 1195.09 97.65 1195.98 97.65 1195.98 89.58 1196.88 85.09 1196.88 79.72 1197.77 81.51 1197.77 84.2 1198.67 82.41 1198.67 77.02 1199.57 75.22 1199.57 71.64 1200.45 71.64 1200.45 72.54 1201.36 75.22 1201.36 84.2 1202.27 85.09 1202.27 67.15 1203.15 61.77 1203.15 94.97 1204.05 100.34 1204.05 109.32 1204.94 99.44 1204.94 89.58 1205.84 87.78 1205.84 82.41 1206.75 86.89 1206.75 87.78 1207.63 85.09 1207.63 72.54 1208.53 79.72 1208.53 99.44 1209.44 94.97 1209.44 89.58 1210.33 90.47 1210.33 87.78 1211.22 87.78 1211.22 85.09 1212.11 85.09 1212.11 56.4 1213.01 53.71 1213.01 74.33 1213.92 79.72 1213.92 96.76 1214.81 97.65 1214.81 99.44 1215.71 94.97 1215.71 89.58 1216.61 84.2 1216.61 81.51 1217.5 79.72 1217.5 72.54 1218.39 72.54 1218.39 69.85 1219.3 72.54 1219.3 67.16 1220.18 74.34 1220.18 82.41 1221.09 82.41 1221.09 71.64 1221.98 78.81 1221.98 94.96 1222.88 94.96 1222.88 86.89 1223.78 86.89 1223.78 84.2 1224.66 86.89 1224.66 90.48 1225.57 94.96 1225.57 85.09 1226.45 84.2 1226.45 77.02 1227.36 78.81 1227.36 74.34 1228.26 81.51 1228.26 89.58 1229.15 89.58 1229.15 86.89 1230.05 86.89 1230.05 94.96 1230.95 90.48 1230.95 78.81 1231.84 79.72 1231.84 75.22 1232.74 74.34 1232.74 79.72 1233.63 82.41 1233.63 86.89 1234.53 84.2 1234.53 77.02 1235.43 79.72 1235.43 89.58 1236.33 90.48 1236.33 87.78 1237.23 86.89 1237.23 78.81 1238.12 82.41 1238.12 84.2 1239.01 89.58 1239.01 78.81 1239.91 77.02 1239.91 74.34 1240.8 78.81 1240.8 69.85 1241.71 79.72 1241.71 87.78 1242.61 87.78 1242.61 85.09 1243.5 87.78 1243.5 99.44 1244.4 94.07 1244.4 84.2 1245.29 82.41 1245.29 75.22 1246.18 74.34 1246.18 81.51 1247.08 81.51 1247.08 86.89 1247.98 86.89 1247.98 77.02 1248.88 81.51 1248.88 94.07 1249.78 92.28 1249.78 84.2 1250.67 82.41 1250.67 79.72 1251.57 84.2 1251.57 87.78 1252.45 86.89 1252.45 78.81 1253.35 78.81 1253.35 79.72 1254.26 79.72 1254.26 84.2 1255.15 84.2 1255.15 86.89 1256.05 86.89 1256.05 84.2 1256.95 85.09 1256.95 94.07 1257.84 86.89 1257.84 59.08 1258.74 67.16 1258.74 94.07 1259.63 90.48 1259.63 87.78 1260.53 86.89 1260.53 89.58 1261.43 79.72 1261.43 72.54 1262.32 78.81 1262.32 89.58 1263.22 86.89 1263.22 94.07 1264.12 86.89 1264.12 82.41 1265.01 84.2 1265.01 85.09 1265.91 84.2 1265.91 79.72 1266.8 81.51 1266.8 75.22 1267.7 71.64 1267.7 82.41 1268.61 84.2 1268.61 89.58 1269.49 89.58 1269.49 86.89 1270.4 86.89 1270.4 100.34 1271.29 97.65 1271.29 81.51 1272.18 79.72 1272.18 74.34 1273.09 74.34 1273.09 71.64 1273.97 74.34 1273.97 81.51 1274.87 85.09 1274.87 75.22 1275.78 85.09 1275.78 96.76 1276.67 94.07 1276.67 87.78 1277.57 87.78 1277.57 90.48 1278.45 90.48 1278.45 87.78 1279.35 89.58 1279.35 77.02 1280.26 78.81 1280.26 79.72 1281.16 78.81 1281.16 85.09 1282.05 90.48 1282.05 100.34 1282.95 99.44 1282.95 92.28 1283.84 90.48 1283.84 94.96 1284.74 89.58 1284.74 84.2 1285.64 81.51 1285.64 67.16 1286.53 72.54 1286.53 74.34 1287.43 74.34 1287.43 82.41 1288.32 81.51 1288.32 77.02 1289.22 78.81 1289.22 94.07 1290.12 94.96 1290.12 82.41 1291.01 81.51 1291.01 84.2 1291.91 81.51 1291.91 79.72 1292.81 82.41 1292.81 75.22 1293.7 72.54 1293.7 71.64 1294.6 72.54 1294.6 84.2 1295.49 86.89 1295.49 89.58 1296.4 86.89 1296.4 85.09 1297.3 90.48 1297.3 96.76 1298.19 94.96 1298.19 87.78 1299.08 85.09 1299.08 79.72 1299.97 84.2 1299.97 86.89 1300.88 85.09 1300.88 90.48 1301.77 81.51 1301.77 75.22 1302.68 81.51 1302.68 94.07 1303.57 96.76 1303.57 86.89 1304.47 86.89 1304.47 85.09 1305.35 85.09 1305.35 90.48 1306.25 89.58 1306.25 78.81 1307.14 79.72 1307.14 75.22 1308.05 77.02 1308.05 87.78 1308.95 81.51 1308.95 79.72 1309.85 82.41 1309.85 94.07 1310.74 97.65 1310.74 90.48 1311.64 89.58 1311.64 85.09 1312.53 85.09 1312.53 36.66 1313.43 56.4 1313.43 0 590.89 0 591.72 42.04 591.72 207.99"/><polygon points="554.95 149.68 554.95 200.81 555.85 162.24 555.85 90.48 556.74 86.89 556.74 67.16 557.64 61.78 557.64 59.08 558.55 59.98 558.55 71.64 559.43 74.34 559.43 87.78 560.34 87.78 560.34 94.07 561.22 86.89 561.22 81.51 562.12 84.2 562.12 77.02 563.02 81.51 563.02 69.85 563.92 67.16 563.92 87.78 564.81 89.58 564.81 94.07 565.72 96.76 565.72 97.65 566.6 96.76 566.6 61.78 567.51 56.39 567.51 3.48 567.65 0 554.05 0 554.05 103.04 554.95 149.68"/></g></g></svg>