<svg xmlns="http://www.w3.org/2000/svg" viewBox="0 0 1448.83 222.88"><defs><style>.cls-1{stroke:#020000;}.cls-1,.cls-2{stroke-miterlimit:10;}.cls-2{fill:none;stroke:#c70804;stroke-width:2.19px;}</style></defs><g id="Layer_2" data-name="Layer 2"><g id="Layer_1-2" data-name="Layer 1"><polygon class="cls-1" points="1447.5 0.5 0.5 0.5 0.5 93.41 1.31 96.41 1.31 88.14 2.13 85.89 2.13 100.94 3.72 100.94 3.72 99.42 4.53 98.67 4.53 96.41 5.34 97.17 5.34 100.92 6.15 97.17 6.15 90.39 6.96 92.65 6.96 94.9 7.76 94.9 7.76 99.42 8.57 98.67 8.57 100.94 10.99 100.94 10.99 92.65 11.78 94.9 11.78 90.39 12.59 97.17 12.59 100.94 13.4 100.94 13.4 92.65 14.21 92.65 14.21 100.94 15.81 100.94 15.81 100.92 15.81 97.17 16.62 98.67 16.62 33.26 17.43 35.52 17.43 100.94 19.5 100.94 19.85 98.67 19.85 79.87 20.66 77.62 20.66 72.36 21.45 78.37 21.45 93.41 22.26 97.17 22.26 100.94 23.07 100.94 23.07 100.92 23.07 98.67 23.88 99.42 23.88 100.94 25.49 100.94 25.49 93.41 26.3 93.41 26.3 100.94 27.1 100.94 27.1 97.17 27.9 92.65 27.9 84.39 28.71 86.64 28.71 79.87 29.52 82.13 29.52 77.62 30.32 79.87 30.32 84.39 31.13 85.89 31.13 80.62 31.94 88.9 31.94 98.67 32.74 99.42 32.74 100.94 35.16 100.94 35.16 100.92 35.97 100.92 35.97 100.94 37.56 100.94 37.58 100.92 37.58 100.94 40.78 100.94 40.79 100.92 40.79 97.17 41.61 99.42 41.61 100.94 42.09 100.94 42.41 99.42 42.41 93.41 43.22 93.41 43.22 98.67 44.03 100.92 44.03 100.94 44.82 100.94 44.82 40.02 45.63 40.02 45.63 100.94 47.57 100.94 48.05 96.41 48.05 73.86 48.85 72.36 48.85 79.87 49.66 82.13 49.66 76.11 50.48 82.88 50.48 100.94 53.69 100.94 53.69 98.67 54.5 97.17 54.5 86.64 55.31 86.64 55.31 82.88 56.12 85.89 56.12 91.15 56.91 91.15 56.91 94.9 57.72 97.17 57.72 92.65 58.53 93.41 58.53 85.89 59.34 85.89 59.34 90.39 60.14 88.9 60.14 84.39 60.95 88.9 60.95 93.41 61.76 96.41 61.76 90.39 62.55 92.65 62.55 100.94 65.79 100.94 65.79 100.92 65.81 100.94 66.59 100.94 66.59 94.9 67.4 93.41 67.4 97.17 68.2 99.42 68.2 100.94 71.43 100.94 71.43 90.39 72.23 91.15 72.23 96.41 73.04 97.17 73.04 100.94 73.84 100.94 73.84 96.41 74.37 100.94 77.87 100.94 77.87 100.92 78.68 99.42 78.68 94.9 79.48 97.17 79.48 90.39 80.29 99.42 80.29 100.94 82.7 100.94 82.7 100.92 82.72 100.94 83.51 100.94 83.51 94.9 84.31 93.41 84.31 97.17 85.12 99.42 85.12 100.92 85.94 99.42 85.94 96.41 86.73 99.42 86.73 100.94 89.95 100.94 89.95 96.41 90.77 96.41 90.77 93.41 91.58 93.41 91.58 100.94 94.8 100.94 94.8 97.17 95.6 97.17 95.6 90.39 96.41 90.39 96.41 98.67 97.21 100.92 98.01 100.92 98.01 97.17 98.81 100.92 98.81 100.94 100.44 100.94 100.44 98.67 100.84 100.94 102.05 100.94 102.05 98.67 102.85 97.17 102.85 94.9 103.66 93.41 103.66 100.94 106.88 100.94 106.88 99.42 107.7 98.67 107.7 94.9 108.49 98.67 108.49 100.92 109.31 99.42 109.31 98.67 110.1 94.9 110.1 88.14 110.91 91.15 110.91 100.94 111.71 100.94 111.71 100.92 111.73 100.94 112.52 100.94 112.52 98.67 113.33 98.67 113.33 100.94 114.14 100.94 114.14 98.67 114.95 98.67 114.95 92.65 115.74 92.65 115.74 97.17 116.55 97.17 116.55 100.92 116.56 100.94 117.36 100.94 117.36 99.42 118.16 100.92 118.16 100.94 119.78 100.94 119.78 99.42 120.59 99.42 120.59 100.92 121.38 100.92 121.38 100.94 122.19 100.94 122.19 91.15 123 93.41 123 100.94 123.94 100.94 124.61 97.17 124.61 84.39 125.25 100.94 127.03 100.94 127.03 96.41 127.83 97.17 127.83 92.65 128.63 99.42 128.63 100.94 131.87 100.94 131.87 93.41 132.67 91.15 132.67 96.41 133.47 99.42 133.47 93.41 134.27 91.15 134.27 98.67 135.09 99.42 135.09 100.94 135.89 100.94 135.89 100.92 136.7 100.92 136.7 99.42 137.5 97.17 137.5 100.94 138.31 100.94 138.31 100.92 138.31 94.9 139.11 94.9 139.11 90.39 139.92 90.39 139.92 100.94 140.73 100.94 140.73 99.42 141.27 100.94 143.14 100.94 143.14 97.17 143.96 96.41 143.96 40.02 144.76 29.5 144.76 100.94 147.18 100.94 147.18 93.41 147.99 90.39 147.99 73.86 148.78 72.36 148.78 80.62 149.6 84.39 149.6 92.65 150.4 91.15 150.4 96.41 151.2 96.41 151.2 98.67 152 96.41 152 100.94 153.62 100.94 153.62 97.17 154.43 100.92 154.43 92.65 155.24 90.39 155.24 88.14 156.05 90.39 156.05 82.13 156.84 82.13 156.84 84.39 157.65 82.88 157.65 88.14 158.46 84.39 158.46 78.37 159.27 86.64 159.27 99.42 160.07 98.67 160.07 100.94 160.87 100.94 160.87 98.67 161.28 100.94 163.27 100.94 163.28 100.92 164.1 100.92 164.1 100.94 167.32 100.94 167.32 97.17 168.13 96.41 168.13 92.65 168.94 96.41 168.94 100.92 168.95 100.94 170.54 100.94 170.55 100.92 170.55 94.9 171.09 100.94 172.16 100.94 172.16 100.92 172.97 99.42 172.97 100.94 173.44 100.94 173.77 99.42 173.77 96.41 174.57 99.42 174.57 100.94 175.36 100.94 175.38 100.92 175.38 99.42 176.19 98.67 176.19 100.94 180.22 100.94 180.22 97.17 181.02 94.9 181.02 93.41 181.82 96.41 181.82 98.67 182.63 94.9 182.63 100.94 186.65 100.94 186.66 100.92 186.66 99.42 187.46 100.92 187.46 94.9 188.28 96.41 188.28 75.36 189.08 70.09 189.08 34.01 189.85 100.94 191.5 100.94 191.5 86.64 192.3 82.13 192.3 69.35 193.1 69.35 193.1 77.62 193.92 80.62 193.92 85.89 194.72 88.14 194.72 100.94 195.53 100.94 195.53 97.17 196.33 98.67 196.33 100.94 198.75 100.94 198.75 84.39 199.56 84.39 199.56 75.36 200.36 76.11 200.36 80.62 201.17 80.62 201.17 82.88 201.97 84.39 201.97 91.15 202.79 92.65 202.79 96.41 203.59 92.65 203.59 88.14 204.39 86.64 204.39 92.65 205.19 92.65 205.19 94.9 206 93.41 206 97.17 206.82 100.92 206.82 92.65 207.4 100.94 208.42 100.94 208.42 98.67 209.23 98.67 209.23 99.42 210.03 99.42 210.03 97.17 210.83 97.17 210.83 100.94 211.62 100.94 211.64 100.92 211.64 93.41 212.44 94.9 212.44 98.67 213.26 94.9 213.26 100.94 215.68 100.94 215.68 97.17 216.47 96.41 216.47 94.9 217.28 93.41 217.28 97.17 218.08 99.42 218.08 94.9 218.9 93.41 218.9 99.42 219.17 100.94 222.93 100.94 222.93 93.41 223.73 91.15 223.73 96.41 224.54 85.89 224.54 78.37 225.34 94.9 225.34 100.94 227.75 100.94 227.75 100.92 228.57 99.42 228.57 96.41 229.37 97.17 229.37 100.94 230.18 100.94 230.18 94.9 230.98 93.41 230.98 100.94 235.02 100.94 235.02 91.15 235.82 91.15 235.82 88.9 236.63 91.15 236.63 99.42 237.43 98.67 237.43 82.88 238.24 82.88 238.24 100.94 240.32 100.94 240.65 99.42 240.65 91.15 241.46 91.15 241.46 88.14 242.27 90.39 242.27 84.39 243.08 86.64 243.08 98.67 243.69 100.94 245.48 100.94 245.48 100.92 246.29 100.92 246.29 99.42 247.1 100.92 247.1 94.9 247.91 94.9 247.91 90.39 248.72 96.41 248.72 99.42 249.52 98.67 249.52 96.41 250.33 98.67 250.33 100.94 251.13 100.94 251.13 100.92 251.93 97.17 251.93 91.15 252.75 92.65 252.75 96.41 253.55 97.17 253.55 100.94 254.35 100.94 254.35 91.15 255.16 92.65 255.16 100.94 256.77 100.94 256.77 100.92 256.78 100.94 257.58 100.94 257.58 98.67 258.38 100.92 258.38 100.94 258.92 100.94 259.19 98.67 259.19 97.17 259.99 96.41 259.99 99.42 260.8 100.92 260.8 94.9 261.62 85.89 261.62 100.94 264.02 100.94 264.02 92.65 264.83 93.41 264.83 88.14 265.64 85.89 265.64 91.15 266.44 88.9 266.44 96.41 267.25 90.39 267.25 100.94 268.86 100.94 268.86 98.67 269.66 99.42 269.66 100.94 270.73 100.94 271.28 99.42 271.28 92.65 272.09 93.41 272.09 94.9 272.89 96.41 272.89 99.42 273.7 98.67 273.7 100.92 274.5 100.92 274.5 100.94 275.31 100.94 275.31 99.42 276.11 97.17 276.11 90.39 276.93 92.65 276.93 94.9 277.73 93.41 277.73 98.67 278.53 100.92 278.53 91.15 279.34 93.41 279.34 100.94 280.94 100.94 280.94 100.92 281.75 100.92 281.75 100.94 282.56 100.94 282.56 99.42 283.37 98.67 283.37 100.92 284.17 100.92 284.17 94.9 284.98 97.17 284.98 98.67 285.79 88.9 285.79 31.01 286.59 85.89 286.59 100.94 288.2 100.94 288.2 88.14 289.01 82.88 289.01 71.6 289.81 70.09 289.81 85.89 290.62 85.89 290.62 80.62 291.44 88.14 291.44 100.94 294.63 100.94 294.65 100.92 294.65 90.39 295.46 90.39 295.46 84.39 296.26 85.89 296.26 82.88 297.08 88.9 297.08 92.65 297.88 88.9 297.88 86.64 298.68 88.9 298.68 96.41 299.48 93.41 299.48 91.15 300.29 91.15 300.29 84.39 301.09 85.89 301.09 91.15 301.9 92.65 301.9 99.42 302.71 99.42 302.71 91.15 303.52 96.41 303.52 100.94 305.12 100.94 305.12 100.92 305.13 100.94 306.73 100.94 306.73 100.92 307.55 100.92 307.55 94.9 308.35 96.41 308.35 91.15 309.16 98.67 309.16 100.92 309.17 100.94 309.96 100.94 309.96 98.67 310.76 100.92 310.76 100.94 311.58 100.94 311.58 98.67 312.38 99.42 312.38 94.9 313.19 94.9 313.19 93.41 313.99 97.17 313.99 100.94 314.25 100.94 314.8 99.42 314.8 93.41 315.6 96.41 315.6 100.94 318.83 100.94 318.83 100.92 319.63 99.42 319.63 96.41 320.44 94.9 320.44 100.94 323.66 100.94 323.66 97.17 324.46 97.17 324.46 99.42 325.28 98.67 325.28 97.17 326.08 100.92 326.08 100.94 326.89 100.94 326.89 99.42 327.7 100.92 327.7 100.94 330.92 100.94 330.92 93.41 331.73 91.15 331.73 96.41 332.53 100.92 332.53 91.15 333.28 100.94 335.75 100.94 335.75 99.42 336.55 100.92 336.55 97.17 337.36 97.17 337.36 90.39 338.17 90.39 338.17 98.67 338.98 94.9 338.98 91.15 339.78 94.9 339.78 100.94 340.57 100.94 340.57 82.88 341.39 80.62 341.39 100.94 343.81 100.94 343.81 96.41 344.61 97.17 344.61 92.65 345.42 99.42 345.42 100.94 346.23 100.94 346.23 100.92 346.23 100.94 348.62 100.94 348.64 100.92 348.64 91.15 349.45 90.39 349.45 96.41 350.26 96.41 350.26 97.17 351.06 96.41 351.06 88.14 351.86 78.37 351.86 100.94 351.88 100.94 352.67 70.09 352.67 34.01 353.42 100.94 355.09 100.94 355.09 77.62 355.9 73.86 355.9 61.08 356.71 58.82 356.71 75.36 357.5 79.87 357.5 92.65 358.31 96.41 358.31 100.92 358.31 100.94 360.74 100.94 360.74 99.42 361.54 98.67 361.54 100.92 362.35 100.92 362.35 93.41 363.15 88.9 363.15 82.88 363.95 86.64 363.95 93.41 364.75 93.41 364.75 84.39 365.57 82.88 365.57 86.64 366.37 88.14 366.37 92.65 367.18 91.15 367.18 88.9 367.99 88.14 367.99 91.15 368.79 88.14 368.79 100.94 373.61 100.94 373.63 100.92 373.63 100.94 374.43 100.94 374.43 99.42 375.24 100.92 375.24 97.17 375.91 100.94 377.65 100.94 377.65 100.92 378.46 100.92 378.46 100.94 379.26 100.94 379.26 99.42 380.08 99.42 380.08 92.65 380.88 92.65 380.88 99.42 381.2 100.94 384.11 100.94 384.11 100.92 384.9 100.92 384.9 97.17 385.72 97.17 385.72 93.41 386.51 98.67 386.51 100.94 387.33 100.94 387.33 97.17 387.66 100.94 388.94 100.94 388.94 99.42 389.74 98.67 389.74 100.92 390.55 100.92 390.55 100.94 390.81 100.94 391.36 99.42 391.36 97.17 392.16 96.41 392.16 88.9 392.96 86.64 392.96 98.67 393.77 99.42 393.77 100.94 394.59 100.94 394.59 99.42 394.79 100.94 396.19 100.94 396.19 99.42 397 100.92 397 94.9 397.8 94.9 397.8 98.67 398.6 98.67 398.6 100.94 398.95 100.94 399.4 97.17 399.4 93.41 400.22 100.92 400.22 100.94 401.04 100.94 401.04 100.92 401.83 99.42 401.83 100.94 402.9 100.94 403.44 99.42 403.44 94.9 404.26 96.41 404.26 98.67 405.05 96.41 405.05 100.94 405.87 100.94 405.87 99.42 406.66 99.42 406.66 100.94 408.27 100.94 408.27 97.17 409.08 94.9 409.08 92.65 409.9 93.41 409.9 99.42 410.7 98.67 410.7 100.94 411.23 100.94 411.5 99.42 411.5 93.41 412.24 100.94 413.11 100.94 413.11 100.92 413.92 99.42 413.92 100.94 414.4 100.94 414.72 99.42 414.72 94.91 415.54 96.41 415.54 92.66 416.33 94.91 416.33 97.17 417.14 97.17 417.14 100.94 418.74 100.94 418.76 100.92 418.76 100.94 420.37 100.94 420.37 99.42 421.17 99.42 421.17 94.91 421.97 97.17 421.97 99.42 422.78 96.41 422.78 100.94 423.18 100.94 423.59 98.67 423.59 94.91 424.41 100.92 424.41 100.94 425.2 100.94 425.2 99.42 426.01 99.42 426.81 98.67 426.81 100.94 427.6 100.94 427.62 100.92 427.62 96.41 428.42 96.41 428.42 91.15 429.23 93.41 429.23 100.94 432.45 100.94 432.45 96.41 433.26 94.91 433.26 99.42 434.06 99.42 434.06 100.94 434.87 100.94 434.87 98.67 435.68 100.92 435.68 92.66 436.27 100.94 438.09 100.94 438.09 99.42 438.91 99.42 438.91 100.94 439.5 100.94 439.7 99.42 439.7 94.91 440.52 94.91 440.52 96.41 441.31 96.41 441.31 100.94 442.93 100.94 442.93 100.92 442.94 100.94 444.55 100.94 444.55 99.42 445.35 97.17 445.35 93.41 446.16 92.66 446.16 96.41 446.96 99.42 446.96 91.15 447.76 92.66 447.76 100.94 449.38 100.94 449.38 96.41 450.19 96.41 450.19 98.67 450.99 99.42 450.99 96.41 451.8 96.41 451.8 98.67 452.6 96.41 452.6 91.15 453.41 97.17 453.41 100.94 456.63 100.94 456.63 94.91 457.42 94.91 457.42 91.15 458.25 94.91 458.25 100.94 458.44 100.94 459.05 98.67 459.05 100.94 459.85 100.94 459.85 97.17 460.09 100.94 461.46 100.94 461.46 100.92 461.48 100.94 462.28 100.94 462.28 98.67 463.07 100.92 463.07 93.41 463.88 91.15 463.88 98.67 464.69 99.42 464.69 93.41 465.5 93.41 465.5 99.42 466.3 98.67 466.3 100.94 468.72 100.94 468.72 96.41 469.53 97.17 469.53 93.41 470.33 96.41 470.33 97.17 471.13 96.41 471.13 88.89 471.94 90.39 471.94 100.94 473.56 100.94 473.56 100.92 474.36 100.92 474.36 100.94 475.14 100.94 475.16 100.92 475.16 97.17 475.97 96.41 475.97 99.42 476.78 96.41 476.78 92.66 477.57 94.91 477.57 99.42 478.39 97.17 478.39 100.94 480.81 100.94 480.81 97.17 481.61 96.41 481.61 99.42 482.42 99.42 482.42 98.67 483.22 98.67 483.22 88.89 484.02 91.15 484.02 100.94 485.65 100.94 485.65 99.42 486.44 99.42 486.44 100.94 488.06 100.94 488.06 98.67 488.86 98.67 488.86 94.91 489.67 97.17 489.67 100.94 490.48 100.94 490.48 98.67 491.08 100.94 492.09 100.94 492.09 100.92 492.89 99.42 492.89 100.94 493.7 100.94 493.7 96.41 494.51 97.17 494.51 99.42 495.32 99.42 495.32 90.39 496.11 92.66 496.11 100.94 499.34 100.94 499.34 99.42 500.15 99.42 500.15 96.41 500.95 93.41 500.95 90.39 501.76 96.41 501.76 100.92 501.78 100.94 504.18 100.94 504.18 96.41 504.98 96.41 504.98 88.89 505.79 90.39 505.79 93.41 506.59 94.91 506.59 99.42 507.4 99.42 507.4 92.66 508.2 94.91 508.2 100.94 509.82 100.94 509.82 96.41 510.61 98.67 510.61 100.94 511.41 100.94 511.43 100.92 511.43 97.17 512.24 97.17 512.24 98.67 513.04 98.67 513.04 94.91 513.84 99.42 513.84 100.94 517.07 100.94 517.07 92.66 517.87 93.41 517.87 97.17 518.69 97.17 518.69 100.92 519.48 100.92 519.48 93.41 520.3 93.41 520.3 100.94 521.91 100.94 521.91 99.42 522.72 100.92 522.72 100.94 523.52 100.94 523.52 98.67 524.32 99.42 524.32 93.41 525.13 93.41 525.13 91.15 525.93 98.67 525.93 100.94 529.16 100.94 529.16 93.41 529.97 92.66 529.97 96.41 530.77 98.67 530.77 99.42 531.58 99.42 531.58 96.41 532.37 98.67 532.37 100.94 533.98 100.94 533.98 100.92 533.98 98.67 534.8 99.42 534.8 100.94 536.41 100.94 536.41 99.42 537.22 98.67 537.22 100.92 538.02 100.92 538.02 100.94 538.84 100.94 538.84 100.92 538.84 100.94 540.44 100.94 540.44 100.92 540.44 100.94 541.24 100.94 541.24 96.41 542.05 97.17 542.05 94.91 542.87 97.17 542.87 98.67 543.67 98.67 543.67 90.39 544.47 93.41 544.47 100.94 545.28 100.94 545.28 98.67 546.08 98.67 546.08 100.92 546.89 100.92 546.89 98.67 547.7 98.67 547.7 100.92 548.5 98.67 548.5 94.91 549.31 94.91 549.31 97.17 550.12 98.67 550.12 100.92 550.91 99.42 550.91 100.94 552.52 100.94 552.52 93.41 553.34 96.41 553.34 98.67 554.14 97.17 554.14 94.91 554.95 98.67 555.75 99.42 555.75 96.41 556.56 98.67 556.56 100.94 557.38 100.94 557.38 99.42 558.17 98.67 558.17 96.41 558.98 98.67 558.98 100.92 559.78 100.92 559.78 100.94 560.24 100.94 560.59 98.67 560.59 96.41 561.39 96.41 561.39 92.66 562.2 97.17 562.2 99.42 563 99.42 563 100.94 564.61 100.94 564.61 97.17 565.42 98.67 565.42 92.66 566.23 94.91 566.23 98.67 567.03 98.67 567.03 96.41 567.84 98.67 567.84 92.66 568.65 99.42 568.65 100.94 570.25 100.94 570.26 100.92 570.26 100.94 571.06 100.94 571.06 100.92 571.88 100.92 571.88 97.17 572.67 96.41 572.67 98.67 573.49 98.67 573.49 92.66 574.28 99.42 574.28 100.92 574.3 100.94 576.71 100.94 576.71 98.67 577.5 98.67 577.5 93.41 578.32 92.66 578.32 94.91 579.13 94.91 579.13 99.42 579.93 96.41 579.93 91.15 580.73 96.41 580.73 100.94 581.79 100.94 582.35 99.42 582.35 100.94 583.96 100.94 583.96 96.41 584.76 97.17 584.76 94.91 585.57 98.67 585.57 100.94 588.79 100.94 588.79 100.92 589.6 100.92 589.6 96.41 590.4 96.41 590.4 98.67 591.22 99.42 591.22 100.92 592.01 99.42 592.01 93.41 592.82 98.67 592.82 100.94 593.64 100.94 593.64 99.42 594.43 93.41 594.43 27.25 595.24 31.01 595.24 100.94 596.86 100.94 596.86 100.92 597.65 91.15 597.65 75.36 598.47 78.37 598.47 72.35 599.26 80.62 599.26 92.66 600.08 97.17 600.08 100.94 600.88 100.94 600.89 100.92 600.89 99.42 601.69 100.92 601.69 97.17 602.5 98.67 602.5 100.94 603.43 100.94 604.1 97.17 604.1 92.66 604.9 92.66 604.9 98.67 605.71 98.67 605.71 86.64 606.52 85.89 606.52 82.88 607.33 82.88 607.33 85.89 608.14 84.39 608.14 80.62 608.94 80.62 608.94 84.39 609.75 82.13 609.75 94.91 610.54 97.17 610.54 100.94 616.19 100.94 616.19 96.41 616.51 100.94 616.99 100.94 616.99 54.32 617.8 40.02 617.8 100.94 620.23 100.94 620.23 80.62 621.02 78.37 621.02 67.09 621.84 67.85 621.84 82.13 622.63 85.89 622.63 96.41 623.45 98.67 623.45 100.94 625.86 100.94 625.86 100.92 626.67 100.92 626.67 98.67 627.48 98.67 627.48 100.94 627.75 100.94 628.28 94.91 628.28 88.89 629.08 91.15 629.08 100.92 629.9 100.92 629.9 57.32 630.7 75.36 630.7 22.74 631.41 100.94 633.12 100.94 633.12 75.36 633.92 78.37 633.92 71.6 634.73 77.62 634.73 84.39 635.55 76.11 635.55 100.94 638.75 100.94 638.76 100.92 638.76 92.66 639.56 91.15 639.56 97.17 640.37 88.14 640.37 82.88 641.17 88.14 641.17 98.67 641.99 99.42 641.99 59.57 642.79 29.5 642.79 100.94 645.2 100.94 645.2 86.64 646.01 82.13 646.01 79.87 646.82 80.62 646.82 90.39 647.62 92.66 647.62 100.94 649.23 100.94 649.23 98.67 650.03 100.92 650.03 94.91 650.84 98.67 650.84 88.89 651.66 86.64 651.66 100.94 654.06 100.94 654.06 82.13 654.88 77.62 654.88 33.26 655.67 15.22 655.67 100.94 657.3 100.94 657.3 97.17 658.1 93.41 658.1 82.13 658.9 78.37 658.9 57.32 659.71 63.34 659.71 100.94 662.93 100.94 662.93 100.92 663.73 100.92 663.73 91.15 664.55 92.66 664.55 88.14 665.34 94.91 665.34 98.67 666.16 88.14 666.16 20.48 666.96 35.52 666.96 100.94 668.57 100.94 668.57 88.14 669.38 80.62 669.38 56.57 670.18 57.32 670.18 71.6 670.99 75.36 670.99 90.39 671.81 93.41 671.81 100.94 674.21 100.94 674.21 99.42 675.03 94.91 675.03 100.94 675.14 100.94 675.84 67.85 675.84 27.25 676.64 65.59 676.64 100.94 678.25 100.94 678.25 80.62 679.04 73.86 679.04 61.08 679.86 59.57 679.86 69.35 680.66 70.09 680.66 78.37 681.46 77.62 681.46 85.89 682.28 88.89 682.28 100.94 683.88 100.94 683.88 100.92 683.88 100.94 686.31 100.94 686.31 99.42 687.11 98.67 687.11 51.31 687.92 54.32 687.92 100.94 690.35 100.94 690.35 82.13 691.14 80.62 691.14 73.86 691.95 77.62 691.95 90.39 692.75 92.66 692.75 96.41 693.54 94.91 693.54 99.42 693.82 100.94 695.16 100.94 695.16 100.92 695.16 61.82 695.88 100.94 697.58 100.94 697.58 84.39 698.39 82.13 698.39 67.85 699.18 67.09 699.18 63.34 700.01 65.59 700.01 57.32 700.81 58.82 700.81 79.87 701.62 84.39 701.62 91.15 702.42 91.15 702.42 88.89 703.23 93.41 703.23 99.42 704.04 96.41 704.04 100.94 704.16 100.94 704.84 88.14 704.84 35.52 705.64 58.82 705.64 100.94 707.25 100.94 707.25 90.39 708.07 84.39 708.07 73.86 708.86 71.6 708.86 78.37 709.68 75.36 709.68 72.35 710.48 76.11 710.48 84.39 711.28 84.39 711.28 91.15 712.09 92.66 712.09 97.17 712.9 96.41 712.9 100.94 714.51 100.94 714.51 94.91 715.32 97.17 715.32 100.94 715.51 100.94 716.12 98.67 716.12 92.66 716.92 90.39 716.92 77.62 717.73 77.62 717.73 61.82 718.54 86.64 718.54 100.94 719.34 100.94 719.34 91.15 720.16 61.82 720.16 100.94 722.57 100.94 722.57 86.64 723.38 85.89 723.38 92.66 724.18 93.41 724.18 96.41 724.99 96.41 724.99 100.94 729.01 100.94 729.01 94.91 729.83 92.66 729.83 85.89 730.62 88.89 730.62 96.41 731.44 93.41 731.44 82.88 732.02 100.94 732.23 100.94 732.23 50.55 732.7 100.94 734.65 100.94 734.65 86.64 735.47 86.64 735.47 82.13 736.27 82.13 736.27 85.89 737.07 86.64 737.07 100.94 739.97 100.94 740.29 99.42 740.29 100.94 741.91 100.94 741.91 96.41 742.72 85.89 742.72 48.29 743.51 61.08 743.51 100.94 745.13 100.94 745.13 90.39 745.94 85.89 745.94 71.6 746.74 71.6 746.74 67.09 747.55 61.82 747.55 85.89 748.36 94.91 748.36 100.94 752.38 100.94 752.38 98.67 753.2 84.39 753.2 42.28 753.99 77.62 753.99 100.94 755.61 100.94 755.61 82.88 756.42 77.62 756.42 73.86 757.22 72.35 757.22 55.06 758.02 67.09 758.02 88.89 758.83 90.39 758.83 93.41 759.64 96.41 759.64 99.42 760.45 98.67 760.45 93.41 761.25 94.91 761.25 100.94 762.05 100.94 762.05 98.67 762.87 96.41 762.87 90.39 763.67 90.39 763.67 88.14 764.48 88.14 764.48 82.88 765.28 84.39 765.28 80.62 766.09 79.87 766.09 85.89 766.89 88.89 766.89 93.41 767.7 92.66 767.7 94.91 768.51 96.41 768.51 100.94 769.31 100.94 769.31 96.41 770.12 98.67 770.12 100.94 770.38 100.94 770.92 99.42 770.92 97.17 771.73 98.67 771.73 100.94 772.53 100.94 772.53 98.67 773.14 100.94 774.96 100.94 774.96 96.41 775.75 98.67 775.75 88.89 776.56 86.64 776.56 59.57 777.19 100.94 779.78 100.94 779.78 94.91 780.59 92.66 780.59 100.94 781.39 100.94 781.4 100.92 781.4 100.94 782.2 100.94 782.2 100.92 782.21 100.94 783 100.94 783 98.67 783.35 100.94 784.63 100.94 784.63 88.89 785.42 86.64 785.42 100.94 787.03 100.94 787.03 80.62 787.83 96.41 787.83 57.32 788.38 100.94 789.46 100.94 789.46 96.41 790.26 90.39 790.26 75.36 791.07 78.37 791.07 72.35 791.87 79.87 791.87 88.89 792.68 91.15 792.68 100.94 796.71 100.94 796.71 98.67 797.51 98.67 797.51 64.84 798.31 46.8 798.31 100.94 799.93 100.94 799.93 98.67 800.74 92.66 800.74 77.62 801.54 76.11 801.54 72.35 802.35 72.35 802.35 86.64 803.15 90.39 803.15 96.41 803.96 97.17 803.96 98.67 804.78 100.92 804.78 100.94 806.38 100.94 806.38 99.42 807.18 99.42 807.18 100.92 808 100.92 808 100.94 808.3 100.94 808.8 97.17 808.8 88.89 809.61 82.13 809.61 100.94 809.71 100.94 810.4 85.89 810.4 56.57 811.04 100.94 812.01 100.94 812.01 93.41 812.83 88.89 812.83 82.88 813.64 91.15 813.64 94.91 814.44 94.91 814.44 100.94 818.47 100.94 818.47 97.17 819.27 96.41 819.27 76.11 820.08 75.36 820.08 96.41 820.89 93.41 820.89 51.31 821.68 82.13 821.68 100.94 823.29 100.94 823.29 84.39 824.11 79.87 824.11 71.6 824.91 76.11 824.91 80.62 824.91 76.11 824.11 71.6 824.11 79.87 823.29 84.39 823.29 100.94 827.33 100.94 827.33 78.37 826.52 77.62 826.52 75.37 825.72 75.37 825.72 78.37 825.72 75.37 826.52 75.37 826.52 77.62 827.33 78.37 827.33 100.94 830.55 100.94 830.55 97.17 831.36 94.91 831.36 91.15 832.16 91.15 832.16 88.15 832.97 88.9 832.97 80.63 833.77 91.15 833.77 100.92 834.57 94.91 834.57 38.52 835.39 64.83 835.39 100.94 837 100.94 837 86.64 837.81 82.88 837.81 77.62 838.62 77.62 838.62 91.15 839.42 93.4 839.42 98.67 840.24 98.67 840.24 100.94 841.04 100.94 841.04 86.64 841.84 80.63 841.84 100.94 845.06 100.94 845.06 94.91 845.87 99.42 845.87 100.94 846.67 100.94 846.67 72.35 847.48 42.29 847.48 100.94 849.9 100.94 849.9 90.39 850.7 88.9 850.7 93.4 851.51 96.4 851.51 100.92 851.51 100.94 852.31 100.94 852.31 82.88 853.12 86.64 853.12 100.94 855.54 100.94 855.54 100.92 855.54 100.94 856.35 100.94 856.35 96.4 857.16 92.65 857.16 85.88 857.96 96.4 857.96 100.94 858.76 100.94 858.76 92.65 859.56 91.15 859.56 96.4 860.37 94.91 860.37 98.67 861.17 93.4 861.17 91.15 861.98 92.65 861.98 67.85 862.8 70.1 862.8 100.94 866.01 100.94 866.01 96.4 866.81 93.4 866.81 82.88 867.63 85.88 867.63 91.15 868.42 92.65 868.42 86.64 869.24 84.38 869.24 97.17 870.05 99.42 870.05 100.94 870.85 100.94 870.85 79.87 871.65 75.37 871.65 98.67 871.92 100.94 873.27 100.94 873.27 97.17 874.07 97.17 874.07 91.15 874.88 88.9 874.88 94.91 875.69 96.4 875.69 99.42 876.49 99.42 876.49 100.94 878.58 100.94 878.91 99.42 878.91 80.63 879.71 84.38 879.71 100.94 882.14 100.94 882.14 84.38 882.93 58.82 882.93 100.94 885.35 100.94 885.35 82.12 886.17 78.37 886.17 72.35 886.96 75.37 886.96 92.65 887.78 94.91 887.78 100.94 890.18 100.94 890.18 93.4 890.99 85.88 890.99 67.09 891.81 73.86 891.81 97.17 892.61 94.91 892.61 100.94 892.78 100.94 893.42 92.65 893.42 88.9 894.22 93.4 894.22 98.67 895.03 96.4 895.03 90.39 895.82 91.15 895.82 94.91 896.64 93.4 896.64 98.67 897.45 98.67 897.45 94.91 898.25 94.91 898.25 91.15 899.06 92.65 899.06 100.94 903.09 100.94 903.09 100.92 903.09 100.94 904.7 100.94 904.7 99.42 905.5 98.67 905.5 100.94 907.11 100.94 907.11 56.57 907.92 58.82 907.92 100.94 909.53 100.94 909.53 90.39 910.33 82.88 910.33 70.1 911.15 70.1 911.15 82.88 911.96 82.88 911.96 92.65 912.76 96.4 912.76 100.94 913.56 100.94 913.56 98.67 914.36 96.4 914.36 92.65 915.17 88.9 915.17 88.15 915.97 86.64 915.97 91.15 916.79 92.65 916.79 80.63 917.6 80.63 917.6 92.65 918.4 96.4 918.4 100.94 918.6 100.94 919.21 98.67 919.21 90.39 920 91.15 920 92.65 920.81 91.15 920.81 88.9 921.62 91.15 921.62 93.4 922.43 93.4 922.43 97.17 923.23 99.42 923.23 100.94 926.46 100.94 926.46 99.42 927.26 98.67 927.26 100.94 928.88 100.94 928.88 97.17 929.68 96.4 929.68 100.94 932.08 100.94 932.1 100.92 932.1 100.94 933.71 100.94 933.71 99.42 934.52 100.92 934.52 100.94 938.54 100.94 938.54 88.9 939.35 84.38 939.35 100.94 943.37 100.94 943.37 92.65 944.18 92.65 944.18 94.91 944.98 94.91 944.98 92.65 945.8 93.4 945.8 91.15 946.6 91.15 946.6 96.4 947.41 97.17 947.41 100.94 949.82 100.94 949.82 97.17 950.62 96.4 950.62 92.65 951.44 92.65 951.44 88.15 952.26 88.15 952.26 99.42 953.05 96.4 953.05 100.94 953.85 100.94 953.86 100.92 953.86 100.94 954.66 100.94 954.66 51.3 955.47 51.3 955.47 100.94 957.29 100.94 957.88 94.91 957.88 76.11 958.69 77.62 958.69 67.85 959.5 82.88 959.5 90.39 960.3 91.15 960.3 100.92 961.11 99.42 961.11 100.94 961.91 100.94 961.91 98.67 962.72 98.67 962.72 94.91 963.52 93.4 963.52 90.39 964.34 92.65 964.34 85.88 965.13 84.38 965.13 93.4 965.95 94.91 965.95 84.38 966.75 97.17 966.75 100.92 967.55 94.91 967.55 88.15 968.36 88.9 968.36 96.4 969.16 96.4 969.16 98.67 969.99 96.4 969.99 93.4 970.78 91.15 970.78 88.15 971.58 98.67 971.58 100.94 973.99 100.94 973.99 98.67 974.81 97.17 974.81 90.39 975.61 93.4 975.61 100.94 976.4 100.94 976.42 100.92 976.42 98.67 977.23 100.92 977.23 90.39 978.03 92.65 978.03 100.94 979.32 100.94 979.64 99.42 979.64 94.91 980.44 96.4 980.44 100.92 981.25 98.67 981.25 100.94 981.61 100.94 982.06 97.17 982.06 96.4 982.87 98.67 982.87 93.4 983.67 100.92 983.67 100.94 987.7 100.94 987.7 80.63 988.5 82.12 988.5 100.94 993.34 100.94 993.34 49.05 994.14 42.29 994.14 100.94 997.03 100.94 997.38 98.67 997.38 93.4 998.17 94.91 998.17 84.38 998.98 82.88 998.98 86.64 999.77 88.15 999.77 82.88 1000.6 82.88 1000.6 90.39 1001.4 91.15 1001.4 85.88 1002.21 91.15 1002.21 100.92 1002.23 100.94 1003.02 100.94 1003.02 93.4 1003.82 88.9 1003.82 73.86 1004.62 72.35 1004.62 61.08 1005.43 79.87 1005.43 96.4 1006.24 97.17 1006.24 98.67 1007.04 96.4 1007.04 90.39 1007.85 93.4 1007.85 96.4 1008.65 96.4 1008.65 100.94 1009.44 100.94 1009.46 100.92 1009.46 100.94 1010.27 100.94 1010.27 97.17 1011.07 99.42 1011.07 94.91 1011.88 94.91 1011.88 99.42 1012.42 100.94 1015.9 100.94 1015.9 99.42 1016.71 100.92 1016.71 100.94 1017.5 100.94 1017.52 100.92 1017.52 100.94 1018.32 100.94 1018.32 100.92 1018.32 92.65 1019.14 86.64 1019.14 70.1 1019.93 78.37 1019.93 100.94 1023.96 100.94 1023.96 100.92 1023.96 100.94 1025.58 100.94 1025.58 64.83 1026.39 59.57 1026.39 100.94 1028.79 100.94 1028.79 88.15 1029.61 85.88 1029.61 77.62 1030.41 76.11 1030.41 80.63 1031.22 78.37 1031.22 91.15 1032.03 93.4 1032.03 96.4 1032.83 99.42 1032.83 93.4 1033.64 100.92 1033.64 100.94 1034.24 100.94 1034.44 99.42 1034.44 88.15 1035.25 85.88 1035.25 76.11 1036.05 77.62 1036.05 78.37 1036.86 79.87 1036.86 82.88 1037.68 80.63 1037.68 76.11 1038.47 79.87 1038.47 96.4 1039.28 97.17 1039.28 88.9 1040.08 88.15 1040.08 96.4 1040.9 98.67 1040.9 100.94 1041.69 100.94 1041.69 96.4 1042.5 97.17 1042.5 93.4 1043.3 92.65 1043.3 97.17 1044.12 98.67 1044.12 100.94 1046.53 100.94 1046.53 97.17 1047.33 97.17 1047.33 92.65 1048.14 92.65 1048.14 100.94 1049.75 100.94 1049.75 94.91 1050.56 98.67 1050.56 100.94 1051.37 100.94 1051.37 99.42 1052.17 99.42 1052.17 98.67 1052.97 98.67 1052.97 100.92 1053.78 100.92 1053.78 96.4 1054.59 96.4 1054.59 98.67 1055.4 94.91 1055.4 100.94 1059.42 100.94 1059.42 98.67 1060.03 100.94 1062.2 100.94 1062.65 97.17 1062.65 100.94 1063.45 100.94 1063.45 96.4 1063.63 100.94 1065.87 100.94 1065.87 98.67 1066.68 99.42 1066.68 94.91 1067.48 97.17 1067.48 92.65 1068.29 99.42 1068.29 100.92 1068.31 100.94 1070.7 100.94 1070.7 96.4 1071.51 97.17 1071.51 92.65 1072.31 92.65 1072.31 71.6 1073.12 72.35 1073.12 99.42 1073.93 100.92 1073.93 97.17 1074.61 100.94 1075.55 100.94 1075.55 99.42 1076.34 100.92 1076.34 96.4 1077.15 96.4 1077.15 98.67 1077.95 98.67 1077.95 93.4 1078.77 93.4 1078.77 91.15 1079.57 91.15 1079.57 97.17 1080.38 99.42 1080.38 100.94 1083.6 100.94 1083.6 96.4 1084.41 96.4 1084.41 100.94 1085.21 100.94 1085.21 94.91 1086.02 84.38 1086.02 67.85 1086.83 97.17 1086.83 100.94 1089.24 100.94 1089.24 97.17 1090.05 96.4 1090.05 91.15 1090.85 93.4 1090.85 94.91 1091.66 98.67 1091.66 91.15 1092.46 99.42 1092.46 100.92 1093.27 99.42 1093.27 100.94 1094.88 100.94 1094.88 100.92 1095.69 97.17 1095.69 92.65 1096.49 92.65 1096.49 94.91 1097.3 94.91 1097.3 91.15 1098.1 90.39 1098.1 100.92 1098.11 100.94 1100.52 100.94 1100.52 97.17 1101.33 97.17 1101.33 100.94 1101.52 100.94 1102.13 98.67 1102.94 97.17 1102.94 90.39 1103.75 88.9 1103.75 97.17 1104.56 99.42 1104.56 100.94 1106.96 100.94 1106.96 96.4 1107.78 97.17 1107.78 94.91 1108.58 94.91 1108.58 98.67 1109.39 99.42 1109.39 92.65 1110.2 96.4 1110.2 88.9 1111 99.42 1111 100.94 1111.33 100.94 1111.8 93.4 1111.8 79.87 1112.61 100.92 1112.61 100.94 1114.49 100.94 1115.03 99.42 1115.03 96.4 1115.84 94.91 1115.84 100.92 1115.85 100.94 1116.64 100.94 1116.64 97.17 1117.46 97.17 1117.46 100.94 1119.06 100.94 1119.06 82.12 1119.86 82.88 1119.86 100.94 1123.9 100.94 1123.9 100.92 1124.7 99.42 1124.7 98.67 1125.5 98.67 1125.5 93.4 1126.32 92.65 1126.32 97.17 1127.11 97.17 1127.11 90.39 1127.92 90.39 1127.92 98.67 1128.73 99.42 1128.73 100.94 1131.14 100.94 1131.14 99.42 1131.95 99.42 1131.95 93.4 1132.76 91.15 1132.76 96.4 1133.57 96.4 1133.57 92.65 1134.37 88.9 1134.37 98.67 1134.73 100.94 1135.19 100.94 1135.19 86.64 1135.98 86.64 1135.98 100.94 1138.39 100.94 1138.39 98.67 1139.21 96.4 1139.21 94.91 1140.01 96.4 1140.01 100.94 1144.04 100.94 1144.04 100.92 1144.04 96.4 1144.85 98.67 1144.85 99.42 1145.65 99.42 1145.65 88.9 1146.46 88.9 1146.46 93.4 1147.26 97.17 1147.26 99.42 1148.07 99.42 1148.07 94.91 1148.87 93.4 1148.87 98.67 1149.68 97.17 1149.68 92.65 1150.48 93.4 1150.48 85.88 1151.29 84.38 1151.29 88.15 1152.11 86.64 1152.11 96.4 1152.9 98.67 1152.9 99.42 1153.72 97.17 1153.72 100.94 1154.51 100.94 1154.51 97.17 1155.32 94.91 1155.32 88.9 1156.12 88.15 1156.12 91.15 1156.93 93.4 1156.93 100.94 1157.75 100.94 1157.75 97.17 1158.55 97.17 1158.55 100.94 1160.96 100.94 1160.96 100.92 1161.77 100.92 1161.77 97.17 1162.58 99.42 1162.58 75.37 1163.38 75.37 1163.38 100.94 1166.61 100.94 1166.61 99.42 1167.41 99.42 1167.41 96.4 1168.22 97.17 1168.22 94.91 1169.02 96.4 1169.02 100.92 1169.03 100.94 1169.83 100.94 1169.83 93.4 1170.63 94.91 1170.63 100.94 1172.24 100.94 1172.24 99.42 1173.05 93.4 1173.05 82.12 1173.86 88.15 1173.86 100.94 1175.47 100.94 1175.47 99.42 1176.01 100.94 1177.08 100.94 1177.08 99.42 1177.89 96.4 1177.89 100.94 1178.7 100.94 1178.7 98.67 1179.49 100.92 1179.49 96.4 1180.3 93.4 1180.3 88.9 1181.11 93.4 1181.11 94.91 1181.91 94.91 1181.91 97.17 1182.72 97.17 1182.72 100.94 1184.34 100.94 1184.34 98.67 1185.14 98.67 1185.14 94.91 1185.94 91.15 1185.94 99.42 1186.74 88.9 1186.74 85.88 1187.56 88.15 1187.56 97.17 1188.38 100.92 1188.38 100.94 1189.98 100.94 1189.98 100.92 1190.78 100.92 1190.78 100.94 1191.59 100.94 1191.59 99.42 1192.39 98.67 1192.39 96.4 1193.2 97.17 1193.2 100.94 1194.01 100.94 1194.01 93.4 1194.81 98.67 1194.81 100.94 1197.23 100.94 1197.23 97.17 1198.03 98.67 1198.03 93.4 1198.84 92.65 1198.84 90.39 1199.64 91.15 1199.64 93.4 1200.46 96.4 1200.46 100.94 1203.67 100.94 1203.67 98.67 1204.48 98.67 1204.48 94.91 1205.28 97.17 1205.28 100.92 1205.3 100.94 1206.1 100.94 1206.1 94.91 1206.9 97.17 1206.9 100.94 1210.93 100.94 1210.93 98.67 1211.74 88.9 1211.74 77.62 1212.53 96.4 1212.53 100.94 1214.96 100.94 1214.96 94.91 1215.76 93.4 1215.76 86.64 1216.56 84.38 1216.56 80.63 1217.38 82.88 1217.38 99.42 1218.18 100.92 1218.18 93.4 1218.99 97.17 1218.99 100.94 1220.6 100.94 1220.6 97.17 1221.4 98.67 1221.4 100.92 1222.21 99.42 1222.21 94.91 1223.02 93.4 1223.02 90.39 1223.81 90.39 1223.81 91.15 1224.63 93.4 1224.63 100.92 1224.64 100.94 1225.44 100.94 1225.44 86.64 1226.24 82.12 1226.24 100.94 1228.65 100.94 1228.65 99.42 1228.98 100.94 1230.27 100.94 1230.27 91.15 1231.07 97.17 1231.07 100.94 1234.29 100.94 1234.29 77.62 1235.1 75.37 1235.1 92.65 1235.92 97.17 1235.92 100.94 1243.17 100.94 1243.17 96.4 1242.36 90.39 1242.36 99.42 1241.54 99.42 1241.54 92.66 1240.75 86.64 1240.75 91.15 1239.93 88.9 1239.93 91.15 1239.14 91.15 1239.14 97.17 1238.33 98.67 1238.33 100.92 1238.33 98.67 1239.14 97.17 1239.14 91.15 1239.93 91.15 1239.93 88.9 1240.75 91.15 1240.75 86.64 1241.54 92.66 1241.54 99.42 1242.36 99.42 1242.36 90.39 1243.17 96.4 1243.17 100.94 1244.78 100.94 1244.78 100.92 1244.78 100.94 1247.16 100.94 1247.18 100.92 1247.18 94.91 1248 96.4 1248 92.66 1248.81 98.67 1248.81 100.94 1251.22 100.94 1251.22 96.4 1252.03 97.17 1252.03 93.4 1252.83 92.66 1252.83 97.17 1253.64 99.42 1253.64 100.94 1254.44 100.94 1254.44 100.92 1254.44 94.91 1255.25 97.17 1255.25 100.94 1256.87 100.94 1256.87 96.4 1257.66 99.42 1257.66 100.92 1257.67 100.94 1258.47 100.94 1258.47 96.4 1259.28 94.91 1259.28 92.66 1260.08 96.4 1260.08 88.9 1260.9 97.17 1260.9 100.94 1263.32 100.94 1263.32 100.92 1264.11 99.42 1264.11 93.4 1264.91 92.66 1264.91 98.67 1265.72 98.67 1265.72 100.94 1266.54 100.94 1266.54 94.91 1267.34 98.67 1267.34 100.94 1268.15 100.94 1268.15 100.92 1268.95 99.42 1268.95 97.17 1269.76 100.92 1269.76 100.94 1270.55 100.94 1270.55 96.4 1271.36 96.4 1271.36 97.17 1272.18 97.17 1272.18 100.92 1272.98 100.92 1272.98 100.94 1273.79 100.94 1273.79 100.92 1273.81 100.94 1275.4 100.94 1275.4 79.87 1276.2 86.64 1276.2 100.94 1278.25 100.94 1278.62 97.17 1278.62 91.15 1279.43 96.4 1279.43 100.94 1281.04 100.94 1281.04 99.42 1281.84 100.92 1281.84 100.94 1282.63 100.94 1282.65 100.92 1282.65 97.17 1283.45 98.67 1283.45 93.4 1284.26 90.39 1284.26 99.42 1285.08 100.92 1285.08 100.94 1287.48 100.94 1287.48 98.67 1288.29 97.17 1288.29 92.66 1289.1 92.66 1289.1 90.39 1289.9 92.66 1289.9 98.67 1290.51 100.94 1290.7 100.94 1290.7 93.4 1291.45 100.94 1294.73 100.94 1294.73 94.91 1295.55 96.4 1295.55 97.17 1296.35 96.4 1296.35 100.94 1299.58 100.94 1299.58 100.92 1300.38 98.67 1300.38 86.64 1301.19 91.15 1301.19 92.66 1301.99 92.66 1301.99 99.42 1302.8 98.67 1302.8 94.91 1303.6 96.4 1303.6 100.94 1304.41 100.94 1304.41 99.42 1305.21 98.67 1305.21 100.92 1306.02 98.67 1306.02 97.17 1306.83 99.42 1306.83 93.4 1307.63 91.15 1307.63 90.39 1308.44 91.15 1308.44 100.92 1308.44 100.94 1312.46 100.94 1312.46 97.17 1313.27 100.92 1313.27 100.94 1314.64 100.94 1314.88 98.67 1314.88 93.4 1315.7 98.67 1315.7 100.94 1318.91 100.94 1318.91 96.4 1319.71 97.17 1319.71 93.4 1320.53 94.91 1320.53 100.94 1320.99 100.94 1321.34 98.67 1321.34 97.17 1322.14 99.42 1322.14 100.94 1324.56 100.94 1324.56 61.08 1325.36 77.62 1325.36 22.73 1326.02 100.94 1327.78 100.94 1327.78 92.66 1328.6 88.9 1328.6 75.37 1329.39 72.35 1329.39 86.64 1330.2 88.9 1330.2 98.67 1331 98.67 1331 100.94 1331.8 100.94 1331.81 100.92 1331.81 98.67 1332.61 98.67 1332.61 100.94 1334.22 100.94 1334.22 100.92 1335.04 98.67 1335.04 100.94 1335.47 100.94 1335.84 97.17 1335.84 82.88 1336.64 82.88 1336.64 77.62 1337.45 79.87 1337.45 90.39 1338.25 88.9 1338.25 85.88 1339.06 91.15 1339.06 80.63 1339.87 93.4 1339.87 100.92 1340.68 100.92 1340.68 91.15 1341.48 91.15 1341.48 93.4 1342.28 94.91 1342.28 100.94 1343.09 100.94 1343.09 97.17 1343.89 97.17 1343.89 100.94 1344.09 100.94 1344.71 98.67 1344.71 100.94 1348.06 100.94 1348.72 97.17 1348.72 90.39 1349.54 93.4 1349.54 97.17 1350.35 97.17 1350.35 99.42 1351.15 94.91 1351.15 100.94 1354.37 100.94 1354.37 100.92 1354.37 98.67 1355.17 98.67 1355.17 99.42 1355.99 99.42 1355.99 93.4 1356.79 94.91 1356.79 100.94 1360.01 100.94 1360.01 99.42 1360.82 99.42 1360.82 96.4 1361.63 96.4 1361.63 98.67 1362.43 98.67 1362.43 92.66 1363.24 93.4 1363.24 100.94 1364.86 100.94 1364.86 98.67 1365.66 98.67 1365.66 100.94 1367.26 100.94 1367.26 97.17 1368.07 93.4 1368.07 92.66 1368.88 93.4 1368.88 100.92 1368.89 100.94 1370.49 100.94 1370.5 100.92 1370.5 100.94 1372.1 100.94 1372.1 98.67 1372.9 96.4 1372.9 93.4 1373.72 99.42 1373.72 100.94 1374.51 100.94 1374.51 97.17 1375.33 97.17 1375.33 100.94 1376.94 100.94 1376.94 98.67 1377.75 99.42 1377.75 100.94 1379.36 100.94 1379.36 98.67 1380.16 98.67 1380.16 96.4 1380.97 94.91 1380.97 100.94 1384.19 100.94 1384.19 97.17 1385 94.91 1385 90.39 1385.8 90.39 1385.8 92.66 1386.61 92.66 1386.61 99.42 1386.93 100.94 1387.41 100.94 1387.41 94.91 1387.85 100.94 1389.82 100.94 1389.84 100.92 1389.84 100.94 1390.63 100.94 1390.63 99.42 1391.44 97.17 1391.44 92.66 1392.26 92.66 1392.26 96.4 1393.05 98.67 1393.05 100.94 1393.08 100.94 1393.86 79.87 1393.86 40.02 1394.55 100.94 1396.28 100.94 1396.28 76.11 1397.08 71.6 1397.08 67.85 1397.88 70.1 1397.88 76.11 1398.7 80.63 1398.7 85.88 1399.49 86.64 1399.49 100.94 1401.12 100.94 1401.12 100.92 1401.13 100.94 1401.92 100.94 1401.92 99.42 1402.46 100.94 1402.73 100.94 1402.73 92.66 1403.52 93.4 1403.52 85.88 1404.34 82.88 1404.34 77.62 1405.14 78.37 1405.14 84.39 1405.95 80.63 1405.95 71.6 1406.76 79.87 1406.76 100.94 1408.37 100.94 1408.37 94.91 1409.17 91.15 1409.17 86.64 1409.98 93.4 1409.98 100.94 1410.18 100.94 1410.78 98.67 1410.78 100.94 1416.4 100.94 1416.42 100.92 1416.42 90.39 1417.23 86.64 1417.23 98.67 1417.43 100.94 1418.05 100.94 1418.05 79.87 1418.58 100.94 1420.45 100.94 1420.45 94.91 1421.26 93.4 1421.26 88.14 1422.06 88.9 1422.06 93.4 1422.87 91.15 1422.87 96.4 1423.68 93.4 1423.68 100.94 1425.29 100.94 1425.29 99.42 1425.57 100.94 1427.71 100.94 1427.71 93.4 1428.52 92.66 1428.52 88.14 1429.32 91.15 1429.32 96.4 1430.12 97.17 1430.12 94.91 1430.93 97.17 1430.93 100.94 1431.74 100.94 1431.74 93.4 1432.54 90.39 1432.54 84.39 1433.35 84.39 1433.35 88.9 1434.16 90.39 1434.16 94.91 1434.96 96.4 1434.96 88.9 1435.77 90.39 1435.77 100.94 1437.38 100.94 1437.38 96.4 1438.19 99.42 1438.19 100.94 1439.8 100.94 1439.8 98.67 1440.6 96.4 1440.6 100.94 1444.63 100.94 1444.63 100.92 1444.63 100.94 1445.43 100.94 1445.43 98.67 1446.24 92.66 1446.24 82.12 1447.02 100.94 1447.5 100.94 1447.5 0.5"/><polyline class="cls-2" points="1.18 95.64 1.18 91.88 1.99 94.89 1.99 86.61 2.81 84.36 2.81 100.15 3.61 103.9 3.61 112.17 4.41 110.67 4.41 97.89 5.21 97.14 5.21 94.89 6.02 95.64 6.02 99.39 6.83 95.64 6.83 88.87 7.64 91.13 7.64 93.38 8.44 93.38 8.44 97.89 9.25 97.14 9.25 102.39 10.05 101.65 10.05 108.42 10.85 106.17 10.85 101.65 11.67 100.15 11.67 91.13 12.47 93.38 12.47 88.87 13.28 95.64 13.28 100.15 14.08 100.15 14.08 91.13 14.89 91.13 14.89 100.15 15.7 103.9 15.7 107.66 16.49 99.39 16.49 95.64 17.3 97.14 17.3 31.74 18.12 33.99 18.12 178.33 18.92 184.34 18.92 211.41 19.73 167.81 19.73 102.39 20.53 97.14 20.53 78.34 21.34 76.09 21.34 70.83 22.14 76.84 22.14 91.88 22.94 95.64 22.94 101.65 23.75 99.39 23.75 97.14 24.56 97.89 24.56 100.15 25.36 100.15 25.36 103.9 26.18 102.39 26.18 91.88 26.98 91.88 26.98 102.39 27.78 103.9 27.78 95.64 28.58 91.13 28.58 82.86 29.39 85.11 29.39 78.34 30.2 80.61 30.2 76.09 31 78.34 31 82.86 31.82 84.36 31.82 79.09 32.63 87.38 32.63 97.14 33.43 97.89 33.43 103.9 34.23 102.39 34.23 109.92 35.03 108.42 35.03 102.39 35.84 100.15 35.84 99.39 36.65 99.39 36.65 101.65 37.45 102.39 37.45 100.15 38.27 99.39 38.27 103.9 39.07 102.39 39.07 110.67 39.87 112.17 39.87 114.44 40.67 108.42 40.67 100.15 41.48 99.39 41.48 95.64 42.29 97.89 42.29 101.65 43.09 97.89 43.09 91.88 43.9 91.88 43.9 97.14 44.71 99.39 44.71 102.39 45.5 101.65 45.5 38.49 46.31 38.49 46.31 188.11 47.13 186.6 47.13 217.43 47.93 170.06 47.93 102.39 48.74 94.89 48.74 72.33 49.54 70.83 49.54 78.34 50.35 80.61 50.35 74.59 51.16 81.36 51.16 107.66 51.96 108.42 51.96 112.92 52.77 103.9 52.77 100.15 53.57 102.39 53.57 107.66 54.38 103.9 54.38 97.14 55.18 95.64 55.18 85.11 56 85.11 56 81.36 56.8 84.36 56.8 89.62 57.6 89.62 57.6 93.38 58.4 95.64 58.4 91.13 59.21 91.88 59.21 84.36 60.03 84.36 60.03 88.87 60.82 87.38 60.82 82.86 61.63 87.38 61.63 91.88 62.44 94.89 62.44 88.87 63.24 91.13 63.24 107.66 64.04 108.42 64.04 112.17 64.85 106.17 64.85 104.66 65.65 103.9 65.65 106.17 66.47 103.9 66.47 99.39 67.27 100.15 67.27 93.38 68.08 91.88 68.08 95.64 68.89 97.89 68.89 102.39 69.68 103.9 69.68 106.17 70.5 108.42 70.5 101.65 71.3 102.39 71.3 106.17 72.11 102.39 72.11 88.87 72.92 89.62 72.92 94.89 73.72 95.64 73.72 101.65 74.53 101.65 74.53 94.89 75.32 101.65 75.32 109.92 76.14 110.67 76.14 103.9 76.94 102.39 76.94 106.17 77.75 106.17 77.75 104.66 78.55 107.66 78.55 99.39 79.36 97.89 79.36 93.38 80.17 95.64 80.17 88.87 80.97 97.89 80.97 101.65 81.78 102.39 81.78 103.9 82.58 102.39 82.58 109.92 83.39 107.66 83.39 99.39 84.19 100.15 84.19 93.38 85 91.88 85 95.64 85.8 97.89 85.8 99.39 86.62 97.89 86.62 94.89 87.42 97.89 87.42 108.42 88.22 107.66 88.22 100.15 89.03 100.15 89.03 102.39 89.83 102.39 89.83 101.65 90.64 101.65 90.64 94.89 91.45 94.89 91.45 91.88 92.26 91.88 92.26 100.15 93.05 102.39 93.05 106.17 93.86 104.66 93.86 101.65 94.66 102.39 94.66 107.66 95.48 106.17 95.48 95.64 96.29 95.64 96.29 88.87 97.09 88.87 97.09 97.14 97.9 99.39 98.69 99.39 98.69 95.64 99.5 99.39 99.5 110.67 100.31 108.42 100.31 100.15 101.12 100.15 101.12 97.14 101.92 101.65 101.92 104.66 102.73 103.9 102.73 97.14 103.54 95.64 103.54 93.38 104.34 91.88 104.34 101.65 105.14 101.65 105.14 100.15 105.95 100.15 105.95 102.39 106.76 100.15 106.76 107.66 107.56 106.17 107.56 97.89 108.38 97.14 108.38 93.38 109.17 97.14 109.17 99.39 109.99 97.89 109.99 97.14 110.79 93.38 110.79 86.61 111.59 89.62 111.59 108.42 112.4 109.92 112.4 99.39 113.2 100.15 113.2 97.14 114.01 97.14 114.01 100.15 114.82 100.15 114.82 97.14 115.63 97.14 115.63 91.13 116.42 91.13 116.42 95.64 117.23 95.64 117.23 99.39 118.04 100.15 118.04 97.89 118.84 99.39 118.84 108.42 119.65 106.17 119.65 100.15 120.46 100.15 120.46 97.89 121.27 97.89 121.27 99.39 122.06 99.39 122.06 102.39 122.87 100.15 122.87 89.62 123.68 91.88 123.68 102.39 124.49 104.66 124.49 100.15 125.3 95.64 125.3 82.86 126.1 103.9 126.1 124.96 126.91 121.19 126.91 104.66 127.71 103.9 127.71 94.89 128.51 95.64 128.51 91.13 129.31 97.89 129.31 100.15 130.13 100.15 130.13 104.66 130.94 104.66 130.94 109.92 131.74 103.9 131.74 102.39 132.55 101.65 132.55 91.88 133.35 89.62 133.35 94.89 134.15 97.89 134.15 91.88 134.95 89.62 134.95 97.14 135.77 97.89 135.77 107.66 136.57 107.66 136.57 99.39 137.38 99.39 137.38 97.89 138.19 95.64 138.19 101.65 139 99.39 139 93.38 139.8 93.38 139.8 88.87 140.6 88.87 140.6 101.65 141.41 101.65 141.41 97.89 142.22 100.15 142.22 103.9 143.02 103.9 143.02 108.42 143.82 102.39 143.82 95.64 144.64 94.89 144.64 38.49 145.45 27.97 145.45 152.02 146.24 185.85 146.24 214.42 147.05 178.33 147.05 114.44 147.86 109.92 147.86 91.88 148.67 88.87 148.67 72.33 149.46 70.83 149.46 79.09 150.28 82.86 150.28 91.13 151.09 89.62 151.09 94.89 151.88 94.89 151.88 97.14 152.69 94.89 152.69 103.9 153.5 103.9 153.5 100.15 154.31 101.65 154.31 95.64 155.11 99.39 155.11 91.13 155.92 88.87 155.92 86.61 156.73 88.87 156.73 80.61 157.52 80.61 157.52 82.86 158.33 81.36 158.33 86.61 159.15 82.86 159.15 76.84 159.95 85.11 159.95 97.89 160.75 97.14 160.75 100.15 161.56 101.65 161.56 97.14 162.37 101.65 162.37 106.17 163.17 103.9 163.17 100.15 163.97 99.39 164.78 99.39 164.78 104.66 165.59 103.9 165.59 102.39 166.4 101.65 166.4 104.66 167.2 103.9 167.2 107.66 168.01 101.65 168.01 95.64 168.81 94.89 168.81 91.13 169.62 94.89 169.62 99.39 170.42 100.15 170.42 103.9 171.23 99.39 171.23 93.38 172.03 102.39 172.03 109.92 172.84 107.66 172.84 99.39 173.65 97.89 173.65 101.65 174.45 97.89 174.45 94.89 175.26 97.89 175.26 100.15 176.06 99.39 176.06 97.89 176.87 97.14 176.87 106.17 177.67 104.66 177.67 110.67 178.48 108.42 178.48 103.9 179.29 108.42 179.29 109.92 180.1 106.17 180.1 102.39 180.91 104.66 180.91 95.64 181.7 93.38 181.7 91.88 182.5 94.89 182.5 97.14 183.31 93.38 183.31 102.39 184.12 103.9 184.12 108.42 184.93 112.17 184.93 101.65 185.74 103.9 185.74 107.66 186.54 106.17 186.54 101.65 187.34 99.39 187.34 97.89 188.15 99.39 188.15 93.38 188.96 94.89 188.96 73.84 189.77 68.57 189.77 32.48 190.57 102.39 190.57 219.69 191.37 209.16 191.37 149.02 192.18 133.23 192.18 85.11 192.98 80.61 192.98 67.83 193.78 67.83 193.78 76.09 194.6 79.09 194.6 84.36 195.41 86.61 195.41 102.39 196.21 107.66 196.21 95.64 197.01 97.14 197.01 118.19 197.82 120.45 197.82 125.71 198.63 116.69 198.63 106.17 199.43 101.65 199.43 82.86 200.24 82.86 200.24 73.84 201.04 74.59 201.04 79.09 201.85 79.09 201.85 81.36 202.66 82.86 202.66 89.62 203.47 91.13 203.47 94.89 204.28 91.13 204.28 86.61 205.07 85.11 205.07 91.13 205.88 91.13 205.88 93.38 206.68 91.88 206.68 95.64 207.5 99.39 207.5 91.13 208.29 102.39 208.29 106.17 209.11 104.66 209.11 97.14 209.92 97.14 209.92 97.89 210.71 97.89 210.71 95.64 211.52 95.64 211.52 100.15 212.32 99.39 212.32 91.88 213.13 93.38 213.13 97.14 213.94 93.38 213.94 101.65 214.75 101.65 214.75 109.92 215.56 112.92 215.56 106.17 216.36 103.9 216.36 95.64 217.16 94.89 217.16 93.38 217.97 91.88 217.97 95.64 218.77 97.89 218.77 93.38 219.58 91.88 219.58 97.89 220.39 102.39 220.39 107.66 221.19 107.66 221.19 100.15 222 100.15 222 106.17 222.79 107.66 222.79 101.65 223.61 100.15 223.61 91.88 224.42 89.62 224.42 94.89 225.22 84.36 225.22 76.84 226.03 93.38 226.03 128.71 226.83 129.46 226.83 120.45 227.64 118.19 227.64 104.66 228.43 102.39 228.43 99.39 229.25 97.89 229.25 94.89 230.06 95.64 230.06 100.15 230.86 100.15 230.86 93.38 231.67 91.88 231.67 112.17 232.47 112.17 232.47 116.69 233.29 112.92 233.29 103.9 234.08 102.39 234.08 106.17 234.89 107.66 234.89 102.39 235.7 100.15 235.7 89.62 236.5 89.62 236.5 87.38 237.32 89.62 237.32 97.89 238.11 97.14 238.11 81.36 238.93 81.36 238.93 122.7 239.73 118.19 239.73 130.97 240.53 114.44 240.53 101.65 241.33 97.89 241.33 89.62 242.14 89.62 242.14 86.61 242.95 88.87 242.95 82.86 243.76 85.11 243.76 97.14 244.57 100.15 244.57 108.42 245.37 106.17 245.37 102.39 246.17 102.39 246.17 99.39 246.97 99.39 246.97 97.89 247.79 99.39 247.79 93.38 248.59 93.38 248.59 88.87 249.4 94.89 249.4 97.89 250.21 97.14 250.21 94.89 251.01 97.14 251.01 103.9 251.81 103.9 251.81 99.39 252.61 95.64 252.61 89.62 253.43 91.13 253.43 94.89 254.23 95.64 254.23 100.15 255.04 100.15 255.04 89.62 255.84 91.13 255.84 106.17 256.65 108.42 256.65 110.67 257.45 103.9 257.45 99.39 258.26 101.65 258.26 97.14 259.07 99.39 259.07 103.9 259.88 97.14 259.88 95.64 260.68 94.89 260.68 97.89 261.48 99.39 261.48 93.38 262.3 84.36 262.3 103.9 263.1 110.67 263.1 130.97 263.9 129.46 263.9 112.17 264.7 106.17 264.7 91.13 265.52 91.88 265.52 86.61 266.32 84.36 266.32 89.62 267.12 87.38 267.12 94.89 267.94 88.87 267.94 106.17 268.74 109.92 268.74 112.17 269.54 104.66 269.54 97.14 270.34 97.89 270.34 102.39 271.15 104.66 271.15 100.15 271.96 97.89 271.96 91.13 272.77 91.88 272.77 93.38 273.58 94.89 273.58 97.89 274.39 97.14 274.39 99.39 275.19 99.39 275.19 103.9 275.99 104.66 275.99 97.89 276.79 95.64 276.79 88.87 277.61 91.13 277.61 93.38 278.41 91.88 278.41 97.14 279.21 99.39 279.21 89.62 280.03 91.88 280.03 108.42 280.83 110.67 280.83 106.17 281.63 100.15 281.63 99.39 282.44 99.39 282.44 100.15 283.25 102.39 283.25 97.89 284.05 97.14 284.05 99.39 284.85 99.39 284.85 93.38 285.66 95.64 285.66 97.14 286.47 87.38 286.47 29.48 287.28 84.36 287.28 218.18 288.08 222.69 288.08 149.02 288.89 133.23 288.89 86.61 289.69 81.36 289.69 70.07 290.5 68.57 290.5 84.36 291.3 84.36 291.3 79.09 292.12 86.61 292.12 107.66 292.92 108.42 292.92 112.92 293.72 112.17 293.72 107.66 294.52 106.17 294.52 100.15 295.33 99.39 295.33 88.87 296.14 88.87 296.14 82.86 296.94 84.36 296.94 81.36 297.76 87.38 297.76 91.13 298.56 87.38 298.56 85.11 299.36 87.38 299.36 94.89 300.17 91.88 300.17 89.62 300.97 89.62 300.97 82.86 301.78 84.36 301.78 89.62 302.59 91.13 302.59 97.89 303.39 97.89 303.39 89.62 304.2 94.89 304.2 107.66 305 104.66 305 112.17 305.8 102.39 305.8 99.39 306.61 102.39 306.61 104.66 307.42 106.17 307.42 99.39 308.23 99.39 308.23 93.38 309.03 94.89 309.03 89.62 309.84 97.14 309.84 99.39 310.65 101.65 310.65 97.14 311.44 99.39 311.44 103.9 312.26 102.39 312.26 97.14 313.06 97.89 313.06 93.38 313.87 93.38 313.87 91.88 314.68 95.64 314.68 100.15 315.48 97.89 315.48 91.88 316.29 94.89 316.29 112.92 317.09 112.92 317.09 108.42 317.9 106.17 317.9 101.65 318.7 101.65 318.7 104.66 319.51 104.66 319.51 99.39 320.31 97.89 320.31 94.89 321.12 93.38 321.12 101.65 321.94 102.39 321.94 106.17 322.73 104.66 322.73 109.92 323.54 112.17 323.54 107.66 324.34 107.66 324.34 95.64 325.15 95.64 325.15 97.89 325.96 97.14 325.96 95.64 326.76 99.39 326.76 103.9 327.57 101.65 327.57 97.89 328.38 99.39 328.38 112.17 329.18 114.44 329.18 106.17 329.98 104.66 329.98 102.39 330.79 102.39 330.79 101.65 331.6 103.9 331.6 91.88 332.41 89.62 332.41 94.89 333.21 99.39 333.21 89.62 334.02 100.15 334.02 102.39 334.81 103.9 334.81 110.67 335.62 112.92 335.62 108.42 336.44 108.42 336.44 97.89 337.23 99.39 337.23 95.64 338.05 95.64 338.05 88.87 338.85 88.87 338.85 97.14 339.66 93.38 339.66 89.62 340.46 93.38 340.46 108.42 341.26 106.17 341.26 81.36 342.07 79.09 342.07 110.67 342.88 120.45 342.88 128.71 343.69 121.19 343.69 109.92 344.49 104.66 344.49 94.89 345.3 95.64 345.3 91.13 346.1 97.89 346.1 101.65 346.91 100.15 346.91 99.39 347.71 102.39 347.71 104.66 348.52 102.39 348.52 100.15 349.32 99.39 349.32 89.62 350.13 88.87 350.13 94.89 350.95 94.89 350.95 95.64 351.74 94.89 351.74 86.61 352.55 76.84 352.55 100.15 353.35 68.57 353.35 32.48 354.16 104.66 354.16 207.65 354.96 194.87 354.96 137.74 355.77 122.7 355.77 76.09 356.59 72.33 356.59 59.56 357.39 57.29 357.39 73.84 358.19 78.34 358.19 91.13 358.99 94.89 358.99 99.39 359.81 101.65 359.81 110.67 360.6 103.9 360.6 100.15 361.42 100.15 361.42 97.89 362.23 97.14 362.23 99.39 363.03 99.39 363.03 91.88 363.84 87.38 363.84 81.36 364.63 85.11 364.63 91.88 365.44 91.88 365.44 82.86 366.25 81.36 366.25 85.11 367.06 86.61 367.06 91.13 367.86 89.62 367.86 87.38 368.67 86.61 368.67 89.62 369.48 86.61 369.48 100.15 370.27 100.15 370.27 103.9 371.07 101.65 371.07 108.42 371.89 110.67 371.89 112.17 372.7 110.67 372.7 101.65 373.5 101.65 373.5 100.15 374.31 99.39 374.31 102.39 375.11 102.39 375.11 97.89 375.92 99.39 375.92 95.64 376.72 100.15 376.72 109.92 377.53 112.17 377.53 102.39 378.33 99.39 379.14 99.39 379.14 101.65 379.95 100.15 379.95 97.89 380.76 97.89 380.76 91.13 381.56 91.13 381.56 97.89 382.36 101.65 382.36 110.67 383.18 112.17 383.18 112.92 383.97 112.17 383.97 108.42 384.79 106.17 384.79 99.39 385.58 99.39 385.58 95.64 386.4 95.64 386.4 91.88 387.2 97.14 387.2 104.66 388.01 102.39 388.01 95.64 388.81 104.66 388.81 112.92 389.62 112.17 389.62 97.89 390.42 97.14 390.42 99.39 391.24 99.39 391.24 100.15 392.04 97.89 392.04 95.64 392.85 94.89 392.85 87.38 393.64 85.11 393.64 97.14 394.46 97.89 394.46 102.39 395.27 102.39 395.27 97.89 396.07 103.9 396.07 106.17 396.87 102.39 396.87 97.89 397.68 99.39 397.68 93.38 398.49 93.38 398.49 97.14 399.28 97.14 399.28 102.39 400.09 95.64 400.09 91.88 400.9 99.39 400.9 106.17 401.72 107.66 401.72 99.39 402.51 97.89 402.51 104.66 403.32 103.9 403.32 100.15 404.12 97.89 404.12 93.38 404.94 94.89 404.94 97.14 405.73 94.89 405.73 102.39 406.55 100.15 406.55 97.89 407.35 97.89 407.35 102.39 408.15 102.39 408.15 103.9 408.96 101.65 408.96 95.64 409.76 93.38 409.76 91.13 410.58 91.88 410.58 97.89 411.38 97.14 411.38 102.39 412.18 97.89 412.18 91.88 413 100.15 413 107.66"/><polyline class="cls-2" points="413.79 106.17 413.79 99.39 414.61 97.89 414.61 101.65 415.4 97.89 415.4 93.38 416.22 94.89 416.22 91.13 417.01 93.38 417.01 95.64 417.83 95.64 417.83 108.42 418.62 107.67 418.62 100.15 419.44 99.39 419.44 107.67 420.25 110.67 420.25 104.66 421.05 101.65 421.05 97.89 421.86 97.89 421.86 93.38 422.65 95.64 422.65 97.89 423.47 94.89 423.47 101.65 424.27 97.14 424.27 93.38 425.09 99.39 425.09 104.66 425.88 106.17 425.88 97.89 426.69 97.89 427.5 97.14 427.5 100.15 428.3 99.39 428.3 94.89 429.11 94.89 429.11 89.62 429.91 91.88 429.91 101.65 430.72 101.65 430.72 106.17 431.53 109.92 431.53 101.65 432.33 102.4 432.33 107.67 433.13 102.4 433.13 94.89 433.94 93.38 433.94 97.89 434.75 97.89 434.75 101.65 435.55 103.9 435.55 97.14 436.37 99.39 436.37 91.13 437.16 102.4 437.16 108.42 437.98 110.67 437.98 104.66 438.77 103.9 438.77 97.89 439.59 97.89 439.59 103.9 440.38 97.89 440.38 93.38 441.2 93.38 441.2 94.89 442 94.89 442 102.4 442.81 101.65 442.81 103.9 443.62 106.17 443.62 99.39 444.42 103.9 444.42 104.66 445.23 103.9 445.23 97.89 446.03 95.64 446.03 91.88 446.84 91.13 446.84 94.89 447.64 97.89 447.64 89.62 448.44 91.13 448.44 100.15 449.26 103.9 449.26 106.17 450.06 103.9 450.06 94.89 450.87 94.89 450.87 97.14 451.67 97.89 451.67 94.89 452.48 94.89 452.48 97.14 453.28 94.89 453.28 89.62 454.09 95.64 454.09 102.4 454.9 101.65 454.9 106.17 455.7 109.92 455.7 102.4 456.5 104.66 456.5 110.67 457.31 102.4 457.31 93.38 458.11 93.38 458.11 89.62 458.93 93.38 458.93 100.15 459.73 97.14 459.73 103.9 460.53 106.17 460.53 95.64 461.35 108.42 461.35 112.17 462.14 107.67 462.14 99.39 462.96 100.15 462.96 97.14 463.75 99.39 463.75 91.88 464.56 89.62 464.56 97.14 465.38 97.89 465.38 91.88 466.18 91.88 466.18 97.89 466.98 97.14 466.98 103.9 467.79 101.65 467.79 108.42 468.59 107.67 468.59 102.4 469.4 101.65 469.4 94.89 470.21 95.64 470.21 91.88 471.02 94.89 471.02 95.64 471.81 94.89 471.81 87.37 472.63 88.87 472.63 104.66 473.44 107.67 473.44 110.67 474.24 109.92 474.24 99.39 475.04 99.39 475.04 100.15 475.84 99.39 475.84 95.64 476.66 94.89 476.66 97.89 477.46 94.89 477.46 91.13 478.26 93.38 478.26 97.89 479.07 95.64 479.07 104.66 479.89 104.66 479.89 109.92 480.68 112.17 480.68 106.17 481.49 103.9 481.49 95.64 482.29 94.89 482.29 97.89 483.1 97.89 483.1 97.14 483.91 97.14 483.91 87.37 484.7 89.62 484.7 102.4 485.52 103.9 485.52 106.17 486.33 101.65 486.33 97.89 487.13 97.89 487.13 101.65 487.94 100.15 487.94 103.9 488.74 100.15 488.74 97.14 489.54 97.14 489.54 93.38 490.35 95.64 490.35 100.15 491.17 100.15 491.17 97.14 491.96 100.15 491.96 108.42 492.78 109.92 492.78 99.39 493.57 97.89 493.57 102.4 494.39 100.15 494.39 94.89 495.19 95.64 495.19 97.89 496 97.89 496 88.87 496.79 91.13 496.79 106.17 497.61 106.17 497.61 109.92 498.4 107.67 498.4 101.65 499.22 100.15 499.22 103.9 500.03 104.66 500.03 97.89 500.83 97.89 500.83 94.89 501.64 91.88 501.64 88.87 502.44 94.89 502.44 99.39 503.26 100.15 503.26 102.4 504.06 101.65 504.06 104.66 504.86 102.4 504.86 94.89 505.67 94.89 505.67 87.37 506.47 88.87 506.47 91.88 507.28 93.38 507.28 97.89 508.08 97.89 508.08 91.13 508.89 93.38 508.89 104.66 509.7 106.17 509.7 108.42 510.5 100.15 510.5 94.89 511.29 97.14 511.29 100.15 512.11 99.39 512.11 95.64 512.93 95.64 512.93 97.14 513.72 97.14 513.72 93.38 514.53 97.89 514.53 100.15 515.33 100.15 515.33 104.66 516.15 104.66 516.15 110.67 516.94 109.92 516.94 101.65 517.75 100.15 517.75 91.13 518.55 91.88 518.55 95.64 519.37 95.64 519.37 99.39 520.16 99.39 520.16 91.88 520.98 91.88 520.98 107.67 521.78 106.17 521.78 109.92 522.59 103.9 522.59 97.89 523.4 99.39 523.4 100.15 524.2 100.15 524.2 97.14 525 97.89 525 91.88 525.82 91.88 525.82 89.62 526.61 97.14 526.61 101.65 527.43 100.15 527.43 103.9 528.23 103.9 528.23 100.15 529.02 101.65 529.02 104.66 529.84 101.65 529.84 91.88 530.65 91.13 530.65 94.89 531.45 97.14 531.45 97.89 532.26 97.89 532.26 94.89 533.05 97.14 533.05 110.67 533.87 112.92 533.87 103.9 534.66 99.39 534.66 97.14 535.48 97.89 535.48 102.4 536.29 101.65 536.29 100.15 537.09 100.15 537.09 97.89 537.9 97.14 537.9 99.39 538.7 99.39 538.7 102.4 539.52 104.66 539.52 99.39 540.32 103.9 540.32 112.17 541.12 112.17 541.12 99.39 541.93 101.65 541.93 94.89 542.73 95.64 542.73 93.38 543.55 95.64 543.55 97.14 544.35 97.14 544.35 88.87 545.15 91.88 545.15 104.66 545.96 106.17 545.96 97.14 546.76 97.14 546.76 99.39 547.58 99.39 547.58 97.14 548.38 97.14 548.38 99.39 549.19 97.14 549.19 93.38 549.99 93.38 549.99 95.64 550.8 97.14 550.8 99.39 551.59 97.89 551.59 104.66 552.41 104.66 552.41 100.15 553.2 102.4 553.2 91.88 554.02 94.89 554.02 97.14 554.83 95.64 554.83 93.38 555.63 97.14 556.44 97.89 556.44 94.89 557.24 97.14 557.24 108.42 558.06 106.17 558.06 97.89 558.85 97.14 558.85 94.89 559.66 97.14 559.66 99.39 560.46 99.39 560.46 102.4 561.27 97.14 561.27 94.89 562.08 94.89 562.08 91.13 562.88 95.64 562.88 97.89 563.69 97.89 563.69 101.65 564.5 101.65 564.5 107.67 565.3 103.9 565.3 95.64 566.1 97.14 566.1 91.13 566.91 93.38 566.91 97.14 567.72 97.14 567.72 94.89 568.52 97.14 568.52 91.13 569.34 97.89 569.34 109.92 570.13 110.67 570.13 100.15 570.95 99.39 570.95 102.4 571.74 100.15 571.74 99.39 572.56 99.39 572.56 95.64 573.35 94.89 573.35 97.14 574.17 97.14 574.17 91.13 574.97 97.89 574.97 99.39 575.78 100.15 575.78 106.17 576.59 109.92 576.59 112.92 577.39 110.67 577.39 97.14 578.19 97.14 578.19 91.88 579 91.13 579 93.38 579.81 93.38 579.81 97.89 580.61 94.89 580.61 89.62 581.41 94.89 581.41 109.92 582.2 108.42 582.2 100.15 583.03 97.89 583.03 103.9 583.84 104.66 583.84 110.67 584.64 102.4 584.64 94.89 585.45 95.64 585.45 93.38 586.25 97.14 586.25 103.9 587.06 103.9 587.06 107.67 587.85 106.17 587.85 103.9 588.67 104.66 588.67 110.67 589.48 106.17 589.48 99.39 590.28 99.39 590.28 94.89 591.09 94.89 591.09 97.14 591.9 97.89 591.9 99.39 592.7 97.89 592.7 91.88 593.5 97.14 593.5 106.17 594.32 108.42 594.32 97.89 595.11 91.88 595.11 25.72 595.92 29.48 595.92 185.85 596.73 170.07 596.73 218.18 597.54 156.54 597.54 99.39 598.34 89.62 598.34 73.84 599.15 76.84 599.15 70.82 599.95 79.09 599.95 91.13 600.76 95.64 600.76 101.65 601.57 99.39 601.57 97.89 602.37 99.39 602.37 95.64 603.18 97.14 603.18 102.4 603.99 103.9 603.99 100.15 604.78 95.64 604.78 91.13 605.59 91.13 605.59 97.14 606.39 97.14 606.39 85.11 607.21 84.36 607.21 81.36 608.01 81.36 608.01 84.36 608.82 82.86 608.82 79.09 609.62 79.09 609.62 82.86 610.43 80.61 610.43 93.38 611.22 95.64 611.22 101.65 612.04 102.4 612.04 104.66 612.86 102.4 612.86 107.67 613.65 106.17 613.65 103.9 614.46 103.9 614.46 101.65 615.26 103.9 615.26 104.66 616.07 104.66 616.07 107.67 616.87 100.15 616.87 94.89 617.67 106.17 617.67 52.79 618.49 38.49 618.49 152.77 619.3 182.09 619.3 209.91 620.1 173.07 620.1 118.94 620.91 106.17 620.91 79.09 621.71 76.84 621.71 65.56 622.52 66.32 622.52 80.61 623.32 84.36 623.32 94.89 624.13 97.14 624.13 103.9 624.93 109.92 624.93 112.92 625.74 104.66 625.74 101.65 626.54 100.15 626.54 99.39 627.36 99.39 627.36 97.14 628.16 97.14 628.16 102.4 628.97 93.38 628.97 87.37 629.76 89.62 629.76 99.39 630.58 99.39 630.58 55.8 631.38 73.84 631.38 21.21 632.19 110.67 632.19 198.64 633 179.84 633 122.7 633.8 112.17 633.8 73.84 634.61 76.84 634.61 70.07 635.41 76.09 635.41 82.86 636.23 74.59 636.23 127.22 637.02 133.23 637.02 139.24 637.83 131.72 637.83 118.94 638.63 114.43 638.63 101.65 639.44 99.39 639.44 91.13 640.25 89.62 640.25 95.64 641.05 86.61 641.05 81.36 641.86 86.61 641.86 97.14 642.67 97.89 642.67 58.04 643.47 27.97 643.47 115.19 644.27 154.28 644.27 197.13 645.08 164.8 645.08 104.66 645.88 101.65 645.88 85.11 646.69 80.61 646.69 78.34 647.51 79.09 647.51 88.87 648.3 91.13 648.3 102.4 649.12 102.4 649.12 107.67 649.91 101.65 649.91 97.14 650.72 99.39 650.72 93.38 651.52 97.14 651.52 87.37 652.34 85.11 652.34 102.4 653.13 103.9 653.13 107.67 653.95 109.92 653.95 110.67 654.75 109.92 654.75 80.61 655.56 76.09 655.56 31.74 656.36 13.69 656.36 124.96 657.17 154.28 657.17 178.34 657.98 154.28 657.98 95.64 658.78 91.88 658.78 80.61 659.58 76.84 659.58 55.8 660.39 61.81 660.39 114.43 661.2 118.94 661.2 125.71 662.01 116.69 662.01 112.17 662.81 110.67 662.81 107.67 663.62 106.17 663.62 99.39 664.41 99.39 664.41 89.62 665.23 91.13 665.23 86.61 666.02 93.38 666.02 97.14 666.84 86.61 666.84 18.95 667.64 33.99 667.64 191.12 668.45 200.89 668.45 161.04 669.26 146.01 669.26 86.61 670.06 79.09 670.06 55.04 670.87 55.8 670.87 70.07 671.67 73.84 671.67 88.87 672.49 91.88 672.49 104.66 673.28 103.9 673.28 106.17 674.09 103.9 674.09 102.4 674.89 101.65 674.89 97.89 675.71 93.38 675.71 104.66 676.52 66.32 676.52 25.72 677.32 64.06 677.32 203.14 678.12 200.89 678.12 143.75 678.93 130.97 678.93 79.09 679.73 72.33 679.73 59.56 680.54 58.04 680.54 67.83 681.34 68.57 681.34 76.84 682.14 76.09 682.14 84.36 682.96 87.37 682.96 101.65 683.77 103.9 683.77 104.66 684.56 108.42 684.56 99.39 685.38 101.65 685.38 122.7 686.18 124.96 686.18 110.67 686.99 108.42 686.99 97.89 687.79 97.14 687.79 49.79 688.6 52.79 688.6 163.29 689.4 154.28 689.4 176.08 690.21 148.27 690.21 110.67 691.03 103.9 691.03 80.61 691.82 79.09 691.82 72.33 692.63 76.09 692.63 88.87 693.43 91.13 693.43 94.89 694.23 93.38 694.23 97.89 695.04 102.4 695.04 110.67 695.84 99.39 695.84 60.3 696.66 104.66 696.66 188.1 697.47 191.12 697.47 144.5 698.27 130.97 698.27 82.86 699.07 80.61 699.07 66.32 699.87 65.56 699.87 61.81 700.69 64.06 700.69 55.8 701.49 57.29 701.49 78.34 702.31 82.86 702.31 89.62 703.1 89.62 703.1 87.37 703.92 91.88 703.92 97.89 704.72 94.89 704.72 101.65 705.53 86.61 705.53 33.99 706.32 57.29 706.32 173.07 707.14 184.34 707.14 139.24 707.93 127.22 707.93 88.87 708.75 82.86 708.75 72.33 709.54 70.07 709.54 76.84 710.36 73.84 710.36 70.82 711.17 74.59 711.17 82.86 711.96 82.86 711.96 89.62 712.78 91.13 712.78 95.64 713.58 94.89 713.58 104.66 714.38 107.67 714.38 109.92 715.2 102.4 715.2 93.38 716 95.64 716 100.15 716.8 97.14 716.8 91.13 717.6 88.87 717.6 76.09 718.42 76.09 718.42 60.3 719.22 85.11 719.22 107.67 720.03 109.92 720.03 89.62 720.84 60.3 720.84 130.97 721.64 156.54 721.64 182.09 722.44 165.55 722.44 108.42 723.25 100.15 723.25 85.11 724.07 84.36 724.07 91.13 724.86 91.88 724.86 94.89 725.68 94.89 725.68 109.92 726.47 112.17 726.47 118.19 727.29 115.19 727.29 109.92 728.08 109.92 728.08 115.19 728.89 109.92 728.89 103.9 729.69 102.4 729.69 93.38 730.51 91.13 730.51 84.36 731.3 87.37 731.3 94.89 732.12 91.88 732.12 81.36 732.92 106.17 732.92 49.02 733.73 137.74 733.73 185.85 734.53 163.29 734.53 121.2 735.33 114.43 735.33 85.11 736.15 85.11 736.15 80.61 736.96 80.61 736.96 84.36 737.75 85.11 737.75 101.65 738.57 108.42 738.57 116.69 739.36 116.69 739.36 110.67 740.18 118.19 740.18 101.65 740.97 97.89 740.97 110.67 741.79 112.17 741.79 106.17 742.59 104.66 742.59 94.89 743.4 84.36 743.4 46.77 744.19 59.56 744.19 159.54 745.01 158.79 745.01 122.7 745.82 112.17 745.82 88.87 746.62 84.36 746.62 70.07 747.43 70.07 747.43 65.56 748.23 60.3 748.23 84.36 749.04 93.38 749.04 101.65 749.84 103.9 749.84 124.96 750.64 124.96 750.64 115.19 751.45 112.17 751.45 102.4 752.26 102.4 752.26 104.66 753.07 106.17 753.07 97.14 753.88 82.86 753.88 40.76 754.68 76.09 754.68 155.03 755.49 158.79 755.49 121.2 756.29 112.17 756.29 81.36 757.1 76.09 757.1 72.33 757.9 70.82 757.9 53.54 758.7 65.56 758.7 87.37 759.51 88.87 759.51 91.88 760.33 94.89 760.33 97.89 761.13 97.14 761.13 91.88 761.94 93.38 761.94 101.65 762.73 100.15 762.73 97.14 763.55 94.89 763.55 88.87 764.35 88.87 764.35 86.61 765.16 86.61 765.16 81.36 765.97 82.86 765.97 79.09 766.77 78.34 766.77 84.36 767.58 87.37 767.58 91.88 768.38 91.13 768.38 93.38 769.2 94.89 769.2 103.9 769.99 101.65 769.99 94.89 770.8 97.14 770.8 100.15 771.6 97.89 771.6 95.64 772.41 97.14 772.41 103.9 773.22 104.66 773.22 97.14 774.02 100.15 774.02 114.43 774.83 110.67 774.83 120.45 775.64 109.92 775.64 94.89 776.44 97.14 776.44 87.37 777.24 85.11 777.24 58.04 778.05 110.67 778.05 175.33 778.86 161.04 778.86 120.45 779.66 115.19 779.66 101.65 780.47 100.15 780.47 93.38 781.27 91.13 781.27 100.15 782.09 99.39 782.09 104.66 782.88 100.15 782.88 99.39 783.69 101.65 783.69 97.14 784.49 102.4 784.49 109.92 785.31 107.67 785.31 87.37 786.1 85.11 786.1 115.19 786.92 121.2 786.92 131.72 787.72 124.96 787.72 79.09 788.51 94.89 788.51 55.8 789.34 121.2 789.34 162.55 790.14 137.74 790.14 94.89 790.95 88.87 790.95 73.84 791.75 76.84 791.75 70.82 792.55 78.34 792.55 87.37 793.37 89.62 793.37 102.4 794.16 101.65 794.16 104.66 794.98 106.17 794.98 102.4 795.78 101.65 795.78 104.66 796.59 104.66 796.59 109.92 797.39 108.42 797.39 97.14 798.2 97.14 798.2 63.31 798.99 45.27 798.99 118.19 799.81 140 799.81 152.77 800.62 140 800.62 97.14 801.42 91.13 801.42 76.09 802.23 74.59 802.23 70.82 803.03 70.82 803.03 85.11 803.84 88.87 803.84 94.89 804.64 95.64 804.64 97.14 805.46 99.39 805.46 107.67 806.25 104.66 806.25 100.15 807.06 100.15 807.06 97.89 807.86 97.89 807.86 99.39 808.68 99.39 808.68 101.65 809.49 95.64 809.49 87.37 810.29 80.61 810.29 101.65 811.09 84.36 811.09 55.04 811.88 110.67 811.88 156.54 812.7 144.5 812.7 91.88 813.51 87.37 813.51 81.36 814.32 89.62 814.32 93.38 815.13 93.38 815.13 101.65 815.92 100.15 815.92 104.66 816.74 106.17 816.74 110.67 817.53 109.92 817.53 116.69 818.35 114.43 818.35 107.67 819.15 104.66 819.15 95.64 819.96 94.89 819.96 74.59 820.76 73.84 820.76 94.89 821.57 91.88 821.57 49.79 822.36 80.61 822.36 170.07 823.18 171.57 823.18 122.7 823.98 112.92 823.98 82.86 824.79 78.34 824.79 70.07 825.6 74.59 825.6 79.09"/><polyline class="cls-2" points="826.4 76.85 826.4 73.84 827.21 73.84 827.21 76.09 828.01 76.85 828.01 104.65 828.83 112.17 828.83 121.2 829.63 118.18 829.63 124.96 830.44 114.43 830.44 107.67 831.24 106.17 831.24 95.64 832.04 93.38 832.04 89.63 832.85 89.63 832.85 86.62 833.65 87.37 833.65 79.1 834.46 89.63 834.46 99.39 835.25 93.38 835.25 37 836.07 63.31 836.07 150.52 836.88 157.28 836.88 123.45 837.68 112.92 837.68 85.11 838.5 81.35 838.5 76.09 839.3 76.09 839.3 89.63 840.11 91.87 840.11 97.14 840.92 97.14 840.92 102.4 841.72 107.67 841.72 85.11 842.52 79.1 842.52 100.15 843.32 104.65 844.14 103.91 844.14 108.42 844.94 102.4 845.75 100.15 845.75 93.38 846.55 97.9 846.55 112.17 847.36 109.92 847.36 70.83 848.16 40.76 848.16 110.67 848.97 135.48 848.97 159.53 849.77 150.52 849.77 107.67 850.58 101.65 850.58 88.87 851.39 87.37 851.39 91.87 852.19 94.88 852.19 99.39 853 102.4 853 81.35 853.8 85.11 853.8 112.17 854.61 112.92 854.61 116.68 855.41 112.92 855.41 103.91 856.22 102.4 856.22 99.39 857.03 101.65 857.03 94.88 857.84 91.12 857.84 84.36 858.65 94.88 858.65 106.17 859.44 102.4 859.44 91.12 860.25 89.63 860.25 94.88 861.05 93.38 861.05 97.14 861.86 91.87 861.86 89.63 862.66 91.12 862.66 66.32 863.48 68.57 863.48 112.92 864.28 120.45 864.28 125.71 865.09 125.71 865.09 116.68 865.88 120.45 865.88 110.67 866.69 108.42 866.69 94.88 867.5 91.87 867.5 81.35 868.31 84.36 868.31 89.63 869.11 91.12 869.11 85.11 869.92 82.86 869.92 95.64 870.73 97.9 870.73 107.67 871.53 107.67 871.53 78.34 872.33 73.84 872.33 97.14 873.13 103.91 873.13 110.67 873.95 108.42 873.95 95.64 874.76 95.64 874.76 89.63 875.56 87.37 875.56 93.38 876.37 94.88 876.37 97.9 877.17 97.9 877.17 104.65 877.98 104.65 877.98 110.67 878.78 106.17 878.78 101.65 879.59 97.9 879.59 79.1 880.4 82.86 880.4 112.92 881.2 118.18 881.2 124.96 882.02 114.43 882.02 112.17 882.82 120.45 882.82 82.86 883.62 57.3 883.62 118.94 884.42 144.5 884.42 170.06 885.23 157.28 885.23 108.42 886.03 101.65 886.03 80.6 886.85 76.85 886.85 70.83 887.64 73.84 887.64 91.12 888.46 93.38 888.46 102.4 889.27 104.65 889.27 110.67 890.06 112.17 890.06 108.42 890.87 106.17 890.87 91.87 891.67 84.36 891.67 65.57 892.49 72.33 892.49 95.64 893.29 93.38 893.29 101.65 894.1 91.12 894.1 87.37 894.91 91.87 894.91 97.14 895.71 94.88 895.71 88.87 896.51 89.63 896.51 93.38 897.32 91.87 897.32 97.14 898.13 97.14 898.13 93.38 898.93 93.38 898.93 89.63 899.74 91.12 899.74 103.91 900.55 106.17 900.55 109.92 901.35 109.92 901.35 104.65 902.16 108.42 902.16 114.43 902.96 108.42 902.96 103.91 903.77 102.4 903.77 99.39 904.57 101.65 904.57 106.17 905.38 107.67 905.38 97.9 906.18 97.14 906.18 101.65 907 103.91 907 115.18 907.8 116.68 907.8 55.04 908.6 57.3 908.6 159.53 909.41 169.32 909.41 144.5 910.21 131.72 910.21 88.87 911.02 81.35 911.02 68.57 911.83 68.57 911.83 81.35 912.64 81.35 912.64 91.12 913.44 94.88 913.44 102.4 914.24 102.4 914.24 97.14 915.05 94.88 915.05 91.12 915.85 87.37 915.85 86.62 916.66 85.11 916.66 89.63 917.47 91.12 917.47 79.1 918.28 79.1 918.28 91.12 919.08 94.88 919.08 100.15 919.89 97.14 919.89 88.87 920.68 89.63 920.68 91.12 921.49 89.63 921.49 87.37 922.31 89.63 922.31 91.87 923.11 91.87 923.11 95.64 923.92 97.9 923.92 102.4 924.72 102.4 924.72 112.92 925.53 112.92 925.53 108.42 926.33 110.67 926.33 101.65 927.14 102.4 927.14 97.9 927.95 97.14 927.95 104.65 928.75 104.65 928.75 100.15 929.57 102.4 929.57 95.64 930.36 94.88 930.36 101.65 931.17 106.17 931.17 109.92 931.97 106.17 931.97 100.15 932.78 99.39 932.78 101.65 933.58 102.4 933.58 100.15 934.39 101.65 934.39 97.9 935.21 99.39 935.21 101.65 936 103.91 936 110.67 936.81 109.92 936.81 112.17 937.61 110.67 937.61 120.45 938.42 120.45 938.42 118.18 939.22 114.43 939.22 87.37 940.03 82.86 940.03 108.42 940.83 112.17 940.83 120.45 941.65 118.94 941.65 100.15 942.46 100.15 942.46 109.92 943.26 112.92 943.26 114.43 944.05 107.67 944.05 91.12 944.86 91.12 944.86 93.38 945.67 93.38 945.67 91.12 946.48 91.87 946.48 89.63 947.28 89.63 947.28 94.88 948.09 95.64 948.09 106.17 948.9 104.65 948.9 109.92 949.71 108.42 949.71 104.65 950.5 104.65 950.5 95.64 951.3 94.88 951.3 91.12 952.12 91.12 952.12 86.62 952.94 86.62 952.94 97.9 953.73 94.88 953.73 101.65 954.54 99.39 954.54 112.17 955.34 115.18 955.34 49.78 956.15 49.78 956.15 152.02 956.96 150.52 956.96 179.83 957.76 139.24 957.76 101.65 958.57 93.38 958.57 74.58 959.37 76.09 959.37 66.32 960.18 81.35 960.18 88.87 960.98 89.63 960.98 99.39 961.79 97.9 961.79 102.4 962.59 101.65 962.59 97.14 963.4 97.14 963.4 93.38 964.21 91.87 964.21 88.87 965.02 91.12 965.02 84.36 965.82 82.86 965.82 91.87 966.63 93.38 966.63 82.86 967.44 95.64 967.44 99.39 968.23 93.38 968.23 86.62 969.04 87.37 969.04 94.88 969.84 94.88 969.84 97.14 970.67 94.88 970.67 91.87 971.47 89.63 971.47 86.62 972.26 97.14 972.26 104.65 973.08 104.65 973.08 108.42 973.88 108.42 973.88 104.65 974.68 106.17 974.68 97.14 975.49 95.64 975.49 88.87 976.29 91.87 976.29 100.15 977.1 99.39 977.1 97.14 977.91 99.39 977.91 88.87 978.72 91.12 978.72 103.91 979.52 106.17 979.52 101.65 980.33 97.9 980.33 93.38 981.12 94.88 981.12 99.39 981.94 97.14 981.94 102.4 982.74 95.64 982.74 94.88 983.55 97.14 983.55 91.87 984.35 99.39 984.35 104.65 985.16 102.4 985.16 112.17 985.97 110.67 985.97 118.94 986.77 118.94 986.77 112.17 987.58 114.43 987.58 104.65 988.38 103.91 988.38 79.1 989.19 80.6 989.19 115.18 989.99 114.43 989.99 120.45 990.81 114.43 990.81 129.46 991.62 128.72 991.62 118.94 992.41 114.43 992.41 106.17 993.22 107.67 993.22 103.91 994.02 104.65 994.02 47.52 994.83 40.76 994.83 152.02 995.64 167.06 995.64 133.98 996.45 127.2 996.45 108.42 997.25 109.92 997.25 102.4 998.06 97.14 998.06 91.87 998.86 93.38 998.86 82.86 999.66 81.35 999.66 85.11 1000.46 86.62 1000.46 81.35 1001.28 81.35 1001.28 88.87 1002.09 89.63 1002.09 84.36 1002.89 89.63 1002.89 99.39 1003.7 100.15 1003.7 91.87 1004.5 87.37 1004.5 72.33 1005.3 70.83 1005.3 59.55 1006.12 78.34 1006.12 94.88 1006.92 95.64 1006.92 97.14 1007.73 94.88 1007.73 88.87 1008.53 91.87 1008.53 94.88 1009.34 94.88 1009.34 100.15 1010.14 99.39 1010.14 102.4 1010.95 100.15 1010.95 95.64 1011.75 97.9 1011.75 93.38 1012.56 93.38 1012.56 97.9 1013.37 100.15 1013.37 107.67 1014.17 106.17 1014.17 102.4 1014.98 106.17 1014.98 118.18 1015.79 115.18 1015.79 106.17 1016.59 100.15 1016.59 97.9 1017.39 99.39 1017.39 100.15 1018.2 99.39 1018.2 101.65 1019 99.39 1019 91.12 1019.82 85.11 1019.82 68.57 1020.62 76.85 1020.62 110.67 1021.43 114.43 1021.43 118.18 1022.24 116.68 1022.24 112.92 1023.03 112.17 1023.03 107.67 1023.85 106.17 1023.85 102.4 1024.64 102.4 1024.64 99.39 1025.45 104.65 1025.45 112.17 1026.27 115.18 1026.27 63.31 1027.07 58.05 1027.07 141.5 1027.88 152.02 1027.88 169.32 1028.67 146 1028.67 109.92 1029.47 101.65 1029.47 86.62 1030.29 84.36 1030.29 76.09 1031.1 74.58 1031.1 79.1 1031.9 76.85 1031.9 89.63 1032.71 91.87 1032.71 94.88 1033.51 97.9 1033.51 91.87 1034.32 99.39 1034.32 103.91 1035.13 97.9 1035.13 86.62 1035.93 84.36 1035.93 74.58 1036.74 76.09 1036.74 76.85 1037.54 78.34 1037.54 81.35 1038.36 79.1 1038.36 74.58 1039.15 78.34 1039.15 94.88 1039.96 95.64 1039.96 87.37 1040.76 86.62 1040.76 94.88 1041.58 97.14 1041.58 103.91 1042.38 102.4 1042.38 94.88 1043.18 95.64 1043.18 91.87 1043.99 91.12 1043.99 95.64 1044.8 97.14 1044.8 107.67 1045.61 109.92 1045.61 115.18 1046.41 115.18 1046.41 118.18 1047.21 112.17 1047.21 95.64 1048.01 95.64 1048.01 91.12 1048.82 91.12 1048.82 102.4 1049.63 103.91 1049.63 107.67 1050.43 102.4 1050.43 93.38 1051.25 97.14 1051.25 110.67 1052.05 110.67 1052.05 97.9 1052.86 97.9 1052.86 97.14 1053.65 97.14 1053.65 99.39 1054.46 99.39 1054.46 94.88 1055.28 94.88 1055.28 97.14 1056.08 93.38 1056.08 108.42 1056.89 108.42 1056.89 115.18 1057.69 116.68 1057.69 112.17 1058.5 110.67 1058.5 118.18 1059.3 107.67 1059.3 101.65 1060.11 100.15 1060.11 97.14 1060.9 100.15 1060.9 106.17 1061.72 107.67 1061.72 112.92 1062.53 106.17 1062.53 102.4 1063.33 95.64 1063.33 109.92 1064.14 112.92 1064.14 94.88 1064.94 115.18 1064.94 120.45 1065.75 116.68 1065.75 108.42 1066.55 109.92 1066.55 97.14 1067.36 97.9 1067.36 93.38 1068.16 95.64 1068.16 91.12 1068.97 97.9 1068.97 99.39 1069.79 100.15 1069.79 106.17 1070.58 109.92 1070.58 112.92 1071.39 106.17 1071.39 94.88 1072.19 95.64 1072.19 91.12 1073 91.12 1073 70.08 1073.8 70.83 1073.8 97.9 1074.61 99.39 1074.61 95.64 1075.42 100.15 1075.42 106.17 1076.23 106.17 1076.23 97.9 1077.03 99.39 1077.03 94.88 1077.83 94.88 1077.83 97.14 1078.64 97.14 1078.64 91.87 1079.45 91.87 1079.45 89.63 1080.26 89.63 1080.26 95.64 1081.06 97.9 1081.06 101.65 1081.87 100.15 1081.87 103.91 1082.67 101.65 1082.67 108.42 1083.47 107.67 1083.47 101.65 1084.29 100.15 1084.29 94.88 1085.09 94.88 1085.09 101.65 1085.9 101.65 1085.9 93.38 1086.7 82.86 1086.7 66.32 1087.51 95.64 1087.51 120.45 1088.31 120.45 1088.31 109.92 1089.12 108.42 1089.12 102.4 1089.92 102.4 1089.92 95.64 1090.73 94.88 1090.73 89.63 1091.54 91.87 1091.54 93.38 1092.34 97.14 1092.34 89.63 1093.15 97.9 1093.15 99.39 1093.95 97.9 1093.95 103.91 1094.77 106.17 1094.77 109.92 1095.56 103.91 1095.56 99.39 1096.37 95.64 1096.37 91.12 1097.17 91.12 1097.17 93.38 1097.98 93.38 1097.98 89.63 1098.79 88.87 1098.79 99.39 1099.6 101.65 1099.6 106.17 1100.41 107.67 1100.41 100.15 1101.2 100.15 1101.2 95.64 1102.01 95.64 1102.01 100.15 1102.81 97.14 1103.62 95.64 1103.62 88.87 1104.43 87.37 1104.43 95.64 1105.24 97.9 1105.24 104.65 1106.05 104.65 1106.05 109.92 1106.85 108.42 1106.85 115.18 1107.65 106.17 1107.65 94.88 1108.46 95.64 1108.46 93.38 1109.26 93.38 1109.26 97.14 1110.07 97.9 1110.07 91.12 1110.88 94.88 1110.88 87.37 1111.68 97.9 1111.68 104.65 1112.48 91.87 1112.48 78.34 1113.3 99.39 1113.3 120.45 1114.09 120.45 1114.09 114.43 1114.91 112.17 1114.91 100.15 1115.71 97.9 1115.71 94.88 1116.52 93.38 1116.52 99.39 1117.32 100.15 1117.32 95.64 1118.14 95.64 1118.14 101.65 1118.93 102.4 1118.93 103.91 1119.74 100.15 1119.74 80.6 1120.55 81.35 1120.55 107.67 1121.35 109.92 1121.35 116.68 1122.16 116.68 1122.16 103.91 1122.97 101.65 1122.97 107.67 1123.78 110.67 1123.78 118.94 1124.58 115.18 1124.58 99.39 1125.38 97.9 1125.38 97.14 1126.18 97.14 1126.18 91.87 1127 91.12 1127 95.64 1127.8 95.64 1127.8 88.87 1128.6 88.87 1128.6 97.14 1129.42 97.9 1129.42 104.65 1130.22 103.91 1130.22 112.17 1131.03 112.92 1131.03 107.67 1131.82 103.91 1131.82 97.9 1132.63 97.9 1132.63 91.87 1133.45 89.63 1133.45 94.88 1134.25 94.88 1134.25 91.12 1135.06 87.37 1135.06 97.14 1135.87 102.4 1135.87 85.11 1136.67 85.11 1136.67 102.4 1137.47 106.17 1137.47 114.43 1138.27 112.17 1138.27 109.92 1139.07 108.42 1139.07 97.14 1139.89 94.88 1139.89 93.38 1140.7 94.88 1140.7 101.65 1141.5 101.65 1141.5 104.65 1142.31 104.65 1142.31 116.68 1143.11 116.68 1143.11 104.65 1143.92 103.91 1143.92 101.65 1144.72 99.39 1144.72 94.88 1145.53 97.14 1145.53 97.9 1146.33 97.9 1146.33 87.37 1147.14 87.37 1147.14 91.87 1147.94 95.64 1147.94 97.9 1148.75 97.9 1148.75 93.38 1149.56 91.87 1149.56 97.14 1150.36 95.64 1150.36 91.12 1151.17 91.87 1151.17 84.36 1151.97 82.86 1151.97 86.62 1152.79 85.11 1152.79 94.88 1153.58 97.14 1153.58 97.9 1154.4 95.64 1154.4 103.91 1155.19 102.4 1155.19 95.64 1156 93.38 1156 87.37 1156.81 86.62 1156.81 89.63 1157.61 91.87 1157.61 102.4 1158.43 104.65 1158.43 95.64 1159.23 95.64 1159.23 102.4 1160.04 108.42 1160.04 114.43 1160.85 110.67 1160.85 101.65 1161.64 100.15 1161.64 99.39 1162.46 99.39 1162.46 95.64 1163.26 97.9 1163.26 73.84 1164.07 73.84 1164.07 108.42 1164.87 115.18 1164.87 116.68 1165.68 115.18 1165.68 107.67 1166.48 106.17 1166.48 114.43 1167.29 112.17 1167.29 97.9 1168.1 97.9 1168.1 94.88 1168.9 95.64 1168.9 93.38 1169.7 94.88 1169.7 99.39 1170.51 101.65 1170.51 91.87 1171.32 93.38 1171.32 106.17 1172.12 109.92 1172.12 112.92 1172.93 110.67 1172.93 97.9 1173.73 91.87 1173.73 80.6 1174.54 86.62 1174.54 112.17 1175.34 112.17 1175.34 104.65 1176.15 103.91 1176.15 97.9 1176.95 100.15 1176.95 103.91 1177.76 100.15 1177.76 97.9 1178.58 94.88 1178.58 102.4 1179.38 101.65 1179.38 97.14 1180.18 99.39 1180.18 94.88 1180.98 91.87 1180.98 87.37 1181.79 91.87 1181.79 93.38 1182.59 93.38 1182.59 95.64 1183.4 95.64 1183.4 103.91 1184.22 106.17 1184.22 110.67 1185.02 103.91 1185.02 97.14 1185.83 97.14 1185.83 93.38 1186.62 89.63 1186.62 97.9 1187.43 87.37 1187.43 84.36 1188.24 86.62 1188.24 95.64 1189.06 99.39 1189.06 103.91 1189.86 104.65 1189.86 101.65 1190.66 103.91 1190.66 99.39 1191.47 99.39 1191.47 102.4 1192.27 100.15 1192.27 97.9 1193.08 97.14 1193.08 94.88 1193.88 95.64 1193.88 102.4 1194.69 102.4 1194.69 91.87 1195.49 97.14 1195.49 112.92 1196.3 112.92 1196.3 109.92 1197.11 107.67 1197.11 101.65 1197.91 100.15 1197.91 95.64 1198.72 97.14 1198.72 91.87 1199.52 91.12 1199.52 88.87 1200.33 89.63 1200.33 91.87 1201.14 94.88 1201.14 101.65 1201.94 101.65 1201.94 107.67 1202.74 109.92 1202.74 104.65 1203.55 107.67 1203.55 101.65 1204.36 101.65 1204.36 97.14 1205.16 97.14 1205.16 93.38 1205.97 95.64 1205.97 99.39 1206.78 100.15 1206.78 93.38 1207.59 95.64 1207.59 110.67 1208.39 108.42 1208.39 114.43 1209.2 104.65 1209.2 103.91 1209.99 102.4 1209.99 107.67 1210.8 108.42 1210.8 101.65 1211.62 102.4 1211.62 97.14 1212.42 87.37 1212.42 76.09 1213.22 94.88 1213.22 115.18 1214.03 116.68 1214.03 120.45 1214.84 115.18 1214.84 109.92 1215.64 106.17 1215.64 93.38 1216.44 91.87 1216.44 85.11 1217.24 82.86 1217.24 79.1 1218.06 81.35 1218.06 97.9 1218.87 99.39 1218.87 91.87 1219.67 95.64 1219.67 110.67 1220.48 110.67 1220.48 103.91 1221.28 100.15 1221.28 95.64 1222.09 97.14 1222.09 99.39 1222.89 97.9 1222.89 93.38 1223.7 91.87 1223.7 88.87 1224.49 88.87 1224.49 89.63 1225.31 91.87 1225.31 99.39 1226.13 100.15 1226.13 85.11 1226.92 80.6 1226.92 108.42 1227.73 112.92 1227.73 120.45 1228.53 112.17 1228.53 103.91 1229.34 102.4 1229.34 97.9 1230.15 101.65 1230.15 102.4 1230.95 100.15 1230.95 89.63 1231.76 95.64 1231.76 112.17 1232.57 108.42 1232.57 103.91 1233.38 104.65 1233.38 102.4 1234.17 102.4 1234.17 100.15 1234.98 100.15 1234.98 76.09 1235.78 73.84 1235.78 91.12 1236.6 95.64 1236.6 109.92 1237.4 110.67 1237.4 112.17 1238.21 108.42 1238.21 103.91"/><polyline class="cls-2" points="1239.02 99.39 1239.02 97.14 1239.82 95.64 1239.82 89.62 1240.62 89.62 1240.62 87.37 1241.43 89.62 1241.43 85.11 1242.23 91.13 1242.23 97.9 1243.04 97.9 1243.04 88.87 1243.85 94.88 1243.85 108.42 1244.65 108.42 1244.65 101.65 1245.46 101.65 1245.46 99.39 1246.25 101.65 1246.25 104.66 1247.07 108.42 1247.07 100.15 1247.87 99.39 1247.87 93.38 1248.68 94.88 1248.68 91.13 1249.49 97.14 1249.49 103.91 1250.29 103.91 1250.29 101.65 1251.1 101.65 1251.1 108.42 1251.9 104.66 1251.9 94.88 1252.71 95.64 1252.71 91.87 1253.52 91.13 1253.52 95.64 1254.32 97.9 1254.32 101.65 1255.13 99.39 1255.13 93.38 1255.93 95.64 1255.93 103.91 1256.75 104.66 1256.75 102.4 1257.55 101.65 1257.55 94.88 1258.35 97.9 1258.35 99.39 1259.15 103.91 1259.15 94.88 1259.96 93.38 1259.96 91.13 1260.76 94.88 1260.76 87.37 1261.58 95.64 1261.58 102.4 1262.39 102.4 1262.39 100.15 1263.19 102.4 1263.19 112.17 1264 107.67 1264 99.39 1264.79 97.9 1264.79 91.87 1265.6 91.13 1265.6 97.14 1266.4 97.14 1266.4 101.65 1267.22 101.65 1267.22 93.38 1268.03 97.14 1268.03 107.67 1268.83 106.17 1268.83 99.39 1269.64 97.9 1269.64 95.64 1270.44 99.39 1270.44 102.4 1271.24 101.65 1271.24 94.88 1272.04 94.88 1272.04 95.64 1272.86 95.64 1272.86 99.39 1273.66 99.39 1273.66 101.65 1274.47 101.65 1274.47 99.39 1275.28 100.15 1275.28 107.67 1276.08 101.65 1276.08 78.34 1276.89 85.11 1276.89 107.67 1277.69 104.66 1277.69 102.4 1278.5 101.65 1278.5 103.91 1279.3 95.64 1279.3 89.62 1280.11 94.88 1280.11 103.91 1280.91 101.65 1280.91 107.67 1281.72 101.65 1281.72 97.9 1282.53 99.39 1282.53 100.15 1283.33 99.39 1283.33 95.64 1284.14 97.14 1284.14 91.87 1284.94 88.87 1284.94 97.9 1285.76 99.39 1285.76 103.91 1286.55 103.91 1286.55 101.65 1287.37 101.65 1287.37 112.92 1288.16 110.67 1288.16 97.14 1288.97 95.64 1288.97 91.13 1289.79 91.13 1289.79 88.87 1290.58 91.13 1290.58 97.14 1291.39 100.15 1291.39 91.87 1292.2 100.15 1292.2 109.92 1293.01 107.67 1293.01 102.4 1293.81 102.4 1293.81 104.66 1294.61 104.66 1294.61 102.4 1295.41 103.91 1295.41 93.38 1296.23 94.88 1296.23 95.64 1297.04 94.88 1297.04 100.15 1297.84 104.66 1297.84 112.92 1298.65 112.17 1298.65 106.17 1299.45 104.66 1299.45 108.42 1300.26 103.91 1300.26 99.39 1301.06 97.14 1301.06 85.11 1301.87 89.62 1301.87 91.13 1302.67 91.13 1302.67 97.9 1303.48 97.14 1303.48 93.38 1304.29 94.88 1304.29 107.67 1305.09 108.42 1305.09 97.9 1305.9 97.14 1305.9 99.39 1306.7 97.14 1306.7 95.64 1307.51 97.9 1307.51 91.87 1308.31 89.62 1308.31 88.87 1309.12 89.62 1309.12 99.39 1309.92 101.65 1309.92 103.91 1310.74 101.65 1310.74 100.15 1311.55 104.66 1311.55 109.92 1312.35 108.42 1312.35 102.4 1313.15 100.15 1313.15 95.64 1313.95 99.39 1313.95 101.65 1314.77 100.15 1314.77 104.66 1315.56 97.14 1315.56 91.87 1316.38 97.14 1316.38 107.67 1317.18 109.92 1317.18 101.65 1317.99 101.65 1317.99 100.15 1318.79 100.15 1318.79 104.66 1319.59 103.91 1319.59 94.88 1320.4 95.64 1320.4 91.87 1321.21 93.38 1321.21 102.4 1322.02 97.14 1322.02 95.64 1322.82 97.9 1322.82 107.67 1323.63 110.67 1323.63 104.66 1324.44 103.91 1324.44 100.15 1325.24 100.15 1325.24 59.55 1326.05 76.09 1326.05 21.2 1326.84 116.68 1326.84 198.63 1327.66 176.08 1327.66 127.2 1328.46 118.19 1328.46 91.13 1329.28 87.37 1329.28 73.84 1330.07 70.83 1330.07 85.11 1330.88 87.37 1330.88 97.14 1331.69 97.14 1331.69 101.65 1332.49 99.39 1332.49 97.14 1333.3 97.14 1333.3 101.65 1334.11 102.4 1334.11 103.91 1334.91 103.91 1334.91 99.39 1335.72 97.14 1335.72 103.91 1336.52 95.64 1336.52 81.35 1337.32 81.35 1337.32 76.09 1338.13 78.34 1338.13 88.87 1338.94 87.37 1338.94 84.35 1339.74 89.62 1339.74 79.1 1340.56 91.87 1340.56 99.39 1341.36 99.39 1341.36 89.62 1342.17 89.62 1342.17 91.87 1342.96 93.38 1342.96 101.65 1343.77 100.15 1343.77 95.64 1344.58 95.64 1344.58 100.15 1345.39 97.14 1345.39 106.17 1346.2 107.67 1346.2 112.92 1347 112.17 1347 107.67 1347.81 103.91 1347.81 115.19 1348.61 101.65 1348.61 100.15 1349.41 95.64 1349.41 88.87 1350.22 91.87 1350.22 95.64 1351.03 95.64 1351.03 97.9 1351.84 93.38 1351.84 106.17 1352.64 108.42 1352.64 112.92 1353.45 112.92 1353.45 101.65 1354.25 101.65 1354.25 102.4 1355.06 99.39 1355.06 97.14 1355.85 97.14 1355.85 97.9 1356.67 97.9 1356.67 91.87 1357.47 93.38 1357.47 102.4 1358.28 103.91 1358.28 106.17 1359.09 107.67 1359.09 104.66 1359.89 103.91 1359.89 109.92 1360.7 100.15 1360.7 97.9 1361.5 97.9 1361.5 94.88 1362.31 94.88 1362.31 97.14 1363.11 97.14 1363.11 91.13 1363.92 91.87 1363.92 100.15 1364.72 102.4 1364.72 112.17 1365.54 106.17 1365.54 97.14 1366.35 97.14 1366.35 101.65 1367.14 100.15 1367.14 104.66 1367.95 101.65 1367.95 95.64 1368.75 91.87 1368.75 91.13 1369.57 91.87 1369.57 99.39 1370.37 101.65 1371.18 99.39 1371.18 104.66 1371.98 103.91 1371.98 106.17 1372.78 101.65 1372.78 97.14 1373.59 94.88 1373.59 91.87 1374.4 97.9 1374.4 103.91 1375.19 106.17 1375.19 95.64 1376.01 95.64 1376.01 103.91 1376.82 106.17 1376.82 108.42 1377.62 108.42 1377.62 97.14 1378.43 97.9 1378.43 102.4 1379.22 103.91 1379.22 100.15 1380.04 101.65 1380.04 97.14 1380.85 97.14 1380.85 94.88 1381.65 93.38 1381.65 101.65 1382.46 101.65 1382.46 107.67 1383.26 106.17 1383.26 112.92 1384.07 112.92 1384.07 104.66 1384.87 100.15 1384.87 95.64 1385.68 93.38 1385.68 88.87 1386.48 88.87 1386.48 91.13 1387.29 91.13 1387.29 97.9 1388.1 101.65 1388.1 93.38 1388.91 104.66 1388.91 110.67 1389.72 107.67 1389.72 100.15 1390.52 99.39 1390.52 103.91 1391.32 103.91 1391.32 97.9 1392.12 95.64 1392.12 91.13 1392.94 91.13 1392.94 94.88 1393.73 97.14 1393.73 100.15 1394.54 78.34 1394.54 38.5 1395.36 109.92 1395.36 214.42 1396.16 211.41 1396.16 135.48 1396.97 120.45 1396.97 74.59 1397.76 70.07 1397.76 66.32 1398.57 68.57 1398.57 74.59 1399.38 79.1 1399.38 84.35 1400.18 85.11 1400.18 102.4 1400.99 104.66 1400.99 112.17 1401.8 110.67 1401.8 99.39 1402.61 100.15 1402.61 97.9 1403.41 100.15 1403.41 91.13 1404.21 91.87 1404.21 84.35 1405.02 81.35 1405.02 76.09 1405.83 76.85 1405.83 82.86 1406.63 79.1 1406.63 70.07 1407.44 78.34 1407.44 115.19 1408.24 115.19 1408.24 103.91 1409.05 100.15 1409.05 93.38 1409.86 89.62 1409.86 85.11 1410.66 91.87 1410.66 100.15 1411.47 97.14 1411.47 103.91 1412.27 100.15 1412.27 109.92 1413.07 110.67 1413.07 114.43 1413.89 108.42 1413.89 103.91 1414.69 103.91 1414.69 101.65 1415.49 100.15 1415.49 103.91 1416.3 101.65 1416.3 100.15 1417.11 99.39 1417.11 88.87 1417.91 85.11 1417.91 97.14 1418.73 106.17 1418.73 78.34 1419.52 109.92 1419.52 120.45 1420.34 118.19 1420.34 107.67 1421.13 104.66 1421.13 93.38 1421.94 91.87 1421.94 86.61 1422.74 87.37 1422.74 91.87 1423.55 89.62 1423.55 94.88 1424.37 91.87 1424.37 106.17 1425.17 107.67 1425.17 110.67 1425.98 101.65 1425.98 97.9 1426.78 102.4 1426.78 104.66 1427.58 104.66 1427.58 100.15 1428.39 100.15 1428.39 91.87 1429.2 91.13 1429.2 86.61 1430.01 89.62 1430.01 94.88 1430.8 95.64 1430.8 93.38 1431.62 95.64 1431.62 103.91 1432.42 103.91 1432.42 91.87 1433.23 88.87 1433.23 82.86 1434.03 82.86 1434.03 87.37 1434.84 88.87 1434.84 93.38 1435.64 94.88 1435.64 87.37 1436.45 88.87 1436.45 106.17 1437.26 106.17 1437.26 107.67 1438.06 100.15 1438.06 94.88 1438.88 97.9 1438.88 102.4 1439.67 101.65 1439.67 104.66 1440.48 101.65 1440.48 97.14 1441.28 94.88 1441.28 101.65 1442.09 101.65 1442.09 103.91 1442.9 103.91 1442.9 104.66 1443.71 103.91 1443.71 110.67 1444.51 108.42 1444.51 101.65 1445.31 102.4 1445.31 99.39 1446.12 101.65 1446.12 97.14 1446.92 91.13 1446.92 80.6 1447.74 100.15 1447.74 112.17 1447.74 110.67 1447.74 118.94"/></g></g></svg>