<svg xmlns="http://www.w3.org/2000/svg" viewBox="0 0 717.18 197.5"><defs><style>.cls-1{fill:#fff;}.cls-2{fill:none;stroke-linecap:round;stroke-linejoin:round;stroke-width:3.52px;}.cls-2,.cls-3{stroke:#000;}.cls-3{stroke-miterlimit:10;stroke-width:1px;}</style></defs><g id="Layer_2" data-name="Layer 2"><g id="Layer_1-2" data-name="Layer 1"><rect class="cls-1" x="0.5" y="99.5" width="716" height="98" transform="translate(717 297) rotate(-180)"/><path d="M438.93,119.62c-3.42-5-2.57-9.46-2.6-15.55l-1.14-1.19c-3,1.46-2.13,6.06-3.66,9.32l-2.17-1.62V99.8l-2.47-.51c-1.66,11.29,2,23.43-1.85,34.16v-10c-5.18-7.42-2.49-15.79-4-24.86-.84,1.27-1.44,1.76-1.44,2.25.53,4.51-1.9,8.41-1.74,12.81-.31,11.45-.3,23.31-1.57,34.47v-29.3l-.65.11q-1.65-5.24-3.3-10.5c-4.67,3.17,1.59,21.15-3.12,24.3,0-9.49,1.34-18-4.69-25.7l-2.29,6.48-.42,0v40.24c-3.56.71-.66-22.23-1.54-26.23l-1.76-2.31V107.67l-2.24-1.9c-1.71,1-1.26,2.56-1.26,4,0,13.52,0,26.93,0,40.47-3.87-2.23-.83-11.64-1.78-15.94-.2-7.05-3-12.2-1.94-20.17a3.79,3.79,0,0,0-1.59,3.78c-.63,9.21-.54,18.83-1.39,27.84-.67-6.24-.25-12.32-.36-18.64l-2.47-1.83c-1.23-7.36.29-14.17-2.49-21.39-3.18,9.08.7,17.26-1.2,26.18-4.08-1.95.25-6.71-3.45-9.55a17.11,17.11,0,0,0-5.16,7.57l-2.51-2.83-1,3.17c-1.84-7.87-3.31-14.12-4.84-22.2-3.11,4.81-1,9.45-1.56,14.66l-2.2,2.34c-2.72-4-.64-9.5-1.26-14.22l-1.74-2.26v-4.14l-1.53-1.43c-5.07,7.93-1.13,20.32-3.59,29.19V113l-5.22-7.41c-.44,8-.87,15.8-1.32,23.83-1.5-2-1.5-2-1.73-5l-2.31-2.51c-.35-5.73.3-11.43-1.06-17.24-2.73,9.8.89,20.9-1.69,30.94-1.71-2-.66-4.77-.92-7.26l-1.55-2c-1.78-6.92-.22-13.92-1.89-20.72-2.79,1.08-1.2,3.53-2.26,5.11l-1.78.16c-1.16-2.5.58-5.69-2.08-7.9l-2.18.94-1.69,3.35c-.82-1-1.49-1.87-2.35-3-6.33,5.72-3.62,13-4.82,21.07-3.9-6.81-1.48-14.57-4.83-21.42-2.53,9.15.73,19-1.89,28-1.77-4.25-.33-9.28-.77-14.15-4.17-5.63-2.23-12.15-4-19.27-2.58,4-.49,7.9-2.27,12.23l-2.19-1.2c-.51-2.5-1-5-1.64-8-4.22,6.16-1.41,15.5-3.4,22.73-1.42-1.15-1.42-1.15-1.46-5.71-2.68-4-4.57-8.33-.73-13.39-.37-3.34-.8-7.16-1.22-11h-.49v6l-.39,0-3,8.46-.53-.07v30.14c-3.82-6.88-1.47-16.47-2.43-24.44-1.25-1.69-2.54-3.41-3.81-5.12-4.52,4.26-.18,21.39-3.38,26.23-1.74-9.76-.23-19.44-.73-29.56l-2.77,2.4c-.4-.56-.76-1.09-1.24-1.77H272.4c-1.68,4.07,1.05,9.24-1.53,13.07q-1.51-4.28-3-8.55l-3.49.74c-.21-1.51-.4-2.88-.6-4.36l-1.91-.17c-3.46,5.14-3.24,10.28-3.91,15.94-3-1.59-1.09-4.32-2.46-6.31l-2.18,1.91-1.59-1.33V106.94l-4.38-3.38V97.05l4.94-3.48c.34-1.31.82-3.1,1.32-5l2.48-1.8c.74-12.49-1.63-25.25,1.17-37.49,1.34,14.2,0,27.91,4.65,42l2.27-4.19L266.26,91l2.07-1.54V79.57l2.49-.5V90.68l1.37,1.9c3.57-1.82,2-7.87,5-10.45v4c4.11-2.9.71-22.2,1.77-28.37l1.43-.59c1.08,11.36-1,22.16,2.59,33.22l2.52.33c2.81-9.89.08-21,1.94-30.73l1,.18c.79,9.75-.89,19.69,1.57,30.44.65-4.44,1.15-7.89,1.81-12.4,2.85,4-.72,7.94,2.78,11.35.47-12.93.1-25.88.27-38.81,0-1.39-.52-3,1.7-4,1.61,12.11.56,24.18.83,36.35l1.38,1.45,3.34-4.7c.7-5.6-1.56-12.6,1.16-18,1.68,10.44-1.94,21.63,1.49,31.2l1.49-.71,1.94,2.51c2.47-10.75.89-22.69,1.82-34.08,4.73,8.85-2.75,22.48,5.52,30.09,1.91-9.52-2.16-20.27,2.12-29-.89,7.5,2.36,14.34,1.75,21.81.77,1.14,1.49,2.19,2.2,3.25,1.73-.84,1.3-2.45,1.31-3.86.64-11.9-1.51-25.16,1.33-36.18.61,11.21.38,22.38.48,33.63l2.4,2.59c.43,2.34.87,4.74,1.35,7.33L331,93.1v6.21c3.09,0,2.1-2.46,2.77-4l2.16-.61c3.58-12.08,1.11-25,2.24-37.41l1.48.23c1.11,6.9-2.53,16.22,2,21.84.57.35.66,1.49,1,2.26,4.25-3.8-1.18-21.53,2.62-25.91,3.51,4.08.39,21,1.4,27.73h4.43c0-10.06,0-19.94,0-30,0-1.39-.51-3,1.45-4.06.73,13.08.06,24.87.27,38.19l3.35-2.28c.11-2.85.39-5.62,2.8-7.49,0-10.5,0-20.9,0-31.3,0-1.39-.5-3,1.44-4.15,1,15.77.26,31.67,1.47,47.43l3.62,1.57c1.24,2-.45,4.46,1.77,6.17,2.14-1.42,1.45-3.67,1.18-5.4-1.39-6.64-.06-13.12.14-19.84.78-10.94-1.59-22.54,1-33,2.44,21.59-.91,43.62,2.82,65.42,2.63-3.09,1.22-5.8,1.59-9.32-.14-20.53.58-41.32,1.18-61.67,4.94,18-2.52,38,3.37,56,2.05-13-.84-25.7,1.48-38.68,4.71,7.81-.43,18.08,2.74,26.61,2.48,5-1.68,11.17,3.13,15.1,1.81-8.87-1.9-18.33,2.11-26.58,0,8.12,0,16.23,0,25l4.36-3.6c-.05-19,.56-38,1.33-56.8,3.42,15.55.22,33.06,1.33,49.27,0,1.52-.62,3.32,1.45,4.35,5.39-11.86,1.8-27.44,4.23-40.14,1.77.85,1.22,2.49,1.23,3.87,1.5,14.16-3.3,30.32,2.73,43.26h2.15c1.69-19.65-.71-39.77,1.47-59.63,2.86,10.57,1.25,22.89,1.52,34.05,0,4.34-2.35,9,1.1,12.81,1.53-3.61,1.49-7.66,4.3-10.36.06-13-.64-25.37,1.65-38.19,4.23,20.91-2.88,44.22,1.5,64.73,3-2.39-.47-4.91,4.83-7.81.05-21.32-.43-42.61.84-63.82h.84c.06,22,1,43.42,1.13,65.67,4.21,1,4.39,4.3,4.34,8.72l3-.35c.23-1.52.4-2.65.59-3.94l3-1.32c2.21-21.16,0-42.19,1.2-63.39,5.49,18.36,1.14,38.78,2.51,57.93,0,1.64-.69,3.6,1.32,4.88l2.83-2.48h4.92c.75-1.21,1.47-2.37,2.47-4,1.42,3,.07,5.9,1.38,8.91,1.5-1.86,1.27-2.8,1.48-5.09L461,93.6l3.05-3.91,2.21,3.22,4.16-.7,3.07-4c1.93.6,2.37,2.4,2.92,4.81,1.67-2,1.2-2.69,1.37-5,3.19,0,3.16,4.28,6.18,4.22,1.8-1,3.29-3.8,5.57-3.34.39,1.38.76,2.71,1.08,3.87l9.21-1.14,1.68-3.8c.57.77.93,1.23,1.34,1.79l2.61-.91c.2,1.56.38,2.95.58,4.55,2.46-.44,4.66-.84,6.41-2.67l3.3,1L517,88.2l1.85,3.69,1.46-2.12,2.32.84,2.53-2,6.45,4.85c.33-1.39.61-2.54,1-4.12l3.76,3.06,2.41-4c2.39,2.47,6.21,2.24,9.16,3.86,2.92-.81.95-3.69,2.39-5.32l5.37,6.31,6.86-3.4,1.63,2.21,4.8,1.11V87l2.77.92,2-.83c2.12,1.74,1.37,3.09,1.75,6.27,2-2.48,1.71-3.52,2.55-6.24,6.57.39,4.28,6.11,5.52,10.62,3.65-1,3.06-4.55,4.31-6.92l.79.45c4.71-20.35.8-44.86,2.62-66.49l1.51.21q0,32.87,0,65.75c0,1.46-.68,3.28,1.57,4.18,3.92-5.54,3.19-10.69,4.9-17.31.63,4.07,1.1,7.16,1.73,11.18,1.05-1.61,1.63-2.5,2.37-3.62l2.08,4,2.91-2h3.4l2,2.72,1.93-3c1.51,1.67-.13,3.92,1.85,5.12,2.8,0,3.76-3.2,6.22-4.17,1.64,2.84-.76,6.33,2,9,3.71-2.73,2.66-7.73,6.29-11,.68-23.19,1.91-46.49.34-69.75h2.31V89l1.59,1.68,2.27-1,1.74,2.5,2.85.15L645,89.09l2.89-.43c.72-4.63-.34-9.28,1.4-13.88,2.26,4.67-1.47,11.66,1.86,15.64l1.72-.81,2.57,3.54h4.1c1.81-5.41,5-10.31,4.32-17,2.77,4.06,1.15,8.14,2.41,12.48,1.49-2.31,1.41-2.74,2.17-5.39l2.19,4.5c.58-4.49,1.06-8.13,1.53-11.76,1.49,1.5,1.49,1.5,1.49,10.24.37,1.08,1.67,3.44,2.59,3.85,3.42,1.81,2-2,4-2.15l.63,4.2,1.2,1.14,2.63-1,.41,4,2.5,3.3,1.73-1.3V81.33l2.11-.43,1,1.65c3.52-18.48.26-38.85,1.39-57.95,0-1.93-.5-3.87,1.73-4.9.42,23.16-.82,46.47.61,69.57l6-.53,1.94-1.59,3.68,4.25h4.72c3.09,2.79,4.32,15,3.25,19.06-3.28-4.19-1.94-8.74-3-12.75-3.36.71-3,4.3-6.38,5.05l-2.77-3.6-3.6,3-1.88-2c-2.28,12.31-1.29,26.33-1.84,39.18-2.07-4.28,0-13.21-.73-18.95-2.89-2.82-2.89-2.82-4-9.86-1.23,1.37-1.52,1.69-2.78,3.14-2.25-4.48-3-9-6.82-12.71l-7,3.45L673.71,109c-1.36-3.16-.45-7-4.9-7.89-.76,2.61-1.48,5-2.25,7.64l-3.22,1.4c-1.31-.58-1.87-2.2-2.35-6-2.13-1.18-3.45.62-5.17,1.75l-3.33-4a16.56,16.56,0,0,1-5.65,7.7L645.45,103h-3l-1.41,4.63c-2.56-2.58-3.36-5.34-4.51-8.27-2.82,13.8,1.73,29.47-2,42.92-.48-7.57-.42-15.09-.46-22.81l-2.66-2v-7.22l-1.36-1.23-3,1.08L624.6,108l-.33-4.34L619,102.15l-1.64.85-2-1.59-1.52.63c-2.08-1.27-3.83-3.32-6.83-2.29-.32,2,.28,4.35-2.14,5.9l-1.14-2.73c-4.69,1.85-1.16,7-4.67,9.8v-9.65l-3-.16c-4.68,7.52-1,16.35-3.09,24.73.72,2.17,1.34,4.91-.85,7.58a12.27,12.27,0,0,0-2.9-8.39c.15-8.11-.56-15.59-.92-23.93-2.59,1.53-1.11,3.88-2,5.89l-3.11,1.38c-2.87-2.83-1.28-6.26-2-9.43-1.23-2.65-4.47-.17-6-2.36l-2.28,2.9-3.45-.94-1.85,6.82a5.66,5.66,0,0,1-1.18-4.61l-2.61-1.33L560.1,103l-2.37-.79c-2.16.79-4.49,1.37-6.82.1l-1.79,1.49-1.91-2.72c-4.07,3.91-4-.06-6.46,1.39l-4.32-1.53-3.33,3.14-2.18-2.79-4.06,2.56a15,15,0,0,1-6.61-.87c-.26,1.44-.53,2.87-.9,4.9l-2.39-3-1.08.39-3.64-3.35-3.72,2.18-3.83-3.2-2.06,5c-.29-1.58-.5-2.66-.77-4.13L496,105.6c-2.12-1.08-2.06-4.17-5-4.5l-1.9,1.86c-2.53-.71-5.59-.35-8.32.1l-2.59-3.53c-4.19-.39-4,3.7-6.12,6.48l-2-4.66c-1.9-.75-2.59,1.15-4.25,1.7L461,101.91l-2.9,2.12-2.36-3-6.83,2.08-5.37-3.66-3,4.14v47.53C436.71,141.37,439.93,130.12,438.93,119.62Z"/><path d="M84.21,91.73l2.82.93,2.12,5c4.75-2.82,4.33-7.25,4.32-11.49,2-1.85,2-1.85,4.13-.44.77,2.43-.27,5.11.76,7.69,2.86-1.39,1.71-4.12,2.66-6.92l3.49,7.72c1.1-3.56-.68-7.41,1.6-10.94l2.23,1.5v4.39l2.36,2.47c.57-3.38,1.09-6.52,1.62-9.67,2.29,3.26.41,7.15,2,10.7,2.42-1.7-.21-5,2.54-6.15,1.19,1.71-.67,4.21,1.72,5.77l.72-2.16c1.87-1.12,2.59.75,3.89,1.41l2-.87,2.07,2.17c1.12-3.84-.19-7.51,1.24-11.71,1.77,3.15.52,5.84,1.28,8.43l2.8.41L134,92.21h3.88c2-2.41,3.22-5.59,5.07-8.5.7.89,1.33,1.71,2.22,2.86.94-1,1.73-1.83,2.52-2.65,1.78.79.8,2.63,1.6,4.13l1.79.9c2.48-.64,2.87-2.58,3.62-5a28.56,28.56,0,0,1,4.86,15.33l.67.16c1.55-1.38.57-3.86,2.05-5.07l2,.64c1-14.4.27-29.18,1.66-43.69,1.38,10.44,2.79,20.89,2.24,31.55l4.28,3.85,2-2.55,4.74,10.15,2.66.87,1.83,2.66,2.21-3.74c.19-12.14-.6-25,1.82-36.37,1.93,5.13.32,10.07.82,15.46.73,1.23,1.55,2.59,2.55,4.26v3.83c4.28,1.87,3.29,6.39,4.66,9.72h3l0,.43,2.29-.93c2.25,1.64,2.07,5,5.12,6.25,1.44-1.93,3-3.93,4.26-5.68,0-16.25,0-32.07.12-47.88l1.17-.11C213.6,58.7,210,74.8,214.18,90l5.74-3.34c.54-1.61,1.2-3.59,2-5.9l2.16,2c.51,2,1,4,1.52,6,1,.92,2,1.9,3.55,3.34l1.08-5.19,2.11,1.24v5.48l4.18,1.49,3.77-1.94c0-12.93,0-25.79.08-38.71,0-1.38-.55-3,1.36-4.19,1.33,12.31-.82,25.12,2.51,37.13l2.81,1c.3,1.74.6,3.42.92,5.3-1.3,2.22-1.83,5.1-4,7.22-2.9,8.16.75,18.09-1.72,26.47-.3-4.57-3.3-9.76-2.88-15.07-3.78-2.83-6.43-4-7-10.51-.23-1.72-.23-1.72-1.9-3.37-.42.59-.79,1.14-1.27,1.81h-2.43l-1.4-1.92-1.68,1.46c-.1,2-.19,3.84-.3,5.87l-6.06-2.78-4.23,4.67v22.18l-1.58.6c-.38-4.69.28-8.95-2.89-12.87v-9.2l-2.88.75c-1-1.39-2-2.78-3.21-4.54l-3.74,2.07a19,19,0,0,0-5.54-5.74c-1,3.84-.07,7.48-.87,11.74-1.22-1.56-1.15-1.76-2.34-2.52-1.77,6.41-.19,14.4-.81,21.35,0,1.4.47,3-1.2,3.94-3.4-5.62-.34-18.42-1.33-25.69-2.44-1.36-3.16.72-4.25,1.67-.57,1.6.49,3.47-1.57,4.73-2.4-4.87.36-13.93-6.59-15.26-3.16,4.76-.81,10.84-1.73,16.09-4-2.83-.72-14.59-1.73-19.65-1.42-.67-1.52.07-2.61.85-.13,9,.27,16.85-.26,26.1-2.74-3.08-.25-6.34-2.58-8.62l-1.6.6L160,113.62l-2.8-10.25-3.55-.64-2.91-2.56-4.93.77-1.67-.77a7.68,7.68,0,0,1-4.77,3.61c-.52,4.5.24,8.86-.61,14.15-3.81-4.8,1.13-11.34-2.68-15.71a3.4,3.4,0,0,0-2.1.73l-2.39-1c-.73,2.46-1.44,4.81-2.37,7.92l-3.8-6.95-2.15.91L120.76,102c-1.79,1-.18,3.3-3.14,3.53q-.41-1.69-.81-3.42c-1.28,2.27-3.85,3.71-3.56,6.67-.6-2-1.2-3.93-2-6.58-2,2.82-.44,5.5-1.68,7.91l-1.9-1.3c-.32-3.23.16-6.29-.32-9.57-3,1.63-2.18,5.15-6.54,4.76l-1.94,2.54c-2.16-1-2.15-3.41-3.59-5.73l-1.54,3.12a10.3,10.3,0,0,0-6.12,5.52l-5-7.73c-1.41,4.33,0,8.57-1.11,13.17-2.89-3.62-.14-7.83-2-12-2.23,1.52-4.08,1-5.81-.09-2.12,1-4.15,1.77-6.22.35-2.09,1.06-.78,3.22-1.64,4.92-3-1.82.06-5.46-2.26-7.3-6.29,2.18-5.25,5.36-12.6.31-1.29,3-.29,6-.57,9.18l-2.23,2.36c-2.13-2.41-2.25-5.23-2.21-8.27l-2-1.73-2.72,5.31c-.87-.21-1.17-.46-1-1.67.12-1-.88-2.21-1.53-3.64l-2.24,1.52c-.4,3.53.24,6.89-.6,11.16-2.44-3.19-.39-5.55-2.26-8.76l-1.52.68-2.34-4-2.72-1.31-4.09,2-5.54-.65-1.67,1.9c-.4-1.75-.68-3-.91-3.94-1.47-1.29-2.6-1.16-3.88.29-.1,2-.22,4.29-.37,7.17-2.58-1.9-.76-4.28-4.2-5.88-1.65,1.84-1.93,2.46-3.07,5.33-.5-7.56-4.44-14.37-.77-21l1.56,5c2.48,1,3.06-1.72,4.75-2.36,2.85-.1,1.06,4.29,4.27,4.22.3-2.71,2.41-4.2,4.24-5.85,2.28,1.11.82,3.32,1.9,5.11L29.82,90c2.14,1.51.75,3.69,1.51,5.71l2.35.19c-.89-3.09-1.62-5.84.29-8.78a4.05,4.05,0,0,0,1.27,1.69c2.11-1,2.38-4.06,4.06-6.5,2.53,4.3,1.92,8.67,2.71,13.17,4.73-2.29,1.48-4.9,4.34-7.21l1,.37c.44-1.9.88-3.82,1.57-6.77,1.08,2.73,1.78,4.49,2.62,6.59l3.12-2.25c2.46,1,2.13,3.6,3.51,5.62l2.47-4.29c1.63,1.9,3,3.46,4.53,5.25.71-.85,1.22-1.45,1.91-2.25l4.58,2.24c1.09-2.28.55-5,3.13-6.49l2.79.55,1.5-3.14c2.07.21,2,1.88,2.13,3.28l1.34-.47C84.59,87.58,83.4,89.69,84.21,91.73Z"/><path class="cls-2" d="M632.79,88.87c2.52-23.56,1.34-47.9.87-71.64"/><path class="cls-2" d="M590.37,93.27c3.09-22.2.75-45.56,1.54-68.13"/><path class="cls-2" d="M414.55,75.69c3.23-14.75,2-30.29,2-45.28"/><path class="cls-2" d="M693,84.92c5-20.53-.36-43.73,2.2-65.06"/><path class="cls-2" d="M367.74,101.62l2.77-4.43c-3.21-19.09,0-37.91-1-57.11"/><path class="cls-2" d="M377.41,92c-2.2-2.23-2.24-5.08-2.19-7.91.41-16.7.85-33.42,0-50.11"/><path class="cls-2" d="M395.87,88c-6-17.61.26-38.21-2.2-56.7"/><path class="cls-2" d="M401.15,153.49c1.09-14.6-2.06-29.61,0-44"/><path class="cls-2" d="M399.61,83.6c1.75-12.9,1.42-26.19,1.1-39.12"/><path class="cls-2" d="M440.26,150c-.5-15.73-.85-31.43-1.75-47"/><path class="cls-2" d="M359.17,81.84c2.54-12.68-.85-26.21,1.1-39.12"/><path class="cls-2" d="M213.9,94.15c-5.5-16-1.51-33.84-2.64-50.55"/><path class="cls-2" d="M258.29,87.55C256.8,75,256.91,62.37,257,49.75"/><path class="cls-2" d="M423.56,89.31c2.85-21.56-.69-44.09.88-65.93"/><path class="cls-2" d="M409.94,80.52c-3.35-3.93-1-9.43-1.35-14.06.07-11.43-.89-22.88,0-34.29"/><path class="cls-2" d="M325.1,85.8c-2.64-12.21-.82-25.2-1.31-37.8"/><path class="cls-2" d="M381.15,89.75c-.32-12.75-.92-25.46-.66-38.24"/><path class="cls-2" d="M416.53,147.33c-.21-12.52,1.24-25-.88-37.36"/><path class="cls-2" d="M388.4,145.57c.12-9.5.15-18.75-1.32-28.13"/><path class="cls-2" d="M439.83,95.47c-1.45-21.69.73-44-1.32-65.94"/><path class="cls-2" d="M242.47,127.11c-.88-5.8-.16-12.09-2.2-17.58"/><path class="cls-2" d="M242.47,88.87c-1.57-12.56-1.45-25.6-.88-38.24"/><path class="cls-2" d="M298.29,87.55c-5.31-12-.75-27.32-2.2-40.43"/><path class="cls-2" d="M280.27,87.12q-.22-14.73-.44-29.45"/><path class="cls-2" d="M180.93,115.69c.69-2.79-.69-5.4,1.32-7.92"/><path class="cls-2" d="M166.87,85.36c-1-11.23-.17-22.58-.88-33.85"/><path class="cls-2" d="M394.55,150c-2.29-12.43,1.73-27.15-3.07-38.68"/><path class="cls-2" d="M288.62,137.66c-.92-8.94,1.29-18.78-1.76-27.25"/><path class="cls-2" d="M634.54,142.06c1.48-11.32,0-22.28-1.32-33.41"/><path class="cls-2" d="M425.32,133.27c1.46-8.25-1.2-16.33-1.32-24.62"/><path class="cls-2" d="M212.14,129.75c.29-7.7-1.58-15.11-1.76-22.86"/><path class="cls-2" d="M188,77.45c-.74-6.28-.37-12.6-.44-18.91"/><path class="cls-2" d="M351,84.92c2.64-11.09-.46-23.65,1.32-35.17"/><path class="cls-2" d="M592.35,135c.47-2.3,1.13-4.54-.82-6.66-1.67-5.53,1-12.42-.5-18"/><path class="cls-2" d="M311.26,89.75c-1.3-9.15-.42-18.47-.66-27.69"/><path class="cls-2" d="M339.61,135c-.4-10-1.07-19.94-1.76-29.89"/><path class="cls-2" d="M696.08,139.42c0-8.33.56-16.64-1.32-24.61"/><path class="cls-2" d="M288.62,93.27c-2.15-10.79-.25-22-.88-33"/><path class="cls-2" d="M346.2,128.87c-.23-3.91-2.3-7.47-1.32-11.43"/><path class="cls-2" d="M311.48,131.51c.61-8.77-1.19-17.2-1.32-25.93"/><path class="cls-2" d="M353.23,129.75c-.7-7.21,1.59-15.24-1.31-22"/><path class="cls-2" d="M409.5,132.39c.82-7.68.95-15.75-.88-23.3"/><path class="cls-2" d="M188,135c.14-9.09-.43-18.21.44-27.26"/><path class="cls-2" d="M318.07,86.24c-.52-7.9-1.8-16.17-.88-24.18"/><path class="cls-2" d="M301.37,85.36c2.23-7.26,1-15,1.76-22.42"/><path class="cls-2" d="M279.83,135c1-9.89-2.58-21.17,2.64-29.45"/><path class="cls-2" d="M342.25,85.8c-6.05-8-2.74-18.84-3.52-28.13"/><path class="cls-2" d="M318.07,124.48c-.47-6.15-2.33-12.26-.44-18.46"/><path class="cls-2" d="M388,92.39c-1.75-8.35-1-17.42-.44-25.93"/><path class="cls-2" d="M361.15,122.72V106.46"/><path class="cls-2" d="M648.61,90.63q.23-7.69.44-15.38"/><path class="cls-2" d="M715.42,109.53c-1.33-4.53.68-11.59-3.52-14.5"/><path class="cls-2" d="M271,119.2a23.74,23.74,0,0,0-1.76-9.67"/><path class="cls-2" d="M138.3,116.56q.21-7.68.44-15.38"/><path class="cls-2" d="M171.7,115.25c.34-6.2-1.32-13.11,2.64-18.46"/><path class="cls-2" d="M268.84,92c1.36-3.68.81-7.58.88-11.43"/><path class="cls-2" d="M81.16,113.93c0-5.38.32-10.76-1.76-15.83"/><path class="cls-2" d="M671,92c2.07-4.91,1.76-10.59,1.31-15.82"/><path class="cls-2" d="M665.31,92.83c-3.43-4.69.56-10.55-.88-15.82"/><path class="cls-2" d="M431,111.29c0-3.25-.39-6.54.88-9.67"/><path class="cls-2" d="M599.38,112.17c.31-3.52.91-7,1.32-10.55"/><path class="cls-2" d="M304,110.41c-1.5-4.27.06-9.37-3.08-13.19"/><path class="cls-2" d="M297,124.48c-.51-3.5-.28-7.19-1.32-10.55"/><path class="cls-2" d="M295.65,113.49c.42-5.59.63-11.22,3.52-16.27"/><path class="cls-2" d="M48.19,112.17c.38-4.67.22-9.26-1.76-13.63"/><path class="cls-2" d="M111.05,95.91c1.63-4.41,1.78-9,1.75-13.63"/><path class="cls-2" d="M35.44,113.93c0-3.75.52-7.87-2.22-10.71l.47-2.48"/><path class="cls-2" d="M600.7,91.51c-2.32-4.07-1.71-8.35-1.32-12.75"/><path class="cls-2" d="M646.85,109.53l1.76-5.27"/><path class="cls-2" d="M381.37,129.75c-.07-4,.59-8.19-2.2-11.43"/><path class="cls-2" d="M673.22,108.65q.45-3.29.88-6.59"/><path class="cls-2" d="M292.14,90.63a41.69,41.69,0,0,1,0-11"/><path class="cls-2" d="M113.24,108.65v-7.47"/><path class="cls-2" d="M96.1,96.35c-1.62-3.3-.42-7-.44-10.55"/><path class="cls-2" d="M10,107.77c.42-2.37-.68-4.43-1.32-6.59"/><path class="cls-2" d="M116.76,93.71v-7"/><path class="cls-2" d="M669.27,88.87c0-1.62-1.66-3.1-.44-4.83"/><path class="cls-2" d="M167.31,122.72c-.27-3.25.95-7.18-1.76-9.67"/><path class="cls-2" d="M101.82,93.71c0-2.1.06-4.2-.88-6.16"/><path class="cls-2" d="M551.47,92.39c-.29-1.61-.59-3.22-.88-4.84"/><path class="cls-2" d="M109.29,109.53c-.45-3-1.43-6.06.88-8.79"/><path class="cls-2" d="M129.51,91.07c-1.9-2.36-.45-5.94-.88-8.79"/><path class="cls-2" d="M640.7,106.89c-.05-3.14-1.2-5.87,1.32-8.35"/><path class="cls-2" d="M567.29,106c.71-2.92-.06-5.59-.88-8.36"/><path class="cls-2" d="M65.77,107.77c-1.28-2.92.23-5.38,1.32-7.91"/><path class="cls-2" d="M325.1,106.89c.35-2.49-.62-4.73-1.31-7"/><path class="cls-2" d="M257.41,122.72c-.33-2.68,1-5.81-1.31-7.91"/><path class="cls-2" d="M41.16,106.46v-7"/><path class="cls-2" d="M3.36,106.89c.65-2.44,0-5.26,2.2-7"/><path class="cls-2" d="M3.8,94.59C2,92.5,2.22,90,2.48,87.55"/><path class="cls-2" d="M457.41,96.35a25.17,25.17,0,0,0-1.76-7"/><path class="cls-2" d="M332.14,109.53c-.54-2.31.94-4.35.88-6.59"/><path class="cls-2" d="M700,101.62V95.47"/><path class="cls-2" d="M199,106q.45-3.09.88-6.16"/><path class="cls-2" d="M229.72,94.15a6.6,6.6,0,0,0,.88-6.6"/><path class="cls-2" d="M172.58,91.51a15.63,15.63,0,0,0,1.76-6.59"/><path class="cls-2" d="M702.67,93.71c1.71-1.78,1.27-4,1.32-6.16"/><path class="cls-2" d="M656.08,105.14,657,99"/><path class="cls-2" d="M502.68,105.14c1.06-2.14-.07-4.12-.44-6.16"/><path class="cls-2" d="M706.63,102.5c.72-2,.39-4.1.44-6.15"/><path class="cls-2" d="M292.58,91.51l5.71,1.32"/><path class="cls-2" d="M277.19,88c-1.42-1.8-.29-3.81-.44-5.71"/><path class="cls-2" d="M146.21,89.31c1.15-2.41,1.52-3.89,1.32-5.27"/><path class="cls-2" d="M450.37,91.07c1.64-1.41,1.46-3.42,1.76-5.27"/><path class="cls-2" d="M57.64,101.62,57,98.1"/><path class="cls-2" d="M449.71,100.74c.08-1.17.15-2.34.22-3.52"/><path class="cls-2" d="M369.94,127.11c.13-1.17-.93-2.49.44-3.51"/><rect class="cls-3" x="0.5" y="0.5" width="716" height="98" transform="translate(717 99) rotate(-180)"/></g></g></svg>