<svg xmlns="http://www.w3.org/2000/svg" viewBox="0 0 407.6 79.5"><defs><style>.cls-1{fill:none;stroke:#000;stroke-linecap:round;stroke-linejoin:round;stroke-width:2px;}</style></defs><g id="Layer_2" data-name="Layer 2"><g id="Layer_1-2" data-name="Layer 1"><path d="M158.26,20.26c2,2.85,1.46,5.39,1.48,8.84l.65.68c1.72-.83,1.21-3.44,2.08-5.3l1.23.93v6.13l1.41.28c.94-6.41-1.15-13.32,1-19.42v5.7c3,4.22,1.42,9,2.27,14.14.48-.72.82-1,.82-1.28-.3-2.56,1.08-4.78,1-7.29.17-6.51.17-13.25.89-19.6V20.74l.37-.07c.63,2,1.25,4,1.88,6,2.65-1.8-.91-12,1.77-13.82,0,5.4-.76,10.22,2.67,14.62l1.3-3.68.24,0V.89c2-.4.37,12.64.88,14.92l1,1.31v9.94l1.28,1.08c1-.55.72-1.46.72-2.26,0-7.69,0-15.32,0-23,2.21,1.27.47,6.62,1,9.07.12,4,1.71,6.94,1.11,11.47a2.14,2.14,0,0,0,.9-2.15c.36-5.24.31-10.71.79-15.83.38,3.55.14,7,.21,10.6l1.41,1c.69,4.18-.17,8.06,1.41,12.16,1.81-5.16-.4-9.81.68-14.88,2.32,1.1-.14,3.81,2,5.43a9.72,9.72,0,0,0,2.94-4.31l1.43,1.61.56-1.8c1.05,4.47,1.88,8,2.75,12.63,1.77-2.74.57-5.38.89-8.34l1.25-1.33c1.55,2.3.37,5.4.72,8.09l1,1.28V30l.87.82c2.88-4.51.64-11.56,2-16.61V24l3,4.21c.25-4.55.5-9,.75-13.55.85,1.13.85,1.13,1,2.86L213.16,19c.19,3.26-.17,6.5.6,9.8,1.55-5.57-.5-11.88,1-17.6,1,1.15.38,2.72.52,4.13l.88,1.12c1,3.94.13,7.92,1.08,11.79,1.59-.61.68-2,1.29-2.91l1-.09c.66,1.42-.33,3.24,1.18,4.49l1.24-.53,1-1.91L224.22,29c3.6-3.25,2.06-7.39,2.74-12,2.22,3.87.84,8.29,2.75,12.18,1.44-5.2-.42-10.8,1.08-15.94,1,2.42.18,5.28.43,8.05,2.37,3.2,1.27,6.91,2.3,11,1.47-2.27.28-4.5,1.29-7l1.25.68c.29,1.42.58,2.85.93,4.53,2.4-3.5.8-8.81,1.93-12.92.81.65.81.65.83,3.25,1.52,2.27,2.6,4.74.42,7.61l.69,6.24h.28V31.22l.22,0q.85-2.4,1.69-4.81l.3,0V9.33c2.18,3.92.84,9.37,1.38,13.9l2.17,2.91c2.58-2.42.1-12.16,1.92-14.92,1,5.55.13,11.06.42,16.82l1.58-1.37.7,1H253c1-2.32-.6-5.26.87-7.43l1.71,4.86,2-.42c.12.86.23,1.64.35,2.48l1.08.09c2-2.92,1.84-5.84,2.23-9.07,1.7.91.62,2.46,1.39,3.6l1.24-1.09.91.76v6l2.49,1.93v3.7l-2.81,2-.75,2.82-1.41,1c-.42,7.1.93,14.36-.67,21.32-.76-8.07,0-15.87-2.64-23.9-.54,1-.88,1.62-1.29,2.38l-1.19-2.18-1.18.87V43l-1.42.29V36.72l-.77-1.08c-2,1-1.16,4.48-2.84,5.94V39.33c-2.33,1.65-.4,12.62-1,16.13l-.82.34c-.61-6.46.59-12.6-1.47-18.9l-1.43-.18c-1.6,5.62,0,11.93-1.11,17.48l-.57-.11c-.45-5.54.51-11.19-.89-17.31-.37,2.53-.66,4.49-1,7-1.63-2.26.41-4.52-1.59-6.45-.26,7.35,0,14.71-.15,22.07,0,.79.3,1.72-1,2.29-.92-6.89-.32-13.76-.48-20.68l-.78-.82-1.9,2.67c-.4,3.18.89,7.17-.66,10.22-1-5.94,1.1-12.31-.85-17.75l-.84.4-1.11-1.42c-1.41,6.11-.51,12.9-1,19.38-2.68-5,1.57-12.79-3.13-17.11-1.09,5.41,1.22,11.52-1.21,16.49.51-4.26-1.34-8.16-1-12.4L225,38.87c-1,.47-.74,1.39-.74,2.19-.37,6.77.86,14.32-.76,20.58-.35-6.37-.21-12.73-.27-19.13L221.85,41c-.24-1.33-.49-2.69-.76-4.17l-1.43-1.52V31.82c-1.75,0-1.19,1.39-1.57,2.26l-1.23.34c-2,6.87-.63,14.23-1.27,21.28l-.85-.13c-.63-3.92,1.44-9.22-1.14-12.42-.33-.2-.38-.85-.56-1.29-2.41,2.16.67,12.25-1.48,14.74-2-2.32-.23-12-.8-15.77h-2.52c0,5.72,0,11.34,0,17,0,.79.29,1.71-.83,2.32-.41-7.45,0-14.15-.15-21.73l-1.9,1.3c-.06,1.62-.22,3.2-1.6,4.26,0,6,0,11.89,0,17.8,0,.79.29,1.71-.81,2.36-.55-9-.16-18-.84-27L200,36.31c-.7-1.15.26-2.53-1-3.51-1.21.81-.82,2.09-.67,3.07.79,3.78,0,7.47-.08,11.29-.44,6.22.91,12.82-.54,18.78-1.39-12.29.52-24.81-1.61-37.21-1.5,1.75-.69,3.3-.9,5.3.08,11.67-.33,23.5-.68,35.07-2.8-10.27,1.44-21.63-1.91-31.83-1.17,7.39.48,14.61-.84,22-2.68-4.44.24-10.29-1.56-15.14-1.41-2.87,1-6.35-1.78-8.58-1,5,1.08,10.42-1.2,15.11,0-4.61,0-9.23,0-14.2l-2.47,2c0,10.79-.32,21.62-.76,32.31-1.94-8.84-.13-18.81-.75-28,0-.86.35-1.89-.83-2.47-3.07,6.75-1,15.61-2.41,22.83-1-.48-.69-1.41-.7-2.2-.85-8,1.88-17.25-1.55-24.6h-1.22c-1,11.17.4,22.61-.84,33.91-1.62-6-.71-13-.86-19.37,0-2.46,1.33-5.11-.63-7.28-.87,2-.84,4.36-2.45,5.89,0,7.37.37,14.43-.93,21.72-2.41-11.89,1.64-25.15-.85-36.81-1.71,1.36.26,2.79-2.75,4.44,0,12.12.24,24.23-.48,36.3h-.48c0-12.55-.59-24.7-.64-37.36-2.4-.54-2.5-2.44-2.47-5l-1.72.19c-.13.87-.23,1.51-.34,2.25l-1.71.75c-1.27,12,0,24-.69,36-3.12-10.44-.65-22-1.43-32.95,0-.93.4-2-.75-2.77l-1.6,1.41H152.1L150.7,40c-.8-1.71,0-3.36-.78-5.07-.86,1.06-.73,1.59-.85,2.9l-3.36-2.81L144,37.29l-1.25-1.84-2.37.4L138.6,38.1c-1.1-.34-1.35-1.36-1.66-2.73-.95,1.11-.68,1.53-.78,2.82-1.81,0-1.79-2.44-3.51-2.4-1,.58-1.87,2.16-3.17,1.9l-.62-2.2-5.24.65-1,2.16-.76-1-1.48.52-.34-2.59a6,6,0,0,0-3.64,1.52l-1.88-.56-.73,2-1-2.09-.83,1.2-1.32-.48-1.44,1.12-3.67-2.76L105,37.47l-2.14-1.74L101.45,38c-1.36-1.41-3.53-1.28-5.21-2.2-1.66.46-.54,2.1-1.36,3l-3-3.59-3.91,1.93L87,35.9l-2.73-.63v3.56l-1.58-.53-1.12.47c-1.21-1-.78-1.75-1-3.56-1.14,1.41-1,2-1.45,3.55-3.74-.22-2.44-3.48-3.14-6-2.08.58-1.74,2.59-2.45,3.93l-.45-.25C70.4,48,72.62,61.91,71.59,74.22l-.86-.13q0-18.68,0-37.39c0-.83.38-1.86-.9-2.38C67.6,37.47,68,40.4,67.05,44.16l-1-6.35-1.35,2.06-1.18-2.31-1.65,1.13H59.94l-1.16-1.55-1.1,1.73c-.85-.95.08-2.23-1-2.92-1.59,0-2.14,1.83-3.53,2.37-.94-1.61.43-3.59-1.17-5.13-2.11,1.56-1.52,4.4-3.58,6.27-.39,13.19-1.09,26.44-.2,39.67H46.84V37.68l-.9-1-1.29.54-1-1.42L42,35.75l-1,1.88-1.65.24c-.4,2.64.2,5.28-.79,7.9-1.29-2.66.84-6.63-1.06-8.9l-1,.46-1.47-2H32.76c-1,3.07-2.83,5.86-2.46,9.64-1.57-2.3-.65-4.63-1.37-7.09a7.9,7.9,0,0,0-1.23,3.06l-1.25-2.56-.87,6.69c-.85-.85-.85-.85-.85-5.82a4.8,4.8,0,0,0-1.47-2.19c-1.94-1-1.14,1.14-2.3,1.22l-.35-2.39-.69-.65-1.5.6-.23-2.29-1.42-1.87-1,.74V42l-1.2.24L14,41.35c-2,10.51-.15,22.1-.79,33,0,1.09.28,2.2-1,2.79-.23-13.18.47-26.44-.35-39.57l-3.38.3-1.11.9L5.31,36.31H2.63C.87,34.72.17,27.77.78,25.47c1.87,2.38,1.1,5,1.68,7.25,1.91-.4,1.68-2.44,3.63-2.87l1.58,2,2-1.74,1.07,1.14c1.3-7,.74-15,1.05-22.28,1.18,2.43,0,7.51.42,10.78,1.64,1.6,1.64,1.6,2.28,5.6l1.58-1.78c1.28,2.54,1.71,5.12,3.88,7.23l4-2,.76-2.55c.78,1.8.26,4,2.79,4.49l1.28-4.35,1.83-.79c.74.33,1.07,1.25,1.34,3.4,1.21.67,2-.35,2.94-1l1.89,2.25A9.49,9.49,0,0,1,40,26l.79,3.74h1.68l.79-2.63a12,12,0,0,1,2.57,4.7c1.6-7.84-1-16.76,1.14-24.41.27,4.31.23,8.59.26,13l1.51,1.12v4.11l.77.7,1.73-.61,1.41,1.24.18,2.47,3,.84.94-.49,1.14.91.86-.36C60,31,61,32.15,62.68,31.56c.18-1.12-.16-2.47,1.22-3.35l.65,1.55c2.66-1.05.66-4,2.66-5.58v5.5l1.68.09c2.66-4.28.56-9.3,1.75-14.07a4.18,4.18,0,0,1,.49-4.31,7,7,0,0,0,1.65,4.77c-.09,4.61.32,8.87.52,13.61,1.48-.87.63-2.2,1.14-3.35l1.77-.79c1.64,1.62.73,3.57,1.12,5.37.7,1.51,2.54.1,3.42,1.35l1.3-1.66,2,.54,1-3.88A3.23,3.23,0,0,1,85.73,30l1.48.76,2.13-1,1.35.45a4.5,4.5,0,0,1,3.88-.06l1-.85,1.09,1.55c2.32-2.23,2.25,0,3.68-.79l2.45.87,1.9-1.79,1.24,1.59,2.31-1.46a8.52,8.52,0,0,1,3.76.5l.51-2.79,1.36,1.69.61-.22,2.07,1.91,2.12-1.25,2.18,1.83L122,28.07l.43,2.36,3.34-2.19c1.21.61,1.17,2.37,2.85,2.55l1.09-1.05a11.45,11.45,0,0,0,4.73-.06l1.47,2c2.38.22,2.27-2.11,3.48-3.69l1.11,2.66c1.09.42,1.48-.66,2.42-1l2.75.65,1.65-1.21,1.34,1.68,3.89-1.18,3,2.07,1.7-2.35v-27C159.52,7.89,157.69,14.29,158.26,20.26Z"/><path d="M360,36.13l-1.61-.53c-.33-.79-.74-1.74-1.21-2.82-2.7,1.6-2.46,4.13-2.45,6.54-1.12,1-1.12,1-2.35.25-.44-1.39.15-2.91-.44-4.37-1.62.78-1,2.34-1.51,3.93l-2-4.39c-.63,2,.39,4.21-.91,6.22l-1.27-.85v-2.5L345,36.2c-.33,1.93-.63,3.72-.92,5.5-1.31-1.85-.24-4.06-1.12-6.08-1.38,1,.11,2.84-1.45,3.5-.68-1,.38-2.4-1-3.29-.15.45-.28.86-.41,1.23-1.06.64-1.47-.42-2.21-.8l-1.16.5-1.17-1.24c-.64,2.18.1,4.28-.71,6.66-1-1.79-.29-3.32-.73-4.79l-1.59-.24-.8-1.3h-2.2c-1.15,1.37-1.84,3.18-2.89,4.84l-1.26-1.63-1.44,1.51c-1-.45-.45-1.5-.91-2.35l-1-.51c-1.42.36-1.64,1.46-2.06,2.81a16.37,16.37,0,0,1-2.77-8.72l-.38-.09c-.88.78-.33,2.2-1.16,2.88l-1.12-.36c-.59,8.19-.15,16.6-.95,24.85-.78-5.94-1.58-11.88-1.27-17.95L309.85,39l-1.11,1.45c-.94-2-1.81-3.89-2.7-5.77l-1.51-.5-1-1.51-1.26,2.12c-.1,6.91.34,14.21-1,20.69-1.1-2.92-.19-5.73-.47-8.79l-1.45-2.42V42c-2.44-1.07-1.87-3.64-2.65-5.53h-1.72v-.25l-1.3.53c-1.28-.93-1.18-2.85-2.91-3.55l-2.43,3.22c0,9.25,0,18.25-.07,27.24l-.66.06c-1.11-8.85,1-18-1.44-26.65L282.83,39l-1.13,3.36-1.23-1.12-.87-3.43-2-1.9L277,38.87l-1.21-.71V35l-2.37-.84-2.15,1.1c0,7.35,0,14.67,0,22,0,.78.31,1.7-.78,2.38-.75-7,.47-14.29-1.43-21.12L267.41,38c-.18-1-.34-1.94-.53-3,.74-1.27,1-2.9,2.29-4.11,1.65-4.64-.43-10.29,1-15.05.17,2.59,1.87,5.55,1.63,8.57,2.15,1.61,3.66,2.28,4,6,.13,1,.13,1,1.08,1.91l.72-1h1.38l.8,1.1.95-.84c.06-1.13.11-2.18.17-3.34l3.45,1.59,2.41-2.66V14.54l.89-.35c.22,2.67-.15,5.09,1.65,7.33v5.23l1.64-.43,1.82,2.58,2.13-1.18A10.8,10.8,0,0,0,298,31c.59-2.19,0-4.26.5-6.68.69.89.65,1,1.33,1.44,1-3.65.1-8.2.46-12.15,0-.79-.27-1.71.68-2.24,1.93,3.2.19,10.48.76,14.61,1.38.78,1.79-.41,2.41-.95.33-.91-.27-2,.9-2.69,1.36,2.77-.21,7.93,3.74,8.68,1.8-2.71.46-6.17,1-9.15,2.27,1.61.41,8.3,1,11.18.81.38.86,0,1.49-.49.07-5.14-.16-9.58.14-14.84,1.56,1.75.14,3.61,1.47,4.9l.91-.34,2.14,1.4,1.6,5.83,2,.37,1.66,1.45,2.79-.43.95.44a4.39,4.39,0,0,1,2.72-2.06c.3-2.56-.14-5,.35-8,2.16,2.72-.65,6.44,1.52,8.93a2,2,0,0,0,1.2-.42l1.35.58,1.35-4.5c.86,1.56,1.48,2.7,2.16,3.95l1.23-.51,1.42,1c1-.53.1-1.87,1.79-2,.15.64.31,1.29.46,1.94.73-1.29,2.19-2.11,2-3.79l1.14,3.74c1.13-1.61.24-3.13.95-4.5l1.08.74c.18,1.84-.09,3.58.18,5.45,1.71-.93,1.24-2.94,3.72-2.71l1.11-1.45c1.23.58,1.22,1.94,2,3.26.33-.68.59-1.19.87-1.77a5.85,5.85,0,0,0,3.48-3.14c1,1.5,1.82,2.82,2.83,4.39.8-2.46,0-4.87.63-7.49,1.64,2.06.08,4.46,1.15,6.83a2.7,2.7,0,0,1,3.3.06c1.21-.58,2.36-1,3.54-.2,1.19-.61.44-1.84.93-2.8,1.69,1,0,3.11,1.29,4.15,3.57-1.24,3-3,7.16-.18.74-1.73.17-3.41.33-5.22l1.26-1.34c1.22,1.37,1.29,3,1.26,4.7l1.12,1c.58-1.12,1.06-2.05,1.55-3,.5.12.67.26.59.95s.5,1.25.87,2.06l1.28-.86c.22-2-.14-3.91.34-6.34,1.38,1.81.22,3.15,1.28,5l.87-.39c.39.68.8,1.37,1.33,2.28l1.55.75,2.32-1.15,3.15.37.95-1.08.52,2.24a1.34,1.34,0,0,0,2.2-.16c.06-1.15.13-2.45.21-4.09,1.48,1.08.44,2.44,2.4,3.35a7.56,7.56,0,0,0,1.74-3c.28,4.31,2.53,8.18.44,12l-.89-2.87c-1.41-.57-1.74,1-2.7,1.34-1.62.06-.6-2.44-2.43-2.4-.17,1.54-1.37,2.39-2.41,3.33-1.3-.63-.46-1.89-1.08-2.9l-6,1.89c-1.22-.86-.43-2.1-.86-3.25l-1.34-.11c.51,1.76.93,3.32-.16,5a2.29,2.29,0,0,0-.73-1c-1.19.54-1.35,2.31-2.3,3.7-1.44-2.45-1.1-4.93-1.54-7.49-2.69,1.31-.85,2.79-2.47,4.1l-.6-.21c-.25,1.08-.5,2.18-.89,3.85-.62-1.55-1-2.55-1.49-3.75l-1.78,1.28c-1.4-.56-1.21-2-2-3.2l-1.41,2.45-2.57-3-1.09,1.28-2.61-1.27c-.61,1.29-.31,2.84-1.77,3.69l-1.6-.32-.85,1.79c-1.18-.12-1.12-1.07-1.21-1.86l-.76.26C359.79,38.49,360.47,37.29,360,36.13Z"/><path class="cls-1" d="M48,37.75c-1.44,13.4-.76,27.25-.5,40.75"/><path class="cls-1" d="M72.12,35.25C70.37,47.88,71.7,61.16,71.25,74"/><path class="cls-1" d="M172.12,45.25C170.29,53.64,171,62.48,171,71"/><path class="cls-1" d="M13.75,40C10.91,51.67,14,64.87,12.5,77"/><path class="cls-1" d="M198.75,30.5,197.18,33c1.82,10.86,0,21.56.57,32.48"/><path class="cls-1" d="M193.25,36c1.25,1.27,1.27,2.89,1.24,4.5-.23,9.5-.48,19,0,28.5"/><path class="cls-1" d="M182.75,38.25c3.39,10-.15,21.73,1.25,32.25"/><path class="cls-1" d="M179.75,1c-.62,8.3,1.17,16.84,0,25"/><path class="cls-1" d="M180.62,40.75c-1,7.34-.81,14.89-.62,22.25"/><path class="cls-1" d="M157.5,3c.29,9,.48,17.88,1,26.75"/><path class="cls-1" d="M203.62,41.75C202.18,49,204.11,56.66,203,64"/><path class="cls-1" d="M286.25,34.75c3.13,9.12.86,19.25,1.5,28.75"/><path class="cls-1" d="M261,38.5a173.41,173.41,0,0,1,.75,21.5"/><path class="cls-1" d="M167,37.5c-1.62,12.27.39,25.08-.5,37.5"/><path class="cls-1" d="M174.75,42.5c1.9,2.24.54,5.36.77,8-.05,6.5.5,13,0,19.5"/><path class="cls-1" d="M223,39.5c1.5,6.94.47,14.33.75,21.5"/><path class="cls-1" d="M191.12,37.25c.18,7.26.52,14.48.38,21.75"/><path class="cls-1" d="M171,4.5c.12,7.12-.7,14.24.5,21.25"/><path class="cls-1" d="M187,5.5a93.92,93.92,0,0,0,.75,16"/><path class="cls-1" d="M157.75,34c.82,12.33-.42,25,.75,37.5"/><path class="cls-1" d="M270,16c.5,3.3.09,6.88,1.25,10"/><path class="cls-1" d="M270,37.75a130.58,130.58,0,0,1,.5,21.75"/><path class="cls-1" d="M238.25,38.5c3,6.82.43,15.54,1.25,23"/><path class="cls-1" d="M248.5,38.75q.12,8.37.25,16.75"/><path class="cls-1" d="M305,22.5c-.39,1.58.39,3.07-.75,4.5"/><path class="cls-1" d="M313,39.75c.55,6.39.1,12.84.5,19.25"/><path class="cls-1" d="M183.5,3c1.3,7.07-1,15.44,1.75,22"/><path class="cls-1" d="M243.75,10c.53,5.09-.73,10.68,1,15.5"/><path class="cls-1" d="M47,7.5c-.84,6.44,0,12.67.75,19"/><path class="cls-1" d="M166,12.5c-.83,4.69.68,9.29.75,14"/><path class="cls-1" d="M287.25,14.5c-.17,4.38.9,8.59,1,13"/><path class="cls-1" d="M301,44.25A101.4,101.4,0,0,1,301.25,55"/><path class="cls-1" d="M208.25,40c-1.5,6.31.26,13.45-.75,20"/><path class="cls-1" d="M71,11.5c-.27,1.31-.64,2.58.46,3.78,1,3.15-.53,7.07.29,10.22"/><path class="cls-1" d="M230.88,37.25c.73,5.21.23,10.5.37,15.75"/><path class="cls-1" d="M214.75,11.5c.23,5.66.61,11.34,1,17"/><path class="cls-1" d="M12,9c0,4.74-.32,9.46.75,14"/><path class="cls-1" d="M243.75,35.25c1.22,6.14.14,12.52.5,18.75"/><path class="cls-1" d="M211,15c.13,2.23,1.31,4.25.75,6.5"/><path class="cls-1" d="M230.75,13.5c-.35,5,.68,9.78.75,14.75"/><path class="cls-1" d="M207,14.5c.4,4.1-.9,8.67.75,12.5"/><path class="cls-1" d="M175,13a39.05,39.05,0,0,0,.5,13.25"/><path class="cls-1" d="M301,11.5c-.08,5.17.24,10.35-.25,15.5"/><path class="cls-1" d="M227,39.25c.3,4.49,1,9.19.5,13.75"/><path class="cls-1" d="M236.5,39.75c-1.27,4.13-.56,8.5-1,12.75"/><path class="cls-1" d="M248.75,11.5c-.56,5.62,1.47,12-1.5,16.75"/><path class="cls-1" d="M213.25,39.5c3.44,4.54,1.56,10.72,2,16"/><path class="cls-1" d="M227,17.5c.27,3.5,1.32,7,.25,10.5"/><path class="cls-1" d="M187.25,35.75c1,4.75.55,9.91.25,14.75"/><path class="cls-1" d="M202.5,18.5v9.25"/><path class="cls-1" d="M39,36.75l-.25,8.75"/><path class="cls-1" d="M1,26c.75,2.58-.39,6.59,2,8.25"/><path class="cls-1" d="M253.75,20.5a13.46,13.46,0,0,0,1,5.5"/><path class="cls-1" d="M329.25,22c-.08,2.92-.17,5.83-.25,8.75"/><path class="cls-1" d="M310.25,22.75c-.19,3.52.75,7.46-1.5,10.5"/><path class="cls-1" d="M255,36c-.77,2.09-.46,4.31-.5,6.5"/><path class="cls-1" d="M361.75,23.5c0,3.06-.19,6.12,1,9"/><path class="cls-1" d="M26.25,36c-1.18,2.79-1,6-.75,9"/><path class="cls-1" d="M29.5,35.5c1.95,2.66-.32,6,.5,9"/><path class="cls-1" d="M162.75,25c0,1.85.22,3.72-.5,5.5"/><path class="cls-1" d="M67,24.5c-.17,2-.52,4-.75,6"/><path class="cls-1" d="M235,25.5c.85,2.43,0,5.33,1.75,7.5"/><path class="cls-1" d="M239,17.5c.29,2,.16,4.08.75,6"/><path class="cls-1" d="M239.75,23.75c-.24,3.18-.36,6.38-2,9.25"/><path class="cls-1" d="M380.5,24.5a15.21,15.21,0,0,0,1,7.75"/><path class="cls-1" d="M344.75,33.75a21.44,21.44,0,0,0-1,7.75"/><path class="cls-1" d="M387.75,23.5c0,2.13-.29,4.47,1.26,6.09-.1.57-.18,1-.26,1.41"/><path class="cls-1" d="M66.25,36.25c1.32,2.32,1,4.75.75,7.25"/><path class="cls-1" d="M40,26l-1,3"/><path class="cls-1" d="M191,14.5c0,2.25-.34,4.66,1.25,6.5"/><path class="cls-1" d="M25,26.5l-.5,3.75"/><path class="cls-1" d="M241.75,36.75a23.78,23.78,0,0,1,0,6.25"/><path class="cls-1" d="M343.5,26.5v4.25"/><path class="cls-1" d="M353.25,33.5c.92,1.87.24,4,.25,6"/><path class="cls-1" d="M402.25,27c-.24,1.35.39,2.52.75,3.75"/><path class="cls-1" d="M341.5,35v4"/><path class="cls-1" d="M27.25,37.75c0,.93.94,1.76.25,2.75"/><path class="cls-1" d="M312.75,18.5c.15,1.85-.54,4.08,1,5.5"/><path class="cls-1" d="M350,35a7.74,7.74,0,0,0,.5,3.5"/><path class="cls-1" d="M94.25,35.75l.5,2.75"/><path class="cls-1" d="M345.75,26c.25,1.71.81,3.45-.5,5"/><path class="cls-1" d="M334.25,36.5c1.08,1.34.26,3.38.5,5"/><path class="cls-1" d="M43.5,27.5c0,1.79.68,3.34-.75,4.75"/><path class="cls-1" d="M85.25,28a8.86,8.86,0,0,0,.5,4.75"/><path class="cls-1" d="M370.5,27c.73,1.66-.13,3.06-.75,4.5"/><path class="cls-1" d="M223,27.5a9.16,9.16,0,0,0,.75,4"/><path class="cls-1" d="M261.5,18.5c.19,1.52-.58,3.3.75,4.5"/><path class="cls-1" d="M384.5,27.75v4"/><path class="cls-1" d="M406,27.5c-.37,1.39,0,3-1.25,4"/><path class="cls-1" d="M405.75,34.5c1,1.18.9,2.59.75,4"/><path class="cls-1" d="M147.75,33.5a14.24,14.24,0,0,0,1,4"/><path class="cls-1" d="M219,26c.31,1.31-.54,2.47-.5,3.75"/><path class="cls-1" d="M9.75,30.5V34"/><path class="cls-1" d="M294.75,28c-.17,1.17-.33,2.33-.5,3.5"/><path class="cls-1" d="M277.25,34.75a3.76,3.76,0,0,0-.5,3.75"/><path class="cls-1" d="M309.75,36.25a9,9,0,0,0-1,3.75"/><path class="cls-1" d="M8.25,35c-1,1-.72,2.29-.75,3.5"/><path class="cls-1" d="M34.75,28.5l-.5,3.5"/><path class="cls-1" d="M122,28.5c-.6,1.22,0,2.34.25,3.5"/><path class="cls-1" d="M6,30a10.84,10.84,0,0,0-.25,3.5"/><path class="cls-1" d="M241.5,36.25l-3.25-.75"/><path class="cls-1" d="M250.25,38.25c.81,1,.17,2.17.25,3.25"/><path class="cls-1" d="M324.75,37.5a5.29,5.29,0,0,0-.75,3"/><path class="cls-1" d="M151.75,36.5c-.93.8-.83,2-1,3"/><path class="cls-1" d="M375.13,30.5l.37,2"/><path class="cls-1" d="M152.13,31c0,.67-.09,1.33-.13,2"/><path class="cls-1" d="M197.5,16c-.08.67.53,1.42-.25,2"/></g></g></svg>