<svg xmlns="http://www.w3.org/2000/svg" viewBox="0 0 1008.95 309.79"><defs><style>.cls-1{fill:none;stroke:#c1272d;stroke-miterlimit:10;stroke-width:4.86px;}</style></defs><g id="Layer_2" data-name="Layer 2"><g id="Layer_1-2" data-name="Layer 1"><polygon class="cls-1" points="302.06 133.23 252.14 133.23 227.17 176.47 252.14 219.71 302.06 219.71 327.03 176.47 302.06 133.23"/><polygon class="cls-1" points="378.62 89.65 328.69 89.65 303.72 132.89 328.69 176.13 378.62 176.13 403.58 132.89 378.62 89.65"/><polygon class="cls-1" points="452.72 134.06 402.79 134.06 377.82 177.3 402.79 220.54 452.72 220.54 477.68 177.3 452.72 134.06"/><polygon class="cls-1" points="77.7 2.43 27.77 2.43 2.81 45.67 27.77 88.91 77.7 88.91 102.66 45.67 77.7 2.43"/><polygon class="cls-1" points="453.4 220.04 403.47 220.04 378.51 263.28 403.47 306.52 453.4 306.52 478.36 263.28 453.4 220.04"/><polygon class="cls-1" points="528.95 176.46 479.02 176.46 454.06 219.7 479.02 262.94 528.95 262.94 553.91 219.7 528.95 176.46"/><polygon class="cls-1" points="604.05 220.88 554.12 220.88 529.16 264.12 554.12 307.36 604.05 307.36 629.02 264.12 604.05 220.88"/><polygon class="cls-1" points="605.22 133.63 555.29 133.63 530.33 176.87 555.29 220.11 605.22 220.11 630.18 176.87 605.22 133.63"/><polygon class="cls-1" points="679.77 88.05 629.84 88.05 604.88 131.29 629.84 174.53 679.77 174.53 704.74 131.29 679.77 88.05"/><polygon class="cls-1" points="830.98 88.65 781.05 88.65 756.08 131.89 781.05 175.13 830.98 175.13 855.94 131.89 830.98 88.65"/><polygon class="cls-1" points="152.61 46.01 102.69 46.01 77.72 89.25 102.69 132.49 152.61 132.49 177.58 89.25 152.61 46.01"/><polygon class="cls-1" points="229.16 2.43 179.24 2.43 154.27 45.67 179.24 88.91 229.16 88.91 254.13 45.67 229.16 2.43"/><polygon class="cls-1" points="304.27 46.01 254.34 46.01 229.37 89.25 254.34 132.49 304.27 132.49 329.23 89.25 304.27 46.01"/><polygon class="cls-1" points="379.37 2.43 329.44 2.43 304.48 45.67 329.44 88.91 379.37 88.91 404.33 45.67 379.37 2.43"/><polygon class="cls-1" points="453.21 46.01 403.28 46.01 378.31 89.25 403.28 132.49 453.21 132.49 478.17 89.25 453.21 46.01"/><polygon class="cls-1" points="529.76 2.43 479.83 2.43 454.86 45.67 479.83 88.91 529.76 88.91 554.72 45.67 529.76 2.43"/><polygon class="cls-1" points="604.86 46.01 554.93 46.01 529.97 89.25 554.93 132.49 604.86 132.49 629.82 89.25 604.86 46.01"/><polygon class="cls-1" points="679.96 2.43 630.03 2.43 605.07 45.67 630.03 88.91 679.96 88.91 704.93 45.67 679.96 2.43"/><polygon class="cls-1" points="680.32 88.65 630.39 88.65 605.43 131.89 630.39 175.13 680.32 175.13 705.29 131.89 680.32 88.65"/><polygon class="cls-1" points="755.87 46.01 705.95 46.01 680.98 89.25 705.95 132.49 755.87 132.49 780.84 89.25 755.87 46.01"/><polygon class="cls-1" points="830.98 88.67 781.05 88.67 756.08 131.91 781.05 175.15 830.98 175.15 855.94 131.91 830.98 88.67"/><polygon class="cls-1" points="906.08 46.01 856.15 46.01 831.19 89.25 856.15 132.49 906.08 132.49 931.04 89.25 906.08 46.01"/><polygon class="cls-1" points="680.94 2.43 631.01 2.43 606.04 45.67 631.01 88.91 680.94 88.91 705.9 45.67 680.94 2.43"/><polygon class="cls-1" points="832.59 2.43 782.66 2.43 757.7 45.67 782.66 88.91 832.59 88.91 857.56 45.67 832.59 2.43"/><polygon class="cls-1" points="981.18 2.43 931.25 2.43 906.28 45.67 931.25 88.91 981.18 88.91 1006.14 45.67 981.18 2.43"/></g></g></svg>