<svg xmlns="http://www.w3.org/2000/svg" viewBox="0 0 949 312.46"><defs><style>.cls-1{fill:none;}.cls-1,.cls-3{stroke:#c1272d;}.cls-1,.cls-2,.cls-3{stroke-miterlimit:10;stroke-width:4.86px;}.cls-2{fill:#c33;stroke:#c33;}.cls-3{fill:#900;}</style></defs><g id="Layer_2" data-name="Layer 2"><g id="Layer_1-2" data-name="Layer 1"><polygon points="539.81 41.93 486.99 41.93 460.58 87.67 486.99 133.41 539.81 133.41 566.22 87.67 539.81 41.93"/><polygon points="468.81 88.93 415.99 88.93 389.58 134.67 415.99 180.41 468.81 180.41 495.22 134.67 468.81 88.93"/><polygon points="468.81 0.93 415.99 0.93 389.58 46.67 415.99 92.41 468.81 92.41 495.22 46.67 468.81 0.93"/><polygon points="316.81 0.93 263.99 0.93 237.58 46.67 263.99 92.41 316.81 92.41 343.22 46.67 316.81 0.93"/><rect y="0.75" width="949" height="45.5"/><polygon class="cls-1" points="238.02 135.9 188.09 135.9 163.13 179.14 188.09 222.38 238.02 222.38 262.99 179.14 238.02 135.9"/><polygon class="cls-1" points="314.57 92.32 264.64 92.32 239.68 135.56 264.64 178.8 314.57 178.8 339.54 135.56 314.57 92.32"/><polygon class="cls-1" points="388.67 136.74 338.75 136.74 313.78 179.98 338.75 223.22 388.67 223.22 413.64 179.98 388.67 136.74"/><polygon class="cls-1" points="389.35 222.71 339.43 222.71 314.46 265.95 339.43 309.19 389.35 309.19 414.32 265.95 389.35 222.71"/><polygon class="cls-1" points="464.9 179.13 414.98 179.13 390.01 222.37 414.98 265.61 464.9 265.61 489.87 222.37 464.9 179.13"/><polygon class="cls-1" points="540.01 223.55 490.08 223.55 465.11 266.79 490.08 310.03 540.01 310.03 564.97 266.79 540.01 223.55"/><polygon class="cls-1" points="541.18 136.3 491.25 136.3 466.28 179.54 491.25 222.78 541.18 222.78 566.14 179.54 541.18 136.3"/><polygon class="cls-1" points="615.73 90.72 565.8 90.72 540.83 133.96 565.8 177.2 615.73 177.2 640.69 133.96 615.73 90.72"/><polygon class="cls-1" points="766.93 91.32 717 91.32 692.04 134.56 717 177.8 766.93 177.8 791.9 134.56 766.93 91.32"/><polygon class="cls-1" points="88.57 48.68 38.64 48.68 13.68 91.92 38.64 135.16 88.57 135.16 113.53 91.92 88.57 48.68"/><polygon class="cls-2" points="164.12 3.1 114.19 3.1 89.23 46.34 114.19 89.58 164.12 89.58 189.08 46.34 164.12 3.1"/><polygon class="cls-1" points="240.22 48.68 190.29 48.68 165.33 91.92 190.29 135.16 240.22 135.16 265.19 91.92 240.22 48.68"/><polygon class="cls-1" points="389.16 48.68 339.23 48.68 314.27 91.92 339.23 135.16 389.16 135.16 414.13 91.92 389.16 48.68"/><polygon class="cls-1" points="616.28 91.32 566.35 91.32 541.39 134.56 566.35 177.8 616.28 177.8 641.24 134.56 616.28 91.32"/><polygon class="cls-1" points="691.83 48.68 641.9 48.68 616.94 91.92 641.9 135.16 691.83 135.16 716.79 91.92 691.83 48.68"/><polygon class="cls-1" points="766.93 91.34 717 91.34 692.04 134.58 717 177.82 766.93 177.82 791.9 134.58 766.93 91.34"/><polygon class="cls-1" points="842.04 48.68 792.11 48.68 767.14 91.92 792.11 135.16 842.04 135.16 867 91.92 842.04 48.68"/><polygon class="cls-3" points="616.89 5.1 566.97 5.1 542 48.34 566.97 91.58 616.89 91.58 641.86 48.34 616.89 5.1"/><polygon class="cls-1" points="768.55 5.1 718.62 5.1 693.65 48.34 718.62 91.58 768.55 91.58 793.51 48.34 768.55 5.1"/><polygon points="922.23 0.75 869.41 0.75 843 46.49 869.41 92.23 922.23 92.23 948.63 46.49 922.23 0.75"/><polygon class="cls-2" points="766.36 3.43 716.43 3.43 691.47 46.67 716.43 89.91 766.36 89.91 791.33 46.67 766.36 3.43"/><polygon class="cls-2" points="618.36 2.43 568.43 2.43 543.47 45.67 568.43 88.91 618.36 88.91 643.33 45.67 618.36 2.43"/></g></g></svg>