<svg xmlns="http://www.w3.org/2000/svg" viewBox="0 0 217.5 187.03"><defs><style>.cls-1{fill:#c70804;}.cls-2{fill:#e39c01;}.cls-3{fill:#fff;}.cls-4{fill:#e3820b;}.cls-5{font-size:60px;font-family:Poppins-Medium, Poppins;font-weight:500;}</style></defs><g id="Layer_2" data-name="Layer 2"><g id="Layer_1-2" data-name="Layer 1"><polygon class="cls-1" points="62.12 37.77 20.71 37.77 0 73.63 20.71 109.5 62.12 109.5 82.83 73.63 62.12 37.77"/><polygon class="cls-2" points="128.54 76.86 87.13 76.86 66.42 112.73 87.13 148.59 128.54 148.59 149.25 112.73 128.54 76.86"/><polygon class="cls-3" points="62.12 115.3 20.71 115.3 0 151.16 20.71 187.03 62.12 187.03 82.83 151.16 62.12 115.3"/><polygon class="cls-3" points="196.79 37.77 155.38 37.77 134.67 73.63 155.38 109.5 196.79 109.5 217.5 73.63 196.79 37.77"/><polygon class="cls-4" points="129.87 0 88.46 0 67.75 35.87 88.46 71.73 129.87 71.73 150.58 35.87 129.87 0"/><text class="cls-5" transform="translate(31.42 89.53)">Pask</text><text class="cls-5" transform="translate(91.34 142.51)">Lab</text></g></g></svg>