<svg xmlns="http://www.w3.org/2000/svg" viewBox="0 0 344.34 85.85"><defs><style>.cls-1{fill:#c70804;}.cls-2{fill:#e39c01;}.cls-3{fill:#fff;}.cls-4{fill:#e3820b;}.cls-5{font-size:60px;font-family:Poppins-Medium, Poppins;font-weight:500;}</style></defs><g id="Layer_2" data-name="Layer 2"><g id="Layer_1-2" data-name="Layer 1"><polygon class="cls-1" points="18.43 14.15 6.14 14.15 0 24.79 6.14 35.43 18.43 35.43 24.57 24.79 18.43 14.15"/><polygon class="cls-2" points="38.14 25.75 25.85 25.75 19.71 36.38 25.85 47.03 38.14 47.03 44.28 36.38 38.14 25.75"/><polygon class="cls-3" points="18.43 37.15 6.14 37.15 0 47.79 6.14 58.43 18.43 58.43 24.57 47.79 18.43 37.15"/><polygon class="cls-3" points="58.38 14.15 46.1 14.15 39.95 24.79 46.1 35.43 58.38 35.43 64.53 24.79 58.38 14.15"/><polygon class="cls-4" points="38.53 2.94 26.24 2.94 20.1 13.58 26.24 24.22 38.53 24.22 44.67 13.58 38.53 2.94"/><text class="cls-5" transform="translate(74.42 50.93)">Pask</text><text class="cls-5" transform="translate(236.34 50.91)">Lab</text></g></g></svg>