<svg xmlns="http://www.w3.org/2000/svg" xmlns:xlink="http://www.w3.org/1999/xlink" version="1.1" x="0px" y="0px" viewBox="0 0 100 100" enable-background="new 0 0 100 100" xml:space="preserve"><g><path fill="#000000" d="M34.99365,43.6543C35.19141,43.88281,35.47021,44,35.75049,44c0.23193,0,0.46484-0.08008,0.65381-0.24365   c0.41748-0.36133,0.46338-0.99316,0.10205-1.41064l-3.75-4.3335c-0.08252-0.0957-0.18262-0.17432-0.29443-0.23291l-6.0835-3.1665   c-0.49365-0.25537-1.09521-0.06445-1.34912,0.42529c-0.25488,0.49023-0.06445,1.09375,0.42529,1.34912l5.91406,3.07812   L34.99365,43.6543z"></path><path fill="#000000" d="M36.71924,55.7832c-0.4873-0.25781-1.09375-0.07324-1.35254,0.41406l-4.13574,7.78564l-3.64746,2.52881   c-0.45361,0.31445-0.56689,0.9375-0.25195,1.3916c0.19434,0.28027,0.50586,0.43018,0.82275,0.43018   c0.19629,0,0.39502-0.05762,0.56885-0.17822l3.84668-2.66699c0.13086-0.09082,0.23828-0.21191,0.31348-0.35254l4.25-8   C37.39209,56.64795,37.20703,56.04248,36.71924,55.7832z"></path><path fill="#000000" d="M37.25,74.75c-0.55225,0-1,0.44775-1,1v8.00928c-3.75732,7.37305-3.42334,8.20801-3.26221,8.61182   c0.15625,0.39111,0.53174,0.62939,0.9292,0.62939c0.12305,0,0.24902-0.02344,0.37061-0.07178   c0.45166-0.18066,0.69922-0.65332,0.61182-1.11377c0.10254-0.83398,1.74121-4.42822,3.24072-7.35938   C38.2124,84.31445,38.25,84.1582,38.25,84v-8.25C38.25,75.19775,37.80225,74.75,37.25,74.75z"></path><path fill="#000000" d="M77.21631,12.30859c-13.88458-0.62976-22.22803,18.14215-25.0506,24.60358   c-0.59882-0.20886-1.29358-0.34674-2.0871-0.40924c-0.02753-0.00201-0.05139,0.00952-0.07849,0.00964   c-0.02716-0.00012-0.05109-0.01166-0.07874-0.00964c-0.79352,0.0625-1.48828,0.20038-2.0871,0.40924   c-2.82251-6.46124-11.16217-25.22321-25.0506-24.60358c-5.06885,0.22314-8.8418,1.9209-11.21387,5.0459   c-2.50586,3.30029-3.55029,7.94629-3.19336,14.20264c0.03223,0.55127,0.50195,0.97217,1.05566,0.94141   c0.55127-0.03174,0.97266-0.50439,0.94141-1.05566c-0.3291-5.76074,0.5835-9.97363,2.78906-12.87939   c2.02393-2.66602,5.19971-4.05811,9.70898-4.25684c8.52539-0.37646,16.11719,7.34277,23.21191,23.59326   c0.01093,0.02509,0.02954,0.04364,0.04224,0.06732c-0.198,0.20776-0.37439,0.43085-0.51196,0.68121   c-0.64465,1.17334-0.39856,2.44781-0.14642,3.20605c-0.45752,0.66193-0.50061,1.34839-0.44879,1.82068   c-0.52509,0.11493-1.04523,0.2605-1.55518,0.45032c-0.39111,0.14551-0.65088,0.51953-0.65088,0.93701v1.16132l-4.16406-1.8078   c-0.5083-0.21973-1.0957,0.0127-1.31592,0.51904c-0.21973,0.50684,0.0127,1.0957,0.51904,1.31592l4.92285,2.13721   c0.01245,0.00537,0.02557,0.00311,0.03809,0.00793v1.56714C40.88409,51.02814,40.875,51.61096,40.875,52   c0,0.37787-0.00873,0.75836-0.01227,1.13782l-2.74652,0.37097c-0.54736,0.07422-0.93115,0.57764-0.85742,1.125   C37.32666,55.13574,37.75586,55.5,38.24854,55.5c0.04492,0,0.08984-0.00293,0.13525-0.00879l2.45349-0.33142   c-0.01758,0.85736-0.03845,1.71277-0.05994,2.5531c-0.07697,2.99756-0.15466,6.07202-0.03381,9.15845   c0,0.00146-0.00085,0.00269-0.00085,0.00415c0,0.00281,0.00159,0.00507,0.00159,0.00787   c0.02112,0.53583,0.06586,1.07208,0.10004,1.60828l-3.63483,3.63483c-0.39062,0.39062-0.39062,1.02344,0,1.41406   c0.19531,0.19531,0.45117,0.29297,0.70703,0.29297s0.51172-0.09766,0.70703-0.29297l2.41589-2.41589   c0.22961,2.59198,0.5354,5.44269,1.53137,7.94568c0.13586,0.34155,0.30273,0.68085,0.48608,1.01672   c0.00238,0.00482,0.00171,0.01019,0.00415,0.01501c0.00256,0.00513,0.0069,0.00861,0.00958,0.01367   c1.38623,2.52032,4.01215,4.78369,6.53351,5.55115c0.00629,0.00269,0.01257,0.00439,0.01892,0.00702   c0.01416,0.00427,0.02844,0.01147,0.0426,0.01569c0.01062,0.00378,0.02051,0.00806,0.03125,0.01147   c0.0094,0.00275,0.01886,0.00769,0.0282,0.01038c0.08936,0.02563,0.1795,0.03729,0.26801,0.03802   c0.0022,0,0.00421,0.00104,0.00641,0.00104c0.00018,0,0.00031-0.00006,0.00049-0.00006s0.00031,0.00006,0.00049,0.00006   c0.0022,0,0.00421-0.00104,0.00641-0.00104c0.0885-0.00073,0.17865-0.01239,0.26801-0.03802   c0.00934-0.00269,0.0188-0.00763,0.0282-0.01038c0.01074-0.00342,0.02063-0.00769,0.03125-0.01147   c0.01416-0.00421,0.02844-0.01141,0.0426-0.01569c0.00635-0.00262,0.01263-0.00433,0.01892-0.00702   c2.86658-0.87256,5.87335-3.68048,7.03333-6.59656c0.99597-2.50299,1.30176-5.3537,1.53137-7.94568l2.41589,2.41589   c0.19531,0.19531,0.45117,0.29297,0.70703,0.29297s0.51172-0.09766,0.70703-0.29297c0.39062-0.39062,0.39062-1.02344,0-1.41406   l-3.63483-3.63483c0.23138-3.62891,0.15735-7.2569,0.06696-10.77875c-0.02148-0.84033-0.04236-1.69574-0.05994-2.5531   l2.45349,0.33142C61.66162,55.49707,61.70654,55.5,61.75146,55.5c0.49268,0,0.92188-0.36426,0.98975-0.86621   c0.07373-0.54736-0.31006-1.05078-0.85742-1.125l-2.74652-0.37097C59.13373,52.75836,59.125,52.37787,59.125,52   c0-0.38904-0.00909-0.97186-1.9375-2.03674v-1.25848l5.00586-2.47479c0.49512-0.24463,0.69775-0.84473,0.45312-1.33984   c-0.24512-0.49463-0.84326-0.69824-1.33984-0.45312l-4.11914,2.03644V45.0625c0-0.90479-0.8194-1.14453-2.20636-1.38312   c0.05243-0.47241,0.01031-1.16107-0.44849-1.82489c0.25214-0.75824,0.49823-2.03271-0.14642-3.20605   c-0.13757-0.25037-0.31396-0.47345-0.51196-0.68121c0.0127-0.02368,0.03131-0.04224,0.04224-0.06732   c7.09473-16.24951,14.66748-23.9873,23.21191-23.59326c4.50928,0.19873,7.68506,1.59082,9.70898,4.25684   c2.20557,2.90576,3.11816,7.11865,2.78906,12.87939c-0.03125,0.55127,0.39014,1.02393,0.94141,1.05566   c0.55322,0.01953,1.02344-0.39062,1.05566-0.94141c0.35693-6.25635-0.6875-10.90234-3.19336-14.20264   C86.05811,14.22949,82.28516,12.53174,77.21631,12.30859z M49.96832,40.33398c-1.08807-0.02844-2.00507,0.07385-2.74426,0.31006   c-0.04614-0.33813-0.03339-0.71252,0.14264-1.03271c0.41687-0.75854,1.64417-1.02081,2.63336-1.10645   c0.98541,0.08514,2.20966,0.34644,2.62982,1.1001c0.17816,0.31982,0.19073,0.69629,0.14423,1.03711   C52.01898,40.40033,51.08221,40.29681,49.96832,40.33398z M47.11621,42.97754c0.12354-0.16992,0.7041-0.71484,2.84961-0.64453   c0.01221,0.00024,0.02209-0.00568,0.03418-0.0058c0.01202,0.00012,0.02203,0.0061,0.03418,0.0058   c2.06494-0.07275,2.67773,0.41895,2.84033,0.63232c0.13092,0.17169,0.13287,0.36829,0.1178,0.49646   c-0.56818-0.01099-1.15393,0.01874-1.75647,0.09729c-0.19092,0.0249-0.38135,0.06055-0.57129,0.09717   c-0.21582,0.0415-0.43115,0.08643-0.65137,0.09619c-0.13574,0.0083-0.29004-0.0376-0.49023-0.09229   c-0.18311-0.05029-0.36816-0.09912-0.56543-0.13135c-0.60254-0.09668-1.23535-0.13672-1.87695-0.11621   c-0.02606,0.00079-0.05188,0.00464-0.07794,0.00562C46.99512,43.29651,47.00726,43.12781,47.11621,42.97754z M45.38916,80.04346   l0.54541-0.27637c0.49268-0.24951,0.68945-0.85156,0.43994-1.34424c-0.24951-0.49219-0.8501-0.68994-1.34424-0.43994   l-0.6142,0.31122c-0.95734-2.42786-1.20337-5.25061-1.44049-7.98163l-0.05176-0.59277   c-0.05414-0.61267-0.08002-1.22894-0.11426-1.84424h0.75293c0.55225,0,1-0.44775,1-1s-0.44775-1-1-1h-0.84064   c-0.07263-2.72253-0.01367-5.44781,0.05499-8.11133c0.0459-1.7915,0.09326-3.64062,0.09766-5.47803   c0.45361-0.36475,1.84229-1.07861,3.28857-1.68896c0.61694,0.3175,1.85699,1.00568,2.83691,1.84967v1.60907l-0.67529-0.15552   c-0.5376-0.12061-1.0752,0.2124-1.19922,0.75c-0.12402,0.53857,0.21191,1.0752,0.75,1.19922L49,56.10858v7.65784l-1.12451,0.25897   c-0.53809,0.12402-0.87402,0.66064-0.75,1.19922C47.23193,65.68701,47.64404,66,48.09912,66   c0.07422,0,0.1499-0.0083,0.22559-0.02539L49,65.81909v2.34741h-0.625c-0.55225,0-1,0.44775-1,1s0.44775,1,1,1H49v3.88251   l-0.81396,0.15656c-0.54199,0.104-0.89746,0.62842-0.79297,1.1709c0.0918,0.47852,0.51074,0.81104,0.98096,0.81104   c0.0625,0,0.12598-0.00586,0.18994-0.01807L49,76.08557v3.3114c-0.51855-0.0766-1.01166,0.24823-1.12451,0.76514   c-0.11768,0.53955,0.22461,1.07227,0.76416,1.18994L49,81.43054v1.81439C47.65778,82.53033,46.32874,81.35553,45.38916,80.04346z    M50,49.30249l1.32086,0.43457C50.88879,50.01245,50.43488,50.32892,50,50.67725c-0.43488-0.34833-0.88879-0.66479-1.32086-0.94019   L50,49.30249z M57.27179,66.2088l-1.42413,0.1286c-0.55029,0.0498-0.95557,0.53613-0.90625,1.08594   c0.04688,0.51953,0.4834,0.91016,0.99512,0.91016c0.02979,0,0.06055-0.00146,0.09082-0.00391l1.14136-0.10309   c-0.03058,0.49786-0.04865,0.99719-0.09253,1.49323l-0.05176,0.59277c-0.12836,1.47852-0.26306,2.9823-0.50775,4.4375H54.875   c-0.55225,0-1,0.44775-1,1s0.44775,1,1,1h1.20996c-0.14606,0.54053-0.31128,1.07117-0.51416,1.58105   c-0.76605,1.9256-2.65753,3.89526-4.5708,4.91388V60.75h0.5625c0.55225,0,1-0.44775,1-1s-0.44775-1-1-1H51v-6.30316   c0.98004-0.84399,2.22046-1.53217,2.83691-1.84967c1.4458,0.61035,2.83447,1.32373,3.28857,1.68896   c0.00439,1.8374,0.05176,3.68652,0.09766,5.47803C57.29462,60.53638,57.35974,63.37549,57.27179,66.2088z M55.1875,48.99847   c-0.31439-0.13647-0.64594-0.27686-1.0127-0.42523c-0.01044-0.00421-0.02203-0.00208-0.03259-0.00592   c-0.01117-0.00409-0.01855-0.01331-0.02991-0.01703l-3.7998-1.25c-0.03625-0.01196-0.07251-0.00537-0.10901-0.01306   c-0.06805-0.01459-0.13391-0.0246-0.20459-0.02454c-0.06976,0.00006-0.13458,0.01013-0.20166,0.02435   c-0.03674,0.00769-0.07324,0.00116-0.10974,0.01324l-3.7998,1.25c-0.01135,0.00372-0.0188,0.01288-0.02991,0.01697   c-0.01056,0.00385-0.02216,0.00171-0.03259,0.00598c-0.36676,0.14838-0.6983,0.28876-1.0127,0.42523V45.7832   c0.76172-0.22266,1.54248-0.34766,2.32959-0.37158c0.51367-0.01562,1.01953,0.01465,1.49609,0.0918   c0.12402,0.02002,0.24023,0.05371,0.35547,0.08545c0.2959,0.08105,0.66455,0.18604,1.11084,0.16162   c0.33984-0.01562,0.65723-0.07617,0.93701-0.12988c0.15039-0.0293,0.30078-0.05859,0.45215-0.07812   c0.92285-0.11865,1.79297-0.11426,2.58545,0.01416c0.39404,0.06445,0.79932,0.14209,1.1084,0.20996V48.99847z"></path><path fill="#000000" d="M73.62158,34.61279l-6.0835,3.1665c-0.11182,0.05859-0.21191,0.13721-0.29443,0.23291l-3.75,4.3335   c-0.36133,0.41748-0.31543,1.04932,0.10205,1.41064C63.78467,43.91992,64.01758,44,64.24951,44   c0.28027,0,0.55908-0.11719,0.75684-0.3457l3.625-4.18896l5.91406-3.07812c0.48975-0.25537,0.68018-0.85889,0.42529-1.34912   C74.71582,34.54834,74.11475,34.3584,73.62158,34.61279z"></path><path fill="#000000" d="M68.76904,63.98291l-4.13574-7.78564c-0.25928-0.48828-0.86621-0.67285-1.35254-0.41406   c-0.48779,0.25928-0.67285,0.86475-0.41406,1.35254l4.25,8c0.0752,0.14062,0.18262,0.26172,0.31348,0.35254l3.84668,2.66699   c0.17383,0.12061,0.37256,0.17822,0.56885,0.17822c0.31689,0,0.62842-0.1499,0.82275-0.43018   c0.31494-0.4541,0.20166-1.07715-0.25195-1.3916L68.76904,63.98291z"></path><path fill="#000000" d="M63.75,75.75c0-0.55225-0.44775-1-1-1s-1,0.44775-1,1V84c0,0.1582,0.0376,0.31445,0.10986,0.45557   c1.49951,2.93115,3.13818,6.52539,3.24072,7.35938c-0.0874,0.46045,0.16016,0.93311,0.61182,1.11377   c0.12158,0.04834,0.24707,0.07178,0.37061,0.07178c0.39697,0,0.77295-0.23828,0.9292-0.62939   c0.16113-0.40381,0.49512-1.23877-3.26221-8.61182V75.75z"></path><path fill="#000000" d="M48.22607,59.53369c-0.11963-0.53955-0.6543-0.88184-1.19238-0.75977l-1.41016,0.3125   c-0.53906,0.11914-0.87939,0.65332-0.75977,1.19238c0.10303,0.46631,0.5166,0.78369,0.9751,0.78369   c0.07178,0,0.14453-0.00732,0.21729-0.02393l1.41016-0.3125C48.00537,60.60693,48.3457,60.07275,48.22607,59.53369z"></path><path fill="#000000" d="M45.74316,70.65186c-0.43262-0.34131-1.06152-0.2666-1.40381,0.16748   c-0.3418,0.43359-0.2666,1.0625,0.16748,1.40381l0.71484,0.5625C45.40479,72.93018,45.62256,73,45.83936,73   c0.2959,0,0.58887-0.13086,0.78613-0.38184c0.3418-0.43359,0.2666-1.0625-0.16748-1.40381L45.74316,70.65186z"></path><path fill="#000000" d="M53.66504,56.92529c0.19238,0.2915,0.51074,0.44971,0.83594,0.44971   c0.18896,0,0.37988-0.05322,0.54932-0.16504c0.46094-0.30371,0.58838-0.92383,0.28467-1.38525l-0.7002-1.0625   c-0.3042-0.46143-0.92432-0.58936-1.38525-0.28467c-0.46094,0.30371-0.58838,0.92383-0.28467,1.38525L53.66504,56.92529z"></path><path fill="#000000" d="M55.17627,61.60889c-0.52441-0.16602-1.08838,0.12549-1.25488,0.65234l-0.375,1.1875   c-0.1665,0.52686,0.12598,1.08838,0.65234,1.25488c0.1001,0.03174,0.20166,0.04688,0.30176,0.04688   c0.42432,0,0.81836-0.27295,0.95312-0.69922l0.375-1.1875C55.99512,62.33691,55.70264,61.77539,55.17627,61.60889z"></path><path fill="#000000" d="M53.81982,69.72559c-0.42725-0.34912-1.05762-0.28613-1.40674,0.14209   c-0.34961,0.42773-0.28564,1.05762,0.14209,1.40674l0.6123,0.5C53.35303,71.92627,53.57666,72,53.79932,72   c0.29004,0,0.57715-0.12549,0.7749-0.36768c0.34961-0.42773,0.28564-1.05762-0.14209-1.40674L53.81982,69.72559z"></path><path fill="#000000" d="M52.11035,77.08008c-0.47363,0.28418-0.62695,0.89844-0.34277,1.37207l0.5625,0.9375   c0.1875,0.3125,0.51855,0.48535,0.8584,0.48535c0.17529,0,0.35254-0.0459,0.51367-0.14258   c0.47363-0.28418,0.62695-0.89844,0.34277-1.37207l-0.5625-0.9375C53.19775,76.94971,52.5835,76.79639,52.11035,77.08008z"></path></g></svg>