<?xml version="1.0" encoding="UTF-8"?><svg xmlns="http://www.w3.org/2000/svg" viewBox="0 0 1960 1276"><defs><style>.d{fill:#050100;}.e{fill:#cc6739;}.e,.f{opacity:.3;}.f{fill:#d5a64e;}</style></defs><g id="a"/><g id="b"><g id="c"><g><polygon class="d" points="1960 0 0 0 0 1273 960.68 1273 840.59 1063.21 602.62 1063.21 482.24 852.92 241.49 852.92 118.24 637.62 241.49 422.33 483.48 422.33 603.86 212.04 846.46 212.04 966.12 3 1212.61 3 1332.99 213.29 1573.75 213.29 1697 428.59 1574.66 642.29 1694.52 851.67 1571.27 1066.96 1328.55 1066.96 1210.61 1273 1960 1273 1960 0"/><g><polygon class="f" points="611.29 627.56 491.55 418.4 606.79 217.09 837.75 217.09 837.06 218.3 956.82 427.5 842.29 627.56 611.29 627.56"/><path d="M833.44,222.14l.67,1.18,116.89,204.19-111.63,195.01h-225.15l-116.85-204.12,112.35-196.26h223.72m13.02-10.1h-242.6l-120.38,210.29h4.5l120.38,210.29h236.86l117.42-205.11-119.76-209.21,3.58-6.26h0Z"/></g><g><polygon class="e" points="605.55 1058.16 490.93 857.93 617.02 637.67 836.51 637.67 835.82 638.87 955.31 847.62 834.79 1058.16 605.55 1058.16"/><path d="M832.2,642.72l.67,1.18,116.62,203.73-117.63,205.48h-223.39l-111.73-195.18,123.2-215.21h212.25m13.02-10.1h-236.86l2.87,5.01-123.25,215.3h-5.74l120.38,210.29h237.97l-1.43-2.5,121.98-213.08-119.5-208.75,3.58-6.26h0Z"/></g><g><polygon class="f" points="962.8 840.36 847.46 638.87 962.64 437.67 963.2 438.64 1203.96 438.64 1318.05 637.96 1202.19 840.36 962.8 840.36"/><path d="M1201.03,443.69l111.21,194.26-112.97,197.35h-233.54l-112.45-196.43,.71-1.24,111.02-193.94h236.02m-238.39-16.19l-117.42,205.11-3.58,6.26,119.5,208.75,1.27-2.21h242.72l118.75-207.45-116.99-204.37h-240.76l-3.49-6.09h0Z"/></g><g><polygon class="e" points="1337.26 1061.91 1337.96 1060.7 1212.83 842.11 1323.87 648.12 1324.33 648.93 1572.64 648.93 1688.7 851.67 1568.34 1061.91 1337.26 1061.91"/><path d="M1569.71,653.98l113.16,197.68-117.46,205.19h-223.84l-.67-1.18-122.26-213.57,107.69-188.13h243.38m-245.84-16.02l-118.75,207.45h3.77l123.25,215.3-3.58,6.26h242.72l123.25-215.3-119.85-209.37-.91,1.59h-246.49l-3.39-5.92h0Z"/></g><g><polygon class="e" points="244.42 847.87 124.06 637.62 244.42 427.38 485.05 427.38 605.4 637.62 485.05 847.87 244.42 847.87"/><path d="M482.12,432.43l117.46,205.19-117.46,205.19H247.34l-117.46-205.19,117.46-205.19h234.78m5.86-10.1H241.49l-123.25,215.3,123.25,215.3h246.49l123.25-215.3-2.87-5.01-120.38-210.29h0Z"/></g><g><polygon class="e" points="965.33 1270.95 844.97 1060.7 965.33 850.46 1205.96 850.46 1326.32 1060.7 1205.96 1270.95 965.33 1270.95"/><path d="M1203.03,855.51l117.46,205.19-.71,1.24-116.75,203.95h-234.78l-117.46-205.19,117.46-205.19h234.78m5.86-10.1h-246.49l-1.27,2.21-121.98,213.08,1.43,2.5,120.09,209.79,1.72,3h246.49l1.72-3,117.95-206.04,3.58-6.26-123.25-215.3h0Z"/></g><g><polygon class="e" points="1330.19 638.83 1215.57 438.6 1341.65 218.34 1570.83 218.34 1691.18 428.58 1570.83 638.83 1330.19 638.83"/><path d="M1567.9,223.39l117.46,205.19-117.46,205.19h-234.78l-.48-.84-111.25-194.34,123.19-215.21h223.31m5.86-10.1h-240.76l2.87,5.01-123.25,215.3h-5.73l116.99,204.37,3.39,5.92h246.49l.91-1.59,122.34-213.71-123.25-215.3h0Z"/></g><g><polygon class="e" points="969.05 428.54 848.7 218.3 969.05 8.05 1209.69 8.05 1330.04 218.3 1209.69 428.54 969.05 428.54"/><path d="M1206.76,13.1l117.46,205.19-117.46,205.19h-234.78l-.58-1.01-116.89-204.19,.71-1.24L971.98,13.1h234.78m5.86-10.1h-246.49l-119.66,209.04-3.58,6.26,119.76,209.21,3.49,6.09h246.49l123.25-215.3-2.87-5.01L1212.61,3h0Z"/></g></g></g></g></svg>