<svg xmlns="http://www.w3.org/2000/svg" viewBox="0 0 1285.05 1285.05"><defs><style>.cls-1{fill:#d5a64e;}.cls-1,.cls-3{opacity:0.3;}.cls-2,.cls-4{fill:#fff;}.cls-3,.cls-5{fill:#cc6739;}.cls-4,.cls-5{stroke:#fff;stroke-miterlimit:10;stroke-width:6.05px;}</style></defs><g id="Layer_2" data-name="Layer 2"><g id="Layer_1-2" data-name="Layer 1"><polygon class="cls-1" points="395.06 666.5 297.97 498.33 395.06 330.17 589.24 330.17 686.33 498.33 589.24 666.5 395.06 666.5"/><path class="cls-2" d="M586.9,334.22l94.75,164.11L586.9,662.44H397.41L302.66,498.33l94.75-164.11H586.9m4.69-8.11H392.72L293.29,498.33l99.43,172.22H591.59L691,498.33,591.59,326.11Z"/><polygon class="cls-3" points="398.67 1000.12 301.58 831.96 398.67 663.79 592.85 663.79 689.94 831.96 592.85 1000.12 398.67 1000.12"/><path class="cls-2" d="M590.51,667.85,685.25,832l-94.74,164.1H401L306.27,832,401,667.85h189.5m4.68-8.12H396.33L296.9,832l99.43,172.22H595.19L694.63,832,595.19,659.73Z"/><polygon class="cls-1" points="687.96 834.96 590.87 666.79 687.96 498.63 882.13 498.63 979.23 666.79 882.13 834.96 687.96 834.96"/><path class="cls-2" d="M879.79,502.68l94.75,164.11L879.79,830.9H690.3L595.55,666.79,690.3,502.68H879.79m4.69-8.11H685.61L586.18,666.79,685.61,839H884.48l99.43-172.22L884.48,494.57Z"/><polygon class="cls-3" points="980.38 999.06 883.29 830.9 980.38 662.73 1174.56 662.73 1271.65 830.9 1174.56 999.06 980.38 999.06"/><path class="cls-2" d="M1172.22,666.79,1267,830.9,1172.22,995H982.73L888,830.9l94.75-164.11h189.49m4.69-8.11H978L878.61,830.9,978,1003.12h198.87l99.43-172.22-99.43-172.22Z"/><polygon class="cls-3" points="105.08 833.94 7.99 665.77 105.08 497.61 299.26 497.61 396.35 665.77 299.26 833.94 105.08 833.94"/><path class="cls-2" d="M296.92,501.66l94.75,164.11L296.92,829.88H107.43L12.68,665.77l94.75-164.11H296.92m4.69-8.11H102.74L3.31,665.77,102.74,838H301.61L401,665.77,301.61,493.55Z"/><polygon class="cls-3" points="690.2 1170.41 593.11 1002.24 690.2 834.08 884.38 834.08 981.47 1002.24 884.38 1170.41 690.2 1170.41"/><path class="cls-2" d="M882,838.13l94.75,164.11L882,1166.35H692.55L597.8,1002.24l94.75-164.11H882m4.69-8.11H687.86l-99.43,172.22,99.43,172.22H886.73l99.43-172.22L886.73,830Z"/><polygon class="cls-3" points="976.94 672.05 879.85 503.88 976.94 335.72 1171.12 335.72 1268.21 503.88 1171.12 672.05 976.94 672.05"/><path class="cls-2" d="M1168.78,339.78l94.75,164.1L1168.78,668H979.29L884.54,503.88l94.75-164.1h189.49m4.69-8.12H974.6L875.17,503.88,974.6,676.11h198.87l99.43-172.23-99.43-172.22Z"/><polygon class="cls-3" points="690.2 502.76 593.11 334.59 690.2 166.43 884.38 166.43 981.47 334.59 884.38 502.76 690.2 502.76"/><path class="cls-2" d="M882,170.48l94.75,164.11L882,498.7H692.55L597.8,334.59l94.75-164.11H882m4.69-8.11H687.86L588.43,334.59l99.43,172.22H886.73l99.43-172.22L886.73,162.37Z"/><path class="cls-4" d="M3,3V1282H1282V3Zm1177.6,999.76H986.06l-96.62,167.34H690.58L591.14,997.9l1.12,1.93H399L303.1,833.65H105.46L6,661.43,105.46,489.2H298.77l96.67-167.43H594.3l.87,1.5L690.58,158H889.44l96,166.3h191.73l99.43,172.22-99.43,172.22,4.73-8.19,98.14,170Z"/><polygon class="cls-5" points="885.14 825.67 885.14 825.67 882.33 830.55 885.14 825.67"/><polygon class="cls-5" points="977.02 666.53 977.02 666.53 978.32 668.76 977.02 666.53"/><polygon class="cls-5" points="885.14 825.67 885.14 825.67 882.33 830.55 885.14 825.67"/><polygon class="cls-5" points="988.87 330.25 985.45 324.32 985.45 324.32 988.87 330.25"/><polygon class="cls-5" points="885.14 825.67 885.14 825.67 882.33 830.55 885.14 825.67"/><polygon class="cls-5" points="977.02 666.53 977.02 666.53 978.32 668.76 977.02 666.53"/><polygon class="cls-5" points="595.17 323.27 595.17 323.27 591.14 330.25 595.17 323.27"/><polygon class="cls-5" points="591.14 330.25 689.71 500.96 689.71 500.96 591.14 330.25"/><polygon class="cls-5" points="885.14 825.67 885.14 825.67 882.33 830.55 885.14 825.67"/><polygon class="cls-5" points="977.02 666.53 977.02 666.53 978.32 668.76 977.02 666.53"/><polygon class="cls-5" points="988.87 330.25 985.45 324.32 985.45 324.32 988.87 330.25"/><polygon class="cls-5" points="595.17 323.27 595.17 323.27 591.14 330.25 595.17 323.27"/><polygon class="cls-5" points="591.14 330.25 689.71 500.96 689.71 500.96 591.14 330.25"/><polygon class="cls-1" points="885.14 825.67 885.14 825.67 882.33 830.55 885.14 825.67"/><polygon class="cls-2" points="885.14 825.67 882.33 830.55 885.14 825.67 885.14 825.67"/><polygon class="cls-1" points="977.02 666.53 977.02 666.53 978.32 668.76 977.02 666.53"/><polygon class="cls-2" points="977.02 666.53 978.32 668.76 977.02 666.53 977.02 666.53"/><polygon class="cls-1" points="988.87 330.25 985.45 324.32 985.45 324.32 988.87 330.25"/><polygon class="cls-2" points="985.45 324.32 988.87 330.25 985.45 324.32 985.45 324.32"/><polygon class="cls-1" points="595.17 323.27 591.14 330.25 689.71 500.96 693.74 493.99 595.17 323.27"/><polygon class="cls-2" points="595.17 323.27 591.14 330.25 689.71 500.96 693.74 493.99 595.17 323.27 595.17 323.27"/><polygon class="cls-1" points="403.75 661.43 400.99 666.21 400.99 666.21 403.75 661.43"/><polygon class="cls-2" points="403.75 661.43 400.99 666.21 403.75 661.43 403.75 661.43"/><polygon class="cls-1" points="400.99 666.21 400.99 666.21 304.32 833.65 400.99 666.21"/><polygon class="cls-2" points="400.99 666.21 304.32 833.65 400.99 666.21 400.99 666.21"/><polygon class="cls-1" points="397.78 662.15 300.69 493.99 301.11 493.26 301.98 493.26 399.07 661.43 398.65 662.15 397.78 662.15"/><polygon class="cls-2" points="304.32 489.2 298.77 489.2 296 493.99 395.44 666.21 400.99 666.21 403.75 661.43 304.32 489.2 304.32 489.2"/><polygon class="cls-1" points="403.75 661.43 400.99 666.21 400.99 666.21 403.75 661.43"/><polygon class="cls-2" points="403.75 661.43 400.99 666.21 403.75 661.43 403.75 661.43"/><polygon class="cls-3" points="696.22 825.67 690.58 825.67 591.14 997.9 592.26 999.83 597.91 999.83 697.34 827.61 696.22 825.67"/><polygon class="cls-2" points="696.22 825.67 690.58 825.67 591.14 997.9 592.26 999.83 597.91 999.83 697.34 827.61 696.22 825.67 696.22 825.67"/><polygon class="cls-3" points="408.02 662.15 408.44 661.43 407.3 659.45 593.52 659.45 591.96 662.15 408.02 662.15"/><polygon class="cls-2" points="597.91 655.39 400.27 655.39 403.75 661.43 400.99 666.21 594.3 666.21 599.23 657.68 597.91 655.39 597.91 655.39"/><polygon class="cls-3" points="403.75 661.43 400.27 655.39 399.04 655.39 299.61 827.61 303.1 833.65 304.32 833.65 403.75 661.43"/><polygon class="cls-2" points="400.27 655.39 399.04 655.39 299.61 827.61 303.1 833.65 304.32 833.65 403.75 661.43 400.27 655.39 400.27 655.39"/><polygon class="cls-1" points="891.85 498.29 889.44 502.47 891.85 498.29 891.85 498.29"/><polygon class="cls-2" points="891.85 498.29 889.44 502.47 891.85 498.29 891.85 498.29"/><polygon class="cls-1" points="686.86 832.12 690.58 825.67 686.86 832.12 686.86 832.12"/><polygon class="cls-2" points="690.58 825.67 686.86 832.12 690.58 825.67 690.58 825.67"/><polygon class="cls-1" points="597.37 669.01 599.23 665.79 689.2 821.62 688.23 821.62 686.86 824 597.37 669.01"/><polygon class="cls-2" points="599.23 657.68 594.3 666.21 591.07 666.21 686.86 832.12 690.58 825.67 696.22 825.67 599.23 657.68 599.23 657.68"/><polygon class="cls-1" points="885.14 825.67 885.14 825.67 882.33 830.55 885.14 825.67"/><polygon class="cls-2" points="885.14 825.67 882.33 830.55 885.14 825.67 885.14 825.67"/><polygon class="cls-1" points="692.41 830.61 692.92 829.73 878.11 829.73 877.64 830.55 877.67 830.61 692.41 830.61"/><polygon class="cls-2" points="885.14 825.67 696.22 825.67 690.58 825.67 686.86 832.12 688.33 834.67 884.7 834.67 882.33 830.55 885.14 825.67 885.14 825.67"/><polygon class="cls-1" points="977.02 666.53 977.02 666.53 978.32 668.76 977.02 666.53"/><polygon class="cls-2" points="977.02 666.53 978.32 668.76 977.02 666.53 977.02 666.53"/><polygon class="cls-1" points="981.76 1002.78 884.7 834.67 884.7 834.67 981.76 1002.78"/><polygon class="cls-2" points="884.7 834.67 981.76 1002.78 884.7 834.67 884.7 834.67"/><polygon class="cls-1" points="882.33 830.55 884.7 834.67 887.19 834.67 982.98 668.76 978.32 668.76 977.02 666.53 885.14 825.67 885.14 825.67 882.33 830.55"/><polygon class="cls-2" points="977.02 666.53 885.14 825.67 882.33 830.55 884.7 834.67 887.19 834.67 982.98 668.76 978.32 668.76 977.02 666.53 977.02 666.53"/><polygon class="cls-1" points="985.92 993.06 888.83 824.9 985.92 656.73 1171.12 656.73 1170.64 657.55 1272.22 833.5 1180.1 993.06 985.92 993.06"/><path class="cls-2" d="M1167.82,660.79l.48.82,2.37,4.12,96.87,167.77L1177.76,989H988.26L893.51,824.9l94.75-164.11h179.56m10.32-8.12H983.58L884.14,824.9l99.44,172.22h198.86l96.62-167.34h-4.3L1177.7,661.67l-2.38-4.12,2.82-4.88Z"/><polygon class="cls-1" points="104.39 828.78 11.39 667.71 106.34 503.27 299.64 503.27 302.23 498.79 392.19 654.62 391.23 654.62 290.68 828.78 104.39 828.78"/><path class="cls-2" d="M302.23,506.91,387,653.78l-.48.84-98.21,170.1H106.73l-90.65-157,92.6-160.38H302l.24-.42m0-16.23-4.93,8.53H104l2.77-4.78L7.32,666.65H6.1L102,832.83H295.26l-1.12-1.93,99.44-172.23h5.64l-97-168Z"/><polygon class="cls-1" points="884.7 834.67 884.7 834.67 882.33 830.55 884.7 834.67"/><polygon class="cls-2" points="882.33 830.55 884.7 834.67 882.33 830.55 882.33 830.55"/><polygon class="cls-1" points="885.14 825.67 885.14 825.67 882.33 830.55 885.14 825.67"/><polygon class="cls-2" points="885.14 825.67 882.33 830.55 885.14 825.67 885.14 825.67"/><polygon class="cls-1" points="885.14 825.67 885.14 825.67 882.33 830.55 885.14 825.67"/><polygon class="cls-2" points="885.14 825.67 882.33 830.55 885.14 825.67 885.14 825.67"/><polygon class="cls-1" points="889.34 506.53 891.78 506.53 891.85 506.41 981.94 662.45 980.65 664.69 889.34 506.53"/><polygon class="cls-2" points="891.85 498.29 889.44 502.47 882.31 502.47 977.02 666.53 978.32 668.76 982.98 668.76 986.63 662.45 891.85 498.29 891.85 498.29"/><polygon class="cls-1" points="885.14 825.67 885.14 825.67 882.33 830.55 885.14 825.67"/><polygon class="cls-2" points="885.14 825.67 882.33 830.55 885.14 825.67 885.14 825.67"/><polygon class="cls-1" points="977.02 666.53 977.02 666.53 978.32 668.76 977.02 666.53"/><polygon class="cls-2" points="977.02 666.53 978.32 668.76 977.02 666.53 977.02 666.53"/><polygon class="cls-1" points="689.71 500.96 685.92 494.4 588.9 662.45 591.07 666.21 594.3 666.21 689.71 500.96"/><polygon class="cls-2" points="685.92 494.4 588.9 662.45 591.07 666.21 594.3 666.21 689.71 500.96 685.92 494.4 685.92 494.4"/><polygon class="cls-1" points="885.14 825.67 885.14 825.67 882.33 830.55 885.14 825.67"/><polygon class="cls-2" points="885.14 825.67 882.33 830.55 885.14 825.67 885.14 825.67"/><polygon class="cls-1" points="977.02 666.53 977.02 666.53 978.32 668.76 977.02 666.53"/><polygon class="cls-2" points="977.02 666.53 978.32 668.76 977.02 666.53 977.02 666.53"/><polygon class="cls-1" points="985.45 324.32 988.87 330.25 985.45 324.32 985.45 324.32"/><polygon class="cls-2" points="985.45 324.32 988.87 330.25 985.45 324.32 985.45 324.32"/><polygon class="cls-1" points="595.17 323.27 595.17 323.27 591.14 330.25 595.17 323.27"/><polygon class="cls-2" points="595.17 323.27 591.14 330.25 595.17 323.27 595.17 323.27 595.17 323.27"/><polygon class="cls-1" points="685.92 494.4 685.92 494.4 591.14 330.25 685.92 494.4"/><rect class="cls-2" x="638.53" y="317.55" height="189.55" transform="translate(-120.62 374.51) rotate(-30)"/><polygon class="cls-1" points="692.39 1164.78 599.39 1003.71 694.34 839.27 887.64 839.27 890.23 834.79 980.2 990.62 979.23 990.62 878.68 1164.78 692.39 1164.78"/><path class="cls-2" d="M890.23,842.91,975,989.78l-.48.84-98.21,170.1H694.73l-90.65-157,92.6-160.38H890l.24-.42m0-16.23-4.93,8.53H692l2.77-4.78-99.44,172.22H594.1L690,1168.83H883.26l-1.12-1.93,99.44-172.23h5.64l-97-168Z"/><polygon class="cls-1" points="885.14 825.67 885.14 825.67 882.33 830.55 885.14 825.67"/><polygon class="cls-2" points="885.14 825.67 882.33 830.55 885.14 825.67 885.14 825.67"/><polygon class="cls-1" points="977.02 666.53 977.02 666.53 978.32 668.76 977.02 666.53"/><polygon class="cls-2" points="977.02 666.53 978.32 668.76 977.02 666.53 977.02 666.53"/><rect class="cls-1" x="684.02" y="497.68" width="7.58"/><polygon class="cls-2" points="685.92 494.4 685.92 494.4 689.71 500.96 689.71 500.96 685.92 494.4 685.92 494.4"/><polygon class="cls-3" points="885.14 825.67 885.14 825.67 882.33 830.55 885.14 825.67"/><polygon class="cls-2" points="885.14 825.67 882.33 830.55 885.14 825.67 885.14 825.67"/><polygon class="cls-3" points="982.76 664.71 984.1 662.39 1176.18 662.39 1174.84 664.71 982.76 664.71"/><polygon class="cls-2" points="1180.62 658.33 981.76 658.33 977.02 666.53 978.32 668.76 1177.18 668.76 1181.91 660.57 1180.62 658.33 1180.62 658.33"/><polygon class="cls-3" points="885.14 825.67 885.14 825.67 882.33 830.55 885.14 825.67"/><polygon class="cls-2" points="885.14 825.67 882.33 830.55 885.14 825.67 885.14 825.67"/><polygon class="cls-3" points="887.01 830.55 887.29 830.07 984.19 997.9 983.91 998.38 887.01 830.55"/><polygon class="cls-2" points="889.44 825.67 885.14 825.67 882.33 830.55 981.76 1002.78 986.06 1002.78 988.87 997.9 889.44 825.67 889.44 825.67"/><polygon class="cls-3" points="885.14 825.67 885.14 825.67 882.33 830.55 885.14 825.67"/><polygon class="cls-2" points="885.14 825.67 882.33 830.55 885.14 825.67 885.14 825.67"/><polygon class="cls-3" points="977.02 666.53 977.02 666.53 978.32 668.76 977.02 666.53"/><polygon class="cls-2" points="977.02 666.53 978.32 668.76 977.02 666.53 977.02 666.53"/><polygon class="cls-3" points="591.14 330.25 689.71 500.96 689.71 500.96 591.14 330.25"/><rect class="cls-2" x="640.43" y="317.04" height="197.13" transform="translate(-122 375.89) rotate(-30)"/><polygon class="cls-3" points="595.17 323.27 595.17 323.27 591.14 330.25 595.17 323.27"/><polygon class="cls-2" points="595.17 323.27 591.14 330.25 595.17 323.27 595.17 323.27 595.17 323.27"/><polygon class="cls-3" points="885.14 825.67 885.14 825.67 882.33 830.55 885.14 825.67"/><polygon class="cls-2" points="885.14 825.67 882.33 830.55 885.14 825.67 885.14 825.67"/><polygon class="cls-3" points="977.02 666.53 977.02 666.53 978.32 668.76 977.02 666.53"/><polygon class="cls-2" points="977.02 666.53 978.32 668.76 977.02 666.53 977.02 666.53"/></g></g></svg>