<?xml version="1.0" encoding="UTF-8"?><svg id="Layer_2" xmlns="http://www.w3.org/2000/svg" viewBox="0 0 1960 1764"><defs><style>.cls-1{fill:#050100;}.cls-2{fill:#cc6739;}.cls-2,.cls-3{opacity:.3;}.cls-3{fill:#d5a64e;}</style></defs><g id="Layer_1-2"><g><polygon class="cls-3" points="611.29 872.56 491.55 663.4 606.79 462.09 837.75 462.09 837.06 463.3 956.82 672.5 842.29 872.56 611.29 872.56"/><path d="M833.44,467.14l.67,1.18,116.89,204.19-111.63,195.01h-225.15l-116.84-204.12,112.35-196.26h223.72m13.02-10.1h-242.6l-120.38,210.29h4.5l120.38,210.29h236.86l117.42-205.11-119.76-209.2,3.58-6.26h0Z"/></g><g><polygon class="cls-2" points="605.55 1303.16 490.93 1102.93 617.02 882.67 836.51 882.67 835.82 883.87 955.31 1092.62 834.79 1303.16 605.55 1303.16"/><path d="M832.2,887.72l.67,1.18,116.62,203.73-117.63,205.48h-223.39l-111.73-195.18,123.2-215.21h212.25m13.02-10.1h-236.86l2.87,5.01-123.25,215.3h-5.74l120.38,210.29h237.97l-1.43-2.5,121.98-213.08-119.5-208.75,3.58-6.26h0Z"/></g><g><polygon class="cls-3" points="962.8 1085.36 847.46 883.87 962.64 682.67 963.2 683.64 1203.96 683.64 1318.05 882.96 1202.19 1085.36 962.8 1085.36"/><path d="M1201.03,688.69l111.21,194.26-112.97,197.35h-233.54l-112.45-196.43,.71-1.24,111.02-193.94h236.02m-238.39-16.19l-117.42,205.11-3.58,6.26,119.5,208.75,1.27-2.21h242.72l118.75-207.45-116.99-204.37h-240.76l-3.49-6.09h0Z"/></g><g><polygon class="cls-2" points="1337.26 1306.91 1337.96 1305.7 1212.83 1087.11 1323.87 893.12 1324.33 893.93 1572.64 893.93 1688.7 1096.67 1568.34 1306.91 1337.26 1306.91"/><path d="M1569.71,898.98l113.16,197.68-117.46,205.19h-223.84l-.67-1.18-122.26-213.57,107.69-188.13h243.37m-245.84-16.02l-118.75,207.45h3.77l123.25,215.3-3.58,6.26h242.72l123.25-215.3-119.85-209.37-.91,1.59h-246.49l-3.39-5.92h0Z"/></g><g><polygon class="cls-2" points="244.42 1092.87 124.06 882.62 244.42 672.38 485.05 672.38 605.4 882.62 485.05 1092.87 244.42 1092.87"/><path d="M482.12,677.43l117.46,205.19-117.46,205.19H247.34l-117.46-205.19,117.46-205.19h234.78m5.86-10.1H241.49l-123.25,215.3,123.25,215.3h246.49l123.25-215.3-2.87-5.01-120.38-210.29h0Z"/></g><g><polygon class="cls-2" points="965.33 1515.95 844.97 1305.7 965.33 1095.46 1205.96 1095.46 1326.32 1305.7 1205.96 1515.95 965.33 1515.95"/><path d="M1203.03,1100.51l117.46,205.19-.71,1.24-116.75,203.95h-234.78l-117.46-205.19,117.46-205.19h234.78m5.86-10.1h-246.49l-1.27,2.21-121.98,213.08,1.43,2.5,120.09,209.79,1.72,3h246.49l1.72-3,117.95-206.04,3.58-6.26-123.25-215.3h0Z"/></g><g><polygon class="cls-2" points="1330.19 883.83 1215.57 683.6 1341.65 463.34 1570.83 463.34 1691.18 673.58 1570.83 883.83 1330.19 883.83"/><path d="M1567.9,468.39l117.46,205.19-117.46,205.19h-234.78l-.48-.84-111.25-194.34,123.19-215.21h223.32m5.86-10.1h-240.76l2.87,5.01-123.25,215.3h-5.73l116.99,204.37,3.39,5.92h246.49l.91-1.59,122.34-213.71-123.25-215.3h0Z"/></g><g><polygon class="cls-2" points="969.05 673.54 848.7 463.3 969.05 253.05 1209.69 253.05 1330.04 463.3 1209.69 673.54 969.05 673.54"/><path d="M1206.76,258.1l117.46,205.19-117.46,205.19h-234.78l-.58-1.01-116.89-204.19,.71-1.24,116.75-203.95h234.78m5.86-10.1h-246.49l-119.66,209.04-3.58,6.26,119.76,209.21,3.49,6.09h246.49l123.25-215.3-2.87-5.01-120.38-210.29h0Z"/></g><g><polygon class="cls-1" points="1960 245 0 245 0 1518 960.68 1518 840.59 1308.21 602.62 1308.21 482.24 1097.92 241.49 1097.92 118.24 882.62 241.49 667.33 483.48 667.33 603.86 457.04 846.46 457.04 966.12 248 1212.61 248 1332.99 458.29 1573.75 458.29 1697 673.59 1574.66 887.29 1694.52 1096.67 1571.27 1311.96 1328.55 1311.96 1210.61 1518 1960 1518 1960 245"/><rect class="cls-1" width="1960" height="249"/><rect class="cls-1" y="1508" width="1960" height="256"/></g></g></svg>