<svg xmlns="http://www.w3.org/2000/svg" viewBox="0 0 1276.14 1280.48"><defs><style>.cls-1{fill:#d5a64e;}.cls-1,.cls-2{opacity:0.3;}.cls-2{fill:#cc6739;}.cls-3{fill:#050100;stroke:#000;stroke-miterlimit:10;stroke-width:7.48px;}</style></defs><g id="Layer_2" data-name="Layer 2"><g id="Layer_1-2" data-name="Layer 1"><polygon class="cls-1" points="393.62 638.19 296.66 470.24 393.62 302.29 587.55 302.29 684.52 470.24 587.55 638.19 393.62 638.19"/><path d="M585.21,306.35l94.63,163.89-94.63,163.9H396l-94.62-163.9L396,306.35H585.21m4.68-8.11H391.28l-99.3,172,99.3,172H589.89l99.31-172-99.31-172Z"/><polygon class="cls-2" points="392.62 974.19 295.66 806.24 392.62 638.29 586.55 638.29 683.52 806.24 586.55 974.19 392.62 974.19"/><path d="M584.21,642.35l94.63,163.89-94.63,163.9H395l-94.62-163.9L395,642.35H584.21m4.68-8.11H390.28l-99.3,172,99.3,172H588.89l99.31-172-99.31-172Z"/><polygon class="cls-1" points="684.52 807.19 587.55 639.24 684.52 471.29 878.45 471.29 975.41 639.24 878.45 807.19 684.52 807.19"/><path d="M876.11,475.35l94.62,163.89-94.62,163.9H686.86l-94.63-163.9,94.63-163.89H876.11m4.67-8.11H682.18l-99.31,172,99.31,172h198.6l99.31-172-99.31-172Z"/><polygon class="cls-2" points="974.5 977.19 877.54 809.24 974.5 641.29 1168.43 641.29 1265.4 809.24 1168.43 977.19 974.5 977.19"/><path d="M1166.09,645.35l94.63,163.89-94.63,163.9H976.84l-94.62-163.9,94.62-163.89h189.25m4.68-8.11H972.16l-99.3,172,99.3,172h198.61l99.31-172-99.31-172Z"/><polygon class="cls-2" points="101.64 806.19 4.68 638.24 101.64 470.29 295.57 470.29 392.54 638.24 295.57 806.19 101.64 806.19"/><path d="M293.23,474.35l94.63,163.89-94.63,163.9H104L9.36,638.24,104,474.35H293.23m4.68-8.11H99.3L0,638.24l99.3,172H297.91l99.31-172-99.31-172Z"/><polygon class="cls-2" points="682.52 1144.19 585.55 976.24 682.52 808.29 876.45 808.29 973.41 976.24 876.45 1144.19 682.52 1144.19"/><path d="M874.11,812.35l94.62,163.89-94.62,163.9H684.86l-94.63-163.9,94.63-163.89H874.11m4.67-8.11H680.18l-99.31,172,99.31,172h198.6l99.31-172-99.31-172Z"/><polygon class="cls-2" points="976.5 639.19 879.54 471.24 976.5 303.29 1170.43 303.29 1267.4 471.24 1170.43 639.19 976.5 639.19"/><path d="M1168.09,307.35l94.63,163.89-94.63,163.9H978.84l-94.62-163.9,94.62-163.89h189.25m4.68-8.11H974.16l-99.3,172,99.3,172h198.61l99.31-172-99.31-172Z"/><polygon class="cls-2" points="685.52 471.19 588.55 303.24 685.52 135.29 879.45 135.29 976.41 303.24 879.45 471.19 685.52 471.19"/><path d="M877.11,139.35l94.62,163.89-94.62,163.9H687.86l-94.63-163.9,94.63-163.89H877.11m4.67-8.11H683.18l-99.31,172,99.31,172h198.6l99.31-172-99.31-172Z"/><polygon class="cls-3" points="4.36 3.74 4.36 629.24 98.47 466.24 293.45 466.24 390.45 298.24 585.92 298.24 682.34 131.24 880.95 131.24 977.95 299.24 1171.94 299.24 1271.24 471.24 1172.67 641.97 1269.24 809.24 1169.94 981.24 974.37 981.24 877.95 1148.24 679.34 1148.24 581.19 978.24 389.45 978.24 292.45 810.24 98.47 810.24 4.36 647.24 4.36 1276.74 1272.4 1276.74 1272.4 3.74 4.36 3.74"/></g></g></svg>