<svg xmlns="http://www.w3.org/2000/svg" viewBox="0 0 2030.12 1118.22"><defs><style>.cls-1{fill:#c70804;}</style></defs><g id="Layer_2" data-name="Layer 2"><g id="Layer_1-2" data-name="Layer 1"><rect class="cls-1" x="984.73" y="797.16" width="770.07" height="321.07"/><rect class="cls-1" y="318.16" width="1110.59" height="800.06"/><polygon points="96.19 479.36 4.43 320.42 96.19 161.49 279.71 161.49 371.47 320.42 279.71 479.36 96.19 479.36"/><path class="cls-1" d="M277.5,165.33,367,320.42,277.5,475.52H98.4L8.86,320.42,98.4,165.33H277.5m4.42-7.67H94L0,320.42,94,483.19h188l94-162.77-94-162.76Z"/><polygon points="371.45 640.57 279.69 481.64 371.45 322.7 554.97 322.7 646.73 481.64 554.97 640.57 371.45 640.57"/><path class="cls-1" d="M552.75,326.54l89.55,155.1L552.75,636.73H373.66L284.11,481.64l89.55-155.1H552.75m4.43-7.67H369.23l-94,162.77,94,162.76H557.18l94-162.76-94-162.77Z"/><polygon points="649.41 482.06 557.65 323.13 649.41 164.19 832.93 164.19 924.69 323.13 832.93 482.06 649.41 482.06"/><path class="cls-1" d="M830.72,168l89.54,155.1-89.54,155.1H651.62l-89.54-155.1L651.62,168h179.1m4.42-7.67H647.19l-94,162.77,94,162.77H835.14l94-162.77-94-162.77Z"/><polygon points="925.52 640.57 833.76 481.64 925.52 322.7 1109.04 322.7 1200.8 481.64 1109.04 640.57 925.52 640.57"/><path class="cls-1" d="M1106.83,326.54l89.54,155.1-89.54,155.09H927.73L838.19,481.64l89.54-155.1h179.1m4.42-7.67h-188l-94,162.77,94,162.76h188l94-162.76-94-162.77Z"/><polygon points="1198.22 799.08 1106.46 640.14 1198.22 481.21 1381.74 481.21 1473.5 640.14 1381.74 799.08 1198.22 799.08"/><path class="cls-1" d="M1379.53,485l89.54,155.1-89.54,155.1h-179.1l-89.54-155.1L1200.43,485h179.1m4.42-7.67H1196l-94,162.77,94,162.77H1384l94-162.77-94-162.77Z"/><polygon points="925.52 959.29 833.76 800.36 925.52 641.42 1109.04 641.42 1200.8 800.36 1109.04 959.29 925.52 959.29"/><path class="cls-1" d="M1106.83,645.26l89.54,155.1-89.54,155.09H927.73L838.19,800.36l89.54-155.1h179.1m4.42-7.67h-188l-94,162.77,94,162.76h188l94-162.76-94-162.77Z"/><polygon points="1201.63 1114.39 1109.87 955.45 1201.63 796.52 1385.15 796.52 1476.91 955.45 1385.15 1114.39 1201.63 1114.39"/><path class="cls-1" d="M1382.94,800.36l89.54,155.09-89.54,155.1h-179.1l-89.54-155.1,89.54-155.09h179.1m4.42-7.67H1199.41l-94,162.76,94,162.77h187.95l94-162.77-94-162.76Z"/><polygon points="1476.04 959.29 1384.27 800.36 1476.04 641.42 1659.56 641.42 1751.32 800.36 1659.56 959.29 1476.04 959.29"/><path class="cls-1" d="M1657.34,645.26l89.55,155.1-89.55,155.09H1478.25L1388.7,800.36l89.55-155.1h179.09m4.43-7.67h-188l-94,162.77,94,162.76h188l94-162.76-94-162.77Z"/><polygon points="372.52 321.7 280.76 162.77 372.52 3.83 556.04 3.83 647.8 162.77 556.04 321.7 372.52 321.7"/><path class="cls-1" d="M553.83,7.67l89.54,155.1-89.54,155.1H374.73l-89.54-155.1L374.73,7.67h179.1M558.25,0H370.3l-94,162.77,94,162.77h188l94-162.77L558.25,0Z"/><polygon points="1750.41 1114.39 1658.65 955.45 1750.41 796.52 1933.93 796.52 2025.69 955.45 1933.93 1114.39 1750.41 1114.39"/><path class="cls-1" d="M1931.72,800.36l89.54,155.09-89.54,155.1h-179.1l-89.54-155.1,89.54-155.09h179.1m4.43-7.67h-188l-94,162.76,94,162.77h188l94-162.77-94-162.76Z"/></g></g></svg>