<svg xmlns="http://www.w3.org/2000/svg" viewBox="0 0 2030.12 1118.22"><defs><style>.cls-1{fill:#020000;}.cls-2{fill:#c70804;}</style></defs><g id="Layer_2" data-name="Layer 2"><g id="Layer_1-2" data-name="Layer 1"><rect class="cls-1" x="275.33" width="770.07" height="321.07"/><rect class="cls-1" x="919.53" width="1110.59" height="800.06"/><polygon points="1750.41 956.73 1658.65 797.8 1750.41 638.87 1933.93 638.87 2025.69 797.8 1933.93 956.73 1750.41 956.73"/><path class="cls-2" d="M1931.72,642.7l89.54,155.1-89.54,155.1h-179.1l-89.54-155.1,89.54-155.1h179.1m4.43-7.67h-188l-94,162.77,94,162.77h188l94-162.77-94-162.77Z"/><polygon points="1475.15 795.52 1383.39 636.59 1475.15 477.65 1658.67 477.65 1750.43 636.59 1658.67 795.52 1475.15 795.52"/><path class="cls-2" d="M1656.46,481.49,1746,636.59l-89.55,155.1H1477.37l-89.55-155.1,89.55-155.1h179.09m4.43-7.67h-188l-94,162.77,94,162.77h188l94-162.77-94-162.77Z"/><polygon points="1197.19 954.03 1105.43 795.1 1197.19 636.16 1380.71 636.16 1472.47 795.1 1380.71 954.03 1197.19 954.03"/><path class="cls-2" d="M1378.5,640,1468,795.09l-89.54,155.1H1199.4l-89.54-155.1L1199.4,640h179.1m4.42-7.67H1195l-94,162.76,94,162.77h187.94l94-162.77-94-162.76Z"/><polygon points="921.08 795.52 829.32 636.59 921.08 477.65 1104.6 477.65 1196.36 636.59 1104.6 795.52 921.08 795.52"/><path class="cls-2" d="M1102.39,481.49l89.54,155.1-89.54,155.1H923.29l-89.54-155.1,89.54-155.1h179.1m4.42-7.67H918.87l-94,162.77,94,162.77h187.94l94-162.77-94-162.77Z"/><polygon points="648.38 637.01 556.62 478.08 648.38 319.15 831.9 319.15 923.66 478.08 831.9 637.01 648.38 637.01"/><path class="cls-2" d="M829.69,323l89.54,155.1-89.54,155.1H650.59l-89.54-155.1L650.59,323h179.1m4.42-7.67h-188l-94,162.77,94,162.77h188l94-162.77-94-162.77Z"/><polygon points="921.08 476.8 829.32 317.87 921.08 158.93 1104.6 158.93 1196.36 317.87 1104.6 476.8 921.08 476.8"/><path class="cls-2" d="M1102.39,162.77l89.54,155.1L1102.39,473H923.29l-89.54-155.1,89.54-155.1h179.1m4.42-7.67H918.87l-94,162.77,94,162.77h187.94l94-162.77-94-162.77Z"/><polygon points="644.97 321.7 553.21 162.77 644.97 3.83 828.49 3.83 920.25 162.77 828.49 321.7 644.97 321.7"/><path class="cls-2" d="M826.28,7.67l89.54,155.1-89.54,155.1H647.18l-89.54-155.1L647.18,7.67h179.1M830.7,0H642.76l-94,162.77,94,162.77H830.7l94-162.77L830.7,0Z"/><polygon points="370.56 476.8 278.8 317.87 370.56 158.93 554.09 158.93 645.85 317.87 554.09 476.8 370.56 476.8"/><path class="cls-2" d="M551.87,162.77l89.55,155.1L551.87,473H372.78l-89.55-155.1,89.55-155.1H551.87m4.43-7.67H368.35l-94,162.77,94,162.77H556.3l94-162.77-94-162.77Z"/><polygon points="1474.08 1114.39 1382.32 955.45 1474.08 796.52 1657.6 796.52 1749.36 955.45 1657.6 1114.39 1474.08 1114.39"/><path class="cls-2" d="M1655.39,800.36l89.54,155.09-89.54,155.1h-179.1l-89.54-155.1,89.54-155.09h179.1m4.43-7.67h-188l-94,162.76,94,162.77h188l94-162.77-94-162.76Z"/><polygon points="96.19 321.7 4.43 162.77 96.19 3.83 279.71 3.83 371.47 162.77 279.71 321.7 96.19 321.7"/><path class="cls-2" d="M277.5,7.67,367,162.77,277.5,317.87H98.4L8.86,162.77,98.4,7.67H277.5M281.92,0H94L0,162.77,94,325.54h188l94-162.77L281.92,0Z"/></g></g></svg>