<svg xmlns="http://www.w3.org/2000/svg" viewBox="0 0 415 363.33"><defs><style>.cls-1{fill:none;}</style></defs><g id="Layer_2" data-name="Layer 2"><g id="Layer_1-2" data-name="Layer 1"><path class="cls-1" d="M148.38,217a11.09,11.09,0,0,1-5.2,5.06,11.85,11.85,0,0,1,5.2,4.37,11.88,11.88,0,0,1,5.21-4.37A11.12,11.12,0,0,1,148.38,217Z"/><path class="cls-1" d="M148.38,194.11a10.29,10.29,0,0,1-7.62,7.15,11,11,0,0,1,7.62,5.87,11.07,11.07,0,0,1,7.63-5.87A10.32,10.32,0,0,1,148.38,194.11Z"/><path class="cls-1" d="M148.38,261.6a12.55,12.55,0,0,1-2.2,2.17,13.24,13.24,0,0,1,2.2,2,13.31,13.31,0,0,1,2.21-2A13,13,0,0,1,148.38,261.6Z"/><path class="cls-1" d="M148.38,239.44a11.8,11.8,0,0,1-3.57,3.5,12.49,12.49,0,0,1,3.57,3.1,12.67,12.67,0,0,1,3.58-3.1A12,12,0,0,1,148.38,239.44Z"/><path class="cls-1" d="M168.14,239.44a12,12,0,0,1-3.58,3.5,12.67,12.67,0,0,1,3.58,3.1,12.49,12.49,0,0,1,3.57-3.1A11.8,11.8,0,0,1,168.14,239.44Z"/><path class="cls-1" d="M168.14,261.6a13,13,0,0,1-2.21,2.17,13.72,13.72,0,0,1,2.21,2,13.24,13.24,0,0,1,2.2-2A12.55,12.55,0,0,1,168.14,261.6Z"/><path class="cls-1" d="M128.63,217a11.09,11.09,0,0,1-5.2,5.06,11.85,11.85,0,0,1,5.2,4.37,11.85,11.85,0,0,1,5.2-4.37A11.14,11.14,0,0,1,128.63,217Z"/><path class="cls-1" d="M128.63,261.6a12.55,12.55,0,0,1-2.2,2.17,13.65,13.65,0,0,1,2.2,2,13.31,13.31,0,0,1,2.21-2A12.27,12.27,0,0,1,128.63,261.6Z"/><path class="cls-1" d="M108.88,194.11a10.29,10.29,0,0,1-7.62,7.15,11.06,11.06,0,0,1,7.62,5.87,11,11,0,0,1,7.62-5.87A10.29,10.29,0,0,1,108.88,194.11Z"/><path class="cls-1" d="M168.14,217a11.12,11.12,0,0,1-5.21,5.06,11.88,11.88,0,0,1,5.21,4.37,11.8,11.8,0,0,1,5.2-4.37A11.09,11.09,0,0,1,168.14,217Z"/><path class="cls-1" d="M128.63,194.11a10.29,10.29,0,0,1-7.62,7.15,11,11,0,0,1,7.62,5.87,11.06,11.06,0,0,1,7.62-5.87A10.29,10.29,0,0,1,128.63,194.11Z"/><path class="cls-1" d="M128.63,239.44a12,12,0,0,1-3.57,3.5,12.49,12.49,0,0,1,3.57,3.1,12.63,12.63,0,0,1,3.57-3.1A12,12,0,0,1,128.63,239.44Z"/><path class="cls-1" d="M227.39,239.44a11.8,11.8,0,0,1-3.57,3.5,12.49,12.49,0,0,1,3.57,3.1,12.67,12.67,0,0,1,3.58-3.1A12,12,0,0,1,227.39,239.44Z"/><path class="cls-1" d="M207.64,194.11a10.29,10.29,0,0,1-7.62,7.15,11,11,0,0,1,7.62,5.87,11.06,11.06,0,0,1,7.62-5.87A10.29,10.29,0,0,1,207.64,194.11Z"/><path class="cls-1" d="M207.64,217a11.09,11.09,0,0,1-5.2,5.06,11.85,11.85,0,0,1,5.2,4.37,11.85,11.85,0,0,1,5.2-4.37A11.14,11.14,0,0,1,207.64,217Z"/><path class="cls-1" d="M207.64,239.44a12,12,0,0,1-3.57,3.5,12.49,12.49,0,0,1,3.57,3.1,12.63,12.63,0,0,1,3.57-3.1A12,12,0,0,1,207.64,239.44Z"/><path class="cls-1" d="M108.88,217a11.14,11.14,0,0,1-5.2,5.06,11.91,11.91,0,0,1,5.2,4.37,11.85,11.85,0,0,1,5.2-4.37A11.09,11.09,0,0,1,108.88,217Z"/><path class="cls-1" d="M227.39,261.6a12.55,12.55,0,0,1-2.2,2.17,13.24,13.24,0,0,1,2.2,2,13.31,13.31,0,0,1,2.21-2A13,13,0,0,1,227.39,261.6Z"/><path class="cls-1" d="M187.89,217a11.14,11.14,0,0,1-5.2,5.06,11.91,11.91,0,0,1,5.2,4.37,11.85,11.85,0,0,1,5.2-4.37A11.09,11.09,0,0,1,187.89,217Z"/><path class="cls-1" d="M207.64,261.6a12.55,12.55,0,0,1-2.2,2.17,13.65,13.65,0,0,1,2.2,2,13.31,13.31,0,0,1,2.21-2A12.27,12.27,0,0,1,207.64,261.6Z"/><path class="cls-1" d="M187.89,239.44a12,12,0,0,1-3.58,3.5,12.53,12.53,0,0,1,3.58,3.1,12.49,12.49,0,0,1,3.57-3.1A12,12,0,0,1,187.89,239.44Z"/><path class="cls-1" d="M187.89,261.6a12.27,12.27,0,0,1-2.21,2.17,13.31,13.31,0,0,1,2.21,2,13.65,13.65,0,0,1,2.2-2A12.55,12.55,0,0,1,187.89,261.6Z"/><path class="cls-1" d="M168.14,194.11a10.32,10.32,0,0,1-7.63,7.15,11.07,11.07,0,0,1,7.63,5.87,11,11,0,0,1,7.62-5.87A10.29,10.29,0,0,1,168.14,194.11Z"/><path class="cls-1" d="M187.89,194.11a10.29,10.29,0,0,1-7.62,7.15,11.06,11.06,0,0,1,7.62,5.87,11,11,0,0,1,7.62-5.87A10.29,10.29,0,0,1,187.89,194.11Z"/><path class="cls-1" d="M108.88,261.6a12.27,12.27,0,0,1-2.21,2.17,13.31,13.31,0,0,1,2.21,2,13.65,13.65,0,0,1,2.2-2A12.55,12.55,0,0,1,108.88,261.6Z"/><path class="cls-1" d="M49.62,239.44a12,12,0,0,1-3.57,3.5,12.49,12.49,0,0,1,3.57,3.1,12.63,12.63,0,0,1,3.57-3.1A12,12,0,0,1,49.62,239.44Z"/><path class="cls-1" d="M29.87,261.6a12.27,12.27,0,0,1-2.21,2.17,13.31,13.31,0,0,1,2.21,2,13.65,13.65,0,0,1,2.2-2A12.55,12.55,0,0,1,29.87,261.6Z"/><path class="cls-1" d="M29.87,239.44a12,12,0,0,1-3.58,3.5,12.53,12.53,0,0,1,3.58,3.1,12.49,12.49,0,0,1,3.57-3.1A12,12,0,0,1,29.87,239.44Z"/><path class="cls-1" d="M108.88,239.44a12,12,0,0,1-3.58,3.5,12.53,12.53,0,0,1,3.58,3.1,12.49,12.49,0,0,1,3.57-3.1A12,12,0,0,1,108.88,239.44Z"/><path class="cls-1" d="M29.87,194.11a10.29,10.29,0,0,1-7.62,7.15,11.06,11.06,0,0,1,7.62,5.87,11,11,0,0,1,7.62-5.87A10.29,10.29,0,0,1,29.87,194.11Z"/><path class="cls-1" d="M29.87,217a11.14,11.14,0,0,1-5.2,5.06,11.91,11.91,0,0,1,5.2,4.37,11.85,11.85,0,0,1,5.2-4.37A11.09,11.09,0,0,1,29.87,217Z"/><path class="cls-1" d="M10.12,261.6a13,13,0,0,1-2.21,2.17,13.72,13.72,0,0,1,2.21,2,13.24,13.24,0,0,1,2.2-2A12.55,12.55,0,0,1,10.12,261.6Z"/><path class="cls-1" d="M10.12,194.11a10.32,10.32,0,0,1-7.63,7.15,11.07,11.07,0,0,1,7.63,5.87,11,11,0,0,1,7.62-5.87A10.29,10.29,0,0,1,10.12,194.11Z"/><path class="cls-1" d="M10.12,217a11.12,11.12,0,0,1-5.21,5.06,11.88,11.88,0,0,1,5.21,4.37,11.8,11.8,0,0,1,5.2-4.37A11.09,11.09,0,0,1,10.12,217Z"/><path class="cls-1" d="M10.12,239.44a12,12,0,0,1-3.58,3.5,12.67,12.67,0,0,1,3.58,3.1,12.49,12.49,0,0,1,3.57-3.1A11.8,11.8,0,0,1,10.12,239.44Z"/><path class="cls-1" d="M49.62,261.6a12.55,12.55,0,0,1-2.2,2.17,13.65,13.65,0,0,1,2.2,2,13.31,13.31,0,0,1,2.21-2A12.27,12.27,0,0,1,49.62,261.6Z"/><path class="cls-1" d="M89.13,217a11.12,11.12,0,0,1-5.21,5.06,11.88,11.88,0,0,1,5.21,4.37,11.8,11.8,0,0,1,5.2-4.37A11.09,11.09,0,0,1,89.13,217Z"/><path class="cls-1" d="M89.13,239.44a12,12,0,0,1-3.58,3.5,12.67,12.67,0,0,1,3.58,3.1,12.49,12.49,0,0,1,3.57-3.1A11.8,11.8,0,0,1,89.13,239.44Z"/><path class="cls-1" d="M89.13,194.11a10.32,10.32,0,0,1-7.63,7.15,11.07,11.07,0,0,1,7.63,5.87,11,11,0,0,1,7.62-5.87A10.29,10.29,0,0,1,89.13,194.11Z"/><path class="cls-1" d="M227.39,217a11.09,11.09,0,0,1-5.2,5.06,11.85,11.85,0,0,1,5.2,4.37,11.88,11.88,0,0,1,5.21-4.37A11.12,11.12,0,0,1,227.39,217Z"/><path class="cls-1" d="M89.13,261.6a13,13,0,0,1-2.21,2.17,13.72,13.72,0,0,1,2.21,2,13.24,13.24,0,0,1,2.2-2A12.55,12.55,0,0,1,89.13,261.6Z"/><path class="cls-1" d="M69.37,217a11.09,11.09,0,0,1-5.2,5.06,11.85,11.85,0,0,1,5.2,4.37,11.88,11.88,0,0,1,5.21-4.37A11.12,11.12,0,0,1,69.37,217Z"/><path class="cls-1" d="M49.62,194.11A10.29,10.29,0,0,1,42,201.26a11,11,0,0,1,7.62,5.87,11.06,11.06,0,0,1,7.62-5.87A10.29,10.29,0,0,1,49.62,194.11Z"/><path class="cls-1" d="M69.37,194.11a10.29,10.29,0,0,1-7.62,7.15,11,11,0,0,1,7.62,5.87A11.07,11.07,0,0,1,77,201.26,10.32,10.32,0,0,1,69.37,194.11Z"/><path class="cls-1" d="M69.37,261.6a12.55,12.55,0,0,1-2.2,2.17,13.24,13.24,0,0,1,2.2,2,13.31,13.31,0,0,1,2.21-2A13,13,0,0,1,69.37,261.6Z"/><path class="cls-1" d="M49.62,217a11.09,11.09,0,0,1-5.2,5.06,11.85,11.85,0,0,1,5.2,4.37,11.85,11.85,0,0,1,5.2-4.37A11.14,11.14,0,0,1,49.62,217Z"/><path class="cls-1" d="M69.37,239.44a11.8,11.8,0,0,1-3.57,3.5,12.49,12.49,0,0,1,3.57,3.1,12.67,12.67,0,0,1,3.58-3.1A12,12,0,0,1,69.37,239.44Z"/><path class="cls-1" d="M345.91,217a11.14,11.14,0,0,1-5.2,5.06,11.91,11.91,0,0,1,5.2,4.37,11.85,11.85,0,0,1,5.2-4.37A11.09,11.09,0,0,1,345.91,217Z"/><path class="cls-1" d="M385.41,239.44a11.8,11.8,0,0,1-3.57,3.5,12.49,12.49,0,0,1,3.57,3.1,12.67,12.67,0,0,1,3.58-3.1A12,12,0,0,1,385.41,239.44Z"/><path class="cls-1" d="M365.66,239.44a12,12,0,0,1-3.57,3.5,12.49,12.49,0,0,1,3.57,3.1,12.63,12.63,0,0,1,3.57-3.1A12,12,0,0,1,365.66,239.44Z"/><path class="cls-1" d="M365.66,261.6a12.55,12.55,0,0,1-2.2,2.17,13.65,13.65,0,0,1,2.2,2,13.31,13.31,0,0,1,2.21-2A12.27,12.27,0,0,1,365.66,261.6Z"/><path class="cls-1" d="M365.66,194.11a10.29,10.29,0,0,1-7.62,7.15,11,11,0,0,1,7.62,5.87,11.06,11.06,0,0,1,7.62-5.87A10.29,10.29,0,0,1,365.66,194.11Z"/><path class="cls-1" d="M365.66,217a11.09,11.09,0,0,1-5.2,5.06,11.85,11.85,0,0,1,5.2,4.37,11.85,11.85,0,0,1,5.2-4.37A11.14,11.14,0,0,1,365.66,217Z"/><path class="cls-1" d="M345.91,261.6a12.27,12.27,0,0,1-2.21,2.17,13.31,13.31,0,0,1,2.21,2,13.65,13.65,0,0,1,2.2-2A12.55,12.55,0,0,1,345.91,261.6Z"/><path class="cls-1" d="M326.16,194.11a10.32,10.32,0,0,1-7.63,7.15,11.07,11.07,0,0,1,7.63,5.87,11,11,0,0,1,7.62-5.87A10.29,10.29,0,0,1,326.16,194.11Z"/><path class="cls-1" d="M345.91,239.44a12,12,0,0,1-3.58,3.5,12.53,12.53,0,0,1,3.58,3.1,12.49,12.49,0,0,1,3.57-3.1A12,12,0,0,1,345.91,239.44Z"/><path class="cls-1" d="M345.91,194.11a10.29,10.29,0,0,1-7.62,7.15,11.06,11.06,0,0,1,7.62,5.87,11,11,0,0,1,7.62-5.87A10.29,10.29,0,0,1,345.91,194.11Z"/><path class="cls-1" d="M405.17,261.6a13,13,0,0,1-2.21,2.17,13.72,13.72,0,0,1,2.21,2,13.24,13.24,0,0,1,2.2-2A12.55,12.55,0,0,1,405.17,261.6Z"/><path class="cls-1" d="M405.17,217A11.12,11.12,0,0,1,400,222.1a11.88,11.88,0,0,1,5.21,4.37,11.8,11.8,0,0,1,5.2-4.37A11.09,11.09,0,0,1,405.17,217Z"/><path class="cls-1" d="M227.39,194.11a10.29,10.29,0,0,1-7.62,7.15,11,11,0,0,1,7.62,5.87,11.07,11.07,0,0,1,7.63-5.87A10.32,10.32,0,0,1,227.39,194.11Z"/><path class="cls-1" d="M397.54,201.26a11.07,11.07,0,0,1,7.63,5.87,11,11,0,0,1,7.62-5.87,10.29,10.29,0,0,1-7.62-7.15A10.32,10.32,0,0,1,397.54,201.26Z"/><path class="cls-1" d="M385.41,217a11.09,11.09,0,0,1-5.2,5.06,11.85,11.85,0,0,1,5.2,4.37,11.88,11.88,0,0,1,5.21-4.37A11.12,11.12,0,0,1,385.41,217Z"/><path class="cls-1" d="M385.41,194.11a10.29,10.29,0,0,1-7.62,7.15,11,11,0,0,1,7.62,5.87,11.07,11.07,0,0,1,7.63-5.87A10.32,10.32,0,0,1,385.41,194.11Z"/><path class="cls-1" d="M405.17,239.44a12,12,0,0,1-3.58,3.5,12.67,12.67,0,0,1,3.58,3.1,12.49,12.49,0,0,1,3.57-3.1A11.8,11.8,0,0,1,405.17,239.44Z"/><path class="cls-1" d="M326.16,217A11.12,11.12,0,0,1,321,222.1a11.88,11.88,0,0,1,5.21,4.37,11.8,11.8,0,0,1,5.2-4.37A11.09,11.09,0,0,1,326.16,217Z"/><path class="cls-1" d="M385.41,261.6a12.55,12.55,0,0,1-2.2,2.17,13.24,13.24,0,0,1,2.2,2,13.31,13.31,0,0,1,2.21-2A13,13,0,0,1,385.41,261.6Z"/><path class="cls-1" d="M266.9,217a11.14,11.14,0,0,1-5.2,5.06,11.91,11.91,0,0,1,5.2,4.37,11.85,11.85,0,0,1,5.2-4.37A11.09,11.09,0,0,1,266.9,217Z"/><path class="cls-1" d="M266.9,239.44a12,12,0,0,1-3.58,3.5,12.53,12.53,0,0,1,3.58,3.1,12.49,12.49,0,0,1,3.57-3.1A12,12,0,0,1,266.9,239.44Z"/><path class="cls-1" d="M286.65,239.44a12,12,0,0,1-3.57,3.5,12.49,12.49,0,0,1,3.57,3.1,12.63,12.63,0,0,1,3.57-3.1A12,12,0,0,1,286.65,239.44Z"/><path class="cls-1" d="M286.65,261.6a12.55,12.55,0,0,1-2.2,2.17,13.65,13.65,0,0,1,2.2,2,13.31,13.31,0,0,1,2.21-2A12.27,12.27,0,0,1,286.65,261.6Z"/><path class="cls-1" d="M266.9,261.6a12.27,12.27,0,0,1-2.21,2.17,13.31,13.31,0,0,1,2.21,2,13.65,13.65,0,0,1,2.2-2A12.55,12.55,0,0,1,266.9,261.6Z"/><path class="cls-1" d="M326.16,239.44a12,12,0,0,1-3.58,3.5,12.67,12.67,0,0,1,3.58,3.1,12.49,12.49,0,0,1,3.57-3.1A11.8,11.8,0,0,1,326.16,239.44Z"/><path class="cls-1" d="M247.15,239.44a12,12,0,0,1-3.58,3.5,12.67,12.67,0,0,1,3.58,3.1,12.49,12.49,0,0,1,3.57-3.1A11.8,11.8,0,0,1,247.15,239.44Z"/><path class="cls-1" d="M247.15,194.11a10.32,10.32,0,0,1-7.63,7.15,11.07,11.07,0,0,1,7.63,5.87,11,11,0,0,1,7.62-5.87A10.29,10.29,0,0,1,247.15,194.11Z"/><path class="cls-1" d="M247.15,217a11.12,11.12,0,0,1-5.21,5.06,11.88,11.88,0,0,1,5.21,4.37,11.8,11.8,0,0,1,5.2-4.37A11.09,11.09,0,0,1,247.15,217Z"/><path class="cls-1" d="M266.9,194.11a10.29,10.29,0,0,1-7.62,7.15,11.06,11.06,0,0,1,7.62,5.87,11,11,0,0,1,7.62-5.87A10.29,10.29,0,0,1,266.9,194.11Z"/><path class="cls-1" d="M306.4,217a11.09,11.09,0,0,1-5.2,5.06,11.85,11.85,0,0,1,5.2,4.37,11.88,11.88,0,0,1,5.21-4.37A11.12,11.12,0,0,1,306.4,217Z"/><path class="cls-1" d="M306.4,194.11a10.29,10.29,0,0,1-7.62,7.15,11,11,0,0,1,7.62,5.87,11.07,11.07,0,0,1,7.63-5.87A10.32,10.32,0,0,1,306.4,194.11Z"/><path class="cls-1" d="M306.4,239.44a11.8,11.8,0,0,1-3.57,3.5,12.49,12.49,0,0,1,3.57,3.1,12.67,12.67,0,0,1,3.58-3.1A12,12,0,0,1,306.4,239.44Z"/><path class="cls-1" d="M326.16,261.6a13,13,0,0,1-2.21,2.17,13.72,13.72,0,0,1,2.21,2,13.24,13.24,0,0,1,2.2-2A12.55,12.55,0,0,1,326.16,261.6Z"/><path class="cls-1" d="M247.15,261.6a13,13,0,0,1-2.21,2.17,13.72,13.72,0,0,1,2.21,2,13.24,13.24,0,0,1,2.2-2A12.55,12.55,0,0,1,247.15,261.6Z"/><path class="cls-1" d="M286.65,217a11.09,11.09,0,0,1-5.2,5.06,11.85,11.85,0,0,1,5.2,4.37,11.85,11.85,0,0,1,5.2-4.37A11.14,11.14,0,0,1,286.65,217Z"/><path class="cls-1" d="M286.65,194.11a10.29,10.29,0,0,1-7.62,7.15,11,11,0,0,1,7.62,5.87,11.06,11.06,0,0,1,7.62-5.87A10.29,10.29,0,0,1,286.65,194.11Z"/><path class="cls-1" d="M306.4,261.6a12.55,12.55,0,0,1-2.2,2.17,13.24,13.24,0,0,1,2.2,2,13.31,13.31,0,0,1,2.21-2A13,13,0,0,1,306.4,261.6Z"/><path d="M405.17,188.33a10.3,10.3,0,0,0-19.76,0,10.29,10.29,0,0,0-19.75,0,10.29,10.29,0,0,0-19.75,0,10.29,10.29,0,0,0-19.75,0,10.3,10.3,0,0,0-19.76,0,10.29,10.29,0,0,0-19.75,0,10.29,10.29,0,0,0-19.75,0,10.29,10.29,0,0,0-19.75,0,10.3,10.3,0,0,0-19.76,0,10.29,10.29,0,0,0-19.75,0,10.29,10.29,0,0,0-19.75,0,10.29,10.29,0,0,0-19.75,0,10.3,10.3,0,0,0-19.76,0,10.29,10.29,0,0,0-19.75,0,10.29,10.29,0,0,0-19.75,0,10.29,10.29,0,0,0-19.75,0,10.3,10.3,0,0,0-19.76,0,10.29,10.29,0,0,0-19.75,0,10.29,10.29,0,0,0-19.75,0,10.29,10.29,0,0,0-19.75,0,10.29,10.29,0,0,0-9.88-7.4H0V363.33H415V180.93A10.29,10.29,0,0,0,405.17,188.33Zm-395,77.4a13.72,13.72,0,0,0-2.21-2,13,13,0,0,0,2.21-2.17,12.55,12.55,0,0,0,2.2,2.17A13.24,13.24,0,0,0,10.12,265.73Zm0-19.69a12.67,12.67,0,0,0-3.58-3.1,12,12,0,0,0,3.58-3.5,11.8,11.8,0,0,0,3.57,3.5A12.49,12.49,0,0,0,10.12,246Zm0-19.57a11.88,11.88,0,0,0-5.21-4.37A11.12,11.12,0,0,0,10.12,217a11.09,11.09,0,0,0,5.2,5.06A11.8,11.8,0,0,0,10.12,226.47Zm0-19.34a11.07,11.07,0,0,0-7.63-5.87,10.32,10.32,0,0,0,7.63-7.15,10.29,10.29,0,0,0,7.62,7.15A11,11,0,0,0,10.12,207.13Zm19.75,58.6a13.31,13.31,0,0,0-2.21-2,12.27,12.27,0,0,0,2.21-2.17,12.55,12.55,0,0,0,2.2,2.17A13.65,13.65,0,0,0,29.87,265.73Zm0-19.69a12.53,12.53,0,0,0-3.58-3.1,12,12,0,0,0,3.58-3.5,12,12,0,0,0,3.57,3.5A12.49,12.49,0,0,0,29.87,246Zm0-19.57a11.91,11.91,0,0,0-5.2-4.37,11.14,11.14,0,0,0,5.2-5.06,11.09,11.09,0,0,0,5.2,5.06A11.85,11.85,0,0,0,29.87,226.47Zm0-19.34a11.06,11.06,0,0,0-7.62-5.87,10.29,10.29,0,0,0,7.62-7.15,10.29,10.29,0,0,0,7.62,7.15A11,11,0,0,0,29.87,207.13Zm19.75,58.6a13.65,13.65,0,0,0-2.2-2,12.55,12.55,0,0,0,2.2-2.17,12.27,12.27,0,0,0,2.21,2.17A13.31,13.31,0,0,0,49.62,265.73Zm0-19.69a12.49,12.49,0,0,0-3.57-3.1,12,12,0,0,0,3.57-3.5,12,12,0,0,0,3.57,3.5A12.63,12.63,0,0,0,49.62,246Zm0-19.57a11.85,11.85,0,0,0-5.2-4.37,11.09,11.09,0,0,0,5.2-5.06,11.14,11.14,0,0,0,5.2,5.06A11.85,11.85,0,0,0,49.62,226.47Zm0-19.34A11,11,0,0,0,42,201.26a10.29,10.29,0,0,0,7.62-7.15,10.29,10.29,0,0,0,7.62,7.15A11.06,11.06,0,0,0,49.62,207.13Zm19.75,58.6a13.24,13.24,0,0,0-2.2-2,12.55,12.55,0,0,0,2.2-2.17,13,13,0,0,0,2.21,2.17A13.31,13.31,0,0,0,69.37,265.73Zm0-19.69a12.49,12.49,0,0,0-3.57-3.1,11.8,11.8,0,0,0,3.57-3.5,12,12,0,0,0,3.58,3.5A12.67,12.67,0,0,0,69.37,246Zm0-19.57a11.85,11.85,0,0,0-5.2-4.37,11.09,11.09,0,0,0,5.2-5.06,11.12,11.12,0,0,0,5.21,5.06A11.88,11.88,0,0,0,69.37,226.47Zm0-19.34a11,11,0,0,0-7.62-5.87,10.29,10.29,0,0,0,7.62-7.15A10.32,10.32,0,0,0,77,201.26,11.07,11.07,0,0,0,69.37,207.13Zm19.76,58.6a13.72,13.72,0,0,0-2.21-2,13,13,0,0,0,2.21-2.17,12.55,12.55,0,0,0,2.2,2.17A13.24,13.24,0,0,0,89.13,265.73Zm0-19.69a12.67,12.67,0,0,0-3.58-3.1,12,12,0,0,0,3.58-3.5,11.8,11.8,0,0,0,3.57,3.5A12.49,12.49,0,0,0,89.13,246Zm0-19.57a11.88,11.88,0,0,0-5.21-4.37A11.12,11.12,0,0,0,89.13,217a11.09,11.09,0,0,0,5.2,5.06A11.8,11.8,0,0,0,89.13,226.47Zm0-19.34a11.07,11.07,0,0,0-7.63-5.87,10.32,10.32,0,0,0,7.63-7.15,10.29,10.29,0,0,0,7.62,7.15A11,11,0,0,0,89.13,207.13Zm19.75,58.6a13.31,13.31,0,0,0-2.21-2,12.27,12.27,0,0,0,2.21-2.17,12.55,12.55,0,0,0,2.2,2.17A13.65,13.65,0,0,0,108.88,265.73Zm0-19.69a12.53,12.53,0,0,0-3.58-3.1,12,12,0,0,0,3.58-3.5,12,12,0,0,0,3.57,3.5A12.49,12.49,0,0,0,108.88,246Zm0-19.57a11.91,11.91,0,0,0-5.2-4.37,11.14,11.14,0,0,0,5.2-5.06,11.09,11.09,0,0,0,5.2,5.06A11.85,11.85,0,0,0,108.88,226.47Zm0-19.34a11.06,11.06,0,0,0-7.62-5.87,10.29,10.29,0,0,0,7.62-7.15,10.29,10.29,0,0,0,7.62,7.15A11,11,0,0,0,108.88,207.13Zm19.75,58.6a13.65,13.65,0,0,0-2.2-2,12.55,12.55,0,0,0,2.2-2.17,12.27,12.27,0,0,0,2.21,2.17A13.31,13.31,0,0,0,128.63,265.73Zm0-19.69a12.49,12.49,0,0,0-3.57-3.1,12,12,0,0,0,3.57-3.5,12,12,0,0,0,3.57,3.5A12.63,12.63,0,0,0,128.63,246Zm0-19.57a11.85,11.85,0,0,0-5.2-4.37,11.09,11.09,0,0,0,5.2-5.06,11.14,11.14,0,0,0,5.2,5.06A11.85,11.85,0,0,0,128.63,226.47Zm0-19.34a11,11,0,0,0-7.62-5.87,10.29,10.29,0,0,0,7.62-7.15,10.29,10.29,0,0,0,7.62,7.15A11.06,11.06,0,0,0,128.63,207.13Zm19.75,58.6a13.24,13.24,0,0,0-2.2-2,12.55,12.55,0,0,0,2.2-2.17,13,13,0,0,0,2.21,2.17A13.31,13.31,0,0,0,148.38,265.73Zm0-19.69a12.49,12.49,0,0,0-3.57-3.1,11.8,11.8,0,0,0,3.57-3.5,12,12,0,0,0,3.58,3.5A12.67,12.67,0,0,0,148.38,246Zm0-19.57a11.85,11.85,0,0,0-5.2-4.37,11.09,11.09,0,0,0,5.2-5.06,11.12,11.12,0,0,0,5.21,5.06A11.88,11.88,0,0,0,148.38,226.47Zm0-19.34a11,11,0,0,0-7.62-5.87,10.29,10.29,0,0,0,7.62-7.15,10.32,10.32,0,0,0,7.63,7.15A11.07,11.07,0,0,0,148.38,207.13Zm19.76,58.6a13.72,13.72,0,0,0-2.21-2,13,13,0,0,0,2.21-2.17,12.55,12.55,0,0,0,2.2,2.17A13.24,13.24,0,0,0,168.14,265.73Zm0-19.69a12.67,12.67,0,0,0-3.58-3.1,12,12,0,0,0,3.58-3.5,11.8,11.8,0,0,0,3.57,3.5A12.49,12.49,0,0,0,168.14,246Zm0-19.57a11.88,11.88,0,0,0-5.21-4.37,11.12,11.12,0,0,0,5.21-5.06,11.09,11.09,0,0,0,5.2,5.06A11.8,11.8,0,0,0,168.14,226.47Zm0-19.34a11.07,11.07,0,0,0-7.63-5.87,10.32,10.32,0,0,0,7.63-7.15,10.29,10.29,0,0,0,7.62,7.15A11,11,0,0,0,168.14,207.13Zm19.75,58.6a13.31,13.31,0,0,0-2.21-2,12.27,12.27,0,0,0,2.21-2.17,12.55,12.55,0,0,0,2.2,2.17A13.65,13.65,0,0,0,187.89,265.73Zm0-19.69a12.53,12.53,0,0,0-3.58-3.1,12,12,0,0,0,3.58-3.5,12,12,0,0,0,3.57,3.5A12.49,12.49,0,0,0,187.89,246Zm0-19.57a11.91,11.91,0,0,0-5.2-4.37,11.14,11.14,0,0,0,5.2-5.06,11.09,11.09,0,0,0,5.2,5.06A11.85,11.85,0,0,0,187.89,226.47Zm0-19.34a11.06,11.06,0,0,0-7.62-5.87,10.29,10.29,0,0,0,7.62-7.15,10.29,10.29,0,0,0,7.62,7.15A11,11,0,0,0,187.89,207.13Zm19.75,58.6a13.65,13.65,0,0,0-2.2-2,12.55,12.55,0,0,0,2.2-2.17,12.27,12.27,0,0,0,2.21,2.17A13.31,13.31,0,0,0,207.64,265.73Zm0-19.69a12.49,12.49,0,0,0-3.57-3.1,12,12,0,0,0,3.57-3.5,12,12,0,0,0,3.57,3.5A12.63,12.63,0,0,0,207.64,246Zm0-19.57a11.85,11.85,0,0,0-5.2-4.37,11.09,11.09,0,0,0,5.2-5.06,11.14,11.14,0,0,0,5.2,5.06A11.85,11.85,0,0,0,207.64,226.47Zm0-19.34a11,11,0,0,0-7.62-5.87,10.29,10.29,0,0,0,7.62-7.15,10.29,10.29,0,0,0,7.62,7.15A11.06,11.06,0,0,0,207.64,207.13Zm19.75,58.6a13.24,13.24,0,0,0-2.2-2,12.55,12.55,0,0,0,2.2-2.17,13,13,0,0,0,2.21,2.17A13.31,13.31,0,0,0,227.39,265.73Zm0-19.69a12.49,12.49,0,0,0-3.57-3.1,11.8,11.8,0,0,0,3.57-3.5,12,12,0,0,0,3.58,3.5A12.67,12.67,0,0,0,227.39,246Zm0-19.57a11.85,11.85,0,0,0-5.2-4.37,11.09,11.09,0,0,0,5.2-5.06,11.12,11.12,0,0,0,5.21,5.06A11.88,11.88,0,0,0,227.39,226.47Zm0-19.34a11,11,0,0,0-7.62-5.87,10.29,10.29,0,0,0,7.62-7.15,10.32,10.32,0,0,0,7.63,7.15A11.07,11.07,0,0,0,227.39,207.13Zm19.76,58.6a13.72,13.72,0,0,0-2.21-2,13,13,0,0,0,2.21-2.17,12.55,12.55,0,0,0,2.2,2.17A13.24,13.24,0,0,0,247.15,265.73Zm0-19.69a12.67,12.67,0,0,0-3.58-3.1,12,12,0,0,0,3.58-3.5,11.8,11.8,0,0,0,3.57,3.5A12.49,12.49,0,0,0,247.15,246Zm0-19.57a11.88,11.88,0,0,0-5.21-4.37,11.12,11.12,0,0,0,5.21-5.06,11.09,11.09,0,0,0,5.2,5.06A11.8,11.8,0,0,0,247.15,226.47Zm0-19.34a11.07,11.07,0,0,0-7.63-5.87,10.32,10.32,0,0,0,7.63-7.15,10.29,10.29,0,0,0,7.62,7.15A11,11,0,0,0,247.15,207.13Zm19.75,58.6a13.31,13.31,0,0,0-2.21-2,12.27,12.27,0,0,0,2.21-2.17,12.55,12.55,0,0,0,2.2,2.17A13.65,13.65,0,0,0,266.9,265.73Zm0-19.69a12.53,12.53,0,0,0-3.58-3.1,12,12,0,0,0,3.58-3.5,12,12,0,0,0,3.57,3.5A12.49,12.49,0,0,0,266.9,246Zm0-19.57a11.91,11.91,0,0,0-5.2-4.37,11.14,11.14,0,0,0,5.2-5.06,11.09,11.09,0,0,0,5.2,5.06A11.85,11.85,0,0,0,266.9,226.47Zm0-19.34a11.06,11.06,0,0,0-7.62-5.87,10.29,10.29,0,0,0,7.62-7.15,10.29,10.29,0,0,0,7.62,7.15A11,11,0,0,0,266.9,207.13Zm19.75,58.6a13.65,13.65,0,0,0-2.2-2,12.55,12.55,0,0,0,2.2-2.17,12.27,12.27,0,0,0,2.21,2.17A13.31,13.31,0,0,0,286.65,265.73Zm0-19.69a12.49,12.49,0,0,0-3.57-3.1,12,12,0,0,0,3.57-3.5,12,12,0,0,0,3.57,3.5A12.63,12.63,0,0,0,286.65,246Zm0-19.57a11.85,11.85,0,0,0-5.2-4.37,11.09,11.09,0,0,0,5.2-5.06,11.14,11.14,0,0,0,5.2,5.06A11.85,11.85,0,0,0,286.65,226.47Zm0-19.34a11,11,0,0,0-7.62-5.87,10.29,10.29,0,0,0,7.62-7.15,10.29,10.29,0,0,0,7.62,7.15A11.06,11.06,0,0,0,286.65,207.13Zm19.75,58.6a13.24,13.24,0,0,0-2.2-2,12.55,12.55,0,0,0,2.2-2.17,13,13,0,0,0,2.21,2.17A13.31,13.31,0,0,0,306.4,265.73Zm0-19.69a12.49,12.49,0,0,0-3.57-3.1,11.8,11.8,0,0,0,3.57-3.5,12,12,0,0,0,3.58,3.5A12.67,12.67,0,0,0,306.4,246Zm0-19.57a11.85,11.85,0,0,0-5.2-4.37,11.09,11.09,0,0,0,5.2-5.06,11.12,11.12,0,0,0,5.21,5.06A11.88,11.88,0,0,0,306.4,226.47Zm0-19.34a11,11,0,0,0-7.62-5.87,10.29,10.29,0,0,0,7.62-7.15,10.32,10.32,0,0,0,7.63,7.15A11.07,11.07,0,0,0,306.4,207.13Zm19.76,58.6a13.72,13.72,0,0,0-2.21-2,13,13,0,0,0,2.21-2.17,12.55,12.55,0,0,0,2.2,2.17A13.24,13.24,0,0,0,326.16,265.73Zm0-19.69a12.67,12.67,0,0,0-3.58-3.1,12,12,0,0,0,3.58-3.5,11.8,11.8,0,0,0,3.57,3.5A12.49,12.49,0,0,0,326.16,246Zm0-19.57A11.88,11.88,0,0,0,321,222.1a11.12,11.12,0,0,0,5.21-5.06,11.09,11.09,0,0,0,5.2,5.06A11.8,11.8,0,0,0,326.16,226.47Zm0-19.34a11.07,11.07,0,0,0-7.63-5.87,10.32,10.32,0,0,0,7.63-7.15,10.29,10.29,0,0,0,7.62,7.15A11,11,0,0,0,326.16,207.13Zm19.75,58.6a13.31,13.31,0,0,0-2.21-2,12.27,12.27,0,0,0,2.21-2.17,12.55,12.55,0,0,0,2.2,2.17A13.65,13.65,0,0,0,345.91,265.73Zm0-19.69a12.53,12.53,0,0,0-3.58-3.1,12,12,0,0,0,3.58-3.5,12,12,0,0,0,3.57,3.5A12.49,12.49,0,0,0,345.91,246Zm0-19.57a11.91,11.91,0,0,0-5.2-4.37,11.14,11.14,0,0,0,5.2-5.06,11.09,11.09,0,0,0,5.2,5.06A11.85,11.85,0,0,0,345.91,226.47Zm0-19.34a11.06,11.06,0,0,0-7.62-5.87,10.29,10.29,0,0,0,7.62-7.15,10.29,10.29,0,0,0,7.62,7.15A11,11,0,0,0,345.91,207.13Zm19.75,58.6a13.65,13.65,0,0,0-2.2-2,12.55,12.55,0,0,0,2.2-2.17,12.27,12.27,0,0,0,2.21,2.17A13.31,13.31,0,0,0,365.66,265.73Zm0-19.69a12.49,12.49,0,0,0-3.57-3.1,12,12,0,0,0,3.57-3.5,12,12,0,0,0,3.57,3.5A12.63,12.63,0,0,0,365.66,246Zm0-19.57a11.85,11.85,0,0,0-5.2-4.37,11.09,11.09,0,0,0,5.2-5.06,11.14,11.14,0,0,0,5.2,5.06A11.85,11.85,0,0,0,365.66,226.47Zm0-19.34a11,11,0,0,0-7.62-5.87,10.29,10.29,0,0,0,7.62-7.15,10.29,10.29,0,0,0,7.62,7.15A11.06,11.06,0,0,0,365.66,207.13Zm19.75,58.6a13.24,13.24,0,0,0-2.2-2,12.55,12.55,0,0,0,2.2-2.17,13,13,0,0,0,2.21,2.17A13.31,13.31,0,0,0,385.41,265.73Zm0-19.69a12.49,12.49,0,0,0-3.57-3.1,11.8,11.8,0,0,0,3.57-3.5,12,12,0,0,0,3.58,3.5A12.67,12.67,0,0,0,385.41,246Zm0-19.57a11.85,11.85,0,0,0-5.2-4.37,11.09,11.09,0,0,0,5.2-5.06,11.12,11.12,0,0,0,5.21,5.06A11.88,11.88,0,0,0,385.41,226.47Zm0-19.34a11,11,0,0,0-7.62-5.87,10.29,10.29,0,0,0,7.62-7.15,10.32,10.32,0,0,0,7.63,7.15A11.07,11.07,0,0,0,385.41,207.13Zm19.76,58.6a13.72,13.72,0,0,0-2.21-2,13,13,0,0,0,2.21-2.17,12.55,12.55,0,0,0,2.2,2.17A13.24,13.24,0,0,0,405.17,265.73Zm0-19.69a12.67,12.67,0,0,0-3.58-3.1,12,12,0,0,0,3.58-3.5,11.8,11.8,0,0,0,3.57,3.5A12.49,12.49,0,0,0,405.17,246Zm0-19.57A11.88,11.88,0,0,0,400,222.1a11.12,11.12,0,0,0,5.21-5.06,11.09,11.09,0,0,0,5.2,5.06A11.8,11.8,0,0,0,405.17,226.47Zm7.62-25.21a11,11,0,0,0-7.62,5.87,11.07,11.07,0,0,0-7.63-5.87,10.32,10.32,0,0,0,7.63-7.15A10.29,10.29,0,0,0,412.79,201.26Z"/><path d="M9.77,170.35a9.53,9.53,0,0,0-9.53-9.53H0v19l.24,0A9.54,9.54,0,0,0,9.77,170.35Z"/><path d="M9,149.49a8.77,8.77,0,0,0-8.77-8.77H0v17.52H.24A8.77,8.77,0,0,0,9,149.49Z"/><path d="M8.25,128.62a8,8,0,0,0-8-8H0v16H.24A8,8,0,0,0,8.25,128.62Z"/><path d="M7.48,107.76a7.25,7.25,0,0,0-7.24-7.25l-.24,0V115H.24A7.24,7.24,0,0,0,7.48,107.76Z"/><path d="M6.72,86.89A6.48,6.48,0,0,0,.24,80.41H0V93.36l.24,0A6.49,6.49,0,0,0,6.72,86.89Z"/><path d="M6,66A5.72,5.72,0,0,0,.24,60.31H0V71.74H.24A5.72,5.72,0,0,0,6,66Z"/><path d="M5.2,45.16a5,5,0,0,0-5-4.95H0v9.89H.24A5,5,0,0,0,5.2,45.16Z"/><path d="M4.43,24.3A4.19,4.19,0,0,0,.24,20.1l-.24,0v8.34l.24,0A4.19,4.19,0,0,0,4.43,24.3Z"/><path d="M3.67,3.43A3.43,3.43,0,0,0,.24,0L0,0V6.84l.24,0A3.42,3.42,0,0,0,3.67,3.43Z"/><circle cx="19.99" cy="170.35" r="9.53" transform="translate(-114.6 64.03) rotate(-45)"/><circle cx="19.99" cy="149.49" r="8.77" transform="translate(-23.69 5.13) rotate(-9.22)"/><circle cx="19.99" cy="128.62" r="8.01" transform="translate(-106.49 97.87) rotate(-67.5)"/><circle cx="19.99" cy="107.76" r="7.24" transform="translate(-70.34 45.7) rotate(-45)"/><circle cx="19.99" cy="86.89" r="6.48" transform="translate(-55.59 39.59) rotate(-45)"/><circle cx="19.99" cy="66.03" r="5.72" transform="translate(-40.83 33.48) rotate(-45)"/><circle cx="19.99" cy="45.16" r="4.96" transform="translate(-26.08 27.36) rotate(-45)"/><circle cx="19.99" cy="24.3" r="4.19" transform="translate(-5.05 5.24) rotate(-13.28)"/><path d="M20,6.86a3.43,3.43,0,1,0-3.43-3.43A3.42,3.42,0,0,0,20,6.86Z"/><circle cx="39.74" cy="170.35" r="9.53" transform="translate(-108.82 78) rotate(-45)"/><circle cx="39.74" cy="149.49" r="8.77"/><circle cx="39.74" cy="128.62" r="8.01"/><circle cx="39.74" cy="107.76" r="7.24" transform="translate(-64.56 59.67) rotate(-45)"/><circle cx="39.74" cy="86.89" r="6.48"/><circle cx="39.74" cy="66.03" r="5.72"/><circle cx="39.74" cy="45.16" r="4.96" transform="translate(-20.29 41.33) rotate(-45)"/><circle cx="39.74" cy="24.3" r="4.19"/><circle cx="39.74" cy="3.43" r="3.43"/><circle cx="59.5" cy="170.35" r="9.53" transform="translate(-37.55 18.23) rotate(-13.28)"/><circle cx="59.5" cy="149.49" r="8.77"/><circle cx="59.5" cy="128.62" r="8.01"/><circle cx="59.5" cy="107.76" r="7.24" transform="translate(-23.17 16.55) rotate(-13.28)"/><circle cx="59.5" cy="86.89" r="6.48"/><circle cx="59.5" cy="66.03" r="5.72"/><circle cx="59.5" cy="45.16" r="4.96" transform="translate(-8.78 14.88) rotate(-13.28)"/><circle cx="59.5" cy="24.3" r="4.19"/><path d="M59.5,6.86a3.43,3.43,0,1,0-3.43-3.43A3.43,3.43,0,0,0,59.5,6.86Z"/><circle cx="79.25" cy="170.35" r="9.53" transform="translate(-97.25 105.93) rotate(-45)"/><circle cx="79.25" cy="149.49" r="8.77" transform="translate(-22.92 14.62) rotate(-9.22)"/><circle cx="79.25" cy="128.62" r="8.01" transform="translate(-69.91 152.62) rotate(-67.5)"/><circle cx="79.25" cy="107.76" r="7.24" transform="translate(-52.99 87.6) rotate(-45)"/><circle cx="79.25" cy="86.89" r="6.48" transform="translate(-38.23 81.49) rotate(-45)"/><circle cx="79.25" cy="66.03" r="5.72" transform="translate(-23.48 75.38) rotate(-45)"/><circle cx="79.25" cy="45.16" r="4.96" transform="translate(-8.72 69.27) rotate(-45)"/><circle cx="79.25" cy="24.3" r="4.19" transform="translate(-3.46 18.86) rotate(-13.28)"/><path d="M79.25,6.86a3.43,3.43,0,1,0-3.43-3.43A3.42,3.42,0,0,0,79.25,6.86Z"/><circle cx="99" cy="170.35" r="9.53" transform="translate(-91.46 119.9) rotate(-45)"/><circle cx="99" cy="149.49" r="8.77"/><circle cx="99" cy="128.62" r="8.01"/><circle cx="99" cy="107.76" r="7.24" transform="translate(-47.2 101.57) rotate(-45)"/><circle cx="99" cy="86.89" r="6.48"/><circle cx="99" cy="66.03" r="5.72"/><circle cx="99" cy="45.16" r="4.96" transform="translate(-2.94 83.23) rotate(-45)"/><circle cx="99" cy="24.3" r="4.19"/><circle cx="99" cy="3.43" r="3.43"/><circle cx="118.75" cy="170.35" r="9.53" transform="translate(-35.96 31.84) rotate(-13.28)"/><circle cx="118.75" cy="149.49" r="8.77"/><circle cx="118.75" cy="128.62" r="8.01"/><circle cx="118.75" cy="107.76" r="7.24" transform="translate(-21.58 30.17) rotate(-13.28)"/><circle cx="118.75" cy="86.89" r="6.48"/><circle cx="118.75" cy="66.03" r="5.72"/><circle cx="118.75" cy="45.16" r="4.96" transform="translate(-7.2 28.49) rotate(-13.28)"/><circle cx="118.75" cy="24.3" r="4.19"/><circle cx="118.75" cy="3.43" r="3.43"/><circle cx="138.51" cy="170.35" r="9.53" transform="translate(-79.89 147.84) rotate(-45)"/><circle cx="138.51" cy="149.49" r="8.77" transform="translate(-22.16 24.12) rotate(-9.22)"/><circle cx="138.51" cy="128.62" r="8.01" transform="matrix(0.38, -0.92, 0.92, 0.38, -33.33, 207.37)"/><circle cx="138.51" cy="107.76" r="7.24" transform="translate(-35.63 129.5) rotate(-45)"/><circle cx="138.51" cy="86.89" r="6.48" transform="translate(-20.88 123.39) rotate(-45)"/><circle cx="138.51" cy="66.03" r="5.72" transform="translate(-6.12 117.28) rotate(-45)"/><circle cx="138.51" cy="45.16" r="4.96" transform="translate(8.63 111.17) rotate(-45)"/><circle cx="138.51" cy="24.3" r="4.19" transform="translate(-1.88 32.47) rotate(-13.28)"/><path d="M138.51,6.86a3.43,3.43,0,1,0-3.43-3.43A3.43,3.43,0,0,0,138.51,6.86Z"/><circle cx="158.26" cy="170.35" r="9.53" transform="translate(-74.11 161.8) rotate(-45)"/><circle cx="158.26" cy="149.49" r="8.77"/><circle cx="158.26" cy="128.62" r="8.01"/><circle cx="158.26" cy="107.76" r="7.24" transform="translate(-29.84 143.47) rotate(-45)"/><circle cx="158.26" cy="86.89" r="6.48"/><circle cx="158.26" cy="66.03" r="5.72"/><circle cx="158.26" cy="45.16" r="4.96" transform="translate(14.42 125.13) rotate(-45)"/><circle cx="158.26" cy="24.3" r="4.19"/><circle cx="158.26" cy="3.43" r="3.43"/><circle cx="178.01" cy="170.35" r="9.53" transform="translate(-34.38 45.46) rotate(-13.28)"/><circle cx="178.01" cy="149.49" r="8.77"/><circle cx="178.01" cy="128.62" r="8.01"/><circle cx="178.01" cy="107.76" r="7.24" transform="translate(-20 43.78) rotate(-13.28)"/><circle cx="178.01" cy="86.89" r="6.48"/><circle cx="178.01" cy="66.03" r="5.72"/><circle cx="178.01" cy="45.16" r="4.96" transform="translate(-5.61 42.11) rotate(-13.28)"/><circle cx="178.01" cy="24.3" r="4.19"/><circle cx="178.01" cy="3.43" r="3.43"/><circle cx="197.76" cy="170.35" r="9.53" transform="translate(-62.54 189.74) rotate(-45)"/><circle cx="197.76" cy="149.49" r="8.77" transform="translate(-21.39 33.61) rotate(-9.22)"/><circle cx="197.76" cy="128.62" r="8.01" transform="translate(3.25 262.11) rotate(-67.5)"/><circle cx="197.76" cy="107.76" r="7.24" transform="translate(-18.27 171.4) rotate(-45)"/><circle cx="197.76" cy="86.89" r="6.48" transform="translate(-3.52 165.29) rotate(-45)"/><circle cx="197.76" cy="66.03" r="5.72" transform="translate(11.24 159.18) rotate(-45)"/><circle cx="197.76" cy="45.16" r="4.96" transform="translate(25.99 153.07) rotate(-45)"/><circle cx="197.76" cy="24.3" r="4.19" transform="translate(-0.29 46.09) rotate(-13.28)"/><path d="M197.76,6.86a3.43,3.43,0,1,0-3.43-3.43A3.43,3.43,0,0,0,197.76,6.86Z"/><circle cx="217.52" cy="170.35" r="9.53" transform="translate(-56.75 203.7) rotate(-45)"/><circle cx="217.52" cy="149.49" r="8.77"/><circle cx="217.52" cy="128.62" r="8.01"/><circle cx="217.52" cy="107.76" r="7.24" transform="translate(-12.49 185.37) rotate(-45)"/><circle cx="217.52" cy="86.89" r="6.48"/><circle cx="217.52" cy="66.03" r="5.72"/><circle cx="217.52" cy="45.16" r="4.96" transform="translate(31.77 167.04) rotate(-45)"/><circle cx="217.52" cy="24.3" r="4.19"/><circle cx="217.52" cy="3.43" r="3.43"/><circle cx="237.27" cy="170.35" r="9.53" transform="translate(-32.79 59.07) rotate(-13.28)"/><circle cx="237.27" cy="149.49" r="8.77"/><circle cx="237.27" cy="128.62" r="8.01"/><circle cx="237.27" cy="107.76" r="7.24" transform="translate(-18.41 57.4) rotate(-13.28)"/><circle cx="237.27" cy="86.89" r="6.48"/><circle cx="237.27" cy="66.03" r="5.72"/><circle cx="237.27" cy="45.16" r="4.96" transform="translate(-4.03 55.72) rotate(-13.28)"/><circle cx="237.27" cy="24.3" r="4.19"/><circle cx="237.27" cy="3.43" r="3.43"/><circle cx="257.02" cy="170.35" r="9.53" transform="translate(-45.18 231.64) rotate(-45)"/><circle cx="257.02" cy="149.49" r="8.77" transform="translate(-20.63 43.1) rotate(-9.22)"/><circle cx="257.02" cy="128.62" r="8.01" transform="translate(39.83 316.86) rotate(-67.5)"/><circle cx="257.02" cy="107.76" r="7.24" transform="translate(-0.92 213.3) rotate(-45)"/><circle cx="257.02" cy="86.89" r="6.48" transform="translate(13.84 207.19) rotate(-45)"/><circle cx="257.02" cy="66.03" r="5.72" transform="translate(28.59 201.08) rotate(-45)"/><circle cx="257.02" cy="45.16" r="4.96" transform="translate(43.35 194.97) rotate(-45)"/><circle cx="257.02" cy="24.3" r="4.19" transform="translate(1.29 59.7) rotate(-13.28)"/><path d="M257,6.86a3.43,3.43,0,1,0-3.43-3.43A3.42,3.42,0,0,0,257,6.86Z"/><circle cx="276.77" cy="170.35" r="9.53" transform="translate(-39.39 245.61) rotate(-45)"/><circle cx="276.77" cy="149.49" r="8.77"/><circle cx="276.77" cy="128.62" r="8.01"/><circle cx="276.77" cy="107.76" r="7.24" transform="translate(4.87 227.27) rotate(-45)"/><circle cx="276.77" cy="86.89" r="6.48"/><circle cx="276.77" cy="66.03" r="5.72"/><circle cx="276.77" cy="45.16" r="4.96" transform="translate(49.13 208.94) rotate(-45)"/><circle cx="276.77" cy="24.3" r="4.19"/><circle cx="276.77" cy="3.43" r="3.43"/><circle cx="296.53" cy="170.35" r="9.53" transform="translate(-31.21 72.68) rotate(-13.28)"/><circle cx="296.53" cy="149.49" r="8.77"/><circle cx="296.53" cy="128.62" r="8.01"/><circle cx="296.53" cy="107.76" r="7.24" transform="translate(-16.83 71.01) rotate(-13.28)"/><circle cx="296.53" cy="86.89" r="6.48"/><circle cx="296.53" cy="66.03" r="5.72"/><circle cx="296.53" cy="45.16" r="4.96" transform="translate(-2.44 69.34) rotate(-13.28)"/><circle cx="296.53" cy="24.3" r="4.19"/><circle cx="296.53" cy="3.43" r="3.43"/><circle cx="316.28" cy="170.35" r="9.53" transform="translate(-27.82 273.54) rotate(-45)"/><circle cx="316.28" cy="149.49" r="8.77" transform="translate(-19.86 52.59) rotate(-9.22)"/><circle cx="316.28" cy="128.62" r="8.01" transform="translate(76.41 371.61) rotate(-67.5)"/><circle cx="316.28" cy="107.76" r="7.24" transform="translate(16.44 255.21) rotate(-45)"/><circle cx="316.28" cy="86.89" r="6.48" transform="translate(31.19 249.09) rotate(-45)"/><circle cx="316.28" cy="66.03" r="5.72" transform="translate(45.95 242.98) rotate(-45)"/><circle cx="316.28" cy="45.16" r="4.96" transform="translate(60.7 236.87) rotate(-45)"/><circle cx="316.28" cy="24.3" r="4.19" transform="translate(2.88 73.32) rotate(-13.28)"/><path d="M316.28,6.86a3.43,3.43,0,1,0-3.43-3.43A3.42,3.42,0,0,0,316.28,6.86Z"/><circle cx="336.03" cy="170.35" r="9.53" transform="translate(-22.04 287.51) rotate(-45)"/><circle cx="336.03" cy="149.49" r="8.77"/><circle cx="336.03" cy="128.62" r="8.01"/><circle cx="336.03" cy="107.76" r="7.24" transform="translate(22.22 269.17) rotate(-45)"/><circle cx="336.03" cy="86.89" r="6.48"/><circle cx="336.03" cy="66.03" r="5.72"/><circle cx="336.03" cy="45.16" r="4.96" transform="translate(66.49 250.84) rotate(-45)"/><circle cx="336.03" cy="24.3" r="4.19"/><circle cx="336.03" cy="3.43" r="3.43"/><circle cx="355.78" cy="170.35" r="9.53" transform="translate(-29.62 86.3) rotate(-13.28)"/><circle cx="355.78" cy="149.49" r="8.77"/><circle cx="355.78" cy="128.62" r="8.01"/><circle cx="355.78" cy="107.76" r="7.24" transform="translate(-15.24 84.62) rotate(-13.28)"/><circle cx="355.78" cy="86.89" r="6.48"/><circle cx="355.78" cy="66.03" r="5.72"/><circle cx="355.78" cy="45.16" r="4.96" transform="translate(-0.86 82.95) rotate(-13.28)"/><circle cx="355.78" cy="24.3" r="4.19"/><circle cx="355.78" cy="3.43" r="3.43"/><circle cx="375.54" cy="170.35" r="9.53" transform="translate(-10.47 315.44) rotate(-45)"/><circle cx="375.54" cy="149.49" r="8.77" transform="translate(-19.1 62.08) rotate(-9.22)"/><circle cx="375.54" cy="128.62" r="8.01" transform="matrix(0.38, -0.92, 0.92, 0.38, 112.99, 426.35)"/><circle cx="375.54" cy="107.76" r="7.24" transform="translate(33.8 297.11) rotate(-45)"/><circle cx="375.54" cy="86.89" r="6.48" transform="translate(48.55 291) rotate(-45)"/><circle cx="375.54" cy="66.03" r="5.72" transform="translate(63.3 284.88) rotate(-45)"/><circle cx="375.54" cy="45.16" r="4.96" transform="translate(78.06 278.77) rotate(-45)"/><circle cx="375.54" cy="24.3" r="4.19" transform="translate(4.46 86.93) rotate(-13.28)"/><path d="M375.54,6.86a3.43,3.43,0,1,0-3.43-3.43A3.43,3.43,0,0,0,375.54,6.86Z"/><circle cx="395.29" cy="170.35" r="9.53" transform="translate(-4.68 329.41) rotate(-45)"/><circle cx="395.29" cy="149.49" r="8.77"/><circle cx="395.29" cy="128.62" r="8.01"/><circle cx="395.29" cy="107.76" r="7.24" transform="translate(39.58 311.07) rotate(-45)"/><circle cx="395.29" cy="86.89" r="6.48"/><circle cx="395.29" cy="66.03" r="5.72"/><circle cx="395.29" cy="45.16" r="4.96" transform="translate(83.84 292.74) rotate(-45)"/><circle cx="395.29" cy="24.3" r="4.19"/><circle cx="395.29" cy="3.43" r="3.43"/><path d="M405.51,170.35a9.53,9.53,0,0,0,9.49,9.53V160.82A9.54,9.54,0,0,0,405.51,170.35Z"/><path d="M406.27,149.49a8.78,8.78,0,0,0,8.73,8.77V140.72A8.77,8.77,0,0,0,406.27,149.49Z"/><path d="M407,128.62a8,8,0,0,0,8,8v-16A8,8,0,0,0,407,128.62Z"/><path d="M407.8,107.76A7.24,7.24,0,0,0,415,115V100.52A7.24,7.24,0,0,0,407.8,107.76Z"/><path d="M408.56,86.89A6.48,6.48,0,0,0,415,93.37v-13A6.49,6.49,0,0,0,408.56,86.89Z"/><path d="M409.32,66A5.73,5.73,0,0,0,415,71.75V60.31A5.72,5.72,0,0,0,409.32,66Z"/><path d="M410.09,45.16a5,5,0,0,0,4.91,5V40.21A5,5,0,0,0,410.09,45.16Z"/><path d="M410.85,24.3A4.19,4.19,0,0,0,415,28.49V20.11A4.19,4.19,0,0,0,410.85,24.3Z"/><path d="M411.61,3.43A3.43,3.43,0,0,0,415,6.86V0A3.43,3.43,0,0,0,411.61,3.43Z"/></g></g></svg>