<svg xmlns="http://www.w3.org/2000/svg" viewBox="0 0 1227.03 163.28"><g id="Layer_2" data-name="Layer 2"><g id="Layer_1-2" data-name="Layer 1"><path d="M876.5,156.2c-.92,3.17-3.6,4.66-5.72,6.64-1.5.08-3,.18-4.51.25a2.48,2.48,0,0,1-2-1.08,8.67,8.67,0,0,0-1.28-1,11,11,0,0,1-3.45-5.17c-.33.74-.54,1.13-.69,1.54-.91,2.55-3.33,3.74-5.07,5.55-.22.23-.76.2-1.15.21-1,0-1.92,0-2.88,0a3,3,0,0,1-2.34-1c-.93-1-2.06-1.75-2.91-2.77a27.45,27.45,0,0,1-2.09-3.3c-.82,3-3.23,4.62-5.29,6.49a2.72,2.72,0,0,1-1.53.51c-1,.08-1.92,0-2.88,0a3,3,0,0,1-2.31-1c-1.24-1.19-2.79-2.09-3.59-3.73-.34-.7-.8-1.34-1.32-2.2a8.52,8.52,0,0,1-1,2c-1.5,1.62-3.08,3.16-4.68,4.69a1.88,1.88,0,0,1-1.14.25c-1,0-2.08,0-3.12,0a2.65,2.65,0,0,1-2.1-.94c-.68-.75-1.67-1.23-2.31-2-1-1.2-1.76-2.55-2.72-4-.17.42-.36.89-.56,1.36-1,2.35-3.33,3.53-4.95,5.34l-4.54.22c-.9,0-1.44-.55-2-1.08a25.91,25.91,0,0,1-2.59-2.42,36.25,36.25,0,0,1-2.29-3.42c-.89,2.83-3.11,4.57-5.27,6.34a2.41,2.41,0,0,1-1.27.54c-1.27.06-2.56,0-3.83,0a1.47,1.47,0,0,1-.89-.28c-1.35-1.21-2.74-2.38-4-3.71a19,19,0,0,1-1.81-3c-.76,2.7-2.8,4.29-4.71,6a3.47,3.47,0,0,1-2.56,1l-2.64,0a2.48,2.48,0,0,1-2.07-1,13.23,13.23,0,0,0-1.76-1.57,7.67,7.67,0,0,1-2.92-4.91,17.62,17.62,0,0,1-1.78,3.27c-1.26,1.4-2.72,2.63-4.12,3.91a1.1,1.1,0,0,1-.68.18c-1.36,0-2.72.06-4.08,0a1.87,1.87,0,0,1-1.08-.41,40.47,40.47,0,0,1-3.66-3.38,20,20,0,0,1-1.92-3.2c-.91,3-3.26,4.72-5.39,6.59a1.81,1.81,0,0,1-1.07.4c-1.28.05-2.56.05-3.84,0a1.82,1.82,0,0,1-1.1-.37,32.63,32.63,0,0,1-3.28-3,34.44,34.44,0,0,1-2.34-3.39,12,12,0,0,1-.63,1.52c-1.2,2.11-3.21,3.45-4.93,5.06l-4.52.26a2.6,2.6,0,0,1-2-1.07c-.39-.39-.87-.68-1.29-1a9.8,9.8,0,0,1-3.34-5.22c-.41.76-.64,1.12-.8,1.51a9,9,0,0,1-2.72,3.57c-.25.2-.64.27-.8.51-1.59,2.46-4.05,1.7-6.29,1.68a2.1,2.1,0,0,1-1.07-.42,15.26,15.26,0,0,1-5.55-6.65c-.86,3-3,4.69-5.15,6.41a2.82,2.82,0,0,1-1.43.67,35.13,35.13,0,0,1-3.84,0,1.83,1.83,0,0,1-1.07-.42c-2-1.9-4.49-3.48-5.41-6.49-.91,2.89-3.16,4.51-5.26,6.24a3.31,3.31,0,0,1-1.7.69,22,22,0,0,1-3.35,0,2.37,2.37,0,0,1-1.31-.45c-2.1-1.8-4.32-3.51-5.24-6.3,0,0-.13-.06-.39-.17-.65,2.68-2.71,4.28-4.64,6a3.57,3.57,0,0,1-2.33,1c-3.3.19-3.47.15-6-1.93a11.18,11.18,0,0,1-3.71-5.24c-.32.76-.49,1.31-.76,1.79-1.19,2.11-3.2,3.44-4.92,5-.29.28-.9.23-1.37.33-3.07.64-5.38-.73-7.29-2.9a46.38,46.38,0,0,1-2.76-3.79,26,26,0,0,1-2.07,3.09,26.69,26.69,0,0,1-3.32,3,2.92,2.92,0,0,1-1.52.52c-.87.09-1.76,0-2.64,0a3,3,0,0,1-2.71-1.19,7.4,7.4,0,0,0-1.62-1.36c-1.5-1.12-2.3-2.72-3.11-5-.84,3.17-2.85,4.77-4.79,6.48a3.62,3.62,0,0,1-2.3,1c-2.28.18-4.33,0-6.08-1.86-1.47-1.53-3-3-3.76-5.61-.95,3.45-3.34,5.06-5.44,6.91a2.75,2.75,0,0,1-1.52.52c-1,.09-1.92,0-2.88,0a2.87,2.87,0,0,1-2.32-1c-.64-.67-1.5-1.15-2.1-1.85-1-1.24-2-2.59-3-4-.65,2.47-2.59,4.05-4.47,5.71a4.1,4.1,0,0,1-3,1.16c-1.89-.06-3.57,0-5.2-1.64a17.73,17.73,0,0,1-4.13-5.41c-.81,3-3.16,4.51-5.18,6.32a2.61,2.61,0,0,1-1.47.64,26.88,26.88,0,0,1-3.59,0,2.19,2.19,0,0,1-1.3-.47c-2-1.85-4.51-3.34-5.28-6.73-.48,1-.75,1.55-1.07,2.12-1.11,2-3,3.18-4.63,4.71a1.77,1.77,0,0,1-1.09.37c-1.28,0-2.56,0-3.83,0a1.73,1.73,0,0,1-1.09-.4c-2-1.94-4.56-3.42-5.43-6.5-.91,2.64-2.92,4.24-4.84,6a3.52,3.52,0,0,1-2.57,1c-.95,0-1.92,0-2.87,0a2.29,2.29,0,0,1-1.31-.44c-2-1.89-4.44-3.4-5.17-6.31,0-.05-.14-.06-.36-.15-.19.38-.41.77-.57,1.17a9,9,0,0,1-2.75,3.55c-.31.25-.8.36-1,.66-.93,1.58-2.45,1.42-4,1.63-2.41.34-3.86-1.12-5.41-2.43a10.79,10.79,0,0,1-3.25-4.6c-.9,3-3.37,4.55-5.41,6.46a2.16,2.16,0,0,1-1.3.46,28.67,28.67,0,0,1-3.59,0,2.76,2.76,0,0,1-1.44-.66c-2.11-1.74-4.33-3.4-5.25-6.27-.88,3.05-3.35,4.6-5.45,6.46a2.37,2.37,0,0,1-1.3.48c-.88.08-1.76,0-2.64,0a3.14,3.14,0,0,1-2.94-1.22,7,7,0,0,0-1.45-1.19,9.58,9.58,0,0,1-3.08-4.81l-.72,1.09c-.67,1.05-1.29,2.15-2,3.15-.36.49-1.11.7-1.45,1.19-1.64,2.34-4,1.8-6.3,1.73a1.8,1.8,0,0,1-1.1-.37c-2-1.94-4.62-3.41-5.34-6.72a16.73,16.73,0,0,1-1.66,2.73c-1.32,1.45-2.76,2.79-4.2,4.11-.25.24-.75.21-1.14.28a7.35,7.35,0,0,1-7.35-2.75c-1.08-1.24-2-2.64-3-4-.75,2.55-2.78,4.17-4.74,5.88a3.36,3.36,0,0,1-2.35.95c-.88,0-1.76,0-2.64,0a2.82,2.82,0,0,1-2.3-1c-.61-.71-1.54-1.14-2.13-1.86-1-1.21-1.8-2.55-2.75-3.94l-.46.7c-.68,1.06-1.3,2.15-2,3.15-.36.48-1.09.7-1.44,1.19-1.63,2.33-4,1.84-6.29,1.76a1.85,1.85,0,0,1-1.11-.34,46.69,46.69,0,0,1-4-3.73,14,14,0,0,1-1.55-2.94c-.28.63-.48,1.17-.75,1.65-1.19,2.12-3.19,3.47-4.94,5.05a2.46,2.46,0,0,1-1.36.34c-.87,0-1.76,0-2.64,0a3,3,0,0,1-2.53-1.06c-1.1-1.22-2.33-2.33-3.5-3.48-.58-.57-1.17-.48-1.81.17-1.27,1.29-2.56,2.57-3.88,3.81a1.83,1.83,0,0,1-1.05.47c-2.35.11-4.66.53-6.61-1.65-1.45-1.62-3.28-2.89-3.92-5.24-1,3-3.37,4.58-5.45,6.43a2.85,2.85,0,0,1-1.53.51c-1,.08-1.92,0-2.88,0a3.22,3.22,0,0,1-2.32-1c-1.35-1.2-2.85-2.25-3.75-3.89L333.36,156c-.79,3.19-3.16,4.77-5.24,6.57a2.79,2.79,0,0,1-1.51.56c-1,.09-2.07,0-3.11,0a2.64,2.64,0,0,1-2.1-.93c-.68-.75-1.68-1.24-2.31-2-1-1.2-1.77-2.55-2.72-4-.15.33-.35.71-.49,1.11-.93,2.53-3.37,3.69-5,5.57l-4.54.23a2.79,2.79,0,0,1-2-1.07c-.52-.48-1.07-.93-1.61-1.39a9.09,9.09,0,0,1-3.09-5c-1.07,3.36-3.27,5.11-5.45,6.87a2.92,2.92,0,0,1-1.5.56c-.87.1-1.76,0-2.64.06a3.14,3.14,0,0,1-2.74-1.14c-.54-.65-1.39-1-1.93-1.68-1.05-1.26-2-2.61-3-4a10,10,0,0,1-2.7,4c-.86.68-1.62,1.5-2.5,2.16a3.67,3.67,0,0,1-1.51.56c-4.05.81-6.51-1.56-8.67-4.43a21.28,21.28,0,0,1-1.39-2.59c-.5.88-1,1.65-1.38,2.45-1,1.94-3,2.75-4.34,4.32a1,1,0,0,1-.67.19c-1.44,0-2.88,0-4.31,0a1.44,1.44,0,0,1-.85-.36,40.7,40.7,0,0,1-3.67-3.39,20.36,20.36,0,0,1-1.91-3.19c-.91,3-3.28,4.69-5.39,6.57a1.82,1.82,0,0,1-1.08.41c-1.27.05-2.55.05-3.83,0a1.93,1.93,0,0,1-1.11-.36,26.56,26.56,0,0,1-3.14-2.85,37,37,0,0,1-2.46-3.57c-.14.29-.33.65-.49,1a12.06,12.06,0,0,1-3.09,3.83c-.1.11-.33.11-.42.22-1.23,1.71-3,1.87-4.89,1.79a4.48,4.48,0,0,1-3.58-1.45c-1-1.1-2.39-1.82-3.1-3.22-.38-.75-.77-1.5-1.29-2.5a14.24,14.24,0,0,0-.68,1.29A9.43,9.43,0,0,1,211,161c-.36.3-.85.49-1.11.86a3,3,0,0,1-2.92,1.25c-1.26-.09-2.84.22-3.72-.42-2.06-1.52-4.32-3-5.24-5.66-.1-.28-.21-.55-.48-1.29-1,3.18-3.08,4.91-5.21,6.62a2.88,2.88,0,0,1-1.43.68c-1.27.09-2.56,0-3.84,0a1.49,1.49,0,0,1-.9-.25c-1.62-1.6-3.23-3.21-4.76-4.9a7.83,7.83,0,0,1-.86-2.19c-.88,3.3-3.12,4.93-5.23,6.65a3.34,3.34,0,0,1-1.69.7,22,22,0,0,1-3.35,0,2.37,2.37,0,0,1-1.31-.45c-2.1-1.8-4.34-3.5-5.24-6.3,0,0-.13-.06-.34-.16-.31.69-.61,1.39-1,2.07-1,2-3,3-4.47,4.55a1.34,1.34,0,0,1-.88.27q-2,0-4.08,0a1.4,1.4,0,0,1-.88-.3c-2-2-4.66-3.38-5.37-6.84a17.91,17.91,0,0,1-1.65,2.73c-1.31,1.46-2.73,2.82-4.17,4.14-.3.28-.9.24-1.37.34-3.07.64-5.38-.72-7.3-2.89-1-1.17-1.85-2.53-2.76-3.8a25.91,25.91,0,0,1-2.06,3.09,29.14,29.14,0,0,1-3.32,3,3,3,0,0,1-1.52.52c-.87.09-1.76,0-2.64,0A3,3,0,0,1,117.2,162a9.39,9.39,0,0,0-1.62-1.37,9.53,9.53,0,0,1-3-4.49c-.93,2.69-2.92,4.32-4.87,6a3.62,3.62,0,0,1-2.29,1c-2.28.18-4.33,0-6.08-1.85a18.29,18.29,0,0,1-3.87-5.22c-.85,3.05-3.24,4.66-5.34,6.5a2.78,2.78,0,0,1-1.51.53c-1,.09-1.92,0-2.88,0a2.86,2.86,0,0,1-2.32-1c-.64-.68-1.51-1.15-2.1-1.85-1-1.25-2-2.6-3-4-.65,2.46-2.59,4-4.48,5.69a4.15,4.15,0,0,1-3,1.17c-2,0-3.77,0-5.39-1.78s-3.11-3-3.92-5.29c-.84,3-3.18,4.53-5.2,6.34a2.71,2.71,0,0,1-1.47.64,26.88,26.88,0,0,1-3.59,0,2.19,2.19,0,0,1-1.3-.47c-2-1.85-4.52-3.33-5.29-6.75-.48,1-.75,1.57-1.06,2.13-1.11,2-3,3.19-4.63,4.71a1.74,1.74,0,0,1-1.09.38c-1.28,0-2.56,0-3.84,0a1.49,1.49,0,0,1-.9-.25c-2.05-2-4.73-3.49-5.61-6.65-.93,2.62-2.92,4.23-4.84,5.93a3.53,3.53,0,0,1-2.57,1c-.95,0-1.92,0-2.87,0a2.29,2.29,0,0,1-1.31-.44c-2-1.88-4.45-3.38-5.17-6.31,0,0-.14-.06-.37-.15-.18.38-.4.76-.57,1.16a9,9,0,0,1-2.74,3.56c-.25.2-.58.29-.81.49-.6.51-1.14,1.09-1.76,1.57a1.69,1.69,0,0,1-.94.14c-1.1,0-2.19,0-3.41,0V146.47c4.29-1.26,7.83.29,10.36,6,1.6-3.86,3.93-6.48,8.42-6.48s6.88,2.48,8.53,6.47c1.7-4,4.11-6.49,8.58-6.48s6.71,2.64,8.47,6.42c1.73-4.3,4.53-6.71,9.29-6.37,4.09.29,6.15,2.8,7.64,6.51,1.63-3.83,3.9-6.52,8.38-6.55s6.94,2.41,8.62,6.43c1.77-4.05,4.32-6.6,9-6.43,4.29.16,6.39,2.82,8.1,6.41,1.69-4.19,4.35-6.6,9-6.4,3.35.14,6.13,2.05,7.89,6.53,1.62-3.86,3.92-6.48,8.36-6.55s6.94,2.5,8.67,6.41c1.79-4.08,4.37-6.66,9.1-6.39,3.36.19,5.83,1.83,7.93,6.35,1.63-3.82,4-6.36,8.46-6.36s6.89,2.52,8.5,6.69c1.74-4.57,4.53-7,9.32-6.66,4.09.28,6.13,2.81,7.69,6.42,1.64-3.83,4-6.44,8.46-6.45s6.85,2.56,8.55,6.44c1.63-3.86,3.95-6.39,8.33-6.43s7,2.37,8.64,6.61c1.66-4,4-6.62,8.46-6.62s6.91,2.43,8.53,6.52c1.71-4,4.11-6.54,8.58-6.53s6.74,2.59,8.47,6.45c1.8-4.42,4.67-6.83,9.53-6.38,4,.37,5.95,2.85,7.42,6.52,1.61-3.88,3.91-6.53,8.36-6.58s7,2.37,8.64,6.48c1.77-4.24,4.47-6.73,9.2-6.47,3.49.2,5.78,2,7.92,6.35,1.67-4.24,4.44-6.65,9.21-6.32,4.09.28,6.14,2.77,7.65,6.49,1.65-3.8,3.91-6.47,8.36-6.54s6.95,2.47,8.69,6.43c1.81-4.21,4.51-6.73,9.31-6.39,4.09.28,6.06,2.87,7.63,6.18.71-1.1,1.37-2.2,2.11-3.24a7,7,0,0,1,5.69-2.93,8.16,8.16,0,0,1,7.67,3.39c.82,1.11,1.41,1.15,2.15.06,2.45-3.61,6-3.86,9.76-3.15a5.6,5.6,0,0,1,3.45,2.35c.81,1.13,1.54,2.31,2.36,3.55,1.61-4,4.27-6.45,8.94-6.22,4.2.2,6.33,2.71,7.89,6.51,1.64-3.82,3.92-6.47,8.36-6.54s6.95,2.48,8.69,6.42c1.76-4.1,4.37-6.64,9.07-6.4,4.18.21,6.27,2.78,7.95,6.37,1.62-3.83,4-6.38,8.44-6.38s6.91,2.5,8.51,6.7c1.79-4.69,4.67-7,9.55-6.67,2.7.19,5.82,2.11,7.45,6.44,1.67-3.82,4-6.46,8.47-6.48s6.85,2.57,8.56,6.44c1.67-3.94,4.08-6.47,8.56-6.43s6.8,2.49,8.42,6.63c1.64-4,4-6.62,8.44-6.63s6.92,2.41,8.55,6.54c1.72-4.15,4.24-6.7,8.8-6.53,3.5.13,5.74,1.31,8.27,6.33,1.82-4.41,4.79-6.85,9.73-6.25,3.3.4,5.59,2.3,7.18,6.49,1.09-2.48,2.29-4.68,4.66-5.79a9.18,9.18,0,0,1,7.45-.17,8.42,8.42,0,0,1,4.82,6c1.84-4.4,4.54-6.88,9.27-6.64,4.2.22,6.21,2.9,7.92,6.4,1.71-4.4,4.58-6.79,9.45-6.35,4,.36,5.94,2.83,7.41,6.48,1.67-3.79,3.91-6.48,8.36-6.55s7,2.45,8.69,6.42c1.82-4.19,4.52-6.72,9.31-6.38,4.08.28,6.08,2.84,7.71,6.35,1.66-3.78,4-6.4,8.44-6.38s7,2.41,8.51,6.73c1.8-4.7,4.68-7,9.55-6.71,2.8.2,5.91,2.24,7.45,6.43,1.71-3.76,4-6.46,8.47-6.45s6.9,2.48,8.56,6.53c1.68-4,4.08-6.57,8.56-6.53s6.81,2.46,8.42,6.61c1.67-4,4-6.6,8.44-6.61s6.93,2.4,8.56,6.52c1.74-4.09,4.22-6.61,8.79-6.53,4.34.09,6.52,2.69,8.27,6.38,1.88-4.55,5-6.93,10-6.26,3.73.5,5.55,3,7,6.43,1.11-2.42,2.28-4.62,4.64-5.74a9.12,9.12,0,0,1,7.44-.19,8.17,8.17,0,0,1,4.8,6.12c1.93-4.57,4.73-7,9.54-6.7,4.11.29,6,3,7.69,6.36,1.59-3.87,4-6.41,8.47-6.39s6.85,2.57,8.47,6.62c1.6-4.14,4-6.6,8.51-6.62s6.77,2.52,8.46,6.41c1.91-4.4,4.81-6.89,9.78-6.34,3.85.44,5.68,3,7.24,6.3,1.67-3.74,4-6.39,8.43-6.37s7,2.39,8.53,6.74c1.83-4.81,4.82-7.19,9.77-6.66,3.85.41,5.77,2.88,7.23,6.33,1.73-3.69,4-6.41,8.45-6.41s6.91,2.46,8.58,6.52c1.7-4.13,4.21-6.65,8.78-6.51,3.51.1,6.08,1.56,8.22,6.44,1.67-3.76,3.94-6.44,8.39-6.45s6.94,2.39,8.49,6.24c.82-1.22,1.55-2.39,2.37-3.49a6.3,6.3,0,0,1,4.82-2.63c2.16-.14,4.34-.24,6.18,1.16a16.66,16.66,0,0,1,2.15,2.21c.88,1,1.32,1.06,2.17,0,3-3.88,6.07-3.95,10-3,2.43.59,4.06,2.64,5,5.06l.34.95c1.79-3.72,4-6.47,8.47-6.48s6.93,2.44,8.59,6.48c1.69-3.94,4.07-6.49,8.53-6.47s6.93,2.48,8.51,6.75c1.67-4.45,4.25-6.86,8.83-6.74,4.28.11,6.52,2.6,8.14,6.44,1.77-4.22,4.48-6.69,9.21-6.43,4.14.22,6.11,2.85,7.81,6.31,1.72-3.73,4-6.39,8.51-6.33s7,2.42,8.47,6.72c1.72-4.56,4.49-7,9.23-6.69,4.08.23,6.18,2.7,7.68,6.3,1.12-2,2.1-3.87,4-5.11s4.21-1.32,6.43-1c3.61.44,5.28,3.1,6.77,6.27,1.65-4.11,4.25-6.65,8.93-6.44,4.26.19,6.46,2.72,8,6.63,1.63-4.37,4.29-6.78,8.93-6.64,3.36.11,6,1.79,8.06,6.39,1.92-4.64,5.1-7,10.18-6.26,3.62.53,5.29,3.06,6.79,6.23,1.7-3.68,4-6.36,8.4-6.36s7,2.4,8.6,6.7c1-2.89,2.53-5.11,5-6.11a11.85,11.85,0,0,1,5.19-.4c3.64.3,5.39,2.93,6.8,6.16,1.75-3.58,4-6.35,8.41-6.36s6.94,2.42,8.61,6.44c1.7-3.85,4-6.43,8.51-6.44s6.89,2.55,8.57,6.68c1.64-4.47,4.33-6.85,9-6.67,3.31.13,6,2,7.92,6.38,1.18-2.66,2.68-5,5.39-5.94a9.51,9.51,0,0,1,6.12.07c0,5.41,0,10.8,0,16.29a14.39,14.39,0,0,1-5.19.23,1.48,1.48,0,0,1-.84-.38c-2-2-4.59-3.39-5.39-6.5-.91,2.58-2.83,4.16-4.7,5.81a3.93,3.93,0,0,1-3,1.18c-.88,0-1.76,0-2.64-.07a2.29,2.29,0,0,1-1.3-.45c-2-1.86-4.42-3.41-5.17-6.31,0,0-.14-.05-.28-.1-.12.15-.35.29-.4.48-.73,2.87-3.24,4.22-5.16,6.08a1.89,1.89,0,0,1-1.11.31c-2.32.16-4.51.29-6.37-1.73-1.44-1.58-3.21-2.82-3.72-5.45A7.93,7.93,0,0,0,1181,157a11.31,11.31,0,0,1-3.13,4.09c-.21.21-.65.25-.79.48-.89,1.46-2.3,1.37-3.75,1.58-2.59.39-4.1-1.18-5.76-2.63a10.79,10.79,0,0,1-3.12-4.93c-.81,3.59-3.33,5.11-5.42,7a2.28,2.28,0,0,1-1.31.46,33.07,33.07,0,0,1-3.59,0,2.17,2.17,0,0,1-1.28-.51c-2-1.87-4.51-3.35-5.12-6.84a8.21,8.21,0,0,0-.8,1.32,7.46,7.46,0,0,1-2.42,3.45,13.26,13.26,0,0,0-1.77,1.56,2.83,2.83,0,0,1-2.52,1.08c-1.41-.1-2.82-.28-4.23-.43-1.75-1.77-4.09-3-5-5.59-.1-.28-.21-.56-.39-1.06a16.87,16.87,0,0,1-1.62,2.7c-1.26,1.39-2.63,2.69-4,4a2.28,2.28,0,0,1-1.34.39c-1.11,0-2.24,0-3.35,0a2.31,2.31,0,0,1-1.32-.43c-2.14-1.85-4.48-3.54-5.5-6.93-.89,3.15-3,4.76-4.91,6.48a3.32,3.32,0,0,1-2.36.93c-.72,0-1.44,0-2.16,0a3.25,3.25,0,0,1-2.92-1.26c-.52-.67-1.45-1-2-1.67-1-1.22-1.79-2.56-2.74-4-.11.17-.27.46-.46.74-.74,1.11-1.42,2.26-2.25,3.28-.53.66-1.4,1.06-1.93,1.72a3,3,0,0,1-2.73,1.12c-1.34-.09-2.67-.25-4-.38-1.72-1.81-4.12-3-5-5.6l-.39-1.1a18.51,18.51,0,0,1-1.75,2.83,55.9,55.9,0,0,1-4.09,3.91,2.56,2.56,0,0,1-1.36.33c-3.46.3-4.28,0-7-2.55a10.08,10.08,0,0,1-3-4.59,12.27,12.27,0,0,0-.66,1.32c-.59,1.64-1.91,2.69-3.08,3.86-.16.16-.5.18-.61.35-1,1.57-2.54,1.67-4.2,1.66a5.37,5.37,0,0,1-4.23-1.6c-2.75-2.72-3.09-2.85-4.23-5.58-.26.54-.44.9-.61,1.27a8.56,8.56,0,0,1-2.39,3.2c-.43.33-1,.57-1.29,1-1.13,1.83-2.89,1.68-4.66,1.7a5,5,0,0,1-3.62-1.4c-1.82-1.58-3.56-3.13-4.41-6-1.1,3.12-3.14,4.94-5.33,6.61a3,3,0,0,1-1.45.66,27,27,0,0,1-3.6,0,2.2,2.2,0,0,1-1.29-.48c-2-1.89-4.47-3.45-5.42-6.42-.87,2.92-3.19,4.5-5.25,6.27a3.32,3.32,0,0,1-1.72.65c-1,.1-1.92,0-2.87,0a2.81,2.81,0,0,1-2.3-1,15.27,15.27,0,0,0-1.6-1.4,9.3,9.3,0,0,1-3-4.42c-.14,0-.39,0-.41.08-.79,2.89-3.24,4.42-5.24,6.3a2.26,2.26,0,0,1-1.32.42c-1.12.06-2.24,0-3.36,0a1.88,1.88,0,0,1-1.13-.27c-1.51-1.39-3-2.78-4.4-4.28a12,12,0,0,1-1.31-2.41c-.43.76-.88,1.45-1.23,2.18-.92,2-2.93,2.85-4.29,4.37a2.28,2.28,0,0,1-1.32.42c-3.33.38-4.32,0-7-2.41a12.76,12.76,0,0,1-3.2-4.69,10.52,10.52,0,0,1-3,4.5c-.79.65-1.52,1.39-2.35,2a3.07,3.07,0,0,1-1.49.59,17,17,0,0,1-3.35,0,3.71,3.71,0,0,1-1.86-.89c-1.28-1.15-2.45-2.44-3.71-3.64a1,1,0,0,0-1.65.11c-.82,1.32-2.11,2.11-3.15,3.17a4,4,0,0,1-3.38,1.33c-.72,0-1.44,0-2.16,0-.39,0-.91,0-1.15-.24-2.08-2-4.77-3.45-5.6-6.9a6.62,6.62,0,0,0-.65,1.09c-.54,1.75-2,2.83-3.13,4.09-.1.1-.34.1-.42.21-1.24,1.68-3,1.89-4.89,1.81-1.4-.06-2.64-.15-3.57-1.45-.49-.68-1.45-1-2-1.68-.92-1.15-1.66-2.44-2.51-3.72,0,0-.23,0-.24.07-.79,2.89-3.26,4.4-5.24,6.31a1.78,1.78,0,0,1-1.1.37c-1.27.05-2.55,0-3.83,0a1.49,1.49,0,0,1-.89-.27c-1.46-1.32-3-2.63-4.29-4.07a11.9,11.9,0,0,1-1.38-2.59c-.44.76-.91,1.45-1.26,2.2-.93,1.95-2.93,2.84-4.3,4.36a2.25,2.25,0,0,1-1.32.4c-3.36.36-4.3,0-7-2.42A10.87,10.87,0,0,1,876.5,156.2Z"/><path d="M367.51,138.22c-1.22.19-1.32.83-1.51,1.45a6.84,6.84,0,0,1-4.82,4.71c-3.61,1.14-6.21-.14-8.38-3a7.75,7.75,0,0,1,.12-8.62,7.34,7.34,0,0,1,8.47-2.66,6.85,6.85,0,0,1,4.57,4.41c.21.69.26,1.44,1.47,1.51a8.22,8.22,0,0,1,4.85-5.86,7.56,7.56,0,0,1,5.4,0,7.82,7.82,0,0,1,4.86,7.27c-.22,3.92-3.13,7.46-7.27,7.48C371.28,144.93,368.33,142.55,367.51,138.22Z"/><path d="M944.38,138.26c-1.12.12-1.21.77-1.41,1.38a7.33,7.33,0,0,1-5,4.86c-1.89.67-3.42.11-5-.37a6,6,0,0,1-3.3-2.9,7.56,7.56,0,0,1-.2-7.73,7,7,0,0,1,7.14-3.78c3.12.34,5.47,1.92,6.4,5.14a3.63,3.63,0,0,0,.57,1c.08.1.29.11.6.21a4.74,4.74,0,0,0,.68-1.07A7.55,7.55,0,0,1,955,130.25a7.87,7.87,0,0,1,4.51,7.44c-.32,3.5-2.32,5.53-5.64,6.83-2.1.82-3.82.11-5.39-.63a6.3,6.3,0,0,1-3.55-4.25A11.48,11.48,0,0,0,944.38,138.26Z"/><path d="M1190,129.64a7.59,7.59,0,0,1,7.47,7.68,7.73,7.73,0,0,1-2.63,5.68c-1.41,1.34-3.32,1.34-4.94,2.09-1.67-.82-3.66-.81-5.1-2.33a8,8,0,0,1-2.35-5.54A7.58,7.58,0,0,1,1190,129.64Z"/><path d="M179.51,137.15a8.49,8.49,0,0,1-2.31,5.56c-1.45,1.54-3.44,1.5-5.09,2.38-1.72-.69-3.63-.81-5.11-2.22a7.55,7.55,0,0,1-2.51-5.72,7.51,7.51,0,0,1,15,0Z"/><path d="M1163.46,138.27c.08,1.48-1,3.17-2.52,4.69s-3.31,1.39-5,2.13c-2-.72-4.07-1-5.59-2.81a7.57,7.57,0,0,1-1.9-5.49,7.48,7.48,0,0,1,7.74-7.12C1160.26,129.84,1163.71,133.11,1163.46,138.27Z"/><path d="M198.48,137a7.52,7.52,0,0,1,15,.41,7.76,7.76,0,0,1-2.65,5.67c-1.42,1.32-3.31,1.36-5,2.06-1.74-.85-3.86-.8-5.23-2.56S198.39,139,198.48,137Z"/><path d="M978.48,137.13a7.52,7.52,0,1,1,15,.29,7.68,7.68,0,0,1-2.69,5.65c-1.42,1.28-3.29,1.41-5,2-1.81-.87-3.91-1-5.4-2.75A8.71,8.71,0,0,1,978.48,137.13Z"/><path d="M467.49,137.07a7.77,7.77,0,0,1-2.41,5.75c-1.42,1.51-3.43,1.48-5.13,2.26-1.74-.82-3.73-.89-5.23-2.5a7.67,7.67,0,0,1-2.23-5.35,7.5,7.5,0,0,1,15-.16Z"/><path d="M486.49,136.84a7.52,7.52,0,1,1,12.11,6.4c-1.39,1.13-3.17,1.3-4.79,1.83C489.31,143.93,486.49,141.76,486.49,136.84Z"/><path d="M894.49,136.84a7.52,7.52,0,1,1,12.11,6.4c-1.39,1.15-3.17,1.27-4.79,1.83C897.32,143.93,894.49,141.76,894.49,136.84Z"/><path d="M875.51,137.15a8.43,8.43,0,0,1-2.32,5.56c-1.44,1.54-3.43,1.51-5.08,2.38-1.72-.69-3.63-.81-5.11-2.22a7.57,7.57,0,0,1-2.51-5.72,7.51,7.51,0,0,1,15,0Z"/><path d="M671.47,138.19c.12,1.75-1.2,3.53-2.88,5.05-1.34,1.21-3.19,1.26-4.81,1.84-2-.78-4.25-1.2-5.68-3.13a7.71,7.71,0,0,1-1.61-5.14,7.49,7.49,0,0,1,7.73-7.14C668.21,129.82,671.7,133.07,671.47,138.19Z"/><path d="M690.48,138.05c0-5.48,3.9-8.48,7.64-8.38a7.48,7.48,0,0,1,7.38,7.49,7.7,7.7,0,0,1-1.83,5.06c-1.49,1.79-3.63,2.08-5.56,2.86-1.67-.68-3.62-.67-5-2C691.5,141.41,690.36,139.56,690.48,138.05Z"/><path d="M60.44,137.41a7.38,7.38,0,0,1-2.62,5.66c-1.44,1.3-3.33,1.36-5,2-1.71-.89-3.79-.85-5.19-2.59a8.11,8.11,0,0,1-2.19-5.61,7.6,7.6,0,0,1,7.7-7.21A7.35,7.35,0,0,1,60.44,137.41Z"/><path d="M87.34,129.66a7.51,7.51,0,0,1,7.16,7.72,7.62,7.62,0,0,1-2.64,5.69c-1.4,1.26-3.3,1.37-5,2-1.82-.84-3.94-.92-5.39-2.68a7.69,7.69,0,0,1-2-5.47A7.5,7.5,0,0,1,87.34,129.66Z"/><path d="M113.52,137.41a7.46,7.46,0,0,1,7.54-7.74,7.63,7.63,0,0,1,7.5,7.42,8,8,0,0,1-2.67,5.91c-1.36,1.37-3.29,1.39-4.94,2.09-2-.77-4.07-1.09-5.62-2.83C114,140.75,113.8,139,113.52,137.41Z"/><path d="M264.42,137.51a7.27,7.27,0,0,1-2.67,5.62c-1.45,1.24-3.32,1.36-5,1.94-4.54-1.12-7.4-3.6-7.26-8.29a7.47,7.47,0,0,1,7.77-7.1A7.31,7.31,0,0,1,264.42,137.51Z"/><path d="M1105,129.64a7.73,7.73,0,0,1,7.52,7.67,8,8,0,0,1-2.65,5.67c-1.36,1.38-3.3,1.38-4.93,2.11-1.84-.83-3.9-1-5.45-2.66a7.62,7.62,0,0,1-2-5.19C1097.42,132.54,1101.22,129.78,1105,129.64Z"/><path d="M291.32,129.66a7.51,7.51,0,0,1,7.18,7.7,7.68,7.68,0,0,1-2.63,5.7c-1.39,1.3-3.31,1.34-5,2-1.81-.84-3.94-.92-5.39-2.67a7.72,7.72,0,0,1-2-5.46A7.49,7.49,0,0,1,291.32,129.66Z"/><path d="M1078.56,137.3a9.86,9.86,0,0,1-2.24,5.28c-1.45,1.61-3.49,1.67-5.23,2.5-1.71-.73-3.71-.74-5.14-2.18a7.68,7.68,0,0,1-2.46-5.77,7.35,7.35,0,0,1,7.41-7.44C1075,129.63,1078.22,132.5,1078.56,137.3Z"/><path d="M325,129.64a7.73,7.73,0,0,1,7.57,7.62,8.08,8.08,0,0,1-2.62,5.69c-1.36,1.41-3.3,1.37-4.92,2.14-1.77-.79-3.75-.92-5.29-2.46a7.5,7.5,0,0,1-2.18-5.35C317.41,132.61,321.12,129.82,325,129.64Z"/><path d="M1044.47,137a8.1,8.1,0,0,1-2.47,5.92c-1.5,1.42-3.44,1.49-5.17,2.18-1.64-.86-3.64-.8-5-2.41a8.12,8.12,0,0,1-2.36-5.55,7.6,7.6,0,0,1,7.46-7.45A7.37,7.37,0,0,1,1044.47,137Z"/><path d="M401.52,137.11a7.51,7.51,0,0,1,7.88-7.44,7.67,7.67,0,0,1,7.16,7.76,7.9,7.9,0,0,1-2.92,5.78,6.58,6.58,0,0,1-4.77,1.73A8.28,8.28,0,0,1,403.1,142,8.76,8.76,0,0,1,401.52,137.11Z"/><path d="M552.47,137.16a8.11,8.11,0,0,1-2.46,5.73c-1.49,1.43-3.45,1.46-5.16,2.2-1.63-.88-3.65-.79-5-2.4a8.24,8.24,0,0,1-2.37-5.55,7.6,7.6,0,0,1,7.44-7.47A7.41,7.41,0,0,1,552.47,137.16Z"/><path d="M579.3,129.66a7.48,7.48,0,0,1,7.19,7.68,7.61,7.61,0,0,1-2.43,5.54c-1.44,1.41-3.41,1.5-5.14,2.2-1.73-.84-3.79-.86-5.23-2.48A7.65,7.65,0,0,1,571.5,137,7.49,7.49,0,0,1,579.3,129.66Z"/><path d="M613.13,129.64a7.74,7.74,0,0,1,7.43,7.76,8.35,8.35,0,0,1-2.55,5.48c-1.34,1.49-3.31,1.37-4.89,2.2-1.77-.78-3.77-.83-5.32-2.38a7.59,7.59,0,0,1-2.25-5.56C605.48,132.41,609.38,129.72,613.13,129.64Z"/><path d="M824.53,138.47c0,1.4-1.27,3.13-2.78,4.67-1.28,1.31-3.2,1.24-4.77,2-2.06-.75-4.26-1.14-5.8-3a7.65,7.65,0,0,1-1.61-5.34,7.35,7.35,0,0,1,7.7-7.09C821.58,129.85,824.71,133.6,824.53,138.47Z"/><path d="M783,129.65a7.61,7.61,0,0,1,5.12,13.16,7.26,7.26,0,0,1-10.2,0A7.63,7.63,0,0,1,783,129.65Z"/><path d="M756.47,137.23a8.41,8.41,0,0,1-2.06,5.24c-1.56,1.65-3.6,1.85-5.46,2.62-1.61-.78-3.56-.73-4.91-2.15a8.09,8.09,0,0,1-2.61-5.69,7.64,7.64,0,0,1,7.35-7.58A7.46,7.46,0,0,1,756.47,137.23Z"/><path d="M281.69,137.22a10,10,0,0,1-2.58,5.55c-1.42,1.52-3.39,1.52-5.08,2.29-1.69-.77-3.64-.78-5.12-2.24a7.61,7.61,0,0,1-2.39-5.49,7.28,7.28,0,0,1,7.37-7.64C278.23,129.59,281.18,132.87,281.69,137.22Z"/><path d="M399.53,137.27c-.41,1.71-.59,3.56-2.12,5.19s-3.6,1.81-5.44,2.6c-1.64-.7-3.57-.72-4.94-2.11a8,8,0,0,1-2.65-5.62,7.56,7.56,0,0,1,7.47-7.65C395.84,129.6,399.25,132.43,399.53,137.27Z"/><path d="M773.69,137.23a10,10,0,0,1-2.58,5.54c-1.44,1.52-3.4,1.53-5.09,2.29-1.69-.78-3.64-.79-5.12-2.25a7.58,7.58,0,0,1-2.38-5.49,7.28,7.28,0,0,1,7.39-7.63C770.29,129.6,773.19,132.92,773.69,137.23Z"/><path d="M681.29,129.67a7.82,7.82,0,0,1,5.41,2.62,7,7,0,0,1,1.9,5,8,8,0,0,1-2.76,5.84,7.5,7.5,0,0,1-5,1.83,8.19,8.19,0,0,1-7.54-7.78A8,8,0,0,1,681.29,129.67Z"/><path d="M792.32,137.06c.51-4.22,3.47-7.48,7.79-7.37a7.28,7.28,0,0,1,7.36,7.65,7.61,7.61,0,0,1-2.39,5.49c-1.49,1.46-3.44,1.45-5.13,2.23-1.69-.77-3.71-.72-5.07-2.32S792.27,138.6,792.32,137.06Z"/><path d="M62.47,137.19A7.43,7.43,0,0,1,70,129.68a7.53,7.53,0,0,1,7.56,7.54,7.87,7.87,0,0,1-2.42,5.48c-1.42,1.57-3.4,1.52-5.06,2.35-1.7-.74-3.67-.72-5.16-2.16A8.71,8.71,0,0,1,62.47,137.19Z"/><path d="M104.31,129.65c4.51.44,7.29,3.7,7.16,7.89a7.53,7.53,0,0,1-2.89,5.73,7.41,7.41,0,0,1-4.83,1.66c-4.1-.14-7.85-4.4-7.4-8.06A7.81,7.81,0,0,1,104.31,129.65Z"/><path d="M1172.9,129.65c3.91-.07,7.87,3.55,7.74,7.45a8.43,8.43,0,0,1-2.54,5.72,7.5,7.5,0,0,1-5.13,2.07,7.27,7.27,0,0,1-5-1.93,8.09,8.09,0,0,1-2.6-5.67,7.24,7.24,0,0,1,2-5.13A8,8,0,0,1,1172.9,129.65Z"/><path d="M596.29,129.65a7.65,7.65,0,0,1-.52,15.29c-4.07-.12-7.86-4.38-7.42-8.06A7.79,7.79,0,0,1,596.29,129.65Z"/><path d="M196.75,137.07c-.54,2.31-1.13,4.45-2.86,6a7.76,7.76,0,0,1-5,1.86c-3.91,0-7.76-4-7.51-7.74a7.78,7.78,0,0,1,7.64-7.51,7.7,7.7,0,0,1,5.5,2.41C196,133.54,196,135.49,196.75,137.07Z"/><path d="M561.94,129.64a7.7,7.7,0,0,1,7.67,7.48,8,8,0,0,1-2.67,5.86c-1.36,1.4-3.33,1.34-5,2.08-1.67-.8-3.61-.81-5.1-2.28a7.53,7.53,0,0,1-2.36-5.49C554.49,132.85,557.67,129.91,561.94,129.64Z"/><path d="M885,145c-.66-.21-1.33-.48-2-.64-2.73-.65-4.1-2.47-5.1-5-.91-2.31-.24-4.22.76-6.06a7.21,7.21,0,0,1,5.07-3.53c3.23-.73,7.47,1.8,8.49,5.23a8.25,8.25,0,0,1-.43,5.48,6,6,0,0,1-3.16,3.38A32.36,32.36,0,0,1,885,145Z"/><path d="M1088,129.64c4.15.2,7.45,3,7.51,7.56a7.63,7.63,0,0,1-2.46,5.7c-1.49,1.44-3.45,1.43-5.17,2.15-1.66-.82-3.62-.8-5-2.36a7.81,7.81,0,0,1-2.41-5.48A7.68,7.68,0,0,1,1088,129.64Z"/><path d="M308.31,129.65c4.51.44,7.29,3.7,7.16,7.89a7.67,7.67,0,0,1-7.71,7.4c-4.1-.14-7.86-4.4-7.41-8.07A7.8,7.8,0,0,1,308.31,129.65Z"/><path d="M1061.67,137.11a9.52,9.52,0,0,1-2.73,5.86c-1.36,1.4-3.31,1.36-5,2.09-1.68-.78-3.62-.82-5.11-2.27a7.53,7.53,0,0,1-2.36-5.49,7.28,7.28,0,0,1,7.41-7.61C1058.33,129.62,1061.21,133,1061.67,137.11Z"/><path d="M477.29,129.67a7.84,7.84,0,0,1,5.41,2.62,7.06,7.06,0,0,1,1.9,5,8.07,8.07,0,0,1-2.75,5.84,7.57,7.57,0,0,1-5,1.83,8.2,8.2,0,0,1-7.55-7.78A8,8,0,0,1,477.29,129.67Z"/><path d="M969.32,129.67a7.77,7.77,0,0,1,5.4,2.65,7,7,0,0,1,1.88,5,8,8,0,0,1-2.79,5.82,7.12,7.12,0,0,1-5,1.76,7.62,7.62,0,0,1-5.41-2.57,8.73,8.73,0,0,1-2-5.2C961.22,133.11,965.38,129.41,969.32,129.67Z"/><path d="M450.65,137.35a10.06,10.06,0,0,1-2.64,5.53c-1.49,1.41-3.4,1.5-5.13,2.17-1.64-.87-3.64-.75-5.08-2.33a8,8,0,0,1-2.33-5.52,7.37,7.37,0,0,1,7.53-7.51C447.44,129.72,450.22,133,450.65,137.35Z"/><path d="M995.36,137.21c.41-4.25,3.18-7.48,7.63-7.52a7.37,7.37,0,0,1,7.53,7.51,8,8,0,0,1-2.33,5.51c-1.43,1.59-3.44,1.47-5.07,2.34-1.73-.66-3.71-.69-5.12-2.18A9.62,9.62,0,0,1,995.36,137.21Z"/><path d="M722.56,137.08a8.94,8.94,0,0,1-2.45,5.72c-1.43,1.52-3.43,1.48-5.11,2.26-1.69-.77-3.61-.81-5.1-2.27a7.53,7.53,0,0,1-2.46-5.46,7.42,7.42,0,0,1,7.43-7.64A7.5,7.5,0,0,1,722.56,137.08Z"/><path d="M926.55,137a8.54,8.54,0,0,1-2.68,6c-1.38,1.32-3.32,1.35-5,2-1.84-.79-3.91-1-5.4-2.68a7.57,7.57,0,0,1-2-5.16,7.56,7.56,0,0,1,15.11-.19Z"/><path d="M518.55,137a8.76,8.76,0,0,1-2.56,6c-1.37,1.39-3.32,1.36-4.95,2.11-1.68-.78-3.62-.78-5.11-2.23a7.52,7.52,0,0,1-2.49-5.69,7.56,7.56,0,0,1,15.11-.16Z"/><path d="M215.32,137.39c.56-4.72,3.52-7.77,7.81-7.7a7.41,7.41,0,0,1,7.4,7.65A7.91,7.91,0,0,1,228,143c-1.37,1.37-3.32,1.35-5,2.06-1.86-.75-3.89-.95-5.43-2.62S215.93,138.92,215.32,137.39Z"/><path d="M1138.94,129.64a7.58,7.58,0,0,1,5.11,13.2c-1.48,1.44-3.43,1.46-5.11,2.22-1.63-.76-3.58-.73-5-2.12a8,8,0,0,1-2.53-5.68A7.57,7.57,0,0,1,1138.94,129.64Z"/><path d="M858.65,137.31c-.51,1.78-.83,3.72-2.42,5.33s-3.52,1.64-5.27,2.42c-1.64-.74-3.58-.72-5-2.1a7.87,7.87,0,0,1-2.54-5.68,7.4,7.4,0,0,1,7.46-7.59C855.28,129.66,858.16,132.79,858.65,137.31Z"/><path d="M162.63,137.23a9.19,9.19,0,0,1-2.79,5.83c-1.42,1.26-3.29,1.4-5,2-1.63-.89-3.64-.74-5.08-2.35a8,8,0,0,1-2.31-5.52,7.38,7.38,0,0,1,7.55-7.49C159.47,129.74,162.23,133,162.63,137.23Z"/><path d="M1214.53,136.59a8.47,8.47,0,0,1-2.62,6.44c-1.37,1.35-3.32,1.36-5,2-1.74-.81-3.72-.88-5.23-2.49a7.53,7.53,0,0,1-2.24-5.31,7.55,7.55,0,0,1,15.08-.66Z"/><path d="M11.35,137.44c.36-4.29,3-7.65,7.56-7.75a7.4,7.4,0,0,1,7.62,7.43,7.93,7.93,0,0,1-2.44,5.71c-1.43,1.54-3.45,1.43-5.13,2.23-1.67-.8-3.6-.81-5.09-2.29S11.87,139.26,11.35,137.44Z"/><path d="M647,129.64a7.58,7.58,0,0,1,7.57,7.55,7.48,7.48,0,0,1-2.53,5.67c-1.48,1.44-3.41,1.49-5.12,2.2-1.66-.85-3.65-.77-5.08-2.33a7.94,7.94,0,0,1-2.35-5.51A7.54,7.54,0,0,1,647,129.64Z"/><path d="M426,129.64c4,.23,7.45,2.87,7.46,7.62a7.53,7.53,0,0,1-2.32,5.56,7.36,7.36,0,0,1-5.13,2.07,7.18,7.18,0,0,1-5.11-2.1,7.6,7.6,0,0,1-2.41-5.52A7.52,7.52,0,0,1,426,129.64Z"/><path d="M1012.52,136.87a7.2,7.2,0,0,1,7.47-7.17c4.38,0,7.16,2.93,7.53,7.32a7.61,7.61,0,0,1-2.23,5.58c-1.47,1.65-3.51,1.67-5.27,2.45-1.73-.68-3.69-.81-5.14-2.22A8.49,8.49,0,0,1,1012.52,136.87Z"/><path d="M349.48,137.11a8.85,8.85,0,0,1-2.33,5.68c-1.45,1.48-3.43,1.49-5.12,2.26-1.71-.73-3.68-.75-5.13-2.23a7.54,7.54,0,0,1-2.43-5.74c.31-4.28,3-7.31,7.47-7.38A7.28,7.28,0,0,1,349.48,137.11Z"/><path d="M528.35,129.65a7.53,7.53,0,0,1,7.18,7.72,7.69,7.69,0,0,1-2.64,5.67c-1.39,1.31-3.32,1.37-5,2-1.72-.87-3.77-.86-5.25-2.5a7.65,7.65,0,0,1-2.09-5.64C520.77,131.77,524.9,129.62,528.35,129.65Z"/><path d="M28.5,137.17c.26-5,4-7.64,7.69-7.47,4.67.2,7.13,3.46,7.34,7.52a7.46,7.46,0,0,1-2.69,5.88,7,7,0,0,1-5,1.79,7.85,7.85,0,0,1-5.24-2.39A9.54,9.54,0,0,1,28.5,137.17Z"/><path d="M1129.47,136.86a8.48,8.48,0,0,1-2.36,6c-1.45,1.41-3.41,1.54-5.14,2.22-1.77-.78-3.8-.8-5.27-2.46a7.6,7.6,0,0,1-2.23-5.58c.38-4.39,3.16-7.3,7.53-7.31A7.2,7.2,0,0,1,1129.47,136.86Z"/><path d="M240,129.64a7.52,7.52,0,0,1,7.5,7.64,7.62,7.62,0,0,1-2.41,5.52,7.23,7.23,0,0,1-5.12,2.09,7.35,7.35,0,0,1-5.13-2.08,7.56,7.56,0,0,1-2.31-5.55C232.57,132.5,236,129.86,240,129.64Z"/><path d="M841.48,137.17a8.85,8.85,0,0,1-2.32,5.6c-1.44,1.47-3.41,1.51-5.11,2.29-1.72-.71-3.68-.77-5.13-2.22a7.57,7.57,0,0,1-2.45-5.74c.29-4.22,2.91-7.3,7.44-7.4C837.83,129.61,841.3,132.37,841.48,137.17Z"/><path d="M137.89,129.65c3.89.14,7.49,2.67,7.55,7.52a7.68,7.68,0,0,1-2.26,5.58c-1.44,1.48-3.42,1.51-5.1,2.31-1.73-.7-3.7-.76-5.14-2.2a7.6,7.6,0,0,1,4.95-13.21Z"/><path d="M637.48,137.16a8.83,8.83,0,0,1-2.32,5.61c-1.44,1.47-3.42,1.51-5.11,2.29-1.72-.71-3.68-.77-5.13-2.22a7.57,7.57,0,0,1-2.45-5.74c.29-4.23,2.92-7.31,7.45-7.4C633.84,129.62,637.3,132.38,637.48,137.16Z"/><path d="M732,129.64a7.6,7.6,0,0,1,5.15,13.13,7.33,7.33,0,0,1-10.24.07,7.5,7.5,0,0,1-2.35-5.55C724.55,132.59,727.89,129.89,732,129.64Z"/><path d="M568.83,120.27c0,3.38-3.37,6.85-6.76,6.66-4.27-.23-6.61-2.86-6.85-6.75-.22-3.48,3.57-6.94,6.94-6.77S568.87,117,568.83,120.27Z"/><path d="M70,127c-4.17-.52-6.37-2.75-6.74-6.68-.33-3.4,3.37-6.93,6.81-6.89s6.92,3.6,6.8,7A7.24,7.24,0,0,1,70,127Z"/><path d="M110.83,120.39c-.65,4-3,6.47-7.12,6.54-3.44,0-6.66-3.53-6.55-6.87s3.58-6.71,6.88-6.66C107.5,113.46,111,117,110.83,120.39Z"/><path d="M596,113.4c3.47.07,7.12,3.64,6.73,7-.45,3.93-2.66,6.48-6.82,6.49s-6.49-2.84-6.72-6.82C589,116.71,592.75,113.34,596,113.4Z"/><path d="M765.92,127c-4.18-.54-6.36-2.81-6.7-6.71-.3-3.43,3.42-6.94,6.85-6.86s6.91,3.65,6.76,7A7.29,7.29,0,0,1,765.92,127Z"/><path d="M800,113.4c3.47.06,7.13,3.64,6.74,7-.44,3.94-2.65,6.49-6.82,6.5s-6.49-2.82-6.72-6.82C793,116.72,796.74,113.35,800,113.4Z"/><path d="M392,113.4c3.45,0,7.12,3.64,6.74,7-.44,3.93-2.65,6.48-6.81,6.5s-6.49-2.8-6.73-6.81C385,116.73,388.72,113.36,392,113.4Z"/><path d="M314.83,120.27c-.55,3.94-2.78,6.5-7,6.66-3.38.13-6.69-3.41-6.67-6.75a7.39,7.39,0,0,1,6.75-6.77C311.34,113.33,314.85,116.81,314.83,120.27Z"/><path d="M280.83,120.16c0,3.34-3.25,6.89-6.65,6.77-4.2-.15-6.62-2.67-7-6.64-.3-3.42,3.39-6.93,6.83-6.88A7.41,7.41,0,0,1,280.83,120.16Z"/><path d="M1060.83,120.29c0,3.39-3.37,6.84-6.77,6.64-4.28-.24-6.61-2.88-6.84-6.77-.2-3.37,3.31-6.68,6.72-6.76S1060.88,116.88,1060.83,120.29Z"/><path d="M1094.83,120.34c-.61,4-2.9,6.48-7.07,6.59-3.41.09-6.67-3.48-6.6-6.81a7.41,7.41,0,0,1,6.82-6.72C1091.42,113.41,1094.91,117,1094.83,120.34Z"/><path d="M223.11,127c-4-.31-6.67-2.81-6.87-6.77-.18-3.41,3.11-6.63,6.64-6.8,3.3-.16,7,3.45,7,6.82A7.32,7.32,0,0,1,223.11,127Z"/><path d="M1145.79,120.34c-.45,4-3.13,6.54-7,6.6-3.37,0-6.75-3.61-6.64-6.83s3.58-6.73,6.87-6.7A7.21,7.21,0,0,1,1145.79,120.34Z"/><path d="M1003.06,113.4a7.53,7.53,0,0,1,6.81,6.77c0,3.38-3.51,7-6.94,6.77a6.76,6.76,0,0,1-6.69-6.91C996.18,116.61,999.68,113.36,1003.06,113.4Z"/><path d="M919.13,127c-4-.3-6.67-2.78-6.89-6.75-.19-3.42,3.08-6.63,6.62-6.82,3.3-.18,7,3.41,7,6.8S922.53,126.9,919.13,127Z"/><path d="M359,127a7.33,7.33,0,0,1-6.86-6.64c-.14-3.27,3.52-7,6.87-6.93s6.86,3.27,6.75,6.69C365.63,124,363,126.6,359,127Z"/><path d="M850.93,113.4c3.48,0,7.05,3.39,6.82,6.87-.26,3.92-2.75,6.38-6.7,6.67-3.42.24-7-3.4-6.93-6.77A7.52,7.52,0,0,1,850.93,113.4Z"/><path d="M161.79,120.36c-.47,4-3.16,6.54-7,6.57-3.37,0-6.75-3.63-6.61-6.84.14-3.39,3.59-6.73,6.88-6.68A7.21,7.21,0,0,1,161.79,120.36Z"/><path d="M442.86,127c-3.4-.08-6.74-3.43-6.74-6.76s3.71-7,7-6.81c3.53.19,6.81,3.4,6.62,6.82C449.53,124.2,446.84,126.68,442.86,127Z"/><path d="M1213.86,120.32c-.11,3.48-3.66,7-7.07,6.62-4-.39-6.4-3-6.55-6.81-.13-3.51,3.56-6.92,7-6.72S1214,117.11,1213.86,120.32Z"/><path d="M19,113.4c3.31,0,6.75,3.42,6.83,6.75s-3.51,7-6.92,6.79a6.72,6.72,0,0,1-6.71-6.65C12,116.82,15.54,113.39,19,113.4Z"/><path d="M721.86,120.27c-.05,3.46-3.59,7-7,6.67-4-.35-6.41-2.88-6.6-6.76-.17-3.5,3.49-6.92,6.92-6.77S721.91,117,721.86,120.27Z"/><path d="M517.86,120.37c-.18,3.53-3.73,6.92-7.13,6.57a6.77,6.77,0,0,1-6.48-7.11c.08-3.45,3.76-6.67,7-6.42C514.71,113.68,518,117.19,517.86,120.37Z"/><path d="M647,127c-3.42,0-7-3.5-6.91-6.84s3.53-6.73,6.84-6.74,6.87,3.25,6.79,6.66C653.66,123.92,651.09,126.57,647,127Z"/><path d="M240,113.41c3.51,0,7,3.42,6.73,6.91-.33,4-2.64,6.33-6.69,6.61-3.51.24-6.91-3.33-6.83-6.81A7.29,7.29,0,0,1,240,113.41Z"/><path d="M1122,127c-4.08-.45-6.54-2.84-6.68-6.9-.13-3.44,3.32-6.67,6.73-6.67a7.29,7.29,0,0,1,6.79,6.71A7.16,7.16,0,0,1,1122,127Z"/><path d="M1020,127a7.16,7.16,0,0,1-6.83-6.86,7.29,7.29,0,0,1,6.8-6.71c3.41,0,6.86,3.25,6.72,6.68C1026.55,124.17,1024.09,126.53,1020,127Z"/><path d="M188.94,127a6.79,6.79,0,1,1,.12-13.57,7.27,7.27,0,0,1,6.73,6.76A7.13,7.13,0,0,1,188.94,127Z"/><path d="M975.79,120.27a6.8,6.8,0,1,1-6.87-6.86C972.36,113.32,975.81,116.77,975.79,120.27Z"/><path d="M342,127c-4.07-.41-6.55-2.75-6.76-6.83-.16-3.42,3.21-6.65,6.67-6.74s7,3.47,6.85,6.88A7.18,7.18,0,0,1,342,127Z"/><path d="M942.75,120.17c-.4,4.07-2.74,6.56-6.82,6.76-3.43.18-6.65-3.19-6.74-6.65s3.46-7,6.87-6.87A7.2,7.2,0,0,1,942.75,120.17Z"/><path d="M891.79,120.33a7.13,7.13,0,0,1-7,6.64c-3.46-.15-6.67-3.49-6.57-6.85a6.8,6.8,0,1,1,13.59.21Z"/><path d="M1173.07,127a7.14,7.14,0,0,1-6.87-6.79,7.27,7.27,0,0,1,6.72-6.78c3.45-.09,6.9,3.36,6.87,6.86A7.18,7.18,0,0,1,1173.07,127Z"/><path d="M833.94,113.41c3.34-.09,6.69,3.16,6.86,6.64s-3.23,7.08-6.75,6.88c-4.07-.23-6.38-2.51-6.76-6.54C827,116.92,830.38,113.51,833.94,113.41Z"/><path d="M432.8,120.21c0,3.51-3.43,7-6.91,6.72-4.05-.34-6.33-2.65-6.6-6.7-.24-3.52,3.36-6.92,6.82-6.82A7.26,7.26,0,0,1,432.8,120.21Z"/><path d="M732.07,113.41c3.59.13,7,3.53,6.63,7-.4,4-2.7,6.3-6.79,6.51-3.52.18-6.92-3.51-6.72-6.91S728.75,113.29,732.07,113.41Z"/><path d="M477,127a7.14,7.14,0,0,1-6.84-6.82,6.8,6.8,0,1,1,13.59.14A7.18,7.18,0,0,1,477,127Z"/><path d="M687.79,120.26a6.8,6.8,0,0,1-13.59-.06,7.27,7.27,0,0,1,6.71-6.79C684.34,113.31,687.8,116.76,687.79,120.26Z"/><path d="M636.81,120.11c.09,3.37-3.12,6.89-6.59,6.82-4-.08-6.61-2.47-6.94-6.6-.27-3.49,3.22-6.9,6.73-6.92A7.29,7.29,0,0,1,636.81,120.11Z"/><path d="M527.93,127a7.19,7.19,0,0,1-6.74-6.7c-.09-3.42,3.46-7,6.87-6.87s6.82,3.33,6.65,6.75C534.49,124.25,532,126.58,527.93,127Z"/><path d="M138,127c-4.07-.41-6.56-2.75-6.76-6.83-.16-3.43,3.21-6.66,6.67-6.74s7,3.47,6.85,6.89A7.18,7.18,0,0,1,138,127Z"/><path d="M42.75,120.23c-.44,4.09-2.82,6.54-6.89,6.7-3.43.14-6.66-3.31-6.67-6.72a7.27,7.27,0,0,1,6.7-6.8A7.15,7.15,0,0,1,42.75,120.23Z"/><path d="M755.84,120.26a6.82,6.82,0,0,1-13.63-.08c0-3.47,3.62-7,6.94-6.78C752.64,113.6,755.91,117,755.84,120.26Z"/><path d="M544.92,127a7.2,7.2,0,0,1-6.71-6.72c0-3.43,3.51-7,6.87-6.86s6.75,3.46,6.76,6.79A7.21,7.21,0,0,1,544.92,127Z"/><path d="M619.78,120.31a7.19,7.19,0,0,1-7,6.67c-3.45-.15-6.71-3.51-6.64-6.84A7.42,7.42,0,0,1,613,113.4C616.34,113.35,619.85,116.9,619.78,120.31Z"/><path d="M664,113.4c3.29,0,6.8,3.5,6.85,6.76s-3.55,7-6.95,6.78a6.7,6.7,0,0,1-6.66-6.66C657.1,116.78,660.57,113.37,664,113.4Z"/><path d="M494,127a7.43,7.43,0,0,1-6.85-6.67c-.12-3.27,3.6-7,6.93-6.91s6.75,3.3,6.67,6.74C500.63,124,498,126.63,494,127Z"/><path d="M704.74,120.3a6.82,6.82,0,0,1-6.94,6.64c-3.35.07-6.76-3.55-6.7-6.8s3.59-6.73,6.86-6.74A7.2,7.2,0,0,1,704.74,120.3Z"/><path d="M460,113.4c3.27,0,6.8,3.45,6.88,6.73s-3.51,7-6.92,6.81a6.7,6.7,0,0,1-6.69-6.63C453.08,116.83,456.53,113.41,460,113.4Z"/><path d="M59.84,120.17A7.22,7.22,0,0,1,52.93,127a7.19,7.19,0,0,1-6.72-6.71c0-3.42,3.48-7,6.85-6.87S59.81,116.84,59.84,120.17Z"/><path d="M816.86,127a7.25,7.25,0,0,1-6.71-6.76c0-3.4,3.6-6.94,7-6.82a7.34,7.34,0,0,1,6.66,6.83A7.2,7.2,0,0,1,816.86,127Z"/><path d="M415.78,120.31a7.19,7.19,0,0,1-7,6.67c-3.45-.15-6.71-3.51-6.64-6.84A7.42,7.42,0,0,1,409,113.4C412.34,113.35,415.85,116.9,415.78,120.31Z"/><path d="M874.89,120.14c.06,3.25-3.35,6.87-6.7,6.8a6.73,6.73,0,0,1-6.91-6.64c-.18-3.5,3.27-6.91,6.75-6.9C871.3,113.41,874.82,116.87,874.89,120.14Z"/><path d="M127.78,120.16a6.82,6.82,0,0,1-13.63.12c-.09-3.37,3.48-6.93,6.91-6.88A7.33,7.33,0,0,1,127.78,120.16Z"/><path d="M902,127c-3.42,0-7-3.55-6.91-6.87s3.63-6.73,6.89-6.71,6.77,3.26,6.72,6.69C908.66,123.91,906,126.6,902,127Z"/><path d="M952,113.4c3.29,0,6.8,3.5,6.85,6.76s-3.55,7-6.95,6.78a6.7,6.7,0,0,1-6.66-6.66C945.1,116.78,948.57,113.37,952,113.4Z"/><path d="M325.09,113.4c3.45.09,6.86,3.66,6.69,7A7.21,7.21,0,0,1,324.9,127c-3.54-.07-6.95-3.6-6.75-7S321.76,113.32,325.09,113.4Z"/><path d="M985.93,113.4c3.46-.05,6.94,3.36,6.78,6.86a6.7,6.7,0,0,1-6.64,6.68c-3.4.25-7-3.39-7-6.76S982.63,113.45,985.93,113.4Z"/><path d="M1189.88,113.4a7.06,7.06,0,0,1,6.83,6.58,6.71,6.71,0,0,1-6.59,7c-3.39.27-7-3.31-7-6.71C1183.08,117,1186.57,113.5,1189.88,113.4Z"/><path d="M1037,127a7.19,7.19,0,0,1-6.74-6.69c-.06-3.42,3.46-7,6.83-6.89a7.42,7.42,0,0,1,6.81,6.75A7.24,7.24,0,0,1,1037,127Z"/><path d="M256.93,113.4c3.34-.05,6.73,3.2,6.91,6.64s-3.25,6.88-6.77,6.94a7.18,7.18,0,0,1-6.86-6.81A7.34,7.34,0,0,1,256.93,113.4Z"/><path d="M178.88,120.25c-.06,3.42-3.66,7-7,6.69-3.92-.34-6.45-2.92-6.57-6.75a7,7,0,0,1,6.86-6.79C175.47,113.53,178.94,117.06,178.88,120.25Z"/><path d="M1111.78,120.1c.1,3.33-3.14,6.73-6.55,6.88a7.26,7.26,0,0,1-7.08-6.64c-.16-3.32,3.39-6.92,6.85-6.94S1111.68,116.69,1111.78,120.1Z"/><path d="M212.74,120.17a6.82,6.82,0,0,1-6.81,6.77c-3.32.15-6.74-3.34-6.82-6.67-.08-3.18,3.38-6.72,6.72-6.87S212.7,116.63,212.74,120.17Z"/><path d="M1162.89,120.08c.13,3.2-3.29,6.88-6.64,6.86a6.75,6.75,0,0,1-7-6.58c-.2-3.48,3.18-6.9,6.7-7C1159.21,113.35,1162.75,116.76,1162.89,120.08Z"/><path d="M1071.06,113.41a6.89,6.89,0,0,1,6.61,6.82c-.16,4-2.87,6.81-6.86,6.65-4.16-.16-6.4-2.94-6.48-6.79A6.87,6.87,0,0,1,1071.06,113.41Z"/><path d="M297.7,120.17c-.29,3.87-2.47,6.62-6.6,6.71s-6.67-2.74-6.78-6.73a6.91,6.91,0,0,1,6.69-6.74A7,7,0,0,1,297.7,120.17Z"/><path d="M374.91,113.41a6.87,6.87,0,0,1,6.75,6.66c-.07,3.84-2.28,6.63-6.46,6.81-4,.18-6.7-2.58-6.88-6.63A6.91,6.91,0,0,1,374.91,113.41Z"/><path d="M579.12,127c-4-.32-6.52-2.6-6.8-6.57-.26-3.57,3.12-7,6.68-7a6.91,6.91,0,0,1,6.67,6.75C585.53,124,583.23,126.46,579.12,127Z"/><path d="M87,127c-4.07-.4-6.49-2.77-6.71-6.66a6.68,6.68,0,1,1,13.35-.06C93.48,124.09,91.15,126.52,87,127Z"/><path d="M783.11,127c-4-.34-6.51-2.63-6.79-6.59-.25-3.57,3.14-7,6.69-7a6.92,6.92,0,0,1,6.66,6.76C789.53,124.06,787.21,126.47,783.11,127Z"/><path d="M1226.88,144.19c-1.33-.06-2.23,1.15-3.68.65-2.1-.73-4.11-1.36-5.45-3.41-1.55-2.36-1.51-6.73.32-9a7.17,7.17,0,0,1,8.81-2Z"/><path d="M.14,130.17c3.55-1.62,7.69,1.4,8.68,3.83,1.49,3.65.59,7.44-2.89,9.58A12.59,12.59,0,0,1,2,145c-.55.11-1.25-.51-1.85-.78Z"/><path d="M1226.92,114.36V125.9a6.23,6.23,0,0,1-7.84-1,7,7,0,0,1-.5-8.53C1220.39,113.72,1223.34,113,1226.92,114.36Z"/><path d="M885,97.31c2.62,0,6,2.43,5.92,5.91a5.88,5.88,0,0,1-11.76.07C879,99.84,882.29,97.36,885,97.31Z"/><path d="M471.08,103.15a6.25,6.25,0,0,1,6-5.83c2.71.09,5.94,2.6,5.77,6a5.84,5.84,0,0,1-5.86,5.72A6,6,0,0,1,471.08,103.15Z"/><path d="M686.91,103.37a6,6,0,0,1-5.91,5.71,5.89,5.89,0,0,1-5.89-5.94,6.13,6.13,0,0,1,6-5.82A6.25,6.25,0,0,1,686.91,103.37Z"/><path d="M188.89,97.31c2.57-.06,6,2.34,6,5.85a5.88,5.88,0,0,1-11.76.2C183,99.92,186.18,97.42,188.89,97.31Z"/><path d="M969.05,97.31c2.7.07,6,2.56,5.82,6a5.88,5.88,0,0,1-11.76-.12C963.07,99.7,966.46,97.28,969.05,97.31Z"/><path d="M1178.91,103.29a6,6,0,0,1-6.07,5.79,5.87,5.87,0,0,1-5.73-5.86c-.07-3.48,3.3-5.93,5.92-5.91A6.26,6.26,0,0,1,1178.91,103.29Z"/><path d="M75.87,103.37c-.45,3.57-2.55,5.65-5.87,5.68a5.73,5.73,0,0,1-5.88-5.9,5.89,5.89,0,0,1,6-5.79A6,6,0,0,1,75.87,103.37Z"/><path d="M1144.91,103.17c-.26,3.3-2.51,6-5.92,5.88s-5.64-2.18-5.82-5.7a5.7,5.7,0,0,1,5.75-6C1142,97.21,1144.75,100.05,1144.91,103.17Z"/><path d="M1122.09,97.31c2.91.21,6,2.66,5.8,6a5.88,5.88,0,0,1-11.75-.18C1116.09,99.76,1119.45,97.26,1122.09,97.31Z"/><path d="M307.88,97.31a6.07,6.07,0,0,1,6,5.84,5.72,5.72,0,0,1-5.87,5.9c-3.31,0-5.63-2.09-5.82-5.68C302,100,304.76,97.6,307.88,97.31Z"/><path d="M1088,97.31a6.07,6.07,0,0,1,5.9,5.93,5.71,5.71,0,0,1-6,5.81c-3.33-.09-5.59-2.17-5.73-5.77A5.93,5.93,0,0,1,1088,97.31Z"/><path d="M336.13,102.89c.22-3.46,3.7-5.88,6.23-5.55,3,.4,5.69,2.74,5.52,6a5.76,5.76,0,0,1-6.14,5.67A5.83,5.83,0,0,1,336.13,102.89Z"/><path d="M1059.87,103.28c-.4,3.59-2.45,5.68-5.78,5.77a5.71,5.71,0,0,1-6-5.81,5.91,5.91,0,0,1,5.89-5.89A6,6,0,0,1,1059.87,103.28Z"/><path d="M364.91,103.31c-.38,3.36-2.67,5.91-6.06,5.74s-5.59-2.27-5.68-5.84a5.71,5.71,0,0,1,5.89-5.85A6.11,6.11,0,0,1,364.91,103.31Z"/><path d="M1020,97.31c2.67,0,6,2.51,5.89,5.91a5.88,5.88,0,0,1-11.75.08C1014,99.89,1017.09,97.46,1020,97.31Z"/><path d="M997.08,103.13c.19-3.13,2.94-5.94,6-5.77,3.38.19,5.91,2.64,5.72,6s-2.3,5.59-5.86,5.66S997.31,106.41,997.08,103.13Z"/><path d="M386.12,103.1a6,6,0,0,1,6-5.75,5.9,5.9,0,0,1,5.71,6.07c-.28,3.3-2.36,5.62-5.91,5.63C388.63,109.06,386.34,106.71,386.12,103.1Z"/><path d="M426.1,97.31c2.93.22,6,2.68,5.79,6.06a5.88,5.88,0,0,1-11.75-.22C420.09,99.74,423.47,97.25,426.1,97.31Z"/><path d="M103.94,97.31a6.08,6.08,0,0,1,5.94,5.89,5.73,5.73,0,0,1-5.94,5.85c-3.32-.06-5.6-2.14-5.76-5.73A5.93,5.93,0,0,1,103.94,97.31Z"/><path d="M941.87,103.27a5.82,5.82,0,0,1-6,5.79,5.74,5.74,0,0,1-5.77-5.81c-.11-3.45,3.11-5.89,5.91-5.92A6.13,6.13,0,0,1,941.87,103.27Z"/><path d="M913.08,103.26a6.11,6.11,0,0,1,5.9-5.9,5.71,5.71,0,0,1,5.84,5.9c-.12,3.54-2.21,5.64-5.73,5.79S913.42,106.61,913.08,103.26Z"/><path d="M448.91,103.12c-.22,3.26-2.44,6-5.87,5.93s-5.66-2.15-5.87-5.65,2.32-5.84,5.7-6C445.94,97.17,448.7,100,448.91,103.12Z"/><path d="M132.12,103.3a6.14,6.14,0,0,1,5.84-6c2.76,0,6,2.43,5.93,5.9a5.74,5.74,0,0,1-5.75,5.83A5.82,5.82,0,0,1,132.12,103.3Z"/><path d="M160.91,103.13c-.22,3.27-2.45,6-5.88,5.92s-5.66-2.16-5.86-5.66a5.7,5.7,0,0,1,5.71-6C158,97.18,160.71,100,160.91,103.13Z"/><path d="M856.91,103.24c-.33,3.35-2.6,5.94-6,5.81s-5.62-2.23-5.75-5.77A5.7,5.7,0,0,1,851,97.36C854.09,97.26,856.8,100.13,856.91,103.24Z"/><path d="M834.06,97.31c2.9.18,6,2.63,5.83,6a5.88,5.88,0,0,1-11.75-.14C828.07,99.79,831.4,97.29,834.06,97.31Z"/><path d="M13.08,103.3a6.12,6.12,0,0,1,5.86-5.94,5.71,5.71,0,0,1,5.88,5.86c-.09,3.56-2.18,5.65-5.69,5.83S13.45,106.66,13.08,103.3Z"/><path d="M800,97.31a6.06,6.06,0,0,1,5.86,6,5.71,5.71,0,0,1-6,5.77c-3.32-.11-5.57-2.19-5.69-5.81A5.94,5.94,0,0,1,800,97.31Z"/><path d="M245.87,103.19a5.82,5.82,0,0,1-5.92,5.87,5.73,5.73,0,0,1-5.85-5.73c-.16-3.39,2.92-5.89,5.83-6A6.14,6.14,0,0,1,245.87,103.19Z"/><path d="M765.94,97.31a5.93,5.93,0,0,1,5.87,5.9c-.1,3.63-2.33,5.7-5.65,5.84a5.71,5.71,0,0,1-6-5.74C760,100.2,762.64,97.57,765.94,97.31Z"/><path d="M274.14,97.31c3.14.31,5.87,2.69,5.67,6.09-.21,3.59-2.54,5.64-5.85,5.65a5.74,5.74,0,0,1-5.85-5.93A6.1,6.1,0,0,1,274.14,97.31Z"/><path d="M732.09,97.31c2.75.12,5.94,2.66,5.76,6a5.88,5.88,0,0,1-11.75-.19C726.07,99.67,729.38,97.33,732.09,97.31Z"/><path d="M709.08,103.18c.15-3.11,2.88-6,6-5.82a5.7,5.7,0,0,1,5.77,6c-.17,3.52-2.26,5.61-5.81,5.71S709.35,106.49,709.08,103.18Z"/><path d="M1201.08,103.29a6.12,6.12,0,0,1,5.87-5.93,5.71,5.71,0,0,1,5.87,5.87c-.1,3.56-2.18,5.65-5.7,5.82S1201.45,106.65,1201.08,103.29Z"/><path d="M41.87,103.27a5.82,5.82,0,0,1-6,5.79,5.73,5.73,0,0,1-5.78-5.8c-.11-3.44,3.09-5.89,5.9-5.93A6.14,6.14,0,0,1,41.87,103.27Z"/><path d="M217.08,103.21c.13-3.12,2.85-6,5.95-5.85a5.7,5.7,0,0,1,5.79,6c-.15,3.53-2.24,5.62-5.78,5.74S217.38,106.54,217.08,103.21Z"/><path d="M646.94,97.31a6.11,6.11,0,0,1,5.92,5.87,5.72,5.72,0,0,1-5.88,5.87c-3.56-.11-5.64-2.19-5.81-5.71S643.59,97.66,646.94,97.31Z"/><path d="M624.12,103.28a6.17,6.17,0,0,1,5.86-6c2.79,0,6,2.48,5.91,5.93a5.74,5.74,0,0,1-5.77,5.81A5.82,5.82,0,0,1,624.12,103.28Z"/><path d="M511.1,97.31c3.36.39,5.91,2.69,5.72,6.07s-2.29,5.6-5.85,5.67a5.72,5.72,0,0,1-5.84-5.91A6.11,6.11,0,0,1,511.1,97.31Z"/><path d="M602,103.22c-.38,3.19-2.48,5.91-6,5.83-3.33-.08-5.59-2.16-5.74-5.75A5.76,5.76,0,0,1,596,97.36,6.18,6.18,0,0,1,602,103.22Z"/><path d="M528,97.31c2.68.06,6,2.58,5.81,6a5.88,5.88,0,0,1-11.75-.07C522,99.76,525.28,97.38,528,97.31Z"/><path d="M561.92,97.31a5.94,5.94,0,0,1,5.89,5.88c-.09,3.64-2.32,5.71-5.64,5.86a5.71,5.71,0,0,1-6-5.72C556,100.23,558.62,97.58,561.92,97.31Z"/><path d="M539.16,103.31a6,6,0,0,1,5.8-6,6,6,0,0,1,5.95,5.88,5.8,5.8,0,0,1-6,5.82C541.63,109,539.52,107,539.16,103.31Z"/><path d="M618.83,103.32c-.37,3.63-2.47,5.65-5.77,5.73a5.81,5.81,0,0,1-6-5.83,6,6,0,0,1,6-5.87A6,6,0,0,1,618.83,103.32Z"/><path d="M822.83,103.31c-.36,3.64-2.47,5.65-5.76,5.74a5.81,5.81,0,0,1-6-5.82A6,6,0,0,1,817,97.35,6,6,0,0,1,822.83,103.31Z"/><path d="M251.16,103.14a6,6,0,0,1,6-5.8,6.29,6.29,0,0,1,5.83,6.07c0,2.82-3.13,5.87-6,5.69A5.87,5.87,0,0,1,251.16,103.14Z"/><path d="M126.83,103.32c-.37,3.63-2.47,5.65-5.77,5.73a5.81,5.81,0,0,1-6-5.83,6,6,0,0,1,6-5.87A6,6,0,0,1,126.83,103.32Z"/><path d="M53.05,97.31c3.39.21,6,3.2,5.86,6a5.79,5.79,0,0,1-6.07,5.73c-3.28-.14-5.5-2.14-5.64-5.83A6,6,0,0,1,53.05,97.31Z"/><path d="M414.83,103.2a5.87,5.87,0,0,1-5.89,5.9c-2.89.14-6-2.91-5.91-5.76a6.25,6.25,0,0,1,5.89-6A6,6,0,0,1,414.83,103.2Z"/><path d="M1031.16,103.23a6,6,0,0,1,5.88-5.88,6.25,6.25,0,0,1,5.92,6c.07,2.83-3,5.9-5.88,5.78A5.87,5.87,0,0,1,1031.16,103.23Z"/><path d="M330.83,103.2a5.86,5.86,0,0,1-5.89,5.9c-2.88.14-5.95-2.91-5.91-5.75a6.26,6.26,0,0,1,5.89-6A6,6,0,0,1,330.83,103.2Z"/><path d="M1110.83,103.24a5.86,5.86,0,0,1-5.93,5.86,5.88,5.88,0,1,1,.06-11.75A6,6,0,0,1,1110.83,103.24Z"/><path d="M743.16,103.16a6,6,0,0,1,6-5.82,6.28,6.28,0,0,1,5.85,6c0,2.83-3.1,5.87-6,5.71A5.86,5.86,0,0,1,743.16,103.16Z"/><path d="M578.9,97.31c2.54,0,6,2.35,5.93,5.92a5.84,5.84,0,1,1-11.68,0C573.11,99.72,576.33,97.43,578.9,97.31Z"/><path d="M788.86,103.28c-.22,3.28-2.41,5.73-5.82,5.78a5.75,5.75,0,0,1-5.89-5.92c0-3.51,3.33-5.79,5.79-5.82A6.16,6.16,0,0,1,788.86,103.28Z"/><path d="M86.91,97.31c2.52,0,6,2.34,5.92,5.93a5.84,5.84,0,1,1-11.68-.07C81.11,99.71,84.36,97.42,86.91,97.31Z"/><path d="M375.05,97.31c2.65.08,6,2.53,5.78,6.06a5.84,5.84,0,0,1-11.67-.1C369,99.68,372.51,97.3,375.05,97.31Z"/><path d="M1076.86,103.28c-.23,3.28-2.41,5.73-5.82,5.78a5.75,5.75,0,0,1-5.89-5.92c0-3.51,3.33-5.79,5.79-5.82A6.16,6.16,0,0,1,1076.86,103.28Z"/><path d="M296.85,103.2a5.85,5.85,0,1,1-11.7,0c-.06-3.44,3.1-5.77,5.72-5.89A6.15,6.15,0,0,1,296.85,103.2Z"/><path d="M460.06,97.31a6,6,0,0,1,5.72,5.87,5.58,5.58,0,0,1-5.9,5.87c-3.51-.14-5.53-2.29-5.71-5.81C454,100.1,456.78,97.46,460.06,97.31Z"/><path d="M494.13,97.31c3.34.29,6,3.09,5.68,6.12-.34,3.52-2.32,5.62-5.89,5.61s-5.77-2.55-5.71-6.05A6,6,0,0,1,494.13,97.31Z"/><path d="M664.06,97.31a6,6,0,0,1,5.72,5.87,5.58,5.58,0,0,1-5.9,5.87c-3.51-.14-5.53-2.29-5.71-5.81C658,100.1,660.78,97.46,664.06,97.31Z"/><path d="M206.08,97.31c3.35.25,6,3,5.73,6.07-.3,3.53-2.3,5.64-5.84,5.66s-5.79-2.5-5.76-6A6,6,0,0,1,206.08,97.31Z"/><path d="M703.89,103.15c-.38,3.43-2.36,5.92-5.92,5.9s-5.65-2.29-5.75-5.77a5.71,5.71,0,0,1,5.62-5.92C701.1,97.21,703.6,100,703.89,103.15Z"/><path d="M177.82,103.23c-.28,3.49-2.33,5.77-5.76,5.82s-5.79-2.4-5.89-5.86a5.8,5.8,0,0,1,5.94-5.83A5.89,5.89,0,0,1,177.82,103.23Z"/><path d="M868,97.31a6,6,0,0,1,5.79,5.8,5.73,5.73,0,0,1-5.84,6,6,6,0,0,1-5.82-5.78A6.2,6.2,0,0,1,868,97.31Z"/><path d="M902,97.31a6.2,6.2,0,0,1,5.86,6,6,6,0,0,1-5.83,5.77,5.73,5.73,0,0,1-5.83-6A6,6,0,0,1,902,97.31Z"/><path d="M952,97.31a6,6,0,0,1,5.77,5.82,5.73,5.73,0,0,1-5.86,6,6,6,0,0,1-5.8-5.8A6.21,6.21,0,0,1,952,97.31Z"/><path d="M986.22,97.31a6.23,6.23,0,0,1,5.65,6.22c-.09,3-3.12,5.85-6,5.56-3.57-.34-5.72-2.72-5.61-6.19A6,6,0,0,1,986.22,97.31Z"/><path d="M1156.12,97.31c3.07.34,5.74,2.53,5.65,5.94s-2.29,5.76-5.72,5.8-5.79-2.42-5.88-5.87A6,6,0,0,1,1156.12,97.31Z"/><path d="M1190.13,97.31c3.35.29,6,3.11,5.68,6.13-.35,3.52-2.33,5.61-5.9,5.6s-5.76-2.57-5.7-6.06A6,6,0,0,1,1190.13,97.31Z"/><path d="M0,120.27c0-1.59.1-3.19,0-4.77s1-2.17,2.2-2.09a7.05,7.05,0,0,1,6.2,5,6.32,6.32,0,0,1-3.89,7.82,10.05,10.05,0,0,1-2.72.68c-1.33.08-1.7-.32-1.74-1.67-.06-1.66,0-3.34,0-5Z"/><path d="M1226.93,108c-2.84,1.61-6,1-7.69-1.33a5.53,5.53,0,0,1,.5-7.39c2.49-2.38,4.69-2.61,7.19-.69Z"/><path d="M562,91.12c-2.52.2-5.08-2.52-5-5a5.12,5.12,0,0,1,5.18-4.84,5.2,5.2,0,0,1,4.82,5C567.12,88.73,564.24,91.46,562,91.12Z"/><path d="M313,86.27c.14,2.38-2.45,5-5.09,4.88A5,5,0,0,1,303,86.06a5,5,0,0,1,10,.21Z"/><path d="M75,86.15c.28,2.63-2.8,5.06-5,5-2.57,0-5.12-2.58-5-5a5,5,0,0,1,10,0Z"/><path d="M109,86.17c.2,2.43-2.43,5-5,5-2.15,0-5.13-2.4-5-5a5.23,5.23,0,0,1,4.89-4.89A5.06,5.06,0,0,1,109,86.17Z"/><path d="M1178,86.12a5,5,0,0,1-10,.2,5,5,0,0,1,10-.2Z"/><path d="M601,86.16c.2,2.44-2.42,5-5,5-2.17,0-5.14-2.41-5-5a5.23,5.23,0,0,1,4.88-4.9A5.06,5.06,0,0,1,601,86.16Z"/><path d="M1093,86.12c.22,2.47-2.42,5-4.94,5.06-2.27,0-5.17-2.44-5-5a5.2,5.2,0,0,1,4.83-4.94A5.05,5.05,0,0,1,1093,86.12Z"/><path d="M194,86.22a5,5,0,0,1-10,0,5,5,0,0,1,10,0Z"/><path d="M1059,86.14a5,5,0,0,1-4.94,5,5.21,5.21,0,0,1-5-5,5,5,0,0,1,10,0Z"/><path d="M969,81.26a5.15,5.15,0,0,1,5,5,5,5,0,0,1-10,0A5.15,5.15,0,0,1,969,81.26Z"/><path d="M279,86.26c.24,2.45-2.71,5-5.06,4.92s-5.06-2.59-4.91-5.12a5.17,5.17,0,0,1,5-4.8A5.07,5.07,0,0,1,279,86.26Z"/><path d="M482,86.17a5,5,0,0,1-10,.11,5,5,0,0,1,10-.11Z"/><path d="M686,86.19a5,5,0,0,1-10,.07,5,5,0,0,1,10-.07Z"/><path d="M890,86.2a5,5,0,0,1-10,0,5,5,0,0,1,10,0Z"/><path d="M799.9,91.12a4.93,4.93,0,0,1-4.88-5,5,5,0,0,1,10,.17C805.05,88.63,802.53,91.38,799.9,91.12Z"/><path d="M397,86.23c.17,2.39-2.43,5-5.06,4.92A4.95,4.95,0,1,1,397,86.23Z"/><path d="M771,86.21c.26,2.52-2.74,5-5,5-2.53-.05-5.08-2.59-5-5.06a5.17,5.17,0,0,1,4.92-4.86A5.07,5.07,0,0,1,771,86.21Z"/><path d="M1207.1,91.12c-2.57.28-5.13-2.41-5.06-4.86a5,5,0,0,1,5-5,5.14,5.14,0,0,1,5,4.82A5,5,0,0,1,1207.1,91.12Z"/><path d="M1143.93,86.19c.22,2.47-2.44,5-5,5-2.22,0-5.14-2.41-5-5a5.24,5.24,0,0,1,4.93-4.88A5,5,0,0,1,1143.93,86.19Z"/><path d="M516,86.25c.19,2.52-2.76,5-5.08,4.93s-5-2.52-4.89-5.1A5.07,5.07,0,0,1,511,81.26,5.12,5.12,0,0,1,516,86.25Z"/><path d="M154.89,91.12A5,5,0,0,1,150,86.07a5.14,5.14,0,0,1,5-4.81,5,5,0,0,1,5,5C160,88.71,157.46,91.4,154.89,91.12Z"/><path d="M228,86.16c.24,2.6-2.76,5-5,5-2.5,0-5.09-2.52-5-5a5,5,0,0,1,10,0Z"/><path d="M19.05,91.12c-2.55.26-5.11-2.45-5-4.91a5,5,0,0,1,5.05-4.95A5.25,5.25,0,0,1,24,86.12C24.18,88.78,21.24,91.39,19.05,91.12Z"/><path d="M1008,86.17c.23,2.59-2.76,5-5,5-2.5,0-5.08-2.52-5-5a5,5,0,0,1,10,0Z"/><path d="M647,91.12c-2.28.31-5.17-2.35-5.06-4.92a5.21,5.21,0,0,1,5.1-4.94,5.09,5.09,0,0,1,4.9,4.86C652.09,88.66,649.49,91.35,647,91.12Z"/><path d="M924,86.18c.23,2.58-2.76,5-5,5-2.49,0-5.07-2.52-5-5a5,5,0,0,1,10,0Z"/><path d="M447.93,86.2c.21,2.46-2.44,5-5,5-2.2,0-5.14-2.41-5-5.05a5.23,5.23,0,0,1,4.93-4.87A5,5,0,0,1,447.93,86.2Z"/><path d="M855.93,86.23c.19,2.45-2.45,5-5,5-2.16,0-5.12-2.39-5-5.08a5.24,5.24,0,0,1,5-4.84A5,5,0,0,1,855.93,86.23Z"/><path d="M720,86.3c.16,2.51-2.78,5-5.13,4.88s-5-2.53-4.84-5.15a5,5,0,0,1,10,.27Z"/><path d="M363.93,86.23c.19,2.45-2.45,5-5,5-2.16,0-5.12-2.39-5-5.08a5.24,5.24,0,0,1,5-4.84A5,5,0,0,1,363.93,86.23Z"/><path d="M431.05,86.14a5.14,5.14,0,0,1-5,5,5,5,0,0,1-5-4.93,5.08,5.08,0,0,1,4.84-4.92A5.17,5.17,0,0,1,431.05,86.14Z"/><path d="M731.94,91.12a4.93,4.93,0,1,1,.22-9.85A5.08,5.08,0,0,1,737,86.21,5,5,0,0,1,731.94,91.12Z"/><path d="M839.05,86.19A5.11,5.11,0,0,1,834,91.12a5,5,0,0,1-5-5,5.06,5.06,0,0,1,4.89-4.87A5.19,5.19,0,0,1,839.05,86.19Z"/><path d="M341.7,91.12c-2.15.23-5-2.71-4.71-5.26a5,5,0,0,1,10.06.6A5.19,5.19,0,0,1,341.7,91.12Z"/><path d="M41,86.28a5,5,0,0,1-5.09,4.84,4.93,4.93,0,1,1,.1-9.86A5.08,5.08,0,0,1,41,86.28Z"/><path d="M941,86.21a5,5,0,0,1-5,4.91,5.14,5.14,0,0,1-5-5,5.22,5.22,0,0,1,5-4.86A5.08,5.08,0,0,1,941,86.21Z"/><path d="M245,86.15a5,5,0,0,1-5,5,5.13,5.13,0,0,1-5.07-4.94,5.22,5.22,0,0,1,4.91-4.92A5.08,5.08,0,0,1,245,86.15Z"/><path d="M635.05,86.21a5.12,5.12,0,0,1-5.1,4.91,5,5,0,0,1-4.93-5,5.08,5.08,0,0,1,4.91-4.85A5.18,5.18,0,0,1,635.05,86.21Z"/><path d="M1127.05,86.1a5.14,5.14,0,0,1-5,5,5,5,0,0,1-5-4.89,5.07,5.07,0,0,1,4.8-5A5.18,5.18,0,0,1,1127.05,86.1Z"/><path d="M143.05,86.15a5.15,5.15,0,0,1-5,5,5,5,0,0,1-5-4.94,5.07,5.07,0,0,1,4.85-4.91A5.18,5.18,0,0,1,143.05,86.15Z"/><path d="M533,86.25a5,5,0,0,1-5.07,4.87,5.15,5.15,0,0,1-5-5.05,5.21,5.21,0,0,1,5-4.81A5.07,5.07,0,0,1,533,86.25Z"/><path d="M1025,86.33a5,5,0,0,1-5.14,4.79,5.13,5.13,0,0,1-4.89-5.12,5.22,5.22,0,0,1,5.09-4.74A5.08,5.08,0,0,1,1025,86.33Z"/><path d="M544.9,91.12c-2.25.22-4.95-2.31-4.9-5,0-2.19,2.5-4.92,4.92-4.86a5.11,5.11,0,0,1,5,5A5,5,0,0,1,544.9,91.12Z"/><path d="M1036.86,91.12c-2.24.19-4.93-2.33-4.86-5.06,0-2.13,2.47-4.9,5-4.82a5.11,5.11,0,0,1,5,5A5,5,0,0,1,1036.86,91.12Z"/><path d="M612.72,91.12a5,5,0,0,1-4.66-5,5.13,5.13,0,0,1,5.15-4.85A5.34,5.34,0,0,1,618,86.48C617.85,88.84,615.34,91.46,612.72,91.12Z"/><path d="M498.89,86.09c.26,2.64-2.37,5.06-4.87,5.08-2.19,0-5-2.14-5-4.81a5.21,5.21,0,0,1,5-5.11C496.74,81.17,499.09,84,498.89,86.09Z"/><path d="M664,91.12c-2.5.18-5-2.4-4.9-5.06.05-2.07,2.21-4.9,5-4.81A5.24,5.24,0,0,1,669,86.14C669.08,88.92,666.24,91.39,664,91.12Z"/><path d="M460,91.12c-2.52.21-5-2.39-5-5,0-2.11,2.2-4.93,4.92-4.87a5.22,5.22,0,0,1,5,5.08C465,89,462.18,91.37,460,91.12Z"/><path d="M702.89,86.14c.25,2.59-2.38,5-4.93,5-2.16,0-5-2.18-4.94-4.86a5.23,5.23,0,0,1,5-5.06C700.75,81.2,703.12,84,702.89,86.14Z"/><path d="M749,91.12c-2.3.24-5-2.33-5-5,0-2.25,2.5-5.06,5.1-4.91a5.17,5.17,0,0,1,4.83,4.94A5,5,0,0,1,749,91.12Z"/><path d="M413.93,86.29c.22,2.5-2.58,5-5,4.87a5,5,0,0,1,.13-9.92C411.4,81.15,414.25,83.81,413.93,86.29Z"/><path d="M53,91.12c-2.38.27-5-2.35-5-4.89,0-2.35,2.53-5.11,5-5a5.16,5.16,0,0,1,4.9,4.87A5,5,0,0,1,53,91.12Z"/><path d="M1194.89,86.46a5,5,0,0,1-5.24,4.69c-2.08-.13-4.81-2.31-4.62-5.16a5.21,5.21,0,0,1,5.08-4.74A5,5,0,0,1,1194.89,86.46Z"/><path d="M821.93,86.16c.29,2.62-2.59,5-4.89,5a5,5,0,0,1-.15-9.93C819.49,81.09,822.21,83.9,821.93,86.16Z"/><path d="M868,91.12c-2.55.22-5-2.39-5-5,0-2.12,2.19-4.94,4.91-4.89a5.23,5.23,0,0,1,5,5.06C873,89,870.19,91.37,868,91.12Z"/><path d="M329.93,86.24c.25,2.52-2.57,5-5,4.92a5,5,0,0,1,0-9.92C327.45,81.13,330.24,83.86,329.93,86.24Z"/><path d="M906.89,86.23c.21,2.49-2.37,5-5,4.94-2.1,0-4.92-2.21-4.85-5a5.21,5.21,0,0,1,5.1-5C904.8,81.25,907.16,84.05,906.89,86.23Z"/><path d="M125.93,86.24c.25,2.53-2.57,5-5,4.92a5,5,0,0,1,0-9.92C123.46,81.12,126.23,83.88,125.93,86.24Z"/><path d="M951.93,91.12c-2.5.17-5-2.41-4.88-5.08.06-2.06,2.21-4.9,5-4.79A5.24,5.24,0,0,1,957,86.17C957.07,88.91,954.25,91.39,951.93,91.12Z"/><path d="M257,91.12c-2.32.25-5-2.34-5-5,0-2.27,2.51-5.08,5.09-4.93a5.17,5.17,0,0,1,4.84,4.92A5,5,0,0,1,257,91.12Z"/><path d="M990.89,86.29c.17,2.49-2.41,5-5.08,4.88-2.06-.07-4.9-2.22-4.79-5a5.24,5.24,0,0,1,4.92-4.91C988.69,81.15,991.17,84,990.89,86.29Z"/><path d="M1156,91.12c-2.5.18-5-2.4-4.9-5.06,0-2.07,2.21-4.9,5-4.81a5.24,5.24,0,0,1,4.94,4.89C1161.08,88.92,1158.24,91.39,1156,91.12Z"/><path d="M210.89,86.24c.2,2.49-2.37,5-5,4.93-2.09,0-4.92-2.21-4.84-5a5.25,5.25,0,0,1,4.87-5C208.71,81.12,211.15,84,210.89,86.24Z"/><path d="M1109.93,86.15c.29,2.64-2.59,5-4.89,5a5,5,0,0,1-.16-9.93C1107.49,81.09,1110.21,83.9,1109.93,86.15Z"/><path d="M172,91.12c-2.56.23-5-2.39-5-5,0-2.14,2.2-5,4.89-4.9a5.23,5.23,0,0,1,5,5C177,89,174.21,91.36,172,91.12Z"/><path d="M1070.92,81.27a4.93,4.93,0,1,1-4.92,5.09A5.09,5.09,0,0,1,1070.92,81.27Z"/><path d="M578.94,91.12a5,5,0,0,1-4.94-5,5,5,0,0,1,10,.11A5,5,0,0,1,578.94,91.12Z"/><path d="M291,91.12a5,5,0,0,1-5-5,5,5,0,0,1,10,0A5,5,0,0,1,291,91.12Z"/><path d="M374.94,91.12a5,5,0,0,1-4.94-5,5,5,0,0,1,10,.11A5,5,0,0,1,374.94,91.12Z"/><path d="M86.91,91.12a5,5,0,0,1-4.91-5,5,5,0,0,1,10,.17A5,5,0,0,1,86.91,91.12Z"/><path d="M783,91.12a5,5,0,0,1-5-5,5,5,0,0,1,10,.07A5,5,0,0,1,783,91.12Z"/><path d="M.46,97.61c3.06-1.25,6.72,1.51,7.38,4.85a5.84,5.84,0,0,1-3.19,5.87c-1,.4-2,1-3.18.8-.81-.14-1.4-.47-1.4-1.34,0-3.19,0-6.38.1-9.58C.17,98,.37,97.79.46,97.61Z"/><path d="M1227,86.38c0,.88,0,1.76,0,2.64a1.8,1.8,0,0,1-1.46,1.92,4.77,4.77,0,0,1-4.89-1.11A4.89,4.89,0,0,1,1219,85.1a5.62,5.62,0,0,1,4.49-3.82c2.5-.23,3.48.67,3.49,3.18,0,.64,0,1.28,0,1.92Z"/><path d="M.33,81.57a4.62,4.62,0,0,1,5.44,1.54,4.58,4.58,0,0,1,.32,5.73C4.78,91,2.82,91.41.54,91-.07,89.3-.19,84.54.33,81.57Z"/><path d="M681.09,73.25A4,4,0,1,1,685,69.19,3.86,3.86,0,0,1,681.09,73.25Z"/><path d="M889,69.12A4,4,0,1,1,885,65.19,3.86,3.86,0,0,1,889,69.12Z"/><path d="M481,69.26a4,4,0,1,1-3.94-4.07A3.87,3.87,0,0,1,481,69.26Z"/><path d="M973,69.15a4,4,0,1,1-4-4A3.87,3.87,0,0,1,973,69.15Z"/><path d="M189.05,73.25a4,4,0,1,1,4-4A3.86,3.86,0,0,1,189.05,73.25Z"/><path d="M1172.89,65.19a4,4,0,1,1-3.93,4.07A3.87,3.87,0,0,1,1172.89,65.19Z"/><path d="M108.07,69.19a3.9,3.9,0,0,1-4,4.06,4,4,0,1,1-.06-8.06A3.88,3.88,0,0,1,108.07,69.19Z"/><path d="M1143,69.17a3.85,3.85,0,0,1-3.93,4.08,4,4,0,1,1-.11-8.06A3.86,3.86,0,0,1,1143,69.17Z"/><path d="M719.11,69.3a4.06,4.06,0,0,1-4.12,4,4,4,0,1,1,.15-8.06A4.09,4.09,0,0,1,719.11,69.3Z"/><path d="M159,69.2a3.85,3.85,0,0,1-4,4,4,4,0,1,1,0-8.06A3.86,3.86,0,0,1,159,69.2Z"/><path d="M647,65.19a4,4,0,1,1-.05,8.06,4,4,0,1,1,.05-8.06Z"/><path d="M70.07,73.25a4,4,0,1,1,0-8.06,4,4,0,0,1,0,8.06Z"/><path d="M1088.06,73.25a4,4,0,0,1-.27-8.06,4,4,0,1,1,.27,8.06Z"/><path d="M227.11,69.21a4.07,4.07,0,0,1-4,4,4,4,0,1,1,0-8.06A4.07,4.07,0,0,1,227.11,69.21Z"/><path d="M770.07,69.33A4,4,0,0,1,766,73.25a4,4,0,1,1,.21-8.06A4,4,0,0,1,770.07,69.33Z"/><path d="M1058.07,69.27a4,4,0,0,1-4,4,4,4,0,1,1,.09-8.06A4,4,0,0,1,1058.07,69.27Z"/><path d="M278.07,69.38a4,4,0,0,1-4.16,3.87,4,4,0,1,1,.31-8.06A4,4,0,0,1,278.07,69.38Z"/><path d="M800,73.25a4,4,0,0,1-.07-8.06,4,4,0,1,1,.07,8.06Z"/><path d="M303.92,69.22a4,4,0,0,1,4-4,4,4,0,1,1,0,8.06A4,4,0,0,1,303.92,69.22Z"/><path d="M1007.11,69.29a4.05,4.05,0,0,1-4.11,4,4,4,0,1,1,.13-8.06A4.09,4.09,0,0,1,1007.11,69.29Z"/><path d="M595.9,73.25a4,4,0,0,1,.06-8.06,4,4,0,1,1-.06,8.06Z"/><path d="M363,69.25a3.86,3.86,0,0,1-4,4,4,4,0,0,1-4.14-4.17,4.09,4.09,0,0,1,4.19-3.89A3.86,3.86,0,0,1,363,69.25Z"/><path d="M1211.11,69.17a4.08,4.08,0,0,1-4,4.08,4,4,0,1,1-.1-8.06A4.08,4.08,0,0,1,1211.11,69.17Z"/><path d="M396.07,69.29a3.88,3.88,0,0,1-4.1,4,4,4,0,1,1,.15-8.06A3.9,3.9,0,0,1,396.07,69.29Z"/><path d="M557.92,69.08a3.93,3.93,0,0,1,4.17-3.89,4,4,0,1,1-.29,8.06A3.89,3.89,0,0,1,557.92,69.08Z"/><path d="M851.09,73.25a4,4,0,1,1-.32-8.06,4,4,0,1,1,.32,8.06Z"/><path d="M443,73.25a4,4,0,1,1-.22-8.06,4,4,0,1,1,.22,8.06Z"/><path d="M919,73.25a4,4,0,1,1,.16-8.06,4,4,0,1,1-.16,8.06Z"/><path d="M515.11,69.3a4.07,4.07,0,0,1-4.13,4,4,4,0,1,1,.16-8.06A4.09,4.09,0,0,1,515.11,69.3Z"/><path d="M19,65.19a4,4,0,1,1,.07,8.06A4,4,0,1,1,19,65.19Z"/><path d="M40,69.24a3.83,3.83,0,0,1-4,4,4,4,0,0,1-4-4,4.14,4.14,0,0,1,4.08-4A4,4,0,0,1,40,69.24Z"/><path d="M532,69.25a3.81,3.81,0,0,1-4,4,4,4,0,0,1-4-4.06,4.14,4.14,0,0,1,4.09-4A4,4,0,0,1,532,69.25Z"/><path d="M430,69.18a4,4,0,1,1-8,.09,4,4,0,0,1,3.92-4.12C428,65,430.26,67.15,430,69.18Z"/><path d="M940,69.46a3.83,3.83,0,0,1-4.2,3.79,4,4,0,1,1,4.2-3.79Z"/><path d="M834,65.19a4,4,0,0,1,4,4.08,4.13,4.13,0,0,1-4.11,4A4,4,0,0,1,830,69.18,3.82,3.82,0,0,1,834,65.19Z"/><path d="M342.08,65.19A4,4,0,0,1,346,69.33a4.14,4.14,0,0,1-4.17,4A4,4,0,0,1,338,69.11,3.82,3.82,0,0,1,342.08,65.19Z"/><path d="M1024,69.29a3.82,3.82,0,0,1-4,4,3.94,3.94,0,0,1-4-4.09,4.14,4.14,0,0,1,4.12-4A4,4,0,0,1,1024,69.29Z"/><path d="M240.1,65.19a4,4,0,0,1-.17,8.06,4,4,0,0,1-4-4.11C235.87,67.2,238,64.82,240.1,65.19Z"/><path d="M1126,69.23c.27,2.11-2.06,4.23-4,4.07a4,4,0,0,1-4-4.09,4,4,0,1,1,8,0Z"/><path d="M731.89,65.19a4,4,0,1,1-3.9,4.16A3.83,3.83,0,0,1,731.89,65.19Z"/><path d="M138,73.25a3.82,3.82,0,0,1-4-4,4,4,0,0,1,3.93-4.11,4.14,4.14,0,0,1,4.1,4A3.94,3.94,0,0,1,138,73.25Z"/><path d="M630,65.19a4,4,0,0,1,4,4A4.15,4.15,0,0,1,630,73.3a4,4,0,0,1-4-4.1A3.83,3.83,0,0,1,630,65.19Z"/><path d="M613,73.25a4,4,0,0,1-.06-8.06,4,4,0,1,1,.06,8.06Z"/><path d="M749.07,65.19a4,4,0,1,1-4.1,3.88A3.92,3.92,0,0,1,749.07,65.19Z"/><path d="M821,69.16a3.94,3.94,0,0,1-3.9,4.09,4,4,0,1,1-.12-8.06A3.93,3.93,0,0,1,821,69.16Z"/><path d="M549,69.26a3.87,3.87,0,0,1-4,4,4,4,0,1,1,.08-8.06A3.87,3.87,0,0,1,549,69.26Z"/><path d="M408.9,73.25a4,4,0,0,1,.1-8.06,4,4,0,1,1-.1,8.06Z"/><path d="M329,69.31a4,4,0,0,1-4,3.94,4,4,0,1,1,.18-8.06A3.94,3.94,0,0,1,329,69.31Z"/><path d="M1036.93,73.25a4,4,0,1,1,.22-8.06,4,4,0,0,1-.22,8.06Z"/><path d="M257,73.25a4,4,0,1,1,.12-8.06,4,4,0,0,1-.12,8.06Z"/><path d="M1109,69.22a3.94,3.94,0,0,1-4,4,4,4,0,1,1,0-8.06A4,4,0,0,1,1109,69.22Z"/><path d="M121,65.19a4,4,0,1,1,0,8.06,4,4,0,0,1,0-8.06Z"/><path d="M53,65.19a4,4,0,0,1,.18,8.06A4,4,0,1,1,53,65.19Z"/><path d="M664.12,73.25a4,4,0,1,1-.11-8.06,4,4,0,0,1,.11,8.06Z"/><path d="M698.07,73.25a4,4,0,0,1-.28-8.06,4,4,0,1,1,.28,8.06Z"/><path d="M872.08,69.19a4,4,0,0,1-4,4.06,4,4,0,1,1-.06-8.06A4,4,0,0,1,872.08,69.19Z"/><path d="M489.91,69.22a4,4,0,0,1,4-4,4,4,0,1,1,0,8.06A4,4,0,0,1,489.91,69.22Z"/><path d="M901.86,73.25a4,4,0,0,1,.14-8.06,4,4,0,1,1-.14,8.06Z"/><path d="M460,65.19a4,4,0,0,1,.2,8.06,4,4,0,1,1-.2-8.06Z"/><path d="M956.08,69.14a4,4,0,0,1-3.94,4.11,4,4,0,1,1-.16-8.06A4,4,0,0,1,956.08,69.14Z"/><path d="M985.9,73.25a4,4,0,0,1,.06-8.06,4,4,0,1,1-.06,8.06Z"/><path d="M210,69.25a3.8,3.8,0,0,1-4,4,4,4,0,1,1,.07-8.06A3.79,3.79,0,0,1,210,69.25Z"/><path d="M172.12,73.25a4,4,0,1,1-.11-8.06,4,4,0,0,1,.11,8.06Z"/><path d="M1156,65.19a4,4,0,0,1,.14,8.06,4,4,0,1,1-.14-8.06Z"/><path d="M1190,65.19a4,4,0,1,1-.11,8.06,4,4,0,0,1,.11-8.06Z"/><path d="M783.1,73.25A4,4,0,1,1,787,69.12,3.78,3.78,0,0,1,783.1,73.25Z"/><path d="M583,69.22a4,4,0,1,1-4-4A3.77,3.77,0,0,1,583,69.22Z"/><path d="M379,69.22a4,4,0,1,1-4-4A3.77,3.77,0,0,1,379,69.22Z"/><path d="M295,69.19a4,4,0,1,1-4-4A3.79,3.79,0,0,1,295,69.19Z"/><path d="M1075,69.22a4,4,0,1,1-4-4A3.77,3.77,0,0,1,1075,69.22Z"/><path d="M86.91,65.19c2-.4,4.23,1.93,4.08,4a4,4,0,1,1-8,.15C83.18,66.88,84.58,65.22,86.91,65.19Z"/><path d="M1227,69.39c0,.47,0,1,0,1.43a2.21,2.21,0,0,1-2.32,2.41,4.05,4.05,0,0,1-2.85-7.44,4,4,0,0,1,4.06-.22,1.76,1.76,0,0,1,1.12,1.91A17.36,17.36,0,0,0,1227,69.39Z"/><path d="M.14,72.74V65.68c2.72-1.18,4.18-.12,5.3,1.32a4.51,4.51,0,0,1,0,4.48A3.86,3.86,0,0,1,.14,72.74Z"/><path d="M69.91,49.11c2.24,0,3.14.9,3.22,3.13a2.86,2.86,0,0,1-3.08,3,3,3,0,0,1-3.28-2.9C66.84,50.2,67.74,49.15,69.91,49.11Z"/><path d="M274.05,49.11a2.85,2.85,0,0,1,3.07,3.28c-.12,2.06-1,2.91-3.22,2.87s-3-1-3.13-3A3,3,0,0,1,274.05,49.11Z"/><path d="M311.19,52.24c.23,1.84-1.39,3.08-3.34,3a2.85,2.85,0,0,1-3-3.13c.11-2.1,1-3,3.07-3.08A3,3,0,0,1,311.19,52.24Z"/><path d="M391.94,49.11a3,3,0,0,1,3.28,3.14c-.13,2-1,2.91-3.13,3a2.82,2.82,0,0,1-3.23-3.12C389,50.05,389.84,49.12,391.94,49.11Z"/><path d="M1173.11,49.11c2-.17,3.17,1.42,3.05,3.32s-1.06,2.8-3.28,2.84a2.8,2.8,0,0,1-3.06-3.07C1169.92,50,1170.85,49.07,1173.11,49.11Z"/><path d="M480.15,52.3c0,2.05-1,2.9-3.14,3a2.8,2.8,0,0,1-3.18-3.18c.11-2.07,1-3,3.15-3S480.17,50.07,480.15,52.3Z"/><path d="M192.15,52.3c0,2.05-1,2.9-3.14,3a2.8,2.8,0,0,1-3.18-3.18c.11-2.07,1-3,3.15-3S192.17,50.07,192.15,52.3Z"/><path d="M562,49.11c2.18,0,3.15,1,3.13,3.2s-.94,2.9-3.13,3a3,3,0,0,1-3.23-3A3.06,3.06,0,0,1,562,49.11Z"/><path d="M596,55.26a2.76,2.76,0,0,1-3.1-3c.08-2.24,1-3.2,3.2-3.16s3.08,1.07,3.16,3.26A2.9,2.9,0,0,1,596,55.26Z"/><path d="M1091.19,52.25c.23,1.82-1.38,3.07-3.34,3a2.85,2.85,0,0,1-3-3.14c.12-2.1,1-2.95,3.08-3.07A3,3,0,0,1,1091.19,52.25Z"/><path d="M681,49.11c2.23,0,3.18,1,3.16,3.2,0,2-1,2.95-3.15,2.95s-3.13-.88-3.16-2.94C677.81,50.09,678.77,49.11,681,49.11Z"/><path d="M1054.11,55.26a2.9,2.9,0,0,1-3.33-3c.12-2,1-3,3.07-3.1,2.24-.07,3.17.88,3.28,3.07A2.75,2.75,0,0,1,1054.11,55.26Z"/><path d="M762.8,52c.09-2,1.25-3,3.5-2.88,2,.09,2.81,1.15,2.83,3.29,0,1.64-1.09,3.07-3.48,2.86C763.62,55.09,762.71,54.1,762.8,52Z"/><path d="M800,55.26a2.76,2.76,0,0,1-3.1-3c.08-2.23,1-3.19,3.2-3.15s3.08,1.08,3.16,3.26A2.9,2.9,0,0,1,800,55.26Z"/><path d="M885.07,55.26c-2.25,0-3.13-.81-3.24-2.87a2.91,2.91,0,0,1,3.09-3.3c2.25.07,3.17.95,3.25,3.15A2.76,2.76,0,0,1,885.07,55.26Z"/><path d="M107.19,52.34c.22,1.68-1.37,2.94-3.2,2.95a2.85,2.85,0,0,1-3.12-3.23c.13-2.07,1-2.89,3.16-3A3,3,0,0,1,107.19,52.34Z"/><path d="M972.15,52.25c.16,1.62-.95,3-3.09,3s-3.33-1.34-3.23-3.15c.1-2.1,1-3,3.1-3S972.15,50,972.15,52.25Z"/><path d="M732,49.11c2.16,0,3,.89,3.12,3,.09,1.89-1,3.23-3.25,3.13-2.07-.09-3.09-1.1-3-3.14S730,49.11,732,49.11Z"/><path d="M936,55.26c-2.13,0-3.17-1-3.18-3a2.85,2.85,0,0,1,3-3.18,2.92,2.92,0,0,1,3.28,3.15A2.77,2.77,0,0,1,936,55.26Z"/><path d="M919,55.26a2.84,2.84,0,0,1-3.14-3c.11-2.22,1-3.17,3.27-3.14a2.79,2.79,0,0,1,3,3.15C922.11,54.28,921.07,55.27,919,55.26Z"/><path d="M19.07,55.26c-2.2,0-3.11-.87-3.25-2.9A3,3,0,0,1,19,49.08c2,.1,3.1,1.06,3.14,3.07S21.13,55.24,19.07,55.26Z"/><path d="M1003,49.11a2.78,2.78,0,0,1,3.17,3c.06,2-1,3.11-3,3.14-2.2,0-3.21-.85-3.26-2.87C999.79,50.13,1000.73,49.13,1003,49.11Z"/><path d="M1227,52.3c.29,1.85-1,3-3,3s-3.13-1-3.11-3.06,1.15-3.09,3.32-3.12A2.67,2.67,0,0,1,1227,52.3Z"/><path d="M850.89,49.11c2.27,0,3.17.92,3.28,3.13a2.9,2.9,0,0,1-3.13,3c-2.11-.07-3.16-1-3.17-3A2.8,2.8,0,0,1,850.89,49.11Z"/><path d="M834.09,49.11a2.78,2.78,0,0,1,3.07,3.12c0,2-1,3-3.14,3A2.79,2.79,0,0,1,830.87,52C831,50,831.91,49.08,834.09,49.11Z"/><path d="M1207,55.26a2.84,2.84,0,0,1-3.17-3c.1-2.23,1-3.18,3.24-3.16a2.78,2.78,0,0,1,3.06,3.13Q1210.12,55.27,1207,55.26Z"/><path d="M1020.32,49.11c1.62-.1,2.94,1.27,2.8,3.34s-1.26,3-3.56,2.8c-1.85-.13-2.8-1.25-2.73-3.19A2.87,2.87,0,0,1,1020.32,49.11Z"/><path d="M342,55.26a2.77,2.77,0,0,1-3.13-3,2.92,2.92,0,0,1,3.28-3.15,2.85,2.85,0,0,1,3,3.18C345.15,54.29,344.11,55.26,342,55.26Z"/><path d="M359,55.26c-2.1,0-3.15-1-3.15-3a2.79,2.79,0,0,1,3-3.14c2.27,0,3.16.92,3.26,3.15A2.84,2.84,0,0,1,359,55.26Z"/><path d="M39.11,52.18a2.72,2.72,0,0,1-3,3.09c-2.16,0-3.2-.93-3.24-2.94s1.1-3.16,3.21-3.24A2.81,2.81,0,0,1,39.11,52.18Z"/><path d="M426.06,55.26a2.78,2.78,0,0,1-3.21-2.94,2.92,2.92,0,0,1,3.2-3.23c2,.1,3.09,1.09,3.11,3.1S428.16,55.24,426.06,55.26Z"/><path d="M711.84,52c.09-2.07,1.23-2.92,3.51-2.91a3,3,0,0,1,2.77,3.44c-.15,1.95-1.24,2.84-3.42,2.73S711.76,54.15,711.84,52Z"/><path d="M137.9,55.26a2.77,2.77,0,0,1-3.05-3.1,2.91,2.91,0,0,1,3.36-3.06,2.86,2.86,0,0,1,2.95,3.25C141.11,54.35,140.06,55.29,137.9,55.26Z"/><path d="M446.15,52.39c0,2-1.06,2.9-3.26,2.87s-3.08-1.1-3-3.14a2.78,2.78,0,0,1,3.17-3C445.26,49.13,446.2,50.13,446.15,52.39Z"/><path d="M155,55.26q-3.14,0-3.11-3c0-2,1.08-3,3.08-3.13a3.07,3.07,0,0,1,3.24,3.22A2.9,2.9,0,0,1,155,55.26Z"/><path d="M647.11,49.11c2.17,0,3.11,1.09,3,3.35-.07,2-1.1,2.85-3.32,2.8a2.75,2.75,0,0,1-3-3.21C644,50.07,645.06,49.07,647.11,49.11Z"/><path d="M629.9,55.26a2.77,2.77,0,0,1-3-3.11,2.91,2.91,0,0,1,3.36-3,2.87,2.87,0,0,1,2.95,3.26C633.11,54.36,632.06,55.29,629.9,55.26Z"/><path d="M223,49.11a2.78,2.78,0,0,1,3.08,3.1c0,2-1,3-3.11,3.07a3,3,0,0,1-3.21-3A3,3,0,0,1,223,49.11Z"/><path d="M1139.05,49.11c2.21,0,3.15,1,3.1,3.29-.05,2-1.06,2.89-3.27,2.86a2.71,2.71,0,0,1-3-3.14C1135.92,50.12,1137,49.09,1139.05,49.11Z"/><path d="M240,49.11c2.18,0,3,.87,3.13,3,.1,1.89-1,3.23-3.24,3.14-2.07-.09-3.09-1.09-3-3.13S238,49.11,240,49.11Z"/><path d="M1121.93,49.11c2.07,0,3.16,1,3.23,3s-1,3.14-3.23,3.19a2.81,2.81,0,0,1-3.08-3.08A2.84,2.84,0,0,1,1121.93,49.11Z"/><path d="M511,55.26a2.83,2.83,0,0,1-3.17-3c.1-2.24,1-3.19,3.24-3.17a2.78,2.78,0,0,1,3.06,3.12Q514.12,55.28,511,55.26Z"/><path d="M531.11,52.16a2.73,2.73,0,0,1-3,3.11c-2.16,0-3.21-.92-3.26-2.92s1.09-3.18,3.19-3.26A2.8,2.8,0,0,1,531.11,52.16Z"/><path d="M545,55.26a2.77,2.77,0,0,1-3.06-3.07A3,3,0,0,1,545,49.06a3.29,3.29,0,0,1,3.28,3.26A3,3,0,0,1,545,55.26Z"/><path d="M1108.07,52.18a2.78,2.78,0,0,1-3,3.11,3.12,3.12,0,0,1-3.3-3,3.29,3.29,0,0,1,3.27-3.27A2.89,2.89,0,0,1,1108.07,52.18Z"/><path d="M53,55.26a2.78,2.78,0,0,1-3.08-3.06,3,3,0,0,1,3-3.14,3.29,3.29,0,0,1,3.3,3.24A3,3,0,0,1,53,55.26Z"/><path d="M613.1,55.26a3,3,0,0,1-3.35-2.88,3.21,3.21,0,0,1,3.22-3.3c2.16.11,3,.89,3.11,3.05A2.72,2.72,0,0,1,613.1,55.26Z"/><path d="M412.07,52.32c.15,1.65-1,3-3.16,3a3,3,0,0,1-3.14-3.1c.11-2,1.24-3,3.39-3.11A2.84,2.84,0,0,1,412.07,52.32Z"/><path d="M749.09,55.26a2.78,2.78,0,0,1-3.2-2.93,3,3,0,0,1,2.93-3.25c2.16.06,3.29,1.05,3.4,3.1A2.92,2.92,0,0,1,749.09,55.26Z"/><path d="M1036.92,55.26a2.77,2.77,0,0,1-3-3.1,3,3,0,0,1,3.1-3.1,3.28,3.28,0,0,1,3.25,3.29A3,3,0,0,1,1036.92,55.26Z"/><path d="M328.07,52.16a2.78,2.78,0,0,1-3,3.13,3.13,3.13,0,0,1-3.32-2.94A3.28,3.28,0,0,1,325,49.06,2.89,2.89,0,0,1,328.07,52.16Z"/><path d="M820.07,52.32c.15,1.65-1,3-3.16,3a3,3,0,0,1-3.14-3.1c.11-2,1.24-3,3.39-3.11A2.84,2.84,0,0,1,820.07,52.32Z"/><path d="M121,49.11c2.16,0,3,.86,3.11,3a2.83,2.83,0,0,1-3,3.16,3.13,3.13,0,0,1-3.35-2.91A3.09,3.09,0,0,1,121,49.11Z"/><path d="M257,55.26a2.78,2.78,0,0,1-3.12-3,2.94,2.94,0,0,1,3-3.17c2.13.09,3.23,1.12,3.31,3.18A2.92,2.92,0,0,1,257,55.26Z"/><path d="M1067.92,52c.09-2.07,1-2.86,3.23-2.89,1.85,0,3.08,1.32,2.92,3.44s-1.13,2.76-3.35,2.74A2.72,2.72,0,0,1,1067.92,52Z"/><path d="M90.07,52.33c.13,1.67-1,3-3.15,3a2.77,2.77,0,0,1-3-3.1c.09-2.21,1-3.07,3.28-3.09A2.8,2.8,0,0,1,90.07,52.33Z"/><path d="M375.09,49.11c2-.16,3,1.46,3,3.12,0,1.84-1,3.12-3.32,3.05A2.77,2.77,0,0,1,371.91,52C372,50,372.92,49.08,375.09,49.11Z"/><path d="M786.07,52.23c.15,1.82-1,3.05-3.05,3.05a2.81,2.81,0,0,1-3.13-3,2.94,2.94,0,0,1,3.2-3.21A2.84,2.84,0,0,1,786.07,52.23Z"/><path d="M290.79,55.25c-1.78.08-3-1.1-2.88-3.2s1-2.9,3.17-3c2-.05,3.13,1.37,3,3.38S293,55.33,290.79,55.25Z"/><path d="M582.07,52.26c.14,1.8-1,3-3.08,3a2.78,2.78,0,0,1-3.09-3c.07-2.26,1-3.11,3.22-3.16A2.79,2.79,0,0,1,582.07,52.26Z"/><path d="M456.88,52c.09-2.06,1.22-3,3.48-2.87,1.9.11,2.77,1.22,2.66,3.42-.09,2-1.12,2.84-3.32,2.72S456.8,54.16,456.88,52Z"/><path d="M209.11,52.15c0,2.14-.86,3-3,3.12a2.79,2.79,0,0,1-3.19-2.92,3,3,0,0,1,2.87-3.29C207.88,49,209.3,50.47,209.11,52.15Z"/><path d="M493.86,55.26c-1.67.13-3-1-2.91-3.16s1-3,3.11-3a3,3,0,0,1,3.09,3.33A2.88,2.88,0,0,1,493.86,55.26Z"/><path d="M175,52.33c.14,1.74-1.09,3-3.13,3a2.9,2.9,0,0,1-3-3.11c.12-2.19,1-3,3.3-3.1A2.82,2.82,0,0,1,175,52.33Z"/><path d="M664,55.26a2.86,2.86,0,0,1-3.17-3,3.1,3.1,0,0,1,3.21-3.23,3,3,0,0,1,3,3.16A2.74,2.74,0,0,1,664,55.26Z"/><path d="M701.11,52.33c.19,1.77-1.33,3-3.17,3a2.84,2.84,0,0,1-3-3.12,3.09,3.09,0,1,1,6.18.16Z"/><path d="M871,52.17a2.75,2.75,0,0,1-3,3.12,3,3,0,0,1-3.21-2.95A3.1,3.1,0,0,1,868,49.06,2.84,2.84,0,0,1,871,52.17Z"/><path d="M901.86,55.26c-1.67.13-3-1-2.91-3.16s1-3,3.11-3a3,3,0,0,1,3.09,3.33A2.88,2.88,0,0,1,901.86,55.26Z"/><path d="M955,52.16a2.74,2.74,0,0,1-3,3.13,2.91,2.91,0,0,1-3.2-2.94c.06-2.27.91-3.15,3.13-3.27A2.8,2.8,0,0,1,955,52.16Z"/><path d="M989.11,52.21c.22,1.94-1.37,3-3,3.08a2.83,2.83,0,0,1-3.14-3,2.91,2.91,0,0,1,2.93-3.22C988.12,49.14,989.1,50,989.11,52.21Z"/><path d="M1152.88,52c.09-2.06,1.22-3,3.48-2.87,1.9.11,2.77,1.22,2.66,3.42-.09,2-1.12,2.84-3.32,2.72S1152.8,54.16,1152.88,52Z"/><path d="M1193.11,52.34c.18,1.77-1.33,3-3.17,2.95a2.83,2.83,0,0,1-3-3.12,3.09,3.09,0,1,1,6.18.17Z"/><path d="M.15,55V49.67c2.05-.87,3.12-.76,4.23.43a3.85,3.85,0,0,1,.47,3.75C3.74,55.52,2.11,55.42.15,55Z"/><path d="M37.85,37c-2.17.7-3.29.59-3.87-.38a2.71,2.71,0,0,1,.23-3.09,2.74,2.74,0,0,1,3.31-.17C38.79,34.39,38.38,35.7,37.85,37Z"/><path d="M1225.84,37c-2.17.69-3.31.56-3.87-.41a2.71,2.71,0,0,1,.26-3.09,2.77,2.77,0,0,1,3.31-.14C1226.78,34.41,1226.39,35.72,1225.84,37Z"/><path d="M136.15,37c-.66-2.19-.53-3.22.41-3.75a2.87,2.87,0,0,1,3.3.32,2.77,2.77,0,0,1,.21,2.9C139.53,37.53,138.5,37.68,136.15,37Z"/><path d="M241.84,37c-2.31.67-3.37.52-3.91-.5a2.67,2.67,0,0,1,.35-3.07,2.93,2.93,0,0,1,3.13-.18C242.36,33.78,242.5,34.79,241.84,37Z"/><path d="M1120.15,37c-.55-1.37-.94-2.69.36-3.72a2.7,2.7,0,0,1,3.3.22,2.76,2.76,0,0,1,.19,3.1C1123.44,37.52,1122.48,37.64,1120.15,37Z"/><path d="M340.16,37c-.67-2.17-.55-3.21.38-3.75a2.89,2.89,0,0,1,3.31.31,2.73,2.73,0,0,1,.22,2.9C343.54,37.52,342.53,37.68,340.16,37Z"/><path d="M424.13,37c-.52-1.27-.93-2.58.36-3.63A2.43,2.43,0,0,1,428,36.61C427.42,37.57,426.28,37.68,424.13,37Z"/><path d="M1021.8,37.07c-1.44.47-2.77.77-3.79-.46a2.58,2.58,0,0,1,.17-3.09,2.9,2.9,0,0,1,3.32-.23C1022.4,33.85,1022.5,34.9,1021.8,37.07Z"/><path d="M529.83,37c-2.37.67-3.38.51-3.91-.54a2.75,2.75,0,0,1,.22-2.9,2.9,2.9,0,0,1,3.3-.31C530.38,33.8,530.5,34.83,529.83,37Z"/><path d="M937.83,37c-2.39.66-3.38.5-3.92-.56a2.72,2.72,0,0,1,.24-2.9,2.9,2.9,0,0,1,3.31-.29C938.38,33.82,938.5,34.85,937.83,37Z"/><path d="M628.13,37c-.52-1.26-.93-2.58.35-3.63A2.43,2.43,0,0,1,632,36.6C631.43,37.57,630.3,37.67,628.13,37Z"/><path d="M733.8,37.06c-1.45.49-2.78.78-3.79-.46a2.55,2.55,0,0,1,.18-3.08,2.9,2.9,0,0,1,3.32-.23C734.4,33.86,734.5,34.93,733.8,37.06Z"/><path d="M832.17,37c-.6-1.24-.92-2.54.24-3.64a2.82,2.82,0,0,1,3.32.09,2.68,2.68,0,0,1,.32,3.08C835.49,37.53,834.41,37.67,832.17,37Z"/><path d="M88.7,37.24H85.37c-.91-1.48-1.07-2.77,0-3.89a2.92,2.92,0,0,1,3.14-.06C89.4,33.88,89.49,35.14,88.7,37.24Z"/><path d="M292.62,37.25h-3.18c-1-1.37-1.1-2.65-.15-3.83a2.82,2.82,0,0,1,3.32-.06C293.69,34.49,293.52,35.78,292.62,37.25Z"/><path d="M1072.59,37.26h-3.16c-1-1.42-1.08-2.71-.12-3.88a2.9,2.9,0,0,1,3.34,0C1073.66,34.53,1073.55,35.81,1072.59,37.26Z"/><path d="M376.7,37.25h-3.33c-.9-1.47-1.07-2.76,0-3.9a2.91,2.91,0,0,1,3.14-.06C377.39,33.87,377.49,35.12,376.7,37.25Z"/><path d="M580.68,37.28h-3.19a2.85,2.85,0,0,1-.26-3.8c.56-.75,2.47-.78,3.32-.18S581.49,35.14,580.68,37.28Z"/><path d="M781.29,37.23c-.78-2-.71-3.32.13-3.92a3.23,3.23,0,0,1,3.16,0c.83.6.9,1.89.12,3.92Z"/><path d="M1175.32,35.2c0,1.56-.73,2.27-2.32,2.27s-2.34-.71-2.33-2.27a2.33,2.33,0,1,1,4.65,0Z"/><path d="M191,33.44a9.78,9.78,0,0,1,.36,1.68c.05,1.7-.73,2.45-2.46,2.33-.76-.06-1.76,0-1.92-1a4.67,4.67,0,0,1,.17-2.71c.25-.5,1.32-.73,2.05-.8A5.17,5.17,0,0,1,191,33.44Z"/><path d="M478.94,33.44a9.67,9.67,0,0,1,.37,1.66c.06,1.71-.71,2.46-2.45,2.35-.76-.05-1.76,0-1.92-1a4.68,4.68,0,0,1,.15-2.71c.25-.5,1.32-.74,2.05-.82A5.2,5.2,0,0,1,478.94,33.44Z"/><path d="M971,33.45a9.68,9.68,0,0,1,.36,1.67c.05,1.7-.73,2.45-2.47,2.33-.75-.06-1.75,0-1.91-1a4.67,4.67,0,0,1,.17-2.71c.25-.5,1.32-.73,2-.8A5,5,0,0,1,971,33.45Z"/><path d="M679.07,33.57c1.76-.8,3.27-.77,3.89.08a3.58,3.58,0,0,1,0,3.19c-.52.63-2.37.82-3.36.34S678.48,35.69,679.07,33.57Z"/><path d="M882.67,35.2a2.33,2.33,0,1,1,4.66,0c0,1.56-.74,2.27-2.33,2.27S882.66,36.76,882.67,35.2Z"/><path d="M818.7,37.27h-3.15a2.88,2.88,0,0,1-.21-3.83,2.5,2.5,0,0,1,3.09-.16C819.7,34.31,819.37,35.63,818.7,37.27Z"/><path d="M799.85,32.87a2.22,2.22,0,0,1,2.46,2.27,2,2,0,0,1-2.09,2.32c-1.64.11-2.47-.56-2.5-2.08S798.12,33.09,799.85,32.87Z"/><path d="M851,32.86a2.1,2.1,0,0,1,2.28,2.39c0,1.5-.66,2.17-2.14,2.22a2.1,2.1,0,0,1-2.46-2.2A2.22,2.22,0,0,1,851,32.86Z"/><path d="M766.06,37.47a2.08,2.08,0,0,1-2.38-2.28,2.21,2.21,0,0,1,2.41-2.32,2,2,0,0,1,2.19,2.23C768.33,36.7,767.62,37.45,766.06,37.47Z"/><path d="M747.27,37.24c-.68-1.66-.95-3,.33-4a2.42,2.42,0,0,1,2.9.07c1.11,1.13,1,2.41,0,3.91Z"/><path d="M869.55,37.31h-3a2.92,2.92,0,0,1-.31-3.8,2.6,2.6,0,0,1,3.29-.17C870.66,34.47,870.49,35.76,869.55,37.31Z"/><path d="M717.35,35.2A2.08,2.08,0,0,1,715,37.47c-1.49,0-2.17-.68-2.21-2.15a2.09,2.09,0,0,1,2.2-2.45A2.21,2.21,0,0,1,717.35,35.2Z"/><path d="M696.42,37.24c-.93-1.43-1.06-2.72,0-3.88a2.53,2.53,0,0,1,3.11,0c1.15,1.11.88,2.4.11,3.9Z"/><path d="M903.67,37.26h-3.16a2.85,2.85,0,0,1-.22-3.81c.55-.74,2.16-.77,3.1-.2S904.44,34.89,903.67,37.26Z"/><path d="M665.65,37.28h-3.16c-.94-1.39-1.08-2.66-.15-3.86.56-.73,2.28-.72,3.12-.16S666.45,35.11,665.65,37.28Z"/><path d="M646.9,32.86a2.1,2.1,0,0,1,2.35,2.32c0,1.51-.63,2.25-2.08,2.28-1.71,0-2.35-.43-2.51-2.12A2.18,2.18,0,0,1,646.9,32.86Z"/><path d="M919.08,32.86a2.18,2.18,0,0,1,2.25,2.47c-.16,1.73-.84,2.16-2.5,2.13-1.46,0-2.09-.76-2.08-2.27A2.09,2.09,0,0,1,919.08,32.86Z"/><path d="M611.46,37.24c-.93-1.43-1.06-2.72,0-3.88a2.52,2.52,0,0,1,3.1,0c1.16,1.11.85,2.42.14,3.91Z"/><path d="M595.93,32.86a2.22,2.22,0,0,1,2.38,2.36,2,2,0,0,1-2.18,2.25c-1.62.07-2.38-.61-2.42-2.17A2.1,2.1,0,0,1,595.93,32.86Z"/><path d="M953.65,37.28h-3.17c-.93-1.42-1.08-2.7-.11-3.88.6-.73,2.3-.7,3.12-.12S954.45,35.13,953.65,37.28Z"/><path d="M564.28,35.33c0,1.54-.81,2.22-2.45,2.13a2,2,0,0,1-2.15-2.26,2.21,2.21,0,0,1,2.4-2.33A2.1,2.1,0,0,1,564.28,35.33Z"/><path d="M546.51,37.23h-3.22c-.66-1.52-1-2.83.21-3.92a2.53,2.53,0,0,1,3.1.07A2.92,2.92,0,0,1,546.51,37.23Z"/><path d="M987.58,37.25h-3.17c-.91-1.48-1.06-2.77,0-3.91a2.57,2.57,0,0,1,3.11,0C988.63,34.49,988.4,35.78,987.58,37.25Z"/><path d="M510.89,32.87a2.22,2.22,0,0,1,2.46,2.27,2,2,0,0,1-2.09,2.32c-1.63.11-2.47-.56-2.5-2.08S509.16,33.09,510.89,32.87Z"/><path d="M495.67,37.26h-3.16a2.85,2.85,0,0,1-.22-3.81c.55-.74,2.16-.77,3.1-.2S496.44,34.89,495.67,37.26Z"/><path d="M1005.35,35.25a2.09,2.09,0,0,1-2.45,2.22c-1.55,0-2.23-.81-2.15-2.44a2.05,2.05,0,0,1,2.26-2.17A2.22,2.22,0,0,1,1005.35,35.25Z"/><path d="M461.64,37.27h-3.18c-.9-1.43-1.07-2.71-.07-3.88a2.7,2.7,0,0,1,3.12-.1C462.37,33.91,462.45,35.15,461.64,37.27Z"/><path d="M443,32.86a2.09,2.09,0,0,1,2.23,2.43c0,1.56-.8,2.25-2.42,2.18a2,2,0,0,1-2.18-2.24A2.23,2.23,0,0,1,443,32.86Z"/><path d="M1038.54,37.25h-3.21c-.73-1.48-1-2.78.1-3.9a2.55,2.55,0,0,1,3.11,0C1039.6,34.49,1039.45,35.78,1038.54,37.25Z"/><path d="M410.7,37.28h-3.16c-1-1.39-1.12-2.66-.19-3.86.57-.73,2.21-.73,3.12-.15S411.46,34.92,410.7,37.28Z"/><path d="M394.31,35.23a2.09,2.09,0,0,1-2.42,2.24c-1.55,0-2.25-.8-2.18-2.41a2.05,2.05,0,0,1,2.23-2.2A2.23,2.23,0,0,1,394.31,35.23Z"/><path d="M1054.12,32.87a2.1,2.1,0,0,1,2.16,2.5c-.06,1.52-.86,2.19-2.49,2.09a2,2,0,0,1-2.11-2.3A2.22,2.22,0,0,1,1054.12,32.87Z"/><path d="M359,37.47a2.09,2.09,0,0,1-2.31-2.35,2.22,2.22,0,0,1,2.48-2.25,2,2,0,0,1,2.13,2.3A2,2,0,0,1,359,37.47Z"/><path d="M1090.31,35.09a2.09,2.09,0,0,1-2.28,2.38c-1.52,0-2.23-.61-2.32-2s.63-2.47,2.09-2.56A2.23,2.23,0,0,1,1090.31,35.09Z"/><path d="M326.68,37.27h-3.17c-1-1.44-1.08-2.72-.11-3.9.6-.72,2.27-.67,3.13-.07S327.43,35.07,326.68,37.27Z"/><path d="M310.32,35.16A2.09,2.09,0,0,1,308,37.47c-1.51,0-2.19-.64-2.25-2.11a2.1,2.1,0,0,1,2.16-2.49A2.23,2.23,0,0,1,310.32,35.16Z"/><path d="M1106.66,37.25h-3.21c-.91-1.47-1.06-2.76,0-3.9a2.55,2.55,0,0,1,3.11,0C1107.67,34.47,1107.39,35.77,1106.66,37.25Z"/><path d="M273.94,32.86a2.1,2.1,0,0,1,2.35,2.32c0,1.51-.63,2.25-2.08,2.28-1.71,0-2.34-.43-2.51-2.12A2.18,2.18,0,0,1,273.94,32.86Z"/><path d="M258.61,37.28h-3.2c-.86-1.42-1-2.7-.07-3.88.59-.73,2.3-.7,3.12-.12S259.41,35.14,258.61,37.28Z"/><path d="M1141.24,35.16a2,2,0,0,1-2.28,2.31,2.09,2.09,0,0,1-2.32-2.34,2.21,2.21,0,0,1,2.23-2.27A2.1,2.1,0,0,1,1141.24,35.16Z"/><path d="M225.35,35.23a2.09,2.09,0,0,1-2.42,2.24c-1.55,0-2.25-.8-2.18-2.41a2.05,2.05,0,0,1,2.23-2.2A2.23,2.23,0,0,1,225.35,35.23Z"/><path d="M207.67,37.27h-3.16a2.88,2.88,0,0,1-.21-3.83c.55-.73,2.18-.75,3.1-.18S208.44,34.9,207.67,37.27Z"/><path d="M1157.58,37.25h-3.17c-.82-1.48-1.05-2.78.06-3.9a2.55,2.55,0,0,1,3.11,0C1158.64,34.5,1158.48,35.78,1157.58,37.25Z"/><path d="M173.54,37.23h-3.19c-.74-1.53-1-2.84.19-3.92a2.53,2.53,0,0,1,3.1.07C174.6,34.56,174.53,35.85,173.54,37.23Z"/><path d="M157.24,35.15c0,1.58-.7,2.33-2.27,2.32a2.08,2.08,0,0,1-2.33-2.33,2.19,2.19,0,0,1,2.23-2.27A2.08,2.08,0,0,1,157.24,35.15Z"/><path d="M1188.26,37.05c-.72-1.92-.63-3.16.24-3.77a2.59,2.59,0,0,1,2.92,0c1.26,1.06.95,2.37.36,3.67A3.55,3.55,0,0,1,1188.26,37.05Z"/><path d="M122.67,37.27h-3.16c-1-1.44-1.08-2.72-.11-3.9a2.53,2.53,0,0,1,3.11,0C123.71,34.41,123.37,35.73,122.67,37.27Z"/><path d="M106.31,35.25a2.09,2.09,0,0,1-2.45,2.22c-1.55,0-2.23-.81-2.15-2.44A2.05,2.05,0,0,1,104,32.86,2.22,2.22,0,0,1,106.31,35.25Z"/><path d="M1209.35,35.13a2.09,2.09,0,0,1-2.32,2.34c-1.51,0-2.24-.62-2.27-2.07,0-1.71.43-2.35,2.12-2.52A2.18,2.18,0,0,1,1209.35,35.13Z"/><path d="M72.28,35.22c0,1.57-.74,2.28-2.34,2.25a2.05,2.05,0,0,1-2.26-2.16A2.23,2.23,0,0,1,70,32.86,2.09,2.09,0,0,1,72.28,35.22Z"/><path d="M54.63,37.22H51.28c-.64-1.53-1-2.83.23-3.91a2.58,2.58,0,0,1,2.91-.05C55.3,33.86,55.41,35.11,54.63,37.22Z"/><path d="M21.35,35.3a2.1,2.1,0,0,1-2.49,2.17c-1.53-.06-2.2-.85-2.11-2.48a2.05,2.05,0,0,1,2.3-2.13A2.23,2.23,0,0,1,21.35,35.3Z"/><path d="M.16,33.57c1.21-.94,2.45-1,3.41-.16s.83,2.27.17,3.6a3.45,3.45,0,0,1-3.58-.08Z"/><path d="M87.05,20a2.29,2.29,0,0,1-1.88-1.83c0-.72,1.33-2.06,1.87-1.77a4.54,4.54,0,0,1,1.74,1.71C89.09,18.65,87.79,20,87.05,20Z"/><path d="M189,16.09l1,.94c1.19,1.17,1.17,1.47-.14,2.53-.88.7-1.25.59-2.33-.48a1,1,0,0,1,0-1.77C188,17,188.41,16.62,189,16.09Z"/><path d="M290.92,16.35a2.47,2.47,0,0,1,1.9,1.82A2.49,2.49,0,0,1,291.18,20a2.27,2.27,0,0,1-2-1.67A2.57,2.57,0,0,1,290.92,16.35Z"/><path d="M376.82,18.1A2.35,2.35,0,0,1,375,20a2.57,2.57,0,0,1-1.84-1.61c-.12-.65.93-1.92,1.67-2S376.76,17.39,376.82,18.1Z"/><path d="M1173,16.09c.47.44.74.69,1,1,1.18,1.16,1.16,1.47-.16,2.52-.87.69-1.26.57-2.33-.5a1,1,0,0,1,.07-1.77C1172,17,1172.42,16.61,1173,16.09Z"/><path d="M476.91,16.18c.92.63,2.1,1.06,1.88,2.19-.12.64-1.09,1.17-1.77,1.6-.34.21-1.83-1-1.88-1.5C475,17.2,476.2,16.94,476.91,16.18Z"/><path d="M579.06,20a2.3,2.3,0,0,1-1.89-1.81c0-.72,1.31-2.07,1.86-1.79a4.61,4.61,0,0,1,1.75,1.7C581.09,18.64,579.79,20,579.06,20Z"/><path d="M681.16,16.28c.25.21.54.44.81.7,1.21,1.15,1,2.35-.56,3-.59.23-1.57-.27-2.12-1.13a1,1,0,0,1,.25-1.46c.28-.26.54-.56.85-.8A3.15,3.15,0,0,1,681.16,16.28Z"/><path d="M784.83,18.26c0,.71-1.3,1.83-2,1.73a2.64,2.64,0,0,1-1.69-1.77A2.56,2.56,0,0,1,783,16.35,2.61,2.61,0,0,1,784.83,18.26Z"/><path d="M885.15,16.27c.25.22.55.44.82.7,1.21,1.16,1,2.34-.55,3-.6.24-1.56-.25-2.13-1.12a1,1,0,0,1,.24-1.46,10.72,10.72,0,0,1,.85-.8A3.94,3.94,0,0,1,885.15,16.27Z"/><path d="M1071.05,16.35a2.59,2.59,0,0,1,1.78,1.95,2.79,2.79,0,0,1-1.77,1.7,2.31,2.31,0,0,1-1.9-1.81A2.53,2.53,0,0,1,1071.05,16.35Z"/><path d="M969,16.18c.86.66,2.07,1.07,1.83,2.22-.14.63-1.1,1.16-1.8,1.57-.35.21-1.83-1-1.85-1.52C967.09,17.21,968.18,16.9,969,16.18Z"/><path d="M1038.75,18.19A2.15,2.15,0,0,1,1036.9,20a2.45,2.45,0,0,1-1.74-1.7,2.47,2.47,0,0,1,1.75-2A2.28,2.28,0,0,1,1038.75,18.19Z"/><path d="M512.74,18.26A2.06,2.06,0,0,1,510.85,20a2.51,2.51,0,0,1-1.67-1.75,2.46,2.46,0,0,1,1.8-1.9A2.26,2.26,0,0,1,512.74,18.26Z"/><path d="M1004.73,18.1A2,2,0,0,1,1003,20a2.5,2.5,0,0,1-1.81-1.61,2.49,2.49,0,0,1,1.63-2C1003.54,16.25,1004.66,17.27,1004.73,18.1Z"/><path d="M986.06,20a2.18,2.18,0,0,1-1.86-1.81A2.23,2.23,0,0,1,986,16.35a2.69,2.69,0,0,1,1.75,1.71A2.2,2.2,0,0,1,986.06,20Z"/><path d="M1055.85,18.28a1.78,1.78,0,0,1-3.56-.06,2.2,2.2,0,0,1,1.79-1.87A2.46,2.46,0,0,1,1055.85,18.28Z"/><path d="M953.79,18.22A2.17,2.17,0,0,1,951.91,20a2.49,2.49,0,0,1-1.7-1.73A2.38,2.38,0,0,1,952,16.34,2.29,2.29,0,0,1,953.79,18.22Z"/><path d="M54.74,18.11A2.11,2.11,0,0,1,53,20a2.57,2.57,0,0,1-1.81-1.63,2.32,2.32,0,0,1,1.66-2C53.53,16.26,54.68,17.32,54.74,18.11Z"/><path d="M920.73,18.12A2,2,0,0,1,919,20a2.6,2.6,0,0,1-1.8-1.62,2.55,2.55,0,0,1,1.65-2C919.57,16.26,920.67,17.29,920.73,18.12Z"/><path d="M901.91,16.34a2.4,2.4,0,0,1,1.87,1.84A2.29,2.29,0,0,1,901.93,20a2.39,2.39,0,0,1-1.73-1.69A2.32,2.32,0,0,1,901.91,16.34Z"/><path d="M1089.7,18.21a2.11,2.11,0,0,1-1.84,1.8,2.52,2.52,0,0,1-1.72-1.72,2.45,2.45,0,0,1,1.76-1.94A2.18,2.18,0,0,1,1089.7,18.21Z"/><path d="M867.93,20a2.21,2.21,0,0,1-1.72-2,2.66,2.66,0,0,1,1.76-1.7,2.24,2.24,0,0,1,1.82,1.86A2.17,2.17,0,0,1,867.93,20Z"/><path d="M851,16.35a2.45,2.45,0,0,1,1.79,1.92,1.78,1.78,0,0,1-3.56,0A2.24,2.24,0,0,1,851,16.35Z"/><path d="M71.85,18.28A2.25,2.25,0,0,1,69.91,20a2.24,2.24,0,0,1-1.62-1.78,2.2,2.2,0,0,1,1.79-1.87A2.46,2.46,0,0,1,71.85,18.28Z"/><path d="M818.82,18.27a2.22,2.22,0,0,1-2,1.74,2.4,2.4,0,0,1-1.63-1.79,2.28,2.28,0,0,1,1.81-1.88A2.39,2.39,0,0,1,818.82,18.27Z"/><path d="M801.69,18.18a2.05,2.05,0,0,1-1.8,1.83,2.6,2.6,0,0,1-1.75-1.68,2.49,2.49,0,0,1,1.73-2A2.15,2.15,0,0,1,801.69,18.18Z"/><path d="M1106.82,18.25A2.24,2.24,0,0,1,1104.9,20a2.45,2.45,0,0,1-1.66-1.77,1.79,1.79,0,1,1,3.58,0Z"/><path d="M766,16.35a2.46,2.46,0,0,1,1.81,1.89,1.78,1.78,0,0,1-3.56,0A2.27,2.27,0,0,1,766,16.35Z"/><path d="M750.75,18.29a2.14,2.14,0,0,1-2,1.71,2.54,2.54,0,0,1-1.63-1.8A2.39,2.39,0,0,1,749,16.34,2.43,2.43,0,0,1,750.75,18.29Z"/><path d="M3.78,18.16A2.28,2.28,0,0,1,2,20,2.4,2.4,0,0,1,.2,18.33a2.29,2.29,0,0,1,1.7-2C2.58,16.29,3.74,17.41,3.78,18.16Z"/><path d="M714.86,16.35a2.16,2.16,0,0,1,1.87,1.79A2.2,2.2,0,0,1,715.2,20a2.32,2.32,0,0,1-2-1.63A2.57,2.57,0,0,1,714.86,16.35Z"/><path d="M699.78,18.2A2.3,2.3,0,0,1,697.91,20a2.42,2.42,0,0,1-1.71-1.72,2.42,2.42,0,0,1,1.74-1.95A2.38,2.38,0,0,1,699.78,18.2Z"/><path d="M105.69,18.18a2.05,2.05,0,0,1-1.8,1.83,2.6,2.6,0,0,1-1.75-1.68,2.5,2.5,0,0,1,1.73-2A2.15,2.15,0,0,1,105.69,18.18Z"/><path d="M663.93,20a2.22,2.22,0,0,1-1.72-2,2.68,2.68,0,0,1,1.76-1.7,2.25,2.25,0,0,1,1.82,1.85A2.16,2.16,0,0,1,663.93,20Z"/><path d="M646.93,16.34c.66,0,1.84,1.12,1.87,1.84A2.3,2.3,0,0,1,647,20a2.21,2.21,0,0,1-1.72-1.68A2.29,2.29,0,0,1,646.93,16.34Z"/><path d="M122.83,18.25A2.26,2.26,0,0,1,120.9,20a2.44,2.44,0,0,1-1.66-1.77A2.3,2.3,0,0,1,121,16.35,2.34,2.34,0,0,1,122.83,18.25Z"/><path d="M613.07,16.35a2.43,2.43,0,0,1,1.76,1.94,2.2,2.2,0,0,1-2,1.71,2.35,2.35,0,0,1-1.62-1.8A2.23,2.23,0,0,1,613.07,16.35Z"/><path d="M595.93,16.35a2.25,2.25,0,0,1,1.77,1.9,1.78,1.78,0,0,1-3.56,0A2.46,2.46,0,0,1,595.93,16.35Z"/><path d="M1140.81,18.25a1.78,1.78,0,0,1-3.56,0,2.25,2.25,0,0,1,1.76-1.9A2.45,2.45,0,0,1,1140.81,18.25Z"/><path d="M562,20a2,2,0,0,1-1.73-1.89A2.44,2.44,0,0,1,562,16.35c.65-.07,1.84,1.08,1.89,1.81A2.33,2.33,0,0,1,562,20Z"/><path d="M544.92,16.35a2.23,2.23,0,0,1,1.83,1.85A2.42,2.42,0,0,1,545.13,20a2.23,2.23,0,0,1-2-1.71A2.43,2.43,0,0,1,544.92,16.35Z"/><path d="M156.8,18.13A2.29,2.29,0,0,1,155,20a2.18,2.18,0,0,1-1.77-1.63,2.22,2.22,0,0,1,1.62-2C155.53,16.26,156.73,17.38,156.8,18.13Z"/><path d="M19.09,20a2.27,2.27,0,0,1-1.91-1.76,2.46,2.46,0,0,1,1.8-1.9A2.41,2.41,0,0,1,20.73,18,2.11,2.11,0,0,1,19.09,20Z"/><path d="M495.78,18.16A2.28,2.28,0,0,1,494,20a2.4,2.4,0,0,1-1.75-1.68,2.29,2.29,0,0,1,1.7-2C494.58,16.29,495.74,17.41,495.78,18.16Z"/><path d="M1157.79,18.19a2.15,2.15,0,0,1-1.85,1.81,2.45,2.45,0,0,1-1.74-1.7,2.47,2.47,0,0,1,1.75-2A2.28,2.28,0,0,1,1157.79,18.19Z"/><path d="M459.93,20a2.22,2.22,0,0,1-1.72-2,2.68,2.68,0,0,1,1.76-1.7,2.25,2.25,0,0,1,1.82,1.86A2.17,2.17,0,0,1,459.93,20Z"/><path d="M443,16.35a2.46,2.46,0,0,1,1.8,1.9A2.27,2.27,0,0,1,442.9,20a2.24,2.24,0,0,1-1.65-1.75A2.27,2.27,0,0,1,443,16.35Z"/><path d="M172.08,16.35a2.37,2.37,0,0,1,1.71,2A2.38,2.38,0,0,1,172.05,20a2.29,2.29,0,0,1-1.84-1.83A2.36,2.36,0,0,1,172.08,16.35Z"/><path d="M410.82,18.23a2.25,2.25,0,0,1-1.9,1.78,2.47,2.47,0,0,1-1.68-1.76,1.79,1.79,0,1,1,3.58,0Z"/><path d="M393.7,18.23A2.08,2.08,0,0,1,391.85,20a2.47,2.47,0,0,1-1.71-1.72,2.43,2.43,0,0,1,1.77-1.93A2.21,2.21,0,0,1,393.7,18.23Z"/><path d="M1189.9,16.34a2.39,2.39,0,0,1,1.88,1.83,2.28,2.28,0,0,1-1.84,1.84,2.35,2.35,0,0,1-1.74-1.68A2.28,2.28,0,0,1,1189.9,16.34Z"/><path d="M358.9,16.35c.65-.07,1.84,1.06,1.9,1.8A2.56,2.56,0,0,1,359.24,20a2,2,0,0,1-2-1.64A2.2,2.2,0,0,1,358.9,16.35Z"/><path d="M205.91,16.34a2.4,2.4,0,0,1,1.87,1.84A2.29,2.29,0,0,1,205.93,20a2.39,2.39,0,0,1-1.73-1.69A2.3,2.3,0,0,1,205.91,16.34Z"/><path d="M325.1,20a2.18,2.18,0,0,1-1.86-1.81,2.23,2.23,0,0,1,1.83-1.85,2.69,2.69,0,0,1,1.75,1.71A2.2,2.2,0,0,1,325.1,20Z"/><path d="M308,16.35a2.23,2.23,0,0,1,1.69,2A2.21,2.21,0,0,1,308,20a2.29,2.29,0,0,1-1.83-1.82C306.18,17.47,307.36,16.31,308,16.35Z"/><path d="M1207,20a2.33,2.33,0,0,1-1.8-1.86c0-.74,1.25-1.87,1.9-1.8a2.44,2.44,0,0,1,1.64,1.78A2,2,0,0,1,1207,20Z"/><path d="M274,16.34c.66,0,1.84,1.12,1.87,1.84A2.3,2.3,0,0,1,274,20a2.21,2.21,0,0,1-1.72-1.68A2.29,2.29,0,0,1,274,16.34Z"/><path d="M258.74,18.08A2.17,2.17,0,0,1,257,20a2.58,2.58,0,0,1-1.83-1.6,2.34,2.34,0,0,1,1.63-2.06C257.52,16.23,258.66,17.25,258.74,18.08Z"/><path d="M223,20a2.32,2.32,0,0,1-1.82-1.84c0-.73,1.23-1.88,1.88-1.83a2.48,2.48,0,0,1,1.66,1.77A2,2,0,0,1,223,20Z"/><path d="M240.06,16.35c.67,0,1.85,1.31,1.8,1.94a2.48,2.48,0,0,1-2,1.71,2.55,2.55,0,0,1-1.65-1.79C238.22,17.49,239.39,16.31,240.06,16.35Z"/><path d="M342.1,20a2.51,2.51,0,0,1-2-1.73A2.68,2.68,0,0,1,342,16.35c.53,0,1.68,1,1.81,1.64S342.88,19.92,342.1,20Z"/><path d="M1225.86,18.12c.07.66-1.07,1.84-1.81,1.88a2.41,2.41,0,0,1-1.82-1.62,2.47,2.47,0,0,1,1.66-2C1224.49,16.27,1225.78,17.43,1225.86,18.12Z"/><path d="M426,20c-.71,0-1.92-1.16-1.88-1.83s1.4-2.05,1.89-1.77a4.6,4.6,0,0,1,1.7,1.72C428,18.7,426.75,20,426,20Z"/><path d="M529.86,18.28a2.48,2.48,0,0,1-2,1.72,2.57,2.57,0,0,1-1.66-1.78c0-.72,1.16-1.91,1.83-1.87A2.72,2.72,0,0,1,529.86,18.28Z"/><path d="M139.77,18.24c0,.74-1.32,2-1.89,1.71a4.46,4.46,0,0,1-1.7-1.72c-.28-.51,1.1-1.84,1.78-1.88S139.78,17.54,139.77,18.24Z"/><path d="M629.88,20c-.76-.08-1.87-1.31-1.75-1.95s1.45-1.8,2-1.69a3,3,0,0,1,1.6,1.85A2.26,2.26,0,0,1,629.88,20Z"/><path d="M1123.77,18.1A2.3,2.3,0,0,1,1122,20a3,3,0,0,1-1.85-1.6c-.12-.6,1-1.9,1.68-2S1123.69,17.34,1123.77,18.1Z"/><path d="M733.86,18.24A2.51,2.51,0,0,1,731.93,20a2.68,2.68,0,0,1-1.71-1.73A2.55,2.55,0,0,1,732,16.35,2.67,2.67,0,0,1,733.86,18.24Z"/><path d="M835.77,18.27c0,.75-1.25,1.83-1.95,1.72a3,3,0,0,1-1.69-1.76A2.65,2.65,0,0,1,834,16.35,2.57,2.57,0,0,1,835.77,18.27Z"/><path d="M935.93,16.35c.62-.05,1.88,1.14,1.93,1.81S936.73,20,936,20a2.54,2.54,0,0,1-1.78-1.65A2.47,2.47,0,0,1,935.93,16.35Z"/><path d="M37.86,18.14c.06.67-1.1,1.84-1.84,1.86a2.54,2.54,0,0,1-1.79-1.64,2.43,2.43,0,0,1,1.68-2C36.53,16.29,37.8,17.46,37.86,18.14Z"/><path d="M1019.93,16.35c.62-.05,1.88,1.14,1.93,1.81S1020.73,20,1020,20a2.54,2.54,0,0,1-1.78-1.65A2.47,2.47,0,0,1,1019.93,16.35Z"/><path d="M1.18.44C2,.37,2.86,0,2.9,1.31a.75.75,0,0,1-.85.86C.76,2.13,1.1,1.3,1.18.44Z"/><path d="M1223.17.47c1-.16,1.77-.26,1.73.87a.75.75,0,0,1-.9.82C1222.82,2.08,1223.27,1.25,1223.17.47Z"/><path d="M1207.26.37c.14.17.52.45.59.79.13.63-.18,1-.9,1-.55,0-.87-.24-.91-.82S1206.31.33,1207.26.37Z"/><path d="M1189.17.49c.83-.12,1.59-.45,1.73.66.08.66-.21,1-.93,1C1188.82,2.14,1189.1,1.35,1189.17.49Z"/><path d="M18.91,2.17c-.76,0-.9-.5-.86-1.11s.51-.7,1-.71.83.3.84.86S19.59,2.23,18.91,2.17Z"/><path d="M1156.76.36c.13.91.45,1.67-.65,1.81-.66.08-1-.22-1-.93C1155.11.07,1155.93.42,1156.76.36Z"/><path d="M1138.68.36c.91,0,1.3.2,1.26.93a.8.8,0,0,1-.85.88c-.69,0-1.07-.3-1-.95C1138.19.86,1138.55.56,1138.68.36Z"/><path d="M1122.71.47c.1.84.42,1.63-.74,1.69a.75.75,0,0,1-.88-.85C1121.07.18,1121.8.31,1122.71.47Z"/><path d="M1104.21.44c.87-.07,1.7-.41,1.73.88a.75.75,0,0,1-.86.85C1103.79,2.12,1104.14,1.29,1104.21.44Z"/><path d="M1087.88.05c.43.46.85.72.93,1.06a.78.78,0,0,1-.84,1.07c-.7,0-1.07-.36-.93-1C1087.11.83,1087.5.54,1087.88.05Z"/><path d="M1072.19,1.08c-.46.49-.7.95-1,1-.63.18-1-.15-1-.88,0-.57.24-1,.82-.87A5.19,5.19,0,0,1,1072.19,1.08Z"/><path d="M1055,1.39c0,.38-.21.78-.93.78-.55,0-.89-.22-.92-.79s0-1,.66-1S1054.94.33,1055,1.39Z"/><path d="M1037.78.49c.08.87.34,1.65-.81,1.68-.71,0-1-.37-.92-1C1036.19,0,1037,.37,1037.78.49Z"/><path d="M1019.28.47c.91-.16,1.64-.29,1.62.85a.75.75,0,0,1-.88.84C1018.86,2.1,1019.18,1.31,1019.28.47Z"/><path d="M1002.07,1c.14-.13.4-.54.74-.63.58-.16,1.16.06,1,.8a1.3,1.3,0,0,1-.72.94C1002.57,2.3,1002,2.07,1002.07,1Z"/><path d="M985.11.5c.87-.13,1.63-.47,1.79.62.09.64-.17,1.06-.9,1C984.84,2.17,985.13,1.36,985.11.5Z"/><path d="M35.28.47c.91-.16,1.64-.29,1.62.85a.75.75,0,0,1-.88.84C34.86,2.1,35.18,1.31,35.28.47Z"/><path d="M952.83.5c.08.89.3,1.67-.85,1.67-.73,0-1-.41-.89-1C951.26,0,952,.37,952.83.5Z"/><path d="M935.2.49c.84-.13,1.62-.43,1.69.7s-.66,1.07-1.58.86C935.28,1.57,935.24,1.07,935.2.49Z"/><path d="M919.06,2.17c-.67,0-1-.25-1-.95a.76.76,0,0,1,.85-.86c.5,0,1,.07,1,.69S919.84,2.17,919.06,2.17Z"/><path d="M902.9,1.27c0,.73-.41.93-1,.91s-.75-.43-.76-.94.19-.89.8-.89S903,.53,902.9,1.27Z"/><path d="M53.77.37c.08.93.42,1.77-.87,1.8a.75.75,0,0,1-.85-.86C52.06-.09,53,.49,53.77.37Z"/><path d="M869.22,1.32c-.51.38-.8.75-1.15.82-.67.14-1-.24-1-.94s.52-.95,1.08-.81C868.5.47,868.75.89,869.22,1.32Z"/><path d="M851.14.05c.36.52.71.82.77,1.18.12.68-.32,1-1,1s-.93-.58-.79-1.12C850.23.73,850.68.49,851.14.05Z"/><path d="M834.73,2c-1,.22-1.69.23-1.63-.85S834,.44,834.73.4Z"/><path d="M816.14.44c1-.07,1.78-.41,1.8.89a.75.75,0,0,1-.87.84C815.68,2.15,816.27,1.23,816.14.44Z"/><path d="M799.88.05c.43.46.85.72.93,1.06A.78.78,0,0,1,800,2.18c-.7,0-1.07-.36-.93-1C799.11.83,799.49.55,799.88.05Z"/><path d="M782.94,0c.43.54.82.82.9,1.17.14.64-.2,1-.93,1a.72.72,0,0,1-.76-.93A5,5,0,0,1,782.94,0Z"/><path d="M767,1c0,1-.48,1.17-1.09,1.13s-.74-.47-.74-1c0-.76.49-1,1.07-.81C766.57.48,766.82.89,767,1Z"/><path d="M749.72.36c.13.91.45,1.67-.65,1.81-.66.08-1-.22-1-.93C748.07.07,748.89.42,749.72.36Z"/><path d="M731.29.45c1-.15,1.67-.2,1.61.91a.75.75,0,0,1-.93.8C730.83,2,731.19,1.26,731.29.45Z"/><path d="M714.92.05c.43.46.85.72.93,1.06A.78.78,0,0,1,715,2.18c-.7,0-1.07-.36-.93-1C714.15.83,714.53.55,714.92.05Z"/><path d="M697.16.49c.82-.12,1.58-.46,1.74.63.09.64-.17,1.06-.9,1C696.86,2.16,697.09,1.38,697.16.49Z"/><path d="M71,.94c0,.93-.28,1.24-1,1.24s-.82-.34-.85-.87c-.05-.7.29-1.07,1-.93A2.56,2.56,0,0,1,71,.94Z"/><path d="M664.82.44c.07.86.41,1.7-.88,1.73a.75.75,0,0,1-.85-.86C663.14,0,664,.37,664.82.44Z"/><path d="M647.14.05c.36.52.71.82.77,1.18.12.68-.32,1-1,1s-.93-.58-.79-1.12C646.23.73,646.68.49,647.14.05Z"/><path d="M630.7.46c.11.84.44,1.62-.72,1.7a.75.75,0,0,1-.89-.83C629.06.19,629.79.31,630.7.46Z"/><path d="M612.16.49c.9-.13,1.66-.44,1.78.67.07.67-.23,1-.94,1C611.86,2.13,612.17,1.32,612.16.49Z"/><path d="M596.22.36c.14.18.52.46.59.8.13.63-.18,1-.9,1-.55,0-.87-.24-.91-.82S595.27.34,596.22.36Z"/><path d="M579.1,2.52c-.45-.52-.84-.79-.94-1.14a.7.7,0,0,1,.64-1c.63-.06,1.16.11,1,.87A4.91,4.91,0,0,1,579.1,2.52Z"/><path d="M563,1c0,1-.48,1.17-1.09,1.13s-.74-.47-.74-1c0-.76.49-1,1.07-.81C562.57.48,562.82.89,563,1Z"/><path d="M545.71.38c.14.87.48,1.63-.62,1.78-.64.09-1.05-.17-1.05-.89C544.05.1,544.86.39,545.71.38Z"/><path d="M527.25,2.06V.42c.45,0,.9-.13,1.17,0a1.22,1.22,0,0,1,.46.92C528.83,2.33,528.13,2.2,527.25,2.06Z"/><path d="M511.88,1c0,1-.36,1.23-1,1.18s-.78-.39-.8-.92c0-.76.44-1,1-.87C511.43.46,511.71.85,511.88,1Z"/><path d="M493.17.49c.83-.12,1.59-.45,1.73.66.08.66-.21,1-.93,1C492.82,2.14,493.1,1.35,493.17.49Z"/><path d="M88.2,1.34c-.55.37-.85.74-1.21.8-.75.11-.9-.44-.86-1.06a.7.7,0,0,1,1-.69C87.45.49,87.71.89,88.2,1.34Z"/><path d="M460.82.44c.07.87.41,1.71-.89,1.73a.74.74,0,0,1-.84-.87C459.15,0,460,.37,460.82.44Z"/><path d="M443.93,1c0,.94-.3,1.23-1,1.23s-.81-.35-.84-.88c-.05-.7.31-1.06,1-.92A2.53,2.53,0,0,1,443.93,1Z"/><path d="M426.69.4c.12.9.45,1.68-.71,1.76a.76.76,0,0,1-.9-.83C425,.16,425.83.37,426.69.4Z"/><path d="M408.25.46c.85-.1,1.62-.37,1.69.75.05.7-.31,1-1,1C407.84,2.07,408.13,1.3,408.25.46Z"/><path d="M393.16,1.31c-.52.39-.81.76-1.17.83-.65.14-1-.25-1-.94s.53-.95,1.09-.81C392.43.47,392.69.89,393.16,1.31Z"/><path d="M373.79,1.25c.52-.4.8-.77,1.15-.86.51-.13.91.12.93.75s-.2,1.14-.93,1C374.59,2.06,374.31,1.67,373.79,1.25Z"/><path d="M358.68.36c.91,0,1.3.2,1.26.93a.8.8,0,0,1-.85.88c-.69,0-1.07-.3-1-.95C358.19.86,358.54.56,358.68.36Z"/><path d="M342.72.42c.09.92.39,1.72-.78,1.74-.58,0-.86-.31-.85-.88C341.1.12,341.87.37,342.72.42Z"/><path d="M325.94,1.18c0,.72-.3,1-1,1s-.82-.33-.83-.88.11-.93.73-.95S326,.42,325.94,1.18Z"/><path d="M308.84.9c0,.89-.19,1.3-.92,1.27-.54,0-.87-.23-.92-.81s.27-1.09.94-1A2.6,2.6,0,0,1,308.84.9Z"/><path d="M291.14,0a5.3,5.3,0,0,1,.7,1.29c.1.54-.23.86-.82.87-.77,0-1-.46-.86-1.06C290.24.77,290.67.51,291.14,0Z"/><path d="M275,.91c0,.92-.24,1.27-.94,1.27a.79.79,0,0,1-.88-.84c0-.68.25-1.09.94-1A2.74,2.74,0,0,1,275,.91Z"/><path d="M258.18,1.32c-.51.38-.8.75-1.15.82-.67.14-1-.24-1-.94s.52-.95,1.08-.81C257.46.47,257.71.89,258.18,1.32Z"/><path d="M239.42.42c.81-.11,1.54-.19,1.48.94a.78.78,0,0,1-1.15.76C238.79,1.77,239.12,1.07,239.42.42Z"/><path d="M223.88.92c0,.9-.23,1.29-.94,1.25a.81.81,0,0,1-.9-.84c0-.7.3-1.06,1-.95A2.44,2.44,0,0,1,223.88.92Z"/><path d="M206.9,1.27c0,.73-.41.93-1.05.91s-.75-.43-.76-.94.19-.89.8-.89S207,.53,206.9,1.27Z"/><path d="M104.84.94c0,.92-.27,1.27-1,1.23a.81.81,0,0,1-.87-.86c0-.73.35-1,1-.93C104.34.45,104.64.8,104.84.94Z"/><path d="M172.76.43c.13.82.47,1.58-.63,1.73-.64.09-1-.17-1-.89C171.1.12,171.88.35,172.76.43Z"/><path d="M155.93.91c0,.92-.24,1.27-.94,1.27a.79.79,0,0,1-.88-.84c-.05-.68.25-1.09.94-1A2.74,2.74,0,0,1,155.93.91Z"/><path d="M138.72.27V2.13a4.09,4.09,0,0,1-1.45-.3,1.14,1.14,0,0,1-.09-1.06A5.15,5.15,0,0,1,138.72.27Z"/><path d="M120.27.43c.89-.08,1.67-.3,1.68.84,0,.73-.42,1-1.06.89C119.8,2,120.14,1.24,120.27.43Z"/><path d="M188.9,2.53a5.71,5.71,0,0,1-.69-1.36c-.08-.56.29-.83.86-.8a.69.69,0,0,1,.7.94C189.67,1.67,189.32,2,188.9,2.53Z"/><path d="M478.12,1.29c-.52.39-.82.78-1.17.83-.58.09-.76-.39-.76-.91s.28-.95.83-.81C477.37.48,477.63.88,478.12,1.29Z"/><path d="M682.11,1.08c-.45.48-.68.92-1,1-.54.18-.86-.2-.9-.75s.08-1,.7-1C681.24.44,681.57.77,682.11,1.08Z"/><path d="M886.11,1.08c-.45.48-.68.92-1,1-.54.18-.86-.2-.9-.75s.08-1,.7-1C885.24.44,885.57.77,886.11,1.08Z"/><path d="M970.12,1.18c-.49.44-.75.86-1.1.94-.56.14-.8-.3-.83-.83s.18-1,.76-.89C969.3.45,969.6.82,970.12,1.18Z"/><path d="M1174.11,1.05c-.45.49-.67.94-1,1.06-.52.18-.88-.17-.91-.73s0-1,.67-1C1173.22.44,1173.56.75,1174.11,1.05Z"/></g></g></svg>