<svg xmlns="http://www.w3.org/2000/svg" xmlns:xlink="http://www.w3.org/1999/xlink" viewBox="0 0 1034.94 288.95"><defs><style>.cls-1,.cls-3{fill:none;}.cls-2{clip-path:url(#clip-path);}.cls-3,.cls-4{stroke:#c00;stroke-miterlimit:10;}.cls-3{stroke-width:1.02px;}.cls-4{fill:#c00;stroke-width:1.02px;}</style><clipPath id="clip-path" transform="translate(33.24 0.45)"><rect class="cls-1" width="964" height="342"/></clipPath></defs><g id="Layer_2" data-name="Layer 2"><g id="Layer_1-2" data-name="Layer 1"><g class="cls-2"><path class="cls-3" d="M3.1,121S97.27,6.92,141,14c34.23,5.54,40.08,102.83,73.14,113C260.79,141.33,349.34,38,395,55c15,5.59,11.46,52.48,27.17,56,46.32,10.37,97.08-91.69,139.5-92.5,42.81-.82,93.75,95.49,138.46,96.5,18,.41,36.42-46.25,54.33-45,11.28.79,29.82,35.73,64.27,26.5,26.12-7,55.39-75.09,92.48-69.5,24.62,3.71,61.65,75,61.65,75" transform="translate(33.24 0.45)"/><path class="cls-3" d="M-.9,123.83C9.89,116.36,99.54,15.73,141,24.17c22.28,4.53,31,43.52,45.36,72.26C195,113.7,204,127.14,216.63,129.55c24.65,4.71,60.54-20.1,96.8-41.6C332,76.94,351.48,66.41,369,62.66c10-2.15,19.07-2.56,26.76.72,15.73,6.71,13,50.89,28.85,54.23,38.8,8.22,78.64-65,116.7-85.65,7.27-4,14.2-6,20.85-5.56,22,1.51,45.24,29.23,71.49,52.93,23,20.86,45,38,66.56,37.67,10-.13,20.23-12.55,30.76-23.2C739.76,85,748.06,77,756,78.22s17.82,15.53,33.81,22.34a42.35,42.35,0,0,0,30.39,1.73c15.76-5,31.43-29.75,50.16-46.4,13.43-12,27.41-20.3,42.32-16.56,10.45,2.63,22.62,16.07,33.7,29.41,15.39,18.54,27.94,37.58,29.6,37.09" transform="translate(33.24 0.45)"/><path class="cls-3" d="M-4.91,126.67c21.6-15,106.72-101.89,145.83-92.34,23.25,5.69,30.43,44.54,46.35,70.6,9.49,15.53,18.92,26.22,31.81,27.18,24.26,1.81,59.09-21.87,95.73-41.59C332.43,81,352.17,71.74,370.5,69.46c9.89-1.22,18.68-1.26,26.07,2.29,16.43,7.89,14.48,49.3,30.55,52.47C465.86,132,503.55,55.94,542.1,38c7.34-3.44,14.14-4.79,20.61-3.74,21.26,3.44,42.77,31.86,70,53.8,23.77,19.12,45.34,32,67.59,30.89,10.13-.51,20.66-11.52,31.81-20.41,9.29-7.41,17.66-13.86,25.48-12.15,8.36,1.84,17.94,15.6,34.06,21.38,9.11,3.27,19.08,4.23,30.07.26,16.34-5.9,31.43-30.69,50.65-45.1C886.16,52.59,900,46.63,914.26,51.66c10.65,3.76,22.52,17.29,33.7,29,15.4,16.13,27.93,30,31.25,29" transform="translate(33.24 0.45)"/><path class="cls-3" d="M-8.92,129.5c32.4-22.43,113-95.48,149.78-85,24.23,6.9,29.77,45.54,47.35,68.94,10.34,13.77,20.15,21.76,33.32,21.22,23.8-1,57.55-23.67,94.65-41.57C332.8,85.07,353,78.65,372,76.26c9.63-1.2,18.28.08,25.39,3.87,17.11,9.11,16,47.71,32.24,50.7,38.67,7.25,74.27-71.47,113.27-86.72,7.41-2.89,14.07-3.55,20.36-1.91,20.51,5.35,40.26,34.54,68.6,54.67,24.53,17.42,45.74,26.05,68.63,24.12,10.3-.87,21.12-10.48,32.86-17.62,9.81-6,18.25-10.92,25.9-8.72,8.89,2.56,18.08,15.64,34.31,20.41,9.41,2.77,19.29,3.07,29.77-1.2,16.9-6.89,31.44-31.59,51.13-43.81,14.06-8.74,27.69-12.29,41.35-6,10.86,5,22.42,18.5,33.71,28.57,15.37,13.72,27.91,22.4,32.89,20.93" transform="translate(33.24 0.45)"/><path class="cls-3" d="M-12.92,132.33C30.27,102.42,106.26,43.42,140.8,54.67c25.2,8.2,29.08,46.55,48.34,67.28,11.17,12,21.38,17.36,34.84,15.27,23.31-3.63,55.92-25.57,93.58-41.56a169.73,169.73,0,0,1,55.93-12.6c9.5-.45,17.86,1.45,24.69,5.44,17.78,10.39,17.49,46.12,33.93,48.94,38.62,6.76,72.07-74.74,111.57-87.25,7.47-2.37,14-2.34,20.11-.09,19.76,7.25,37.73,37.23,67.16,55.54,25.27,15.73,46.13,20.1,69.66,17.34,10.46-1.22,21.58-9.43,33.91-14.83,10.34-4.54,18.83-7.93,26.33-5.28,9.41,3.33,18.22,15.66,34.56,19.44a44.55,44.55,0,0,0,29.45-2.66c17.46-7.93,31.43-32.53,51.62-42.53,14.37-7.12,27.8-8.14,40.87-.79,11,6.21,22.29,19.72,33.71,28.16,15.33,11.32,27.89,14.8,34.53,12.84" transform="translate(33.24 0.45)"/><path class="cls-3" d="M-16.93,135.17c54-37.39,125.36-82.2,157.68-70.34,26.12,9.6,28.33,47.6,49.32,65.63,12,10.29,22.62,13,36.36,9.31,22.85-6.17,54.19-27.59,92.5-41.54,14.47-5.27,35.12-11,56.05-8.37,9.31,1.2,17.43,2.83,24,7,18.4,11.71,19,44.52,35.62,47.18,38.56,6.27,69.86-78,109.86-87.8,7.53-1.84,13.92-1.11,19.85,1.74,19,9.13,35.2,39.93,65.72,56.41,26,14.05,46.52,14.15,70.7,10.57,10.62-1.58,22-8.38,35-12,10.89-3.09,19.41-4.91,26.77-1.84,9.91,4.13,18.37,15.65,34.8,18.47a45.68,45.68,0,0,0,29.14-4.13c18-9,31.42-33.46,52.1-41.23,14.67-5.52,27.88-3.94,40.4,4.46,11.2,7.52,22.13,21,33.71,27.74,15.25,8.94,27.88,7.21,36.17,4.77" transform="translate(33.24 0.45)"/><path class="cls-3" d="M-20.93,138C43.86,93.13,110.54,62.63,140.69,75c27,11.09,27.55,48.67,50.32,64,12.75,8.57,23.88,8.75,37.87,3.36,22.42-8.64,52.38-29.8,91.42-41.54,13.34-4,34.4-8.67,56.17-4.13,9.12,1.91,17,4.23,23.32,8.59,19,13.09,20.5,42.94,37.32,45.42,38.49,5.78,67.64-81.32,108.15-88.33a27.2,27.2,0,0,1,19.6,3.56c18.29,11,32.65,42.65,64.27,57.29,26.74,12.37,46.92,8.21,71.74,3.78,10.79-1.92,22.52-7.32,36-9.26,11.42-1.64,20-1.87,27.19,1.59,10.39,5,18.53,15.63,35.06,17.51a46.92,46.92,0,0,0,28.82-5.59c18.49-10.16,31.4-34.42,52.59-39.95,15-3.91,27.9.32,39.91,9.72,11.31,8.87,22,22.22,33.72,27.33C969.3,134.91,982,127.94,992,125" transform="translate(33.24 0.45)"/><path class="cls-3" d="M-24.94,140.83C50.65,88.49,112.6,72.38,140.63,85.17c27.84,12.7,26.75,49.8,51.31,62.31,13.53,6.89,25.19,4.51,39.38-2.6,22.08-11,50.51-32.27,90.36-41.52,12.18-2.82,33.72-6.41,56.28.1,9,2.59,16.54,5.64,22.64,10.17,19.54,14.51,22,41.34,39,43.65C478,162.58,505,72.66,546,68.41A26.6,26.6,0,0,1,565.4,73.8C583,86.66,595.5,119.18,628.23,132c27.46,10.72,47.32,2.28,72.77-3,11-2.27,23-6.25,37-6.47,12-.19,20.49,1.17,27.62,5,10.84,5.86,18.68,15.57,35.3,16.54A48.35,48.35,0,0,0,829.48,137c18.95-11.37,31.38-35.38,53.08-38.66,15.27-2.31,27.88,4.58,39.43,15,11.37,10.24,21.78,23.5,33.72,26.9,15,4.29,27.84-8,39.46-11.4" transform="translate(33.24 0.45)"/><path class="cls-3" d="M-28.94,143.67C57.44,83.85,114.59,82.2,140.57,95.33c28.58,14.44,25.94,51,52.3,60.66,14.3,5.24,26.54.3,40.9-8.55,21.79-13.43,48.6-35.12,89.28-41.51,11-1.73,33.12-4.22,56.41,4.33,8.82,3.24,16.07,7.06,21.94,11.74,20,16,23.52,39.75,40.7,41.89,38.38,4.81,63.22-88,104.73-89.4,7.71-.28,13.74,2.52,19.11,7.21,16.85,14.71,27.52,48.19,61.38,59,28.18,9.12,47.73-3.61,73.81-9.76,11.12-2.6,23.44-5.17,38.1-3.69,12.48,1.29,21,4.24,28,8.46,11.26,6.76,18.82,15.67,35.54,15.57A50.67,50.67,0,0,0,831,142.79c19.34-12.62,31.35-36.37,53.55-37.37,15.57-.74,27.83,8.86,38.95,20.24,11.39,11.65,21.61,24.84,33.73,26.49,14.91,2,27.83-15.57,41.1-19.48" transform="translate(33.24 0.45)"/><path class="cls-3" d="M-32.95,146.5c97.19-67.3,149.45-54.42,173.46-41,29.2,16.32,25.16,52.25,53.3,59,37.54,9,61.3-51,130.62-56,9.91-.72,32.58-2.11,56.52,8.56C421.15,135,422.42,168,444.6,170.5c38.31,4.33,61-91.27,103-89.94,32,1,32.67,57.06,78.8,68.94,41.12,10.59,62.6-28.26,114-17.44,34.81,7.33,37.4,27.78,64.27,26.5,40.15-1.9,50.37-47.78,81.93-46.06,32.66,1.78,48.31,51.84,72.2,51.56,14.82-.17,27.81-23.16,42.75-27.56" transform="translate(33.24 0.45)"/><path class="cls-4" d="M0,.06V124S94.57,10,138.54,17c34.4,5.54,40.28,102.83,73.49,113,46.82,14.33,135.78-89,181.62-72,15.1,5.59,11.52,52.48,27.29,56,46.54,10.37,97.54-91.69,140.15-92.5,43-.82,94.19,95.49,139.11,96.5,18,.4,36.59-46.26,54.59-45,11.32.79,30,35.73,64.56,26.5,26.24-7,55.64-75.09,92.91-69.5,24.74,3.71,61.94,75,61.94,75L976,.06Z" transform="translate(33.24 0.45)"/><rect class="cls-1" x="37.81" y="12.95" width="972.43" height="276"/></g></g></g></svg>