<svg xmlns="http://www.w3.org/2000/svg" viewBox="0 0 912.38 208.63"><defs><style>.cls-1{fill:none;stroke:#000;stroke-opacity:.2;stroke-miterlimit:10;stroke-width:1.03px;}</style></defs><g id="Layer_2" data-name="Layer 2"><g id="Layer_1-2" data-name="Layer 1"><path class="cls-1" d="M.33,134.7s110.8-91.86,155.32-88.29c38.09,3.05,81.08,92.37,119.15,95.74,22.64,2,57.05-43.66,79.78-43.62,23.69,0,59.48,48.74,83,45.75C489.45,137.69,537.66-4.66,589.69.66c42.94,4.4,56.75,132.36,98.94,141.49,21.44,4.64,53.66-42.89,75.53-44.68,37.26-3,139.36,54.26,139.36,54.26"/><path class="cls-1" d="M.33,132.44s53.84-39,97.54-60.64c22.58-11.17,44.5-16.83,59.76-12.89,20.38,5.26,42,32.17,63.8,53.67,18.86,18.74,37.37,33.08,54.92,31,17.11-2.06,40.1-28.23,60.41-39.28,6.53-3.54,12.71-5.38,18.29-4.68,23.55,3,57.47,52.12,81.05,49.75,37-3.7,73.68-79.18,109.65-114.37C560.29,20.72,575,12.5,590,15.74c27.08,5.83,44.36,55.74,63.4,91,11.35,21,23.74,36.11,39.6,37.1,8.93.56,19.43-6.45,30.12-14.24,15.38-11.16,31.58-23.92,44.61-23,10.76.82,26.09,5.8,42.53,11.27,41.1,13.76,94.34,32.65,94.34,32.65"/><path class="cls-1" d="M.33,130.18s59.35-37.94,101.08-55c21.71-8.88,42.79-10.43,58.2-3.74,20.39,8.86,42,36.38,63.82,54.81,18.9,16,37.11,24.48,54.48,18.71,17.07-5.68,39.11-32.19,59.27-41.65,6.5-3.06,12.68-4.07,18.33-2.66,23.39,5.84,55.46,55.5,79.13,53.76,37.13-2.73,75.47-80.53,111.61-110.81,14.46-12.11,29.06-17.67,44-12.77,27.29,9,46.36,57.6,66.31,88,11.83,18,24.83,28.12,40.74,26.7,9.06-.81,19.42-7.91,29.82-14.56,15-9.53,30.93-18.12,44.12-15.15,10.91,2.5,25.73,8.43,41.35,13.19,38.81,11.94,93,20.38,93,20.38"/><path class="cls-1" d="M.33,127.92S65.23,91.08,105,78.53c20.86-6.59,41.09-4.07,56.63,5.39,20.42,12.43,41.95,40.62,63.85,56,18.91,13.24,36.85,15.85,54,6.45s38.15-36.11,58.13-44c6.49-2.57,12.65-2.77,18.38-.64,23.23,8.64,53.46,58.88,77.21,57.76,37.26-1.75,77.2-81.88,113.57-107.23,14.35-10,28.92-12.87,43.82-6.32,27.5,12.1,48.34,59.44,69.23,84.93,12.3,15,25.94,20.1,41.88,16.31,9.2-2.19,19.4-9.39,29.51-14.88,14.62-7.94,30.3-12.36,43.64-7.35,11.07,4.17,25.38,11,40.17,15.11,36.55,10.05,91.71,8.13,91.71,8.13"/><path class="cls-1" d="M.33,125.66S70.8,90,108.5,81.89c20-4.28,39.38,2.28,55.06,14.53,20.45,16,41.88,44.88,63.87,57.1C246.34,164,264,160.72,281,147.73s37.18-40,57-46.38a23.78,23.78,0,0,1,18.42,1.38c23.08,11.39,51.45,62.26,75.28,61.76,37.41-.77,78.88-83.27,115.55-103.65,14.21-7.91,28.75-8.06,43.6.13,27.71,15.27,50.28,61.29,72.15,81.9,12.74,12,27,12,43,5.92,9.34-3.59,19.38-10.85,29.2-15.19,14.26-6.33,29.66-6.58,43.15.45,11.23,5.85,25,13.67,39,17,34.25,8.21,90.39-4.14,90.39-4.14"/><path class="cls-1" d="M.33,123.4S76.39,88.86,112,85.25c19.18-1.94,37.7,8.63,53.5,23.68,20.5,19.52,41.8,49.13,63.89,58.24,18.9,7.79,36.29-1.47,53.14-18s36.22-43.94,55.86-48.74c6.46-1.58,12.6-.21,18.47,3.4,23,14.11,49.44,65.64,73.35,65.76,37.54.21,80.5-84.72,117.51-100.08,14-5.83,28.59-3.23,43.4,6.58,27.89,18.48,52.16,63.17,75.07,78.89,13.14,9,28.11,4,44.15-4.48,9.46-5,19.38-12.3,28.89-15.51,13.9-4.7,29-.76,42.67,8.25,11.37,7.56,24.66,16.32,37.83,18.95,32,6.4,89.07-16.4,89.07-16.4"/><path class="cls-1" d="M.33,121.14S82,87.84,115.58,88.62c18.35.42,36,15,51.94,32.81,20.56,23,41.71,53.4,63.91,59.39,18.89,5.08,36-10.14,52.69-30.31,16.86-20.35,35.26-47.83,54.73-51.1,6.45-1.08,12.59,1.06,18.51,5.41,22.86,16.81,47.43,69,71.43,69.78,37.68,1.18,82.08-86.28,119.47-96.51,13.89-3.8,28.41,1.61,43.19,13,28.06,21.7,54,65.11,78,75.86,13.53,6.07,29.18-4.1,45.29-14.87,9.58-6.41,19.37-13.75,28.58-15.83,13.54-3.06,28.36,5,42.18,16.06,11.53,9.23,24.31,19,36.67,20.87,29.66,4.59,87.74-28.67,87.74-28.67"/><path class="cls-1" d="M.33,118.88s87.22-32,118.8-26.9c17.51,2.83,34.37,21.29,50.37,42,20.66,26.55,41.62,57.69,63.93,60.52,18.88,2.4,35.63-18.82,52.25-42.55,16.73-24.07,34.3-51.7,53.59-53.47,6.43-.57,12.58,2.32,18.55,7.43,22.79,19.49,45.43,72.41,69.5,73.78,37.83,2.16,83.68-88,121.44-92.93,13.72-1.81,28.23,6.44,43,19.48C620,131.12,647.59,173.33,672.65,179c13.92,3.17,30.23-12.18,46.43-25.26,9.69-7.83,19.36-15.19,28.27-16.15,13.18-1.42,27.72,10.83,41.7,23.86,11.68,10.92,23.94,21.63,35.49,22.8C851.9,187.13,911,143.35,911,143.35"/><path class="cls-1" d="M.33,116.62S93.07,86,122.67,95.34c38,12,72.9,113.36,112.77,112.77,38-.57,66.25-110.19,104.25-110.64,30.65-.36,55.62,84.71,86.17,87.23,38,3.14,85.32-89.75,123.41-89.36,39.67.42,86.92,94.89,126.59,95.75,22.94.5,52.59-52.56,75.53-52.13,23.56.44,52,55.41,75.54,56.38,25.06,1,85.1-53.19,85.1-53.19"/></g></g></svg>