<svg xmlns="http://www.w3.org/2000/svg" xmlns:xlink="http://www.w3.org/1999/xlink" viewBox="0 0 999.83 237.82"><defs><style>.cls-1,.cls-3{fill:none;}.cls-2{clip-path:url(#clip-path);}.cls-3,.cls-4{stroke:#c00;stroke-miterlimit:10;}.cls-4{fill:#c00;}</style><clipPath id="clip-path" transform="translate(10.29 -29.68)"><rect class="cls-1" width="955" height="342"/></clipPath></defs><g id="Layer_2" data-name="Layer 2"><g id="Layer_1-2" data-name="Layer 1"><g class="cls-2"><path class="cls-3" d="M24.5,137.5s90.11-114.08,132-107c32.77,5.54,38.36,102.83,70,113,44.6,14.33,129.34-89,173-72,14.39,5.59,11,52.48,26,56C469.83,137.87,518.4,35.81,559,35c41-.82,89.72,95.49,132.5,96.5,17.19.41,34.85-46.25,52-45,10.79.79,28.53,35.73,61.5,26.5,25-7,53-75.09,88.5-69.5,23.57,3.71,59,75,59,75" transform="translate(10.29 -29.68)"/><path class="cls-3" d="M20.67,140.33C31,132.86,116.79,32.23,156.44,40.67c21.33,4.53,29.72,43.52,43.41,72.26,8.24,17.27,16.88,30.71,29,33.12,23.59,4.71,57.94-20.1,92.64-41.6,17.77-11,36.41-21.54,53.18-25.29,9.62-2.15,18.26-2.56,25.61.72,15.06,6.71,12.41,50.89,27.62,54.23,37.13,8.22,75.25-65,111.67-85.65,7-4,13.59-6,20-5.56,21.05,1.51,43.29,29.23,68.41,52.93,22,20.86,43,38,63.7,37.67,9.54-.13,19.35-12.55,29.43-23.2,8.41-8.84,16.34-16.76,24-15.58s17.05,15.53,32.36,22.34c8.43,3.76,18.05,5.35,29.08,1.73,15.08-5,30.08-29.75,48-46.4,12.85-12,26.23-20.3,40.5-16.56,10,2.63,21.64,16.07,32.25,29.41C942,103.78,954,122.82,955.56,122.33" transform="translate(10.29 -29.68)"/><path class="cls-3" d="M16.83,143.17C37.5,128.21,119,41.28,156.39,50.83c22.25,5.69,29.12,44.54,44.36,70.6,9.08,15.53,18.1,26.22,30.44,27.18,23.21,1.81,56.55-21.87,91.61-41.59,16.86-9.49,35.76-18.78,53.29-21.06,9.47-1.22,17.88-1.26,25,2.29,15.73,7.89,13.86,49.3,29.24,52.47,37.07,7.73,73.14-68.28,110-86.18,7-3.44,13.53-4.79,19.72-3.74,20.35,3.44,40.94,31.86,67,53.8,22.75,19.12,43.39,32,64.68,30.89,9.7-.51,19.78-11.52,30.44-20.41,8.89-7.41,16.91-13.86,24.39-12.15,8,1.84,17.16,15.6,32.59,21.38,8.72,3.27,18.26,4.23,28.78.26,15.64-5.9,30.07-30.69,48.47-45.1,13.15-10.38,26.37-16.34,40-11.31,10.19,3.76,21.55,17.29,32.25,29,14.73,16.13,26.72,30,29.9,29" transform="translate(10.29 -29.68)"/><path class="cls-3" d="M13,146c31-22.43,108.11-95.48,143.33-85,23.19,6.9,28.49,45.54,45.31,68.94,9.9,13.77,19.29,21.76,31.89,21.22,22.78-1,55.08-23.67,90.58-41.57,15.9-8,35.2-14.44,53.41-16.83,9.22-1.2,17.49.08,24.29,3.87,16.38,9.11,15.3,47.71,30.86,50.7,37,7.25,71.07-71.47,108.4-86.72,7.09-2.89,13.46-3.55,19.48-1.91,19.62,5.35,38.52,34.54,65.65,54.67,23.47,17.42,43.77,26,65.68,24.12,9.85-.87,20.21-10.48,31.44-17.62,9.39-6,17.47-10.92,24.79-8.72,8.51,2.56,17.3,15.64,32.83,20.41,9,2.77,18.46,3.07,28.49-1.2,16.18-6.89,30.09-31.59,48.93-43.81,13.46-8.74,26.5-12.29,39.58-6,10.39,5,21.45,18.5,32.25,28.57,14.72,13.72,26.71,22.4,31.48,20.93" transform="translate(10.29 -29.68)"/><path class="cls-3" d="M9.17,148.83C50.5,118.92,123.22,59.92,156.28,71.17c24.11,8.2,27.82,46.55,46.25,67.28,10.69,12,20.47,17.36,33.34,15.27,22.32-3.63,53.52-25.57,89.56-41.56A156.6,156.6,0,0,1,379,99.56c9.1-.45,17.09,1.45,23.63,5.44,17,10.39,16.74,46.12,32.48,48.94C472,160.7,504,79.2,541.82,66.69c7.15-2.37,13.39-2.34,19.24-.09,18.91,7.25,36.11,37.23,64.27,55.54,24.19,15.73,44.15,20.1,66.67,17.34,10-1.22,20.65-9.43,32.45-14.83,9.9-4.54,18-7.93,25.2-5.28,9,3.33,17.43,15.66,33.07,19.44a40.94,40.94,0,0,0,28.18-2.66c16.72-7.93,30.08-32.53,49.4-42.53,13.75-7.12,26.61-8.14,39.12-.79C910,99,920.74,112.55,931.68,121c14.66,11.32,26.69,14.8,33,12.84" transform="translate(10.29 -29.68)"/><path class="cls-3" d="M5.33,151.67c51.67-37.39,120-82.2,150.89-70.34,25,9.6,27.12,47.6,47.21,65.63,11.46,10.29,21.64,13,34.79,9.31,21.86-6.17,51.86-27.59,88.52-41.54,13.85-5.27,33.61-11,53.64-8.37,8.9,1.2,16.68,2.83,23,7,17.62,11.71,18.18,44.52,34.09,47.18,36.9,6.27,66.86-78,105.14-87.8,7.2-1.84,13.32-1.11,19,1.74,18.2,9.13,33.68,39.93,62.89,56.41C649.36,145,669,145.06,692.13,141.48c10.16-1.58,21.09-8.38,33.45-12,10.41-3.09,18.56-4.91,25.61-1.84,9.48,4.13,17.58,15.65,33.3,18.47a42.05,42.05,0,0,0,27.89-4.13c17.22-9,30.06-33.46,49.86-41.23,14-5.52,26.68-3.94,38.66,4.46,10.71,7.52,21.18,21,32.26,27.74,14.59,8.94,26.68,7.21,34.62,4.77" transform="translate(10.29 -29.68)"/><path class="cls-3" d="M1.5,154.5c62-44.87,125.82-75.37,154.67-63,25.85,11.09,26.36,48.67,48.15,64,12.21,8.57,22.85,8.75,36.24,3.36,21.46-8.64,50.13-29.8,87.5-41.54,12.76-4,32.91-8.67,53.75-4.13,8.73,1.91,16.26,4.23,22.32,8.59,18.17,13.09,19.61,42.94,35.7,45.42,36.84,5.78,64.74-81.32,103.5-88.33a25.11,25.11,0,0,1,18.76,3.56c17.5,11,31.25,42.65,61.51,57.29,25.59,12.37,44.9,8.21,68.65,3.78,10.32-1.92,21.55-7.32,34.46-9.26,10.92-1.64,19.09-1.87,26,1.59,9.94,5,17.72,15.63,33.54,17.51a43.26,43.26,0,0,0,27.58-5.59c17.7-10.16,30-34.42,50.33-39.95,14.33-3.91,26.7.32,38.19,9.72,10.83,8.87,21,22.22,32.27,27.33,14.49,6.59,26.66-.38,36.19-3.32" transform="translate(10.29 -29.68)"/><path class="cls-3" d="M-2.33,157.33C70,105,129.28,88.88,156.11,101.67c26.64,12.7,25.6,49.8,49.1,62.31,12.95,6.89,24.11,4.51,37.69-2.6,21.13-11,48.34-32.27,86.47-41.52,11.66-2.82,32.27-6.41,53.87.1,8.57,2.59,15.82,5.64,21.66,10.17,18.69,14.51,21.06,41.34,37.32,43.65,36.79,5.3,62.62-84.62,101.86-88.87a24.69,24.69,0,0,1,18.53,5.39c16.8,12.86,28.8,45.38,60.12,58.16,26.29,10.72,45.28,2.28,69.65-3,10.47-2.27,22-6.25,35.45-6.47,11.44-.19,19.61,1.17,26.43,5,10.38,5.86,17.88,15.57,33.78,16.54a44.72,44.72,0,0,0,27.29-7.05c18.13-11.37,30-35.38,50.79-38.66,14.61-2.31,26.69,4.58,37.73,15,10.89,10.24,20.85,23.5,32.28,26.9,14.37,4.29,26.64-8,37.76-11.4" transform="translate(10.29 -29.68)"/><path class="cls-3" d="M-6.17,160.17C76.5,100.35,131.19,98.7,156.06,111.83c27.34,14.44,24.82,51,50.05,60.66,13.68,5.24,25.4.3,39.14-8.55,20.85-13.43,46.5-35.12,85.44-41.51,10.55-1.73,31.69-4.22,54,4.33,8.44,3.24,15.38,7.06,21,11.74,19.17,16,22.5,39.75,38.94,41.89,36.73,4.81,60.5-88,100.23-89.4,7.37-.28,13.15,2.52,18.29,7.21,16.12,14.71,26.33,48.19,58.74,59,27,9.12,45.67-3.61,70.63-9.76,10.64-2.6,22.43-5.17,36.46-3.69,11.95,1.29,20.11,4.24,26.84,8.46,10.78,6.76,18,15.67,34,15.57a47,47,0,0,0,27-8.52c18.51-12.62,30-36.37,51.25-37.37,14.9-.74,26.63,8.86,37.27,20.24,10.9,11.65,20.68,24.84,32.28,26.49,14.26,2,26.63-15.57,39.33-19.48" transform="translate(10.29 -29.68)"/><path class="cls-3" d="M-10,163c93-67.3,143-54.42,166-41,27.94,16.32,24.07,52.25,51,59,35.93,9,58.67-51,125-56,9.48-.72,31.19-2.11,54.09,8.56C424.56,151.49,425.78,184.5,447,187c36.67,4.33,58.39-91.27,98.59-89.94,30.66,1,31.26,57.06,75.41,68.94,39.35,10.59,59.91-28.26,109.09-17.44,33.31,7.33,35.79,27.78,61.5,26.5C830,173.16,839.79,127.28,870,129c31.25,1.78,46.23,51.84,69.09,51.56,14.19-.17,26.62-23.16,40.91-27.56" transform="translate(10.29 -29.68)"/><path class="cls-4" d="M-8.81,163.17c93-67.3,143-54.42,166-41,27.95,16.32,24.08,52.25,51,59,35.93,9,58.67-51,125-56,9.49-.71,31.19-2.1,54.1,8.57,38.46,17.92,39.69,50.93,60.9,53.43,36.67,4.33,58.39-91.27,98.6-89.93,30.65,1,31.26,57.05,75.4,68.93,39.35,10.6,59.91-28.26,109.1-17.43,33.31,7.33,35.78,27.77,61.5,26.5,38.42-1.9,48.2-47.79,78.4-46.07,31.26,1.79,46.24,51.85,69.1,51.57,14.18-.18,26.61-23.16,40.9-27.57L989,267H-8Z" transform="translate(10.29 -29.68)"/></g></g></g></svg>