<svg xmlns="http://www.w3.org/2000/svg" xmlns:xlink="http://www.w3.org/1999/xlink" version="1.1" x="0px" y="0px" viewBox="0 0 100 100" enable-background="new 0 0 100 100" xml:space="preserve"><g><path fill="#000000" d="M35.85742,59.9541c-0.17041,0.0918-0.31006,0.23145-0.40234,0.40039l-3.37061,6.19336   c-1.96094,0.56836-5.76855,2.65234-6.23389,2.90918c-0.48389,0.26758-0.65967,0.875-0.39258,1.35938   c0.18213,0.33008,0.52393,0.5166,0.87646,0.5166c0.16309,0,0.3291-0.04004,0.48193-0.12402   c1.80957-0.99805,5.06299-2.64258,6.08936-2.80469c0.30713-0.04785,0.57422-0.23633,0.72266-0.50879l3.44043-6.32129   c1.70911-0.8999,5.66785-2.77612,7.76117-2.89844c0.07715,0.42529,0.18103,0.80054,0.28278,1.09082   c-0.90472,0.96851-1.47449,1.95557-1.70459,2.94971c-0.09509,0.02563-0.19086,0.05127-0.27832,0.10693   c-2.48926,1.58398-6.74561,4.41602-7.2876,5.59082c-0.10352,0.22266-0.12061,0.47656-0.04834,0.71191l2.65967,8.68262   c-1.15283,1.18555-4.13672,4.28809-4.86914,5.38672c-0.30615,0.45898-0.18213,1.08008,0.27734,1.38672   C34.03223,84.69531,34.2251,84.75,34.41553,84.75c0.32324,0,0.64014-0.15625,0.83301-0.44531   c0.64062-0.96094,3.86182-4.31152,5.04883-5.52148c0.25684-0.26172,0.34961-0.64258,0.24219-0.99316l-2.68164-8.75391   c0.79132-0.7793,3.27002-2.53198,5.62476-4.06055c0.11005,0.35071,0.25439,0.6521,0.40015,0.89746   C42.98535,67.15332,41.5835,70.30469,41.5835,77.5c0,10.19043,7.56885,14.98438,7.89062,15.18359   c0.00726,0.00452,0.01538,0.00574,0.02271,0.01001c0.05231,0.03052,0.10809,0.052,0.16461,0.07239   c0.02765,0.01001,0.05402,0.02466,0.08209,0.0321c0.07263,0.01929,0.1474,0.02795,0.22272,0.03052   c0.01062,0.00049,0.02118,0.00439,0.0318,0.00439c0.00049,0,0.00098-0.00024,0.00146-0.00024c0,0,0.00098,0.00024,0.00146,0.00024   c0.01093,0,0.02173-0.00415,0.03265-0.00439c0.07477-0.00269,0.14905-0.01123,0.22113-0.03027   c0.03149-0.0083,0.0611-0.02454,0.09198-0.03613c0.05237-0.01953,0.10419-0.03882,0.15283-0.06714   c0.00848-0.00488,0.01788-0.00635,0.02631-0.01147c0.26764-0.16577,5.53613-3.52319,7.30585-10.50757   c0.00226-0.01245,0.00671-0.02356,0.00848-0.03613c0.3526-1.40344,0.57678-2.9397,0.57678-4.63989   c0-0.40869-0.0058-0.80054-0.01453-1.18359c0.00739-0.04736-0.00287-0.09619-0.00244-0.14478   c-0.06421-2.50476-0.30774-4.46216-0.6311-5.9856c-0.00104-0.00684,0.00177-0.01318,0.00061-0.02002   c-0.00208-0.01233-0.01044-0.02136-0.013-0.03345c-0.4837-2.24963-1.13989-3.54639-1.64032-4.25952   c0.146-0.24536,0.29047-0.54663,0.4007-0.89709c2.37067,1.53918,4.86639,3.30261,5.62762,4.05139l-2.68359,8.7627   c-0.10742,0.35059-0.01465,0.73145,0.24219,0.99316c1.18652,1.20996,4.40723,4.56055,5.04785,5.52148   c0.19238,0.28906,0.50977,0.44531,0.83301,0.44531c0.19043,0,0.38281-0.05469,0.55371-0.16797   c0.45898-0.30566,0.58398-0.92676,0.27734-1.38672c-0.73145-1.09766-3.71582-4.20117-4.86816-5.38672l2.65918-8.68262   c0.07227-0.23535,0.05469-0.48926-0.04785-0.71191c-0.54297-1.1748-4.79883-4.00684-7.28809-5.59082   c-0.08746-0.05518-0.18311-0.08057-0.27808-0.10608c-0.22992-0.99451-0.79993-1.98181-1.70532-2.95056   c0.10095-0.28784,0.20386-0.65918,0.28082-1.07947c2.09546,0.1189,6.0509,1.98511,7.7641,2.88708l3.44043,6.32031   c0.14844,0.27344,0.41504,0.46191,0.72168,0.50977c1.02637,0.16211,4.28027,1.80664,6.09082,2.80469   c0.15234,0.08398,0.31836,0.12402,0.48145,0.12402c0.35254,0,0.69434-0.18652,0.87695-0.51758   c0.2666-0.4834,0.09082-1.0918-0.39258-1.3584c-0.46582-0.25684-4.27441-2.34082-6.23438-2.90918l-3.37109-6.19238   c-0.0918-0.16992-0.23145-0.30957-0.40137-0.40137c-0.61066-0.33032-5.82037-3.10327-8.91461-3.27283   c-0.05719-0.4314-0.16406-0.88-0.34027-1.33557c0.34088-0.42993,0.76624-1.10132,1.04016-1.94141l7.98035-3.57422   c0.23438-0.10547,0.41895-0.29688,0.5166-0.53418l3.48242-8.50488l4.04199-3.1709c0.43457-0.34082,0.51074-0.96973,0.16992-1.4043   s-0.9707-0.51074-1.4043-0.16992l-4.25,3.33398c-0.13672,0.10742-0.24219,0.24805-0.30859,0.4082l-3.43066,8.37988l-6.58405,2.948   c-0.05933-0.47778-0.16736-0.97437-0.38666-1.50073c-0.00104-0.00244-0.0033-0.00391-0.00433-0.00635   c0.841-0.63647,1.52673-1.5249,1.87738-2.75146c1.23724-4.33374,1.521-15.20703,0.77618-19.09155   c-0.00024-0.00146,0.00043-0.00269,0.00018-0.00415c-0.02643-0.16675-0.11621-0.72339-0.25897-1.47583   c2.10883-9.06592,6.67798-17.21265,6.72382-17.2937c0.27246-0.48047,0.10254-1.09082-0.37793-1.3623   c-0.47949-0.27148-1.09082-0.10352-1.3623,0.37793c-0.16766,0.29639-3.62451,6.46021-5.95746,14.19897   c-0.18848-0.61072-0.39313-1.1814-0.61285-1.64819c0.30469-1.41309,0.91699-6.10254-3.3623-9.43066   c-0.43652-0.34082-1.06348-0.25977-1.40332,0.1748c-0.33887,0.43652-0.26074,1.06445,0.1748,1.40332   c2.81274,2.18823,2.9281,5.13354,2.75793,6.66638c-0.83679-0.2428-1.99298-0.50305-3.02844-0.45447   c-0.55176,0.0293-0.97559,0.49902-0.94678,1.05078c0.02783,0.55176,0.50049,0.97168,1.05029,0.94727   c0.95795-0.05078,2.26837,0.32031,2.98358,0.56775c0.34943,0.76477,0.68292,1.94812,0.96106,3.13171   c-1.60449-0.69336-3.54327-0.75403-4.7464-0.69849V22.25c0-0.55273-0.44775-1-1-1s-1,0.44727-1,1v1.67004   c-1.20593-0.05066-3.14026,0.01465-4.75061,0.71155c0.27856-1.18823,0.61334-2.3783,0.96466-3.14673   c0.71442-0.24512,2.02087-0.61157,2.98419-0.56885c0.5376,0.02539,1.02197-0.39551,1.05029-0.94727   c0.02881-0.55176-0.39551-1.02148-0.94678-1.05078c-1.02985-0.04028-2.18488,0.21826-3.02289,0.45825   c-0.16418-1.53345-0.04596-4.49438,2.7514-6.67017c0.43604-0.33887,0.51465-0.9668,0.17578-1.40332   c-0.33936-0.43555-0.96924-0.51465-1.40332-0.1748c-4.2793,3.32812-3.66748,8.01758-3.36279,9.42969   c-0.21967,0.46655-0.42413,1.03687-0.61243,1.64722c-2.33386-7.73755-5.78925-13.90063-5.95691-14.19702   c-0.27197-0.48047-0.88037-0.64941-1.36279-0.37793c-0.48047,0.27148-0.6499,0.88184-0.37842,1.3623   c0.04584,0.08105,4.6145,8.22766,6.7243,17.29468c-0.14246,0.7522-0.23187,1.30847-0.258,1.47485   c0,0,0.00018,0.00122,0.00006,0.00183c-0.74542,3.8844-0.4621,14.76135,0.77631,19.09387   c0.35022,1.22644,1.03546,2.11462,1.8761,2.7511c-0.0011,0.00256-0.00342,0.00403-0.00452,0.00671   c-0.2193,0.52637-0.32727,1.02295-0.3866,1.50073l-6.58313-2.948l-3.43213-8.37988   c-0.06543-0.16016-0.17188-0.30078-0.30811-0.4082l-4.25-3.33398c-0.43457-0.3418-1.0625-0.2666-1.40381,0.16992   c-0.34082,0.43457-0.26514,1.06348,0.16943,1.4043l4.04199,3.1709l3.4834,8.50488c0.09717,0.2373,0.28223,0.42871,0.5166,0.53418   l7.97937,3.57373c0.27399,0.84058,0.6994,1.51245,1.04016,1.94287c-0.17554,0.45361-0.28253,0.90051-0.33984,1.33032   C41.65149,56.82422,36.46686,59.6228,35.85742,59.9541z M50.00006,90.61328c-0.49738-0.37061-1.2868-1.02759-2.15472-1.98193   c0.74963,0.05688,1.61957,0.10107,2.54919,0.10107c0.55951,0,1.13971-0.02136,1.72223-0.05933   C51.26367,89.60474,50.49017,90.24805,50.00006,90.61328z M53.8183,86.46631c-2.93799,0.51611-6.46698,0.13696-7.64728-0.01794   c-0.57397-0.89136-1.11505-1.91003-1.5509-3.07642c1.24438,0.23645,3.0752,0.4845,5.29883,0.4845   c1.63922,0,3.49347-0.14307,5.47217-0.51709C54.95038,84.52649,54.40161,85.56299,53.8183,86.46631z M56.41699,77.5   c0,1.32776-0.15588,2.53992-0.40167,3.6637c-5.67328,1.29846-10.46301,0.40002-12.02454,0.02429   C43.74176,80.0575,43.5835,78.8374,43.5835,77.5c0-0.00989,0.00043-0.01831,0.00043-0.02832   c1.29993,0.30701,3.49213,0.69531,6.26862,0.69531c1.93542,0,4.16571-0.21069,6.56323-0.74658   C56.41583,77.44812,56.41699,77.47217,56.41699,77.5z M56.36658,75.38721c-6.02264,1.43176-10.96497,0.48303-12.73413,0.03027   c0.06549-1.4978,0.1972-2.75208,0.36713-3.79639c0.95508,0.22656,2.50665,0.4668,4.81049,0.4668   c1.8689,0,4.23511-0.16162,7.16608-0.61304C56.15686,72.54114,56.29742,73.83313,56.36658,75.38721z M55.54816,69.51306   c-6.33643,0.9635-9.74927,0.48865-11.13739,0.15125c0.41107-1.52417,0.87274-2.32922,1.13129-2.68652   c0.9433,0.12097,3.0177,0.35034,5.20013,0.35034c1.28088,0,2.58655-0.08838,3.73077-0.31543   C54.73541,67.38184,55.16016,68.13452,55.54816,69.51306z M53.27258,54.16699h-6.54565   c-0.45044-0.54395-1.32367-1.89941-0.69421-3.62036c1.04645,0.36743,2.14148,0.50415,3.06543,0.50415   c0.32709,0,0.6275-0.0188,0.90186-0.04712c0.27448,0.02832,0.57434,0.04712,0.90186,0.04712   c0.92377,0,2.01868-0.13672,3.06512-0.50415C54.59662,52.26807,53.72437,53.62195,53.27258,54.16699z M52.97211,59.18774   c-1.61328,0.42749-4.466,0.14209-5.97394-0.08569c-0.21082-0.59106-0.47015-1.72778-0.04218-2.93506h6.0885   C53.49365,57.43311,53.18524,58.62476,52.97211,59.18774z M46.65356,61.07324c0.83197,0.1283,2.43066,0.33691,4.05103,0.33691   c0.94556,0,1.8924-0.07507,2.69971-0.27466c0.83008,0.89185,1.29449,1.76929,1.30469,2.55981   c0.00751,0.6394-0.25623,1.09131-0.42407,1.31946c-2.83063,0.63-7.28973,0.1333-8.59235-0.03564   c-0.17072-0.24158-0.40851-0.67432-0.40106-1.28381C45.30103,62.88721,45.78589,61.98608,46.65356,61.07324z M44.29492,46.30859   c-1.15625-4.04688-1.43115-14.61719-0.72998-18.19922c0.55029-2.81543,6.24219-2.12891,6.2998-2.11816   c0.05023,0.00647,0.09619-0.00903,0.14532-0.01001c0.04236-0.00024,0.08252,0.01562,0.12518,0.01001   c0.05762-0.00879,5.74951-0.69824,6.30029,2.11816c0.70117,3.58105,0.42578,14.15137-0.73047,18.19922   c-0.91504,3.20508-5.39795,2.72266-5.58691,2.69824c-0.04041-0.00513-0.0769,0.00903-0.11658,0.00903   c-0.04077,0.00012-0.07812-0.0144-0.11975-0.00903C49.69336,49.03027,45.21094,49.51367,44.29492,46.30859z"></path><path fill="#000000" d="M50,46.375c0.55225,0,1-0.44727,1-1v-8.54199c0-0.55273-0.44775-1-1-1s-1,0.44727-1,1   V45.375C49,45.92773,49.44775,46.375,50,46.375z"></path></g></svg>