<?xml version="1.0" encoding="UTF-8" standalone="no"?>
<svg version="1.1" xmlns="http://www.w3.org/2000/svg" width="700px" height="700px" x="0" y="0" viewBox="0 0 700 700"><g><polygon points="388.617613961323 340.3486378197568, 372.60497928977185 342.59906686228106, 362.6497332337559 329.85693297646037, 368.70712184929124 314.8643700481154, 384.7197565208424 312.61394100559113, 394.67500257685833 325.3560748914118" fill="rgb(65,65,65)" fill-opacity="0.88"/><polygon points="354.8930935359112 326.723047114177, 338.88045886436004 328.9734761567013, 328.9252128083441 316.2313422708806, 334.98260142387943 301.2387793425356, 350.9952360954306 298.98835030001135, 360.9504821514465 311.73048418583204" fill="rgb(87,87,87)" fill-opacity="0.88"/><polygon points="398.7419190015323 412.38681136304416, 382.72928432998117 414.63724040556843, 372.77403827396523 401.89510651974774, 378.83142688950056 386.9025435914028, 394.8440615610517 384.6521145488785, 404.79930761706765 397.3942484346992" fill="rgb(80,80,80)" fill-opacity="0.88"/><polygon points="427.4042869068395 389.99331529698026, 411.39165223528835 392.24374433950453, 401.4364061792724 379.50161045368384, 407.49379479480774 364.5090475253389, 423.5064294663589 362.2586184828146, 433.46167552237483 375.0007523686353" fill="rgb(80,80,80)" fill-opacity="0.88"/><polygon points="383.5554614412183 304.3295510481131, 367.54282676966716 306.5799800906374, 357.5875807136512 293.8378462048167, 363.64496932918655 278.8452832764717, 379.6576040007377 276.59485423394744, 389.61285005675364 289.33698811976814" fill="rgb(78,78,78)" fill-opacity="0.88"/><polygon points="349.83094101580656 290.7039603425333, 333.8183063442554 292.9543893850576, 323.86306028823947 280.2122554992369, 329.9204489037748 265.21969257089194, 345.93308357532595 262.96926352836766, 355.8883296313419 275.71139741418835" fill="rgb(84,84,84)" fill-opacity="0.88"/><polygon points="341.4171831909181 457.17380349517197, 325.4045485193669 459.42423253769624, 315.449302463351 446.68209865187555, 321.5066910788863 431.6895357235306, 337.5193257504375 429.4391066810063, 347.4745718064534 442.181240566827" fill="rgb(87,87,87)" fill-opacity="0.88"/><polygon points="375.1417036163299 470.7993942007518, 359.12906894477874 473.0498232432761, 349.1738228887628 460.3076893574554, 355.23121150429813 445.3151264291104, 371.2438461758493 443.06469738658615, 381.1990922318652 455.80683127240684" fill="rgb(75,75,75)" fill-opacity="0.88"/><polygon points="403.804071521637 448.4058981346879, 387.79143685008586 450.6563271772122, 377.8361907940699 437.9141932913915, 383.89357940960525 422.9216303630465, 399.9062140811564 420.67120132052224, 409.86146013717234 433.41333520634294" fill="rgb(27,27,27)" fill-opacity="0.88"/><polygon points="432.46643942694413 426.012402068624, 416.453804755393 428.2628311111483, 406.49855869937704 415.5206972253276, 412.5559473149124 400.5281342969826, 428.5685819864635 398.27770525445834, 438.52382804247947 411.01983914027903" fill="rgb(59,59,59)" fill-opacity="0.88"/><polygon points="412.2178293465255 281.93605498204914, 396.20519467497434 284.1864840245734, 386.2499486189584 271.4443501387527, 392.30733723449373 256.45178721040776, 408.3199719060449 254.20135816788348, 418.2752179620608 266.9434920537042" fill="rgb(85,85,85)" fill-opacity="0.88"/><polygon points="378.4933089211137 268.3104642764694, 362.4806742495625 270.56089331899364, 352.5254281935466 257.81875943317294, 358.5828168090819 242.826196504828, 374.5954514806331 240.57576746230373, 384.550697536649 253.31790134812442" fill="rgb(62,62,62)" fill-opacity="0.88"/><polygon points="344.76878849570187 254.6848735708896, 328.7561538241507 256.93530261341385, 318.8009077681348 244.1931687275932, 324.8582963836701 229.20060579924822, 340.87093105522126 226.95017675672395, 350.8261771112372 239.69231064254464" fill="rgb(77,77,77)" fill-opacity="0.88"/><polygon points="437.5285919470488 462.0314888402676, 421.51595727549767 464.2819178827919, 411.56071121948173 451.5397839969712, 417.61809983501706 436.54722106862624, 433.6307345065682 434.29679202610197, 443.58598056258415 447.03892591192266" fill="rgb(86,86,86)" fill-opacity="0.88"/><polygon points="474.60471767724437 273.1681496215651, 458.5920830056932 275.41857866408935, 448.6368369496773 262.67644477826866, 454.6942255652126 247.6838818499237, 470.70686023676376 245.43345280739942, 480.6621062927797 258.1755866932201" fill="rgb(80,80,80)" fill-opacity="0.88"/><polygon points="440.8801972518326 259.54255891598524, 424.86756258028146 261.7929879585095, 414.9123165242655 249.05085407268882, 420.96970513980085 234.05829114434385, 436.982339811352 231.80786210181958, 446.93758586736794 244.54999598764027" fill="rgb(85,85,85)" fill-opacity="0.88"/><polygon points="407.1556768264208 245.91696821040546, 391.14304215486965 248.16739725292973, 381.1877960988537 235.42526336710904, 387.24518471438904 220.43270043876407, 403.2578193859402 218.1822713962398, 413.21306544195613 230.9244052820605" fill="rgb(36,36,36)" fill-opacity="0.88"/><polygon points="373.431156401009 232.29137750482568, 357.41852172945784 234.54180654734995, 347.4632756734419 221.79967266152926, 353.52066428897723 206.8071097331843, 369.5332989605284 204.55668069066002, 379.4885450165443 217.2988145764807" fill="rgb(73,73,73)" fill-opacity="0.88"/><polygon points="282.38190016498294 263.45277893137376, 266.3692654934318 265.703207973898, 256.41401943741585 252.9610740880773, 262.4714080529512 237.96851115973234, 278.48404272450233 235.71808211720807, 288.43928878051827 248.46021600302876" fill="rgb(76,76,76)" fill-opacity="0.88"/><polygon points="253.71953225967582 285.84627499743766, 237.70689758812463 288.09670403996193, 227.75165153210875 275.35457015414124, 233.80904014764403 260.3620072257963, 249.82167481919524 258.111578183272, 259.77692087521115 270.8537120690927" fill="rgb(85,85,85)" fill-opacity="0.88"/><polygon points="471.25311237246063 475.65707954584747, 455.2404777009095 477.90750858837174, 445.28523164489354 465.16537470255105, 451.3426202604289 450.1728117742061, 467.35525493198 447.9223827316818, 477.31050098799597 460.6645166175025" fill="rgb(93,93,93)" fill-opacity="0.88"/><polygon points="469.54256515713973 237.14906284992134, 453.5299304855886 239.3994918924456, 443.57468442957264 226.65735800662492, 449.632073045108 211.66479507827995, 465.6447077166591 209.41436603575568, 475.59995377267506 222.15649992157637" fill="rgb(57,57,57)" fill-opacity="0.88"/><polygon points="402.0935243063161 209.89788143876177, 386.08088963476496 212.14831048128605, 376.125643578749 199.40617659546535, 382.18303219428435 184.4136136671204, 398.1956668658355 182.1631846245961, 408.15091292185144 194.9053185104168" fill="rgb(87,87,87)" fill-opacity="0.88"/><polygon points="248.65737973957113 249.82718822579395, 232.64474506801994 252.07761726831822, 222.68949901200406 239.33548338249753, 228.74688762753934 224.34292045415256, 244.75952229909055 222.0924914116283, 254.71476835510643 234.83462529744898" fill="rgb(55,55,55)" fill-opacity="0.88"/><polygon points="219.995011834264 272.2206842918578, 203.9823771627128 274.4711133343821, 194.0271311066969 261.7289794485614, 200.0845197222322 246.73641652021644, 216.0971543937834 244.48598747769216, 226.05240044979928 257.22812136351286" fill="rgb(76,76,76)" fill-opacity="0.88"/><polygon points="504.97763279787245 489.28267025142725, 488.9649981263213 491.5330992939515, 479.00975207030535 478.79096540813083, 485.0671406858407 463.79840247978586, 501.07977535739184 461.5479734372616, 511.0350214134078 474.2901073230823" fill="rgb(82,82,82)" fill-opacity="0.88"/><polygon points="531.9294534878587 228.38115748943721, 515.9168188163076 230.6315865319615, 505.96157276029163 217.8894526461408, 512.018961375827 202.89688971779583, 528.0315960473781 200.64646067527156, 537.986842103394 213.38859456109225" fill="rgb(73,73,73)" fill-opacity="0.88"/><polygon points="260.4922319951014 560.3733784650075, 244.4795973235502 562.6238075075316, 234.5243512675343 549.881673621711, 240.5817398830696 534.8891106933661, 256.5943745546208 532.6386816508418, 266.5496206106367 545.3808155366625" fill="rgb(67,67,67)" fill-opacity="0.88"/><polygon points="294.2167524205132 573.9989691705873, 278.20411774896206 576.2493982131115, 268.2488716929461 563.5072643272908, 274.30626030848146 548.5147013989459, 290.3188949800326 546.2642723564217, 300.27414103604855 559.0064062422423" fill="rgb(62,62,62)" fill-opacity="0.88"/><polygon points="327.94127284592497 587.624559876167, 311.9286381743738 589.8749889186912, 301.9733921183579 577.1328550328706, 308.0307807338932 562.1402921045257, 324.04341540544436 559.8898630620014, 333.9986614614603 572.631996947822" fill="rgb(49,49,49)" fill-opacity="0.88"/><polygon points="538.7021532232842 502.90826095700703, 522.689518551733 505.1586899995313, 512.7342724957172 492.4165561137106, 518.7916611112524 477.42399318536565, 534.8042957828036 475.17356414284137, 544.7595418388195 487.91569802866206" fill="rgb(44,44,44)" fill-opacity="0.88"/><polygon points="575.7782789534798 314.0449217383044, 559.7656442819286 316.2953507808287, 549.8103982259128 303.553216895008, 555.867786841448 288.56065396666304, 571.8804215129992 286.31022492413877, 581.8356675690151 299.05235880995946" fill="rgb(0,0,0)" fill-opacity="0.88"/><polygon points="570.7161264333752 278.02583496666074, 554.703491761824 280.276264009185, 544.7482457058081 267.5341301233643, 550.8056343213434 252.54156719501935, 566.8182689928946 250.29113815249508, 576.7735150489104 263.0332720383158" fill="rgb(6,6,6)" fill-opacity="0.88"/><polygon points="565.6539739132705 242.006748195017, 549.6413392417194 244.25717723754127, 539.6860931857035 231.51504335172058, 545.7434818012388 216.5224804233756, 561.7561164727899 214.27205138085134, 571.7113625288058 227.01418526667203" fill="rgb(63,63,63)" fill-opacity="0.88"/><polygon points="560.5918213931658 205.9876614233733, 544.5791867216146 208.23809046589759, 534.6239406655988 195.4959565800769, 540.681329281134 180.50339365173193, 556.6939639526852 178.25296460920765, 566.6492100087011 190.99509849502834" fill="rgb(88,88,88)" fill-opacity="0.88"/><polygon points="526.867300967754 192.36207071779353, 510.8546662962028 194.6124997603178, 500.8994202401869 181.8703658744971, 506.9568088557222 166.87780294615214, 522.9694435272734 164.62737390362787, 532.9246895832893 177.36950778944856" fill="rgb(56,56,56)" fill-opacity="0.88"/><polygon points="134.00790811834264 339.4011724900496, 117.99527344679143 341.65160153257386, 108.04002739077553 328.90946764675317, 114.09741600631082 313.9169047184082, 130.11005067786203 311.66647567588393, 140.06529673387791 324.4086095617046" fill="rgb(90,90,90)" fill-opacity="0.88"/><polygon points="198.10534366438247 569.1412838254917, 182.09270899283126 571.3917128680158, 172.13746293681538 558.6495789821952, 178.19485155235066 543.6570160538503, 194.20748622390187 541.406587011326, 204.16273227991775 554.1487208971466" fill="rgb(81,81,81)" fill-opacity="0.88"/><polygon points="366.72794579144147 637.2692373533905, 350.7153111198903 639.5196663959147, 340.7600650638744 626.777532510094, 346.8174536794097 611.7849695817491, 362.83008835096086 609.5345405392248, 372.7853344069768 622.2766744250455" fill="rgb(47,47,47)" fill-opacity="0.88"/><polygon points="572.426673648696 516.5338516625868, 556.4140389771449 518.7842807051111, 546.458792921129 506.0421468192904, 552.5161815366642 491.0495838909454, 568.5288162082154 488.79915484842115, 578.4840622642313 501.54128873424185" fill="rgb(14,14,14)" fill-opacity="0.88"/><polygon points="609.5027993788916 327.6705124438842, 593.4901647073405 329.9209414864085, 583.5349186513246 317.1788076005878, 589.5923072668598 302.1862446722428, 605.604941938411 299.93581562971855, 615.5601879944269 312.67794951553924" fill="rgb(22,22,22)" fill-opacity="0.88"/><polygon points="604.4406468587869 291.65142567224046, 588.4280121872357 293.90185471476474, 578.4727661312198 281.15972082894405, 584.5301547467551 266.1671579005991, 600.5427894183063 263.9167288580748, 610.4980354743221 276.6588627438955" fill="rgb(0,0,0)" fill-opacity="0.88"/><polygon points="599.3784943386823 255.6323389005968, 583.3658596671312 257.88276794312105, 573.4106136111153 245.1406340573004, 579.4680022266506 230.14807112895542, 595.4806368982017 227.89764208643115, 605.4358829542176 240.63977597225184" fill="rgb(0,0,0)" fill-opacity="0.88"/><polygon points="594.3163418185776 219.61325212895312, 578.3037071470264 221.8636811714774, 568.3484610910106 209.1215472856567, 574.4058497065458 194.12898435731174, 590.418484378097 191.87855531478746, 600.3737304341129 204.62068920060815" fill="rgb(0,0,0)" fill-opacity="0.88"/><polygon points="589.2541892984729 183.5941653573094, 573.2415546269217 185.84459439983368, 563.2863085709058 173.102460514013, 569.3436971864411 158.10989758566802, 585.3563318579922 155.85946854314375, 595.3115779140081 168.60160242896444" fill="rgb(58,58,58)" fill-opacity="0.88"/><polygon points="555.529668873061 169.96857465172963, 539.5170342015099 172.2190036942539, 529.561788145494 159.4768698084332, 535.6191767610293 144.48430688008824, 551.6318114325804 142.23387783756397, 561.5870574885963 154.97601172338466" fill="rgb(68,68,68)" fill-opacity="0.88"/><polygon points="521.8051484476493 156.34298394614981, 505.7925137760982 158.5934129886741, 495.83726772008225 145.8512791028534, 501.8946563356176 130.85871617450843, 517.9072910071687 128.60828713198416, 527.8625370631846 141.35042101780485" fill="rgb(48,48,48)" fill-opacity="0.88"/><polygon points="100.28338769293084 325.7755817844698, 84.27075302137965 328.0260108269941, 74.31550696536375 315.2838769411734, 80.37289558089904 300.2913140128284, 96.38553025245025 298.04088497030415, 106.34077630846615 310.78301885612484" fill="rgb(62,62,62)" fill-opacity="0.88"/><polygon points="577.4888261688008 552.5529384342306, 561.4761914972496 554.8033674767547, 551.5209454412337 542.0612335909341, 557.578334056769 527.0686706625892, 573.5909687283201 524.8182416200649, 583.546214784336 537.5603755058855" fill="rgb(39,39,39)" fill-opacity="0.88"/><polygon points="606.1511940741078 530.1594423681667, 590.1385594025567 532.4098714106908, 580.1833133465408 519.6677375248702, 586.2407019620761 504.6751745965252, 602.2533366336272 502.42474555400094, 612.2085826896431 515.1668794398216" fill="rgb(22,22,22)" fill-opacity="0.88"/><polygon points="638.1651672841987 305.2770163778203, 622.1525326126475 307.5274454203446, 612.1972865566316 294.7853115345239, 618.2546751721669 279.7927486061789, 634.2673098437181 277.54231956365464, 644.222555899734 290.28445344947534" fill="rgb(0,0,0)" fill-opacity="0.88"/><polygon points="633.103014764094 269.25792960617656, 617.0903800925429 271.50835864870083, 607.135134036527 258.76622476288014, 613.1925226520623 243.77366183453518, 629.2051573236134 241.5232327920109, 639.1604033796293 254.2653666778316" fill="rgb(0,0,0)" fill-opacity="0.88"/><polygon points="628.0408622439894 233.2388428345329, 612.0282275724383 235.48927187705718, 602.0729815164224 222.74713799123649, 608.1303701319576 207.75457506289152, 624.1430048035088 205.50414602036724, 634.0982508595247 218.24627990618794" fill="rgb(0,0,0)" fill-opacity="0.88"/><polygon points="622.9787097238847 197.2197560628892, 606.9660750523335 199.47018510541346, 597.0108289963176 186.72805121959277, 603.0682176118529 171.7354882912478, 619.080852283404 169.48505924872353, 629.0360983394199 182.22719313454422" fill="rgb(51,51,51)" fill-opacity="0.88"/><polygon points="617.91655720378 161.2006692912455, 601.9039225322289 163.45109833376978, 591.948676476213 150.70896444794909, 598.0060650917483 135.71640151960412, 614.0186997632994 133.46597247707984, 623.9739458193153 146.20810636290054" fill="rgb(15,15,15)" fill-opacity="0.88"/><polygon points="516.7429959275447 120.32389717450613, 500.7303612559935 122.57432621703039, 490.77511519997756 109.8321923312097, 496.8325038155129 94.83962940286474, 512.8451384870641 92.58920036034048, 522.80038454308 105.33133424616118" fill="rgb(58,58,58)" fill-opacity="0.88"/><polygon points="348.12039380048566 52.19594364660719, 332.1077591289345 54.44637268913145, 322.15251307291857 41.70423880331076, 328.2099016884539 26.71167587496581, 344.22253636000505 24.461246832441546, 354.177782416021 37.20338071826223" fill="rgb(88,88,88)" fill-opacity="0.88"/><polygon points="314.39587337507385 38.57035294102741, 298.3832387035227 40.82078198355167, 288.42799264750676 28.07864809773098, 294.4853812630421 13.086085169386028, 310.49801593459324 10.835656126861762, 320.4532619906092 23.57779001268245" fill="rgb(68,68,68)" fill-opacity="0.88"/><polygon points="71.62101978762367 348.1690778505337, 55.60838511607247 350.419506893058, 45.653139060056574 337.6773730072373, 51.71052767559187 322.6848100788923, 67.72316234714307 320.43438103636805, 77.67840840315897 333.17651492218874" fill="rgb(65,65,65)" fill-opacity="0.88"/><polygon points="671.8896877096105 318.9026070834, 655.8770530380593 321.1530361259243, 645.9218069820434 308.4109022401036, 651.9791955975787 293.41833931175864, 667.9918302691299 291.16791026923437, 677.9470763251458 303.91004415505506" fill="rgb(0,0,0)" fill-opacity="0.88"/><polygon points="666.8275351895059 282.8835203117564, 650.8149005179547 285.1339493542807, 640.8596544619388 272.39181546846, 646.9170430774741 257.399252540115, 662.9296777490252 255.14882349759074, 672.8849238050411 267.89095738341143" fill="rgb(0,0,0)" fill-opacity="0.88"/><polygon points="661.7653826694012 246.86443354011269, 645.7527479978501 249.11486258263696, 635.7975019418342 236.37272869681627, 641.8548905573695 221.3801657684713, 657.8675252289206 219.12973672594703, 667.8227712849365 231.87187061176772" fill="rgb(0,0,0)" fill-opacity="0.88"/><polygon points="656.7032301492965 210.84534676846897, 640.6905954777453 213.09577581099325, 630.7353494217294 200.35364192517255, 636.7927380372647 185.3610789968276, 652.8053727088159 183.1106499543033, 662.7606187648317 195.852783840124" fill="rgb(8,8,8)" fill-opacity="0.88"/><polygon points="651.6410776291918 174.82625999682529, 635.6284429576407 177.07668903934956, 625.6731969016248 164.33455515352887, 631.7305855171601 149.3419922251839, 647.7432201887112 147.09156318265963, 657.6984662447271 159.83369706848032" fill="rgb(54,54,54)" fill-opacity="0.88"/><polygon points="646.5789251090872 138.80717322518157, 630.566290437536 141.05760226770585, 620.6110443815202 128.31546838188515, 626.6684329970554 113.32290545354019, 642.6810676686066 111.07247641101593, 652.6363137246225 123.81461029683662" fill="rgb(0,0,0)" fill-opacity="0.88"/><polygon points="612.8544046836754 125.18158251960176, 596.8417700121242 127.43201156212602, 586.8865239561084 114.68987767630533, 592.9439125716436 99.69731474796038, 608.9565472431948 97.44688570543612, 618.9117932992107 110.18901959125681" fill="rgb(26,26,26)" fill-opacity="0.88"/><polygon points="579.1298842582636 111.55599181402198, 563.1172495867124 113.80642085654624, 553.1620035306966 101.06428697072555, 559.2193921462318 86.0717240423806, 575.232026817783 83.82129499985633, 585.1872728737989 96.56342888567703" fill="rgb(66,66,66)" fill-opacity="0.88"/><polygon points="545.4053638328518 97.9304011084422, 529.3927291613006 100.18083015096646, 519.4374831052847 87.43869626514577, 525.49487172082 72.44613333680081, 541.5075063923712 70.19570429427655, 551.462752448387 82.93783818009724" fill="rgb(75,75,75)" fill-opacity="0.88"/><polygon points="511.68084340743997 84.30481040286242, 495.6682087358888 86.55523944538668, 485.7129626798729 73.81310555956598, 491.7703512954082 58.82054263122103, 507.78298596695936 56.57011358869677, 517.7382320229752 69.31224747451746" fill="rgb(55,55,55)" fill-opacity="0.88"/><polygon points="410.50728213120453 43.42803828612307, 394.4946474596534 45.67846732864733, 384.53940140363744 32.93633344282664, 390.5967900191728 17.943770514481688, 406.6094246907239 15.693341471957423, 416.56467074673986 28.43547535777811" fill="rgb(87,87,87)" fill-opacity="0.88"/><polygon points="376.7827617057928 29.802447580543287, 360.7701270342416 32.05287662306755, 350.8148809782257 19.31074273724686, 356.872269593761 4.318179808901906, 372.8849042653122 2.0677507663776407, 382.8401503213281 14.80988465219833" fill="rgb(56,56,56)" fill-opacity="0.88"/><polygon points="343.05824128038097 16.176856874963505, 327.0456066088298 18.427285917487765, 317.0903605528139 5.6851520316670765, 323.1477491683492 -9.307410896677876, 339.16038383990036 -11.557839939202141, 349.1156298959163 1.1842939466185474" fill="rgb(38,38,38)" fill-opacity="0.88"/><polygon points="309.33372085496916 2.551266169383725, 293.321086183418 4.801695211907985, 283.36584012740207 -7.9404386739127055, 289.4232287429374 -22.933001602257658, 305.43586341448855 -25.18343064478192, 315.3911094705045 -12.441296758961235" fill="rgb(49,49,49)" fill-opacity="0.88"/><polygon points="280.67135294966204 24.944762235447627, 264.6587182781109 27.195191277971887, 254.70347222209497 14.453057392151198, 260.7608608376303 -0.5395055361937544, 276.77349550918143 -2.78993457871802, 286.72874156519737 9.952199307102669" fill="rgb(79,79,79)" fill-opacity="0.88"/><polygon points="37.896499362211856 334.54348714495393, 21.883864690660662 336.7939161874782, 11.928618634644767 324.0517823016575, 17.98600725018006 309.05921937331254, 33.998641921731256 306.80879033078827, 43.95388797774716 319.55092421660896" fill="rgb(90,90,90)" fill-opacity="0.88"/><polygon points="42.958651882316545 370.5625739165976, 26.94601721076535 372.8130029591219, 16.990771154749456 360.0708690733012, 23.048159770284748 345.07830614495623, 39.060794441835945 342.82787710243196, 49.01604049785185 355.57001098825265" fill="rgb(94,94,94)" fill-opacity="0.88"/><polygon points="472.96365958778154 714.1650962417737, 456.9510249162304 716.4155252842978, 446.99577886021444 703.6733913984772, 453.0531674757498 688.6808284701323, 469.06580214730093 686.430399427608, 479.02104820331687 699.1725333134286" fill="rgb(90,90,90)" fill-opacity="0.88"/><polygon points="501.62602749308866 691.7716001757096, 485.6133928215375 694.0220292182338, 475.65814676552156 681.2798953324132, 481.7155353810569 666.2873324040683, 497.72817005260805 664.036903361544, 507.683416108624 676.7790372473646" fill="rgb(68,68,68)" fill-opacity="0.88"/><polygon points="530.2883953983958 669.3781041096457, 514.2757607268446 671.6285331521699, 504.3205146708287 658.8863992663493, 510.377903286364 643.8938363380043, 526.3905379579152 641.6434072954801, 536.345784013931 654.3855411813007" fill="rgb(75,75,75)" fill-opacity="0.88"/><polygon points="705.6142081350223 332.52819778897987, 689.6015734634711 334.77862683150414, 679.6463274074553 322.03649294568345, 685.7037160229905 307.0439300173385, 701.7163506945417 304.7935009748142, 711.6715967505576 317.5356348606349" fill="rgb(34,34,34)" fill-opacity="0.88"/><polygon points="700.5520556149177 296.5091110173361, 684.5394209433665 298.7595400598604, 674.5841748873506 286.0174061740397, 680.6415635028859 271.02484324569474, 696.654198174437 268.77441420317047, 706.6094442304529 281.51654808899116" fill="rgb(0,0,0)" fill-opacity="0.88"/><polygon points="695.489903094813 260.4900242456925, 679.4772684232619 262.7404532882167, 669.522022367246 249.99831940239605, 675.5794109827813 235.00575647405108, 691.5920456543324 232.7553274315268, 701.5472917103483 245.4974613173475" fill="rgb(0,0,0)" fill-opacity="0.88"/><polygon points="690.4277505747083 224.47093747404875, 674.4151159031571 226.72136651657303, 664.4598698471412 213.97923263075234, 670.5172584626765 198.98666970240737, 686.5298931342277 196.7362406598831, 696.4851391902436 209.4783745457038" fill="rgb(0,0,0)" fill-opacity="0.88"/><polygon points="685.3655980546037 188.45185070240507, 669.3529633830525 190.70227974492934, 659.3977173270366 177.96014585910865, 665.4551059425719 162.96758293076368, 681.467740614123 160.7171538882394, 691.4229866701389 173.4592877740601" fill="rgb(0,0,0)" fill-opacity="0.88"/><polygon points="680.303445534499 152.43276393076135, 664.2908108629479 154.68319297328563, 654.335564806932 141.94105908746494, 660.3929534224673 126.94849615911997, 676.4055880940184 124.69806711659571, 686.3608341500343 137.4402010024164" fill="rgb(5,5,5)" fill-opacity="0.88"/><polygon points="675.2412930143943 116.4136771591177, 659.2286583428431 118.66410620164196, 649.2734122868272 105.92197231582126, 655.3308009023625 90.92940938747631, 671.3434355739137 88.67898034495205, 681.2986816299295 101.42111423077274" fill="rgb(0,0,0)" fill-opacity="0.88"/><polygon points="641.5167725889825 102.78808645353791, 625.5041379174313 105.03851549606217, 615.5488918614154 92.29638161024148, 621.6062804769507 77.30381868189653, 637.6189151485019 75.05338963937227, 647.5741612045177 87.79552352519296" fill="rgb(3,3,3)" fill-opacity="0.88"/><polygon points="607.7922521635707 89.16249574795813, 591.7796174920195 91.41292479048239, 581.8243714360036 78.6707909046617, 587.8817600515389 63.67822797631675, 603.89439472309 61.42779893379249, 613.8496407791059 74.16993281961318" fill="rgb(20,20,20)" fill-opacity="0.88"/><polygon points="574.0677317381588 75.53690504237835, 558.0550970666077 77.78733408490261, 548.0998510105918 65.04520019908192, 554.1572396261271 50.052637270736966, 570.1698742976782 47.802208228212706, 580.1251203536941 60.54434211403339" fill="rgb(0,0,0)" fill-opacity="0.88"/><polygon points="540.343211312747 61.91131433679857, 524.3305766411959 64.16174337932283, 514.37533058518 51.419609493502136, 520.4327192007153 36.427046565157184, 536.4453538722664 34.176617522632924, 546.4005999282823 46.91875140845361" fill="rgb(84,84,84)" fill-opacity="0.88"/><polygon points="506.61869088733533 48.28572363121879, 490.6060562157842 50.53615267374305, 480.65081015976824 37.794018787922354, 486.7081987753036 22.801455859577406, 502.7208334468547 20.551026817053142, 512.6760795028706 33.29316070287383" fill="rgb(64,64,64)" fill-opacity="0.88"/><polygon points="472.8941704619235 34.66013292563895, 456.88153579037237 36.91056196816321, 446.92628973435643 24.16842808234252, 452.98367834989176 9.175865153997567, 468.9963130214429 6.925436111473301, 478.95155907745885 19.667569997293988" fill="rgb(81,81,81)" fill-opacity="0.88"/><polygon points="405.4451296110999 7.408951514479385, 389.43249493954875 9.659380557003646, 379.4772488835328 -3.0827533288170454, 385.53463749906814 -18.075316257161997, 401.5472721706193 -20.32574529968626, 411.50251822663523 -7.583611413865574" fill="rgb(46,46,46)" fill-opacity="0.88"/><polygon points="371.7206091856881 -6.216639191100397, 355.70797451413694 -3.9662101485761365, 345.752728458121 -16.708344034396827, 351.81011707365633 -31.70090696274178, 367.8227517452075 -33.95133600526604, 377.7779978012234 -21.209202119445358" fill="rgb(36,36,36)" fill-opacity="0.88"/><polygon points="337.9960887602763 -19.84222989668018, 321.9834540887251 -17.59180085415592, 312.0282080327092 -30.33393473997661, 318.0855966482445 -45.326497668321565, 334.0982313197957 -47.576926710845825, 344.0534773758116 -34.83479282502514" fill="rgb(39,39,39)" fill-opacity="0.88"/><polygon points="275.60920042955735 -11.074324536196114, 259.5965657580062 -8.823895493671854, 249.64131970199028 -21.566029379492544, 255.69870831752556 -36.5585923078375, 271.71134298907674 -38.80902135036176, 281.6665890450927 -26.066887464541075" fill="rgb(78,78,78)" fill-opacity="0.88"/><polygon points="246.94683252425023 11.319171529867846, 230.93419785269904 13.569600572392106, 220.97895179668316 0.8274666865714155, 227.03634041221844 -14.165096241773536, 243.04897508376965 -16.4155252842978, 253.00422113978553 -3.673391398477113" fill="rgb(68,68,68)" fill-opacity="0.88"/><polygon points="218.2844646189431 33.71266759593175, 202.27182994739192 35.96309663845601, 192.31658389137604 23.22096275263532, 198.37397250691131 8.228399824290367, 214.38660717846253 5.977970781766102, 224.3418532344784 18.72010466758679" fill="rgb(92,92,92)" fill-opacity="0.88"/><polygon points="74.97262509240745 145.68014792625132, 58.95999042085626 147.9305769687756, 49.00474436484036 135.1884430829549, 55.06213298037566 120.19588015460994, 71.07476765192686 117.94545111208568, 81.03001370794276 130.68758499790636" fill="rgb(74,74,74)" fill-opacity="0.88"/><polygon points="46.31025718710028 168.0736439923152, 30.297622515549083 170.32407303483947, 20.342376459533188 157.58193914901878, 26.39976507506848 142.5893762206738, 42.41239974661968 140.33894717814954, 52.36764580263558 153.08108106397023" fill="rgb(49,49,49)" fill-opacity="0.88"/><polygon points="9.234131456904734 356.93698321101783, -6.778503214646459 359.1874122535421, -16.733749270662354 346.4452783677214, -10.676360655127064 331.45271543937645, 5.336274016424136 329.2022863968522, 15.291520072440033 341.94442028267287" fill="rgb(87,87,87)" fill-opacity="0.88"/><polygon points="478.0258121078862 750.1841830134173, 462.01317743633507 752.4346120559414, 452.05793138031913 739.6924781701208, 458.11531999585446 724.6999152417759, 474.1279546674056 722.4494861992516, 484.08320072342156 735.1916200850723" fill="rgb(77,77,77)" fill-opacity="0.88"/><polygon points="506.68818001319335 727.7906869473534, 490.6755453416422 730.0411159898775, 480.72029928562625 717.2989821040569, 486.7776879011616 702.306419175712, 502.79032257271274 700.0559901331877, 512.7455686287286 712.7981240190084" fill="rgb(23,23,23)" fill-opacity="0.88"/><polygon points="734.2765760403295 310.13470172291596, 718.2639413687783 312.38513076544024, 708.3086953127624 299.64299687961955, 714.3660839282977 284.6504339512746, 730.3787185998489 282.4000049087503, 740.3339646558647 295.142138794571" fill="rgb(0,0,0)" fill-opacity="0.88"/><polygon points="729.2144235202248 274.1156149512723, 713.2017888486737 276.36604399379655, 703.2465427926578 263.62391010797586, 709.3039314081931 248.6313471796309, 725.3165660797442 246.38091813710662, 735.2718121357601 259.1230520229273" fill="rgb(0,0,0)" fill-opacity="0.88"/><polygon points="724.1522710001201 238.09652817962854, 708.1396363285689 240.3469572221528, 698.1843902725531 227.60482333633212, 704.2417788880883 212.61226040798715, 720.2544135596395 210.36183136546288, 730.2096596156554 223.10396525128357" fill="rgb(0,0,0)" fill-opacity="0.88"/><polygon points="719.0901184800155 202.07744140798485, 703.0774838084643 204.32787045050912, 693.1222377524484 191.58573656468843, 699.1796263679837 176.59317363634347, 715.1922610395349 174.3427445938192, 725.1475070955507 187.08487847963988" fill="rgb(0,0,0)" fill-opacity="0.88"/><polygon points="714.0279659599108 166.05835463634114, 698.0153312883597 168.3087836788654, 688.0600852323438 155.56664979304472, 694.1174738478791 140.57408686469975, 710.1301085194302 138.32365782217548, 720.0853545754461 151.06579170799617" fill="rgb(0,0,0)" fill-opacity="0.88"/><polygon points="708.9658134398061 130.03926786469748, 692.9531787682549 132.28969690722175, 682.997932712239 119.54756302140105, 689.0553213277743 104.5550000930561, 705.0679559993255 102.30457105053183, 715.0232020553414 115.04670493635253" fill="rgb(14,14,14)" fill-opacity="0.88"/><polygon points="703.9036609197015 94.02018109305374, 687.8910262481503 96.270610135578, 677.9357801921344 83.5284762497573, 683.9931688076697 68.53591332141235, 700.0058034792208 66.28548427888809, 709.9610495352367 79.02761816470878" fill="rgb(16,16,16)" fill-opacity="0.88"/><polygon points="670.1791404942896 80.39459038747401, 654.1665058227385 82.64501942999827, 644.2112597667226 69.90288554417758, 650.2686483822579 54.91032261583263, 666.281283053809 52.659893573308366, 676.2365291098249 65.40202745912906" fill="rgb(26,26,26)" fill-opacity="0.88"/><polygon points="636.4546200688778 66.76899968189417, 620.4419853973267 69.01942872441843, 610.4867393413108 56.27729483859774, 616.5441279568461 41.28473191025279, 632.5567626283972 39.03430286772853, 642.5120086844131 51.77643675354921" fill="rgb(0,0,0)" fill-opacity="0.88"/><polygon points="602.730099643466 53.14340897631439, 586.7174649719149 55.39383801883865, 576.762218915899 42.65170413301796, 582.8196075314343 27.65914120467301, 598.8322422029854 25.408712162148746, 608.7874882590013 38.15084604796943" fill="rgb(0,0,0)" fill-opacity="0.88"/><polygon points="569.0055792180542 39.51781827073461, 552.992944546503 41.76824731325887, 543.0376984904872 29.02611342743818, 549.0950871060224 14.033550499093227, 565.1077217775736 11.783121456568962, 575.0629678335895 24.52525534238965" fill="rgb(48,48,48)" fill-opacity="0.88"/><polygon points="501.5565383672306 12.266636859575046, 485.54390369567943 14.517065902099306, 475.5886576396635 1.774932016278615, 481.6460462551988 -13.217630912066337, 497.65868092675 -15.468059954590602, 507.6139269827659 -2.7259260687699136" fill="rgb(88,88,88)" fill-opacity="0.88"/><polygon points="467.8320179418188 -1.3589538460047361, 451.8193832702676 0.891475196519524, 441.8641372142517 -11.850658689301167, 447.921525829787 -26.84322161764612, 463.93416050133817 -29.093650660170383, 473.8894065573541 -16.351516774349697" fill="rgb(65,65,65)" fill-opacity="0.88"/><polygon points="434.107497516407 -14.984544551584518, 418.09486284485587 -12.734115509060258, 408.13961678883993 -25.47624939488095, 414.19700540437526 -40.468812323225904, 430.2096400759264 -42.719241365750165, 440.16488613194235 -29.97710747992948" fill="rgb(76,76,76)" fill-opacity="0.88"/><polygon points="400.3829770909952 -28.610135257164302, 384.37034241944406 -26.359706214640042, 374.4150963634281 -39.101840100460734, 380.47248497896345 -54.09440302880569, 396.4851196505146 -56.34483207132995, 406.44036570653054 -43.60269818550926" fill="rgb(42,42,42)" fill-opacity="0.88"/><polygon points="241.88468000414554 -24.69991524177584, 225.87204533259435 -22.44948619925158, 215.91679927657847 -35.19162008507227, 221.97418789211375 -50.184183013417226, 237.98682256366496 -52.434612055941486, 247.94206861968084 -39.6924781701208" fill="rgb(73,73,73)" fill-opacity="0.88"/><polygon points="213.22231209883842 -2.3064191757119357, 197.20967742728723 -0.05599013318767554, 187.25443137127135 -12.798124019008366, 193.31181998680663 -27.79068694735332, 209.32445465835784 -30.041115989877582, 219.27970071437372 -17.298982104056897" fill="rgb(74,74,74)" fill-opacity="0.88"/><polygon points="41.2481046669957 132.0545572206715, 25.235469995444507 134.3049862631958, 15.280223939428613 121.56285237737508, 21.337612554963904 106.57028944903013, 37.3502472265151 104.31986040650587, 47.305493282531 117.06199429232656" fill="rgb(84,84,84)" fill-opacity="0.88"/><polygon points="-19.428236448402387 379.3304792770818, -35.440871119953584 381.58090831960607, -45.39611717596948 368.8387744337854, -39.338728560434184 353.8462115054404, -23.326093888882987 351.59578246291613, -13.370847832867089 364.3379163487368" fill="rgb(66,66,66)" fill-opacity="0.88"/><polygon points="747.7524863853226 179.68394534192092, 731.7398517137715 181.9343743844452, 721.7846056577556 169.1922404986245, 727.8419942732909 154.19967757027953, 743.854628944842 151.94924852775526, 753.8098750008579 164.69138241357595" fill="rgb(0,0,0)" fill-opacity="0.88"/><polygon points="742.6903338652179 143.66485857027726, 726.6776991936667 145.91528761280154, 716.7224531376509 133.17315372698084, 722.7798417531861 118.18059079863588, 738.7924764247373 115.93016175611162, 748.7477224807532 128.6722956419323" fill="rgb(0,0,0)" fill-opacity="0.88"/><polygon points="737.6281813451133 107.64577179863355, 721.6155466735621 109.8962008411578, 711.6603006175462 97.15406695533711, 717.7176892330815 82.16150402699216, 733.7303239046327 79.9110749844679, 743.6855699606485 92.6532088702886" fill="rgb(19,19,19)" fill-opacity="0.88"/><polygon points="732.5660288250086 71.62668502698983, 716.5533941534575 73.87711406951409, 706.5981480974416 61.1349801836934, 712.6555367129769 46.14241725534845, 728.668171384528 43.89198821282419, 738.6234174405439 56.63412209864487" fill="rgb(10,10,10)" fill-opacity="0.88"/><polygon points="698.8415083995968 58.00109432141005, 682.8288737280457 60.25152336393431, 672.8736276720298 47.50938947811362, 678.9310162875651 32.516826549768666, 694.9436509591162 30.266397507244406, 704.8988970151321 43.00853139306509" fill="rgb(7,7,7)" fill-opacity="0.88"/><polygon points="665.116987974185 44.37550361583027, 649.1043533026339 46.62593265835453, 639.149107246618 33.88379877253384, 645.2064958621532 18.891235844188888, 661.2191305337044 16.640806801664624, 671.1743765897203 29.38294068748531" fill="rgb(0,0,0)" fill-opacity="0.88"/><polygon points="631.3924675487732 30.749912910250487, 615.379832877222 33.00034195277475, 605.4245868212062 20.258208066954058, 611.4819754367414 5.265645138609106, 627.4946101082926 3.01521609608484, 637.4498561643085 15.757349981905529" fill="rgb(41,41,41)" fill-opacity="0.88"/><polygon points="597.6679471233614 17.124322204670705, 581.6553124518102 19.374751247194965, 571.7000663957944 6.632617361374276, 577.7574550113296 -8.359945566970676, 593.7700896828808 -10.610374609494942, 603.7253357388967 2.131759276325747" fill="rgb(37,37,37)" fill-opacity="0.88"/><polygon points="563.9434266979496 3.4987314990909244, 547.9307920263984 5.7491605416151845, 537.9755459703825 -6.992973344205506, 544.0329345859178 -21.98553627255046, 560.045569257469 -24.235965315074722, 570.0008153134848 -11.493831429254035" fill="rgb(69,69,69)" fill-opacity="0.88"/><polygon points="496.49438584712595 -23.7524499120687, 480.4817511755748 -21.502020869544438, 470.52650511955886 -34.24415475536513, 476.5838937350942 -49.23671768371008, 492.59652840664535 -51.48714672623434, 502.5517744626613 -38.74501284041366" fill="rgb(79,79,79)" fill-opacity="0.88"/><polygon points="727.5038763049039 35.607598255346204, 711.4912416333527 37.858027297870464, 701.5359955773368 25.115893412049775, 707.5933841928721 10.123330483704823, 723.6060188644233 7.872901441180558, 733.5612649204392 20.615035327001245" fill="rgb(5,5,5)" fill-opacity="0.88"/><polygon points="693.7793558794921 21.982007549766365, 677.7667212079409 24.232436592290625, 667.811475151925 11.490302706469937, 673.8688637674603 -3.502260221875016, 689.8814984390115 -5.752689264399281, 699.8367444950273 6.989444621421407" fill="rgb(10,10,10)" fill-opacity="0.88"/><polygon points="660.0548354540803 8.356416844186585, 644.0422007825291 10.606845886710845, 634.0869547265132 -2.135287999109846, 640.1443433420485 -17.127850927454798, 656.1569780135997 -19.37827996997906, 666.1122240696155 -6.636146084158375" fill="rgb(53,53,53)" fill-opacity="0.88"/><polygon points="626.3303150286685 -5.269173861393197, 610.3176803571173 -3.018744818868937, 600.3624343011014 -15.760878704689627, 606.4198229166367 -30.75344163303458, 622.4324575881878 -33.003870675558844, 632.3877036442037 -20.26173678973816" fill="rgb(29,29,29)" fill-opacity="0.88"/><polygon points="592.6057946032566 -18.89476456697298, 576.5931599317055 -16.64433552444872, 566.6379138756896 -29.38646941026941, 572.6953024912249 -44.379032338614365, 588.707937162776 -46.629461381138626, 598.6631832187919 -33.88732749531794" fill="rgb(47,47,47)" fill-opacity="0.88"/><polygon points="722.4417237847993 -0.4114885162975366, 706.4290891132481 1.8389405262267235, 696.4738430572322 -10.903193359593967, 702.5312316727675 -25.89575628793892, 718.5438663443186 -28.146185330463183, 728.4991124003345 -15.404051444642496" fill="rgb(7,7,7)" fill-opacity="0.88"/><polygon points="688.7172033593874 -14.037079221877319, 672.7045686878363 -11.786650179353058, 662.7493226318204 -24.52878406517375, 668.8067112473557 -39.521346993518705, 684.8193459189068 -41.771776036042965, 694.7745919749227 -29.02964215022228" fill="rgb(20,20,20)" fill-opacity="0.88"/><polygon points="654.9926829339756 -27.662669927457102, 638.9800482624245 -25.412240884932842, 629.0248022064086 -38.154374770753535, 635.0821908219439 -53.14693769909849, 651.094825493495 -55.39736674162275, 661.0500715495109 -42.65523285580206" fill="rgb(56,56,56)" fill-opacity="0.88"/><polygon points="751.1040916901063 -22.804984582361442, 735.0914570185552 -20.55455553983718, 725.1362109625393 -33.296689425657874, 731.1935995780746 -48.28925235400283, 747.2062342496257 -50.53968139652709, 757.1614803056416 -37.7975475107064" fill="rgb(7,7,7)" fill-opacity="0.88"/></g></svg>